<svg width="898" height="309" viewBox="0 0 898 309" fill="none" xmlns="http://www.w3.org/2000/svg">
<path id="cricle_path" d="M114.35 24.3145C92.8962 24.3145 75.1641 41.768 75.1641 63.5003C75.1641 85.2446 92.8968 102.686 114.35 102.686C135.803 102.686 153.536 84.9534 153.536 63.5003C153.536 42.0472 135.803 24.3145 114.35 24.3145ZM114.35 93.8272C97.7568 93.8272 84.023 80.0946 84.023 63.5003C84.023 46.906 97.7556 33.1734 114.35 33.1734C130.944 33.1734 144.677 46.906 144.677 63.5003C144.677 80.0946 130.944 93.8272 114.35 93.8272Z" fill="url(#paint0_linear_0_1)"></path>
<path id="path_eye" d="M114.354 0C52.284 0 3.08647 58.0708 1.07268 60.6395C-0.357561 62.3603 -0.357561 64.6396 1.07268 66.3605C3.0728 68.9305 52.2697 127 114.354 127C176.424 127 225.621 68.9292 227.635 66.3605C229.065 64.6397 229.065 62.3604 227.635 60.6395C225.624 58.0695 176.426 0 114.354 0ZM114.354 118.141C64.0035 118.141 20.8186 74.942 10.2377 63.5C20.8192 52.058 64.0178 8.85894 114.354 8.85894C164.704 8.85894 207.889 52.058 218.47 63.5C207.888 74.942 164.701 118.141 114.354 118.141Z" fill="black"></path>
<path d="M114.354 0C52.284 0 3.08647 58.0708 1.07268 60.6395C-0.357561 62.3603 -0.357561 64.6396 1.07268 66.3605C3.0728 68.9305 52.2697 127 114.354 127C176.424 127 225.621 68.9292 227.635 66.3605C229.065 64.6397 229.065 62.3604 227.635 60.6395C225.624 58.0695 176.426 0 114.354 0ZM114.354 118.141C64.0035 118.141 20.8186 74.942 10.2377 63.5C20.8192 52.058 64.0178 8.85894 114.354 8.85894C164.704 8.85894 207.889 52.058 218.47 63.5C207.888 74.942 164.701 118.141 114.354 118.141Z" fill="url(#paint1_linear_0_1)"></path>
<path id="path_lft" d="M115 127.7L114.584 203.738L114.011 308.7" stroke="url(#paint2_linear_0_1)" stroke-width="6"></path>
<path id="path_btm" d="M898 306L567.802 306L112 306" stroke="url(#paint3_linear_0_1)" stroke-width="6"></path>
<defs>
<linearGradient id="paint0_linear_0_1" x1="134.363" y1="81.8687" x2="67.3165" y2="49.7862" gradientUnits="userSpaceOnUse">
<stop stop-color="#55097B"></stop>
<stop offset="1" stop-color="#F00045"></stop>
</linearGradient>
<linearGradient id="paint1_linear_0_1" x1="172.758" y1="93.2656" x2="34.7662" y2="-25.6444" gradientUnits="userSpaceOnUse">
<stop stop-color="#55097B"></stop>
<stop offset="1" stop-color="#F00045"></stop>
</linearGradient>
<linearGradient id="paint2_linear_0_1" x1="1.13322e+14" y1="242.929" x2="1.13322e+14" y2="358.131" gradientUnits="userSpaceOnUse">
<stop stop-color="#55097B"></stop>
<stop offset="1" stop-color="#E5004B"></stop>
</linearGradient>
<linearGradient id="paint3_linear_0_1" x1="569.581" y1="-1.13322e+14" x2="69.3116" y2="-1.13322e+14" gradientUnits="userSpaceOnUse">
<stop stop-color="#55097B"></stop>
<stop offset="1" stop-color="#E5004B"></stop>
</linearGradient>
</defs>
</svg>