<svg width="1334" height="658" viewBox="0 0 1334 658" fill="none" xmlns="http://www.w3.org/2000/svg">
<g opacity="0.1">
<path d="M172.029 0.449804H163.066C162.717 0.449804 162.468 0.537065 162.318 0.711587C162.169 0.88611 162.044 1.27255 161.919 1.85845L147.683 55.0005C147.209 56.6459 146.835 57.6682 146.536 58.0795C146.25 58.4909 145.751 58.6904 145.04 58.6904C144.168 58.6904 143.544 58.466 143.195 58.0297C142.846 57.5934 142.46 56.5836 142.049 55.0005L128.286 1.85845C128.174 1.27255 128.037 0.88611 127.887 0.711587C127.738 0.537065 127.488 0.449804 127.139 0.449804H118.176C117.242 0.449804 116.892 0.923507 117.117 1.85845L131.702 57.7305C132.811 62.3553 134.133 65.2599 135.654 66.4317C137 67.5411 140.129 68.1021 145.053 68.1021C149.678 68.1021 152.67 67.5411 154.016 66.4317C155.362 65.3222 156.708 62.4176 158.055 57.7305L173.089 1.85845C173.325 0.923507 172.976 0.449804 172.029 0.449804Z" fill="url(#paint0_linear_386_1065)"/>
<path d="M636.088 120.329H627.125C626.776 120.329 626.526 120.416 626.377 120.591C626.227 120.765 626.102 121.152 625.978 121.738L611.742 174.88C611.268 176.525 610.894 177.547 610.595 177.959C610.308 178.37 609.81 178.57 609.099 178.57C608.226 178.57 607.603 178.345 607.254 177.909C606.905 177.473 606.519 176.463 606.107 174.88L592.345 121.738C592.233 121.152 592.095 120.765 591.946 120.591C591.796 120.416 591.547 120.329 591.198 120.329H582.235C581.3 120.329 580.951 120.803 581.175 121.738L595.76 177.61C596.87 182.235 598.191 185.139 599.712 186.311C601.058 187.42 604.187 187.981 609.111 187.981C613.736 187.981 616.728 187.42 618.074 186.311C619.421 185.201 620.767 182.297 622.113 177.61L637.147 121.738C637.384 120.803 637.035 120.329 636.088 120.329Z" fill="url(#paint1_linear_386_1065)"/>
<path d="M636.088 0H627.125C626.776 0 626.526 0.0872611 626.377 0.261783C626.227 0.436305 626.102 0.822747 625.978 1.40864L611.742 54.5506C611.268 56.1961 610.894 57.2183 610.595 57.6297C610.308 58.0411 609.81 58.2405 609.099 58.2405C608.226 58.2405 607.603 58.0162 607.254 57.5799C606.905 57.1436 606.519 56.1338 606.107 54.5506L592.345 1.40864C592.233 0.822747 592.095 0.436305 591.946 0.261783C591.796 0.0872611 591.547 0 591.198 0H582.235C581.3 0 580.951 0.473703 581.175 1.40864L595.76 57.2807C596.87 61.9055 598.191 64.8101 599.712 65.9818C601.058 67.0913 604.187 67.6523 609.111 67.6523C613.736 67.6523 616.728 67.0913 618.074 65.9818C619.421 64.8724 620.767 61.9678 622.113 57.2807L637.147 1.40864C637.384 0.473703 637.035 0 636.088 0Z" fill="url(#paint2_linear_386_1065)"/>
<path d="M404.231 240.66H395.268C394.919 240.66 394.669 240.747 394.52 240.922C394.37 241.096 394.246 241.483 394.121 242.069L379.885 295.211C379.411 296.856 379.037 297.879 378.738 298.29C378.451 298.701 377.953 298.901 377.242 298.901C376.369 298.901 375.746 298.676 375.397 298.24C375.048 297.804 374.662 296.794 374.25 295.211L360.488 242.069C360.376 241.483 360.239 241.096 360.089 240.922C359.939 240.747 359.69 240.66 359.341 240.66H350.378C349.443 240.66 349.094 241.134 349.319 242.069L363.904 297.941C365.013 302.566 366.334 305.47 367.855 306.642C369.202 307.751 372.331 308.312 377.255 308.312C381.879 308.312 384.871 307.751 386.218 306.642C387.564 305.533 388.91 302.628 390.256 297.941L405.29 242.069C405.527 241.134 405.178 240.66 404.231 240.66Z" fill="url(#paint3_linear_386_1065)"/>
<path d="M56.031 66.2436L41.0096 10.3716C39.6633 5.68444 38.317 2.79235 36.9707 1.67043C35.6244 0.560964 32.6325 0 28.0077 0C23.0837 0 19.9548 0.560964 18.6084 1.67043C17.0876 2.84222 15.7662 5.7343 14.6568 10.3716L0.07171 66.2436C-0.165142 67.1786 0.183891 67.6523 1.1313 67.6523H10.0943C10.4433 67.6523 10.6926 67.565 10.8422 67.3905C10.9918 67.216 11.1165 66.8295 11.2411 66.2436L25.0284 13.1016C25.4397 11.5185 25.8137 10.5087 26.1752 10.0724C26.5243 9.63612 27.1476 9.41173 28.0202 9.41173C28.7183 9.41173 29.2169 9.61118 29.5161 10.0226C29.8153 10.4339 30.1892 11.4561 30.6629 13.1016L44.899 66.2436C45.0112 66.8295 45.1483 67.216 45.2979 67.3905C45.4475 67.565 45.6968 67.6523 46.0458 67.6523H55.0088C55.9437 67.6523 56.2928 67.1786 56.0684 66.2436H56.031Z" fill="url(#paint4_linear_386_1065)"/>
<path d="M56.031 306.904L41.0096 251.032C39.6633 246.345 38.317 243.453 36.9707 242.331C35.6244 241.221 32.6325 240.66 28.0077 240.66C23.0837 240.66 19.9548 241.221 18.6084 242.331C17.0876 243.502 15.7662 246.394 14.6568 251.032L0.07171 306.904C-0.165142 307.839 0.183891 308.312 1.1313 308.312H10.0943C10.4433 308.312 10.6926 308.225 10.8422 308.051C10.9918 307.876 11.1165 307.49 11.2411 306.904L25.0284 253.762C25.4397 252.179 25.8137 251.169 26.1752 250.733C26.5243 250.296 27.1476 250.072 28.0202 250.072C28.7183 250.072 29.2169 250.271 29.5161 250.683C29.8153 251.094 30.1892 252.116 30.6629 253.762L44.899 306.904C45.0112 307.49 45.1483 307.876 45.2979 308.051C45.4475 308.225 45.6968 308.312 46.0458 308.312H55.0088C55.9437 308.312 56.2928 307.839 56.0684 306.904H56.031Z" fill="url(#paint5_linear_386_1065)"/>
<path d="M290.824 66.2436L275.803 10.3716C274.457 5.68444 273.11 2.79235 271.764 1.67043C270.418 0.560964 267.426 0 262.801 0C257.877 0 254.748 0.560964 253.402 1.67043C251.881 2.84222 250.56 5.7343 249.45 10.3716L234.865 66.2436C234.628 67.1786 234.977 67.6523 235.925 67.6523H244.888C245.237 67.6523 245.486 67.565 245.636 67.3905C245.785 67.216 245.91 66.8295 246.035 66.2436L259.822 13.1016C260.233 11.5185 260.607 10.5087 260.969 10.0724C261.318 9.63612 261.941 9.41173 262.814 9.41173C263.512 9.41173 264.01 9.61118 264.31 10.0226C264.609 10.4339 264.983 11.4561 265.456 13.1016L279.692 66.2436C279.805 66.8295 279.942 67.216 280.091 67.3905C280.241 67.565 280.49 67.6523 280.839 67.6523H289.802C290.737 67.6523 291.086 67.1786 290.862 66.2436H290.824Z" fill="url(#paint6_linear_386_1065)"/>
<path d="M290.824 186.573L275.803 130.701C274.457 126.013 273.11 123.121 271.764 121.999C270.418 120.89 267.426 120.329 262.801 120.329C257.877 120.329 254.748 120.89 253.402 121.999C251.881 123.171 250.56 126.063 249.45 130.701L234.865 186.573C234.628 187.508 234.977 187.981 235.925 187.981H244.888C245.237 187.981 245.486 187.894 245.636 187.719C245.785 187.545 245.91 187.159 246.035 186.573L259.822 133.431C260.233 131.847 260.607 130.838 260.969 130.401C261.318 129.965 261.941 129.741 262.814 129.741C263.512 129.741 264.01 129.94 264.31 130.352C264.609 130.763 264.983 131.785 265.456 133.431L279.692 186.573C279.805 187.159 279.942 187.545 280.091 187.719C280.241 187.894 280.49 187.981 280.839 187.981H289.802C290.737 187.981 291.086 187.508 290.862 186.573H290.824Z" fill="url(#paint7_linear_386_1065)"/>
<path d="M290.824 306.904L275.803 251.032C274.457 246.345 273.11 243.453 271.764 242.331C270.418 241.221 267.426 240.66 262.801 240.66C257.877 240.66 254.748 241.221 253.402 242.331C251.881 243.502 250.56 246.394 249.45 251.032L234.865 306.904C234.628 307.839 234.977 308.312 235.925 308.312H244.888C245.237 308.312 245.486 308.225 245.636 308.051C245.785 307.876 245.91 307.49 246.035 306.904L259.822 253.762C260.233 252.179 260.607 251.169 260.969 250.733C261.318 250.296 261.941 250.072 262.814 250.072C263.512 250.072 264.01 250.271 264.31 250.683C264.609 251.094 264.983 252.116 265.456 253.762L279.692 306.904C279.805 307.49 279.942 307.876 280.091 308.051C280.241 308.225 280.49 308.312 280.839 308.312H289.802C290.737 308.312 291.086 307.839 290.862 306.904H290.824Z" fill="url(#paint8_linear_386_1065)"/>
<path d="M519.747 306.904L504.725 251.032C503.379 246.345 502.033 243.453 500.687 242.331C499.34 241.221 496.348 240.66 491.724 240.66C486.8 240.66 483.671 241.221 482.324 242.331C480.803 243.502 479.482 246.394 478.373 251.032L463.788 306.904C463.551 307.839 463.9 308.312 464.847 308.312H473.81C474.159 308.312 474.408 308.225 474.558 308.051C474.708 307.876 474.832 307.49 474.957 306.904L488.744 253.762C489.156 252.179 489.53 251.169 489.891 250.733C490.24 250.296 490.863 250.072 491.736 250.072C492.434 250.072 492.933 250.271 493.232 250.683C493.531 251.094 493.905 252.116 494.379 253.762L508.615 306.904C508.727 307.49 508.864 307.876 509.014 308.051C509.163 308.225 509.413 308.312 509.762 308.312H518.725C519.66 308.312 520.009 307.839 519.784 306.904H519.747Z" fill="url(#paint9_linear_386_1065)"/>
<path d="M519.747 186.573L504.725 130.701C503.379 126.013 502.033 123.121 500.687 121.999C499.34 120.89 496.348 120.329 491.724 120.329C486.8 120.329 483.671 120.89 482.324 121.999C480.803 123.171 479.482 126.063 478.373 130.701L463.788 186.573C463.551 187.508 463.9 187.981 464.847 187.981H473.81C474.159 187.981 474.408 187.894 474.558 187.719C474.708 187.545 474.832 187.159 474.957 186.573L488.744 133.431C489.156 131.847 489.53 130.838 489.891 130.401C490.24 129.965 490.863 129.741 491.736 129.741C492.434 129.741 492.933 129.94 493.232 130.352C493.531 130.763 493.905 131.785 494.379 133.431L508.615 186.573C508.727 187.159 508.864 187.545 509.014 187.719C509.163 187.894 509.413 187.981 509.762 187.981H518.725C519.66 187.981 520.009 187.508 519.784 186.573H519.747Z" fill="url(#paint10_linear_386_1065)"/>
<path d="M867.977 0.449804H859.014C858.665 0.449804 858.415 0.537065 858.266 0.711587C858.116 0.88611 857.991 1.27255 857.867 1.85845L843.631 55.0005C843.157 56.6459 842.783 57.6682 842.484 58.0795C842.197 58.4909 841.698 58.6904 840.988 58.6904C840.115 58.6904 839.492 58.466 839.143 58.0297C838.794 57.5934 838.408 56.5836 837.996 55.0005L824.234 1.85845C824.122 1.27255 823.984 0.88611 823.835 0.711587C823.685 0.537065 823.436 0.449804 823.087 0.449804H814.124C813.189 0.449804 812.84 0.923507 813.064 1.85845L827.649 57.7305C828.759 62.3553 830.08 65.2599 831.601 66.4317C832.947 67.5411 836.076 68.1021 841 68.1021C845.625 68.1021 848.617 67.5411 849.963 66.4317C851.31 65.3222 852.656 62.4176 854.002 57.7305L869.036 1.85845C869.273 0.923507 868.924 0.449804 867.977 0.449804Z" fill="url(#paint11_linear_386_1065)"/>
<path d="M867.977 120.395H859.014C858.665 120.395 858.415 120.483 858.266 120.657C858.116 120.832 857.991 121.218 857.867 121.804L843.631 174.946C843.157 176.592 842.783 177.614 842.484 178.025C842.197 178.437 841.698 178.636 840.988 178.636C840.115 178.636 839.492 178.412 839.143 177.975C838.794 177.539 838.408 176.529 837.996 174.946L824.234 121.804C824.122 121.218 823.984 120.832 823.835 120.657C823.685 120.483 823.436 120.395 823.087 120.395H814.124C813.189 120.395 812.84 120.869 813.064 121.804L827.649 177.676C828.759 182.301 830.08 185.205 831.601 186.377C832.947 187.487 836.076 188.048 841 188.048C845.625 188.048 848.617 187.487 849.963 186.377C851.31 185.268 852.656 182.363 854.002 177.676L869.036 121.804C869.273 120.869 868.924 120.395 867.977 120.395Z" fill="url(#paint12_linear_386_1065)"/>
<path d="M867.977 240.791H859.014C858.665 240.791 858.415 240.878 858.266 241.053C858.116 241.227 857.991 241.614 857.867 242.199L843.631 295.341C843.157 296.987 842.783 298.009 842.484 298.421C842.197 298.832 841.698 299.031 840.988 299.031C840.115 299.031 839.492 298.807 839.143 298.371C838.794 297.934 838.408 296.925 837.996 295.341L824.234 242.199C824.122 241.614 823.984 241.227 823.835 241.053C823.685 240.878 823.436 240.791 823.087 240.791H814.124C813.189 240.791 812.84 241.265 813.064 242.199L827.649 298.072C828.759 302.696 830.08 305.601 831.601 306.773C832.947 307.882 836.076 308.443 841 308.443C845.625 308.443 848.617 307.882 849.963 306.773C851.31 305.663 852.656 302.759 854.002 298.072L869.036 242.199C869.273 241.265 868.924 240.791 867.977 240.791Z" fill="url(#paint13_linear_386_1065)"/>
<path d="M1332.03 120.329H1323.07C1322.72 120.329 1322.47 120.416 1322.32 120.591C1322.17 120.765 1322.05 121.152 1321.92 121.738L1307.69 174.88C1307.21 176.525 1306.84 177.547 1306.54 177.959C1306.25 178.37 1305.76 178.57 1305.04 178.57C1304.17 178.57 1303.55 178.345 1303.2 177.909C1302.85 177.473 1302.46 176.463 1302.05 174.88L1288.29 121.738C1288.18 121.152 1288.04 120.765 1287.89 120.591C1287.74 120.416 1287.49 120.329 1287.14 120.329H1278.18C1277.25 120.329 1276.9 120.803 1277.12 121.738L1291.71 177.61C1292.82 182.235 1294.14 185.139 1295.66 186.311C1297 187.42 1300.13 187.981 1305.06 187.981C1309.68 187.981 1312.67 187.42 1314.02 186.311C1315.37 185.201 1316.71 182.297 1318.06 177.61L1333.09 121.738C1333.33 120.803 1332.98 120.329 1332.03 120.329Z" fill="url(#paint14_linear_386_1065)"/>
<path d="M1332.03 0H1323.07C1322.72 0 1322.47 0.0872611 1322.32 0.261783C1322.17 0.436305 1322.05 0.822747 1321.92 1.40864L1307.69 54.5506C1307.21 56.1961 1306.84 57.2183 1306.54 57.6297C1306.25 58.0411 1305.76 58.2405 1305.04 58.2405C1304.17 58.2405 1303.55 58.0162 1303.2 57.5799C1302.85 57.1436 1302.46 56.1338 1302.05 54.5506L1288.29 1.40864C1288.18 0.822747 1288.04 0.436305 1287.89 0.261783C1287.74 0.0872611 1287.49 0 1287.14 0H1278.18C1277.25 0 1276.9 0.473703 1277.12 1.40864L1291.71 57.2807C1292.82 61.9055 1294.14 64.8101 1295.66 65.9818C1297 67.0913 1300.13 67.6523 1305.06 67.6523C1309.68 67.6523 1312.67 67.0913 1314.02 65.9818C1315.37 64.8724 1316.71 61.9678 1318.06 57.2807L1333.09 1.40864C1333.33 0.473703 1332.98 0 1332.03 0Z" fill="url(#paint15_linear_386_1065)"/>
<path d="M1100.18 240.66H1091.21C1090.86 240.66 1090.61 240.747 1090.47 240.922C1090.32 241.096 1090.19 241.483 1090.07 242.069L1075.83 295.211C1075.36 296.856 1074.98 297.879 1074.68 298.29C1074.4 298.701 1073.9 298.901 1073.19 298.901C1072.31 298.901 1071.69 298.676 1071.34 298.24C1070.99 297.804 1070.61 296.794 1070.2 295.211L1056.43 242.069C1056.32 241.483 1056.18 241.096 1056.03 240.922C1055.88 240.747 1055.64 240.66 1055.29 240.66H1046.32C1045.39 240.66 1045.04 241.134 1045.26 242.069L1059.85 297.941C1060.96 302.566 1062.28 305.47 1063.8 306.642C1065.15 307.751 1068.28 308.312 1073.2 308.312C1077.82 308.312 1080.82 307.751 1082.16 306.642C1083.51 305.533 1084.86 302.628 1086.2 297.941L1101.24 242.069C1101.47 241.134 1101.12 240.66 1100.18 240.66Z" fill="url(#paint16_linear_386_1065)"/>
<path d="M1100.18 120.395H1091.21C1090.86 120.395 1090.61 120.483 1090.47 120.657C1090.32 120.832 1090.19 121.218 1090.07 121.804L1075.83 174.946C1075.36 176.592 1074.98 177.614 1074.68 178.025C1074.4 178.437 1073.9 178.636 1073.19 178.636C1072.31 178.636 1071.69 178.412 1071.34 177.975C1070.99 177.539 1070.61 176.529 1070.2 174.946L1056.43 121.804C1056.32 121.218 1056.18 120.832 1056.03 120.657C1055.88 120.483 1055.64 120.395 1055.29 120.395H1046.32C1045.39 120.395 1045.04 120.869 1045.26 121.804L1059.85 177.676C1060.96 182.301 1062.28 185.205 1063.8 186.377C1065.15 187.487 1068.28 188.048 1073.2 188.048C1077.82 188.048 1080.82 187.487 1082.16 186.377C1083.51 185.268 1084.86 182.363 1086.2 177.676L1101.24 121.804C1101.47 120.869 1101.12 120.395 1100.18 120.395Z" fill="url(#paint17_linear_386_1065)"/>
<path d="M751.979 66.2436L736.957 10.3716C735.611 5.68444 734.265 2.79235 732.918 1.67043C731.572 0.560964 728.58 0 723.955 0C719.031 0 715.902 0.560964 714.556 1.67043C713.035 2.84222 711.714 5.7343 710.604 10.3716L696.019 66.2436C695.782 67.1786 696.131 67.6523 697.079 67.6523H706.042C706.391 67.6523 706.64 67.565 706.79 67.3905C706.939 67.216 707.064 66.8295 707.189 66.2436L720.976 13.1016C721.387 11.5185 721.761 10.5087 722.123 10.0724C722.472 9.63612 723.095 9.41173 723.968 9.41173C724.666 9.41173 725.164 9.61118 725.464 10.0226C725.763 10.4339 726.137 11.4561 726.61 13.1016L740.846 66.2436C740.959 66.8295 741.096 67.216 741.245 67.3905C741.395 67.565 741.644 67.6523 741.993 67.6523H750.956C751.891 67.6523 752.24 67.1786 752.016 66.2436H751.979Z" fill="url(#paint18_linear_386_1065)"/>
<path d="M751.979 306.904L736.957 251.032C735.611 246.345 734.265 243.453 732.918 242.331C731.572 241.221 728.58 240.66 723.955 240.66C719.031 240.66 715.902 241.221 714.556 242.331C713.035 243.502 711.714 246.394 710.604 251.032L696.019 306.904C695.782 307.839 696.131 308.312 697.079 308.312H706.042C706.391 308.312 706.64 308.225 706.79 308.051C706.939 307.876 707.064 307.49 707.189 306.904L720.976 253.762C721.387 252.179 721.761 251.169 722.123 250.733C722.472 250.296 723.095 250.072 723.968 250.072C724.666 250.072 725.164 250.271 725.464 250.683C725.763 251.094 726.137 252.116 726.61 253.762L740.846 306.904C740.959 307.49 741.096 307.876 741.245 308.051C741.395 308.225 741.644 308.312 741.993 308.312H750.956C751.891 308.312 752.24 307.839 752.016 306.904H751.979Z" fill="url(#paint19_linear_386_1065)"/>
<path d="M986.772 66.2436L971.751 10.3716C970.404 5.68444 969.058 2.79235 967.712 1.67043C966.365 0.560964 963.374 0 958.749 0C953.825 0 950.696 0.560964 949.349 1.67043C947.829 2.84222 946.507 5.7343 945.398 10.3716L930.813 66.2436C930.576 67.1786 930.925 67.6523 931.872 67.6523H940.835C941.184 67.6523 941.434 67.565 941.583 67.3905C941.733 67.216 941.857 66.8295 941.982 66.2436L955.769 13.1016C956.181 11.5185 956.555 10.5087 956.916 10.0724C957.265 9.63612 957.889 9.41173 958.761 9.41173C959.459 9.41173 959.958 9.61118 960.257 10.0226C960.556 10.4339 960.93 11.4561 961.404 13.1016L975.64 66.2436C975.752 66.8295 975.889 67.216 976.039 67.3905C976.188 67.565 976.438 67.6523 976.787 67.6523H985.75C986.685 67.6523 987.034 67.1786 986.809 66.2436H986.772Z" fill="url(#paint20_linear_386_1065)"/>
<path d="M986.772 186.573L971.751 130.701C970.404 126.013 969.058 123.121 967.712 121.999C966.365 120.89 963.374 120.329 958.749 120.329C953.825 120.329 950.696 120.89 949.349 121.999C947.829 123.171 946.507 126.063 945.398 130.701L930.813 186.573C930.576 187.508 930.925 187.981 931.872 187.981H940.835C941.184 187.981 941.434 187.894 941.583 187.719C941.733 187.545 941.857 187.159 941.982 186.573L955.769 133.431C956.181 131.847 956.555 130.838 956.916 130.401C957.265 129.965 957.889 129.741 958.761 129.741C959.459 129.741 959.958 129.94 960.257 130.352C960.556 130.763 960.93 131.785 961.404 133.431L975.64 186.573C975.752 187.159 975.889 187.545 976.039 187.719C976.188 187.894 976.438 187.981 976.787 187.981H985.75C986.685 187.981 987.034 187.508 986.809 186.573H986.772Z" fill="url(#paint21_linear_386_1065)"/>
<path d="M986.772 306.904L971.751 251.032C970.404 246.345 969.058 243.453 967.712 242.331C966.365 241.221 963.374 240.66 958.749 240.66C953.825 240.66 950.696 241.221 949.349 242.331C947.829 243.502 946.507 246.394 945.398 251.032L930.813 306.904C930.576 307.839 930.925 308.312 931.872 308.312H940.835C941.184 308.312 941.434 308.225 941.583 308.051C941.733 307.876 941.857 307.49 941.982 306.904L955.769 253.762C956.181 252.179 956.555 251.169 956.916 250.733C957.265 250.296 957.889 250.072 958.761 250.072C959.459 250.072 959.958 250.271 960.257 250.683C960.556 251.094 960.93 252.116 961.404 253.762L975.64 306.904C975.752 307.49 975.889 307.876 976.039 308.051C976.188 308.225 976.438 308.312 976.787 308.312H985.75C986.685 308.312 987.034 307.839 986.809 306.904H986.772Z" fill="url(#paint22_linear_386_1065)"/>
<path d="M1215.69 306.904L1200.67 251.032C1199.32 246.345 1197.98 243.453 1196.63 242.331C1195.29 241.221 1192.29 240.66 1187.67 240.66C1182.74 240.66 1179.62 241.221 1178.27 242.331C1176.75 243.502 1175.43 246.394 1174.32 251.032L1159.73 306.904C1159.5 307.839 1159.85 308.312 1160.79 308.312H1169.76C1170.1 308.312 1170.35 308.225 1170.5 308.051C1170.65 307.876 1170.78 307.49 1170.9 306.904L1184.69 253.762C1185.1 252.179 1185.47 251.169 1185.84 250.733C1186.19 250.296 1186.81 250.072 1187.68 250.072C1188.38 250.072 1188.88 250.271 1189.18 250.683C1189.48 251.094 1189.85 252.116 1190.32 253.762L1204.56 306.904C1204.67 307.49 1204.81 307.876 1204.96 308.051C1205.11 308.225 1205.36 308.312 1205.71 308.312H1214.67C1215.61 308.312 1215.95 307.839 1215.73 306.904H1215.69Z" fill="url(#paint23_linear_386_1065)"/>
<path d="M1215.69 186.573L1200.67 130.701C1199.32 126.013 1197.98 123.121 1196.63 121.999C1195.29 120.89 1192.29 120.329 1187.67 120.329C1182.74 120.329 1179.62 120.89 1178.27 121.999C1176.75 123.171 1175.43 126.063 1174.32 130.701L1159.73 186.573C1159.5 187.508 1159.85 187.981 1160.79 187.981H1169.76C1170.1 187.981 1170.35 187.894 1170.5 187.719C1170.65 187.545 1170.78 187.159 1170.9 186.573L1184.69 133.431C1185.1 131.847 1185.47 130.838 1185.84 130.401C1186.19 129.965 1186.81 129.741 1187.68 129.741C1188.38 129.741 1188.88 129.94 1189.18 130.352C1189.48 130.763 1189.85 131.785 1190.32 133.431L1204.56 186.573C1204.67 187.159 1204.81 187.545 1204.96 187.719C1205.11 187.894 1205.36 187.981 1205.71 187.981H1214.67C1215.61 187.981 1215.95 187.508 1215.73 186.573H1215.69Z" fill="url(#paint24_linear_386_1065)"/>
<path d="M172.029 350.005H163.066C162.717 350.005 162.468 350.093 162.318 350.267C162.169 350.442 162.044 350.828 161.919 351.414L147.683 404.556C147.209 406.202 146.835 407.224 146.536 407.635C146.25 408.046 145.751 408.246 145.04 408.246C144.168 408.246 143.544 408.022 143.195 407.585C142.846 407.149 142.46 406.139 142.049 404.556L128.286 351.414C128.174 350.828 128.037 350.442 127.887 350.267C127.738 350.093 127.488 350.005 127.139 350.005H118.176C117.242 350.005 116.892 350.479 117.117 351.414L131.702 407.286C132.811 411.911 134.133 414.815 135.654 415.987C137 417.097 140.129 417.658 145.053 417.658C149.678 417.658 152.67 417.097 154.016 415.987C155.362 414.878 156.708 411.973 158.055 407.286L173.089 351.414C173.325 350.479 172.976 350.005 172.029 350.005Z" fill="url(#paint25_linear_386_1065)"/>
<path d="M636.088 469.885H627.125C626.776 469.885 626.526 469.972 626.377 470.146C626.227 470.321 626.102 470.707 625.978 471.293L611.742 524.435C611.268 526.081 610.894 527.103 610.595 527.514C610.308 527.926 609.81 528.125 609.099 528.125C608.226 528.125 607.603 527.901 607.254 527.464C606.905 527.028 606.519 526.018 606.107 524.435L592.345 471.293C592.233 470.707 592.095 470.321 591.946 470.146C591.796 469.972 591.547 469.885 591.198 469.885H582.235C581.3 469.885 580.951 470.358 581.175 471.293L595.76 527.165C596.87 531.79 598.191 534.695 599.712 535.866C601.058 536.976 604.187 537.537 609.111 537.537C613.736 537.537 616.728 536.976 618.074 535.866C619.421 534.757 620.767 531.852 622.113 527.165L637.147 471.293C637.384 470.358 637.035 469.885 636.088 469.885Z" fill="url(#paint26_linear_386_1065)"/>
<path d="M636.088 349.556H627.125C626.776 349.556 626.526 349.643 626.377 349.817C626.227 349.992 626.102 350.378 625.978 350.964L611.742 404.106C611.268 405.752 610.894 406.774 610.595 407.185C610.308 407.597 609.81 407.796 609.099 407.796C608.226 407.796 607.603 407.572 607.254 407.135C606.905 406.699 606.519 405.689 606.107 404.106L592.345 350.964C592.233 350.378 592.095 349.992 591.946 349.817C591.796 349.643 591.547 349.556 591.198 349.556H582.235C581.3 349.556 580.951 350.029 581.175 350.964L595.76 406.836C596.87 411.461 598.191 414.366 599.712 415.537C601.058 416.647 604.187 417.208 609.111 417.208C613.736 417.208 616.728 416.647 618.074 415.537C619.421 414.428 620.767 411.523 622.113 406.836L637.147 350.964C637.384 350.029 637.035 349.556 636.088 349.556Z" fill="url(#paint27_linear_386_1065)"/>
<path d="M404.231 590.216H395.268C394.919 590.216 394.669 590.303 394.52 590.478C394.37 590.652 394.246 591.039 394.121 591.624L379.885 644.766C379.411 646.412 379.037 647.434 378.738 647.846C378.451 648.257 377.953 648.456 377.242 648.456C376.369 648.456 375.746 648.232 375.397 647.796C375.048 647.359 374.662 646.35 374.25 644.766L360.488 591.624C360.376 591.039 360.239 590.652 360.089 590.478C359.939 590.303 359.69 590.216 359.341 590.216H350.378C349.443 590.216 349.094 590.689 349.319 591.624L363.904 647.496C365.013 652.121 366.334 655.026 367.855 656.198C369.202 657.307 372.331 657.868 377.255 657.868C381.879 657.868 384.871 657.307 386.218 656.198C387.564 655.088 388.91 652.184 390.256 647.496L405.29 591.624C405.527 590.689 405.178 590.216 404.231 590.216Z" fill="url(#paint28_linear_386_1065)"/>
<path d="M56.031 415.799L41.0096 359.927C39.6633 355.24 38.317 352.348 36.9707 351.226C35.6244 350.117 32.6325 349.556 28.0077 349.556C23.0837 349.556 19.9548 350.117 18.6084 351.226C17.0876 352.398 15.7662 355.29 14.6568 359.927L0.07171 415.799C-0.165142 416.734 0.183891 417.208 1.1313 417.208H10.0943C10.4433 417.208 10.6926 417.121 10.8422 416.946C10.9918 416.772 11.1165 416.385 11.2411 415.799L25.0284 362.657C25.4397 361.074 25.8137 360.064 26.1752 359.628C26.5243 359.192 27.1476 358.967 28.0202 358.967C28.7183 358.967 29.2169 359.167 29.5161 359.578C29.8153 359.99 30.1892 361.012 30.6629 362.657L44.899 415.799C45.0112 416.385 45.1483 416.772 45.2979 416.946C45.4475 417.121 45.6968 417.208 46.0458 417.208H55.0088C55.9437 417.208 56.2928 416.734 56.0684 415.799H56.031Z" fill="url(#paint29_linear_386_1065)"/>
<path d="M56.031 656.459L41.0096 600.587C39.6633 595.9 38.317 593.008 36.9707 591.886C35.6244 590.777 32.6325 590.216 28.0077 590.216C23.0837 590.216 19.9548 590.777 18.6084 591.886C17.0876 593.058 15.7662 595.95 14.6568 600.587L0.07171 656.459C-0.165142 657.394 0.183891 657.868 1.1313 657.868H10.0943C10.4433 657.868 10.6926 657.781 10.8422 657.606C10.9918 657.432 11.1165 657.045 11.2411 656.459L25.0284 603.317C25.4397 601.734 25.8137 600.724 26.1752 600.288C26.5243 599.852 27.1476 599.628 28.0202 599.628C28.7183 599.628 29.2169 599.827 29.5161 600.238C29.8153 600.65 30.1892 601.672 30.6629 603.317L44.899 656.459C45.0112 657.045 45.1483 657.432 45.2979 657.606C45.4475 657.781 45.6968 657.868 46.0458 657.868H55.0088C55.9437 657.868 56.2928 657.394 56.0684 656.459H56.031Z" fill="url(#paint30_linear_386_1065)"/>
<path d="M290.824 415.799L275.803 359.927C274.457 355.24 273.11 352.348 271.764 351.226C270.418 350.117 267.426 349.556 262.801 349.556C257.877 349.556 254.748 350.117 253.402 351.226C251.881 352.398 250.56 355.29 249.45 359.927L234.865 415.799C234.628 416.734 234.977 417.208 235.925 417.208H244.888C245.237 417.208 245.486 417.121 245.636 416.946C245.785 416.772 245.91 416.385 246.035 415.799L259.822 362.657C260.233 361.074 260.607 360.064 260.969 359.628C261.318 359.192 261.941 358.967 262.814 358.967C263.512 358.967 264.01 359.167 264.31 359.578C264.609 359.99 264.983 361.012 265.456 362.657L279.692 415.799C279.805 416.385 279.942 416.772 280.091 416.946C280.241 417.121 280.49 417.208 280.839 417.208H289.802C290.737 417.208 291.086 416.734 290.862 415.799H290.824Z" fill="url(#paint31_linear_386_1065)"/>
<path d="M290.824 536.128L275.803 480.256C274.457 475.569 273.11 472.677 271.764 471.555C270.418 470.446 267.426 469.885 262.801 469.885C257.877 469.885 254.748 470.446 253.402 471.555C251.881 472.727 250.56 475.619 249.45 480.256L234.865 536.128C234.628 537.063 234.977 537.537 235.925 537.537H244.888C245.237 537.537 245.486 537.45 245.636 537.275C245.785 537.101 245.91 536.714 246.035 536.128L259.822 482.986C260.233 481.403 260.607 480.393 260.969 479.957C261.318 479.521 261.941 479.296 262.814 479.296C263.512 479.296 264.01 479.496 264.31 479.907C264.609 480.319 264.983 481.341 265.456 482.986L279.692 536.128C279.805 536.714 279.942 537.101 280.091 537.275C280.241 537.45 280.49 537.537 280.839 537.537H289.802C290.737 537.537 291.086 537.063 290.862 536.128H290.824Z" fill="url(#paint32_linear_386_1065)"/>
<path d="M290.824 656.459L275.803 600.587C274.457 595.9 273.11 593.008 271.764 591.886C270.418 590.777 267.426 590.216 262.801 590.216C257.877 590.216 254.748 590.777 253.402 591.886C251.881 593.058 250.56 595.95 249.45 600.587L234.865 656.459C234.628 657.394 234.977 657.868 235.925 657.868H244.888C245.237 657.868 245.486 657.781 245.636 657.606C245.785 657.432 245.91 657.045 246.035 656.459L259.822 603.317C260.233 601.734 260.607 600.724 260.969 600.288C261.318 599.852 261.941 599.628 262.814 599.628C263.512 599.628 264.01 599.827 264.31 600.238C264.609 600.65 264.983 601.672 265.456 603.317L279.692 656.459C279.805 657.045 279.942 657.432 280.091 657.606C280.241 657.781 280.49 657.868 280.839 657.868H289.802C290.737 657.868 291.086 657.394 290.862 656.459H290.824Z" fill="url(#paint33_linear_386_1065)"/>
<path d="M519.747 656.459L504.725 600.587C503.379 595.9 502.033 593.008 500.687 591.886C499.34 590.777 496.348 590.216 491.724 590.216C486.8 590.216 483.671 590.777 482.324 591.886C480.803 593.058 479.482 595.95 478.373 600.587L463.788 656.459C463.551 657.394 463.9 657.868 464.847 657.868H473.81C474.159 657.868 474.408 657.781 474.558 657.606C474.708 657.432 474.832 657.045 474.957 656.459L488.744 603.317C489.156 601.734 489.53 600.724 489.891 600.288C490.24 599.852 490.863 599.628 491.736 599.628C492.434 599.628 492.933 599.827 493.232 600.238C493.531 600.65 493.905 601.672 494.379 603.317L508.615 656.459C508.727 657.045 508.864 657.432 509.014 657.606C509.163 657.781 509.413 657.868 509.762 657.868H518.725C519.66 657.868 520.009 657.394 519.784 656.459H519.747Z" fill="url(#paint34_linear_386_1065)"/>
<path d="M519.747 536.128L504.725 480.256C503.379 475.569 502.033 472.677 500.687 471.555C499.34 470.446 496.348 469.885 491.724 469.885C486.8 469.885 483.671 470.446 482.324 471.555C480.803 472.727 479.482 475.619 478.373 480.256L463.788 536.128C463.551 537.063 463.9 537.537 464.847 537.537H473.81C474.159 537.537 474.408 537.45 474.558 537.275C474.708 537.101 474.832 536.714 474.957 536.128L488.744 482.986C489.156 481.403 489.53 480.393 489.891 479.957C490.24 479.521 490.863 479.296 491.736 479.296C492.434 479.296 492.933 479.496 493.232 479.907C493.531 480.319 493.905 481.341 494.379 482.986L508.615 536.128C508.727 536.714 508.864 537.101 509.014 537.275C509.163 537.45 509.413 537.537 509.762 537.537H518.725C519.66 537.537 520.009 537.063 519.784 536.128H519.747Z" fill="url(#paint35_linear_386_1065)"/>
<path d="M867.977 350.005H859.014C858.665 350.005 858.415 350.093 858.266 350.267C858.116 350.442 857.991 350.828 857.867 351.414L843.631 404.556C843.157 406.202 842.783 407.224 842.484 407.635C842.197 408.046 841.698 408.246 840.988 408.246C840.115 408.246 839.492 408.022 839.143 407.585C838.794 407.149 838.408 406.139 837.996 404.556L824.234 351.414C824.122 350.828 823.984 350.442 823.835 350.267C823.685 350.093 823.436 350.005 823.087 350.005H814.124C813.189 350.005 812.84 350.479 813.064 351.414L827.649 407.286C828.759 411.911 830.08 414.815 831.601 415.987C832.947 417.097 836.076 417.658 841 417.658C845.625 417.658 848.617 417.097 849.963 415.987C851.31 414.878 852.656 411.973 854.002 407.286L869.036 351.414C869.273 350.479 868.924 350.005 867.977 350.005Z" fill="url(#paint36_linear_386_1065)"/>
<path d="M867.977 469.951H859.014C858.665 469.951 858.415 470.038 858.266 470.213C858.116 470.387 857.991 470.774 857.867 471.36L843.631 524.502C843.157 526.147 842.783 527.169 842.484 527.581C842.197 527.992 841.698 528.192 840.988 528.192C840.115 528.192 839.492 527.967 839.143 527.531C838.794 527.095 838.408 526.085 837.996 524.502L824.234 471.36C824.122 470.774 823.984 470.387 823.835 470.213C823.685 470.038 823.436 469.951 823.087 469.951H814.124C813.189 469.951 812.84 470.425 813.064 471.36L827.649 527.232C828.759 531.857 830.08 534.761 831.601 535.933C832.947 537.042 836.076 537.603 841 537.603C845.625 537.603 848.617 537.042 849.963 535.933C851.31 534.823 852.656 531.919 854.002 527.232L869.036 471.36C869.273 470.425 868.924 469.951 867.977 469.951Z" fill="url(#paint37_linear_386_1065)"/>
<path d="M867.977 590.349H859.014C858.665 590.349 858.415 590.436 858.266 590.61C858.116 590.785 857.991 591.171 857.867 591.757L843.631 644.899C843.157 646.545 842.783 647.567 842.484 647.978C842.197 648.39 841.698 648.589 840.988 648.589C840.115 648.589 839.492 648.365 839.143 647.928C838.794 647.492 838.408 646.482 837.996 644.899L824.234 591.757C824.122 591.171 823.984 590.785 823.835 590.61C823.685 590.436 823.436 590.349 823.087 590.349H814.124C813.189 590.349 812.84 590.822 813.064 591.757L827.649 647.629C828.759 652.254 830.08 655.159 831.601 656.33C832.947 657.44 836.076 658.001 841 658.001C845.625 658.001 848.617 657.44 849.963 656.33C851.31 655.221 852.656 652.316 854.002 647.629L869.036 591.757C869.273 590.822 868.924 590.349 867.977 590.349Z" fill="url(#paint38_linear_386_1065)"/>
<path d="M1332.03 469.887H1323.07C1322.72 469.887 1322.47 469.974 1322.32 470.149C1322.17 470.323 1322.05 470.71 1321.92 471.295L1307.69 524.437C1307.21 526.083 1306.84 527.105 1306.54 527.516C1306.25 527.928 1305.76 528.127 1305.04 528.127C1304.17 528.127 1303.55 527.903 1303.2 527.467C1302.85 527.03 1302.46 526.021 1302.05 524.437L1288.29 471.295C1288.18 470.71 1288.04 470.323 1287.89 470.149C1287.74 469.974 1287.49 469.887 1287.14 469.887H1278.18C1277.25 469.887 1276.9 470.36 1277.12 471.295L1291.71 527.167C1292.82 531.792 1294.14 534.697 1295.66 535.869C1297 536.978 1300.13 537.539 1305.06 537.539C1309.68 537.539 1312.67 536.978 1314.02 535.869C1315.37 534.759 1316.71 531.855 1318.06 527.167L1333.09 471.295C1333.33 470.36 1332.98 469.887 1332.03 469.887Z" fill="url(#paint39_linear_386_1065)"/>
<path d="M1332.03 349.556H1323.07C1322.72 349.556 1322.47 349.643 1322.32 349.817C1322.17 349.992 1322.05 350.378 1321.92 350.964L1307.69 404.106C1307.21 405.752 1306.84 406.774 1306.54 407.185C1306.25 407.597 1305.76 407.796 1305.04 407.796C1304.17 407.796 1303.55 407.572 1303.2 407.135C1302.85 406.699 1302.46 405.689 1302.05 404.106L1288.29 350.964C1288.18 350.378 1288.04 349.992 1287.89 349.817C1287.74 349.643 1287.49 349.556 1287.14 349.556H1278.18C1277.25 349.556 1276.9 350.029 1277.12 350.964L1291.71 406.836C1292.82 411.461 1294.14 414.366 1295.66 415.537C1297 416.647 1300.13 417.208 1305.06 417.208C1309.68 417.208 1312.67 416.647 1314.02 415.537C1315.37 414.428 1316.71 411.523 1318.06 406.836L1333.09 350.964C1333.33 350.029 1332.98 349.556 1332.03 349.556Z" fill="url(#paint40_linear_386_1065)"/>
<path d="M1100.18 590.216H1091.21C1090.86 590.216 1090.61 590.303 1090.47 590.478C1090.32 590.652 1090.19 591.039 1090.07 591.624L1075.83 644.766C1075.36 646.412 1074.98 647.434 1074.68 647.846C1074.4 648.257 1073.9 648.456 1073.19 648.456C1072.31 648.456 1071.69 648.232 1071.34 647.796C1070.99 647.359 1070.61 646.35 1070.2 644.766L1056.43 591.624C1056.32 591.039 1056.18 590.652 1056.03 590.478C1055.88 590.303 1055.64 590.216 1055.29 590.216H1046.32C1045.39 590.216 1045.04 590.689 1045.26 591.624L1059.85 647.496C1060.96 652.121 1062.28 655.026 1063.8 656.198C1065.15 657.307 1068.28 657.868 1073.2 657.868C1077.82 657.868 1080.82 657.307 1082.16 656.198C1083.51 655.088 1084.86 652.184 1086.2 647.496L1101.24 591.624C1101.47 590.689 1101.12 590.216 1100.18 590.216Z" fill="url(#paint41_linear_386_1065)"/>
<path d="M1100.18 469.951H1091.21C1090.86 469.951 1090.61 470.038 1090.47 470.213C1090.32 470.387 1090.19 470.774 1090.07 471.36L1075.83 524.502C1075.36 526.147 1074.98 527.169 1074.68 527.581C1074.4 527.992 1073.9 528.192 1073.19 528.192C1072.31 528.192 1071.69 527.967 1071.34 527.531C1070.99 527.095 1070.61 526.085 1070.2 524.502L1056.43 471.36C1056.32 470.774 1056.18 470.387 1056.03 470.213C1055.88 470.038 1055.64 469.951 1055.29 469.951H1046.32C1045.39 469.951 1045.04 470.425 1045.26 471.36L1059.85 527.232C1060.96 531.857 1062.28 534.761 1063.8 535.933C1065.15 537.042 1068.28 537.603 1073.2 537.603C1077.82 537.603 1080.82 537.042 1082.16 535.933C1083.51 534.823 1084.86 531.919 1086.2 527.232L1101.24 471.36C1101.47 470.425 1101.12 469.951 1100.18 469.951Z" fill="url(#paint42_linear_386_1065)"/>
<path d="M751.979 415.799L736.957 359.927C735.611 355.24 734.265 352.348 732.918 351.226C731.572 350.117 728.58 349.556 723.955 349.556C719.031 349.556 715.902 350.117 714.556 351.226C713.035 352.398 711.714 355.29 710.604 359.927L696.019 415.799C695.782 416.734 696.131 417.208 697.079 417.208H706.042C706.391 417.208 706.64 417.121 706.79 416.946C706.939 416.772 707.064 416.385 707.189 415.799L720.976 362.657C721.387 361.074 721.761 360.064 722.123 359.628C722.472 359.192 723.095 358.967 723.968 358.967C724.666 358.967 725.164 359.167 725.464 359.578C725.763 359.99 726.137 361.012 726.61 362.657L740.846 415.799C740.959 416.385 741.096 416.772 741.245 416.946C741.395 417.121 741.644 417.208 741.993 417.208H750.956C751.891 417.208 752.24 416.734 752.016 415.799H751.979Z" fill="url(#paint43_linear_386_1065)"/>
<path d="M751.979 656.459L736.957 600.587C735.611 595.9 734.265 593.008 732.918 591.886C731.572 590.777 728.58 590.216 723.955 590.216C719.031 590.216 715.902 590.777 714.556 591.886C713.035 593.058 711.714 595.95 710.604 600.587L696.019 656.459C695.782 657.394 696.131 657.868 697.079 657.868H706.042C706.391 657.868 706.64 657.781 706.79 657.606C706.939 657.432 707.064 657.045 707.189 656.459L720.976 603.317C721.387 601.734 721.761 600.724 722.123 600.288C722.472 599.852 723.095 599.628 723.968 599.628C724.666 599.628 725.164 599.827 725.464 600.238C725.763 600.65 726.137 601.672 726.61 603.317L740.846 656.459C740.959 657.045 741.096 657.432 741.245 657.606C741.395 657.781 741.644 657.868 741.993 657.868H750.956C751.891 657.868 752.24 657.394 752.016 656.459H751.979Z" fill="url(#paint44_linear_386_1065)"/>
<path d="M986.772 415.799L971.751 359.927C970.404 355.24 969.058 352.348 967.712 351.226C966.365 350.117 963.374 349.556 958.749 349.556C953.825 349.556 950.696 350.117 949.349 351.226C947.829 352.398 946.507 355.29 945.398 359.927L930.813 415.799C930.576 416.734 930.925 417.208 931.872 417.208H940.835C941.184 417.208 941.434 417.121 941.583 416.946C941.733 416.772 941.857 416.385 941.982 415.799L955.769 362.657C956.181 361.074 956.555 360.064 956.916 359.628C957.265 359.192 957.889 358.967 958.761 358.967C959.459 358.967 959.958 359.167 960.257 359.578C960.556 359.99 960.93 361.012 961.404 362.657L975.64 415.799C975.752 416.385 975.889 416.772 976.039 416.946C976.188 417.121 976.438 417.208 976.787 417.208H985.75C986.685 417.208 987.034 416.734 986.809 415.799H986.772Z" fill="url(#paint45_linear_386_1065)"/>
<path d="M986.772 536.13L971.751 480.258C970.404 475.571 969.058 472.679 967.712 471.557C966.365 470.448 963.374 469.887 958.749 469.887C953.825 469.887 950.696 470.448 949.349 471.557C947.829 472.729 946.507 475.621 945.398 480.258L930.813 536.13C930.576 537.065 930.925 537.539 931.872 537.539H940.835C941.184 537.539 941.434 537.452 941.583 537.277C941.733 537.103 941.857 536.716 941.982 536.13L955.769 482.988C956.181 481.405 956.555 480.395 956.916 479.959C957.265 479.523 957.889 479.298 958.761 479.298C959.459 479.298 959.958 479.498 960.257 479.909C960.556 480.321 960.93 481.343 961.404 482.988L975.64 536.13C975.752 536.716 975.889 537.103 976.039 537.277C976.188 537.452 976.438 537.539 976.787 537.539H985.75C986.685 537.539 987.034 537.065 986.809 536.13H986.772Z" fill="url(#paint46_linear_386_1065)"/>
<path d="M986.772 656.459L971.751 600.587C970.404 595.9 969.058 593.008 967.712 591.886C966.365 590.777 963.374 590.216 958.749 590.216C953.825 590.216 950.696 590.777 949.349 591.886C947.829 593.058 946.507 595.95 945.398 600.587L930.813 656.459C930.576 657.394 930.925 657.868 931.872 657.868H940.835C941.184 657.868 941.434 657.781 941.583 657.606C941.733 657.432 941.857 657.045 941.982 656.459L955.769 603.317C956.181 601.734 956.555 600.724 956.916 600.288C957.265 599.852 957.889 599.628 958.761 599.628C959.459 599.628 959.958 599.827 960.257 600.238C960.556 600.65 960.93 601.672 961.404 603.317L975.64 656.459C975.752 657.045 975.889 657.432 976.039 657.606C976.188 657.781 976.438 657.868 976.787 657.868H985.75C986.685 657.868 987.034 657.394 986.809 656.459H986.772Z" fill="url(#paint47_linear_386_1065)"/>
<path d="M1215.69 656.459L1200.67 600.587C1199.32 595.9 1197.98 593.008 1196.63 591.886C1195.29 590.777 1192.29 590.216 1187.67 590.216C1182.74 590.216 1179.62 590.777 1178.27 591.886C1176.75 593.058 1175.43 595.95 1174.32 600.587L1159.73 656.459C1159.5 657.394 1159.85 657.868 1160.79 657.868H1169.76C1170.1 657.868 1170.35 657.781 1170.5 657.606C1170.65 657.432 1170.78 657.045 1170.9 656.459L1184.69 603.317C1185.1 601.734 1185.47 600.724 1185.84 600.288C1186.19 599.852 1186.81 599.628 1187.68 599.628C1188.38 599.628 1188.88 599.827 1189.18 600.238C1189.48 600.65 1189.85 601.672 1190.32 603.317L1204.56 656.459C1204.67 657.045 1204.81 657.432 1204.96 657.606C1205.11 657.781 1205.36 657.868 1205.71 657.868H1214.67C1215.61 657.868 1215.95 657.394 1215.73 656.459H1215.69Z" fill="url(#paint48_linear_386_1065)"/>
<path d="M1215.69 536.13L1200.67 480.258C1199.32 475.571 1197.98 472.679 1196.63 471.557C1195.29 470.448 1192.29 469.887 1187.67 469.887C1182.74 469.887 1179.62 470.448 1178.27 471.557C1176.75 472.729 1175.43 475.621 1174.32 480.258L1159.73 536.13C1159.5 537.065 1159.85 537.539 1160.79 537.539H1169.76C1170.1 537.539 1170.35 537.452 1170.5 537.277C1170.65 537.103 1170.78 536.716 1170.9 536.13L1184.69 482.988C1185.1 481.405 1185.47 480.395 1185.84 479.959C1186.19 479.523 1186.81 479.298 1187.68 479.298C1188.38 479.298 1188.88 479.498 1189.18 479.909C1189.48 480.321 1189.85 481.343 1190.32 482.988L1204.56 536.13C1204.67 536.716 1204.81 537.103 1204.96 537.277C1205.11 537.452 1205.36 537.539 1205.71 537.539H1214.67C1215.61 537.539 1215.95 537.065 1215.73 536.13H1215.69Z" fill="url(#paint49_linear_386_1065)"/>
</g>
<defs>
<linearGradient id="paint0_linear_386_1065" x1="666.582" y1="0" x2="666.582" y2="658.001" gradientUnits="userSpaceOnUse">
<stop stop-color="#3E3E3E"/>
<stop offset="0.525" stop-color="#666666"/>
<stop offset="1" stop-color="#F6F9FF"/>
</linearGradient>
<linearGradient id="paint1_linear_386_1065" x1="666.582" y1="0" x2="666.582" y2="658.001" gradientUnits="userSpaceOnUse">
<stop stop-color="#3E3E3E"/>
<stop offset="0.525" stop-color="#666666"/>
<stop offset="1" stop-color="#F6F9FF"/>
</linearGradient>
<linearGradient id="paint2_linear_386_1065" x1="666.582" y1="0" x2="666.582" y2="658.001" gradientUnits="userSpaceOnUse">
<stop stop-color="#3E3E3E"/>
<stop offset="0.525" stop-color="#666666"/>
<stop offset="1" stop-color="#F6F9FF"/>
</linearGradient>
<linearGradient id="paint3_linear_386_1065" x1="666.582" y1="0" x2="666.582" y2="658.001" gradientUnits="userSpaceOnUse">
<stop stop-color="#3E3E3E"/>
<stop offset="0.525" stop-color="#666666"/>
<stop offset="1" stop-color="#F6F9FF"/>
</linearGradient>
<linearGradient id="paint4_linear_386_1065" x1="666.582" y1="0" x2="666.582" y2="658.001" gradientUnits="userSpaceOnUse">
<stop stop-color="#3E3E3E"/>
<stop offset="0.525" stop-color="#666666"/>
<stop offset="1" stop-color="#F6F9FF"/>
</linearGradient>
<linearGradient id="paint5_linear_386_1065" x1="666.582" y1="0" x2="666.582" y2="658.001" gradientUnits="userSpaceOnUse">
<stop stop-color="#3E3E3E"/>
<stop offset="0.525" stop-color="#666666"/>
<stop offset="1" stop-color="#F6F9FF"/>
</linearGradient>
<linearGradient id="paint6_linear_386_1065" x1="666.582" y1="0" x2="666.582" y2="658.001" gradientUnits="userSpaceOnUse">
<stop stop-color="#3E3E3E"/>
<stop offset="0.525" stop-color="#666666"/>
<stop offset="1" stop-color="#F6F9FF"/>
</linearGradient>
<linearGradient id="paint7_linear_386_1065" x1="666.582" y1="0" x2="666.582" y2="658.001" gradientUnits="userSpaceOnUse">
<stop stop-color="#3E3E3E"/>
<stop offset="0.525" stop-color="#666666"/>
<stop offset="1" stop-color="#F6F9FF"/>
</linearGradient>
<linearGradient id="paint8_linear_386_1065" x1="666.582" y1="0" x2="666.582" y2="658.001" gradientUnits="userSpaceOnUse">
<stop stop-color="#3E3E3E"/>
<stop offset="0.525" stop-color="#666666"/>
<stop offset="1" stop-color="#F6F9FF"/>
</linearGradient>
<linearGradient id="paint9_linear_386_1065" x1="666.582" y1="0" x2="666.582" y2="658.001" gradientUnits="userSpaceOnUse">
<stop stop-color="#3E3E3E"/>
<stop offset="0.525" stop-color="#666666"/>
<stop offset="1" stop-color="#F6F9FF"/>
</linearGradient>
<linearGradient id="paint10_linear_386_1065" x1="666.582" y1="0" x2="666.582" y2="658.001" gradientUnits="userSpaceOnUse">
<stop stop-color="#3E3E3E"/>
<stop offset="0.525" stop-color="#666666"/>
<stop offset="1" stop-color="#F6F9FF"/>
</linearGradient>
<linearGradient id="paint11_linear_386_1065" x1="666.582" y1="0" x2="666.582" y2="658.001" gradientUnits="userSpaceOnUse">
<stop stop-color="#3E3E3E"/>
<stop offset="0.525" stop-color="#666666"/>
<stop offset="1" stop-color="#F6F9FF"/>
</linearGradient>
<linearGradient id="paint12_linear_386_1065" x1="666.582" y1="0" x2="666.582" y2="658.001" gradientUnits="userSpaceOnUse">
<stop stop-color="#3E3E3E"/>
<stop offset="0.525" stop-color="#666666"/>
<stop offset="1" stop-color="#F6F9FF"/>
</linearGradient>
<linearGradient id="paint13_linear_386_1065" x1="666.582" y1="0" x2="666.582" y2="658.001" gradientUnits="userSpaceOnUse">
<stop stop-color="#3E3E3E"/>
<stop offset="0.525" stop-color="#666666"/>
<stop offset="1" stop-color="#F6F9FF"/>
</linearGradient>
<linearGradient id="paint14_linear_386_1065" x1="666.582" y1="0" x2="666.582" y2="658.001" gradientUnits="userSpaceOnUse">
<stop stop-color="#3E3E3E"/>
<stop offset="0.525" stop-color="#666666"/>
<stop offset="1" stop-color="#F6F9FF"/>
</linearGradient>
<linearGradient id="paint15_linear_386_1065" x1="666.582" y1="0" x2="666.582" y2="658.001" gradientUnits="userSpaceOnUse">
<stop stop-color="#3E3E3E"/>
<stop offset="0.525" stop-color="#666666"/>
<stop offset="1" stop-color="#F6F9FF"/>
</linearGradient>
<linearGradient id="paint16_linear_386_1065" x1="666.582" y1="0" x2="666.582" y2="658.001" gradientUnits="userSpaceOnUse">
<stop stop-color="#3E3E3E"/>
<stop offset="0.525" stop-color="#666666"/>
<stop offset="1" stop-color="#F6F9FF"/>
</linearGradient>
<linearGradient id="paint17_linear_386_1065" x1="666.582" y1="0" x2="666.582" y2="658.001" gradientUnits="userSpaceOnUse">
<stop stop-color="#3E3E3E"/>
<stop offset="0.525" stop-color="#666666"/>
<stop offset="1" stop-color="#F6F9FF"/>
</linearGradient>
<linearGradient id="paint18_linear_386_1065" x1="666.582" y1="0" x2="666.582" y2="658.001" gradientUnits="userSpaceOnUse">
<stop stop-color="#3E3E3E"/>
<stop offset="0.525" stop-color="#666666"/>
<stop offset="1" stop-color="#F6F9FF"/>
</linearGradient>
<linearGradient id="paint19_linear_386_1065" x1="666.582" y1="0" x2="666.582" y2="658.001" gradientUnits="userSpaceOnUse">
<stop stop-color="#3E3E3E"/>
<stop offset="0.525" stop-color="#666666"/>
<stop offset="1" stop-color="#F6F9FF"/>
</linearGradient>
<linearGradient id="paint20_linear_386_1065" x1="666.582" y1="0" x2="666.582" y2="658.001" gradientUnits="userSpaceOnUse">
<stop stop-color="#3E3E3E"/>
<stop offset="0.525" stop-color="#666666"/>
<stop offset="1" stop-color="#F6F9FF"/>
</linearGradient>
<linearGradient id="paint21_linear_386_1065" x1="666.582" y1="0" x2="666.582" y2="658.001" gradientUnits="userSpaceOnUse">
<stop stop-color="#3E3E3E"/>
<stop offset="0.525" stop-color="#666666"/>
<stop offset="1" stop-color="#F6F9FF"/>
</linearGradient>
<linearGradient id="paint22_linear_386_1065" x1="666.582" y1="0" x2="666.582" y2="658.001" gradientUnits="userSpaceOnUse">
<stop stop-color="#3E3E3E"/>
<stop offset="0.525" stop-color="#666666"/>
<stop offset="1" stop-color="#F6F9FF"/>
</linearGradient>
<linearGradient id="paint23_linear_386_1065" x1="666.582" y1="0" x2="666.582" y2="658.001" gradientUnits="userSpaceOnUse">
<stop stop-color="#3E3E3E"/>
<stop offset="0.525" stop-color="#666666"/>
<stop offset="1" stop-color="#F6F9FF"/>
</linearGradient>
<linearGradient id="paint24_linear_386_1065" x1="666.582" y1="0" x2="666.582" y2="658.001" gradientUnits="userSpaceOnUse">
<stop stop-color="#3E3E3E"/>
<stop offset="0.525" stop-color="#666666"/>
<stop offset="1" stop-color="#F6F9FF"/>
</linearGradient>
<linearGradient id="paint25_linear_386_1065" x1="666.582" y1="0" x2="666.582" y2="658.001" gradientUnits="userSpaceOnUse">
<stop stop-color="#3E3E3E"/>
<stop offset="0.525" stop-color="#666666"/>
<stop offset="1" stop-color="#F6F9FF"/>
</linearGradient>
<linearGradient id="paint26_linear_386_1065" x1="666.582" y1="0" x2="666.582" y2="658.001" gradientUnits="userSpaceOnUse">
<stop stop-color="#3E3E3E"/>
<stop offset="0.525" stop-color="#666666"/>
<stop offset="1" stop-color="#F6F9FF"/>
</linearGradient>
<linearGradient id="paint27_linear_386_1065" x1="666.582" y1="0" x2="666.582" y2="658.001" gradientUnits="userSpaceOnUse">
<stop stop-color="#3E3E3E"/>
<stop offset="0.525" stop-color="#666666"/>
<stop offset="1" stop-color="#F6F9FF"/>
</linearGradient>
<linearGradient id="paint28_linear_386_1065" x1="666.582" y1="0" x2="666.582" y2="658.001" gradientUnits="userSpaceOnUse">
<stop stop-color="#3E3E3E"/>
<stop offset="0.525" stop-color="#666666"/>
<stop offset="1" stop-color="#F6F9FF"/>
</linearGradient>
<linearGradient id="paint29_linear_386_1065" x1="666.582" y1="0" x2="666.582" y2="658.001" gradientUnits="userSpaceOnUse">
<stop stop-color="#3E3E3E"/>
<stop offset="0.525" stop-color="#666666"/>
<stop offset="1" stop-color="#F6F9FF"/>
</linearGradient>
<linearGradient id="paint30_linear_386_1065" x1="666.582" y1="0" x2="666.582" y2="658.001" gradientUnits="userSpaceOnUse">
<stop stop-color="#3E3E3E"/>
<stop offset="0.525" stop-color="#666666"/>
<stop offset="1" stop-color="#F6F9FF"/>
</linearGradient>
<linearGradient id="paint31_linear_386_1065" x1="666.582" y1="0" x2="666.582" y2="658.001" gradientUnits="userSpaceOnUse">
<stop stop-color="#3E3E3E"/>
<stop offset="0.525" stop-color="#666666"/>
<stop offset="1" stop-color="#F6F9FF"/>
</linearGradient>
<linearGradient id="paint32_linear_386_1065" x1="666.582" y1="0" x2="666.582" y2="658.001" gradientUnits="userSpaceOnUse">
<stop stop-color="#3E3E3E"/>
<stop offset="0.525" stop-color="#666666"/>
<stop offset="1" stop-color="#F6F9FF"/>
</linearGradient>
<linearGradient id="paint33_linear_386_1065" x1="666.582" y1="0" x2="666.582" y2="658.001" gradientUnits="userSpaceOnUse">
<stop stop-color="#3E3E3E"/>
<stop offset="0.525" stop-color="#666666"/>
<stop offset="1" stop-color="#F6F9FF"/>
</linearGradient>
<linearGradient id="paint34_linear_386_1065" x1="666.582" y1="0" x2="666.582" y2="658.001" gradientUnits="userSpaceOnUse">
<stop stop-color="#3E3E3E"/>
<stop offset="0.525" stop-color="#666666"/>
<stop offset="1" stop-color="#F6F9FF"/>
</linearGradient>
<linearGradient id="paint35_linear_386_1065" x1="666.582" y1="0" x2="666.582" y2="658.001" gradientUnits="userSpaceOnUse">
<stop stop-color="#3E3E3E"/>
<stop offset="0.525" stop-color="#666666"/>
<stop offset="1" stop-color="#F6F9FF"/>
</linearGradient>
<linearGradient id="paint36_linear_386_1065" x1="666.582" y1="0" x2="666.582" y2="658.001" gradientUnits="userSpaceOnUse">
<stop stop-color="#3E3E3E"/>
<stop offset="0.525" stop-color="#666666"/>
<stop offset="1" stop-color="#F6F9FF"/>
</linearGradient>
<linearGradient id="paint37_linear_386_1065" x1="666.582" y1="0" x2="666.582" y2="658.001" gradientUnits="userSpaceOnUse">
<stop stop-color="#3E3E3E"/>
<stop offset="0.525" stop-color="#666666"/>
<stop offset="1" stop-color="#F6F9FF"/>
</linearGradient>
<linearGradient id="paint38_linear_386_1065" x1="666.582" y1="0" x2="666.582" y2="658.001" gradientUnits="userSpaceOnUse">
<stop stop-color="#3E3E3E"/>
<stop offset="0.525" stop-color="#666666"/>
<stop offset="1" stop-color="#F6F9FF"/>
</linearGradient>
<linearGradient id="paint39_linear_386_1065" x1="666.582" y1="0" x2="666.582" y2="658.001" gradientUnits="userSpaceOnUse">
<stop stop-color="#3E3E3E"/>
<stop offset="0.525" stop-color="#666666"/>
<stop offset="1" stop-color="#F6F9FF"/>
</linearGradient>
<linearGradient id="paint40_linear_386_1065" x1="666.582" y1="0" x2="666.582" y2="658.001" gradientUnits="userSpaceOnUse">
<stop stop-color="#3E3E3E"/>
<stop offset="0.525" stop-color="#666666"/>
<stop offset="1" stop-color="#F6F9FF"/>
</linearGradient>
<linearGradient id="paint41_linear_386_1065" x1="666.582" y1="0" x2="666.582" y2="658.001" gradientUnits="userSpaceOnUse">
<stop stop-color="#3E3E3E"/>
<stop offset="0.525" stop-color="#666666"/>
<stop offset="1" stop-color="#F6F9FF"/>
</linearGradient>
<linearGradient id="paint42_linear_386_1065" x1="666.582" y1="0" x2="666.582" y2="658.001" gradientUnits="userSpaceOnUse">
<stop stop-color="#3E3E3E"/>
<stop offset="0.525" stop-color="#666666"/>
<stop offset="1" stop-color="#F6F9FF"/>
</linearGradient>
<linearGradient id="paint43_linear_386_1065" x1="666.582" y1="0" x2="666.582" y2="658.001" gradientUnits="userSpaceOnUse">
<stop stop-color="#3E3E3E"/>
<stop offset="0.525" stop-color="#666666"/>
<stop offset="1" stop-color="#F6F9FF"/>
</linearGradient>
<linearGradient id="paint44_linear_386_1065" x1="666.582" y1="0" x2="666.582" y2="658.001" gradientUnits="userSpaceOnUse">
<stop stop-color="#3E3E3E"/>
<stop offset="0.525" stop-color="#666666"/>
<stop offset="1" stop-color="#F6F9FF"/>
</linearGradient>
<linearGradient id="paint45_linear_386_1065" x1="666.582" y1="0" x2="666.582" y2="658.001" gradientUnits="userSpaceOnUse">
<stop stop-color="#3E3E3E"/>
<stop offset="0.525" stop-color="#666666"/>
<stop offset="1" stop-color="#F6F9FF"/>
</linearGradient>
<linearGradient id="paint46_linear_386_1065" x1="666.582" y1="0" x2="666.582" y2="658.001" gradientUnits="userSpaceOnUse">
<stop stop-color="#3E3E3E"/>
<stop offset="0.525" stop-color="#666666"/>
<stop offset="1" stop-color="#F6F9FF"/>
</linearGradient>
<linearGradient id="paint47_linear_386_1065" x1="666.582" y1="0" x2="666.582" y2="658.001" gradientUnits="userSpaceOnUse">
<stop stop-color="#3E3E3E"/>
<stop offset="0.525" stop-color="#666666"/>
<stop offset="1" stop-color="#F6F9FF"/>
</linearGradient>
<linearGradient id="paint48_linear_386_1065" x1="666.582" y1="0" x2="666.582" y2="658.001" gradientUnits="userSpaceOnUse">
<stop stop-color="#3E3E3E"/>
<stop offset="0.525" stop-color="#666666"/>
<stop offset="1" stop-color="#F6F9FF"/>
</linearGradient>
<linearGradient id="paint49_linear_386_1065" x1="666.582" y1="0" x2="666.582" y2="658.001" gradientUnits="userSpaceOnUse">
<stop stop-color="#3E3E3E"/>
<stop offset="0.525" stop-color="#666666"/>
<stop offset="1" stop-color="#F6F9FF"/>
</linearGradient>
</defs>
</svg>
