<svg width="780" height="118" viewBox="0 0 780 118" fill="none" xmlns="http://www.w3.org/2000/svg">
<g clip-path="url(#clip0_386_803)">
<path d="M38.4875 -0.00195312C55.6671 -0.00195312 67.4714 2.51371 73.9433 7.56654C80.3078 12.5119 83.49 22.5745 83.49 37.7115C83.49 49.4298 81.6623 57.8583 78.0286 63.0187C74.4809 68.179 68.2885 71.4042 59.3869 72.7158L84.9951 113.633C85.5971 114.45 85.7261 115.138 85.3821 115.762C85.0166 116.364 84.2855 116.665 83.1889 116.665H69.1055C66.5899 116.665 64.5687 115.547 63.0421 113.332L38.036 73.9414L19.5448 74.0919V114.386C19.5448 115.289 19.3943 115.891 19.0933 116.213C18.7922 116.514 18.1902 116.665 17.2656 116.665H2.27915C1.37609 116.665 0.774051 116.514 0.45153 116.213C0.15051 115.912 0 115.31 0 114.386V3.33077C0 2.51371 0.15051 1.99768 0.45153 1.73966C0.752549 1.48164 1.35459 1.30963 2.27915 1.20213C13.7824 0.406574 25.8662 -0.00195312 38.4875 -0.00195312ZM36.6599 16.9627H19.5448V58.4819H36.6599C43.0243 58.4819 47.6471 58.3099 50.5283 57.9443C53.4095 57.6003 55.9682 56.6973 58.1828 55.2997C60.3975 53.8806 61.9025 51.9454 62.6551 49.4728C63.4076 47.0001 63.7947 43.2374 63.7947 38.1845C63.7947 29.3045 62.0316 23.5421 58.4838 20.9189C54.9361 18.2957 47.6686 16.9842 36.6599 16.9842V16.9627Z" fill="#0F1822"/>
<path d="M102.734 0.751953H117.592C119.097 0.751953 119.871 1.5045 119.871 3.0311V114.258C119.871 115.87 119.118 116.688 117.592 116.688H102.734C101.229 116.688 100.455 115.87 100.455 114.258V3.0311C100.455 1.526 101.208 0.751953 102.734 0.751953Z" fill="#0F1822"/>
<path d="M135.674 0.751953H151.133C151.736 0.751953 152.166 0.902463 152.424 1.20348C152.682 1.5045 152.897 2.17105 153.112 3.18161L177.666 94.8421C178.483 97.6803 179.128 99.4434 179.644 100.153C180.139 100.863 180.999 101.207 182.225 101.207C183.73 101.207 184.805 100.82 185.407 100.067C186.009 99.3144 186.675 97.5728 187.385 94.8421L211.122 3.18161C211.316 2.17105 211.552 1.5045 211.81 1.20348C212.068 0.902463 212.498 0.751953 213.101 0.751953H228.56C230.173 0.751953 230.775 1.56901 230.388 3.18161L205.231 99.5509C203.317 107.528 201.038 112.538 198.415 114.559C196.093 116.473 190.696 117.44 182.203 117.44C174.226 117.44 169.066 116.473 166.744 114.559C164.421 112.645 162.099 107.635 159.777 99.5509L133.846 3.18161C133.438 1.56901 134.04 0.751953 135.674 0.751953Z" fill="#5B0D8A"/>
<path d="M335.745 114.237L361.655 17.8677C363.977 9.78316 366.299 4.79483 368.621 2.8597C370.943 0.946079 376.103 -0.0214844 384.08 -0.0214844C392.574 -0.0214844 397.97 0.946079 400.293 2.8597C402.916 4.88084 405.195 9.86916 407.108 17.8677L432.265 114.237C432.674 115.85 432.072 116.667 430.438 116.667H414.978C414.376 116.667 413.946 116.516 413.688 116.215C413.43 115.914 413.215 115.248 413 114.237L389.219 22.5765C388.51 19.8458 387.865 18.1042 387.241 17.3517C386.639 16.5991 385.564 16.2121 384.059 16.2121C382.855 16.2121 381.995 16.5561 381.479 17.2656C380.963 17.9752 380.318 19.7383 379.501 22.5765L354.946 114.237C354.753 115.248 354.516 115.914 354.258 116.215C354 116.516 353.57 116.667 352.968 116.667H337.508C335.896 116.667 335.294 115.85 335.681 114.237H335.745Z" fill="#E5004B"/>
<path d="M246.771 0.753906H320.113C321.725 0.753906 322.542 1.50646 322.542 3.03306V15.4609C322.542 16.966 321.725 17.74 320.113 17.74H264.058V51.6907H315.275C316.78 51.6907 317.554 52.4433 317.554 53.9699V65.9462C317.554 67.4513 316.801 68.2253 315.275 68.2253H264.058V99.7464H320.113C321.725 99.7464 322.542 100.499 322.542 102.026V114.453C322.542 115.958 321.725 116.733 320.113 116.733H246.771C245.266 116.733 244.492 115.98 244.492 114.453V3.03306C244.492 1.52796 245.245 0.753906 246.771 0.753906Z" fill="#0F1822"/>
<path d="M460.345 1.33398H465.204C465.57 1.33398 465.849 1.67801 466.021 2.32305L476.363 39.9935C476.772 41.4771 477.116 42.4232 477.352 42.7887C477.589 43.1542 478.04 43.3477 478.664 43.3477C479.503 43.3477 480.062 43.1542 480.341 42.7887C480.621 42.4232 480.965 41.4771 481.33 39.9935L491.242 2.32305C491.414 1.65651 491.672 1.33398 492.059 1.33398H496.919C497.585 1.33398 497.843 1.67801 497.736 2.32305L487.329 41.4986C486.705 43.8638 486.146 45.4764 485.652 46.3579C485.157 47.2825 484.426 47.906 483.437 48.2501C482.448 48.5941 480.879 48.7876 478.664 48.7876C475.761 48.7876 473.891 48.4006 473.052 47.605C472.171 46.7665 471.31 44.7453 470.429 41.4986L459.528 2.32305C459.399 1.65651 459.678 1.33398 460.345 1.33398Z" fill="#0F1822"/>
<path d="M517.43 1.03516C520.634 1.03516 522.698 1.44368 523.666 2.28224C524.655 3.12079 525.601 5.12042 526.461 8.32413L537.104 47.4997C537.19 47.9082 537.168 48.1877 537.082 48.3167C536.975 48.4458 536.738 48.5103 536.373 48.5103H531.514C531.277 48.5103 531.084 48.4458 530.976 48.3167C530.869 48.1877 530.783 47.9297 530.697 47.4997L526.826 33.7388H508.077L504.142 47.4997C504.056 47.9082 503.97 48.1877 503.863 48.3167C503.755 48.4458 503.583 48.5103 503.325 48.5103H498.466C498.1 48.5103 497.842 48.4458 497.756 48.3167C497.649 48.1877 497.649 47.9297 497.735 47.4997L508.765 8.32413C509.711 5.07742 510.657 3.07779 511.56 2.28224C512.592 1.44368 514.549 1.03516 517.409 1.03516H517.43ZM517.43 6.51801C516.549 6.51801 515.99 6.69003 515.71 7.05555C515.431 7.39957 515.108 8.32413 514.742 9.82923L509.625 28.2559H525.386L520.526 9.82923C520.075 8.30263 519.688 7.37807 519.408 7.09855C519.107 6.73303 518.462 6.53952 517.409 6.53952L517.43 6.51801Z" fill="#0F1822"/>
<path d="M559.681 1.03516C562.713 1.03516 566.734 1.33618 571.765 1.95972C572.346 2.04572 572.625 2.30374 572.625 2.77677V5.63646C572.625 6.26 572.346 6.56102 571.808 6.56102H557.789C552.349 6.56102 549.64 8.41014 549.64 12.1084V13.162C549.64 14.8176 549.963 16.1076 550.629 17.0322C551.296 17.9568 552.521 18.7738 554.306 19.5264L567.895 25.1382C570.518 26.2133 572.346 27.6109 573.442 29.3095C574.517 31.0081 575.055 33.2228 575.055 35.9749V37.9746C575.055 41.5008 573.98 44.1455 571.808 45.8871C570.862 46.7256 569.658 47.3492 568.196 47.7577C565.573 48.4673 562.391 48.8113 558.606 48.8113C553.575 48.8113 548.522 48.5103 543.405 47.9297C542.91 47.8007 542.652 47.4782 542.652 46.9407V44.1455C542.652 43.5649 542.953 43.2639 543.534 43.2639H560.606C563.423 43.2639 565.487 42.8339 566.777 41.9953C568.067 41.1353 568.712 39.7377 568.712 37.8026V36.62C568.712 34.8784 568.368 33.5023 567.68 32.5132C566.992 31.5242 565.766 30.6426 563.982 29.89L549.21 23.9127C547.06 23.0741 545.534 21.8055 544.673 20.0854C543.792 18.3653 543.362 16.1076 543.362 13.334V11.8289C543.362 8.30263 544.394 5.67946 546.48 3.98085C547.318 3.2713 548.522 2.66926 550.092 2.17473C552.5 1.42218 555.704 1.05666 559.681 1.05666V1.03516Z" fill="#0F1822"/>
<path d="M600.211 1.03516C605.157 1.03516 609.005 1.25017 611.801 1.6587C612.467 1.7017 612.79 2.04572 612.79 2.71227V5.63646C612.79 6.26 612.489 6.56102 611.865 6.56102H600.211C594.943 6.56102 591.503 7.7866 589.934 10.2378C588.364 12.6889 587.568 17.5912 587.568 24.9447C587.568 32.2982 588.364 37.136 589.934 39.5872C591.503 42.0383 594.943 43.2639 600.211 43.2639H611.865C612.489 43.2639 612.79 43.5649 612.79 44.1885V47.1127C612.79 47.7362 612.467 48.1017 611.801 48.2307C609.091 48.5963 605.243 48.7898 600.211 48.7898C596.234 48.7898 593.073 48.4243 590.751 47.6717C588.429 46.9192 586.536 45.6076 585.074 43.7585C583.655 41.9308 582.666 39.5657 582.107 36.6845C581.548 33.8033 581.269 29.89 581.269 24.9447C581.269 19.9994 581.548 16.0861 582.107 13.205C582.666 10.3238 583.655 7.95861 585.074 6.13099C586.493 4.21736 588.364 2.88428 590.708 2.15323C593.051 1.40068 596.212 1.03516 600.211 1.03516Z" fill="#0F1822"/>
<path d="M651.364 1.33398H655.793C656.417 1.33398 656.718 1.635 656.718 2.25854V24.9855C656.718 30.0599 656.438 34.0376 655.901 36.9188C655.363 39.8 654.396 42.1652 652.977 43.9928C651.557 45.8204 649.73 47.0675 647.472 47.7555C645.215 48.4436 642.118 48.7876 638.162 48.7876C632.421 48.7876 628.142 47.8415 625.261 45.9279C623.778 44.9388 622.617 43.4767 621.842 41.5631C620.38 37.8649 619.671 32.339 619.671 24.9855V2.28005C619.671 1.65651 619.972 1.35549 620.595 1.35549H625.025C625.648 1.35549 625.949 1.65651 625.949 2.28005V25.007C625.949 29.9524 626.293 33.7366 627.003 36.3383C627.712 38.8754 628.916 40.6601 630.615 41.6921C632.314 42.7242 634.829 43.2402 638.141 43.2402C643.043 43.2402 646.29 42.0361 647.924 39.628C649.579 37.2198 650.418 32.339 650.418 24.9855V2.28005C650.418 1.65651 650.719 1.35549 651.342 1.35549L651.364 1.33398Z" fill="#0F1822"/>
<path d="M666.802 1.33594H671.231C671.854 1.33594 672.155 1.63696 672.155 2.2605V42.9197H694.753C695.377 42.9197 695.678 43.2207 695.678 43.8442V47.521C695.678 48.1445 695.377 48.4455 694.753 48.4455H666.78C666.156 48.4455 665.855 48.1445 665.855 47.521V2.282C665.855 1.65846 666.156 1.35744 666.78 1.35744L666.802 1.33594Z" fill="#0F1822"/>
<path d="M719.975 1.03516C723.179 1.03516 725.243 1.44368 726.21 2.28224C727.2 3.12079 728.146 5.12042 729.006 8.32413L739.649 47.4997C739.735 47.9082 739.713 48.1877 739.627 48.3167C739.52 48.4458 739.283 48.5103 738.918 48.5103H734.058C733.822 48.5103 733.628 48.4458 733.521 48.3167C733.413 48.1877 733.327 47.9297 733.241 47.4997L729.371 33.7388H710.622L706.687 47.4997C706.601 47.9082 706.515 48.1877 706.408 48.3167C706.3 48.4458 706.128 48.5103 705.87 48.5103H701.011C700.645 48.5103 700.387 48.4458 700.301 48.3167C700.194 48.1877 700.194 47.9297 700.28 47.4997L711.31 8.32413C712.256 5.07742 713.202 3.07779 714.105 2.28224C715.137 1.44368 717.094 1.03516 719.954 1.03516H719.975ZM719.975 6.51801C719.094 6.51801 718.534 6.69003 718.255 7.05555C717.975 7.42107 717.653 8.32413 717.287 9.82923L712.17 28.2559H727.931L723.071 9.82923C722.62 8.30263 722.233 7.37807 721.953 7.09855C721.652 6.73303 721.007 6.53952 719.954 6.53952L719.975 6.51801Z" fill="#0F1822"/>
<path d="M760.59 1.03516C764.504 1.03516 767.514 1.22867 769.643 1.6372C771.771 2.02422 773.599 2.77677 775.082 3.85184C776.63 4.92691 777.705 6.43201 778.329 8.36714C778.953 10.3023 779.254 12.9254 779.254 16.2367C779.254 21.182 778.48 24.6652 776.953 26.7078C775.469 28.7505 772.825 30.0191 769.04 30.5136L779.576 47.2632C779.834 47.6072 779.877 47.8867 779.727 48.1447C779.576 48.4028 779.275 48.5103 778.824 48.5103H774.846C773.814 48.5103 772.975 48.0587 772.352 47.1342L762.074 30.8791H752.678V47.5642C752.678 47.9297 752.613 48.1877 752.484 48.3167C752.355 48.4458 752.119 48.5103 751.732 48.5103H747.303C746.937 48.5103 746.679 48.4458 746.55 48.3167C746.421 48.1877 746.356 47.9512 746.356 47.5642V2.38974C746.356 2.02422 746.421 1.78771 746.55 1.6802C746.679 1.57269 746.915 1.50819 747.303 1.46518C751.13 1.16416 755.538 1.03516 760.569 1.03516H760.59ZM760.031 6.58252H752.678V25.5253H760.031C762.074 25.5253 763.386 25.5253 764.009 25.4608C766.74 25.3748 768.546 25.1382 769.427 24.7082C770.761 24.1277 771.685 23.2246 772.201 21.999C772.717 20.7734 772.954 18.9028 772.911 16.3657C772.911 12.1729 772.072 9.48521 770.417 8.32413C768.847 7.16306 765.364 6.58252 760.01 6.58252H760.031Z" fill="#0F1822"/>
<path d="M464.021 69.4551H468.451C469.074 69.4551 469.375 69.7991 469.375 70.4441V115.662C469.375 116.285 469.074 116.586 468.451 116.586H464.021C463.398 116.586 463.097 116.285 463.097 115.662V70.4441C463.097 69.7776 463.398 69.4551 464.021 69.4551Z" fill="#0F1822"/>
<path d="M511.347 69.4512H515.776C516.4 69.4512 516.701 69.7952 516.701 70.4402V115.658C516.701 116.281 516.4 116.582 515.776 116.582H511.971C511.003 116.582 510.293 116.217 509.799 115.464L485.201 78.3958V115.636C485.201 116.26 484.9 116.561 484.277 116.561H479.847C479.224 116.561 478.923 116.26 478.923 115.636V70.4188C478.923 69.7522 479.224 69.4297 479.847 69.4297H484.083C485.158 69.4727 485.889 69.6017 486.298 69.7952C486.685 70.0102 487.136 70.4833 487.631 71.2358L510.422 105.552V70.4188C510.422 69.7522 510.723 69.4297 511.347 69.4297V69.4512Z" fill="#0F1822"/>
<path d="M540.997 69.1523C544.029 69.1523 548.049 69.4534 553.081 70.0769C553.661 70.1629 553.941 70.4209 553.941 70.894V73.7536C553.941 74.3772 553.661 74.6782 553.124 74.6782H539.105C533.665 74.6782 530.956 76.5273 530.956 80.2256V81.2791C530.956 82.9347 531.278 84.2248 531.945 85.1494C532.611 86.0739 533.837 86.891 535.622 87.6436L549.21 93.2554C551.834 94.3305 553.661 95.7281 554.758 97.4267C555.833 99.1253 556.37 101.34 556.37 104.092V106.092C556.37 109.618 555.295 112.263 553.124 114.004C552.178 114.843 550.974 115.466 549.511 115.875C546.888 116.584 543.706 116.928 539.922 116.928C534.89 116.928 529.838 116.627 524.72 116.047C524.226 115.918 523.968 115.595 523.968 115.058V112.263C523.968 111.682 524.269 111.381 524.849 111.381H541.921C544.738 111.381 546.802 110.951 548.092 110.113C549.382 109.252 550.027 107.855 550.027 105.92V104.737C550.027 102.996 549.683 101.619 548.995 100.63C548.307 99.6413 547.082 98.7598 545.297 98.0072L530.526 92.0298C528.376 91.1913 526.849 89.9227 525.989 88.2026C525.107 86.4825 524.677 84.2248 524.677 81.4512V79.9461C524.677 76.4198 525.709 73.7966 527.795 72.098C528.634 71.3885 529.838 70.7864 531.407 70.2919C533.815 69.5394 537.019 69.1738 540.997 69.1738V69.1523Z" fill="#0F1822"/>
<path d="M561.186 69.4551H595.761C596.384 69.4551 596.685 69.7561 596.685 70.3796V74.0564C596.685 74.6799 596.384 74.9809 595.761 74.9809H581.634V115.64C581.634 116.264 581.333 116.565 580.71 116.565H576.28C575.657 116.565 575.356 116.264 575.356 115.64V74.9809H561.208C560.584 74.9809 560.283 74.6799 560.283 74.0564V70.3796C560.283 69.7561 560.584 69.4551 561.208 69.4551H561.186Z" fill="#0F1822"/>
<path d="M604.039 69.4551H608.468C609.092 69.4551 609.393 69.7991 609.393 70.4441V115.662C609.393 116.285 609.092 116.586 608.468 116.586H604.039C603.415 116.586 603.114 116.285 603.114 115.662V70.4441C603.114 69.7776 603.415 69.4551 604.039 69.4551Z" fill="#0F1822"/>
<path d="M616.724 69.4551H651.299C651.922 69.4551 652.223 69.7561 652.223 70.3796V74.0564C652.223 74.6799 651.922 74.9809 651.299 74.9809H637.172V115.64C637.172 116.264 636.871 116.565 636.248 116.565H631.818C631.195 116.565 630.894 116.264 630.894 115.64V74.9809H616.746C616.122 74.9809 615.821 74.6799 615.821 74.0564V70.3796C615.821 69.7561 616.122 69.4551 616.746 69.4551H616.724Z" fill="#0F1822"/>
<path d="M690.152 69.4512H694.581C695.205 69.4512 695.506 69.7522 695.506 70.3757V93.1027C695.506 98.1771 695.226 102.155 694.689 105.036C694.151 107.917 693.184 110.282 691.765 112.11C690.346 113.938 688.518 115.185 686.26 115.873C684.003 116.561 680.906 116.905 676.95 116.905C671.209 116.905 666.931 115.959 664.049 114.045C662.566 113.056 661.405 111.594 660.631 109.68C659.169 105.982 658.459 100.456 658.459 93.1027V70.3757C658.459 69.7522 658.76 69.4512 659.384 69.4512H663.813C664.436 69.4512 664.737 69.7522 664.737 70.3757V93.1027C664.737 98.0481 665.081 101.832 665.791 104.434C666.501 106.971 667.705 108.756 669.403 109.788C671.102 110.82 673.617 111.336 676.929 111.336C681.831 111.336 685.078 110.132 686.712 107.724C688.367 105.316 689.206 100.435 689.206 93.0812V70.3542C689.206 69.7307 689.507 69.4297 690.131 69.4297L690.152 69.4512Z" fill="#0F1822"/>
<path d="M702.623 69.4551H737.197C737.821 69.4551 738.122 69.7561 738.122 70.3796V74.0564C738.122 74.6799 737.821 74.9809 737.197 74.9809H723.071V115.64C723.071 116.264 722.77 116.565 722.146 116.565H717.717C717.093 116.565 716.792 116.264 716.792 115.64V74.9809H702.644C702.021 74.9809 701.72 74.6799 701.72 74.0564V70.3796C701.72 69.7561 702.021 69.4551 702.644 69.4551H702.623Z" fill="#0F1822"/>
<path d="M745.453 69.4532H774.609C775.232 69.4532 775.533 69.7542 775.533 70.3777V74.0545C775.533 74.678 775.232 74.979 774.609 74.979H750.828V90.9761H772.502C773.125 90.9761 773.426 91.2771 773.426 91.9006V95.5129C773.426 96.1364 773.125 96.4374 772.502 96.4374H750.828V111.015H774.609C775.232 111.015 775.533 111.316 775.533 111.94V115.617C775.533 116.24 775.232 116.541 774.609 116.541H745.453C744.829 116.541 744.528 116.24 744.528 115.617V70.3347C744.528 69.7112 744.829 69.4102 745.453 69.4102V69.4532Z" fill="#0F1822"/>
</g>
<defs>
<clipPath id="clip0_386_803">
<rect width="779.813" height="117.419" fill="white"/>
</clipPath>
</defs>
</svg>
