<svg width="857" height="596" viewBox="0 0 857 596" fill="none" xmlns="http://www.w3.org/2000/svg">
<path d="M-37 3L828.123 3C828.326 3.43695 828.564 3.95486 828.833 4.5493C829.792 6.66357 831.153 9.7448 832.752 13.5945C835.951 21.2974 840.093 32.0592 843.871 44.2955C851.477 68.9288 857.405 98.9251 851.77 122.006C838.725 175.433 816.761 243.771 791.933 296.525C760.525 363.262 769.58 438.672 786.239 497.049C794.583 526.286 804.869 551.377 813.069 569.159C817.17 578.053 820.753 585.125 823.314 589.981C823.908 591.108 824.448 592.116 824.926 593L-37 593L-37 3Z" fill="#55097B"/>
<path d="M-37 3L828.123 3C828.326 3.43695 828.564 3.95486 828.833 4.5493C829.792 6.66357 831.153 9.7448 832.752 13.5945C835.951 21.2974 840.093 32.0592 843.871 44.2955C851.477 68.9288 857.405 98.9251 851.77 122.006C838.725 175.433 816.761 243.771 791.933 296.525C760.525 363.262 769.58 438.672 786.239 497.049C794.583 526.286 804.869 551.377 813.069 569.159C817.17 578.053 820.753 585.125 823.314 589.981C823.908 591.108 824.448 592.116 824.926 593L-37 593L-37 3Z" fill="url(#paint0_linear_386_2472)"/>
<path d="M-37 3L828.123 3C828.326 3.43695 828.564 3.95486 828.833 4.5493C829.792 6.66357 831.153 9.7448 832.752 13.5945C835.951 21.2974 840.093 32.0592 843.871 44.2955C851.477 68.9288 857.405 98.9251 851.77 122.006C838.725 175.433 816.761 243.771 791.933 296.525C760.525 363.262 769.58 438.672 786.239 497.049C794.583 526.286 804.869 551.377 813.069 569.159C817.17 578.053 820.753 585.125 823.314 589.981C823.908 591.108 824.448 592.116 824.926 593L-37 593L-37 3Z" stroke="url(#paint1_linear_386_2472)" stroke-width="6"/>
<defs>
<linearGradient id="paint0_linear_386_2472" x1="24.5" y1="558.5" x2="968.5" y2="24.5" gradientUnits="userSpaceOnUse">
<stop offset="0.174069" stop-color="#420C59"/>
<stop offset="0.546069" stop-color="#750853"/>
<stop offset="1" stop-color="#F00045"/>
</linearGradient>
<linearGradient id="paint1_linear_386_2472" x1="916.457" y1="571.101" x2="937.954" y2="25.2579" gradientUnits="userSpaceOnUse">
<stop offset="0.139333" stop-color="#F00045"/>
<stop offset="0.365126" stop-color="#F00045"/>
<stop offset="1" stop-color="#55097B"/>
</linearGradient>
</defs>
</svg>
