<svg width="23" height="23" viewBox="0 0 23 23" fill="none" xmlns="http://www.w3.org/2000/svg">
<path fill-rule="evenodd" clip-rule="evenodd" d="M21.094 11.3588C21.094 5.98064 16.7341 1.62051 11.3556 1.62051C5.97717 1.62051 1.61731 5.98037 1.61731 11.3588C1.61731 16.7373 5.97717 21.0972 11.3556 21.0972C16.7341 21.0972 21.094 16.737 21.094 11.3588ZM11.7364 11.3588L8.1042 7.72692C7.75835 7.38107 8.00732 6.79059 8.49199 6.79059H11.5954C11.7469 6.79059 11.8839 6.85202 11.9832 6.95134L16.0029 10.971C16.2169 11.1851 16.2169 11.5326 16.0029 11.7469L11.9835 15.7666C11.8763 15.8738 11.7358 15.9273 11.5957 15.9273H8.49226C8.00272 15.9273 7.7616 15.3336 8.10447 14.9907L11.7364 11.3588ZM9.81665 7.88766H11.3686L14.8395 11.3588L11.3683 14.83H9.81638L12.8998 11.7466C13.1141 11.5326 13.1141 11.1848 12.8998 10.9708L9.81665 7.88766ZM19.0175 3.69693C23.2491 7.92852 23.2491 14.7889 19.0175 19.0205C14.7859 23.2521 7.92559 23.2521 3.694 19.0205C-0.537323 14.7891 -0.537323 7.92825 3.694 3.69693C7.92532 -0.534394 14.7859 -0.534394 19.0175 3.69693Z" fill="#55097B"/>
<path d="M11.9667 7.51709H9.42303L11.9667 11.3326L8.78711 15.784H11.3308L15.7822 11.3326L11.9667 7.51709Z" fill="#55097B"/>
</svg>
