<svg width="23" height="22" viewBox="0 0 23 22" fill="none" xmlns="http://www.w3.org/2000/svg">
<path fill-rule="evenodd" clip-rule="evenodd" d="M21.094 10.8354C21.094 5.45721 16.7341 1.09707 11.3556 1.09707C5.97717 1.09707 1.61731 5.45694 1.61731 10.8354C1.61731 16.2139 5.97717 20.5737 11.3556 20.5737C16.7341 20.5737 21.094 16.2136 21.094 10.8354ZM11.7364 10.8354L8.1042 7.20348C7.75835 6.85763 8.00732 6.26715 8.49199 6.26715H11.5954C11.7469 6.26715 11.8839 6.32858 11.9832 6.4279L16.0029 10.4476C16.2169 10.6617 16.2169 11.0091 16.0029 11.2235L11.9835 15.2432C11.8763 15.3503 11.7358 15.4039 11.5957 15.4039H8.49226C8.00272 15.4039 7.7616 14.8102 8.10447 14.4673L11.7364 10.8354ZM9.81665 7.36422H11.3686L14.8395 10.8354L11.3683 14.3066H9.81638L12.8998 11.2232C13.1141 11.0091 13.1141 10.6614 12.8998 10.4473L9.81665 7.36422ZM19.0175 3.17349C23.2491 7.40509 23.2491 14.2654 19.0175 18.497C14.7859 22.7286 7.92559 22.7286 3.694 18.497C-0.537323 14.2657 -0.537323 7.40482 3.694 3.17349C7.92532 -1.05783 14.7859 -1.05783 19.0175 3.17349Z" fill="white"/>
<path d="M11.9672 6.99414H9.42352L11.9672 10.8096L8.7876 15.2611H11.3313L15.7827 10.8096L11.9672 6.99414Z" fill="white"/>
</svg>
