<svg width="1440" height="979" viewBox="0 0 1440 979" fill="none" xmlns="http://www.w3.org/2000/svg">
<path d="M-56 3.16016V975.66H1487V129.235C1485.13 129.281 1482.44 129.345 1478.99 129.424C1471.81 129.587 1461.34 129.814 1448.2 130.066C1421.91 130.57 1384.93 131.175 1342.12 131.578C1256.51 132.384 1147.58 132.385 1054.4 129.158C939.357 125.174 837.194 95.4252 735.816 65.905C732.449 64.9243 729.082 63.9439 725.715 62.9647C620.923 32.4838 516.513 3.15984 398.5 3.16016C304.75 3.16041 190.375 3.16041 99.4375 3.16035L-13.8828 3.16023L-47.0322 3.16018L-55.922 3.16016L-56 3.16016Z" fill="#EFEFEF"/>
<path d="M-56 3.16016V975.66H1487V129.235C1485.13 129.281 1482.44 129.345 1478.99 129.424C1471.81 129.587 1461.34 129.814 1448.2 130.066C1421.91 130.57 1384.93 131.175 1342.12 131.578C1256.51 132.384 1147.58 132.385 1054.4 129.158C939.357 125.174 837.194 95.4252 735.816 65.905C732.449 64.9243 729.082 63.9439 725.715 62.9647C620.923 32.4838 516.513 3.15984 398.5 3.16016C304.75 3.16041 190.375 3.16041 99.4375 3.16035L-13.8828 3.16023L-47.0322 3.16018L-55.922 3.16016L-56 3.16016Z" fill="url(#paint0_linear_386_3182)"/>
<path d="M-56 3.16016V975.66H1487V129.235C1485.13 129.281 1482.44 129.345 1478.99 129.424C1471.81 129.587 1461.34 129.814 1448.2 130.066C1421.91 130.57 1384.93 131.175 1342.12 131.578C1256.51 132.384 1147.58 132.385 1054.4 129.158C939.357 125.174 837.194 95.4252 735.816 65.905C732.449 64.9243 729.082 63.9439 725.715 62.9647C620.923 32.4838 516.513 3.15984 398.5 3.16016C304.75 3.16041 190.375 3.16041 99.4375 3.16035L-13.8828 3.16023L-47.0322 3.16018L-55.922 3.16016L-56 3.16016Z" stroke="url(#paint1_linear_386_3182)" stroke-width="6"/>
<defs>
<linearGradient id="paint0_linear_386_3182" x1="17.5002" y1="934.66" x2="1287.19" y2="-82.3655" gradientUnits="userSpaceOnUse">
<stop offset="0.519518" stop-color="#55097B"/>
<stop offset="1" stop-color="#F00045"/>
</linearGradient>
<linearGradient id="paint1_linear_386_3182" x1="-27.6835" y1="637.258" x2="1462.81" y2="637.258" gradientUnits="userSpaceOnUse">
<stop stop-color="#55097B"/>
<stop offset="0.122241" stop-color="#950565"/>
<stop offset="0.443908" stop-color="#BB0358"/>
<stop offset="1" stop-color="#F00045"/>
</linearGradient>
</defs>
</svg>
