<svg width="61" height="48" viewBox="0 0 61 48" fill="none" xmlns="http://www.w3.org/2000/svg">
<path d="M22.1309 6.02441C22.1543 6.02222 22.1779 6.02199 22.2012 6.02441L22.2695 6.03906C22.2918 6.04595 22.3136 6.0544 22.334 6.06543L22.3916 6.10547C22.4276 6.13531 22.4576 6.17157 22.4795 6.21289C22.4904 6.23345 22.4992 6.25518 22.5059 6.27734L22.5195 6.34668C22.5217 6.36979 22.5219 6.39304 22.5195 6.41602L22.5049 6.48535C22.498 6.50761 22.4896 6.5294 22.4785 6.5498L22.4385 6.60742C22.4237 6.62522 22.4075 6.6417 22.3896 6.65625L22.3311 6.69531H22.3301C22.0547 6.8411 21.7826 6.99192 21.5137 7.14746L21.5127 7.14844C21.469 7.17372 21.4201 7.18632 21.3701 7.19141H21.332C21.2735 7.19125 21.2161 7.17673 21.165 7.14941L21.1162 7.11719C21.0543 7.06956 21.0095 7.00317 20.9893 6.92773C20.9741 6.87102 20.9732 6.81151 20.9863 6.75488L21.0039 6.69922C21.0263 6.64505 21.0617 6.59746 21.1064 6.56055L21.1543 6.52734C21.4321 6.36999 21.7131 6.21575 21.9971 6.06445C22.0178 6.05349 22.0401 6.04475 22.0625 6.03809L22.1309 6.02441Z" fill="url(#paint0_linear_64_1574)" stroke="white" stroke-width="1.18648"/>
<path d="M43.9395 6.57617C44.0197 6.55149 44.1056 6.55621 44.1826 6.58887C44.4483 6.74584 44.7097 6.90692 44.9668 7.07227H44.9678C45.0266 7.11109 45.0724 7.1665 45.0996 7.23047L45.1201 7.29688C45.1345 7.36567 45.1281 7.43658 45.1025 7.50098L45.0703 7.5625C45.0322 7.62154 44.9785 7.66846 44.915 7.69629L44.8486 7.71777C44.7572 7.73791 44.6612 7.72081 44.582 7.6709H44.5811C44.3646 7.53292 44.145 7.39701 43.9219 7.26367L43.8418 7.20898C43.7681 7.15815 43.7159 7.08148 43.6963 6.99414L43.6885 6.92773C43.687 6.88359 43.6934 6.83952 43.708 6.79785L43.7363 6.7373C43.7701 6.67922 43.8193 6.63251 43.8779 6.60156L43.9395 6.57617Z" fill="url(#paint1_linear_64_1574)" stroke="white" stroke-width="1.18648"/>
<path d="M26.4531 4.28711C26.5201 4.27061 26.59 4.27376 26.6543 4.2959L26.7168 4.3252C26.777 4.36014 26.8256 4.41133 26.8564 4.47266L26.8809 4.53711C26.9058 4.62629 26.8949 4.7214 26.8506 4.80273C26.8066 4.88353 26.7332 4.94395 26.6455 4.97168C26.5009 5.01113 26.3567 5.05249 26.2129 5.0957L25.7646 5.2373C25.7291 5.24894 25.6917 5.2548 25.6543 5.25488H25.6016C25.5565 5.24824 25.5129 5.23391 25.4736 5.21094L25.4219 5.17383C25.3738 5.13261 25.338 5.07964 25.3174 5.02051L25.3018 4.95996C25.2918 4.89725 25.2985 4.83289 25.3213 4.77441L25.3496 4.71875C25.3826 4.66465 25.4293 4.62058 25.4844 4.59082L25.542 4.56543H25.543C25.8466 4.46524 26.1499 4.37223 26.4531 4.28711Z" fill="url(#paint2_linear_64_1574)" stroke="white" stroke-width="1.18648"/>
<path d="M35.0596 3.54688V3.5459C35.3904 3.58303 35.7097 3.62569 36.0176 3.67188L36.04 3.6748L36.0625 3.67676C36.086 3.67846 36.1093 3.68226 36.1318 3.68848L36.1973 3.71387C36.2183 3.72441 36.2384 3.73662 36.2568 3.75098L36.3076 3.7998C36.3229 3.81752 36.3371 3.83619 36.3486 3.85645L36.377 3.9209C36.3843 3.94312 36.3897 3.96613 36.3926 3.98926L36.3945 4.05957C36.3928 4.08301 36.388 4.10636 36.3818 4.12891L36.3574 4.19434C36.3469 4.21535 36.3337 4.23543 36.3193 4.25391L36.2715 4.30469C36.2537 4.32007 36.2342 4.33414 36.2139 4.3457L36.1494 4.37402C36.1271 4.38142 36.1043 4.38675 36.0811 4.38965L36.0107 4.3916L35.9893 4.38965H35.8682C35.7053 4.36486 35.5379 4.34301 35.3662 4.32227L35.3613 4.30566L34.9824 4.26562L34.9131 4.25098L34.8477 4.22266C34.827 4.21134 34.8071 4.19863 34.7891 4.18359L34.7393 4.13281C34.7244 4.11437 34.7121 4.09412 34.7012 4.07324L34.6738 4.00781C34.6672 3.98518 34.6633 3.96185 34.6611 3.93848L34.6621 3.86719C34.6646 3.84365 34.6687 3.82034 34.6758 3.79785L34.7041 3.73242C34.7268 3.69088 34.7571 3.65374 34.7939 3.62402C34.8124 3.60917 34.8327 3.59687 34.8535 3.58594L34.9189 3.55859C34.9645 3.54523 35.0124 3.54182 35.0596 3.54688Z" fill="url(#paint3_linear_64_1574)" stroke="white" stroke-width="1.18648"/>
<path d="M31.2148 3.48438C31.2856 3.48017 31.3556 3.49709 31.416 3.53223L31.4736 3.57422C31.5268 3.62149 31.5643 3.68313 31.582 3.75098L31.5928 3.82031C31.5984 3.91493 31.5668 4.00818 31.5039 4.0791C31.4567 4.13229 31.3949 4.16966 31.3271 4.1875L31.2578 4.19824H31.2559C30.9543 4.21709 30.6542 4.24243 30.3555 4.27344H30.1797C30.1134 4.26215 30.0507 4.23327 30 4.1875C29.9474 4.1399 29.9107 4.07754 29.8936 4.00977L29.8828 3.94043C29.8793 3.86954 29.8968 3.79933 29.9326 3.73926L29.9746 3.68262C30.0223 3.62988 30.0844 3.59328 30.1523 3.57617L30.2217 3.56543L30.2373 3.56445L30.252 3.56348C30.419 3.54646 30.5828 3.53069 30.7432 3.51758L31.2148 3.48438Z" fill="url(#paint4_linear_64_1574)" stroke="white" stroke-width="1.18648"/>
<path d="M39.7959 4.59863C40.0948 4.69764 40.3942 4.80147 40.6934 4.91211C40.7149 4.92035 40.7354 4.93118 40.7549 4.94336L40.8105 4.98633C40.8445 5.01835 40.8715 5.05707 40.8906 5.09961C40.9003 5.12103 40.9079 5.14323 40.9131 5.16602L40.9219 5.23438C40.9233 5.28111 40.915 5.32835 40.8984 5.37207C40.8819 5.41557 40.8571 5.45536 40.8252 5.48926C40.8092 5.50625 40.7914 5.52167 40.7725 5.53516L40.7119 5.57031C40.6693 5.58945 40.6229 5.60017 40.5762 5.60156L40.5068 5.59668L40.4395 5.57812H40.4385C40.1539 5.47061 39.8679 5.36868 39.5801 5.27344C39.5177 5.24873 39.4641 5.2076 39.4248 5.1543L39.3896 5.09668C39.3602 5.03494 39.3491 4.96639 39.3574 4.89941L39.3721 4.83398C39.3931 4.76904 39.4324 4.71182 39.4844 4.66895L39.54 4.63086C39.6182 4.58821 39.7096 4.57735 39.7959 4.59863Z" fill="url(#paint5_linear_64_1574)" stroke="white" stroke-width="1.18648"/>
<path d="M50.9668 12.9033C50.9898 12.9072 51.0125 12.9126 51.0342 12.9209L51.0967 12.9521C51.1166 12.9646 51.1353 12.979 51.1523 12.9951L51.1973 13.0479C51.3827 13.3105 51.5641 13.5759 51.7402 13.8447L51.7461 13.8545L51.752 13.8633C51.7658 13.8828 51.7785 13.9031 51.7881 13.9248L51.8096 13.9932C51.8197 14.04 51.8205 14.0887 51.8115 14.1357C51.807 14.1592 51.8001 14.1821 51.791 14.2041L51.7578 14.2676C51.7311 14.3073 51.6964 14.3411 51.6562 14.3672C51.6161 14.3933 51.5706 14.4106 51.5234 14.4189C51.4998 14.4231 51.476 14.4255 51.4521 14.4248L51.3818 14.415C51.3585 14.4096 51.3352 14.4025 51.3135 14.3926L51.252 14.3564C51.2133 14.3282 51.1808 14.2921 51.1562 14.251L51.1514 14.2422L51.1455 14.2344L50.8848 13.8398C50.7973 13.7119 50.7079 13.5858 50.6172 13.4609C50.6037 13.442 50.5925 13.4215 50.583 13.4004L50.5605 13.334C50.5553 13.3112 50.5524 13.2879 50.5518 13.2646L50.5566 13.1953C50.5605 13.1724 50.566 13.1496 50.5742 13.1279L50.6055 13.0654C50.6179 13.0456 50.6324 13.0267 50.6484 13.0098L50.7012 12.9639C50.7202 12.9504 50.7406 12.9392 50.7617 12.9297L50.8281 12.9072C50.851 12.902 50.8741 12.8991 50.8975 12.8984L50.9668 12.9033Z" fill="url(#paint6_linear_64_1574)" stroke="white" stroke-width="1.18648"/>
<path d="M47.749 9.33398C47.7726 9.33321 47.7962 9.33403 47.8193 9.33789L47.8877 9.35645C47.9319 9.37332 47.9726 9.39896 48.0068 9.43164L48.0117 9.4375L48.0176 9.44238C48.1359 9.54992 48.2531 9.65889 48.3691 9.76953L48.7139 10.1064C48.7303 10.1229 48.7449 10.1409 48.7578 10.1602L48.791 10.2217C48.8089 10.2649 48.8184 10.3116 48.8184 10.3584C48.8183 10.3817 48.816 10.405 48.8115 10.4277L48.791 10.4951C48.782 10.5167 48.7708 10.5373 48.7578 10.5566L48.7139 10.6104C48.6975 10.6268 48.6793 10.6414 48.6602 10.6543L48.5977 10.6875C48.5546 10.7053 48.5085 10.7148 48.4619 10.7148C48.4387 10.7148 48.4153 10.7125 48.3926 10.708L48.3252 10.6875C48.3036 10.6785 48.2831 10.6673 48.2637 10.6543L48.21 10.6104C48.1009 10.4997 47.9902 10.3906 47.8779 10.2832L47.5322 9.96289L47.5264 9.95703L47.4775 9.90527L47.4404 9.8457C47.4301 9.8245 47.4219 9.802 47.416 9.7793L47.4053 9.70898C47.404 9.68545 47.4049 9.66188 47.4082 9.63867L47.4258 9.56934C47.4337 9.54715 47.4439 9.52595 47.4561 9.50586L47.498 9.44922C47.514 9.43181 47.5318 9.4162 47.5508 9.40234L47.6123 9.36621C47.6553 9.34649 47.7018 9.33556 47.749 9.33398Z" fill="url(#paint7_linear_64_1574)" stroke="white" stroke-width="1.18648"/>
<path d="M54.5674 15.2266C54.5908 15.2275 54.6141 15.2299 54.6367 15.2354L54.7021 15.2588C54.7234 15.2685 54.7438 15.2803 54.7627 15.2939L54.8154 15.3398C54.8313 15.3569 54.8452 15.3758 54.8574 15.3955L54.8877 15.459C54.8958 15.4809 54.9026 15.5034 54.9062 15.5264L54.9102 15.5957L54.7822 18.9863C54.7807 19.0169 54.7758 19.0473 54.7666 19.0762L54.7285 19.1582C54.7122 19.1842 54.6921 19.2077 54.6699 19.2285L54.5967 19.2812C54.5431 19.3104 54.4829 19.3251 54.4219 19.3242L54.332 19.3115C54.303 19.3035 54.2753 19.2915 54.249 19.2764L51.4121 17.5469H51.4131C51.3528 17.5098 51.3055 17.4559 51.2764 17.3926L51.2539 17.3271C51.2374 17.2584 51.2416 17.1865 51.2656 17.1211L51.2959 17.0576L51.2988 17.0527C51.3111 17.0322 51.3257 17.0127 51.3418 16.9951L51.3945 16.9482C51.4138 16.9341 51.4344 16.922 51.4561 16.9121L51.5225 16.8887C51.5455 16.8832 51.5692 16.8807 51.5928 16.8799L51.6641 16.8848C51.6875 16.8887 51.7104 16.8948 51.7324 16.9033L51.7959 16.9346L51.8008 16.9385L53.2246 17.8252L54.0928 18.3672L54.1309 17.3438L54.1973 15.5693C54.1981 15.5459 54.2016 15.5227 54.207 15.5L54.2295 15.4336C54.2392 15.4126 54.2512 15.3927 54.2646 15.374L54.3115 15.3213C54.3287 15.3054 54.3474 15.2915 54.3672 15.2793L54.4297 15.248C54.4515 15.2399 54.4742 15.2342 54.4971 15.2305L54.5674 15.2266Z" fill="url(#paint8_linear_64_1574)" stroke="white" stroke-width="1.18648"/>
<path d="M15.8936 4.375C15.9173 4.37573 15.9409 4.3784 15.9639 4.38379L16.0322 4.40723C16.0539 4.41726 16.0746 4.42928 16.0938 4.44336L16.1465 4.49219C16.1626 4.51006 16.1773 4.52916 16.1895 4.5498L16.2197 4.61523L16.2275 4.63867C17.5435 7.9982 19.8283 12.7357 23.2588 16.3086L23.5938 16.6504H23.5947C26.8133 19.852 31.4237 22.5847 36.4316 24.001C41.4405 25.4174 46.8963 25.5299 51.7754 23.4189L51.7744 23.418C54.0357 22.4429 56.1559 21.7886 57.9375 22.501L58.1084 22.5742C58.9153 22.9427 59.5496 23.6074 59.8799 24.4307C60.2102 25.2541 60.2106 26.173 59.8818 26.9971C59.2294 28.5386 57.537 29.5937 56.1074 30.2236C55.7752 30.358 55.4368 30.4762 55.0928 30.5762L54.7441 30.6709C54.1828 30.803 53.6386 30.9994 53.1221 31.2559L53.1045 31.2646L53.0889 31.2734C51.9254 31.947 50.9561 32.4736 50.0449 32.9434C45.5842 35.2244 41.5048 36.7073 37.6016 37.4873L36.8232 37.6338L34.7617 37.9795H34.7607C30.5874 38.668 26.4809 39.3167 22.9355 41.7783C22.5811 42.0228 22.2419 42.2753 21.9004 42.54L20.8506 43.375C20.1161 43.9664 19.3944 44.5489 18.6299 45.0693L17.0381 46.1533H24.1836C24.2545 46.1533 24.3237 46.1741 24.3818 46.2129L24.4355 46.2578C24.5021 46.3245 24.54 46.4146 24.54 46.5088C24.54 46.6032 24.5023 46.694 24.4355 46.7607C24.3688 46.8275 24.278 46.8652 24.1836 46.8652H13.1924C11.8991 46.8026 10.6438 46.4163 9.54102 45.7432L9.32324 45.6055L9.31738 45.6016L8.96875 45.3633C8.28703 44.8664 7.70089 44.2503 7.23828 43.5449L7.01758 43.1855C6.4584 42.2093 6.14203 41.1124 6.09668 39.9883C6.09345 39.6585 6.00603 34.5109 5.31055 28.5293C4.95563 25.4769 4.44177 22.1943 3.69531 19.2188C2.9542 16.2645 1.97083 13.5576 0.651367 11.6807C0.600855 11.6035 0.582294 11.5096 0.599609 11.4189C0.612632 11.3509 0.645052 11.2886 0.692383 11.2393L0.744141 11.1943C0.800694 11.1546 0.867424 11.1325 0.935547 11.1299L1.00488 11.1338C1.09417 11.1479 1.17404 11.1964 1.22949 11.2676C2.50914 13.0873 3.51392 15.7154 4.29199 18.6973C5.06888 21.6746 5.60844 24.9571 5.98242 28.041C6.73043 34.2095 6.80957 39.5381 6.80957 39.9551V39.9795C6.85198 40.9901 7.1381 41.9759 7.64258 42.8525C8.14593 43.7272 8.85231 44.4676 9.70215 45.0117V45.0127C10.8468 45.7606 12.1855 46.156 13.5527 46.1523V46.1533H13.667C14.3786 46.1419 15.0834 46.019 15.7559 45.79L16.043 45.6855L16.0439 45.6846C17.6566 45.0476 19.042 43.9269 20.417 42.8193C20.9439 42.3964 21.471 41.9705 22.0068 41.5742L22.5459 41.1885H22.5469C25.7169 39.0016 29.3537 38.1788 33.0557 37.541L34.6455 37.2754H34.6465L36.6963 36.9277H36.6973C40.792 36.2083 45.0583 34.7094 49.7266 32.3154L49.7256 32.3145C50.6144 31.8605 51.5669 31.3377 52.707 30.6758C53.2064 30.4142 53.7327 30.2078 54.2764 30.0605L54.5098 30.001L54.5205 29.998C54.954 29.8867 55.3797 29.7472 55.7949 29.5801L55.8125 29.5723C57.4646 28.8434 58.7524 27.8745 59.2314 26.7061L59.2344 26.6973L59.2383 26.6885C59.4511 26.1173 59.4673 25.4939 59.2891 24.916L59.2002 24.6719C58.9664 24.109 58.5537 23.642 58.0293 23.3408L57.7979 23.2217L57.6104 23.1445C56.6615 22.7894 55.5596 22.916 54.6201 23.1494C53.8529 23.3401 53.121 23.6209 52.5527 23.8584L52.0439 24.0762C42.1747 28.3433 30.247 24.0472 23.415 17.4727L23.0938 17.1582V17.1572C19.412 13.4894 16.9797 8.48725 15.5664 4.89746L15.5625 4.88574L15.5576 4.875L15.5352 4.80664C15.53 4.78326 15.5267 4.75941 15.5264 4.73535C15.526 4.71136 15.5287 4.68751 15.5332 4.66406L15.5537 4.59473C15.5628 4.57281 15.5738 4.55183 15.5869 4.53223L15.6328 4.47656C15.667 4.44289 15.7082 4.41695 15.7529 4.39941C15.7751 4.39072 15.7979 4.38397 15.8213 4.37988L15.8936 4.375Z" fill="url(#paint9_linear_64_1574)" stroke="white" stroke-width="1.18648"/>
<path d="M8.91113 10.0947C8.98034 10.0788 9.05271 10.0836 9.11816 10.1084L9.18066 10.1396C9.24068 10.1772 9.28763 10.2314 9.31641 10.2949L9.33887 10.3613C9.66062 11.809 10.481 13.6132 11.3281 15.3369L12.168 17.0195V17.0205C12.654 17.9889 13.1118 18.9031 13.4902 19.7324L13.8398 20.5322C14.3053 21.6506 14.5441 23.0021 14.7256 24.4307L14.8945 25.8789V25.8809C15.0406 27.1744 15.1925 28.5474 15.4844 29.79C15.7752 31.028 16.2211 32.2087 17.001 33.084V33.085C17.2558 33.3715 17.5465 33.6243 17.8662 33.8359L18.459 34.2275L18.7393 33.5752C19.2841 32.3067 20.153 31.2056 21.2568 30.3818L21.4805 30.2217C22.615 29.4354 23.9352 28.9626 25.3076 28.8496L25.583 28.832L25.5967 28.8311C25.6202 28.8294 25.6437 28.83 25.667 28.833L25.7354 28.8486C25.7574 28.856 25.7787 28.8655 25.7988 28.877L25.8564 28.918C25.8741 28.9333 25.89 28.9504 25.9043 28.9688L25.9424 29.0283C25.9528 29.0492 25.9606 29.0713 25.9668 29.0938L25.9785 29.1631C25.9802 29.1865 25.9795 29.2102 25.9766 29.2334L25.9609 29.3018C25.9535 29.3241 25.9442 29.3459 25.9326 29.3662L25.8916 29.4238C25.8762 29.4414 25.8592 29.4574 25.8408 29.4717L25.7812 29.5088C25.7602 29.5193 25.7384 29.528 25.7158 29.5342L25.6465 29.5459C23.4218 29.703 20.6415 30.8743 19.4453 33.7441L19.1279 34.5049L19.9502 34.5645C20.8737 34.6307 21.8013 34.5363 22.6934 34.29H22.752L22.8389 34.2627C24.6196 33.6999 26.3482 32.9841 28.0059 32.124L28.3145 31.9814L28.3496 31.9648L28.3799 31.9453H28.4395L28.5586 31.8906C28.8383 31.7603 29.1124 31.6327 29.3809 31.5107L30.1689 31.1621C33.6765 29.6631 37.4839 28.997 41.292 29.2158L41.3086 29.2168H42.1846C42.2552 29.2168 42.3239 29.2378 42.3818 29.2764L42.4365 29.3213C42.5032 29.388 42.541 29.4789 42.541 29.5732C42.5409 29.644 42.5192 29.7125 42.4805 29.7705L42.4365 29.8242C42.3698 29.891 42.279 29.9287 42.1846 29.9287H41.2998C38.6038 29.7803 35.9017 30.0759 33.3018 30.8047L31.1934 31.3965L33.3115 31.9502C34.4531 32.2488 35.5474 32.7062 36.5615 33.3096L36.584 33.3232L36.6084 33.335C36.6305 33.3456 36.6516 33.3582 36.6709 33.373L36.7236 33.4238C36.7396 33.4423 36.7539 33.4621 36.7656 33.4834L36.7939 33.5508C36.8012 33.5743 36.8063 33.5986 36.8086 33.623L36.8076 33.6963C36.8048 33.7206 36.7996 33.7445 36.792 33.7676L36.7617 33.834C36.7372 33.8763 36.7044 33.9134 36.665 33.9424C36.6255 33.9714 36.58 33.9922 36.5322 34.0029C36.5082 34.0083 36.4835 34.0114 36.459 34.0117L36.3867 34.0049C36.3386 33.9956 36.2924 33.9771 36.252 33.9492L36.2344 33.9375L36.2168 33.9268L35.8643 33.7256C32.2439 31.7313 29.463 32.3702 28.8457 32.5537L28.8037 32.5664L28.7637 32.585L28.3369 32.7842L28.3281 32.7881C27.8288 33.0307 27.3206 33.2601 26.7852 33.5039L25.293 34.1826L26.875 34.6152C27.4026 34.7595 27.9205 34.9369 28.4258 35.1455L28.9268 35.3652L28.9346 35.3682C28.956 35.3778 28.9761 35.3898 28.9951 35.4033L29.0488 35.4492C29.0812 35.4837 29.1056 35.525 29.1221 35.5693C29.1303 35.5916 29.137 35.6144 29.1406 35.6377L29.1445 35.708C29.1435 35.7314 29.1403 35.7547 29.1348 35.7773L29.1113 35.8447C29.1013 35.8661 29.0892 35.8864 29.0752 35.9053L29.0273 35.957C28.9922 35.9887 28.9509 36.0137 28.9062 36.0293C28.8618 36.0448 28.8146 36.0516 28.7676 36.0488C28.7438 36.0474 28.7201 36.0432 28.6973 36.0371L28.6318 36.0127C26.8933 35.1535 24.9548 34.7801 23.0215 34.9326L22.9639 34.9375L22.9092 34.9531C22.2038 35.1495 21.4788 35.2658 20.748 35.3008L20.4346 35.3105H20.1582C19.6204 35.2961 19.0883 35.1958 18.582 35.0137L18.3311 34.916C17.6683 34.637 17.0728 34.2198 16.584 33.6924L15.6611 32.6963L15.5566 34.0508C15.3925 36.1949 14.6974 38.2643 13.5332 40.0723L13.5215 40.0918C13.5092 40.1125 13.4946 40.1317 13.4785 40.1494L13.4248 40.1982C13.3857 40.2268 13.3411 40.2471 13.2939 40.2578C13.2702 40.2632 13.2459 40.2661 13.2217 40.2666L13.1504 40.2607C13.1267 40.2564 13.1033 40.2493 13.0811 40.2402L13.0166 40.2061C12.9965 40.1926 12.9778 40.1773 12.9609 40.1602L12.916 40.1035C12.903 40.0834 12.8915 40.0623 12.8828 40.04L12.8643 39.9697C12.8603 39.9461 12.8586 39.9223 12.8594 39.8984L12.8691 39.8262C12.8806 39.7792 12.9016 39.7349 12.9307 39.6963L12.9404 39.6836L12.9492 39.6699C14.8968 36.7604 15.0756 33.2142 14.8555 30.625L14.8066 30.1211L14.8037 30.0918L14.7979 30.0625L14.6943 29.5557C14.4637 28.3714 14.2979 27.1751 14.1963 25.9727L14.1953 25.9648L14.1943 25.9561L14.0264 24.5254C13.9667 24.0558 13.9011 23.5959 13.8232 23.1533L12.6465 23.2305C12.5533 25.4161 11.8834 27.5384 10.7041 29.3809L10.6982 29.3896L10.6924 29.3994C10.6678 29.4409 10.6347 29.4774 10.5957 29.5059C10.5764 29.5199 10.5558 29.5321 10.5342 29.542L10.4648 29.5654C10.4414 29.5707 10.4175 29.5737 10.3936 29.5742L10.3213 29.5684C10.2738 29.5595 10.2287 29.5405 10.1885 29.5137C10.1684 29.5002 10.1497 29.4849 10.1328 29.4678L10.0879 29.4111C10.0616 29.3705 10.0433 29.3251 10.0352 29.2773C10.0311 29.2534 10.0294 29.2292 10.0303 29.2051L10.04 29.1338C10.0458 29.1102 10.0541 29.0873 10.0645 29.0654L10.1016 29.0039L10.1113 28.9912L10.1211 28.9775C11.8042 26.4642 12.0566 23.4086 11.9141 21.0342C11.8422 19.8387 11.6688 18.7939 11.5137 18.0439C11.436 17.6685 11.3626 17.3658 11.3086 17.1543C11.2816 17.0487 11.2591 16.9661 11.2441 16.9102C11.2431 16.9061 11.2422 16.9021 11.2412 16.8984V16.8955L11.2217 16.8223C11.2177 16.8071 11.2148 16.791 11.2129 16.7754L11.2002 16.6748L11.1553 16.585L10.7549 15.7734C9.83557 13.8899 9.02706 12.0697 8.64355 10.5195C8.62838 10.4514 8.63396 10.3808 8.6582 10.3164L8.68945 10.2529C8.73948 10.1729 8.81922 10.1161 8.91113 10.0947Z" fill="url(#paint10_linear_64_1574)" stroke="white" stroke-width="1.18648"/>
<path d="M13.6523 10.333C13.7211 10.3153 13.7933 10.3188 13.8594 10.3418L13.9238 10.3711C14.0054 10.4193 14.0642 10.4982 14.0879 10.5898L14.0947 10.6152L14.1035 10.6396C14.1102 10.6705 14.5981 12.5098 15.5938 14.5195C16.5942 16.5389 18.1898 18.9169 20.5205 19.9014L20.5293 19.9053L20.5381 19.9082C20.5602 19.9167 20.5816 19.9277 20.6016 19.9404L20.6572 19.9844C20.6742 20.0008 20.6898 20.0188 20.7031 20.0381L20.7373 20.1006C20.7467 20.1226 20.754 20.1456 20.7588 20.1689L20.7666 20.2393C20.7667 20.2629 20.7643 20.2865 20.7598 20.3096L20.7393 20.3779C20.7301 20.3999 20.7184 20.4208 20.7051 20.4404L20.6592 20.4951C20.6424 20.5115 20.6241 20.5263 20.6045 20.5391L20.541 20.5713C20.4969 20.5887 20.4498 20.5978 20.4023 20.5967L20.332 20.5879C20.3089 20.5827 20.2864 20.5752 20.2646 20.5654L20.2471 20.5576L20.0283 20.4619C17.7784 19.4349 16.1512 17.2018 15.0566 15.0664C14.2166 13.4276 13.7231 11.9104 13.5137 11.1953L13.3965 10.7725L13.3955 10.7686L13.3848 10.6992C13.3822 10.6525 13.3889 10.6057 13.4043 10.5615L13.4336 10.498C13.4698 10.4367 13.5236 10.3879 13.5869 10.3574L13.6523 10.333Z" fill="url(#paint11_linear_64_1574)" stroke="white" stroke-width="1.18648"/>
<path d="M46.0156 29.0693C46.2122 29.0694 46.3711 29.2292 46.3711 29.4258C46.3711 29.6223 46.2122 29.7812 46.0156 29.7812C45.8191 29.7812 45.6592 29.6223 45.6592 29.4258C45.6592 29.2292 45.819 29.0693 46.0156 29.0693Z" fill="url(#paint12_linear_64_1574)" stroke="white" stroke-width="1.18648"/>
<path d="M14.2168 0.592773C14.4134 0.592792 14.5723 0.752648 14.5723 0.949219C14.5722 1.14577 14.4134 1.30467 14.2168 1.30469C14.0202 1.30469 13.8604 1.14579 13.8604 0.949219C13.8604 0.752636 14.0202 0.592773 14.2168 0.592773Z" fill="url(#paint13_linear_64_1574)" stroke="white" stroke-width="1.18648"/>
<defs>
<linearGradient id="paint0_linear_64_1574" x1="22.4463" y1="7.1625" x2="20.2492" y2="5.94592" gradientUnits="userSpaceOnUse">
<stop stop-color="#55097B"/>
<stop offset="1" stop-color="#F00045"/>
</linearGradient>
<linearGradient id="paint1_linear_64_1574" x1="45.0785" y1="7.69417" x2="42.9304" y2="6.54655" gradientUnits="userSpaceOnUse">
<stop stop-color="#55097B"/>
<stop offset="1" stop-color="#F00045"/>
</linearGradient>
<linearGradient id="paint2_linear_64_1574" x1="26.8066" y1="5.27664" x2="24.6813" y2="3.97178" gradientUnits="userSpaceOnUse">
<stop stop-color="#55097B"/>
<stop offset="1" stop-color="#F00045"/>
</linearGradient>
<linearGradient id="paint3_linear_64_1574" x1="36.2735" y1="4.44523" x2="34.187" y2="3.01124" gradientUnits="userSpaceOnUse">
<stop stop-color="#55097B"/>
<stop offset="1" stop-color="#F00045"/>
</linearGradient>
<linearGradient id="paint4_linear_64_1574" x1="31.478" y1="4.34612" x2="29.4325" y2="2.91497" gradientUnits="userSpaceOnUse">
<stop stop-color="#55097B"/>
<stop offset="1" stop-color="#F00045"/>
</linearGradient>
<linearGradient id="paint5_linear_64_1574" x1="40.8417" y1="5.61021" x2="38.7106" y2="4.33423" gradientUnits="userSpaceOnUse">
<stop stop-color="#55097B"/>
<stop offset="1" stop-color="#F00045"/>
</linearGradient>
<linearGradient id="paint6_linear_64_1574" x1="51.811" y1="14.2972" x2="49.6385" y2="13.3573" gradientUnits="userSpaceOnUse">
<stop stop-color="#55097B"/>
<stop offset="1" stop-color="#F00045"/>
</linearGradient>
<linearGradient id="paint7_linear_64_1574" x1="48.7754" y1="10.6259" x2="46.5616" y2="9.55333" gradientUnits="userSpaceOnUse">
<stop stop-color="#55097B"/>
<stop offset="1" stop-color="#F00045"/>
</linearGradient>
<linearGradient id="paint8_linear_64_1574" x1="54.3163" y1="18.514" x2="50.0396" y2="16.6347" gradientUnits="userSpaceOnUse">
<stop stop-color="#55097B"/>
<stop offset="1" stop-color="#F00045"/>
</linearGradient>
<linearGradient id="paint9_linear_64_1574" x1="45.8669" y1="35.8566" x2="1.61082" y2="6.41562" gradientUnits="userSpaceOnUse">
<stop stop-color="#55097B"/>
<stop offset="1" stop-color="#F00045"/>
</linearGradient>
<linearGradient id="paint10_linear_64_1574" x1="34.5492" y1="32.5276" x2="5.87228" y2="17.1762" gradientUnits="userSpaceOnUse">
<stop stop-color="#55097B"/>
<stop offset="1" stop-color="#F00045"/>
</linearGradient>
<linearGradient id="paint11_linear_64_1574" x1="19.2634" y1="18.1454" x2="11.2767" y2="15.2883" gradientUnits="userSpaceOnUse">
<stop stop-color="#55097B"/>
<stop offset="1" stop-color="#F00045"/>
</linearGradient>
<linearGradient id="paint12_linear_64_1574" x1="46.5004" y1="29.8707" x2="44.8763" y2="29.0936" gradientUnits="userSpaceOnUse">
<stop stop-color="#55097B"/>
<stop offset="1" stop-color="#F00045"/>
</linearGradient>
<linearGradient id="paint13_linear_64_1574" x1="14.7015" y1="1.39411" x2="13.0775" y2="0.616994" gradientUnits="userSpaceOnUse">
<stop stop-color="#55097B"/>
<stop offset="1" stop-color="#F00045"/>
</linearGradient>
</defs>
</svg>
