<svg width="60" height="48" viewBox="0 0 60 48" fill="none" xmlns="http://www.w3.org/2000/svg">
<path d="M43.2461 1.09375H43.248C47.0789 1.07107 50.769 2.51165 53.5684 5.11328L53.8369 5.36914C57.0077 8.54211 58.5369 11.992 58.4717 15.6416L58.4609 15.9951C58.2717 20.1142 56.1013 24.5762 51.6855 29.6367L51.252 30.1279C47.784 34.0056 43.5618 37.6414 39.6113 40.9414L37.9385 42.335C36.1026 43.8613 34.3448 45.3227 32.8477 46.6562L32.2227 47.2197C32.1194 47.314 31.9845 47.3662 31.8447 47.3662C31.7399 47.3662 31.6378 47.3367 31.5498 47.2822L31.4668 47.2197C30.2502 46.1091 28.8233 44.898 27.3008 43.626L25.751 42.335H25.75C21.6223 38.9041 17.0181 35.0722 13.1914 30.9551L12.4375 30.1279C9.56462 26.9168 7.58162 23.9414 6.43066 21.1406L6.28027 20.7725H1.16699C1.09233 20.7742 1.01773 20.7608 0.948242 20.7334C0.913388 20.7197 0.879911 20.7029 0.848633 20.6826L0.761719 20.6133C0.734969 20.5871 0.711359 20.5581 0.69043 20.5273L0.636719 20.4297C0.607882 20.3611 0.592832 20.2873 0.592773 20.2129C0.592773 20.1755 0.597136 20.138 0.604492 20.1016L0.636719 19.9951C0.651172 19.9608 0.669588 19.9281 0.69043 19.8975L0.761719 19.8115C0.788321 19.7855 0.81758 19.7623 0.848633 19.7422L0.948242 19.6914C0.983019 19.6777 1.01905 19.6676 1.05566 19.6611L1.16699 19.6523H5.87695L5.67969 18.9072C5.45903 18.0736 5.31547 17.2217 5.25098 16.3623L5.22754 15.9941C5.05439 12.2131 6.57893 8.64358 9.85254 5.37109C12.5982 2.69478 16.2577 1.17006 20.082 1.09863L20.4521 1.0957H20.4541C22.3886 1.10011 24.3026 1.48321 26.0879 2.22168L26.4434 2.37402C28.3289 3.21217 30.0183 4.43527 31.4043 5.96387L31.8438 6.44824L32.2832 5.96387C33.5847 4.53012 35.1531 3.36511 36.8994 2.53418L37.251 2.37305C39.0207 1.58683 40.9261 1.15467 42.8594 1.09961L43.2461 1.09375ZM43.2275 2.21289C41.2365 2.21735 39.2721 2.65637 37.4707 3.49707L37.1123 3.66992C35.3325 4.56445 33.7709 5.83627 32.5352 7.39453L32.292 7.70996L32.291 7.71191C32.2521 7.76441 32.2046 7.80988 32.1504 7.8457L32.0938 7.87793C32.0159 7.91713 31.9299 7.93746 31.8428 7.9375C31.7774 7.9375 31.7124 7.92654 31.6514 7.9043L31.5918 7.87793C31.5333 7.84847 31.4802 7.80922 31.4355 7.76172L31.3936 7.71191L31.3926 7.70996L31.1494 7.39453C29.9125 5.83491 28.3492 4.56257 26.5674 3.66797C24.6677 2.71422 22.5719 2.21597 20.4463 2.21289H20.4424C16.9025 2.18729 13.4909 3.5138 10.9004 5.91406L10.6523 6.15039L10.6465 6.15527C7.72284 9.07892 6.27482 12.1856 6.33594 15.6113L6.34668 15.9443V15.9473C6.40374 17.0638 6.60162 18.1691 6.93457 19.2363L7.06445 19.6523H18.8379L18.9639 19.2275L22.2158 8.26074V8.25977C22.2424 8.16972 22.2908 8.08818 22.3564 8.02246L22.4277 7.96289C22.5295 7.89036 22.6525 7.85385 22.7773 7.85938C22.8709 7.86357 22.9616 7.89067 23.041 7.93848L23.1162 7.99316C23.1876 8.05427 23.2423 8.13189 23.2754 8.21875L23.3008 8.30762V8.30859L26.875 25.9932H28.0371L29.2246 20.1172C29.2439 20.0219 29.2876 19.934 29.3506 19.8613L29.4189 19.7949C29.494 19.7335 29.5833 19.6923 29.6777 19.6758L29.7734 19.668L47.6895 19.6592C47.7991 19.6618 47.9051 19.6965 47.9941 19.7578L48.0771 19.8281C48.1794 19.9328 48.2373 20.0734 48.2373 20.2197C48.2372 20.3294 48.2047 20.4359 48.1455 20.5264L48.0771 20.6113C48.0006 20.6896 47.9033 20.7432 47.7979 20.7666L47.6895 20.7793L30.7178 20.7822H30.2324L30.1367 21.2578L28.0049 31.8008C27.9858 31.8958 27.9425 31.9841 27.8799 32.0566L27.8105 32.124C27.7106 32.2058 27.5852 32.251 27.4561 32.251C27.3591 32.2509 27.2641 32.2259 27.1807 32.1787L27.1016 32.124C27.0266 32.0625 26.9693 31.983 26.9346 31.8936L26.9072 31.8008L23.1211 13.0723L21.9707 13.0215L19.792 20.3711C19.7576 20.4868 19.6866 20.5889 19.5898 20.6611C19.4931 20.7333 19.3755 20.7724 19.2549 20.7725H7.43457L7.86719 21.6318C9.28979 24.4592 11.109 27.0689 13.2695 29.3818V29.3828C16.6981 33.2159 20.9156 36.8431 24.8154 40.1006L26.4639 41.4736C28.2647 42.9701 29.9719 44.3901 31.4482 45.6992L31.8418 46.0479L32.2354 45.6992C32.9739 45.0443 33.77 44.3618 34.6064 43.6562L37.2197 41.4736C41.2769 38.1004 45.8798 34.2749 49.668 30.2002L50.415 29.3828C54.691 24.6017 57.0048 20.32 57.3164 16.3291L57.3398 15.9443C57.4927 12.6091 56.2331 9.57896 53.5859 6.72461L53.0371 6.15527L53.0322 6.15039L52.7832 5.91406C50.1898 3.51166 46.774 2.18497 43.2305 2.21289H43.2275Z" fill="url(#paint0_linear_64_1684)" stroke="white" stroke-width="1.18648"/>
<defs>
<linearGradient id="paint0_linear_64_1684" x1="44.6174" y1="35.3529" x2="-1.22543" y2="8.05124" gradientUnits="userSpaceOnUse">
<stop stop-color="#55097B"/>
<stop offset="1" stop-color="#F00045"/>
</linearGradient>
</defs>
</svg>
