<svg width="100%" height="100%" viewBox="0 0 1440 805" fill="none" xmlns="http://www.w3.org/2000/svg">
<path d="M-424 93.2733C-424 93.2733 -139 93.2736 53 93.2733C188.241 93.2732 251.76 -0.424018 387 0.00144459C520.735 0.422169 583.265 93.2733 717 93.2733C883.5 93.2733 1472 93.2733 1472 93.2733L1487 805H-424V93.2733Z" fill="#F1F4F9"/>
<path d="M-497 135.052C-484.761 135.052 -103.831 135.052 123.854 135.052C264.047 135.052 257.928 55.9395 388.663 48.3353C519.399 40.7311 554.329 164.982 671.274 164.992C871.55 165.01 1440 164.992 1440 164.992" stroke="black" stroke-width="6"/>
<path d="M-497 135.052C-484.761 135.052 -103.831 135.052 123.854 135.052C264.047 135.052 257.928 55.9395 388.663 48.3353C519.399 40.7311 554.329 164.982 671.274 164.992C871.55 165.01 1440 164.992 1440 164.992" stroke="url(#paint0_linear_0_1)" stroke-width="6"/>
<path d="M-499 110C-499 110 -99.0078 109.999 142.988 110C299.845 110.001 373.328 206.189 530.182 206.993C609.459 207.399 652.568 189.783 731.567 183.755C887.008 171.895 1454 183.755 1454 183.755" stroke="black" stroke-width="6"/>
<path d="M-499 110C-499 110 -99.0078 109.999 142.988 110C299.845 110.001 373.328 206.189 530.182 206.993C609.459 207.399 652.568 189.783 731.567 183.755C887.008 171.895 1454 183.755 1454 183.755" stroke="url(#paint1_linear_0_1)" stroke-width="6"/>
<defs>
<linearGradient id="paint0_linear_0_1" x1="796.856" y1="94.9607" x2="-452.669" y2="94.9607" gradientUnits="userSpaceOnUse">
<stop stop-color="#55097B"/>
<stop offset="0.479" stop-color="#F00045"/>
</linearGradient>
<linearGradient id="paint1_linear_0_1" x1="808.755" y1="148.933" x2="-445.056" y2="148.933" gradientUnits="userSpaceOnUse">
<stop stop-color="#55097B"/>
<stop offset="0.514" stop-color="#F00045"/>
</linearGradient>
</defs>
</svg>
