<svg width="1440" height="436" viewBox="0 0 1440 436" fill="none" xmlns="http://www.w3.org/2000/svg">
<path d="M-47.833 3L-27.3623 378.699C-27.268 378.723 -27.1706 378.748 -27.0703 378.772C-25.4674 379.168 -23.0973 379.749 -20.0322 380.489C-13.9015 381.969 -4.99121 384.084 6.11914 386.621C28.3414 391.696 59.3596 398.46 94.5391 405.217C164.957 418.741 251.835 432.192 318.224 432.08L323.033 432.064C423.766 431.548 507.642 420.198 591.652 407.917C675.65 395.638 759.824 382.422 860.895 378.27L865.72 378.078C979.479 373.755 1123.22 387.284 1238.42 401.867C1296.04 409.162 1346.56 416.725 1382.68 422.466C1400.74 425.336 1415.2 427.752 1425.14 429.449C1430.12 430.298 1433.96 430.967 1436.57 431.425C1436.71 431.451 1436.86 431.476 1437 431.501V3H-47.833Z" fill="#55097B"/>
<path d="M-47.833 3L-27.3623 378.699C-27.268 378.723 -27.1706 378.748 -27.0703 378.772C-25.4674 379.168 -23.0973 379.749 -20.0322 380.489C-13.9015 381.969 -4.99121 384.084 6.11914 386.621C28.3414 391.696 59.3596 398.46 94.5391 405.217C164.957 418.741 251.835 432.192 318.224 432.08L323.033 432.064C423.766 431.548 507.642 420.198 591.652 407.917C675.65 395.638 759.824 382.422 860.895 378.27L865.72 378.078C979.479 373.755 1123.22 387.284 1238.42 401.867C1296.04 409.162 1346.56 416.725 1382.68 422.466C1400.74 425.336 1415.2 427.752 1425.14 429.449C1430.12 430.298 1433.96 430.967 1436.57 431.425C1436.71 431.451 1436.86 431.476 1437 431.501V3H-47.833Z" fill="url(#paint0_linear_3_1654)"/>
<path d="M-47.833 3L-27.3623 378.699C-27.268 378.723 -27.1706 378.748 -27.0703 378.772C-25.4674 379.168 -23.0973 379.749 -20.0322 380.489C-13.9015 381.969 -4.99121 384.084 6.11914 386.621C28.3414 391.696 59.3596 398.46 94.5391 405.217C164.957 418.741 251.835 432.192 318.224 432.08L323.033 432.064C423.766 431.548 507.642 420.198 591.652 407.917C675.65 395.638 759.824 382.422 860.895 378.27L865.72 378.078C979.479 373.755 1123.22 387.284 1238.42 401.867C1296.04 409.162 1346.56 416.725 1382.68 422.466C1400.74 425.336 1415.2 427.752 1425.14 429.449C1430.12 430.298 1433.96 430.967 1436.57 431.425C1436.71 431.451 1436.86 431.476 1437 431.501V3H-47.833Z" stroke="black" stroke-width="6"/>
<path d="M-47.833 3L-27.3623 378.699C-27.268 378.723 -27.1706 378.748 -27.0703 378.772C-25.4674 379.168 -23.0973 379.749 -20.0322 380.489C-13.9015 381.969 -4.99121 384.084 6.11914 386.621C28.3414 391.696 59.3596 398.46 94.5391 405.217C164.957 418.741 251.835 432.192 318.224 432.08L323.033 432.064C423.766 431.548 507.642 420.198 591.652 407.917C675.65 395.638 759.824 382.422 860.895 378.27L865.72 378.078C979.479 373.755 1123.22 387.284 1238.42 401.867C1296.04 409.162 1346.56 416.725 1382.68 422.466C1400.74 425.336 1415.2 427.752 1425.14 429.449C1430.12 430.298 1433.96 430.967 1436.57 431.425C1436.71 431.451 1436.86 431.476 1437 431.501V3H-47.833Z" stroke="url(#paint1_linear_3_1654)" stroke-width="6"/>
<defs>
<linearGradient id="paint0_linear_3_1654" x1="735.144" y1="384.316" x2="858.038" y2="-62.7667" gradientUnits="userSpaceOnUse">
<stop stop-color="#55097B"/>
<stop offset="1" stop-color="#F00045"/>
</linearGradient>
<linearGradient id="paint1_linear_3_1654" x1="-637.5" y1="279.5" x2="170.986" y2="-803.495" gradientUnits="userSpaceOnUse">
<stop stop-color="#55097B"/>
<stop offset="0.82298" stop-color="#F00045"/>
</linearGradient>
</defs>
</svg>
