<svg width="121" height="141" viewBox="0 0 121 141" fill="none" xmlns="http://www.w3.org/2000/svg">
<path d="M114.533 140H6.48439C3.93956 140 1.87109 137.971 1.87109 135.476V109.887C1.87109 101.544 7.23343 93.9902 15.2127 91.0897C15.2378 91.0805 15.2597 91.0743 15.2848 91.0651L45.1772 81.59V71.768C45.1772 70.7919 45.9858 70 46.9824 70C47.979 70 48.7876 70.7919 48.7876 71.768V82.8361C48.7907 82.965 48.7782 83.0909 48.7563 83.2137C48.7061 83.4715 48.5964 83.7109 48.4429 83.9166C48.2893 84.1222 48.0887 84.3002 47.8537 84.4261C47.744 84.4875 47.6249 84.5335 47.4995 84.5703L16.435 94.42C9.88169 96.8171 5.4815 103.03 5.4815 109.89V135.479C5.4815 136.025 5.9328 136.467 6.48439 136.467H114.537C115.091 136.467 115.539 136.022 115.539 135.479V109.89C115.539 103.03 111.139 96.8171 104.586 94.42L73.5183 84.5765C73.3929 84.5396 73.277 84.4905 73.1641 84.4322C72.9259 84.3033 72.7254 84.1283 72.5749 83.9227C72.4214 83.717 72.3148 83.4807 72.2647 83.2198C72.2396 83.097 72.2302 82.9712 72.2333 82.8423V71.8048C72.2333 70.8287 73.0419 70.0368 74.0385 70.0368C75.0351 70.0368 75.8437 70.8287 75.8437 71.8048V81.5961L105.736 91.0682C105.761 91.0774 105.783 91.0835 105.808 91.0928C113.791 93.9933 119.153 101.547 119.153 109.89V135.479C119.15 137.971 117.078 140 114.533 140Z" fill="white" stroke="white" stroke-width="2"/>
<path d="M60.5097 99.0878C59.9864 99.0878 59.488 98.859 59.1464 98.4641L45.6199 82.8535C44.9681 82.1013 45.0495 80.9605 45.8017 80.3055C46.5539 79.6536 47.6947 79.7351 48.3497 80.4873L60.5097 94.5215L72.6698 80.4904C73.3217 79.7382 74.4625 79.6567 75.2178 80.3086C75.9699 80.9605 76.0514 82.1013 75.3995 82.8566L61.873 98.4641C61.5314 98.8621 61.0331 99.0878 60.5097 99.0878Z" fill="white"/>
<path d="M97.3553 121.849H93.9079C92.9081 121.849 92.0964 121.037 92.0964 120.037C92.0964 119.038 92.9081 118.226 93.9079 118.226H95.5407V113.146C95.5407 109.394 92.4882 106.342 88.7367 106.342C84.9853 106.342 81.9327 109.394 81.9327 113.146V118.226H83.5656C84.5653 118.226 85.377 119.038 85.377 120.037C85.377 121.037 84.5653 121.849 83.5656 121.849H80.1181C79.1184 121.849 78.3066 121.037 78.3066 120.037V113.146C78.3066 107.395 82.9858 102.719 88.7336 102.719C94.4814 102.719 99.1605 107.398 99.1605 113.146V120.037C99.1699 121.037 98.3582 121.849 97.3553 121.849Z" fill="white"/>
<path d="M88.7392 106.339C87.7394 106.339 86.9277 105.527 86.9277 104.527V86.4345C86.9277 85.4348 87.7394 84.623 88.7392 84.623C89.739 84.623 90.5507 85.4348 90.5507 86.4345V104.527C90.5507 105.527 89.739 106.339 88.7392 106.339Z" fill="white"/>
<path d="M30.5498 107.525C29.55 107.525 28.7383 106.714 28.7383 105.714V86.9912C28.7383 85.9914 29.55 85.1797 30.5498 85.1797C31.5495 85.1797 32.3612 85.9914 32.3612 86.9912V105.714C32.3612 106.714 31.5495 107.525 30.5498 107.525Z" fill="white"/>
<path d="M30.5501 121.311C25.7488 121.311 21.8438 117.406 21.8438 112.605C21.8438 107.803 25.7488 103.898 30.5501 103.898C35.3514 103.898 39.2565 107.803 39.2565 112.605C39.2565 117.406 35.3514 121.311 30.5501 121.311ZM30.5501 107.525C27.7483 107.525 25.4698 109.803 25.4698 112.605C25.4698 115.407 27.7483 117.685 30.5501 117.685C33.3519 117.685 35.6304 115.407 35.6304 112.605C35.6304 109.803 33.3519 107.525 30.5501 107.525Z" fill="white"/>
<path d="M86.9866 41.1428C86.7453 41.1428 86.5009 41.0926 86.2658 40.9924C85.3507 40.5943 84.937 39.5288 85.335 38.6136C88.9297 30.3962 92.3458 15.4468 74.836 7.6807C68.5554 4.89141 61.5916 3.97627 54.6998 5.03557C46.1 6.36127 35.7044 10.3916 35.04 22.0534C35.0212 22.3762 34.9178 22.6865 34.7391 22.9529C34.5793 23.3321 32.4231 28.9232 35.7076 37.1124C36.0774 38.037 35.6292 39.09 34.7047 39.4598C33.7801 39.8296 32.7271 39.3815 32.3573 38.4569C29.0665 30.2552 30.4392 23.6862 31.4609 21.4642C31.9154 15.2431 34.6984 10.2945 39.7379 6.75302C43.4424 4.15177 48.2938 2.37164 54.1514 1.46904C61.7295 0.306312 69.389 1.31547 76.3027 4.38369C97.4292 13.7545 91.9729 32.4584 88.6477 40.0647C88.3468 40.7385 87.6824 41.1428 86.9866 41.1428ZM34.7141 22.9842C34.6921 23.0124 34.6702 23.0437 34.6483 23.0719C34.6639 23.05 34.689 23.0218 34.7141 22.9842Z" fill="white" stroke="white" stroke-width="2"/>
<path d="M60.5054 75.9292C44.9104 75.9292 32.2207 63.2395 32.2207 47.6446V37.7818C32.2207 36.7851 33.0293 35.9766 34.0259 35.9766C35.0225 35.9766 35.8311 36.7851 35.8311 37.7818V47.6446C35.8311 61.2494 46.9005 72.3188 60.5054 72.3188C74.1102 72.3188 85.1796 61.2494 85.1796 47.6446V39.3394C85.1796 38.3428 85.9882 37.5342 86.9848 37.5342C87.9815 37.5342 88.79 38.3428 88.79 39.3394V47.6446C88.79 63.2395 76.1003 75.9292 60.5054 75.9292Z" fill="white" stroke="white" stroke-width="2"/>
<path d="M86.9862 41.1433C86.9831 41.1433 86.98 41.1433 86.9768 41.1433C71.9617 41.0618 55.8872 31.1457 50.5186 27.5291C46.6324 35.0131 38.2269 38.3634 34.5664 39.5073C33.6136 39.8051 32.6013 39.2754 32.3036 38.3227C32.0058 37.3699 32.5355 36.3576 33.4882 36.0599C36.1992 35.2137 45.2628 31.854 48.0552 24.1756C48.2496 23.6397 48.6852 23.2292 49.2274 23.0662C49.7727 22.9001 50.3619 23.0035 50.8195 23.3389C51.0106 23.4799 70.2035 37.442 86.9956 37.5329C87.9923 37.5392 88.7977 38.3509 88.7915 39.3475C88.7852 40.341 87.9766 41.1433 86.9862 41.1433Z" fill="white" stroke="white"/>
<path d="M34.6801 55.2621C34.6111 55.2621 34.5422 55.2589 34.4733 55.2495C34.42 55.2433 34.3103 55.237 34.1912 55.2276C33.7712 55.1931 33.6866 55.1869 33.5863 55.1712C29.2708 54.4598 26.1367 50.7616 26.1367 46.3771C26.1367 44.1457 26.9641 42.0176 28.4622 40.3754C28.7035 40.1121 28.9542 39.8677 29.2112 39.642C30.5056 38.5169 32.082 37.793 33.7712 37.5516C34.7585 37.4106 35.6736 38.0938 35.8146 39.0811C35.9557 40.0683 35.2724 40.9834 34.2852 41.1244C33.2823 41.2686 32.3452 41.698 31.5774 42.3655C31.4207 42.5034 31.2703 42.6507 31.1198 42.8137C30.2329 43.7852 29.7409 45.0483 29.7409 46.3739C29.7409 48.9658 31.5805 51.1565 34.1222 51.5984C34.2006 51.6047 34.3416 51.6172 34.4764 51.6266C34.6864 51.6423 34.8775 51.6611 34.9152 51.6673C35.9024 51.8021 36.595 52.711 36.4634 53.6982C36.3443 54.6039 35.5702 55.2621 34.6801 55.2621Z" fill="white"/>
<path d="M86.3246 55.3341C85.4346 55.3341 84.6605 54.6759 84.5382 53.7702C84.4035 52.783 85.0961 51.8741 86.0864 51.7394C86.2055 51.7205 86.8324 51.6109 86.917 51.5952C89.443 51.1439 91.2764 48.9501 91.2764 46.377C91.2764 45.0513 90.7875 43.7852 89.8974 42.8136C89.747 42.6506 89.5966 42.5034 89.4399 42.3655C88.672 41.6979 87.7381 41.2685 86.7352 41.1244C85.748 40.9802 85.0648 40.0651 85.2058 39.081C85.3468 38.0969 86.2651 37.4105 87.2523 37.5516C88.9416 37.796 90.518 38.52 91.8123 39.642C92.0693 39.8676 92.3232 40.1121 92.5614 40.3753C94.0626 42.0176 94.89 44.1487 94.89 46.377C94.89 50.702 91.8061 54.3939 87.5532 55.1523C87.4498 55.1711 86.6788 55.3059 86.5754 55.3216C86.4876 55.3278 86.4061 55.3341 86.3246 55.3341Z" fill="white"/>
</svg>
