<svg width="51" height="58" viewBox="0 0 51 58" fill="none" xmlns="http://www.w3.org/2000/svg">
<path fill-rule="evenodd" clip-rule="evenodd" d="M50.7503 8.45838C50.7503 8.12729 50.6137 7.81071 50.3745 7.58233C50.3745 7.58233 42.4949 0 25.3751 0C8.25538 0 0.375793 7.58233 0.375793 7.58233C0.136542 7.81071 0 8.12729 0 8.45838V26.3527C0 37.3703 5.99699 47.5131 15.6504 52.8226C20.5672 55.5268 24.7927 57.8505 24.7927 57.8505C25.1552 58.0498 25.595 58.0498 25.9576 57.8505C25.9576 57.8505 30.1831 55.5268 35.0999 52.8226C44.7533 47.5131 50.7503 37.3703 50.7503 26.3527V8.45838ZM48.3336 9.01542C46.648 7.65483 39.2553 2.41668 25.3751 2.41668C11.4949 2.41668 4.10231 7.65483 2.41668 9.01542V26.3527C2.41668 36.4882 7.93396 45.8202 16.8153 50.7044L25.3751 55.4132L33.935 50.7044C42.8163 45.8202 48.3336 36.4882 48.3336 26.3527V9.01542Z" fill="black"/>
<path fill-rule="evenodd" clip-rule="evenodd" d="M50.7503 8.45838C50.7503 8.12729 50.6137 7.81071 50.3745 7.58233C50.3745 7.58233 42.4949 0 25.3751 0C8.25538 0 0.375793 7.58233 0.375793 7.58233C0.136542 7.81071 0 8.12729 0 8.45838V26.3527C0 37.3703 5.99699 47.5131 15.6504 52.8226C20.5672 55.5268 24.7927 57.8505 24.7927 57.8505C25.1552 58.0498 25.595 58.0498 25.9576 57.8505C25.9576 57.8505 30.1831 55.5268 35.0999 52.8226C44.7533 47.5131 50.7503 37.3703 50.7503 26.3527V8.45838ZM48.3336 9.01542C46.648 7.65483 39.2553 2.41668 25.3751 2.41668C11.4949 2.41668 4.10231 7.65483 2.41668 9.01542V26.3527C2.41668 36.4882 7.93396 45.8202 16.8153 50.7044L25.3751 55.4132L33.935 50.7044C42.8163 45.8202 48.3336 36.4882 48.3336 26.3527V9.01542Z" fill="url(#paint0_linear_163_2270)"/>
<path fill-rule="evenodd" clip-rule="evenodd" d="M45.9175 12.0311C45.9175 11.706 45.787 11.3955 45.555 11.1683C45.555 11.1683 39.1992 4.83301 25.3758 4.83301C11.5524 4.83301 5.19649 11.1683 5.19649 11.1683C4.96449 11.3955 4.83398 11.706 4.83398 12.0311V26.1143C4.83398 35.6868 10.2196 44.4436 18.7625 48.761C22.1386 50.4672 24.8308 51.8278 24.8308 51.8278C25.174 52.0018 25.5776 52.0018 25.9207 51.8278C25.9207 51.8278 28.6129 50.4672 31.989 48.761C40.532 44.4436 45.9175 35.6868 45.9175 26.1143C45.9175 19.0105 45.9175 12.0311 45.9175 12.0311ZM43.5009 12.5797C42.0496 11.3943 36.2025 7.24969 25.3758 7.24969C14.549 7.24969 8.70188 11.3943 7.25066 12.5797V26.1143C7.25066 34.7745 12.1239 42.6975 19.8524 46.6041L25.3758 49.3966L30.8991 46.6041C38.6276 42.6975 43.5009 34.7745 43.5009 26.1143V12.5797Z" fill="black"/>
<path fill-rule="evenodd" clip-rule="evenodd" d="M45.9175 12.0311C45.9175 11.706 45.787 11.3955 45.555 11.1683C45.555 11.1683 39.1992 4.83301 25.3758 4.83301C11.5524 4.83301 5.19649 11.1683 5.19649 11.1683C4.96449 11.3955 4.83398 11.706 4.83398 12.0311V26.1143C4.83398 35.6868 10.2196 44.4436 18.7625 48.761C22.1386 50.4672 24.8308 51.8278 24.8308 51.8278C25.174 52.0018 25.5776 52.0018 25.9207 51.8278C25.9207 51.8278 28.6129 50.4672 31.989 48.761C40.532 44.4436 45.9175 35.6868 45.9175 26.1143C45.9175 19.0105 45.9175 12.0311 45.9175 12.0311ZM43.5009 12.5797C42.0496 11.3943 36.2025 7.24969 25.3758 7.24969C14.549 7.24969 8.70188 11.3943 7.25066 12.5797V26.1143C7.25066 34.7745 12.1239 42.6975 19.8524 46.6041L25.3758 49.3966L30.8991 46.6041C38.6276 42.6975 43.5009 34.7745 43.5009 26.1143V12.5797Z" fill="url(#paint1_linear_163_2270)"/>
<path fill-rule="evenodd" clip-rule="evenodd" d="M25.3747 17.7823C28.3497 15.2436 32.8253 15.3801 35.6384 18.1932C38.5964 21.1512 38.5964 25.9459 35.6384 28.9027L26.229 38.312C25.7578 38.7845 24.9917 38.7845 24.5204 38.312L15.1111 28.9027C12.1531 25.9459 12.1531 21.1512 15.1111 18.1932C17.9241 15.3801 22.3998 15.2436 25.3747 17.7823ZM25.3747 35.7491L33.9298 27.1941C35.9429 25.1798 35.9429 21.916 33.9298 19.903C31.9167 17.8899 28.6517 17.8887 26.6387 19.9017L26.229 20.3114C25.7578 20.7838 24.9917 20.7838 24.5204 20.3114L24.1108 19.9017C22.0977 17.8887 18.8328 17.8887 16.8197 19.9017C14.8066 21.9148 14.8066 25.1798 16.8197 27.1941L25.3747 35.7491Z" fill="black"/>
<path fill-rule="evenodd" clip-rule="evenodd" d="M25.3747 17.7823C28.3497 15.2436 32.8253 15.3801 35.6384 18.1932C38.5964 21.1512 38.5964 25.9459 35.6384 28.9027L26.229 38.312C25.7578 38.7845 24.9917 38.7845 24.5204 38.312L15.1111 28.9027C12.1531 25.9459 12.1531 21.1512 15.1111 18.1932C17.9241 15.3801 22.3998 15.2436 25.3747 17.7823ZM25.3747 35.7491L33.9298 27.1941C35.9429 25.1798 35.9429 21.916 33.9298 19.903C31.9167 17.8899 28.6517 17.8887 26.6387 19.9017L26.229 20.3114C25.7578 20.7838 24.9917 20.7838 24.5204 20.3114L24.1108 19.9017C22.0977 17.8887 18.8328 17.8887 16.8197 19.9017C14.8066 21.9148 14.8066 25.1798 16.8197 27.1941L25.3747 35.7491Z" fill="url(#paint2_linear_163_2270)"/>
<defs>
<linearGradient id="paint0_linear_163_2270" x1="38.335" y1="42.5937" x2="-7.06408" y2="23.5853" gradientUnits="userSpaceOnUse">
<stop stop-color="#55097B"/>
<stop offset="1" stop-color="#F00045"/>
</linearGradient>
<linearGradient id="paint1_linear_163_2270" x1="35.8671" y1="39.4406" x2="-0.924742" y2="24.0925" gradientUnits="userSpaceOnUse">
<stop stop-color="#55097B"/>
<stop offset="1" stop-color="#F00045"/>
</linearGradient>
<linearGradient id="paint2_linear_163_2270" x1="31.7497" y1="32.6391" x2="11.1986" y2="21.8199" gradientUnits="userSpaceOnUse">
<stop stop-color="#55097B"/>
<stop offset="1" stop-color="#F00045"/>
</linearGradient>
</defs>
</svg>
