<svg width="62" height="57" viewBox="0 0 62 57" fill="none" xmlns="http://www.w3.org/2000/svg">
<path fill-rule="evenodd" clip-rule="evenodd" d="M60.1251 45.9011C60.1224 41.5004 57.0035 37.7141 52.6765 36.8554C48.3493 35.9994 44.0141 38.3098 42.327 42.3751C40.6398 46.4405 42.0659 51.1282 45.7365 53.573C49.4045 56.0175 54.2943 55.5372 57.4158 52.4272C59.1542 50.6964 60.1278 48.3483 60.1251 45.9011ZM49.4386 40.5316H52.3047V43.537V43.5343C52.3047 44.0522 52.7245 44.4735 53.2439 44.4735H56.2579V47.3313L53.2439 47.3287C52.7245 47.3287 52.3047 47.7473 52.3047 48.2652V51.2706H49.4386V48.2652C49.4386 47.7473 49.0188 47.3287 48.4994 47.3287H45.4854V44.4736H48.4994C49.0188 44.4709 49.4386 44.0523 49.4386 43.5344V40.529V40.5316ZM47.5602 42.6005V40.384C47.5522 39.9225 47.7325 39.4797 48.0554 39.1523C48.3837 38.8303 48.8277 38.6505 49.2879 38.6586H52.4499C52.9101 38.6532 53.3514 38.8303 53.6798 39.1496L53.6852 39.155C54.0081 39.4824 54.1857 39.9251 54.1803 40.384V42.6005H56.4032C56.8526 42.5898 57.2886 42.7508 57.6195 43.0513C57.9586 43.3653 58.1443 43.8081 58.1335 44.2695V47.4789C58.1389 47.9511 57.9425 48.4047 57.5926 48.7266C57.2535 49.0379 56.8095 49.2096 56.3466 49.207H54.183V51.4235C54.1884 51.8957 53.992 52.3492 53.6421 52.6685C53.303 52.9825 52.859 53.1542 52.3962 53.1515H49.2342C48.774 53.1623 48.3273 52.9771 48.0124 52.639C47.711 52.3063 47.5496 51.8716 47.5603 51.4262V49.2016H45.281C44.8181 49.215 44.3741 49.0272 44.0593 48.6918C43.7579 48.359 43.5964 47.9243 43.6072 47.4789V44.3232C43.6018 43.8993 43.7525 43.4887 44.0323 43.1694C44.0539 43.1425 44.0781 43.1157 44.1023 43.0916C44.4306 42.7696 44.8747 42.5898 45.3375 42.5978L47.5602 42.6005ZM15.1729 26.919L15.3289 27.0183L15.3316 27.0209C13.9592 28.1077 12.837 29.4735 12.0378 31.0272C11.147 32.7741 10.7164 34.7168 10.7811 36.673C9.57546 36.885 8.46403 37.4727 7.61363 38.3528C6.50757 39.496 5.89133 41.0228 5.89671 42.6113V47.2965C5.89671 47.8144 6.31652 48.233 6.83591 48.233H9.23368C9.48934 48.241 9.73423 48.1444 9.91453 47.9673C10.0975 47.7929 10.1998 47.5487 10.1998 47.2965C10.1998 47.0443 10.0975 46.8028 9.91453 46.6257C9.73423 46.4486 9.48934 46.3519 9.23368 46.36H7.7778V42.606C7.76972 41.5058 8.19222 40.4459 8.95646 39.6516C9.6965 38.8868 10.7191 38.4548 11.7875 38.4601C14.0561 38.4601 15.8968 40.2956 15.8968 42.5576V46.3573H14.4355V46.3546C13.9269 46.3707 13.5205 46.7839 13.5205 47.2938C13.5205 47.8009 13.9269 48.2141 14.4355 48.2303H16.836C17.0862 48.2303 17.323 48.131 17.5007 47.9539C17.6756 47.7768 17.7751 47.5406 17.7751 47.2911V42.555C17.7751 39.5952 15.598 37.0808 12.6594 36.6461C12.5975 34.9905 12.9581 33.3456 13.7089 31.8644C14.5162 30.3107 15.6949 28.9798 17.1454 27.9923C20.9856 29.715 25.3828 29.715 29.2228 27.9923C32.0512 29.9753 33.7223 33.2169 33.6873 36.665C31.1712 37.1104 29.4059 39.3913 29.6103 41.9324C29.8149 44.4736 31.922 46.4432 34.4785 46.4808C37.035 46.5183 39.2041 44.6131 39.4839 42.0801C39.7665 39.547 38.0684 37.2125 35.5657 36.6946C35.6007 32.9513 33.9349 29.3958 31.0312 27.0238L31.1954 26.9191C32.1076 27.2546 33.0145 27.6114 33.916 27.9925C34.9306 28.4218 35.9344 28.878 36.9247 29.3637H36.922C38.6362 30.2036 40.1513 31.3977 41.3676 32.8655C42.4575 34.1831 43.2891 35.6884 43.8219 37.3092C41.3892 39.2976 39.9118 42.2171 39.7557 45.3458C39.5996 48.4773 40.7783 51.5309 43.0011 53.7471C43.1061 53.8517 43.2137 53.9537 43.3241 54.0557C43.0684 54.2999 42.7805 54.5092 42.4683 54.6755C41.9005 54.9734 41.2708 55.1263 40.6303 55.1237H5.68907C4.67182 55.1317 3.69769 54.7346 2.97915 54.0181C2.26329 53.2855 1.86772 52.2981 1.87846 51.2757V41.508C1.87846 38.9776 2.58887 36.4981 3.92641 34.346C5.2585 32.2019 7.16914 30.4739 9.43775 29.3629C10.4227 28.8826 11.4211 28.4264 12.4356 27.9971C13.3425 27.6134 14.2548 27.2538 15.1725 26.9184L15.1729 26.919ZM44.8121 55.2128C44.387 55.6609 43.8945 56.0366 43.3482 56.3264C42.5113 56.7691 41.5775 57.0026 40.6302 56.9999H5.68902C4.17396 57.008 2.71807 56.4096 1.65238 55.3362C0.586695 54.2548 -0.00804697 52.7951 8.22524e-05 51.279V41.5086C0.00277316 38.6293 0.810111 35.8064 2.33592 33.3594C3.85368 30.9175 6.02811 28.9533 8.61423 27.6867C9.63418 27.1903 10.6649 26.7208 11.7117 26.278C12.2795 26.0391 12.85 25.8057 13.4259 25.583C13.2133 25.3925 13.0034 25.1966 12.8016 24.9953V24.998C10.0486 22.2502 8.50122 18.5257 8.50122 14.643C8.50122 10.7603 10.0486 7.03581 12.8016 4.28804C15.5572 1.54294 19.2925 0 23.1863 0C27.0801 0 30.8154 1.54294 33.5711 4.28804C36.324 7.03581 37.8714 10.7603 37.8714 14.643C37.8714 18.5257 36.324 22.2502 33.5711 24.998C33.3692 25.1993 33.1593 25.3951 32.9467 25.5857C33.5172 25.8057 34.0823 26.0365 34.6448 26.2726C35.6916 26.7154 36.7249 27.1849 37.7449 27.6867H37.7422C39.6986 28.642 41.4263 29.9998 42.8122 31.6742C43.9344 33.0321 44.8171 34.5669 45.4226 36.2199C47.7262 34.9292 50.4172 34.4999 53.0089 35.007C55.6005 35.5142 57.9282 36.923 59.5752 38.9838C61.2221 41.0446 62.0779 43.6234 61.9944 46.2558C61.9083 48.8882 60.8884 51.4052 59.1123 53.356C57.3362 55.3068 54.9223 56.5654 52.3038 56.9062C49.6827 57.2443 47.0266 56.6459 44.8119 55.2102L44.8121 55.2128ZM34.6424 38.4548H34.5805C33.3641 38.4548 32.2661 39.1874 31.8005 40.309C31.3323 41.4306 31.5906 42.7213 32.4518 43.58C33.3129 44.4387 34.6073 44.6936 35.7322 44.2294C36.8571 43.7652 37.589 42.6704 37.589 41.4574C37.5944 40.6659 37.2823 39.9065 36.7225 39.3456C36.1682 38.7956 35.4254 38.4763 34.6424 38.4548ZM35.9906 14.6426C35.9906 10.6712 34.1364 6.92823 30.9771 4.51294C27.8178 2.09524 23.7111 1.28218 19.8656 2.30991C16.02 3.34033 12.8744 6.09346 11.3512 9.76187C9.82811 13.43 10.1026 17.5944 12.094 21.0319C14.0853 24.4693 17.5676 26.7904 21.5156 27.3056C25.4634 27.8235 29.4271 26.4818 32.242 23.6723C34.6479 21.2814 35.9959 18.0294 35.9906 14.6426Z" fill="black"/>
<path fill-rule="evenodd" clip-rule="evenodd" d="M60.1251 45.9011C60.1224 41.5004 57.0035 37.7141 52.6765 36.8554C48.3493 35.9994 44.0141 38.3098 42.327 42.3751C40.6398 46.4405 42.0659 51.1282 45.7365 53.573C49.4045 56.0175 54.2943 55.5372 57.4158 52.4272C59.1542 50.6964 60.1278 48.3483 60.1251 45.9011ZM49.4386 40.5316H52.3047V43.537V43.5343C52.3047 44.0522 52.7245 44.4735 53.2439 44.4735H56.2579V47.3313L53.2439 47.3287C52.7245 47.3287 52.3047 47.7473 52.3047 48.2652V51.2706H49.4386V48.2652C49.4386 47.7473 49.0188 47.3287 48.4994 47.3287H45.4854V44.4736H48.4994C49.0188 44.4709 49.4386 44.0523 49.4386 43.5344V40.529V40.5316ZM47.5602 42.6005V40.384C47.5522 39.9225 47.7325 39.4797 48.0554 39.1523C48.3837 38.8303 48.8277 38.6505 49.2879 38.6586H52.4499C52.9101 38.6532 53.3514 38.8303 53.6798 39.1496L53.6852 39.155C54.0081 39.4824 54.1857 39.9251 54.1803 40.384V42.6005H56.4032C56.8526 42.5898 57.2886 42.7508 57.6195 43.0513C57.9586 43.3653 58.1443 43.8081 58.1335 44.2695V47.4789C58.1389 47.9511 57.9425 48.4047 57.5926 48.7266C57.2535 49.0379 56.8095 49.2096 56.3466 49.207H54.183V51.4235C54.1884 51.8957 53.992 52.3492 53.6421 52.6685C53.303 52.9825 52.859 53.1542 52.3962 53.1515H49.2342C48.774 53.1623 48.3273 52.9771 48.0124 52.639C47.711 52.3063 47.5496 51.8716 47.5603 51.4262V49.2016H45.281C44.8181 49.215 44.3741 49.0272 44.0593 48.6918C43.7579 48.359 43.5964 47.9243 43.6072 47.4789V44.3232C43.6018 43.8993 43.7525 43.4887 44.0323 43.1694C44.0539 43.1425 44.0781 43.1157 44.1023 43.0916C44.4306 42.7696 44.8747 42.5898 45.3375 42.5978L47.5602 42.6005ZM15.1729 26.919L15.3289 27.0183L15.3316 27.0209C13.9592 28.1077 12.837 29.4735 12.0378 31.0272C11.147 32.7741 10.7164 34.7168 10.7811 36.673C9.57546 36.885 8.46403 37.4727 7.61363 38.3528C6.50757 39.496 5.89133 41.0228 5.89671 42.6113V47.2965C5.89671 47.8144 6.31652 48.233 6.83591 48.233H9.23368C9.48934 48.241 9.73423 48.1444 9.91453 47.9673C10.0975 47.7929 10.1998 47.5487 10.1998 47.2965C10.1998 47.0443 10.0975 46.8028 9.91453 46.6257C9.73423 46.4486 9.48934 46.3519 9.23368 46.36H7.7778V42.606C7.76972 41.5058 8.19222 40.4459 8.95646 39.6516C9.6965 38.8868 10.7191 38.4548 11.7875 38.4601C14.0561 38.4601 15.8968 40.2956 15.8968 42.5576V46.3573H14.4355V46.3546C13.9269 46.3707 13.5205 46.7839 13.5205 47.2938C13.5205 47.8009 13.9269 48.2141 14.4355 48.2303H16.836C17.0862 48.2303 17.323 48.131 17.5007 47.9539C17.6756 47.7768 17.7751 47.5406 17.7751 47.2911V42.555C17.7751 39.5952 15.598 37.0808 12.6594 36.6461C12.5975 34.9905 12.9581 33.3456 13.7089 31.8644C14.5162 30.3107 15.6949 28.9798 17.1454 27.9923C20.9856 29.715 25.3828 29.715 29.2228 27.9923C32.0512 29.9753 33.7223 33.2169 33.6873 36.665C31.1712 37.1104 29.4059 39.3913 29.6103 41.9324C29.8149 44.4736 31.922 46.4432 34.4785 46.4808C37.035 46.5183 39.2041 44.6131 39.4839 42.0801C39.7665 39.547 38.0684 37.2125 35.5657 36.6946C35.6007 32.9513 33.9349 29.3958 31.0312 27.0238L31.1954 26.9191C32.1076 27.2546 33.0145 27.6114 33.916 27.9925C34.9306 28.4218 35.9344 28.878 36.9247 29.3637H36.922C38.6362 30.2036 40.1513 31.3977 41.3676 32.8655C42.4575 34.1831 43.2891 35.6884 43.8219 37.3092C41.3892 39.2976 39.9118 42.2171 39.7557 45.3458C39.5996 48.4773 40.7783 51.5309 43.0011 53.7471C43.1061 53.8517 43.2137 53.9537 43.3241 54.0557C43.0684 54.2999 42.7805 54.5092 42.4683 54.6755C41.9005 54.9734 41.2708 55.1263 40.6303 55.1237H5.68907C4.67182 55.1317 3.69769 54.7346 2.97915 54.0181C2.26329 53.2855 1.86772 52.2981 1.87846 51.2757V41.508C1.87846 38.9776 2.58887 36.4981 3.92641 34.346C5.2585 32.2019 7.16914 30.4739 9.43775 29.3629C10.4227 28.8826 11.4211 28.4264 12.4356 27.9971C13.3425 27.6134 14.2548 27.2538 15.1725 26.9184L15.1729 26.919ZM44.8121 55.2128C44.387 55.6609 43.8945 56.0366 43.3482 56.3264C42.5113 56.7691 41.5775 57.0026 40.6302 56.9999H5.68902C4.17396 57.008 2.71807 56.4096 1.65238 55.3362C0.586695 54.2548 -0.00804697 52.7951 8.22524e-05 51.279V41.5086C0.00277316 38.6293 0.810111 35.8064 2.33592 33.3594C3.85368 30.9175 6.02811 28.9533 8.61423 27.6867C9.63418 27.1903 10.6649 26.7208 11.7117 26.278C12.2795 26.0391 12.85 25.8057 13.4259 25.583C13.2133 25.3925 13.0034 25.1966 12.8016 24.9953V24.998C10.0486 22.2502 8.50122 18.5257 8.50122 14.643C8.50122 10.7603 10.0486 7.03581 12.8016 4.28804C15.5572 1.54294 19.2925 0 23.1863 0C27.0801 0 30.8154 1.54294 33.5711 4.28804C36.324 7.03581 37.8714 10.7603 37.8714 14.643C37.8714 18.5257 36.324 22.2502 33.5711 24.998C33.3692 25.1993 33.1593 25.3951 32.9467 25.5857C33.5172 25.8057 34.0823 26.0365 34.6448 26.2726C35.6916 26.7154 36.7249 27.1849 37.7449 27.6867H37.7422C39.6986 28.642 41.4263 29.9998 42.8122 31.6742C43.9344 33.0321 44.8171 34.5669 45.4226 36.2199C47.7262 34.9292 50.4172 34.4999 53.0089 35.007C55.6005 35.5142 57.9282 36.923 59.5752 38.9838C61.2221 41.0446 62.0779 43.6234 61.9944 46.2558C61.9083 48.8882 60.8884 51.4052 59.1123 53.356C57.3362 55.3068 54.9223 56.5654 52.3038 56.9062C49.6827 57.2443 47.0266 56.6459 44.8119 55.2102L44.8121 55.2128ZM34.6424 38.4548H34.5805C33.3641 38.4548 32.2661 39.1874 31.8005 40.309C31.3323 41.4306 31.5906 42.7213 32.4518 43.58C33.3129 44.4387 34.6073 44.6936 35.7322 44.2294C36.8571 43.7652 37.589 42.6704 37.589 41.4574C37.5944 40.6659 37.2823 39.9065 36.7225 39.3456C36.1682 38.7956 35.4254 38.4763 34.6424 38.4548ZM35.9906 14.6426C35.9906 10.6712 34.1364 6.92823 30.9771 4.51294C27.8178 2.09524 23.7111 1.28218 19.8656 2.30991C16.02 3.34033 12.8744 6.09346 11.3512 9.76187C9.82811 13.43 10.1026 17.5944 12.094 21.0319C14.0853 24.4693 17.5676 26.7904 21.5156 27.3056C25.4634 27.8235 29.4271 26.4818 32.242 23.6723C34.6479 21.2814 35.9959 18.0294 35.9906 14.6426Z" fill="url(#paint0_linear_163_2266)"/>
<defs>
<linearGradient id="paint0_linear_163_2266" x1="46.8326" y1="41.8594" x2="-4.45816" y2="15.1634" gradientUnits="userSpaceOnUse">
<stop stop-color="#55097B"/>
<stop offset="1" stop-color="#F00045"/>
</linearGradient>
</defs>
</svg>
