<svg width="62" height="57" viewBox="0 0 62 57" fill="none" xmlns="http://www.w3.org/2000/svg">
<path d="M60.6377 31.682C59.0669 30.0721 56.56 29.7904 54.6762 31.0105L39.9153 40.5674C38.7051 39.9679 26.4691 33.9273 24.9308 33.1659C20.2271 30.8426 14.7727 30.7166 9.97068 32.8241L0.590193 36.9341C0.232501 37.093 0 37.4498 0 37.8425V54.8283C0 55.194 0.202696 55.5328 0.524614 55.7036C0.846541 55.8745 1.24 55.8535 1.54103 55.6467L5.02851 53.2574C9.20757 50.3944 14.5135 49.8009 19.2171 51.6685L31.0776 56.3781C34.0167 57.5472 37.3879 57.0466 39.8705 55.056L60.2111 38.7602C62.4109 36.9974 62.6135 33.7029 60.6433 31.6823L60.6377 31.682ZM58.9774 37.21L38.6369 53.5058C36.7084 55.0497 34.0883 55.4454 31.7961 54.534L19.9356 49.8245C14.6895 47.741 8.69245 48.3465 3.91407 51.6201L1.96762 52.9542V38.4925L10.7582 34.6403C15.0297 32.7697 19.8793 32.8806 24.0648 34.9461L39.0966 42.3687C40.3604 42.9923 40.8314 44.5632 40.122 45.7862C39.5467 46.7755 38.3872 47.2282 37.2992 46.8834L23.5463 42.5336C23.0307 42.3687 22.4733 42.6595 22.3123 43.1811C22.1483 43.7027 22.4375 44.2603 22.9561 44.4222L36.709 48.7721C38.6972 49.4016 40.7927 48.5622 41.827 46.7815C42.6706 45.3276 42.6676 43.3969 41.5259 41.8831L55.7535 32.6707C56.8563 31.9572 58.3229 32.1221 59.2409 33.0634C60.3885 34.2416 60.2842 36.1662 58.9876 37.2064L58.9774 37.21ZM38.5026 34.1672C38.8066 34.3501 39.1941 34.3561 39.5071 34.1672C56.9388 23.7676 57.8682 13.8001 57.4569 9.99587C56.9741 5.51417 54.1453 1.89015 50.0765 0.53485C46.2552 -0.736187 42.1833 0.295025 39.0028 3.28682C35.8253 0.295025 31.7536 -0.736264 27.9321 0.531857C23.8634 1.88386 21.0346 5.50826 20.5517 9.98981C20.1404 13.794 21.0704 23.7616 38.4992 34.1612L38.5026 34.1672ZM22.5139 10.2085C22.9133 6.50915 25.2264 3.52334 28.5529 2.41738C29.4174 2.12959 30.2997 1.9887 31.182 1.9887C33.7275 1.9887 36.2552 3.16381 38.2822 5.36721C38.6547 5.77191 39.3552 5.77191 39.7278 5.36721C42.4582 2.40235 46.0947 1.29915 49.4601 2.41732C52.7866 3.52351 55.1026 6.50931 55.4991 10.2084C55.8628 13.5959 54.9685 22.4637 39.0037 32.1587C23.0417 22.4637 22.1474 13.5936 22.5114 10.2061L22.5139 10.2085Z" fill="black"/>
<path d="M60.6377 31.682C59.0669 30.0721 56.56 29.7904 54.6762 31.0105L39.9153 40.5674C38.7051 39.9679 26.4691 33.9273 24.9308 33.1659C20.2271 30.8426 14.7727 30.7166 9.97068 32.8241L0.590193 36.9341C0.232501 37.093 0 37.4498 0 37.8425V54.8283C0 55.194 0.202696 55.5328 0.524614 55.7036C0.846541 55.8745 1.24 55.8535 1.54103 55.6467L5.02851 53.2574C9.20757 50.3944 14.5135 49.8009 19.2171 51.6685L31.0776 56.3781C34.0167 57.5472 37.3879 57.0466 39.8705 55.056L60.2111 38.7602C62.4109 36.9974 62.6135 33.7029 60.6433 31.6823L60.6377 31.682ZM58.9774 37.21L38.6369 53.5058C36.7084 55.0497 34.0883 55.4454 31.7961 54.534L19.9356 49.8245C14.6895 47.741 8.69245 48.3465 3.91407 51.6201L1.96762 52.9542V38.4925L10.7582 34.6403C15.0297 32.7697 19.8793 32.8806 24.0648 34.9461L39.0966 42.3687C40.3604 42.9923 40.8314 44.5632 40.122 45.7862C39.5467 46.7755 38.3872 47.2282 37.2992 46.8834L23.5463 42.5336C23.0307 42.3687 22.4733 42.6595 22.3123 43.1811C22.1483 43.7027 22.4375 44.2603 22.9561 44.4222L36.709 48.7721C38.6972 49.4016 40.7927 48.5622 41.827 46.7815C42.6706 45.3276 42.6676 43.3969 41.5259 41.8831L55.7535 32.6707C56.8563 31.9572 58.3229 32.1221 59.2409 33.0634C60.3885 34.2416 60.2842 36.1662 58.9876 37.2064L58.9774 37.21ZM38.5026 34.1672C38.8066 34.3501 39.1941 34.3561 39.5071 34.1672C56.9388 23.7676 57.8682 13.8001 57.4569 9.99587C56.9741 5.51417 54.1453 1.89015 50.0765 0.53485C46.2552 -0.736187 42.1833 0.295025 39.0028 3.28682C35.8253 0.295025 31.7536 -0.736264 27.9321 0.531857C23.8634 1.88386 21.0346 5.50826 20.5517 9.98981C20.1404 13.794 21.0704 23.7616 38.4992 34.1612L38.5026 34.1672ZM22.5139 10.2085C22.9133 6.50915 25.2264 3.52334 28.5529 2.41738C29.4174 2.12959 30.2997 1.9887 31.182 1.9887C33.7275 1.9887 36.2552 3.16381 38.2822 5.36721C38.6547 5.77191 39.3552 5.77191 39.7278 5.36721C42.4582 2.40235 46.0947 1.29915 49.4601 2.41732C52.7866 3.52351 55.1026 6.50931 55.4991 10.2084C55.8628 13.5959 54.9685 22.4637 39.0037 32.1587C23.0417 22.4637 22.1474 13.5936 22.5114 10.2061L22.5139 10.2085Z" fill="url(#paint0_linear_163_2268)"/>
<defs>
<linearGradient id="paint0_linear_163_2268" x1="46.8326" y1="41.8594" x2="-4.45816" y2="15.1634" gradientUnits="userSpaceOnUse">
<stop stop-color="#55097B"/>
<stop offset="1" stop-color="#F00045"/>
</linearGradient>
</defs>
</svg>
