<svg width="864" height="378" viewBox="0 0 864 378" fill="none" xmlns="http://www.w3.org/2000/svg">
<g clip-path="url(#clip0_97_223)">
<path d="M81.0008 196.7L80.5853 272.738L80.0117 377.7" stroke="black" stroke-width="6"/>
<path d="M81.0008 196.7L80.5853 272.738L80.0117 377.7" stroke="url(#paint0_linear_97_223)" stroke-width="6"/>
<path d="M864 375H533.802H78" stroke="black" stroke-width="6"/>
<path d="M864 375H533.802H78" stroke="url(#paint1_linear_97_223)" stroke-width="6"/>
<path d="M180.583 146.466V85.3667C180.583 74.9171 176.432 64.8956 169.043 57.5067C161.654 50.1177 151.633 45.9667 141.183 45.9667C130.734 45.9667 120.712 50.1177 113.323 57.5067C105.934 64.8956 101.783 74.9171 101.783 85.3667V154.317C101.783 160.412 99.3618 166.258 95.0516 170.568C90.7414 174.879 84.8955 177.3 78.7999 177.3C72.7044 177.3 66.8585 174.879 62.5483 170.568C58.2381 166.258 55.8166 160.412 55.8166 154.317V123.677C66.0443 121.422 75.1971 115.746 81.7635 107.587C88.33 99.4279 91.9174 89.2733 91.9333 78.8V55.8167C91.9249 53.7867 91.2895 51.8089 90.114 50.1539C88.9386 48.4989 87.2805 47.2474 85.3666 46.5708V13.1333C85.3666 11.3917 84.6748 9.72149 83.4433 8.49C82.2118 7.25851 80.5415 6.56667 78.7999 6.56667H72.2333C72.2333 4.82508 71.5414 3.15482 70.31 1.92333C69.0785 0.691843 67.4082 0 65.6666 0H62.3833C59.7709 0 57.2655 1.03776 55.4183 2.885C53.5711 4.73223 52.5333 7.23762 52.5333 9.85C52.5333 12.4624 53.5711 14.9678 55.4183 16.815C57.2655 18.6622 59.7709 19.7 62.3833 19.7H65.6666C67.4082 19.7 69.0785 19.0082 70.31 17.7767C71.5414 16.5452 72.2333 14.8749 72.2333 13.1333H78.7999V46.5708C76.8861 47.2474 75.228 48.4989 74.0525 50.1539C72.8771 51.8089 72.2417 53.7867 72.2333 55.8167V78.8C72.2333 85.7664 69.4659 92.4474 64.54 97.3733C59.614 102.299 52.933 105.067 45.9666 105.067C39.0003 105.067 32.3193 102.299 27.3933 97.3733C22.4674 92.4474 19.7 85.7664 19.7 78.8V55.8167C19.6916 53.7867 19.0562 51.8089 17.8807 50.1539C16.7053 48.4989 15.0472 47.2474 13.1333 46.5708V13.1333H19.7C19.7 14.8749 20.3918 16.5452 21.6233 17.7767C22.8548 19.0082 24.5251 19.7 26.2666 19.7H29.55C32.1624 19.7 34.6677 18.6622 36.515 16.815C38.3622 14.9678 39.4 12.4624 39.4 9.85C39.4 7.23762 38.3622 4.73223 36.515 2.885C34.6677 1.03776 32.1624 0 29.55 0H26.2666C24.5251 0 22.8548 0.691843 21.6233 1.92333C20.3918 3.15482 19.7 4.82508 19.7 6.56667H13.1333C11.3917 6.56667 9.72148 7.25851 8.48999 8.49C7.2585 9.72149 6.56666 11.3917 6.56666 13.1333V46.5708C4.65278 47.2474 2.9947 48.4989 1.81925 50.1539C0.643808 51.8089 0.00841507 53.7867 0 55.8167V78.8C0.015891 89.2733 3.60327 99.4279 10.1697 107.587C16.7362 115.746 25.889 121.422 36.1166 123.677V154.317C36.1166 165.637 40.6136 176.494 48.6183 184.498C56.623 192.503 67.4796 197 78.7999 197C90.1203 197 100.977 192.503 108.982 184.498C116.986 176.494 121.483 165.637 121.483 154.317V85.3667C121.483 80.1419 123.559 75.1311 127.253 71.4367C130.948 67.7422 135.958 65.6667 141.183 65.6667C146.408 65.6667 151.419 67.7422 155.113 71.4367C158.808 75.1311 160.883 80.1419 160.883 85.3667V146.466C156.026 148.394 151.862 151.74 148.934 156.069C146.005 160.397 144.449 165.507 144.467 170.733C144.467 177.7 147.234 184.381 152.16 189.307C157.086 194.233 163.767 197 170.733 197C177.7 197 184.381 194.233 189.307 189.307C194.232 184.381 197 177.7 197 170.733C197.018 165.507 195.461 160.397 192.533 156.069C189.604 151.74 185.44 148.394 180.583 146.466ZM65.6666 13.1333H62.3833C61.5125 13.1333 60.6774 12.7874 60.0616 12.1717C59.4459 11.5559 59.1 10.7208 59.1 9.85C59.1 8.97921 59.4459 8.14408 60.0616 7.52833C60.6774 6.91259 61.5125 6.56667 62.3833 6.56667H65.6666V13.1333ZM26.2666 6.56667H29.55C30.4208 6.56667 31.2559 6.91259 31.8716 7.52833C32.4874 8.14408 32.8333 8.97921 32.8333 9.85C32.8333 10.7208 32.4874 11.5559 31.8716 12.1717C31.2559 12.7874 30.4208 13.1333 29.55 13.1333H26.2666V6.56667ZM170.733 164.167C172.032 164.167 173.302 164.552 174.381 165.273C175.461 165.995 176.303 167.02 176.8 168.22C177.297 169.42 177.427 170.741 177.174 172.014C176.92 173.288 176.295 174.458 175.377 175.377C174.458 176.295 173.288 176.92 172.014 177.174C170.741 177.427 169.42 177.297 168.22 176.8C167.02 176.303 165.995 175.461 165.273 174.382C164.552 173.302 164.167 172.032 164.167 170.733C164.167 168.992 164.858 167.321 166.09 166.09C167.321 164.859 168.992 164.167 170.733 164.167ZM6.56666 78.8V55.8167C6.56666 54.9459 6.91258 54.1107 7.52833 53.495C8.14407 52.8792 8.9792 52.5333 9.84999 52.5333C10.7208 52.5333 11.5559 52.8792 12.1717 53.495C12.7874 54.1107 13.1333 54.9459 13.1333 55.8167V78.8C13.1333 87.5079 16.5925 95.8592 22.75 102.017C28.9074 108.174 37.2587 111.633 45.9666 111.633C54.6746 111.633 63.0258 108.174 69.1833 102.017C75.3407 95.8592 78.7999 87.5079 78.7999 78.8V55.8167C78.7999 54.9459 79.1459 54.1107 79.7616 53.495C80.3773 52.8792 81.2125 52.5333 82.0833 52.5333C82.9541 52.5333 83.7892 52.8792 84.4049 53.495C85.0207 54.1107 85.3666 54.9459 85.3666 55.8167V78.8C85.3666 89.2495 81.2156 99.2711 73.8266 106.66C66.4377 114.049 56.4162 118.2 45.9666 118.2C35.5171 118.2 25.4956 114.049 18.1066 106.66C10.7177 99.2711 6.56666 89.2495 6.56666 78.8ZM141.183 59.1C134.219 59.1078 127.543 61.8777 122.619 66.802C117.694 71.7262 114.924 78.4027 114.917 85.3667V154.317C114.917 163.895 111.111 173.082 104.338 179.855C97.5651 186.628 88.3787 190.433 78.7999 190.433C69.2212 190.433 60.0348 186.628 53.2616 179.855C46.4884 173.082 42.6833 163.895 42.6833 154.317V124.599C43.7734 124.678 44.8569 124.767 45.9666 124.767C47.0764 124.767 48.1599 124.678 49.25 124.599V154.317C49.25 162.154 52.3633 169.67 57.905 175.212C63.4466 180.753 70.9628 183.867 78.7999 183.867C86.6371 183.867 94.1532 180.753 99.6949 175.212C105.237 169.67 108.35 162.154 108.35 154.317V85.3667C108.35 76.6587 111.809 68.3074 117.967 62.15C124.124 55.9925 132.475 52.5333 141.183 52.5333C149.891 52.5333 158.242 55.9925 164.4 62.15C170.557 68.3074 174.017 76.6587 174.017 85.3667V158.066C171.872 157.445 169.595 157.445 167.45 158.066V85.3667C167.442 78.4027 164.672 71.7262 159.748 66.802C154.824 61.8777 148.147 59.1078 141.183 59.1ZM170.733 190.433C165.51 190.428 160.502 188.351 156.809 184.658C153.116 180.964 151.038 175.956 151.033 170.733C151.023 167.28 151.929 163.885 153.659 160.897C155.39 157.908 157.883 155.432 160.883 153.722V162.138C158.778 164.507 157.611 167.564 157.6 170.733C157.6 174.217 158.984 177.557 161.447 180.02C163.91 182.483 167.25 183.867 170.733 183.867C174.216 183.867 177.557 182.483 180.02 180.02C182.483 177.557 183.867 174.217 183.867 170.733C183.856 167.564 182.688 164.507 180.583 162.138V153.722C183.584 155.432 186.077 157.908 187.807 160.897C189.538 163.885 190.444 167.28 190.433 170.733C190.428 175.956 188.351 180.964 184.657 184.658C180.964 188.351 175.956 190.428 170.733 190.433Z" fill="url(#paint2_linear_97_223)"/>
</g>
<defs>
<linearGradient id="paint0_linear_97_223" x1="1.13322e+14" y1="311.929" x2="1.13322e+14" y2="427.131" gradientUnits="userSpaceOnUse">
<stop stop-color="#55097B"/>
<stop offset="1" stop-color="#E5004B"/>
</linearGradient>
<linearGradient id="paint1_linear_97_223" x1="-nan" y1="-nan" x2="-nan" y2="-nan" gradientUnits="userSpaceOnUse">
<stop stop-color="#55097B"/>
<stop offset="1" stop-color="#E5004B"/>
</linearGradient>
<linearGradient id="paint2_linear_97_223" x1="148.773" y1="197" x2="48.2269" y2="-1.29805e-06" gradientUnits="userSpaceOnUse">
<stop stop-color="#55097B"/>
<stop offset="0.859681" stop-color="#F00045"/>
</linearGradient>
<clipPath id="clip0_97_223">
<rect width="864" height="378" fill="white"/>
</clipPath>
</defs>
</svg>
