<svg width="21" height="21" viewBox="0 0 21 21" fill="none" xmlns="http://www.w3.org/2000/svg">
<path d="M10.3402 20.6411H10.2948C4.61832 20.6411 0 16.0214 0 10.3433V10.2978C0 4.61968 4.61832 0 10.2948 0H10.3402C16.0167 0 20.635 4.61968 20.635 10.2978V10.3433C20.635 16.0214 16.0167 20.6411 10.3402 20.6411ZM10.2948 0.698679C5.00318 0.698679 0.698474 5.00465 0.698474 10.2978V10.3433C0.698474 15.6364 5.00318 19.9424 10.2948 19.9424H10.3402C15.6318 19.9424 19.9365 15.6364 19.9365 10.3433V10.2978C19.9365 5.00465 15.6318 0.698679 10.3402 0.698679H10.2948Z" fill="white"/>
<path d="M11.6667 11.475H13.3333L14 8.875H11.6667V7.575C11.6667 6.9055 11.6667 6.275 13 6.275H14V4.091C13.7827 4.06305 12.962 4 12.0953 4C10.2853 4 9 5.07705 9 7.055V8.875H7V11.475H9V17H11.6667V11.475Z" fill="white"/>
</svg>
