<svg width="60" height="83" viewBox="0 0 60 83" fill="none" xmlns="http://www.w3.org/2000/svg">
<path fill-rule="evenodd" clip-rule="evenodd" d="M43.2219 49.1377C43.0188 49.376 42.9172 49.6846 42.9368 49.9932L43.1008 52.8955L40.4797 51.8096C40.1829 51.6846 39.843 51.6846 39.5461 51.8096L36.925 52.8955L37.0891 49.9932C37.1086 49.6807 37.0032 49.376 36.8039 49.1377L35.0539 47.0635L37.8078 46.3526C38.1125 46.2745 38.3703 46.0831 38.5383 45.8214L40.0149 43.4698L41.4954 45.8214C41.6595 46.0831 41.9212 46.2745 42.222 46.3526L44.9759 47.0635L43.2219 49.1377ZM43.3001 44.1143L41.0462 40.5285C40.5696 39.7667 39.4564 39.7706 38.9798 40.5285L36.7259 44.1143L32.5618 45.1885C31.6946 45.4112 31.3548 46.4737 31.9328 47.1573L34.6203 50.3448L34.3743 54.7003C34.3235 55.6027 35.2375 56.2395 36.0618 55.8957L40.011 54.2628L43.9602 55.8957C44.7883 56.2394 45.6946 55.5949 45.6438 54.7003L45.3977 50.3448L48.0891 47.1573C48.6633 46.4738 48.3352 45.4151 47.4602 45.1885L43.3001 44.1143ZM40.011 59.3413C45.9016 59.3413 50.695 54.5483 50.695 48.6573C50.695 42.7667 45.902 37.9773 40.011 37.9773C34.12 37.9773 29.331 42.7703 29.331 48.6573C29.331 54.5518 34.124 59.3413 40.011 59.3413ZM40.011 35.5364C32.7766 35.5364 26.886 41.423 26.886 48.6573C26.886 55.8917 32.7727 61.7823 40.011 61.7823C47.2454 61.7823 53.136 55.8956 53.136 48.6573C53.136 41.423 47.2493 35.5364 40.011 35.5364ZM53.39 59.9383C54.722 58.3602 55.7728 56.54 56.472 54.6063L55.1322 53.1219C54.8665 52.8251 54.7611 52.4227 54.8509 52.036C55.3509 49.8251 55.3509 47.493 54.8509 45.286C54.765 44.8993 54.8704 44.4931 55.1322 44.2001L56.472 42.7157C55.7727 40.7821 54.7181 38.9618 53.3861 37.3838L51.4291 37.7978C51.0423 37.8798 50.6361 37.7705 50.3471 37.497C48.683 35.954 46.6596 34.7861 44.5073 34.122C44.1283 34.0048 43.8315 33.7119 43.7065 33.333L43.0893 31.4346C41.062 31.0752 38.9565 31.0752 36.9291 31.4346L36.3119 33.333C36.1908 33.7119 35.89 34.0048 35.5111 34.122C33.3549 34.79 31.3392 35.954 29.6713 37.497C29.3783 37.7666 28.976 37.8798 28.5854 37.7978L26.6284 37.3838C25.3003 38.9618 24.2456 40.7821 23.5464 42.7157L24.8823 44.2001C25.1479 44.4931 25.2534 44.8994 25.1636 45.286C24.6636 47.493 24.6636 49.829 25.1636 52.036C25.2534 52.4228 25.144 52.829 24.8823 53.1219L23.5464 54.6063C24.2456 56.54 25.3003 58.3602 26.6284 59.9383L28.5854 59.5243C28.9721 59.4423 29.3784 59.5516 29.6713 59.8212C31.3354 61.3642 33.3549 62.5321 35.5111 63.1962C35.89 63.3134 36.1908 63.6102 36.3119 63.9852L36.9291 65.8836C38.9564 66.243 41.0619 66.243 43.0893 65.8836L43.7065 63.9852C43.8276 63.6063 44.1284 63.3134 44.5073 63.1962C46.6635 62.5321 48.6831 61.3642 50.3471 59.8212C50.6361 59.5516 51.0424 59.4384 51.4291 59.5243L53.39 59.9383ZM46.5541 77.4073L40.8744 71.7276C40.3978 71.2511 39.6244 71.2511 39.1478 71.7276L33.4681 77.4073L33.472 65.0633C33.7102 65.1571 33.9485 65.2469 34.1868 65.3329L34.8352 67.3251C34.9681 67.7391 35.3118 68.0477 35.7337 68.1415C38.5462 68.7548 41.4837 68.7548 44.2923 68.1415C44.7142 68.0477 45.0579 67.7392 45.1907 67.3251L45.8392 65.3329C46.0774 65.2508 46.3157 65.161 46.554 65.0633L46.5541 77.4073ZM5.14006 67.8253H31.0271V63.8566C30.1325 63.3253 29.281 62.7198 28.4919 62.0401L26.4411 62.4776C26.0192 62.5675 25.5778 62.4269 25.2849 62.1066C23.3474 59.9855 21.863 57.4191 20.9958 54.6925C20.8668 54.2784 20.9645 53.8292 21.2536 53.505L22.6559 51.9464C22.2496 49.7823 22.2496 47.5362 22.6559 45.3722L21.2536 43.8136C20.9645 43.4893 20.8668 43.0401 20.9958 42.6261C21.8629 39.8995 23.3435 37.3331 25.2849 35.212C25.5739 34.8917 26.0192 34.751 26.4411 34.8409L28.4919 35.2745C30.1638 33.837 32.1091 32.712 34.1833 31.9854L34.8317 29.9932C34.9645 29.5791 35.3083 29.2705 35.7301 29.1768C36.1325 29.0869 36.5387 29.0127 36.9528 28.9502C33.2301 25.1064 28.1755 22.9424 22.7808 22.9424C11.8668 22.9424 2.98784 31.8213 2.98784 42.7394V65.6654C2.98393 66.8607 3.9526 67.8253 5.14006 67.8253ZM14.2495 11.9773C14.2495 7.27425 18.0776 3.44615 22.7807 3.44615C27.4838 3.44615 31.3119 7.27425 31.3119 11.9773C31.3119 16.6804 27.4838 20.5085 22.7807 20.5085C18.0776 20.5085 14.2495 16.6804 14.2495 11.9773ZM58.7655 53.5043L57.3632 51.9457C57.7694 49.7816 57.7694 47.5355 57.3632 45.3715L58.7655 43.813C59.0545 43.4926 59.1522 43.0395 59.0233 42.6293C58.1561 39.8988 56.6756 37.3363 54.7342 35.2152C54.4412 34.8949 54.0037 34.7543 53.578 34.8442L51.5272 35.2777C49.8553 33.8402 47.91 32.7152 45.8358 31.9886L45.1873 29.9964C45.0545 29.5824 44.7108 29.2738 44.2889 29.18C42.8866 28.8714 41.4451 28.7191 39.9998 28.7191C37.0037 25.0394 33.0232 22.473 28.5858 21.2738C31.6835 19.3324 33.746 15.891 33.746 11.973C33.746 5.9222 28.8241 1 22.773 1C16.7222 1 11.8 5.9219 11.8 11.973C11.8 15.891 13.8664 19.3363 16.9641 21.2777C7.51099 23.8363 0.538086 32.4927 0.538086 42.7427V65.6687C0.538086 68.2039 2.60059 70.2664 5.13579 70.2664H31.0228V80.3524C31.0228 81.4344 32.3431 81.9813 33.1087 81.2157L40.0071 74.3173L46.9055 81.2157C47.675 81.9852 48.9914 81.4383 48.9914 80.3524L48.9953 63.8564C49.8898 63.3251 50.7414 62.7197 51.5305 62.04L53.5813 62.4775C54.0071 62.5673 54.4446 62.4267 54.7375 62.1064C56.6789 59.9814 58.1594 57.4189 59.0266 54.6923C59.1516 54.2783 59.0545 53.8286 58.7655 53.5043Z" fill="white" stroke="#55097B"/>
</svg>
