<svg width="23" height="23" viewBox="0 0 23 23" fill="none" xmlns="http://www.w3.org/2000/svg">
<path d="M21.9062 11.5006H8.00688M3.10075 11.5006H1.09375M3.10075 11.5006C3.10075 10.8502 3.35914 10.2264 3.81907 9.76643C4.279 9.3065 4.90281 9.04811 5.55325 9.04811C6.20369 9.04811 6.8275 9.3065 7.28743 9.76643C7.74736 10.2264 8.00575 10.8502 8.00575 11.5006C8.00575 12.1511 7.74736 12.7749 7.28743 13.2348C6.8275 13.6947 6.20369 13.9531 5.55325 13.9531C4.90281 13.9531 4.279 13.6947 3.81907 13.2348C3.35914 12.7749 3.10075 12.1511 3.10075 11.5006ZM21.9062 18.9335H15.4397M15.4397 18.9335C15.4397 19.5841 15.1807 20.2086 14.7207 20.6686C14.2607 21.1287 13.6367 21.3871 12.9861 21.3871C12.3357 21.3871 11.7119 21.1276 11.2519 20.6677C10.792 20.2077 10.5336 19.5839 10.5336 18.9335M15.4397 18.9335C15.4397 18.2829 15.1807 17.6595 14.7207 17.1995C14.2607 16.7394 13.6367 16.481 12.9861 16.481C12.3357 16.481 11.7119 16.7394 11.2519 17.1993C10.792 17.6592 10.5336 18.283 10.5336 18.9335M10.5336 18.9335H1.09375M21.9062 4.06773H18.4131M13.507 4.06773H1.09375M13.507 4.06773C13.507 3.41729 13.7654 2.79349 14.2253 2.33355C14.6853 1.87362 15.3091 1.61523 15.9595 1.61523C16.2816 1.61523 16.6005 1.67867 16.898 1.80192C17.1956 1.92517 17.4659 2.10582 17.6937 2.33355C17.9214 2.56129 18.1021 2.83165 18.2253 3.1292C18.3486 3.42675 18.412 3.74567 18.412 4.06773C18.412 4.3898 18.3486 4.70871 18.2253 5.00627C18.1021 5.30382 17.9214 5.57418 17.6937 5.80191C17.4659 6.02965 17.1956 6.2103 16.898 6.33355C16.6005 6.4568 16.2816 6.52023 15.9595 6.52023C15.3091 6.52023 14.6853 6.26185 14.2253 5.80191C13.7654 5.34198 13.507 4.71818 13.507 4.06773Z" stroke="black" stroke-width="1.5" stroke-miterlimit="10" stroke-linecap="round"/>
</svg>
