<svg width="604" height="880" viewBox="0 0 604 880" fill="none" xmlns="http://www.w3.org/2000/svg">
<path d="M-145.027 0.29016H-150.809C-151.034 0.29016 -151.195 0.346451 -151.292 0.459032C-151.388 0.571613 -151.468 0.8209 -151.549 1.19885L-160.732 35.4798C-161.038 36.5413 -161.279 37.2007 -161.472 37.466C-161.657 37.7314 -161.979 37.8601 -162.437 37.8601C-163 37.8601 -163.402 37.7153 -163.627 37.4339C-163.852 37.1524 -164.102 36.5011 -164.367 35.4798L-173.245 1.19885C-173.317 0.8209 -173.406 0.571613 -173.502 0.459032C-173.599 0.346451 -173.76 0.29016 -173.985 0.29016H-179.767C-180.37 0.29016 -180.595 0.595738 -180.45 1.19885L-171.041 37.2409C-170.326 40.2243 -169.473 42.0979 -168.492 42.8538C-167.624 43.5695 -165.605 43.9314 -162.429 43.9314C-159.446 43.9314 -157.516 43.5695 -156.647 42.8538C-155.779 42.1382 -154.91 40.2645 -154.042 37.2409L-144.344 1.19885C-144.191 0.595738 -144.416 0.29016 -145.027 0.29016Z" fill="url(#paint0_linear_0_1)"/>
<path d="M154.328 77.622H148.547C148.321 77.622 148.161 77.6783 148.064 77.7909C147.968 77.9035 147.887 78.1528 147.807 78.5307L138.623 112.812C138.318 113.873 138.077 114.533 137.884 114.798C137.699 115.063 137.377 115.192 136.919 115.192C136.356 115.192 135.954 115.047 135.728 114.766C135.503 114.484 135.254 113.833 134.989 112.812L126.111 78.5307C126.038 78.1528 125.95 77.9035 125.853 77.7909C125.757 77.6783 125.596 77.622 125.371 77.622H119.589C118.986 77.622 118.761 77.9276 118.906 78.5307L128.314 114.573C129.03 117.556 129.882 119.43 130.863 120.186C131.732 120.901 133.75 121.263 136.927 121.263C139.91 121.263 141.84 120.901 142.708 120.186C143.577 119.47 144.445 117.596 145.314 114.573L155.012 78.5307C155.165 77.9276 154.94 77.622 154.328 77.622Z" fill="url(#paint1_linear_0_1)"/>
<path d="M154.328 0H148.547C148.321 0 148.161 0.0562905 148.064 0.168872C147.968 0.281453 147.887 0.530739 147.807 0.90869L138.623 35.1896C138.318 36.2511 138.077 36.9105 137.884 37.1759C137.699 37.4412 137.377 37.5699 136.919 37.5699C136.356 37.5699 135.954 37.4252 135.728 37.1437C135.503 36.8623 135.254 36.2109 134.989 35.1896L126.111 0.90869C126.038 0.530739 125.95 0.281453 125.853 0.168872C125.757 0.0562905 125.596 0 125.371 0H119.589C118.986 0 118.761 0.305577 118.906 0.90869L128.314 36.9507C129.03 39.9341 129.882 41.8078 130.863 42.5637C131.732 43.2794 133.75 43.6413 136.927 43.6413C139.91 43.6413 141.84 43.2794 142.708 42.5637C143.577 41.848 144.445 39.9743 145.314 36.9507L155.012 0.90869C155.165 0.305577 154.94 0 154.328 0Z" fill="url(#paint2_linear_0_1)"/>
<path d="M4.76184 155.244H-1.01999C-1.24515 155.244 -1.40599 155.3 -1.50249 155.413C-1.59898 155.526 -1.6794 155.775 -1.75981 156.153L-10.9432 190.434C-11.2488 191.495 -11.49 192.155 -11.683 192.42C-11.868 192.685 -12.1897 192.814 -12.648 192.814C-13.2109 192.814 -13.613 192.669 -13.8382 192.388C-14.0633 192.106 -14.3126 191.455 -14.578 190.434L-23.4558 156.153C-23.5282 155.775 -23.6166 155.526 -23.7131 155.413C-23.8096 155.3 -23.9705 155.244 -24.1956 155.244H-29.9774C-30.5806 155.244 -30.8057 155.55 -30.661 156.153L-21.2524 192.195C-20.5367 195.178 -19.6843 197.052 -18.7033 197.808C-17.8348 198.523 -15.8164 198.885 -12.64 198.885C-9.65657 198.885 -7.72661 198.523 -6.85812 197.808C-5.98964 197.092 -5.12117 195.218 -4.25269 192.195L5.44537 156.153C5.59814 155.55 5.37299 155.244 4.76184 155.244Z" fill="url(#paint3_linear_0_1)"/>
<path d="M-219.855 42.7326L-229.545 6.69053C-230.414 3.66693 -231.282 1.8013 -232.151 1.07756C-233.019 0.361868 -234.949 0 -237.933 0C-241.109 0 -243.128 0.361868 -243.996 1.07756C-244.977 1.83346 -245.829 3.69909 -246.545 6.69053L-255.954 42.7326C-256.107 43.3357 -255.881 43.6412 -255.27 43.6412H-249.488C-249.263 43.6412 -249.102 43.5849 -249.006 43.4724C-248.909 43.3598 -248.829 43.1105 -248.749 42.7326L-239.855 8.45162C-239.589 7.43035 -239.348 6.77899 -239.115 6.49753C-238.89 6.21608 -238.488 6.07134 -237.925 6.07134C-237.474 6.07134 -237.153 6.2 -236.96 6.46537C-236.767 6.73074 -236.525 7.39014 -236.22 8.45162L-227.036 42.7326C-226.964 43.1105 -226.876 43.3598 -226.779 43.4724C-226.683 43.5849 -226.522 43.6412 -226.297 43.6412H-220.515C-219.912 43.6412 -219.687 43.3357 -219.831 42.7326H-219.855Z" fill="url(#paint4_linear_0_1)"/>
<path d="M-219.855 197.977L-229.545 161.935C-230.414 158.911 -231.282 157.045 -232.151 156.322C-233.019 155.606 -234.949 155.244 -237.933 155.244C-241.109 155.244 -243.128 155.606 -243.996 156.322C-244.977 157.078 -245.829 158.943 -246.545 161.935L-255.954 197.977C-256.107 198.58 -255.881 198.885 -255.27 198.885H-249.488C-249.263 198.885 -249.102 198.829 -249.006 198.716C-248.909 198.604 -248.829 198.355 -248.749 197.977L-239.855 163.696C-239.589 162.674 -239.348 162.023 -239.115 161.742C-238.89 161.46 -238.488 161.315 -237.925 161.315C-237.474 161.315 -237.153 161.444 -236.96 161.709C-236.767 161.975 -236.525 162.634 -236.22 163.696L-227.036 197.977C-226.964 198.355 -226.876 198.604 -226.779 198.716C-226.683 198.829 -226.522 198.885 -226.297 198.885H-220.515C-219.912 198.885 -219.687 198.58 -219.831 197.977H-219.855Z" fill="url(#paint5_linear_0_1)"/>
<path d="M-68.3945 42.7326L-78.0845 6.69053C-78.953 3.66693 -79.8215 1.8013 -80.6899 1.07756C-81.5584 0.361868 -83.4884 0 -86.4718 0C-89.6482 0 -91.6666 0.361868 -92.5351 1.07756C-93.5161 1.83346 -94.3685 3.69909 -95.0842 6.69053L-104.493 42.7326C-104.646 43.3357 -104.42 43.6412 -103.809 43.6412H-98.0274C-97.8023 43.6412 -97.6414 43.5849 -97.5449 43.4724C-97.4484 43.3598 -97.368 43.1105 -97.2876 42.7326L-88.3937 8.45162C-88.1283 7.43035 -87.8871 6.77899 -87.6539 6.49753C-87.4287 6.21608 -87.0266 6.07134 -86.4637 6.07134C-86.0134 6.07134 -85.6918 6.2 -85.4988 6.46537C-85.3058 6.73074 -85.0645 7.39014 -84.7589 8.45162L-75.5755 42.7326C-75.5032 43.1105 -75.4147 43.3598 -75.3182 43.4724C-75.2217 43.5849 -75.0609 43.6412 -74.8357 43.6412H-69.0539C-68.4508 43.6412 -68.2256 43.3357 -68.3704 42.7326H-68.3945Z" fill="url(#paint6_linear_0_1)"/>
<path d="M-68.3945 120.355L-78.0845 84.3126C-78.953 81.289 -79.8215 79.4233 -80.6899 78.6996C-81.5584 77.9839 -83.4884 77.622 -86.4718 77.622C-89.6482 77.622 -91.6666 77.9839 -92.5351 78.6996C-93.5161 79.4555 -94.3685 81.3211 -95.0842 84.3126L-104.493 120.355C-104.646 120.958 -104.42 121.263 -103.809 121.263H-98.0274C-97.8023 121.263 -97.6414 121.207 -97.5449 121.094C-97.4484 120.982 -97.368 120.733 -97.2876 120.355L-88.3937 86.0737C-88.1283 85.0524 -87.8871 84.401 -87.6539 84.1196C-87.4287 83.8381 -87.0266 83.6934 -86.4637 83.6934C-86.0134 83.6934 -85.6918 83.822 -85.4988 84.0874C-85.3058 84.3528 -85.0645 85.0122 -84.7589 86.0737L-75.5755 120.355C-75.5032 120.733 -75.4147 120.982 -75.3182 121.094C-75.2217 121.207 -75.0609 121.263 -74.8357 121.263H-69.0539C-68.4508 121.263 -68.2256 120.958 -68.3704 120.355H-68.3945Z" fill="url(#paint7_linear_0_1)"/>
<path d="M-68.3945 197.977L-78.0845 161.935C-78.953 158.911 -79.8215 157.045 -80.6899 156.322C-81.5584 155.606 -83.4884 155.244 -86.4718 155.244C-89.6482 155.244 -91.6666 155.606 -92.5351 156.322C-93.5161 157.078 -94.3685 158.943 -95.0842 161.935L-104.493 197.977C-104.646 198.58 -104.42 198.885 -103.809 198.885H-98.0274C-97.8023 198.885 -97.6414 198.829 -97.5449 198.716C-97.4484 198.604 -97.368 198.355 -97.2876 197.977L-88.3937 163.696C-88.1283 162.674 -87.8871 162.023 -87.6539 161.742C-87.4287 161.46 -87.0266 161.315 -86.4637 161.315C-86.0134 161.315 -85.6918 161.444 -85.4988 161.709C-85.3058 161.975 -85.0645 162.634 -84.7589 163.696L-75.5755 197.977C-75.5032 198.355 -75.4147 198.604 -75.3182 198.716C-75.2217 198.829 -75.0609 198.885 -74.8357 198.885H-69.0539C-68.4508 198.885 -68.2256 198.58 -68.3704 197.977H-68.3945Z" fill="url(#paint8_linear_0_1)"/>
<path d="M79.2792 197.977L69.5892 161.935C68.7207 158.911 67.8522 157.045 66.9837 156.322C66.1153 155.606 64.1853 155.244 61.2019 155.244C58.0255 155.244 56.0071 155.606 55.1386 156.322C54.1575 157.078 53.3051 158.943 52.5894 161.935L43.1809 197.977C43.0281 198.58 43.2533 198.885 43.8644 198.885H49.6462C49.8714 198.885 50.0323 198.829 50.1288 198.716C50.2253 198.604 50.3057 198.355 50.3861 197.977L59.28 163.696C59.5453 162.674 59.7866 162.023 60.0198 161.742C60.2449 161.46 60.647 161.315 61.2099 161.315C61.6602 161.315 61.9819 161.444 62.1749 161.709C62.3679 161.975 62.6092 162.634 62.9147 163.696L72.0981 197.977C72.1705 198.355 72.259 198.604 72.3555 198.716C72.452 198.829 72.6128 198.885 72.838 198.885H78.6198C79.2229 198.885 79.4481 198.58 79.3033 197.977H79.2792Z" fill="url(#paint9_linear_0_1)"/>
<path d="M79.2792 120.355L69.5892 84.3126C68.7207 81.289 67.8522 79.4233 66.9837 78.6996C66.1153 77.9839 64.1853 77.622 61.2019 77.622C58.0255 77.622 56.0071 77.9839 55.1386 78.6996C54.1575 79.4555 53.3051 81.3211 52.5894 84.3126L43.1809 120.355C43.0281 120.958 43.2533 121.263 43.8644 121.263H49.6462C49.8714 121.263 50.0323 121.207 50.1288 121.094C50.2253 120.982 50.3057 120.733 50.3861 120.355L59.28 86.0737C59.5453 85.0524 59.7866 84.401 60.0198 84.1196C60.2449 83.8381 60.647 83.6934 61.2099 83.6934C61.6602 83.6934 61.9819 83.822 62.1749 84.0874C62.3679 84.3528 62.6092 85.0122 62.9147 86.0737L72.0981 120.355C72.1705 120.733 72.259 120.982 72.3555 121.094C72.452 121.207 72.6128 121.263 72.838 121.263H78.6198C79.2229 121.263 79.4481 120.958 79.3033 120.355H79.2792Z" fill="url(#paint10_linear_0_1)"/>
<path d="M303.916 0.29016H298.134C297.909 0.29016 297.748 0.346451 297.651 0.459032C297.555 0.571613 297.475 0.8209 297.394 1.19885L288.211 35.4798C287.905 36.5413 287.664 37.2007 287.471 37.466C287.286 37.7314 286.964 37.8601 286.506 37.8601C285.943 37.8601 285.541 37.7153 285.316 37.4339C285.091 37.1524 284.841 36.5011 284.576 35.4798L275.698 1.19885C275.626 0.8209 275.537 0.571613 275.441 0.459032C275.344 0.346451 275.184 0.29016 274.958 0.29016H269.177C268.573 0.29016 268.348 0.595738 268.493 1.19885L277.902 37.2409C278.617 40.2243 279.47 42.0979 280.451 42.8538C281.319 43.5695 283.338 43.9314 286.514 43.9314C289.497 43.9314 291.427 43.5695 292.296 42.8538C293.164 42.1382 294.033 40.2645 294.901 37.2409L304.599 1.19885C304.752 0.595738 304.527 0.29016 303.916 0.29016Z" fill="url(#paint11_linear_0_1)"/>
<path d="M303.916 77.6663H298.134C297.909 77.6663 297.748 77.7225 297.651 77.8351C297.555 77.9477 297.475 78.197 297.394 78.575L288.211 112.856C287.905 113.917 287.664 114.577 287.471 114.842C287.286 115.108 286.964 115.236 286.506 115.236C285.943 115.236 285.541 115.091 285.316 114.81C285.091 114.529 284.841 113.877 284.576 112.856L275.698 78.575C275.626 78.197 275.537 77.9477 275.441 77.8351C275.344 77.7225 275.184 77.6663 274.958 77.6663H269.177C268.573 77.6663 268.348 77.9718 268.493 78.575L277.902 114.617C278.617 117.6 279.47 119.474 280.451 120.23C281.319 120.946 283.338 121.308 286.514 121.308C289.497 121.308 291.427 120.946 292.296 120.23C293.164 119.514 294.033 117.641 294.901 114.617L304.599 78.575C304.752 77.9718 304.527 77.6663 303.916 77.6663Z" fill="url(#paint12_linear_0_1)"/>
<path d="M303.916 155.33H298.134C297.909 155.33 297.748 155.386 297.651 155.499C297.555 155.611 297.475 155.861 297.394 156.238L288.211 190.519C287.905 191.581 287.664 192.24 287.471 192.506C287.286 192.771 286.964 192.9 286.506 192.9C285.943 192.9 285.541 192.755 285.316 192.473C285.091 192.192 284.841 191.541 284.576 190.519L275.698 156.238C275.626 155.861 275.537 155.611 275.441 155.499C275.344 155.386 275.184 155.33 274.958 155.33H269.177C268.573 155.33 268.348 155.635 268.493 156.238L277.902 192.28C278.617 195.264 279.47 197.138 280.451 197.893C281.319 198.609 283.338 198.971 286.514 198.971C289.497 198.971 291.427 198.609 292.296 197.893C293.164 197.178 294.033 195.304 294.901 192.28L304.599 156.238C304.752 155.635 304.527 155.33 303.916 155.33Z" fill="url(#paint13_linear_0_1)"/>
<path d="M603.27 77.622H597.488C597.263 77.622 597.102 77.6783 597.006 77.7909C596.909 77.9035 596.829 78.1528 596.749 78.5307L587.565 112.812C587.26 113.873 587.018 114.533 586.825 114.798C586.64 115.063 586.319 115.192 585.86 115.192C585.297 115.192 584.895 115.047 584.67 114.766C584.445 114.484 584.196 113.833 583.93 112.812L575.053 78.5307C574.98 78.1528 574.892 77.9035 574.795 77.7909C574.699 77.6783 574.538 77.622 574.313 77.622H568.531C567.928 77.622 567.703 77.9276 567.847 78.5307L577.256 114.573C577.972 117.556 578.824 119.43 579.805 120.186C580.674 120.901 582.692 121.263 585.868 121.263C588.852 121.263 590.782 120.901 591.65 120.186C592.519 119.47 593.387 117.596 594.256 114.573L603.954 78.5307C604.106 77.9276 603.881 77.622 603.27 77.622Z" fill="url(#paint14_linear_0_1)"/>
<path d="M603.27 0H597.488C597.263 0 597.102 0.0562905 597.006 0.168872C596.909 0.281453 596.829 0.530739 596.749 0.90869L587.565 35.1896C587.26 36.2511 587.018 36.9105 586.825 37.1759C586.64 37.4412 586.319 37.5699 585.86 37.5699C585.297 37.5699 584.895 37.4252 584.67 37.1437C584.445 36.8623 584.196 36.2109 583.93 35.1896L575.053 0.90869C574.98 0.530739 574.892 0.281453 574.795 0.168872C574.699 0.0562905 574.538 0 574.313 0H568.531C567.928 0 567.703 0.305577 567.847 0.90869L577.256 36.9507C577.972 39.9341 578.824 41.8078 579.805 42.5637C580.674 43.2794 582.692 43.6413 585.868 43.6413C588.852 43.6413 590.782 43.2794 591.65 42.5637C592.519 41.848 593.387 39.9743 594.256 36.9507L603.954 0.90869C604.106 0.305577 603.881 0 603.27 0Z" fill="url(#paint15_linear_0_1)"/>
<path d="M453.705 155.244H447.923C447.698 155.244 447.537 155.3 447.441 155.413C447.344 155.526 447.264 155.775 447.183 156.153L438 190.434C437.694 191.495 437.453 192.155 437.26 192.42C437.075 192.685 436.753 192.814 436.295 192.814C435.732 192.814 435.33 192.669 435.105 192.388C434.88 192.106 434.63 191.455 434.365 190.434L425.487 156.153C425.415 155.775 425.326 155.526 425.23 155.413C425.133 155.3 424.973 155.244 424.747 155.244H418.966C418.362 155.244 418.137 155.55 418.282 156.153L427.691 192.195C428.406 195.178 429.259 197.052 430.24 197.808C431.108 198.523 433.127 198.885 436.303 198.885C439.286 198.885 441.216 198.523 442.085 197.808C442.953 197.092 443.822 195.218 444.69 192.195L454.388 156.153C454.541 155.55 454.316 155.244 453.705 155.244Z" fill="url(#paint16_linear_0_1)"/>
<path d="M453.705 77.6663H447.923C447.698 77.6663 447.537 77.7225 447.441 77.8351C447.344 77.9477 447.264 78.197 447.183 78.575L438 112.856C437.694 113.917 437.453 114.577 437.26 114.842C437.075 115.108 436.753 115.236 436.295 115.236C435.732 115.236 435.33 115.091 435.105 114.81C434.88 114.529 434.63 113.877 434.365 112.856L425.487 78.575C425.415 78.197 425.326 77.9477 425.23 77.8351C425.133 77.7225 424.973 77.6663 424.747 77.6663H418.966C418.362 77.6663 418.137 77.9718 418.282 78.575L427.691 114.617C428.406 117.6 429.259 119.474 430.24 120.23C431.108 120.946 433.127 121.308 436.303 121.308C439.286 121.308 441.216 120.946 442.085 120.23C442.953 119.514 443.822 117.641 444.69 114.617L454.388 78.575C454.541 77.9718 454.316 77.6663 453.705 77.6663Z" fill="url(#paint17_linear_0_1)"/>
<path d="M229.088 42.7326L219.398 6.69053C218.529 3.66693 217.661 1.8013 216.792 1.07756C215.924 0.361868 213.994 0 211.01 0C207.834 0 205.815 0.361868 204.947 1.07756C203.966 1.83346 203.114 3.69909 202.398 6.69053L192.989 42.7326C192.837 43.3357 193.062 43.6412 193.673 43.6412H199.455C199.68 43.6412 199.841 43.5849 199.937 43.4724C200.034 43.3598 200.114 43.1105 200.194 42.7326L209.088 8.45162C209.354 7.43035 209.595 6.77899 209.828 6.49753C210.053 6.21608 210.455 6.07134 211.018 6.07134C211.469 6.07134 211.79 6.2 211.983 6.46537C212.176 6.73074 212.418 7.39014 212.723 8.45162L221.907 42.7326C221.979 43.1105 222.067 43.3598 222.164 43.4724C222.26 43.5849 222.421 43.6412 222.646 43.6412H228.428C229.031 43.6412 229.257 43.3357 229.112 42.7326H229.088Z" fill="url(#paint18_linear_0_1)"/>
<path d="M229.088 197.977L219.398 161.935C218.529 158.911 217.661 157.045 216.792 156.322C215.924 155.606 213.994 155.244 211.01 155.244C207.834 155.244 205.815 155.606 204.947 156.322C203.966 157.078 203.114 158.943 202.398 161.935L192.989 197.977C192.837 198.58 193.062 198.885 193.673 198.885H199.455C199.68 198.885 199.841 198.829 199.937 198.716C200.034 198.604 200.114 198.355 200.194 197.977L209.088 163.696C209.354 162.674 209.595 162.023 209.828 161.742C210.053 161.46 210.455 161.315 211.018 161.315C211.469 161.315 211.79 161.444 211.983 161.709C212.176 161.975 212.418 162.634 212.723 163.696L221.907 197.977C221.979 198.355 222.067 198.604 222.164 198.716C222.26 198.829 222.421 198.885 222.646 198.885H228.428C229.031 198.885 229.257 198.58 229.112 197.977H229.088Z" fill="url(#paint19_linear_0_1)"/>
<path d="M380.549 42.7326L370.859 6.69053C369.99 3.66693 369.122 1.8013 368.253 1.07756C367.385 0.361868 365.455 0 362.471 0C359.295 0 357.276 0.361868 356.408 1.07756C355.427 1.83346 354.575 3.69909 353.859 6.69053L344.45 42.7326C344.297 43.3357 344.523 43.6412 345.134 43.6412H350.916C351.141 43.6412 351.302 43.5849 351.398 43.4724C351.495 43.3598 351.575 43.1105 351.655 42.7326L360.549 8.45162C360.815 7.43035 361.056 6.77899 361.289 6.49753C361.514 6.21608 361.916 6.07134 362.479 6.07134C362.93 6.07134 363.251 6.2 363.444 6.46537C363.637 6.73074 363.879 7.39014 364.184 8.45162L373.367 42.7326C373.44 43.1105 373.528 43.3598 373.625 43.4724C373.721 43.5849 373.882 43.6412 374.107 43.6412H379.889C380.492 43.6412 380.717 43.3357 380.573 42.7326H380.549Z" fill="url(#paint20_linear_0_1)"/>
<path d="M380.549 120.355L370.859 84.3126C369.99 81.289 369.122 79.4233 368.253 78.6996C367.385 77.9839 365.455 77.622 362.471 77.622C359.295 77.622 357.276 77.9839 356.408 78.6996C355.427 79.4555 354.575 81.3211 353.859 84.3126L344.45 120.355C344.297 120.958 344.523 121.263 345.134 121.263H350.916C351.141 121.263 351.302 121.207 351.398 121.094C351.495 120.982 351.575 120.733 351.655 120.355L360.549 86.0737C360.815 85.0524 361.056 84.401 361.289 84.1196C361.514 83.8381 361.916 83.6934 362.479 83.6934C362.93 83.6934 363.251 83.822 363.444 84.0874C363.637 84.3528 363.879 85.0122 364.184 86.0737L373.367 120.355C373.44 120.733 373.528 120.982 373.625 121.094C373.721 121.207 373.882 121.263 374.107 121.263H379.889C380.492 121.263 380.717 120.958 380.573 120.355H380.549Z" fill="url(#paint21_linear_0_1)"/>
<path d="M380.549 197.977L370.859 161.935C369.99 158.911 369.122 157.045 368.253 156.322C367.385 155.606 365.455 155.244 362.471 155.244C359.295 155.244 357.276 155.606 356.408 156.322C355.427 157.078 354.575 158.943 353.859 161.935L344.45 197.977C344.297 198.58 344.523 198.885 345.134 198.885H350.916C351.141 198.885 351.302 198.829 351.398 198.716C351.495 198.604 351.575 198.355 351.655 197.977L360.549 163.696C360.815 162.674 361.056 162.023 361.289 161.742C361.514 161.46 361.916 161.315 362.479 161.315C362.93 161.315 363.251 161.444 363.444 161.709C363.637 161.975 363.879 162.634 364.184 163.696L373.367 197.977C373.44 198.355 373.528 198.604 373.625 198.716C373.721 198.829 373.882 198.885 374.107 198.885H379.889C380.492 198.885 380.717 198.58 380.573 197.977H380.549Z" fill="url(#paint22_linear_0_1)"/>
<path d="M528.222 197.977L518.532 161.935C517.664 158.911 516.795 157.045 515.927 156.322C515.058 155.606 513.128 155.244 510.145 155.244C506.969 155.244 504.95 155.606 504.082 156.322C503.101 157.078 502.248 158.943 501.533 161.935L492.124 197.977C491.971 198.58 492.196 198.885 492.807 198.885H498.589C498.815 198.885 498.975 198.829 499.072 198.716C499.168 198.604 499.249 198.355 499.329 197.977L508.223 163.696C508.488 162.674 508.73 162.023 508.963 161.742C509.188 161.46 509.59 161.315 510.153 161.315C510.603 161.315 510.925 161.444 511.118 161.709C511.311 161.975 511.552 162.634 511.858 163.696L521.041 197.977C521.114 198.355 521.202 198.604 521.299 198.716C521.395 198.829 521.556 198.885 521.781 198.885H527.563C528.166 198.885 528.391 198.58 528.246 197.977H528.222Z" fill="url(#paint23_linear_0_1)"/>
<path d="M528.222 120.355L518.532 84.3126C517.664 81.289 516.795 79.4233 515.927 78.6996C515.058 77.9839 513.128 77.622 510.145 77.622C506.969 77.622 504.95 77.9839 504.082 78.6996C503.101 79.4555 502.248 81.3211 501.533 84.3126L492.124 120.355C491.971 120.958 492.196 121.263 492.807 121.263H498.589C498.815 121.263 498.975 121.207 499.072 121.094C499.168 120.982 499.249 120.733 499.329 120.355L508.223 86.0737C508.488 85.0524 508.73 84.401 508.963 84.1196C509.188 83.8381 509.59 83.6934 510.153 83.6934C510.603 83.6934 510.925 83.822 511.118 84.0874C511.311 84.3528 511.552 85.0122 511.858 86.0737L521.041 120.355C521.114 120.733 521.202 120.982 521.299 121.094C521.395 121.207 521.556 121.263 521.781 121.263H527.563C528.166 121.263 528.391 120.958 528.246 120.355H528.222Z" fill="url(#paint24_linear_0_1)"/>
<path d="M-145.027 225.781H-150.809C-151.034 225.781 -151.195 225.837 -151.292 225.95C-151.388 226.062 -151.468 226.311 -151.549 226.689L-160.732 260.97C-161.038 262.032 -161.279 262.691 -161.472 262.957C-161.657 263.222 -161.979 263.351 -162.437 263.351C-163 263.351 -163.402 263.206 -163.627 262.924C-163.852 262.643 -164.102 261.992 -164.367 260.97L-173.245 226.689C-173.317 226.311 -173.406 226.062 -173.502 225.95C-173.599 225.837 -173.76 225.781 -173.985 225.781H-179.767C-180.37 225.781 -180.595 226.086 -180.45 226.689L-171.041 262.731C-170.326 265.715 -169.473 267.588 -168.492 268.344C-167.624 269.06 -165.605 269.422 -162.429 269.422C-159.446 269.422 -157.516 269.06 -156.647 268.344C-155.779 267.629 -154.91 265.755 -154.042 262.731L-144.344 226.689C-144.191 226.086 -144.416 225.781 -145.027 225.781Z" fill="url(#paint25_linear_0_1)"/>
<path d="M154.328 303.113H148.547C148.321 303.113 148.161 303.169 148.064 303.281C147.968 303.394 147.887 303.643 147.807 304.021L138.623 338.302C138.318 339.364 138.077 340.023 137.884 340.288C137.699 340.554 137.377 340.682 136.919 340.682C136.356 340.682 135.954 340.538 135.728 340.256C135.503 339.975 135.254 339.323 134.989 338.302L126.111 304.021C126.038 303.643 125.95 303.394 125.853 303.281C125.757 303.169 125.596 303.113 125.371 303.113H119.589C118.986 303.113 118.761 303.418 118.906 304.021L128.314 340.063C129.03 343.047 129.882 344.92 130.863 345.676C131.732 346.392 133.75 346.754 136.927 346.754C139.91 346.754 141.84 346.392 142.708 345.676C143.577 344.961 144.445 343.087 145.314 340.063L155.012 304.021C155.165 303.418 154.94 303.113 154.328 303.113Z" fill="url(#paint26_linear_0_1)"/>
<path d="M154.328 225.491H148.547C148.321 225.491 148.161 225.547 148.064 225.659C147.968 225.772 147.887 226.021 147.807 226.399L138.623 260.68C138.318 261.742 138.077 262.401 137.884 262.666C137.699 262.932 137.377 263.06 136.919 263.06C136.356 263.06 135.954 262.916 135.728 262.634C135.503 262.353 135.254 261.701 134.989 260.68L126.111 226.399C126.038 226.021 125.95 225.772 125.853 225.659C125.757 225.547 125.596 225.491 125.371 225.491H119.589C118.986 225.491 118.761 225.796 118.906 226.399L128.314 262.441C129.03 265.425 129.882 267.298 130.863 268.054C131.732 268.77 133.75 269.132 136.927 269.132C139.91 269.132 141.84 268.77 142.708 268.054C143.577 267.339 144.445 265.465 145.314 262.441L155.012 226.399C155.165 225.796 154.94 225.491 154.328 225.491Z" fill="url(#paint27_linear_0_1)"/>
<path d="M4.76184 380.737H-1.01999C-1.24515 380.737 -1.40599 380.794 -1.50249 380.906C-1.59898 381.019 -1.6794 381.268 -1.75981 381.646L-10.9432 415.927C-11.2488 416.989 -11.49 417.648 -11.683 417.913C-11.868 418.179 -12.1897 418.307 -12.648 418.307C-13.2109 418.307 -13.613 418.163 -13.8382 417.881C-14.0633 417.6 -14.3126 416.948 -14.578 415.927L-23.4558 381.646C-23.5282 381.268 -23.6166 381.019 -23.7131 380.906C-23.8096 380.794 -23.9705 380.737 -24.1956 380.737H-29.9774C-30.5806 380.737 -30.8057 381.043 -30.661 381.646L-21.2524 417.688C-20.5367 420.672 -19.6843 422.545 -18.7033 423.301C-17.8348 424.017 -15.8164 424.379 -12.64 424.379C-9.65657 424.379 -7.72661 424.017 -6.85812 423.301C-5.98964 422.585 -5.12117 420.712 -4.25269 417.688L5.44537 381.646C5.59814 381.043 5.37299 380.737 4.76184 380.737Z" fill="url(#paint28_linear_0_1)"/>
<path d="M-219.855 268.223L-229.545 232.181C-230.414 229.157 -231.282 227.292 -232.151 226.568C-233.019 225.852 -234.949 225.491 -237.933 225.491C-241.109 225.491 -243.128 225.852 -243.996 226.568C-244.977 227.324 -245.829 229.19 -246.545 232.181L-255.954 268.223C-256.107 268.826 -255.881 269.132 -255.27 269.132H-249.488C-249.263 269.132 -249.102 269.076 -249.006 268.963C-248.909 268.85 -248.829 268.601 -248.749 268.223L-239.855 233.942C-239.589 232.921 -239.348 232.27 -239.115 231.988C-238.89 231.707 -238.488 231.562 -237.925 231.562C-237.474 231.562 -237.153 231.691 -236.96 231.956C-236.767 232.221 -236.525 232.881 -236.22 233.942L-227.036 268.223C-226.964 268.601 -226.876 268.85 -226.779 268.963C-226.683 269.076 -226.522 269.132 -226.297 269.132H-220.515C-219.912 269.132 -219.687 268.826 -219.831 268.223H-219.855Z" fill="url(#paint29_linear_0_1)"/>
<path d="M-219.855 423.47L-229.545 387.428C-230.414 384.404 -231.282 382.539 -232.151 381.815C-233.019 381.099 -234.949 380.737 -237.933 380.737C-241.109 380.737 -243.128 381.099 -243.996 381.815C-244.977 382.571 -245.829 384.436 -246.545 387.428L-255.954 423.47C-256.107 424.073 -255.881 424.379 -255.27 424.379H-249.488C-249.263 424.379 -249.102 424.322 -249.006 424.21C-248.909 424.097 -248.829 423.848 -248.749 423.47L-239.855 389.189C-239.589 388.168 -239.348 387.516 -239.115 387.235C-238.89 386.953 -238.488 386.809 -237.925 386.809C-237.474 386.809 -237.153 386.937 -236.96 387.203C-236.767 387.468 -236.525 388.128 -236.22 389.189L-227.036 423.47C-226.964 423.848 -226.876 424.097 -226.779 424.21C-226.683 424.322 -226.522 424.379 -226.297 424.379H-220.515C-219.912 424.379 -219.687 424.073 -219.831 423.47H-219.855Z" fill="url(#paint30_linear_0_1)"/>
<path d="M-68.3945 268.223L-78.0845 232.181C-78.953 229.157 -79.8215 227.292 -80.6899 226.568C-81.5584 225.852 -83.4884 225.491 -86.4718 225.491C-89.6482 225.491 -91.6666 225.852 -92.5351 226.568C-93.5161 227.324 -94.3685 229.19 -95.0842 232.181L-104.493 268.223C-104.646 268.826 -104.42 269.132 -103.809 269.132H-98.0274C-97.8023 269.132 -97.6414 269.076 -97.5449 268.963C-97.4484 268.85 -97.368 268.601 -97.2876 268.223L-88.3937 233.942C-88.1283 232.921 -87.8871 232.27 -87.6539 231.988C-87.4287 231.707 -87.0266 231.562 -86.4637 231.562C-86.0134 231.562 -85.6918 231.691 -85.4988 231.956C-85.3058 232.221 -85.0645 232.881 -84.7589 233.942L-75.5755 268.223C-75.5032 268.601 -75.4147 268.85 -75.3182 268.963C-75.2217 269.076 -75.0609 269.132 -74.8357 269.132H-69.0539C-68.4508 269.132 -68.2256 268.826 -68.3704 268.223H-68.3945Z" fill="url(#paint31_linear_0_1)"/>
<path d="M-68.3945 345.845L-78.0845 309.803C-78.953 306.78 -79.8215 304.914 -80.6899 304.19C-81.5584 303.474 -83.4884 303.113 -86.4718 303.113C-89.6482 303.113 -91.6666 303.474 -92.5351 304.19C-93.5161 304.946 -94.3685 306.812 -95.0842 309.803L-104.493 345.845C-104.646 346.448 -104.42 346.754 -103.809 346.754H-98.0274C-97.8023 346.754 -97.6414 346.698 -97.5449 346.585C-97.4484 346.472 -97.368 346.223 -97.2876 345.845L-88.3937 311.564C-88.1283 310.543 -87.8871 309.892 -87.6539 309.61C-87.4287 309.329 -87.0266 309.184 -86.4637 309.184C-86.0134 309.184 -85.6918 309.313 -85.4988 309.578C-85.3058 309.843 -85.0645 310.503 -84.7589 311.564L-75.5755 345.845C-75.5032 346.223 -75.4147 346.472 -75.3182 346.585C-75.2217 346.698 -75.0609 346.754 -74.8357 346.754H-69.0539C-68.4508 346.754 -68.2256 346.448 -68.3704 345.845H-68.3945Z" fill="url(#paint32_linear_0_1)"/>
<path d="M-68.3945 423.47L-78.0845 387.428C-78.953 384.404 -79.8215 382.539 -80.6899 381.815C-81.5584 381.099 -83.4884 380.737 -86.4718 380.737C-89.6482 380.737 -91.6666 381.099 -92.5351 381.815C-93.5161 382.571 -94.3685 384.436 -95.0842 387.428L-104.493 423.47C-104.646 424.073 -104.42 424.379 -103.809 424.379H-98.0274C-97.8023 424.379 -97.6414 424.322 -97.5449 424.21C-97.4484 424.097 -97.368 423.848 -97.2876 423.47L-88.3937 389.189C-88.1283 388.168 -87.8871 387.516 -87.6539 387.235C-87.4287 386.953 -87.0266 386.809 -86.4637 386.809C-86.0134 386.809 -85.6918 386.937 -85.4988 387.203C-85.3058 387.468 -85.0645 388.128 -84.7589 389.189L-75.5755 423.47C-75.5032 423.848 -75.4147 424.097 -75.3182 424.21C-75.2217 424.322 -75.0609 424.379 -74.8357 424.379H-69.0539C-68.4508 424.379 -68.2256 424.073 -68.3704 423.47H-68.3945Z" fill="url(#paint33_linear_0_1)"/>
<path d="M79.2792 423.47L69.5892 387.428C68.7207 384.404 67.8522 382.539 66.9837 381.815C66.1153 381.099 64.1853 380.737 61.2019 380.737C58.0255 380.737 56.0071 381.099 55.1386 381.815C54.1575 382.571 53.3051 384.436 52.5894 387.428L43.1809 423.47C43.0281 424.073 43.2533 424.379 43.8644 424.379H49.6462C49.8714 424.379 50.0323 424.322 50.1288 424.21C50.2253 424.097 50.3057 423.848 50.3861 423.47L59.28 389.189C59.5453 388.168 59.7866 387.516 60.0198 387.235C60.2449 386.953 60.647 386.809 61.2099 386.809C61.6602 386.809 61.9819 386.937 62.1749 387.203C62.3679 387.468 62.6092 388.128 62.9147 389.189L72.0981 423.47C72.1705 423.848 72.259 424.097 72.3555 424.21C72.452 424.322 72.6128 424.379 72.838 424.379H78.6198C79.2229 424.379 79.4481 424.073 79.3033 423.47H79.2792Z" fill="url(#paint34_linear_0_1)"/>
<path d="M79.2792 345.845L69.5892 309.803C68.7207 306.78 67.8522 304.914 66.9837 304.19C66.1153 303.474 64.1853 303.113 61.2019 303.113C58.0255 303.113 56.0071 303.474 55.1386 304.19C54.1575 304.946 53.3051 306.812 52.5894 309.803L43.1809 345.845C43.0281 346.448 43.2533 346.754 43.8644 346.754H49.6462C49.8714 346.754 50.0323 346.698 50.1288 346.585C50.2253 346.472 50.3057 346.223 50.3861 345.845L59.28 311.564C59.5453 310.543 59.7866 309.892 60.0198 309.61C60.2449 309.329 60.647 309.184 61.2099 309.184C61.6602 309.184 61.9819 309.313 62.1749 309.578C62.3679 309.843 62.6092 310.503 62.9147 311.564L72.0981 345.845C72.1705 346.223 72.259 346.472 72.3555 346.585C72.452 346.698 72.6128 346.754 72.838 346.754H78.6198C79.2229 346.754 79.4481 346.448 79.3033 345.845H79.2792Z" fill="url(#paint35_linear_0_1)"/>
<path d="M303.916 225.781H298.134C297.909 225.781 297.748 225.837 297.651 225.95C297.555 226.062 297.475 226.311 297.394 226.689L288.211 260.97C287.905 262.032 287.664 262.691 287.471 262.957C287.286 263.222 286.964 263.351 286.506 263.351C285.943 263.351 285.541 263.206 285.316 262.924C285.091 262.643 284.841 261.992 284.576 260.97L275.698 226.689C275.626 226.311 275.537 226.062 275.441 225.95C275.344 225.837 275.184 225.781 274.958 225.781H269.177C268.573 225.781 268.348 226.086 268.493 226.689L277.902 262.731C278.617 265.715 279.47 267.588 280.451 268.344C281.319 269.06 283.338 269.422 286.514 269.422C289.497 269.422 291.427 269.06 292.296 268.344C293.164 267.629 294.033 265.755 294.901 262.731L304.599 226.689C304.752 226.086 304.527 225.781 303.916 225.781Z" fill="url(#paint36_linear_0_1)"/>
<path d="M303.916 303.157H298.134C297.909 303.157 297.748 303.213 297.651 303.326C297.555 303.438 297.475 303.688 297.394 304.065L288.211 338.346C287.905 339.408 287.664 340.067 287.471 340.333C287.286 340.598 286.964 340.727 286.506 340.727C285.943 340.727 285.541 340.582 285.316 340.301C285.091 340.019 284.841 339.368 284.576 338.346L275.698 304.065C275.626 303.688 275.537 303.438 275.441 303.326C275.344 303.213 275.184 303.157 274.958 303.157H269.177C268.573 303.157 268.348 303.462 268.493 304.065L277.902 340.108C278.617 343.091 279.47 344.965 280.451 345.72C281.319 346.436 283.338 346.798 286.514 346.798C289.497 346.798 291.427 346.436 292.296 345.72C293.164 345.005 294.033 343.131 294.901 340.108L304.599 304.065C304.752 303.462 304.527 303.157 303.916 303.157Z" fill="url(#paint37_linear_0_1)"/>
<path d="M303.916 380.82H298.134C297.909 380.82 297.748 380.877 297.651 380.989C297.555 381.102 297.475 381.351 297.394 381.729L288.211 416.01C287.905 417.071 287.664 417.731 287.471 417.996C287.286 418.262 286.964 418.39 286.506 418.39C285.943 418.39 285.541 418.245 285.316 417.964C285.091 417.683 284.841 417.031 284.576 416.01L275.698 381.729C275.626 381.351 275.537 381.102 275.441 380.989C275.344 380.877 275.184 380.82 274.958 380.82H269.177C268.573 380.82 268.348 381.126 268.493 381.729L277.902 417.771C278.617 420.754 279.47 422.628 280.451 423.384C281.319 424.1 283.338 424.462 286.514 424.462C289.497 424.462 291.427 424.1 292.296 423.384C293.164 422.668 294.033 420.795 294.901 417.771L304.599 381.729C304.752 381.126 304.527 380.82 303.916 380.82Z" fill="url(#paint38_linear_0_1)"/>
<path d="M603.27 303.113H597.488C597.263 303.113 597.102 303.169 597.006 303.281C596.909 303.394 596.829 303.643 596.749 304.021L587.565 338.302C587.26 339.364 587.018 340.023 586.825 340.288C586.64 340.554 586.319 340.682 585.86 340.682C585.297 340.682 584.895 340.538 584.67 340.256C584.445 339.975 584.196 339.323 583.93 338.302L575.053 304.021C574.98 303.643 574.892 303.394 574.795 303.281C574.699 303.169 574.538 303.113 574.313 303.113H568.531C567.928 303.113 567.703 303.418 567.847 304.021L577.256 340.063C577.972 343.047 578.824 344.92 579.805 345.676C580.674 346.392 582.692 346.754 585.868 346.754C588.852 346.754 590.782 346.392 591.65 345.676C592.519 344.961 593.387 343.087 594.256 340.063L603.954 304.021C604.106 303.418 603.881 303.113 603.27 303.113Z" fill="url(#paint39_linear_0_1)"/>
<path d="M603.27 225.491H597.488C597.263 225.491 597.102 225.547 597.006 225.659C596.909 225.772 596.829 226.021 596.749 226.399L587.565 260.68C587.26 261.742 587.018 262.401 586.825 262.666C586.64 262.932 586.319 263.06 585.86 263.06C585.297 263.06 584.895 262.916 584.67 262.634C584.445 262.353 584.196 261.701 583.93 260.68L575.053 226.399C574.98 226.021 574.892 225.772 574.795 225.659C574.699 225.547 574.538 225.491 574.313 225.491H568.531C567.928 225.491 567.703 225.796 567.847 226.399L577.256 262.441C577.972 265.425 578.824 267.298 579.805 268.054C580.674 268.77 582.692 269.132 585.868 269.132C588.852 269.132 590.782 268.77 591.65 268.054C592.519 267.339 593.387 265.465 594.256 262.441L603.954 226.399C604.106 225.796 603.881 225.491 603.27 225.491Z" fill="url(#paint40_linear_0_1)"/>
<path d="M453.705 380.737H447.923C447.698 380.737 447.537 380.794 447.441 380.906C447.344 381.019 447.264 381.268 447.183 381.646L438 415.927C437.694 416.989 437.453 417.648 437.26 417.913C437.075 418.179 436.753 418.307 436.295 418.307C435.732 418.307 435.33 418.163 435.105 417.881C434.88 417.6 434.63 416.948 434.365 415.927L425.487 381.646C425.415 381.268 425.326 381.019 425.23 380.906C425.133 380.794 424.973 380.737 424.747 380.737H418.966C418.362 380.737 418.137 381.043 418.282 381.646L427.691 417.688C428.406 420.672 429.259 422.545 430.24 423.301C431.108 424.017 433.127 424.379 436.303 424.379C439.286 424.379 441.216 424.017 442.085 423.301C442.953 422.585 443.822 420.712 444.69 417.688L454.388 381.646C454.541 381.043 454.316 380.737 453.705 380.737Z" fill="url(#paint41_linear_0_1)"/>
<path d="M453.705 303.157H447.923C447.698 303.157 447.537 303.213 447.441 303.326C447.344 303.438 447.264 303.688 447.183 304.065L438 338.346C437.694 339.408 437.453 340.067 437.26 340.333C437.075 340.598 436.753 340.727 436.295 340.727C435.732 340.727 435.33 340.582 435.105 340.301C434.88 340.019 434.63 339.368 434.365 338.346L425.487 304.065C425.415 303.688 425.326 303.438 425.23 303.326C425.133 303.213 424.973 303.157 424.747 303.157H418.966C418.362 303.157 418.137 303.462 418.282 304.065L427.691 340.108C428.406 343.091 429.259 344.965 430.24 345.72C431.108 346.436 433.127 346.798 436.303 346.798C439.286 346.798 441.216 346.436 442.085 345.72C442.953 345.005 443.822 343.131 444.69 340.108L454.388 304.065C454.541 303.462 454.316 303.157 453.705 303.157Z" fill="url(#paint42_linear_0_1)"/>
<path d="M229.088 268.223L219.398 232.181C218.529 229.157 217.661 227.292 216.792 226.568C215.924 225.852 213.994 225.491 211.01 225.491C207.834 225.491 205.815 225.852 204.947 226.568C203.966 227.324 203.114 229.19 202.398 232.181L192.989 268.223C192.837 268.826 193.062 269.132 193.673 269.132H199.455C199.68 269.132 199.841 269.076 199.937 268.963C200.034 268.85 200.114 268.601 200.194 268.223L209.088 233.942C209.354 232.921 209.595 232.27 209.828 231.988C210.053 231.707 210.455 231.562 211.018 231.562C211.469 231.562 211.79 231.691 211.983 231.956C212.176 232.221 212.418 232.881 212.723 233.942L221.907 268.223C221.979 268.601 222.067 268.85 222.164 268.963C222.26 269.076 222.421 269.132 222.646 269.132H228.428C229.031 269.132 229.257 268.826 229.112 268.223H229.088Z" fill="url(#paint43_linear_0_1)"/>
<path d="M229.088 423.47L219.398 387.428C218.529 384.404 217.661 382.539 216.792 381.815C215.924 381.099 213.994 380.737 211.01 380.737C207.834 380.737 205.815 381.099 204.947 381.815C203.966 382.571 203.114 384.436 202.398 387.428L192.989 423.47C192.837 424.073 193.062 424.379 193.673 424.379H199.455C199.68 424.379 199.841 424.322 199.937 424.21C200.034 424.097 200.114 423.848 200.194 423.47L209.088 389.189C209.354 388.168 209.595 387.516 209.828 387.235C210.053 386.953 210.455 386.809 211.018 386.809C211.469 386.809 211.79 386.937 211.983 387.203C212.176 387.468 212.418 388.128 212.723 389.189L221.907 423.47C221.979 423.848 222.067 424.097 222.164 424.21C222.26 424.322 222.421 424.379 222.646 424.379H228.428C229.031 424.379 229.257 424.073 229.112 423.47H229.088Z" fill="url(#paint44_linear_0_1)"/>
<path d="M380.549 268.223L370.859 232.181C369.99 229.157 369.122 227.292 368.253 226.568C367.385 225.852 365.455 225.491 362.471 225.491C359.295 225.491 357.276 225.852 356.408 226.568C355.427 227.324 354.575 229.19 353.859 232.181L344.45 268.223C344.297 268.826 344.523 269.132 345.134 269.132H350.916C351.141 269.132 351.302 269.076 351.398 268.963C351.495 268.85 351.575 268.601 351.655 268.223L360.549 233.942C360.815 232.921 361.056 232.27 361.289 231.988C361.514 231.707 361.916 231.562 362.479 231.562C362.93 231.562 363.251 231.691 363.444 231.956C363.637 232.221 363.879 232.881 364.184 233.942L373.367 268.223C373.44 268.601 373.528 268.85 373.625 268.963C373.721 269.076 373.882 269.132 374.107 269.132H379.889C380.492 269.132 380.717 268.826 380.573 268.223H380.549Z" fill="url(#paint45_linear_0_1)"/>
<path d="M380.549 345.845L370.859 309.803C369.99 306.78 369.122 304.914 368.253 304.19C367.385 303.474 365.455 303.113 362.471 303.113C359.295 303.113 357.276 303.474 356.408 304.19C355.427 304.946 354.575 306.812 353.859 309.803L344.45 345.845C344.297 346.448 344.523 346.754 345.134 346.754H350.916C351.141 346.754 351.302 346.698 351.398 346.585C351.495 346.472 351.575 346.223 351.655 345.845L360.549 311.564C360.815 310.543 361.056 309.892 361.289 309.61C361.514 309.329 361.916 309.184 362.479 309.184C362.93 309.184 363.251 309.313 363.444 309.578C363.637 309.843 363.879 310.503 364.184 311.564L373.367 345.845C373.44 346.223 373.528 346.472 373.625 346.585C373.721 346.698 373.882 346.754 374.107 346.754H379.889C380.492 346.754 380.717 346.448 380.573 345.845H380.549Z" fill="url(#paint46_linear_0_1)"/>
<path d="M380.549 423.47L370.859 387.428C369.99 384.404 369.122 382.539 368.253 381.815C367.385 381.099 365.455 380.737 362.471 380.737C359.295 380.737 357.276 381.099 356.408 381.815C355.427 382.571 354.575 384.436 353.859 387.428L344.45 423.47C344.297 424.073 344.523 424.379 345.134 424.379H350.916C351.141 424.379 351.302 424.322 351.398 424.21C351.495 424.097 351.575 423.848 351.655 423.47L360.549 389.189C360.815 388.168 361.056 387.516 361.289 387.235C361.514 386.953 361.916 386.809 362.479 386.809C362.93 386.809 363.251 386.937 363.444 387.203C363.637 387.468 363.879 388.128 364.184 389.189L373.367 423.47C373.44 423.848 373.528 424.097 373.625 424.21C373.721 424.322 373.882 424.379 374.107 424.379H379.889C380.492 424.379 380.717 424.073 380.573 423.47H380.549Z" fill="url(#paint47_linear_0_1)"/>
<path d="M528.222 423.47L518.532 387.428C517.664 384.404 516.795 382.539 515.927 381.815C515.058 381.099 513.128 380.737 510.145 380.737C506.969 380.737 504.95 381.099 504.082 381.815C503.101 382.571 502.248 384.436 501.533 387.428L492.124 423.47C491.971 424.073 492.196 424.379 492.807 424.379H498.589C498.815 424.379 498.975 424.322 499.072 424.21C499.168 424.097 499.249 423.848 499.329 423.47L508.223 389.189C508.488 388.168 508.73 387.516 508.963 387.235C509.188 386.953 509.59 386.809 510.153 386.809C510.603 386.809 510.925 386.937 511.118 387.203C511.311 387.468 511.552 388.128 511.858 389.189L521.041 423.47C521.114 423.848 521.202 424.097 521.299 424.21C521.395 424.322 521.556 424.379 521.781 424.379H527.563C528.166 424.379 528.391 424.073 528.246 423.47H528.222Z" fill="url(#paint48_linear_0_1)"/>
<path d="M528.222 345.845L518.532 309.803C517.664 306.78 516.795 304.914 515.927 304.19C515.058 303.474 513.128 303.113 510.145 303.113C506.969 303.113 504.95 303.474 504.082 304.19C503.101 304.946 502.248 306.812 501.533 309.803L492.124 345.845C491.971 346.448 492.196 346.754 492.807 346.754H498.589C498.815 346.754 498.975 346.698 499.072 346.585C499.168 346.472 499.249 346.223 499.329 345.845L508.223 311.564C508.488 310.543 508.73 309.892 508.963 309.61C509.188 309.329 509.59 309.184 510.153 309.184C510.603 309.184 510.925 309.313 511.118 309.578C511.311 309.843 511.552 310.503 511.858 311.564L521.041 345.845C521.114 346.223 521.202 346.472 521.299 346.585C521.395 346.698 521.556 346.754 521.781 346.754H527.563C528.166 346.754 528.391 346.448 528.246 345.845H528.222Z" fill="url(#paint49_linear_0_1)"/>
<path d="M-145.027 455.29H-150.809C-151.034 455.29 -151.195 455.346 -151.292 455.459C-151.388 455.572 -151.468 455.821 -151.549 456.199L-160.732 490.48C-161.038 491.541 -161.279 492.201 -161.472 492.466C-161.657 492.731 -161.979 492.86 -162.437 492.86C-163 492.86 -163.402 492.715 -163.627 492.434C-163.852 492.152 -164.102 491.501 -164.367 490.48L-173.245 456.199C-173.317 455.821 -173.406 455.572 -173.502 455.459C-173.599 455.346 -173.76 455.29 -173.985 455.29H-179.767C-180.37 455.29 -180.595 455.596 -180.45 456.199L-171.041 492.241C-170.326 495.224 -169.473 497.098 -168.492 497.854C-167.624 498.57 -165.605 498.931 -162.429 498.931C-159.446 498.931 -157.516 498.57 -156.647 497.854C-155.779 497.138 -154.91 495.264 -154.042 492.241L-144.344 456.199C-144.191 455.596 -144.416 455.29 -145.027 455.29Z" fill="url(#paint50_linear_0_1)"/>
<path d="M154.329 532.622H148.547C148.322 532.622 148.161 532.678 148.064 532.791C147.968 532.903 147.887 533.153 147.807 533.531L138.624 567.812C138.318 568.873 138.077 569.533 137.884 569.798C137.699 570.063 137.377 570.192 136.919 570.192C136.356 570.192 135.954 570.047 135.729 569.766C135.503 569.484 135.254 568.833 134.989 567.812L126.111 533.531C126.038 533.153 125.95 532.903 125.854 532.791C125.757 532.678 125.596 532.622 125.371 532.622H119.589C118.986 532.622 118.761 532.928 118.906 533.531L128.314 569.573C129.03 572.556 129.882 574.43 130.863 575.186C131.732 575.901 133.75 576.263 136.927 576.263C139.91 576.263 141.84 575.901 142.709 575.186C143.577 574.47 144.446 572.596 145.314 569.573L155.012 533.531C155.165 532.928 154.94 532.622 154.329 532.622Z" fill="url(#paint51_linear_0_1)"/>
<path d="M154.329 455H148.547C148.322 455 148.161 455.056 148.064 455.169C147.968 455.281 147.887 455.531 147.807 455.909L138.624 490.19C138.318 491.251 138.077 491.911 137.884 492.176C137.699 492.441 137.377 492.57 136.919 492.57C136.356 492.57 135.954 492.425 135.729 492.144C135.503 491.862 135.254 491.211 134.989 490.19L126.111 455.909C126.038 455.531 125.95 455.281 125.854 455.169C125.757 455.056 125.596 455 125.371 455H119.589C118.986 455 118.761 455.306 118.906 455.909L128.314 491.951C129.03 494.934 129.882 496.808 130.863 497.564C131.732 498.279 133.75 498.641 136.927 498.641C139.91 498.641 141.84 498.279 142.709 497.564C143.577 496.848 144.446 494.974 145.314 491.951L155.012 455.909C155.165 455.306 154.94 455 154.329 455Z" fill="url(#paint52_linear_0_1)"/>
<path d="M4.76187 610.244H-1.01996C-1.24512 610.244 -1.40596 610.3 -1.50246 610.413C-1.59895 610.526 -1.67937 610.775 -1.75978 611.153L-10.9432 645.434C-11.2487 646.495 -11.49 647.155 -11.683 647.42C-11.868 647.685 -12.1896 647.814 -12.648 647.814C-13.2109 647.814 -13.613 647.669 -13.8381 647.388C-14.0633 647.106 -14.3126 646.455 -14.5779 645.434L-23.4558 611.153C-23.5281 610.775 -23.6166 610.526 -23.7131 610.413C-23.8096 610.3 -23.9704 610.244 -24.1956 610.244H-29.9774C-30.5805 610.244 -30.8057 610.55 -30.6609 611.153L-21.2524 647.195C-20.5367 650.178 -19.6843 652.052 -18.7032 652.808C-17.8347 653.523 -15.8163 653.885 -12.6399 653.885C-9.65652 653.885 -7.72658 653.523 -6.85809 652.808C-5.98961 652.092 -5.12114 650.218 -4.25266 647.195L5.4454 611.153C5.59821 610.55 5.37302 610.244 4.76187 610.244Z" fill="url(#paint53_linear_0_1)"/>
<path d="M-219.855 497.733L-229.545 461.691C-230.414 458.667 -231.282 456.801 -232.151 456.078C-233.019 455.362 -234.949 455 -237.933 455C-241.109 455 -243.128 455.362 -243.996 456.078C-244.977 456.833 -245.829 458.699 -246.545 461.691L-255.954 497.733C-256.107 498.336 -255.881 498.641 -255.27 498.641H-249.488C-249.263 498.641 -249.102 498.585 -249.006 498.472C-248.909 498.36 -248.829 498.111 -248.749 497.733L-239.855 463.452C-239.589 462.43 -239.348 461.779 -239.115 461.498C-238.89 461.216 -238.488 461.071 -237.925 461.071C-237.474 461.071 -237.153 461.2 -236.96 461.465C-236.767 461.731 -236.525 462.39 -236.22 463.452L-227.036 497.733C-226.964 498.111 -226.876 498.36 -226.779 498.472C-226.683 498.585 -226.522 498.641 -226.297 498.641H-220.515C-219.912 498.641 -219.687 498.336 -219.831 497.733H-219.855Z" fill="url(#paint54_linear_0_1)"/>
<path d="M-219.855 652.977L-229.545 616.935C-230.414 613.911 -231.282 612.045 -232.151 611.322C-233.019 610.606 -234.949 610.244 -237.933 610.244C-241.109 610.244 -243.128 610.606 -243.996 611.322C-244.977 612.078 -245.829 613.943 -246.545 616.935L-255.954 652.977C-256.107 653.58 -255.881 653.885 -255.27 653.885H-249.488C-249.263 653.885 -249.102 653.829 -249.006 653.716C-248.909 653.604 -248.829 653.355 -248.749 652.977L-239.855 618.696C-239.589 617.674 -239.348 617.023 -239.115 616.742C-238.89 616.46 -238.488 616.315 -237.925 616.315C-237.474 616.315 -237.153 616.444 -236.96 616.709C-236.767 616.975 -236.525 617.634 -236.22 618.696L-227.036 652.977C-226.964 653.355 -226.876 653.604 -226.779 653.716C-226.683 653.829 -226.522 653.885 -226.297 653.885H-220.515C-219.912 653.885 -219.687 653.58 -219.831 652.977H-219.855Z" fill="url(#paint55_linear_0_1)"/>
<path d="M-68.3945 497.733L-78.0845 461.691C-78.953 458.667 -79.8214 456.801 -80.6899 456.078C-81.5584 455.362 -83.4884 455 -86.4718 455C-89.6482 455 -91.6666 455.362 -92.535 456.078C-93.5161 456.833 -94.3685 458.699 -95.0842 461.691L-104.493 497.733C-104.646 498.336 -104.42 498.641 -103.809 498.641H-98.0274C-97.8022 498.641 -97.6414 498.585 -97.5449 498.472C-97.4484 498.36 -97.368 498.111 -97.2876 497.733L-88.3937 463.452C-88.1283 462.43 -87.8871 461.779 -87.6539 461.498C-87.4287 461.216 -87.0266 461.071 -86.4637 461.071C-86.0134 461.071 -85.6917 461.2 -85.4987 461.465C-85.3058 461.731 -85.0645 462.39 -84.7589 463.452L-75.5755 497.733C-75.5032 498.111 -75.4147 498.36 -75.3182 498.472C-75.2217 498.585 -75.0609 498.641 -74.8357 498.641H-69.0539C-68.4507 498.641 -68.2256 498.336 -68.3703 497.733H-68.3945Z" fill="url(#paint56_linear_0_1)"/>
<path d="M-68.3945 575.355L-78.0845 539.313C-78.953 536.289 -79.8214 534.423 -80.6899 533.7C-81.5584 532.984 -83.4884 532.622 -86.4718 532.622C-89.6482 532.622 -91.6666 532.984 -92.535 533.7C-93.5161 534.456 -94.3685 536.321 -95.0842 539.313L-104.493 575.355C-104.646 575.958 -104.42 576.263 -103.809 576.263H-98.0274C-97.8022 576.263 -97.6414 576.207 -97.5449 576.094C-97.4484 575.982 -97.368 575.733 -97.2876 575.355L-88.3937 541.074C-88.1283 540.052 -87.8871 539.401 -87.6539 539.12C-87.4287 538.838 -87.0266 538.693 -86.4637 538.693C-86.0134 538.693 -85.6917 538.822 -85.4987 539.087C-85.3058 539.353 -85.0645 540.012 -84.7589 541.074L-75.5755 575.355C-75.5032 575.733 -75.4147 575.982 -75.3182 576.094C-75.2217 576.207 -75.0609 576.263 -74.8357 576.263H-69.0539C-68.4507 576.263 -68.2256 575.958 -68.3703 575.355H-68.3945Z" fill="url(#paint57_linear_0_1)"/>
<path d="M-68.3945 652.977L-78.0845 616.935C-78.953 613.911 -79.8214 612.045 -80.6899 611.322C-81.5584 610.606 -83.4884 610.244 -86.4718 610.244C-89.6482 610.244 -91.6666 610.606 -92.535 611.322C-93.5161 612.078 -94.3685 613.943 -95.0842 616.935L-104.493 652.977C-104.646 653.58 -104.42 653.885 -103.809 653.885H-98.0274C-97.8022 653.885 -97.6414 653.829 -97.5449 653.716C-97.4484 653.604 -97.368 653.355 -97.2876 652.977L-88.3937 618.696C-88.1283 617.674 -87.8871 617.023 -87.6539 616.742C-87.4287 616.46 -87.0266 616.315 -86.4637 616.315C-86.0134 616.315 -85.6917 616.444 -85.4987 616.709C-85.3058 616.975 -85.0645 617.634 -84.7589 618.696L-75.5755 652.977C-75.5032 653.355 -75.4147 653.604 -75.3182 653.716C-75.2217 653.829 -75.0609 653.885 -74.8357 653.885H-69.0539C-68.4507 653.885 -68.2256 653.58 -68.3703 652.977H-68.3945Z" fill="url(#paint58_linear_0_1)"/>
<path d="M79.2792 652.977L69.5892 616.935C68.7207 613.911 67.8522 612.045 66.9838 611.322C66.1153 610.606 64.1853 610.244 61.2019 610.244C58.0255 610.244 56.0071 610.606 55.1386 611.322C54.1576 612.078 53.3052 613.943 52.5895 616.935L43.1809 652.977C43.0281 653.58 43.2533 653.885 43.8644 653.885H49.6463C49.8714 653.885 50.0323 653.829 50.1288 653.716C50.2253 653.604 50.3057 653.355 50.3861 652.977L59.28 618.696C59.5454 617.674 59.7866 617.023 60.0198 616.742C60.245 616.46 60.6471 616.315 61.21 616.315C61.6603 616.315 61.982 616.444 62.175 616.709C62.368 616.975 62.6092 617.634 62.9148 618.696L72.0981 652.977C72.1705 653.355 72.259 653.604 72.3555 653.716C72.452 653.829 72.6128 653.885 72.838 653.885H78.6198C79.223 653.885 79.4481 653.58 79.3033 652.977H79.2792Z" fill="url(#paint59_linear_0_1)"/>
<path d="M79.2792 575.355L69.5892 539.313C68.7207 536.289 67.8522 534.423 66.9838 533.7C66.1153 532.984 64.1853 532.622 61.2019 532.622C58.0255 532.622 56.0071 532.984 55.1386 533.7C54.1576 534.456 53.3052 536.321 52.5895 539.313L43.1809 575.355C43.0281 575.958 43.2533 576.263 43.8644 576.263H49.6463C49.8714 576.263 50.0323 576.207 50.1288 576.094C50.2253 575.982 50.3057 575.733 50.3861 575.355L59.28 541.074C59.5454 540.052 59.7866 539.401 60.0198 539.12C60.245 538.838 60.6471 538.693 61.21 538.693C61.6603 538.693 61.982 538.822 62.175 539.087C62.368 539.353 62.6092 540.012 62.9148 541.074L72.0981 575.355C72.1705 575.733 72.259 575.982 72.3555 576.094C72.452 576.207 72.6128 576.263 72.838 576.263H78.6198C79.223 576.263 79.4481 575.958 79.3033 575.355H79.2792Z" fill="url(#paint60_linear_0_1)"/>
<path d="M303.916 455.29H298.134C297.909 455.29 297.748 455.346 297.652 455.459C297.555 455.572 297.475 455.821 297.394 456.199L288.211 490.48C287.905 491.541 287.664 492.201 287.471 492.466C287.286 492.731 286.964 492.86 286.506 492.86C285.943 492.86 285.541 492.715 285.316 492.434C285.091 492.152 284.841 491.501 284.576 490.48L275.698 456.199C275.626 455.821 275.537 455.572 275.441 455.459C275.344 455.346 275.184 455.29 274.958 455.29H269.177C268.573 455.29 268.348 455.596 268.493 456.199L277.902 492.241C278.617 495.224 279.47 497.098 280.451 497.854C281.319 498.57 283.338 498.931 286.514 498.931C289.497 498.931 291.427 498.57 292.296 497.854C293.164 497.138 294.033 495.264 294.901 492.241L304.599 456.199C304.752 455.596 304.527 455.29 303.916 455.29Z" fill="url(#paint61_linear_0_1)"/>
<path d="M303.916 532.666H298.134C297.909 532.666 297.748 532.723 297.652 532.835C297.555 532.948 297.475 533.197 297.394 533.575L288.211 567.856C287.905 568.917 287.664 569.577 287.471 569.842C287.286 570.108 286.964 570.236 286.506 570.236C285.943 570.236 285.541 570.091 285.316 569.81C285.091 569.529 284.841 568.877 284.576 567.856L275.698 533.575C275.626 533.197 275.537 532.948 275.441 532.835C275.344 532.723 275.184 532.666 274.958 532.666H269.177C268.573 532.666 268.348 532.972 268.493 533.575L277.902 569.617C278.617 572.6 279.47 574.474 280.451 575.23C281.319 575.946 283.338 576.308 286.514 576.308C289.497 576.308 291.427 575.946 292.296 575.23C293.164 574.514 294.033 572.641 294.901 569.617L304.599 533.575C304.752 532.972 304.527 532.666 303.916 532.666Z" fill="url(#paint62_linear_0_1)"/>
<path d="M303.916 610.33H298.134C297.909 610.33 297.748 610.386 297.652 610.499C297.555 610.611 297.475 610.861 297.394 611.238L288.211 645.519C287.905 646.581 287.664 647.24 287.471 647.506C287.286 647.771 286.964 647.9 286.506 647.9C285.943 647.9 285.541 647.755 285.316 647.473C285.091 647.192 284.841 646.541 284.576 645.519L275.698 611.238C275.626 610.861 275.537 610.611 275.441 610.499C275.344 610.386 275.184 610.33 274.958 610.33H269.177C268.573 610.33 268.348 610.635 268.493 611.238L277.902 647.28C278.617 650.264 279.47 652.138 280.451 652.893C281.319 653.609 283.338 653.971 286.514 653.971C289.497 653.971 291.427 653.609 292.296 652.893C293.164 652.178 294.033 650.304 294.901 647.28L304.599 611.238C304.752 610.635 304.527 610.33 303.916 610.33Z" fill="url(#paint63_linear_0_1)"/>
<path d="M603.27 532.622H597.488C597.263 532.622 597.103 532.678 597.006 532.791C596.91 532.903 596.829 533.153 596.749 533.531L587.565 567.812C587.26 568.873 587.018 569.533 586.825 569.798C586.641 570.063 586.319 570.192 585.86 570.192C585.298 570.192 584.895 570.047 584.67 569.766C584.445 569.484 584.196 568.833 583.93 567.812L575.053 533.531C574.98 533.153 574.892 532.903 574.795 532.791C574.699 532.678 574.538 532.622 574.313 532.622H568.531C567.928 532.622 567.703 532.928 567.847 533.531L577.256 569.573C577.972 572.556 578.824 574.43 579.805 575.186C580.674 575.901 582.692 576.263 585.869 576.263C588.852 576.263 590.782 575.901 591.65 575.186C592.519 574.47 593.387 572.596 594.256 569.573L603.954 533.531C604.107 532.928 603.881 532.622 603.27 532.622Z" fill="url(#paint64_linear_0_1)"/>
<path d="M603.27 455H597.488C597.263 455 597.103 455.056 597.006 455.169C596.91 455.281 596.829 455.531 596.749 455.909L587.565 490.19C587.26 491.251 587.018 491.911 586.825 492.176C586.641 492.441 586.319 492.57 585.86 492.57C585.298 492.57 584.895 492.425 584.67 492.144C584.445 491.862 584.196 491.211 583.93 490.19L575.053 455.909C574.98 455.531 574.892 455.281 574.795 455.169C574.699 455.056 574.538 455 574.313 455H568.531C567.928 455 567.703 455.306 567.847 455.909L577.256 491.951C577.972 494.934 578.824 496.808 579.805 497.564C580.674 498.279 582.692 498.641 585.869 498.641C588.852 498.641 590.782 498.279 591.65 497.564C592.519 496.848 593.387 494.974 594.256 491.951L603.954 455.909C604.107 455.306 603.881 455 603.27 455Z" fill="url(#paint65_linear_0_1)"/>
<path d="M453.705 610.244H447.923C447.698 610.244 447.537 610.3 447.441 610.413C447.344 610.526 447.264 610.775 447.183 611.153L438 645.434C437.694 646.495 437.453 647.155 437.26 647.42C437.075 647.685 436.753 647.814 436.295 647.814C435.732 647.814 435.33 647.669 435.105 647.388C434.88 647.106 434.631 646.455 434.365 645.434L425.487 611.153C425.415 610.775 425.326 610.526 425.23 610.413C425.133 610.3 424.973 610.244 424.747 610.244H418.966C418.363 610.244 418.137 610.55 418.282 611.153L427.691 647.195C428.406 650.178 429.259 652.052 430.24 652.808C431.108 653.523 433.127 653.885 436.303 653.885C439.287 653.885 441.216 653.523 442.085 652.808C442.953 652.092 443.822 650.218 444.69 647.195L454.388 611.153C454.541 610.55 454.316 610.244 453.705 610.244Z" fill="url(#paint66_linear_0_1)"/>
<path d="M453.705 532.666H447.923C447.698 532.666 447.537 532.723 447.441 532.835C447.344 532.948 447.264 533.197 447.183 533.575L438 567.856C437.694 568.917 437.453 569.577 437.26 569.842C437.075 570.108 436.753 570.236 436.295 570.236C435.732 570.236 435.33 570.091 435.105 569.81C434.88 569.529 434.631 568.877 434.365 567.856L425.487 533.575C425.415 533.197 425.326 532.948 425.23 532.835C425.133 532.723 424.973 532.666 424.747 532.666H418.966C418.363 532.666 418.137 532.972 418.282 533.575L427.691 569.617C428.406 572.6 429.259 574.474 430.24 575.23C431.108 575.946 433.127 576.308 436.303 576.308C439.287 576.308 441.216 575.946 442.085 575.23C442.953 574.514 443.822 572.641 444.69 569.617L454.388 533.575C454.541 532.972 454.316 532.666 453.705 532.666Z" fill="url(#paint67_linear_0_1)"/>
<path d="M229.088 497.733L219.398 461.691C218.529 458.667 217.661 456.801 216.792 456.078C215.924 455.362 213.994 455 211.01 455C207.834 455 205.816 455.362 204.947 456.078C203.966 456.833 203.114 458.699 202.398 461.691L192.989 497.733C192.837 498.336 193.062 498.641 193.673 498.641H199.455C199.68 498.641 199.841 498.585 199.937 498.472C200.034 498.36 200.114 498.111 200.195 497.733L209.088 463.452C209.354 462.43 209.595 461.779 209.828 461.498C210.053 461.216 210.456 461.071 211.018 461.071C211.469 461.071 211.79 461.2 211.983 461.465C212.176 461.731 212.418 462.39 212.723 463.452L221.907 497.733C221.979 498.111 222.067 498.36 222.164 498.472C222.26 498.585 222.421 498.641 222.646 498.641H228.428C229.031 498.641 229.257 498.336 229.112 497.733H229.088Z" fill="url(#paint68_linear_0_1)"/>
<path d="M380.549 497.733L370.859 461.691C369.99 458.667 369.122 456.801 368.253 456.078C367.385 455.362 365.455 455 362.471 455C359.295 455 357.276 455.362 356.408 456.078C355.427 456.833 354.575 458.699 353.859 461.691L344.45 497.733C344.298 498.336 344.523 498.641 345.134 498.641H350.916C351.141 498.641 351.302 498.585 351.398 498.472C351.495 498.36 351.575 498.111 351.656 497.733L360.549 463.452C360.815 462.43 361.056 461.779 361.289 461.498C361.514 461.216 361.916 461.071 362.479 461.071C362.93 461.071 363.251 461.2 363.444 461.465C363.637 461.731 363.879 462.39 364.184 463.452L373.368 497.733C373.44 498.111 373.528 498.36 373.625 498.472C373.721 498.585 373.882 498.641 374.107 498.641H379.889C380.492 498.641 380.718 498.336 380.573 497.733H380.549Z" fill="url(#paint69_linear_0_1)"/>
<path d="M380.549 575.355L370.859 539.313C369.99 536.289 369.122 534.423 368.253 533.7C367.385 532.984 365.455 532.622 362.471 532.622C359.295 532.622 357.276 532.984 356.408 533.7C355.427 534.456 354.575 536.321 353.859 539.313L344.45 575.355C344.298 575.958 344.523 576.263 345.134 576.263H350.916C351.141 576.263 351.302 576.207 351.398 576.094C351.495 575.982 351.575 575.733 351.656 575.355L360.549 541.074C360.815 540.052 361.056 539.401 361.289 539.12C361.514 538.838 361.916 538.693 362.479 538.693C362.93 538.693 363.251 538.822 363.444 539.087C363.637 539.353 363.879 540.012 364.184 541.074L373.368 575.355C373.44 575.733 373.528 575.982 373.625 576.094C373.721 576.207 373.882 576.263 374.107 576.263H379.889C380.492 576.263 380.718 575.958 380.573 575.355H380.549Z" fill="url(#paint70_linear_0_1)"/>
<path d="M380.549 652.977L370.859 616.935C369.99 613.911 369.122 612.045 368.253 611.322C367.385 610.606 365.455 610.244 362.471 610.244C359.295 610.244 357.276 610.606 356.408 611.322C355.427 612.078 354.575 613.943 353.859 616.935L344.45 652.977C344.298 653.58 344.523 653.885 345.134 653.885H350.916C351.141 653.885 351.302 653.829 351.398 653.716C351.495 653.604 351.575 653.355 351.656 652.977L360.549 618.696C360.815 617.674 361.056 617.023 361.289 616.742C361.514 616.46 361.916 616.315 362.479 616.315C362.93 616.315 363.251 616.444 363.444 616.709C363.637 616.975 363.879 617.634 364.184 618.696L373.368 652.977C373.44 653.355 373.528 653.604 373.625 653.716C373.721 653.829 373.882 653.885 374.107 653.885H379.889C380.492 653.885 380.718 653.58 380.573 652.977H380.549Z" fill="url(#paint71_linear_0_1)"/>
<path d="M528.222 652.977L518.532 616.935C517.664 613.911 516.795 612.045 515.927 611.322C515.058 610.606 513.128 610.244 510.145 610.244C506.969 610.244 504.95 610.606 504.082 611.322C503.101 612.078 502.248 613.943 501.533 616.935L492.124 652.977C491.971 653.58 492.196 653.885 492.808 653.885H498.589C498.815 653.885 498.975 653.829 499.072 653.716C499.168 653.604 499.249 653.355 499.329 652.977L508.223 618.696C508.488 617.674 508.73 617.023 508.963 616.742C509.188 616.46 509.59 616.315 510.153 616.315C510.603 616.315 510.925 616.444 511.118 616.709C511.311 616.975 511.552 617.634 511.858 618.696L521.041 652.977C521.114 653.355 521.202 653.604 521.299 653.716C521.395 653.829 521.556 653.885 521.781 653.885H527.563C528.166 653.885 528.391 653.58 528.247 652.977H528.222Z" fill="url(#paint72_linear_0_1)"/>
<path d="M528.222 575.355L518.532 539.313C517.664 536.289 516.795 534.423 515.927 533.7C515.058 532.984 513.128 532.622 510.145 532.622C506.969 532.622 504.95 532.984 504.082 533.7C503.101 534.456 502.248 536.321 501.533 539.313L492.124 575.355C491.971 575.958 492.196 576.263 492.808 576.263H498.589C498.815 576.263 498.975 576.207 499.072 576.094C499.168 575.982 499.249 575.733 499.329 575.355L508.223 541.074C508.488 540.052 508.73 539.401 508.963 539.12C509.188 538.838 509.59 538.693 510.153 538.693C510.603 538.693 510.925 538.822 511.118 539.087C511.311 539.353 511.552 540.012 511.858 541.074L521.041 575.355C521.114 575.733 521.202 575.982 521.299 576.094C521.395 576.207 521.556 576.263 521.781 576.263H527.563C528.166 576.263 528.391 575.958 528.247 575.355H528.222Z" fill="url(#paint73_linear_0_1)"/>
<path d="M-145.027 680.781H-150.809C-151.034 680.781 -151.195 680.837 -151.292 680.95C-151.388 681.062 -151.468 681.311 -151.549 681.689L-160.732 715.97C-161.038 717.032 -161.279 717.691 -161.472 717.957C-161.657 718.222 -161.979 718.351 -162.437 718.351C-163 718.351 -163.402 718.206 -163.627 717.924C-163.852 717.643 -164.102 716.992 -164.367 715.97L-173.245 681.689C-173.317 681.311 -173.406 681.062 -173.502 680.95C-173.599 680.837 -173.76 680.781 -173.985 680.781H-179.767C-180.37 680.781 -180.595 681.086 -180.45 681.689L-171.041 717.731C-170.326 720.715 -169.473 722.589 -168.492 723.344C-167.624 724.06 -165.605 724.422 -162.429 724.422C-159.446 724.422 -157.516 724.06 -156.647 723.344C-155.779 722.629 -154.91 720.755 -154.042 717.731L-144.344 681.689C-144.191 681.086 -144.416 680.781 -145.027 680.781Z" fill="url(#paint74_linear_0_1)"/>
<path d="M154.329 758.113H148.547C148.322 758.113 148.161 758.169 148.064 758.281C147.968 758.394 147.887 758.643 147.807 759.021L138.624 793.302C138.318 794.364 138.077 795.023 137.884 795.288C137.699 795.554 137.377 795.682 136.919 795.682C136.356 795.682 135.954 795.538 135.729 795.256C135.503 794.975 135.254 794.323 134.989 793.302L126.111 759.021C126.038 758.643 125.95 758.394 125.854 758.281C125.757 758.169 125.596 758.113 125.371 758.113H119.589C118.986 758.113 118.761 758.418 118.906 759.021L128.314 795.063C129.03 798.047 129.882 799.92 130.863 800.676C131.732 801.392 133.75 801.754 136.927 801.754C139.91 801.754 141.84 801.392 142.709 800.676C143.577 799.961 144.446 798.087 145.314 795.063L155.012 759.021C155.165 758.418 154.94 758.113 154.329 758.113Z" fill="url(#paint75_linear_0_1)"/>
<path d="M154.329 680.491H148.547C148.322 680.491 148.161 680.547 148.064 680.659C147.968 680.772 147.887 681.021 147.807 681.399L138.624 715.68C138.318 716.742 138.077 717.401 137.884 717.666C137.699 717.932 137.377 718.06 136.919 718.06C136.356 718.06 135.954 717.916 135.729 717.634C135.503 717.353 135.254 716.701 134.989 715.68L126.111 681.399C126.038 681.021 125.95 680.772 125.854 680.659C125.757 680.547 125.596 680.491 125.371 680.491H119.589C118.986 680.491 118.761 680.796 118.906 681.399L128.314 717.441C129.03 720.425 129.882 722.298 130.863 723.054C131.732 723.77 133.75 724.132 136.927 724.132C139.91 724.132 141.84 723.77 142.709 723.054C143.577 722.339 144.446 720.465 145.314 717.441L155.012 681.399C155.165 680.796 154.94 680.491 154.329 680.491Z" fill="url(#paint76_linear_0_1)"/>
<path d="M4.76187 835.737H-1.01996C-1.24512 835.737 -1.40596 835.794 -1.50246 835.906C-1.59895 836.019 -1.67937 836.268 -1.75978 836.646L-10.9432 870.927C-11.2487 871.989 -11.49 872.648 -11.683 872.913C-11.868 873.179 -12.1896 873.307 -12.648 873.307C-13.2109 873.307 -13.613 873.163 -13.8381 872.881C-14.0633 872.6 -14.3126 871.948 -14.5779 870.927L-23.4558 836.646C-23.5281 836.268 -23.6166 836.019 -23.7131 835.906C-23.8096 835.794 -23.9704 835.737 -24.1956 835.737H-29.9774C-30.5805 835.737 -30.8057 836.043 -30.6609 836.646L-21.2524 872.688C-20.5367 875.672 -19.6843 877.545 -18.7032 878.301C-17.8347 879.017 -15.8163 879.379 -12.6399 879.379C-9.65652 879.379 -7.72658 879.017 -6.85809 878.301C-5.98961 877.585 -5.12114 875.712 -4.25266 872.688L5.4454 836.646C5.59821 836.043 5.37302 835.737 4.76187 835.737Z" fill="url(#paint77_linear_0_1)"/>
<path d="M-219.855 723.223L-229.545 687.181C-230.414 684.157 -231.282 682.292 -232.151 681.568C-233.019 680.852 -234.949 680.491 -237.933 680.491C-241.109 680.491 -243.128 680.852 -243.996 681.568C-244.977 682.324 -245.829 684.19 -246.545 687.181L-255.954 723.223C-256.107 723.826 -255.881 724.132 -255.27 724.132H-249.488C-249.263 724.132 -249.102 724.076 -249.006 723.963C-248.909 723.85 -248.829 723.601 -248.749 723.223L-239.855 688.942C-239.589 687.921 -239.348 687.27 -239.115 686.988C-238.89 686.707 -238.488 686.562 -237.925 686.562C-237.474 686.562 -237.153 686.691 -236.96 686.956C-236.767 687.221 -236.525 687.881 -236.22 688.942L-227.036 723.223C-226.964 723.601 -226.876 723.85 -226.779 723.963C-226.683 724.076 -226.522 724.132 -226.297 724.132H-220.515C-219.912 724.132 -219.687 723.826 -219.831 723.223H-219.855Z" fill="url(#paint78_linear_0_1)"/>
<path d="M-219.855 878.47L-229.545 842.428C-230.414 839.404 -231.282 837.539 -232.151 836.815C-233.019 836.099 -234.949 835.737 -237.933 835.737C-241.109 835.737 -243.128 836.099 -243.996 836.815C-244.977 837.571 -245.829 839.436 -246.545 842.428L-255.954 878.47C-256.107 879.073 -255.881 879.379 -255.27 879.379H-249.488C-249.263 879.379 -249.102 879.322 -249.006 879.21C-248.909 879.097 -248.829 878.848 -248.749 878.47L-239.855 844.189C-239.589 843.168 -239.348 842.516 -239.115 842.235C-238.89 841.953 -238.488 841.809 -237.925 841.809C-237.474 841.809 -237.153 841.937 -236.96 842.203C-236.767 842.468 -236.525 843.128 -236.22 844.189L-227.036 878.47C-226.964 878.848 -226.876 879.097 -226.779 879.21C-226.683 879.322 -226.522 879.379 -226.297 879.379H-220.515C-219.912 879.379 -219.687 879.073 -219.831 878.47H-219.855Z" fill="url(#paint79_linear_0_1)"/>
<path d="M-68.3945 723.223L-78.0845 687.181C-78.953 684.157 -79.8214 682.292 -80.6899 681.568C-81.5584 680.852 -83.4884 680.491 -86.4718 680.491C-89.6482 680.491 -91.6666 680.852 -92.535 681.568C-93.5161 682.324 -94.3685 684.19 -95.0842 687.181L-104.493 723.223C-104.646 723.826 -104.42 724.132 -103.809 724.132H-98.0274C-97.8022 724.132 -97.6414 724.076 -97.5449 723.963C-97.4484 723.85 -97.368 723.601 -97.2876 723.223L-88.3937 688.942C-88.1283 687.921 -87.8871 687.27 -87.6539 686.988C-87.4287 686.707 -87.0266 686.562 -86.4637 686.562C-86.0134 686.562 -85.6917 686.691 -85.4987 686.956C-85.3058 687.221 -85.0645 687.881 -84.7589 688.942L-75.5755 723.223C-75.5032 723.601 -75.4147 723.85 -75.3182 723.963C-75.2217 724.076 -75.0609 724.132 -74.8357 724.132H-69.0539C-68.4507 724.132 -68.2256 723.826 -68.3703 723.223H-68.3945Z" fill="url(#paint80_linear_0_1)"/>
<path d="M-68.3945 800.845L-78.0845 764.803C-78.953 761.78 -79.8214 759.914 -80.6899 759.19C-81.5584 758.474 -83.4884 758.113 -86.4718 758.113C-89.6482 758.113 -91.6666 758.474 -92.535 759.19C-93.5161 759.946 -94.3685 761.812 -95.0842 764.803L-104.493 800.845C-104.646 801.448 -104.42 801.754 -103.809 801.754H-98.0274C-97.8022 801.754 -97.6414 801.698 -97.5449 801.585C-97.4484 801.472 -97.368 801.223 -97.2876 800.845L-88.3937 766.564C-88.1283 765.543 -87.8871 764.892 -87.6539 764.61C-87.4287 764.329 -87.0266 764.184 -86.4637 764.184C-86.0134 764.184 -85.6917 764.313 -85.4987 764.578C-85.3058 764.843 -85.0645 765.503 -84.7589 766.564L-75.5755 800.845C-75.5032 801.223 -75.4147 801.472 -75.3182 801.585C-75.2217 801.698 -75.0609 801.754 -74.8357 801.754H-69.0539C-68.4507 801.754 -68.2256 801.448 -68.3703 800.845H-68.3945Z" fill="url(#paint81_linear_0_1)"/>
<path d="M-68.3945 878.47L-78.0845 842.428C-78.953 839.404 -79.8214 837.539 -80.6899 836.815C-81.5584 836.099 -83.4884 835.737 -86.4718 835.737C-89.6482 835.737 -91.6666 836.099 -92.535 836.815C-93.5161 837.571 -94.3685 839.436 -95.0842 842.428L-104.493 878.47C-104.646 879.073 -104.42 879.379 -103.809 879.379H-98.0274C-97.8022 879.379 -97.6414 879.322 -97.5449 879.21C-97.4484 879.097 -97.368 878.848 -97.2876 878.47L-88.3937 844.189C-88.1283 843.168 -87.8871 842.516 -87.6539 842.235C-87.4287 841.953 -87.0266 841.809 -86.4637 841.809C-86.0134 841.809 -85.6917 841.937 -85.4987 842.203C-85.3058 842.468 -85.0645 843.128 -84.7589 844.189L-75.5755 878.47C-75.5032 878.848 -75.4147 879.097 -75.3182 879.21C-75.2217 879.322 -75.0609 879.379 -74.8357 879.379H-69.0539C-68.4507 879.379 -68.2256 879.073 -68.3703 878.47H-68.3945Z" fill="url(#paint82_linear_0_1)"/>
<path d="M303.916 680.781H298.134C297.909 680.781 297.748 680.837 297.652 680.95C297.555 681.062 297.475 681.311 297.394 681.689L288.211 715.97C287.905 717.032 287.664 717.691 287.471 717.957C287.286 718.222 286.964 718.351 286.506 718.351C285.943 718.351 285.541 718.206 285.316 717.924C285.091 717.643 284.841 716.992 284.576 715.97L275.698 681.689C275.626 681.311 275.537 681.062 275.441 680.95C275.344 680.837 275.184 680.781 274.958 680.781H269.177C268.573 680.781 268.348 681.086 268.493 681.689L277.902 717.731C278.617 720.715 279.47 722.589 280.451 723.344C281.319 724.06 283.338 724.422 286.514 724.422C289.497 724.422 291.427 724.06 292.296 723.344C293.164 722.629 294.033 720.755 294.901 717.731L304.599 681.689C304.752 681.086 304.527 680.781 303.916 680.781Z" fill="url(#paint83_linear_0_1)"/>
<path d="M303.916 758.157H298.134C297.909 758.157 297.748 758.213 297.652 758.326C297.555 758.438 297.475 758.688 297.394 759.065L288.211 793.346C287.905 794.408 287.664 795.067 287.471 795.333C287.286 795.598 286.964 795.727 286.506 795.727C285.943 795.727 285.541 795.582 285.316 795.301C285.091 795.019 284.841 794.368 284.576 793.346L275.698 759.065C275.626 758.688 275.537 758.438 275.441 758.326C275.344 758.213 275.184 758.157 274.958 758.157H269.177C268.573 758.157 268.348 758.462 268.493 759.065L277.902 795.108C278.617 798.091 279.47 799.965 280.451 800.72C281.319 801.436 283.338 801.798 286.514 801.798C289.497 801.798 291.427 801.436 292.296 800.72C293.164 800.005 294.033 798.131 294.901 795.108L304.599 759.065C304.752 758.462 304.527 758.157 303.916 758.157Z" fill="url(#paint84_linear_0_1)"/>
<path d="M603.27 758.113H597.488C597.263 758.113 597.103 758.169 597.006 758.281C596.91 758.394 596.829 758.643 596.749 759.021L587.565 793.302C587.26 794.364 587.018 795.023 586.825 795.288C586.641 795.554 586.319 795.682 585.86 795.682C585.298 795.682 584.895 795.538 584.67 795.256C584.445 794.975 584.196 794.323 583.93 793.302L575.053 759.021C574.98 758.643 574.892 758.394 574.795 758.281C574.699 758.169 574.538 758.113 574.313 758.113H568.531C567.928 758.113 567.703 758.418 567.847 759.021L577.256 795.063C577.972 798.047 578.824 799.92 579.805 800.676C580.674 801.392 582.692 801.754 585.869 801.754C588.852 801.754 590.782 801.392 591.65 800.676C592.519 799.961 593.387 798.087 594.256 795.063L603.954 759.021C604.107 758.418 603.881 758.113 603.27 758.113Z" fill="url(#paint85_linear_0_1)"/>
<path d="M603.27 680.491H597.488C597.263 680.491 597.103 680.547 597.006 680.659C596.91 680.772 596.829 681.021 596.749 681.399L587.565 715.68C587.26 716.742 587.018 717.401 586.825 717.666C586.641 717.932 586.319 718.06 585.86 718.06C585.298 718.06 584.895 717.916 584.67 717.634C584.445 717.353 584.196 716.701 583.93 715.68L575.053 681.399C574.98 681.021 574.892 680.772 574.795 680.659C574.699 680.547 574.538 680.491 574.313 680.491H568.531C567.928 680.491 567.703 680.796 567.847 681.399L577.256 717.441C577.972 720.425 578.824 722.298 579.805 723.054C580.674 723.77 582.692 724.132 585.869 724.132C588.852 724.132 590.782 723.77 591.65 723.054C592.519 722.339 593.387 720.465 594.256 717.441L603.954 681.399C604.107 680.796 603.881 680.491 603.27 680.491Z" fill="url(#paint86_linear_0_1)"/>
<path d="M229.088 878.47L219.398 842.428C218.529 839.404 217.661 837.539 216.792 836.815C215.924 836.099 213.994 835.737 211.01 835.737C207.834 835.737 205.816 836.099 204.947 836.815C203.966 837.571 203.114 839.436 202.398 842.428L192.989 878.47C192.837 879.073 193.062 879.379 193.673 879.379H199.455C199.68 879.379 199.841 879.322 199.937 879.21C200.034 879.097 200.114 878.848 200.195 878.47L209.088 844.189C209.354 843.168 209.595 842.516 209.828 842.235C210.053 841.953 210.456 841.809 211.018 841.809C211.469 841.809 211.79 841.937 211.983 842.203C212.176 842.468 212.418 843.128 212.723 844.189L221.907 878.47C221.979 878.848 222.067 879.097 222.164 879.21C222.26 879.322 222.421 879.379 222.646 879.379H228.428C229.031 879.379 229.257 879.073 229.112 878.47H229.088Z" fill="url(#paint87_linear_0_1)"/>
<path d="M380.549 723.223L370.859 687.181C369.99 684.157 369.122 682.292 368.253 681.568C367.385 680.852 365.455 680.491 362.471 680.491C359.295 680.491 357.276 680.852 356.408 681.568C355.427 682.324 354.575 684.19 353.859 687.181L344.45 723.223C344.298 723.826 344.523 724.132 345.134 724.132H350.916C351.141 724.132 351.302 724.076 351.398 723.963C351.495 723.85 351.575 723.601 351.656 723.223L360.549 688.942C360.815 687.921 361.056 687.27 361.289 686.988C361.514 686.707 361.916 686.562 362.479 686.562C362.93 686.562 363.251 686.691 363.444 686.956C363.637 687.221 363.879 687.881 364.184 688.942L373.368 723.223C373.44 723.601 373.528 723.85 373.625 723.963C373.721 724.076 373.882 724.132 374.107 724.132H379.889C380.492 724.132 380.718 723.826 380.573 723.223H380.549Z" fill="url(#paint88_linear_0_1)"/>
<path d="M380.549 800.845L370.859 764.803C369.99 761.78 369.122 759.914 368.253 759.19C367.385 758.474 365.455 758.113 362.471 758.113C359.295 758.113 357.276 758.474 356.408 759.19C355.427 759.946 354.575 761.812 353.859 764.803L344.45 800.845C344.298 801.448 344.523 801.754 345.134 801.754H350.916C351.141 801.754 351.302 801.698 351.398 801.585C351.495 801.472 351.575 801.223 351.656 800.845L360.549 766.564C360.815 765.543 361.056 764.892 361.289 764.61C361.514 764.329 361.916 764.184 362.479 764.184C362.93 764.184 363.251 764.313 363.444 764.578C363.637 764.843 363.879 765.503 364.184 766.564L373.368 800.845C373.44 801.223 373.528 801.472 373.625 801.585C373.721 801.698 373.882 801.754 374.107 801.754H379.889C380.492 801.754 380.718 801.448 380.573 800.845H380.549Z" fill="url(#paint89_linear_0_1)"/>
<path d="M380.549 878.47L370.859 842.428C369.99 839.404 369.122 837.539 368.253 836.815C367.385 836.099 365.455 835.737 362.471 835.737C359.295 835.737 357.276 836.099 356.408 836.815C355.427 837.571 354.575 839.436 353.859 842.428L344.45 878.47C344.298 879.073 344.523 879.379 345.134 879.379H350.916C351.141 879.379 351.302 879.322 351.398 879.21C351.495 879.097 351.575 878.848 351.656 878.47L360.549 844.189C360.815 843.168 361.056 842.516 361.289 842.235C361.514 841.953 361.916 841.809 362.479 841.809C362.93 841.809 363.251 841.937 363.444 842.203C363.637 842.468 363.879 843.128 364.184 844.189L373.368 878.47C373.44 878.848 373.528 879.097 373.625 879.21C373.721 879.322 373.882 879.379 374.107 879.379H379.889C380.492 879.379 380.718 879.073 380.573 878.47H380.549Z" fill="url(#paint90_linear_0_1)"/>
<path d="M528.222 878.47L518.532 842.428C517.664 839.404 516.795 837.539 515.927 836.815C515.058 836.099 513.128 835.737 510.145 835.737C506.969 835.737 504.95 836.099 504.082 836.815C503.101 837.571 502.248 839.436 501.533 842.428L492.124 878.47C491.971 879.073 492.196 879.379 492.808 879.379H498.589C498.815 879.379 498.975 879.322 499.072 879.21C499.168 879.097 499.249 878.848 499.329 878.47L508.223 844.189C508.488 843.168 508.73 842.516 508.963 842.235C509.188 841.953 509.59 841.809 510.153 841.809C510.603 841.809 510.925 841.937 511.118 842.203C511.311 842.468 511.552 843.128 511.858 844.189L521.041 878.47C521.114 878.848 521.202 879.097 521.299 879.21C521.395 879.322 521.556 879.379 521.781 879.379H527.563C528.166 879.379 528.391 879.073 528.247 878.47H528.222Z" fill="url(#paint91_linear_0_1)"/>
<path d="M528.222 800.845L518.532 764.803C517.664 761.78 516.795 759.914 515.927 759.19C515.058 758.474 513.128 758.113 510.145 758.113C506.969 758.113 504.95 758.474 504.082 759.19C503.101 759.946 502.248 761.812 501.533 764.803L492.124 800.845C491.971 801.448 492.196 801.754 492.808 801.754H498.589C498.815 801.754 498.975 801.698 499.072 801.585C499.168 801.472 499.249 801.223 499.329 800.845L508.223 766.564C508.488 765.543 508.73 764.892 508.963 764.61C509.188 764.329 509.59 764.184 510.153 764.184C510.603 764.184 510.925 764.313 511.118 764.578C511.311 764.843 511.552 765.503 511.858 766.564L521.041 800.845C521.114 801.223 521.202 801.472 521.299 801.585C521.395 801.698 521.556 801.754 521.781 801.754H527.563C528.166 801.754 528.391 801.448 528.247 800.845H528.222Z" fill="url(#paint92_linear_0_1)"/>
<defs>
<linearGradient id="paint0_linear_0_1" x1="-256" y1="50.9356" x2="587.267" y2="270.949" gradientUnits="userSpaceOnUse">
<stop stop-color="white"/>
<stop offset="1" stop-color="white" stop-opacity="0"/>
</linearGradient>
<linearGradient id="paint1_linear_0_1" x1="-256" y1="50.9356" x2="587.267" y2="270.949" gradientUnits="userSpaceOnUse">
<stop stop-color="white"/>
<stop offset="1" stop-color="white" stop-opacity="0"/>
</linearGradient>
<linearGradient id="paint2_linear_0_1" x1="-256" y1="50.9356" x2="587.267" y2="270.949" gradientUnits="userSpaceOnUse">
<stop stop-color="white"/>
<stop offset="1" stop-color="white" stop-opacity="0"/>
</linearGradient>
<linearGradient id="paint3_linear_0_1" x1="-256" y1="50.9356" x2="587.267" y2="270.949" gradientUnits="userSpaceOnUse">
<stop stop-color="white"/>
<stop offset="1" stop-color="white" stop-opacity="0"/>
</linearGradient>
<linearGradient id="paint4_linear_0_1" x1="-256" y1="50.9356" x2="587.267" y2="270.949" gradientUnits="userSpaceOnUse">
<stop stop-color="white"/>
<stop offset="1" stop-color="white" stop-opacity="0"/>
</linearGradient>
<linearGradient id="paint5_linear_0_1" x1="-256" y1="50.9356" x2="587.267" y2="270.949" gradientUnits="userSpaceOnUse">
<stop stop-color="white"/>
<stop offset="1" stop-color="white" stop-opacity="0"/>
</linearGradient>
<linearGradient id="paint6_linear_0_1" x1="-256" y1="50.9356" x2="587.267" y2="270.949" gradientUnits="userSpaceOnUse">
<stop stop-color="white"/>
<stop offset="1" stop-color="white" stop-opacity="0"/>
</linearGradient>
<linearGradient id="paint7_linear_0_1" x1="-256" y1="50.9356" x2="587.267" y2="270.949" gradientUnits="userSpaceOnUse">
<stop stop-color="white"/>
<stop offset="1" stop-color="white" stop-opacity="0"/>
</linearGradient>
<linearGradient id="paint8_linear_0_1" x1="-256" y1="50.9356" x2="587.267" y2="270.949" gradientUnits="userSpaceOnUse">
<stop stop-color="white"/>
<stop offset="1" stop-color="white" stop-opacity="0"/>
</linearGradient>
<linearGradient id="paint9_linear_0_1" x1="-256" y1="50.9356" x2="587.267" y2="270.949" gradientUnits="userSpaceOnUse">
<stop stop-color="white"/>
<stop offset="1" stop-color="white" stop-opacity="0"/>
</linearGradient>
<linearGradient id="paint10_linear_0_1" x1="-256" y1="50.9356" x2="587.267" y2="270.949" gradientUnits="userSpaceOnUse">
<stop stop-color="white"/>
<stop offset="1" stop-color="white" stop-opacity="0"/>
</linearGradient>
<linearGradient id="paint11_linear_0_1" x1="-256" y1="50.9356" x2="587.267" y2="270.949" gradientUnits="userSpaceOnUse">
<stop stop-color="white"/>
<stop offset="1" stop-color="white" stop-opacity="0"/>
</linearGradient>
<linearGradient id="paint12_linear_0_1" x1="-256" y1="50.9356" x2="587.267" y2="270.949" gradientUnits="userSpaceOnUse">
<stop stop-color="white"/>
<stop offset="1" stop-color="white" stop-opacity="0"/>
</linearGradient>
<linearGradient id="paint13_linear_0_1" x1="-256" y1="50.9356" x2="587.267" y2="270.949" gradientUnits="userSpaceOnUse">
<stop stop-color="white"/>
<stop offset="1" stop-color="white" stop-opacity="0"/>
</linearGradient>
<linearGradient id="paint14_linear_0_1" x1="-256" y1="50.9356" x2="587.267" y2="270.949" gradientUnits="userSpaceOnUse">
<stop stop-color="white"/>
<stop offset="1" stop-color="white" stop-opacity="0"/>
</linearGradient>
<linearGradient id="paint15_linear_0_1" x1="-256" y1="50.9356" x2="587.267" y2="270.949" gradientUnits="userSpaceOnUse">
<stop stop-color="white"/>
<stop offset="1" stop-color="white" stop-opacity="0"/>
</linearGradient>
<linearGradient id="paint16_linear_0_1" x1="-256" y1="50.9356" x2="587.267" y2="270.949" gradientUnits="userSpaceOnUse">
<stop stop-color="white"/>
<stop offset="1" stop-color="white" stop-opacity="0"/>
</linearGradient>
<linearGradient id="paint17_linear_0_1" x1="-256" y1="50.9356" x2="587.267" y2="270.949" gradientUnits="userSpaceOnUse">
<stop stop-color="white"/>
<stop offset="1" stop-color="white" stop-opacity="0"/>
</linearGradient>
<linearGradient id="paint18_linear_0_1" x1="-256" y1="50.9356" x2="587.267" y2="270.949" gradientUnits="userSpaceOnUse">
<stop stop-color="white"/>
<stop offset="1" stop-color="white" stop-opacity="0"/>
</linearGradient>
<linearGradient id="paint19_linear_0_1" x1="-256" y1="50.9356" x2="587.267" y2="270.949" gradientUnits="userSpaceOnUse">
<stop stop-color="white"/>
<stop offset="1" stop-color="white" stop-opacity="0"/>
</linearGradient>
<linearGradient id="paint20_linear_0_1" x1="-256" y1="50.9356" x2="587.267" y2="270.949" gradientUnits="userSpaceOnUse">
<stop stop-color="white"/>
<stop offset="1" stop-color="white" stop-opacity="0"/>
</linearGradient>
<linearGradient id="paint21_linear_0_1" x1="-256" y1="50.9356" x2="587.267" y2="270.949" gradientUnits="userSpaceOnUse">
<stop stop-color="white"/>
<stop offset="1" stop-color="white" stop-opacity="0"/>
</linearGradient>
<linearGradient id="paint22_linear_0_1" x1="-256" y1="50.9356" x2="587.267" y2="270.949" gradientUnits="userSpaceOnUse">
<stop stop-color="white"/>
<stop offset="1" stop-color="white" stop-opacity="0"/>
</linearGradient>
<linearGradient id="paint23_linear_0_1" x1="-256" y1="50.9356" x2="587.267" y2="270.949" gradientUnits="userSpaceOnUse">
<stop stop-color="white"/>
<stop offset="1" stop-color="white" stop-opacity="0"/>
</linearGradient>
<linearGradient id="paint24_linear_0_1" x1="-256" y1="50.9356" x2="587.267" y2="270.949" gradientUnits="userSpaceOnUse">
<stop stop-color="white"/>
<stop offset="1" stop-color="white" stop-opacity="0"/>
</linearGradient>
<linearGradient id="paint25_linear_0_1" x1="-256" y1="50.9356" x2="587.267" y2="270.949" gradientUnits="userSpaceOnUse">
<stop stop-color="white"/>
<stop offset="1" stop-color="white" stop-opacity="0"/>
</linearGradient>
<linearGradient id="paint26_linear_0_1" x1="-256" y1="50.9356" x2="587.267" y2="270.949" gradientUnits="userSpaceOnUse">
<stop stop-color="white"/>
<stop offset="1" stop-color="white" stop-opacity="0"/>
</linearGradient>
<linearGradient id="paint27_linear_0_1" x1="-256" y1="50.9356" x2="587.267" y2="270.949" gradientUnits="userSpaceOnUse">
<stop stop-color="white"/>
<stop offset="1" stop-color="white" stop-opacity="0"/>
</linearGradient>
<linearGradient id="paint28_linear_0_1" x1="-256" y1="50.9356" x2="587.267" y2="270.949" gradientUnits="userSpaceOnUse">
<stop stop-color="white"/>
<stop offset="1" stop-color="white" stop-opacity="0"/>
</linearGradient>
<linearGradient id="paint29_linear_0_1" x1="-256" y1="50.9356" x2="587.267" y2="270.949" gradientUnits="userSpaceOnUse">
<stop stop-color="white"/>
<stop offset="1" stop-color="white" stop-opacity="0"/>
</linearGradient>
<linearGradient id="paint30_linear_0_1" x1="-256" y1="50.9356" x2="587.267" y2="270.949" gradientUnits="userSpaceOnUse">
<stop stop-color="white"/>
<stop offset="1" stop-color="white" stop-opacity="0"/>
</linearGradient>
<linearGradient id="paint31_linear_0_1" x1="-256" y1="50.9356" x2="587.267" y2="270.949" gradientUnits="userSpaceOnUse">
<stop stop-color="white"/>
<stop offset="1" stop-color="white" stop-opacity="0"/>
</linearGradient>
<linearGradient id="paint32_linear_0_1" x1="-256" y1="50.9356" x2="587.267" y2="270.949" gradientUnits="userSpaceOnUse">
<stop stop-color="white"/>
<stop offset="1" stop-color="white" stop-opacity="0"/>
</linearGradient>
<linearGradient id="paint33_linear_0_1" x1="-256" y1="50.9356" x2="587.267" y2="270.949" gradientUnits="userSpaceOnUse">
<stop stop-color="white"/>
<stop offset="1" stop-color="white" stop-opacity="0"/>
</linearGradient>
<linearGradient id="paint34_linear_0_1" x1="-256" y1="50.9356" x2="587.267" y2="270.949" gradientUnits="userSpaceOnUse">
<stop stop-color="white"/>
<stop offset="1" stop-color="white" stop-opacity="0"/>
</linearGradient>
<linearGradient id="paint35_linear_0_1" x1="-256" y1="50.9356" x2="587.267" y2="270.949" gradientUnits="userSpaceOnUse">
<stop stop-color="white"/>
<stop offset="1" stop-color="white" stop-opacity="0"/>
</linearGradient>
<linearGradient id="paint36_linear_0_1" x1="-256" y1="50.9356" x2="587.267" y2="270.949" gradientUnits="userSpaceOnUse">
<stop stop-color="white"/>
<stop offset="1" stop-color="white" stop-opacity="0"/>
</linearGradient>
<linearGradient id="paint37_linear_0_1" x1="-256" y1="50.9356" x2="587.267" y2="270.949" gradientUnits="userSpaceOnUse">
<stop stop-color="white"/>
<stop offset="1" stop-color="white" stop-opacity="0"/>
</linearGradient>
<linearGradient id="paint38_linear_0_1" x1="-256" y1="50.9356" x2="587.267" y2="270.949" gradientUnits="userSpaceOnUse">
<stop stop-color="white"/>
<stop offset="1" stop-color="white" stop-opacity="0"/>
</linearGradient>
<linearGradient id="paint39_linear_0_1" x1="-256" y1="50.9356" x2="587.267" y2="270.949" gradientUnits="userSpaceOnUse">
<stop stop-color="white"/>
<stop offset="1" stop-color="white" stop-opacity="0"/>
</linearGradient>
<linearGradient id="paint40_linear_0_1" x1="-256" y1="50.9356" x2="587.267" y2="270.949" gradientUnits="userSpaceOnUse">
<stop stop-color="white"/>
<stop offset="1" stop-color="white" stop-opacity="0"/>
</linearGradient>
<linearGradient id="paint41_linear_0_1" x1="-256" y1="50.9356" x2="587.267" y2="270.949" gradientUnits="userSpaceOnUse">
<stop stop-color="white"/>
<stop offset="1" stop-color="white" stop-opacity="0"/>
</linearGradient>
<linearGradient id="paint42_linear_0_1" x1="-256" y1="50.9356" x2="587.267" y2="270.949" gradientUnits="userSpaceOnUse">
<stop stop-color="white"/>
<stop offset="1" stop-color="white" stop-opacity="0"/>
</linearGradient>
<linearGradient id="paint43_linear_0_1" x1="-256" y1="50.9356" x2="587.267" y2="270.949" gradientUnits="userSpaceOnUse">
<stop stop-color="white"/>
<stop offset="1" stop-color="white" stop-opacity="0"/>
</linearGradient>
<linearGradient id="paint44_linear_0_1" x1="-256" y1="50.9356" x2="587.267" y2="270.949" gradientUnits="userSpaceOnUse">
<stop stop-color="white"/>
<stop offset="1" stop-color="white" stop-opacity="0"/>
</linearGradient>
<linearGradient id="paint45_linear_0_1" x1="-256" y1="50.9356" x2="587.267" y2="270.949" gradientUnits="userSpaceOnUse">
<stop stop-color="white"/>
<stop offset="1" stop-color="white" stop-opacity="0"/>
</linearGradient>
<linearGradient id="paint46_linear_0_1" x1="-256" y1="50.9356" x2="587.267" y2="270.949" gradientUnits="userSpaceOnUse">
<stop stop-color="white"/>
<stop offset="1" stop-color="white" stop-opacity="0"/>
</linearGradient>
<linearGradient id="paint47_linear_0_1" x1="-256" y1="50.9356" x2="587.267" y2="270.949" gradientUnits="userSpaceOnUse">
<stop stop-color="white"/>
<stop offset="1" stop-color="white" stop-opacity="0"/>
</linearGradient>
<linearGradient id="paint48_linear_0_1" x1="-256" y1="50.9356" x2="587.267" y2="270.949" gradientUnits="userSpaceOnUse">
<stop stop-color="white"/>
<stop offset="1" stop-color="white" stop-opacity="0"/>
</linearGradient>
<linearGradient id="paint49_linear_0_1" x1="-256" y1="50.9356" x2="587.267" y2="270.949" gradientUnits="userSpaceOnUse">
<stop stop-color="white"/>
<stop offset="1" stop-color="white" stop-opacity="0"/>
</linearGradient>
<linearGradient id="paint50_linear_0_1" x1="-256" y1="505.936" x2="358" y2="879" gradientUnits="userSpaceOnUse">
<stop stop-color="white"/>
<stop offset="1" stop-color="white" stop-opacity="0"/>
</linearGradient>
<linearGradient id="paint51_linear_0_1" x1="-256" y1="505.936" x2="358" y2="879" gradientUnits="userSpaceOnUse">
<stop stop-color="white"/>
<stop offset="1" stop-color="white" stop-opacity="0"/>
</linearGradient>
<linearGradient id="paint52_linear_0_1" x1="-256" y1="505.936" x2="358" y2="879" gradientUnits="userSpaceOnUse">
<stop stop-color="white"/>
<stop offset="1" stop-color="white" stop-opacity="0"/>
</linearGradient>
<linearGradient id="paint53_linear_0_1" x1="-256" y1="505.936" x2="358" y2="879" gradientUnits="userSpaceOnUse">
<stop stop-color="white"/>
<stop offset="1" stop-color="white" stop-opacity="0"/>
</linearGradient>
<linearGradient id="paint54_linear_0_1" x1="-256" y1="505.936" x2="358" y2="879" gradientUnits="userSpaceOnUse">
<stop stop-color="white"/>
<stop offset="1" stop-color="white" stop-opacity="0"/>
</linearGradient>
<linearGradient id="paint55_linear_0_1" x1="-256" y1="505.936" x2="358" y2="879" gradientUnits="userSpaceOnUse">
<stop stop-color="white"/>
<stop offset="1" stop-color="white" stop-opacity="0"/>
</linearGradient>
<linearGradient id="paint56_linear_0_1" x1="-256" y1="505.936" x2="358" y2="879" gradientUnits="userSpaceOnUse">
<stop stop-color="white"/>
<stop offset="1" stop-color="white" stop-opacity="0"/>
</linearGradient>
<linearGradient id="paint57_linear_0_1" x1="-256" y1="505.936" x2="358" y2="879" gradientUnits="userSpaceOnUse">
<stop stop-color="white"/>
<stop offset="1" stop-color="white" stop-opacity="0"/>
</linearGradient>
<linearGradient id="paint58_linear_0_1" x1="-256" y1="505.936" x2="358" y2="879" gradientUnits="userSpaceOnUse">
<stop stop-color="white"/>
<stop offset="1" stop-color="white" stop-opacity="0"/>
</linearGradient>
<linearGradient id="paint59_linear_0_1" x1="-256" y1="505.936" x2="358" y2="879" gradientUnits="userSpaceOnUse">
<stop stop-color="white"/>
<stop offset="1" stop-color="white" stop-opacity="0"/>
</linearGradient>
<linearGradient id="paint60_linear_0_1" x1="-256" y1="505.936" x2="358" y2="879" gradientUnits="userSpaceOnUse">
<stop stop-color="white"/>
<stop offset="1" stop-color="white" stop-opacity="0"/>
</linearGradient>
<linearGradient id="paint61_linear_0_1" x1="-256" y1="505.936" x2="358" y2="879" gradientUnits="userSpaceOnUse">
<stop stop-color="white"/>
<stop offset="1" stop-color="white" stop-opacity="0"/>
</linearGradient>
<linearGradient id="paint62_linear_0_1" x1="-256" y1="505.936" x2="358" y2="879" gradientUnits="userSpaceOnUse">
<stop stop-color="white"/>
<stop offset="1" stop-color="white" stop-opacity="0"/>
</linearGradient>
<linearGradient id="paint63_linear_0_1" x1="-256" y1="505.936" x2="358" y2="879" gradientUnits="userSpaceOnUse">
<stop stop-color="white"/>
<stop offset="1" stop-color="white" stop-opacity="0"/>
</linearGradient>
<linearGradient id="paint64_linear_0_1" x1="-256" y1="505.936" x2="358" y2="879" gradientUnits="userSpaceOnUse">
<stop stop-color="white"/>
<stop offset="1" stop-color="white" stop-opacity="0"/>
</linearGradient>
<linearGradient id="paint65_linear_0_1" x1="-256" y1="505.936" x2="358" y2="879" gradientUnits="userSpaceOnUse">
<stop stop-color="white"/>
<stop offset="1" stop-color="white" stop-opacity="0"/>
</linearGradient>
<linearGradient id="paint66_linear_0_1" x1="-256" y1="505.936" x2="358" y2="879" gradientUnits="userSpaceOnUse">
<stop stop-color="white"/>
<stop offset="1" stop-color="white" stop-opacity="0"/>
</linearGradient>
<linearGradient id="paint67_linear_0_1" x1="-256" y1="505.936" x2="358" y2="879" gradientUnits="userSpaceOnUse">
<stop stop-color="white"/>
<stop offset="1" stop-color="white" stop-opacity="0"/>
</linearGradient>
<linearGradient id="paint68_linear_0_1" x1="-256" y1="505.936" x2="358" y2="879" gradientUnits="userSpaceOnUse">
<stop stop-color="white"/>
<stop offset="1" stop-color="white" stop-opacity="0"/>
</linearGradient>
<linearGradient id="paint69_linear_0_1" x1="-256" y1="505.936" x2="358" y2="879" gradientUnits="userSpaceOnUse">
<stop stop-color="white"/>
<stop offset="1" stop-color="white" stop-opacity="0"/>
</linearGradient>
<linearGradient id="paint70_linear_0_1" x1="-256" y1="505.936" x2="358" y2="879" gradientUnits="userSpaceOnUse">
<stop stop-color="white"/>
<stop offset="1" stop-color="white" stop-opacity="0"/>
</linearGradient>
<linearGradient id="paint71_linear_0_1" x1="-256" y1="505.936" x2="358" y2="879" gradientUnits="userSpaceOnUse">
<stop stop-color="white"/>
<stop offset="1" stop-color="white" stop-opacity="0"/>
</linearGradient>
<linearGradient id="paint72_linear_0_1" x1="-256" y1="505.936" x2="358" y2="879" gradientUnits="userSpaceOnUse">
<stop stop-color="white"/>
<stop offset="1" stop-color="white" stop-opacity="0"/>
</linearGradient>
<linearGradient id="paint73_linear_0_1" x1="-256" y1="505.936" x2="358" y2="879" gradientUnits="userSpaceOnUse">
<stop stop-color="white"/>
<stop offset="1" stop-color="white" stop-opacity="0"/>
</linearGradient>
<linearGradient id="paint74_linear_0_1" x1="-256" y1="505.936" x2="358" y2="879" gradientUnits="userSpaceOnUse">
<stop stop-color="white"/>
<stop offset="1" stop-color="white" stop-opacity="0"/>
</linearGradient>
<linearGradient id="paint75_linear_0_1" x1="-256" y1="505.936" x2="358" y2="879" gradientUnits="userSpaceOnUse">
<stop stop-color="white"/>
<stop offset="1" stop-color="white" stop-opacity="0"/>
</linearGradient>
<linearGradient id="paint76_linear_0_1" x1="-256" y1="505.936" x2="358" y2="879" gradientUnits="userSpaceOnUse">
<stop stop-color="white"/>
<stop offset="1" stop-color="white" stop-opacity="0"/>
</linearGradient>
<linearGradient id="paint77_linear_0_1" x1="-256" y1="505.936" x2="358" y2="879" gradientUnits="userSpaceOnUse">
<stop stop-color="white"/>
<stop offset="1" stop-color="white" stop-opacity="0"/>
</linearGradient>
<linearGradient id="paint78_linear_0_1" x1="-256" y1="505.936" x2="358" y2="879" gradientUnits="userSpaceOnUse">
<stop stop-color="white"/>
<stop offset="1" stop-color="white" stop-opacity="0"/>
</linearGradient>
<linearGradient id="paint79_linear_0_1" x1="-256" y1="505.936" x2="358" y2="879" gradientUnits="userSpaceOnUse">
<stop stop-color="white"/>
<stop offset="1" stop-color="white" stop-opacity="0"/>
</linearGradient>
<linearGradient id="paint80_linear_0_1" x1="-256" y1="505.936" x2="358" y2="879" gradientUnits="userSpaceOnUse">
<stop stop-color="white"/>
<stop offset="1" stop-color="white" stop-opacity="0"/>
</linearGradient>
<linearGradient id="paint81_linear_0_1" x1="-256" y1="505.936" x2="358" y2="879" gradientUnits="userSpaceOnUse">
<stop stop-color="white"/>
<stop offset="1" stop-color="white" stop-opacity="0"/>
</linearGradient>
<linearGradient id="paint82_linear_0_1" x1="-256" y1="505.936" x2="358" y2="879" gradientUnits="userSpaceOnUse">
<stop stop-color="white"/>
<stop offset="1" stop-color="white" stop-opacity="0"/>
</linearGradient>
<linearGradient id="paint83_linear_0_1" x1="-256" y1="505.936" x2="358" y2="879" gradientUnits="userSpaceOnUse">
<stop stop-color="white"/>
<stop offset="1" stop-color="white" stop-opacity="0"/>
</linearGradient>
<linearGradient id="paint84_linear_0_1" x1="-256" y1="505.936" x2="358" y2="879" gradientUnits="userSpaceOnUse">
<stop stop-color="white"/>
<stop offset="1" stop-color="white" stop-opacity="0"/>
</linearGradient>
<linearGradient id="paint85_linear_0_1" x1="-256" y1="505.936" x2="358" y2="879" gradientUnits="userSpaceOnUse">
<stop stop-color="white"/>
<stop offset="1" stop-color="white" stop-opacity="0"/>
</linearGradient>
<linearGradient id="paint86_linear_0_1" x1="-256" y1="505.936" x2="358" y2="879" gradientUnits="userSpaceOnUse">
<stop stop-color="white"/>
<stop offset="1" stop-color="white" stop-opacity="0"/>
</linearGradient>
<linearGradient id="paint87_linear_0_1" x1="-256" y1="505.936" x2="358" y2="879" gradientUnits="userSpaceOnUse">
<stop stop-color="white"/>
<stop offset="1" stop-color="white" stop-opacity="0"/>
</linearGradient>
<linearGradient id="paint88_linear_0_1" x1="-256" y1="505.936" x2="358" y2="879" gradientUnits="userSpaceOnUse">
<stop stop-color="white"/>
<stop offset="1" stop-color="white" stop-opacity="0"/>
</linearGradient>
<linearGradient id="paint89_linear_0_1" x1="-256" y1="505.936" x2="358" y2="879" gradientUnits="userSpaceOnUse">
<stop stop-color="white"/>
<stop offset="1" stop-color="white" stop-opacity="0"/>
</linearGradient>
<linearGradient id="paint90_linear_0_1" x1="-256" y1="505.936" x2="358" y2="879" gradientUnits="userSpaceOnUse">
<stop stop-color="white"/>
<stop offset="1" stop-color="white" stop-opacity="0"/>
</linearGradient>
<linearGradient id="paint91_linear_0_1" x1="-256" y1="505.936" x2="358" y2="879" gradientUnits="userSpaceOnUse">
<stop stop-color="white"/>
<stop offset="1" stop-color="white" stop-opacity="0"/>
</linearGradient>
<linearGradient id="paint92_linear_0_1" x1="-256" y1="505.936" x2="358" y2="879" gradientUnits="userSpaceOnUse">
<stop stop-color="white"/>
<stop offset="1" stop-color="white" stop-opacity="0"/>
</linearGradient>
</defs>
</svg>
