<svg width="1440" height="437" viewBox="0 0 1440 437" fill="none" xmlns="http://www.w3.org/2000/svg">
<path d="M-16 3.04688H1468.83L1448.36 378.747C1448.27 378.771 1448.17 378.795 1448.07 378.819C1447.15 379.046 1445.98 379.334 1444.57 379.678C1443.52 379.934 1442.34 380.221 1441.03 380.536C1434.9 382.016 1425.99 384.131 1414.88 386.668C1392.66 391.743 1361.64 398.507 1326.46 405.263C1256.04 418.788 1169.17 432.239 1102.78 432.127C999.897 431.954 914.692 420.439 829.347 407.964C823.198 407.065 817.048 406.161 810.891 405.256C731.6 393.602 651.066 381.766 555.28 378.125C441.517 373.801 297.769 387.686 182.571 402.624C124.949 410.097 74.4273 417.839 38.3096 423.713C20.2503 426.65 5.79104 429.12 -4.15536 430.856C-9.1286 431.724 -12.9737 432.409 -15.5765 432.877C-15.7215 432.903 -15.8627 432.928 -16 432.953V3.04688Z" fill="#55097B"/>
<path d="M-16 3.04688H1468.83L1448.36 378.747C1448.27 378.771 1448.17 378.795 1448.07 378.819C1447.15 379.046 1445.98 379.334 1444.57 379.678C1443.52 379.934 1442.34 380.221 1441.03 380.536C1434.9 382.016 1425.99 384.131 1414.88 386.668C1392.66 391.743 1361.64 398.507 1326.46 405.263C1256.04 418.788 1169.17 432.239 1102.78 432.127C999.897 431.954 914.692 420.439 829.347 407.964C823.198 407.065 817.048 406.161 810.891 405.256C731.6 393.602 651.066 381.766 555.28 378.125C441.517 373.801 297.769 387.686 182.571 402.624C124.949 410.097 74.4273 417.839 38.3096 423.713C20.2503 426.65 5.79104 429.12 -4.15536 430.856C-9.1286 431.724 -12.9737 432.409 -15.5765 432.877C-15.7215 432.903 -15.8627 432.928 -16 432.953V3.04688Z" fill="url(#paint0_linear_386_858)"/>
<path d="M-16 3.04688H1468.83L1448.36 378.747C1448.27 378.771 1448.17 378.795 1448.07 378.819C1447.15 379.046 1445.98 379.334 1444.57 379.678C1443.52 379.934 1442.34 380.221 1441.03 380.536C1434.9 382.016 1425.99 384.131 1414.88 386.668C1392.66 391.743 1361.64 398.507 1326.46 405.263C1256.04 418.788 1169.17 432.239 1102.78 432.127C999.897 431.954 914.692 420.439 829.347 407.964C823.198 407.065 817.048 406.161 810.891 405.256C731.6 393.602 651.066 381.766 555.28 378.125C441.517 373.801 297.769 387.686 182.571 402.624C124.949 410.097 74.4273 417.839 38.3096 423.713C20.2503 426.65 5.79104 429.12 -4.15536 430.856C-9.1286 431.724 -12.9737 432.409 -15.5765 432.877C-15.7215 432.903 -15.8627 432.928 -16 432.953V3.04688Z" stroke="black" stroke-width="6"/>
<path d="M-16 3.04688H1468.83L1448.36 378.747C1448.27 378.771 1448.17 378.795 1448.07 378.819C1447.15 379.046 1445.98 379.334 1444.57 379.678C1443.52 379.934 1442.34 380.221 1441.03 380.536C1434.9 382.016 1425.99 384.131 1414.88 386.668C1392.66 391.743 1361.64 398.507 1326.46 405.263C1256.04 418.788 1169.17 432.239 1102.78 432.127C999.897 431.954 914.692 420.439 829.347 407.964C823.198 407.065 817.048 406.161 810.891 405.256C731.6 393.602 651.066 381.766 555.28 378.125C441.517 373.801 297.769 387.686 182.571 402.624C124.949 410.097 74.4273 417.839 38.3096 423.713C20.2503 426.65 5.79104 429.12 -4.15536 430.856C-9.1286 431.724 -12.9737 432.409 -15.5765 432.877C-15.7215 432.903 -15.8627 432.928 -16 432.953V3.04688Z" stroke="url(#paint1_linear_386_858)" stroke-width="6"/>
<defs>
<linearGradient id="paint0_linear_386_858" x1="88.2124" y1="409.083" x2="648.457" y2="-475.122" gradientUnits="userSpaceOnUse">
<stop offset="0.174069" stop-color="#420C59"/>
<stop offset="0.546069" stop-color="#750853"/>
<stop offset="1" stop-color="#F00045"/>
</linearGradient>
<linearGradient id="paint1_linear_386_858" x1="2058.5" y1="279.547" x2="1250.01" y2="-803.448" gradientUnits="userSpaceOnUse">
<stop stop-color="#55097B"/>
<stop offset="0.82298" stop-color="#F00045"/>
</linearGradient>
</defs>
</svg>
