<svg width="1440" height="436" viewBox="0 0 1440 436" fill="none" xmlns="http://www.w3.org/2000/svg">
<path d="M1442 3H-42.832L-22.3629 378.7C-22.2686 378.724 -22.1711 378.748 -22.0707 378.773C-21.1519 379 -19.9807 379.287 -18.571 379.631C-17.5217 379.887 -16.3402 380.174 -15.0321 380.49C-8.90137 381.969 0.0090332 384.084 11.1196 386.621C33.3418 391.696 64.3597 398.46 99.5393 405.216C169.957 418.741 256.834 432.192 323.223 432.081C426.103 431.907 511.308 420.392 596.653 407.917C602.802 407.018 608.952 406.114 615.109 405.209C694.4 393.555 774.934 381.719 870.72 378.078C984.479 373.755 1128.22 387.283 1243.42 401.867C1301.04 409.161 1351.56 416.726 1387.68 422.466C1405.74 425.337 1420.2 427.751 1430.14 429.449C1435.12 430.298 1438.96 430.967 1441.57 431.425C1441.71 431.451 1441.86 431.476 1442 431.501V3Z" fill="#55097B"/>
<path d="M1442 3H-42.832L-22.3629 378.7C-22.2686 378.724 -22.1711 378.748 -22.0707 378.773C-21.1519 379 -19.9807 379.287 -18.571 379.631C-17.5217 379.887 -16.3402 380.174 -15.0321 380.49C-8.90137 381.969 0.0090332 384.084 11.1196 386.621C33.3418 391.696 64.3597 398.46 99.5393 405.216C169.957 418.741 256.834 432.192 323.223 432.081C426.103 431.907 511.308 420.392 596.653 407.917C602.802 407.018 608.952 406.114 615.109 405.209C694.4 393.555 774.934 381.719 870.72 378.078C984.479 373.755 1128.22 387.283 1243.42 401.867C1301.04 409.161 1351.56 416.726 1387.68 422.466C1405.74 425.337 1420.2 427.751 1430.14 429.449C1435.12 430.298 1438.96 430.967 1441.57 431.425C1441.71 431.451 1441.86 431.476 1442 431.501V3Z" fill="url(#paint0_linear_386_1695)"/>
<path d="M1442 3H-42.832L-22.3629 378.7C-22.2686 378.724 -22.1711 378.748 -22.0707 378.773C-21.1519 379 -19.9807 379.287 -18.571 379.631C-17.5217 379.887 -16.3402 380.174 -15.0321 380.49C-8.90137 381.969 0.0090332 384.084 11.1196 386.621C33.3418 391.696 64.3597 398.46 99.5393 405.216C169.957 418.741 256.834 432.192 323.223 432.081C426.103 431.907 511.308 420.392 596.653 407.917C602.802 407.018 608.952 406.114 615.109 405.209C694.4 393.555 774.934 381.719 870.72 378.078C984.479 373.755 1128.22 387.283 1243.42 401.867C1301.04 409.161 1351.56 416.726 1387.68 422.466C1405.74 425.337 1420.2 427.751 1430.14 429.449C1435.12 430.298 1438.96 430.967 1441.57 431.425C1441.71 431.451 1441.86 431.476 1442 431.501V3Z" stroke="black" stroke-width="6"/>
<path d="M1442 3H-42.832L-22.3629 378.7C-22.2686 378.724 -22.1711 378.748 -22.0707 378.773C-21.1519 379 -19.9807 379.287 -18.571 379.631C-17.5217 379.887 -16.3402 380.174 -15.0321 380.49C-8.90137 381.969 0.0090332 384.084 11.1196 386.621C33.3418 391.696 64.3597 398.46 99.5393 405.216C169.957 418.741 256.834 432.192 323.223 432.081C426.103 431.907 511.308 420.392 596.653 407.917C602.802 407.018 608.952 406.114 615.109 405.209C694.4 393.555 774.934 381.719 870.72 378.078C984.479 373.755 1128.22 387.283 1243.42 401.867C1301.04 409.161 1351.56 416.726 1387.68 422.466C1405.74 425.337 1420.2 427.751 1430.14 429.449C1435.12 430.298 1438.96 430.967 1441.57 431.425C1441.71 431.451 1441.86 431.476 1442 431.501V3Z" stroke="url(#paint1_linear_386_1695)" stroke-width="6"/>
<defs>
<linearGradient id="paint0_linear_386_1695" x1="740.144" y1="384.316" x2="863.038" y2="-62.7667" gradientUnits="userSpaceOnUse">
<stop stop-color="#55097B"/>
<stop offset="1" stop-color="#F00045"/>
</linearGradient>
<linearGradient id="paint1_linear_386_1695" x1="-632.5" y1="279.5" x2="175.986" y2="-803.495" gradientUnits="userSpaceOnUse">
<stop stop-color="#55097B"/>
<stop offset="0.82298" stop-color="#F00045"/>
</linearGradient>
</defs>
</svg>
