<svg width="135" height="137" viewBox="0 0 135 137" fill="none" xmlns="http://www.w3.org/2000/svg">
<path fill-rule="evenodd" clip-rule="evenodd" d="M16.9118 10.0314C10.7956 11.2888 5.1048 14.5958 5.24897 21.3734C5.30136 23.7832 6.10027 26.586 7.80936 29.7751C14.371 41.9881 43.3678 70.6578 58.1538 85.4891C58.2651 85.6004 58.4485 85.6004 58.5598 85.4891C73.3528 70.6566 102.343 41.9945 108.904 29.7751C112.683 22.742 112.833 15.925 105.564 12.0218C103.895 11.1247 101.943 10.4502 99.8018 10.018C99.625 9.97874 99.4613 10.1163 99.4613 10.2996V11.7992C99.4613 13.7179 98.0599 15.3224 96.1542 15.5712L92.1204 16.1016C90.4048 16.3242 88.8985 15.008 88.8985 13.2726V2.87367C88.8985 1.14495 90.4047 -0.17791 92.1204 0.0447178L96.1542 0.575152C98.0598 0.824 99.4613 2.42189 99.4613 4.34709V5.38829C99.4613 5.52581 99.5595 5.64368 99.697 5.66988C112.945 7.95534 120.26 17.6733 112.663 31.8119C105.669 44.8303 75.6311 74.3962 60.5769 89.5242C60.5245 89.5766 60.4917 89.6486 60.4917 89.7272V109.837C60.4917 117.768 66.9617 124.238 74.8918 124.238H75.4353C83.3656 124.238 89.8354 117.768 89.8354 109.837L89.8485 90.9057C89.8485 80.6115 98.2371 72.222 108.532 72.222H109.076C119.37 72.222 127.759 80.6106 127.759 90.9057V118.468C127.759 118.599 127.844 118.71 127.975 118.743C131.963 119.784 134.904 123.412 134.904 127.721C134.904 132.848 130.745 137 125.624 137C120.497 137 116.345 132.842 116.345 127.721C116.345 123.405 119.285 119.784 123.273 118.743C123.398 118.71 123.49 118.599 123.49 118.468L123.47 90.9057C123.47 82.9754 117 76.5056 109.07 76.5056H108.526C100.596 76.5056 94.1262 82.9756 94.1262 90.9057V109.824C94.1262 120.118 85.7376 128.508 75.4426 128.508H74.899C64.6048 128.508 56.2154 120.119 56.2154 109.824L56.2219 89.707C56.2219 89.6285 56.1957 89.563 56.1368 89.5041C41.0818 74.3836 11.0446 44.8175 4.05058 31.7918C-3.53905 17.6536 3.769 7.93639 17.0166 5.64976C17.1542 5.62357 17.2524 5.5057 17.2524 5.36817V4.32697C17.2524 2.40831 18.6538 0.803815 20.5594 0.555035L24.5932 0.0246007C26.3089 -0.198044 27.8151 1.11819 27.8151 2.85355V13.2525C27.8151 14.9812 26.309 16.3041 24.5932 16.0815L20.5594 15.551C18.6539 15.3022 17.2524 13.7043 17.2524 11.7791V10.2991C17.2524 10.1289 17.0886 9.99216 16.9118 10.0314ZM123.114 127.728C123.114 129.11 124.234 130.223 125.609 130.223C126.991 130.223 128.104 129.103 128.104 127.728C128.104 126.346 126.985 125.233 125.609 125.233C124.234 125.226 123.114 126.346 123.114 127.728Z" fill="white"/>
<path d="M66.3624 20.1178C66.3624 19.6732 66.1858 19.2468 65.8714 18.9324C65.557 18.618 65.1306 18.4414 64.686 18.4414H54.6275C54.1829 18.4414 53.7565 18.618 53.4421 18.9324C53.1277 19.2468 52.9511 19.6732 52.9511 20.1178V28.4999H44.569C44.1244 28.4999 43.698 28.6765 43.3836 28.9909C43.0692 29.3053 42.8926 29.7317 42.8926 30.1763V40.2348C42.8926 40.6794 43.0692 41.1058 43.3836 41.4202C43.698 41.7346 44.1244 41.9112 44.569 41.9112H52.9511V50.2933C52.9511 50.7379 53.1277 51.1643 53.4421 51.4787C53.7565 51.7931 54.1829 51.9697 54.6275 51.9697H64.686C65.1306 51.9697 65.557 51.7931 65.8714 51.4787C66.1858 51.1643 66.3624 50.7379 66.3624 50.2933V41.9112H74.7445C75.1891 41.9112 75.6155 41.7346 75.9299 41.4202C76.2443 41.1058 76.4209 40.6794 76.4209 40.2348V30.1763C76.4209 29.7317 76.2443 29.3053 75.9299 28.9909C75.6155 28.6765 75.1891 28.4999 74.7445 28.4999H66.3624V20.1178Z" stroke="white" stroke-width="4" stroke-linecap="round" stroke-linejoin="round"/>
</svg>
