<svg width="40" height="53" viewBox="0 0 40 53" fill="none" xmlns="http://www.w3.org/2000/svg">
<path d="M11.5846 34.7128H16.8464V39.9747C16.8464 40.5535 17.32 41.027 17.8988 41.027H22.1082C22.687 41.027 23.1606 40.5535 23.1606 39.9747V34.7128H28.4224C29.0012 34.7128 29.4748 34.2393 29.4748 33.6605V29.451C29.4748 28.8722 29.0012 28.3987 28.4224 28.3987H23.1606V23.1368C23.1606 22.558 22.687 22.0845 22.1082 22.0845H17.8988C17.32 22.0845 16.8464 22.558 16.8464 23.1368V28.3987H11.5846C11.0058 28.3987 10.5322 28.8722 10.5322 29.451V33.6605C10.5322 34.2393 11.0058 34.7128 11.5846 34.7128ZM12.637 30.5034H17.8988C18.4776 30.5034 18.9511 30.0298 18.9511 29.451V24.1892H21.0559V29.451C21.0559 30.0298 21.5294 30.5034 22.1082 30.5034H27.37V32.6081H22.1082C21.5294 32.6081 21.0559 33.0817 21.0559 33.6605V38.9223H18.9511V33.6605C18.9511 33.0817 18.4776 32.6081 17.8988 32.6081H12.637V30.5034Z" fill="black"/>
<path d="M11.5846 34.7128H16.8464V39.9747C16.8464 40.5535 17.32 41.027 17.8988 41.027H22.1082C22.687 41.027 23.1606 40.5535 23.1606 39.9747V34.7128H28.4224C29.0012 34.7128 29.4748 34.2393 29.4748 33.6605V29.451C29.4748 28.8722 29.0012 28.3987 28.4224 28.3987H23.1606V23.1368C23.1606 22.558 22.687 22.0845 22.1082 22.0845H17.8988C17.32 22.0845 16.8464 22.558 16.8464 23.1368V28.3987H11.5846C11.0058 28.3987 10.5322 28.8722 10.5322 29.451V33.6605C10.5322 34.2393 11.0058 34.7128 11.5846 34.7128ZM12.637 30.5034H17.8988C18.4776 30.5034 18.9511 30.0298 18.9511 29.451V24.1892H21.0559V29.451C21.0559 30.0298 21.5294 30.5034 22.1082 30.5034H27.37V32.6081H22.1082C21.5294 32.6081 21.0559 33.0817 21.0559 33.6605V38.9223H18.9511V33.6605C18.9511 33.0817 18.4776 32.6081 17.8988 32.6081H12.637V30.5034Z" fill="url(#paint0_linear_3_1427)"/>
<path d="M20.0047 52.6028C31.0335 52.6028 40 43.637 40 32.6076C40 21.5781 21.5734 1.20504 20.784 0.331495C20.3841 -0.110498 19.6159 -0.110498 19.216 0.331495C18.4267 1.20497 0 21.863 0 32.6076C0 43.3521 8.96581 52.6028 19.9953 52.6028H20.0047ZM20.0047 2.63626C23.5512 6.72993 37.8946 23.8519 37.8946 32.6076C37.8946 42.4685 29.865 50.4974 20.0047 50.4974C10.1445 50.4974 2.1149 42.4678 2.1149 32.6076C2.1149 23.8519 16.4587 6.72987 20.0047 2.63626Z" fill="black"/>
<path d="M20.0047 52.6028C31.0335 52.6028 40 43.637 40 32.6076C40 21.5781 21.5734 1.20504 20.784 0.331495C20.3841 -0.110498 19.6159 -0.110498 19.216 0.331495C18.4267 1.20497 0 21.863 0 32.6076C0 43.3521 8.96581 52.6028 19.9953 52.6028H20.0047ZM20.0047 2.63626C23.5512 6.72993 37.8946 23.8519 37.8946 32.6076C37.8946 42.4685 29.865 50.4974 20.0047 50.4974C10.1445 50.4974 2.1149 42.4678 2.1149 32.6076C2.1149 23.8519 16.4587 6.72987 20.0047 2.63626Z" fill="url(#paint1_linear_3_1427)"/>
<defs>
<linearGradient id="paint0_linear_3_1427" x1="24.8408" y1="35.9954" x2="8.63547" y2="28.241" gradientUnits="userSpaceOnUse">
<stop stop-color="#55097B"/>
<stop offset="1" stop-color="#F00045"/>
</linearGradient>
<linearGradient id="paint1_linear_3_1427" x1="30.2146" y1="38.6302" x2="-6.9236" y2="25.1169" gradientUnits="userSpaceOnUse">
<stop stop-color="#55097B"/>
<stop offset="1" stop-color="#F00045"/>
</linearGradient>
</defs>
</svg>
