<svg width="52" height="52" viewBox="0 0 52 52" fill="none" xmlns="http://www.w3.org/2000/svg">
<path d="M35.2481 0H4.89723C2.19442 0.00567707 0.00294119 2.1688 0 4.84004V40.6676C0 43.3417 2.19155 45.5077 4.89723 45.5077H35.2481C36.5492 45.5077 37.7929 44.9967 38.712 44.0912C39.6311 43.1828 40.1452 41.9508 40.1452 40.6677V4.84012C40.1424 2.16887 37.9538 0.00574102 35.2481 0ZM37.9394 40.6958C37.9394 42.1663 36.736 43.3557 35.2481 43.3557H4.89723C3.41229 43.3529 2.2117 42.1635 2.2117 40.6958V4.8399C2.21744 3.37797 3.41516 2.1914 4.89723 2.18856H35.2481C36.733 2.18856 37.9365 3.37514 37.9394 4.8399V40.6958Z" fill="black"/>
<path d="M35.2481 0H4.89723C2.19442 0.00567707 0.00294119 2.1688 0 4.84004V40.6676C0 43.3417 2.19155 45.5077 4.89723 45.5077H35.2481C36.5492 45.5077 37.7929 44.9967 38.712 44.0912C39.6311 43.1828 40.1452 41.9508 40.1452 40.6677V4.84012C40.1424 2.16887 37.9538 0.00574102 35.2481 0ZM37.9394 40.6958C37.9394 42.1663 36.736 43.3557 35.2481 43.3557H4.89723C3.41229 43.3529 2.2117 42.1635 2.2117 40.6958V4.8399C2.21744 3.37797 3.41516 2.1914 4.89723 2.18856H35.2481C36.733 2.18856 37.9365 3.37514 37.9394 4.8399V40.6958Z" fill="url(#paint0_linear_3_1459)"/>
<path d="M35.2481 0H4.89723C2.19442 0.00567707 0.00294119 2.1688 0 4.84004V40.6676C0 43.3417 2.19155 45.5077 4.89723 45.5077H35.2481C36.5492 45.5077 37.7929 44.9967 38.712 44.0912C39.6311 43.1828 40.1452 41.9508 40.1452 40.6677V4.84012C40.1424 2.16887 37.9538 0.00574102 35.2481 0ZM37.9394 40.6958C37.9394 42.1663 36.736 43.3557 35.2481 43.3557H4.89723C3.41229 43.3529 2.2117 42.1635 2.2117 40.6958V4.8399C2.21744 3.37797 3.41516 2.1914 4.89723 2.18856H35.2481C36.733 2.18856 37.9365 3.37514 37.9394 4.8399V40.6958Z" fill="url(#paint1_linear_3_1459)"/>
<path d="M47.0963 5.87355H39.008V8.05368H47.0963C48.5784 8.05368 49.7818 9.24026 49.7876 10.705V46.5406C49.7876 47.2446 49.5033 47.9202 48.9978 48.417C48.4923 48.9166 47.8087 49.1948 47.0964 49.1919H16.7507C16.0355 49.1948 15.3519 48.9166 14.8464 48.417C14.3409 47.9202 14.0594 47.2446 14.0594 46.5406V44.4172H11.8535V46.5406C11.8564 49.2119 14.0451 51.3749 16.7507 51.3806H47.0964C49.8021 51.3806 51.9965 49.2147 51.9994 46.5406V10.705C51.9965 9.42193 51.4795 8.19277 50.5604 7.28438C49.6413 6.37883 48.3945 5.87071 47.0963 5.87355Z" fill="black"/>
<path d="M47.0963 5.87355H39.008V8.05368H47.0963C48.5784 8.05368 49.7818 9.24026 49.7876 10.705V46.5406C49.7876 47.2446 49.5033 47.9202 48.9978 48.417C48.4923 48.9166 47.8087 49.1948 47.0964 49.1919H16.7507C16.0355 49.1948 15.3519 48.9166 14.8464 48.417C14.3409 47.9202 14.0594 47.2446 14.0594 46.5406V44.4172H11.8535V46.5406C11.8564 49.2119 14.0451 51.3749 16.7507 51.3806H47.0964C49.8021 51.3806 51.9965 49.2147 51.9994 46.5406V10.705C51.9965 9.42193 51.4795 8.19277 50.5604 7.28438C49.6413 6.37883 48.3945 5.87071 47.0963 5.87355Z" fill="url(#paint2_linear_3_1459)"/>
<path d="M47.0963 5.87355H39.008V8.05368H47.0963C48.5784 8.05368 49.7818 9.24026 49.7876 10.705V46.5406C49.7876 47.2446 49.5033 47.9202 48.9978 48.417C48.4923 48.9166 47.8087 49.1948 47.0964 49.1919H16.7507C16.0355 49.1948 15.3519 48.9166 14.8464 48.417C14.3409 47.9202 14.0594 47.2446 14.0594 46.5406V44.4172H11.8535V46.5406C11.8564 49.2119 14.0451 51.3749 16.7507 51.3806H47.0964C49.8021 51.3806 51.9965 49.2147 51.9994 46.5406V10.705C51.9965 9.42193 51.4795 8.19277 50.5604 7.28438C49.6413 6.37883 48.3945 5.87071 47.0963 5.87355Z" fill="url(#paint3_linear_3_1459)"/>
<path d="M30.0519 31.752H9.77091C9.16199 31.752 8.66797 32.2402 8.66797 32.842C8.66797 33.4438 9.16199 33.9321 9.77091 33.9321H30.0519C30.6608 33.9321 31.1548 33.4438 31.1548 32.842C31.1548 32.2402 30.6608 31.752 30.0519 31.752Z" fill="black"/>
<path d="M30.0519 31.752H9.77091C9.16199 31.752 8.66797 32.2402 8.66797 32.842C8.66797 33.4438 9.16199 33.9321 9.77091 33.9321H30.0519C30.6608 33.9321 31.1548 33.4438 31.1548 32.842C31.1548 32.2402 30.6608 31.752 30.0519 31.752Z" fill="url(#paint4_linear_3_1459)"/>
<path d="M30.0519 31.752H9.77091C9.16199 31.752 8.66797 32.2402 8.66797 32.842C8.66797 33.4438 9.16199 33.9321 9.77091 33.9321H30.0519C30.6608 33.9321 31.1548 33.4438 31.1548 32.842C31.1548 32.2402 30.6608 31.752 30.0519 31.752Z" fill="url(#paint5_linear_3_1459)"/>
<path d="M30.0519 37.3184H9.77091C9.16199 37.3184 8.66797 37.8066 8.66797 38.4084C8.66797 39.0102 9.16199 39.4985 9.77091 39.4985H30.0519C30.6608 39.4985 31.1548 39.0102 31.1548 38.4084C31.1548 37.8066 30.6608 37.3184 30.0519 37.3184Z" fill="black"/>
<path d="M30.0519 37.3184H9.77091C9.16199 37.3184 8.66797 37.8066 8.66797 38.4084C8.66797 39.0102 9.16199 39.4985 9.77091 39.4985H30.0519C30.6608 39.4985 31.1548 39.0102 31.1548 38.4084C31.1548 37.8066 30.6608 37.3184 30.0519 37.3184Z" fill="url(#paint6_linear_3_1459)"/>
<path d="M30.0519 37.3184H9.77091C9.16199 37.3184 8.66797 37.8066 8.66797 38.4084C8.66797 39.0102 9.16199 39.4985 9.77091 39.4985H30.0519C30.6608 39.4985 31.1548 39.0102 31.1548 38.4084C31.1548 37.8066 30.6608 37.3184 30.0519 37.3184Z" fill="url(#paint7_linear_3_1459)"/>
<path d="M27.0938 13.5098H23.8883V10.3503C23.8883 9.74852 23.3943 9.26025 22.7854 9.26025H17.0437C16.4348 9.26025 15.9408 9.74852 15.9408 10.3503V13.5127L12.7641 13.5098C12.1552 13.5098 11.6611 13.9981 11.6611 14.5999V20.2773C11.6611 20.8791 12.1552 21.3674 12.7641 21.3674H15.9695V24.5269C15.9695 25.1287 16.4636 25.617 17.0725 25.617H22.817C23.4259 25.617 23.9199 25.1287 23.9199 24.5269V21.3674H27.1254C27.7343 21.3674 28.2283 20.8791 28.2283 20.2773V14.5999C28.2283 14.3075 28.1077 14.0265 27.8952 13.8193C27.6797 13.6149 27.3925 13.5042 27.0938 13.5098ZM25.9994 19.1873H22.7854C22.1765 19.1873 21.6824 19.6755 21.6824 20.2773V23.4369H18.1467V20.2773C18.1467 19.6755 17.6526 19.1873 17.0437 19.1873H13.8383V15.69H17.0437C17.6526 15.69 18.1467 15.2046 18.1467 14.5999V11.4404H21.6824V14.6027V14.5999C21.6824 15.2045 22.1765 15.69 22.7854 15.69H25.9994V19.1873Z" fill="black"/>
<path d="M27.0938 13.5098H23.8883V10.3503C23.8883 9.74852 23.3943 9.26025 22.7854 9.26025H17.0437C16.4348 9.26025 15.9408 9.74852 15.9408 10.3503V13.5127L12.7641 13.5098C12.1552 13.5098 11.6611 13.9981 11.6611 14.5999V20.2773C11.6611 20.8791 12.1552 21.3674 12.7641 21.3674H15.9695V24.5269C15.9695 25.1287 16.4636 25.617 17.0725 25.617H22.817C23.4259 25.617 23.9199 25.1287 23.9199 24.5269V21.3674H27.1254C27.7343 21.3674 28.2283 20.8791 28.2283 20.2773V14.5999C28.2283 14.3075 28.1077 14.0265 27.8952 13.8193C27.6797 13.6149 27.3925 13.5042 27.0938 13.5098ZM25.9994 19.1873H22.7854C22.1765 19.1873 21.6824 19.6755 21.6824 20.2773V23.4369H18.1467V20.2773C18.1467 19.6755 17.6526 19.1873 17.0437 19.1873H13.8383V15.69H17.0437C17.6526 15.69 18.1467 15.2046 18.1467 14.5999V11.4404H21.6824V14.6027V14.5999C21.6824 15.2045 22.1765 15.69 22.7854 15.69H25.9994V19.1873Z" fill="url(#paint8_linear_3_1459)"/>
<path d="M27.0938 13.5098H23.8883V10.3503C23.8883 9.74852 23.3943 9.26025 22.7854 9.26025H17.0437C16.4348 9.26025 15.9408 9.74852 15.9408 10.3503V13.5127L12.7641 13.5098C12.1552 13.5098 11.6611 13.9981 11.6611 14.5999V20.2773C11.6611 20.8791 12.1552 21.3674 12.7641 21.3674H15.9695V24.5269C15.9695 25.1287 16.4636 25.617 17.0725 25.617H22.817C23.4259 25.617 23.9199 25.1287 23.9199 24.5269V21.3674H27.1254C27.7343 21.3674 28.2283 20.8791 28.2283 20.2773V14.5999C28.2283 14.3075 28.1077 14.0265 27.8952 13.8193C27.6797 13.6149 27.3925 13.5042 27.0938 13.5098ZM25.9994 19.1873H22.7854C22.1765 19.1873 21.6824 19.6755 21.6824 20.2773V23.4369H18.1467V20.2773C18.1467 19.6755 17.6526 19.1873 17.0437 19.1873H13.8383V15.69H17.0437C17.6526 15.69 18.1467 15.2046 18.1467 14.5999V11.4404H21.6824V14.6027V14.5999C21.6824 15.2045 22.1765 15.69 22.7854 15.69H25.9994V19.1873Z" fill="url(#paint9_linear_3_1459)"/>
<defs>
<linearGradient id="paint0_linear_3_1459" x1="30.3243" y1="33.4197" x2="-5.50013" y2="18.2974" gradientUnits="userSpaceOnUse">
<stop stop-color="#55097B"/>
<stop offset="1" stop-color="#F00045"/>
</linearGradient>
<linearGradient id="paint1_linear_3_1459" x1="30.3243" y1="33.4197" x2="-5.50013" y2="18.2974" gradientUnits="userSpaceOnUse">
<stop stop-color="#55097B"/>
<stop offset="1" stop-color="#F00045"/>
</linearGradient>
<linearGradient id="paint2_linear_3_1459" x1="42.1783" y1="39.2928" x2="6.3536" y2="24.17" gradientUnits="userSpaceOnUse">
<stop stop-color="#55097B"/>
<stop offset="1" stop-color="#F00045"/>
</linearGradient>
<linearGradient id="paint3_linear_3_1459" x1="42.1783" y1="39.2928" x2="6.3536" y2="24.17" gradientUnits="userSpaceOnUse">
<stop stop-color="#55097B"/>
<stop offset="1" stop-color="#F00045"/>
</linearGradient>
<linearGradient id="paint4_linear_3_1459" x1="25.6537" y1="33.353" x2="24.7215" y2="28.7517" gradientUnits="userSpaceOnUse">
<stop stop-color="#55097B"/>
<stop offset="1" stop-color="#F00045"/>
</linearGradient>
<linearGradient id="paint5_linear_3_1459" x1="25.6537" y1="33.353" x2="24.7215" y2="28.7517" gradientUnits="userSpaceOnUse">
<stop stop-color="#55097B"/>
<stop offset="1" stop-color="#F00045"/>
</linearGradient>
<linearGradient id="paint6_linear_3_1459" x1="25.6537" y1="38.9194" x2="24.7215" y2="34.3181" gradientUnits="userSpaceOnUse">
<stop stop-color="#55097B"/>
<stop offset="1" stop-color="#F00045"/>
</linearGradient>
<linearGradient id="paint7_linear_3_1459" x1="25.6537" y1="38.9194" x2="24.7215" y2="34.3181" gradientUnits="userSpaceOnUse">
<stop stop-color="#55097B"/>
<stop offset="1" stop-color="#F00045"/>
</linearGradient>
<linearGradient id="paint8_linear_3_1459" x1="24.1754" y1="21.2722" x2="10.0703" y2="14.436" gradientUnits="userSpaceOnUse">
<stop stop-color="#55097B"/>
<stop offset="1" stop-color="#F00045"/>
</linearGradient>
<linearGradient id="paint9_linear_3_1459" x1="24.1754" y1="21.2722" x2="10.0703" y2="14.436" gradientUnits="userSpaceOnUse">
<stop stop-color="#55097B"/>
<stop offset="1" stop-color="#F00045"/>
</linearGradient>
</defs>
</svg>
