<svg width="64" height="53" viewBox="0 0 64 53" fill="none" xmlns="http://www.w3.org/2000/svg">
<path d="M50.6968 12.6405C50.6132 13.6565 50.9007 14.7326 51.5123 15.6718C52.418 17.0621 53.8384 17.8576 55.1685 17.8576C55.7501 17.8576 56.3115 17.7072 56.8062 17.383C58.4271 16.3302 58.6911 13.847 57.3944 11.8518C56.7828 10.9093 55.9172 10.2075 54.9546 9.87327C53.9286 9.51233 52.9159 9.60925 52.1005 10.1373C51.285 10.6687 50.787 11.5543 50.6968 12.6372L50.6968 12.6405ZM52.1172 12.7575C52.1674 12.1258 52.4381 11.6178 52.8759 11.3337C53.1299 11.1699 53.4273 11.0864 53.7482 11.0864C53.9821 11.0864 54.2294 11.1298 54.4834 11.2167C55.1485 11.4473 55.7568 11.9486 56.1979 12.627C57.0535 13.9405 56.9767 15.5714 56.0308 16.1864C55.085 16.8014 53.5644 16.2098 52.7121 14.8931C52.2743 14.2179 52.0604 13.4593 52.1206 12.7541L52.1172 12.7575Z" fill="black"/>
<path d="M50.6968 12.6405C50.6132 13.6565 50.9007 14.7326 51.5123 15.6718C52.418 17.0621 53.8384 17.8576 55.1685 17.8576C55.7501 17.8576 56.3115 17.7072 56.8062 17.383C58.4271 16.3302 58.6911 13.847 57.3944 11.8518C56.7828 10.9093 55.9172 10.2075 54.9546 9.87327C53.9286 9.51233 52.9159 9.60925 52.1005 10.1373C51.285 10.6687 50.787 11.5543 50.6968 12.6372L50.6968 12.6405ZM52.1172 12.7575C52.1674 12.1258 52.4381 11.6178 52.8759 11.3337C53.1299 11.1699 53.4273 11.0864 53.7482 11.0864C53.9821 11.0864 54.2294 11.1298 54.4834 11.2167C55.1485 11.4473 55.7568 11.9486 56.1979 12.627C57.0535 13.9405 56.9767 15.5714 56.0308 16.1864C55.085 16.8014 53.5644 16.2098 52.7121 14.8931C52.2743 14.2179 52.0604 13.4593 52.1206 12.7541L52.1172 12.7575Z" fill="url(#paint0_linear_3_1402)"/>
<path d="M52.4897 19.9827C51.701 19.4646 50.7184 19.371 49.7191 19.7186C48.7867 20.0428 47.9444 20.7213 47.3462 21.6337C46.748 22.5427 46.4572 23.5889 46.5307 24.5714C46.6076 25.6275 47.0855 26.4931 47.8709 27.0112C48.3455 27.322 48.8903 27.4791 49.4685 27.4791C49.8461 27.4791 50.2438 27.4122 50.6415 27.2719C51.574 26.9477 52.4162 26.2692 53.0144 25.3568C54.2878 23.4218 54.0538 21.0088 52.493 19.9793L52.4897 19.9827ZM51.8246 24.5747C51.4002 25.2264 50.812 25.7044 50.1769 25.9249C49.6054 26.1255 49.0673 26.0854 48.6597 25.818C48.2519 25.5506 48.0046 25.0693 47.9578 24.4678C47.9077 23.796 48.1182 23.0675 48.546 22.4158C48.9705 21.764 49.5587 21.2861 50.1937 21.0656C50.4343 20.982 50.6716 20.9386 50.8922 20.9386C51.1963 20.9386 51.4737 21.0154 51.711 21.1725C52.6001 21.7574 52.6535 23.3148 51.8247 24.5715L51.8246 24.5747Z" fill="black"/>
<path d="M52.4897 19.9827C51.701 19.4646 50.7184 19.371 49.7191 19.7186C48.7867 20.0428 47.9444 20.7213 47.3462 21.6337C46.748 22.5427 46.4572 23.5889 46.5307 24.5714C46.6076 25.6275 47.0855 26.4931 47.8709 27.0112C48.3455 27.322 48.8903 27.4791 49.4685 27.4791C49.8461 27.4791 50.2438 27.4122 50.6415 27.2719C51.574 26.9477 52.4162 26.2692 53.0144 25.3568C54.2878 23.4218 54.0538 21.0088 52.493 19.9793L52.4897 19.9827ZM51.8246 24.5747C51.4002 25.2264 50.812 25.7044 50.1769 25.9249C49.6054 26.1255 49.0673 26.0854 48.6597 25.818C48.2519 25.5506 48.0046 25.0693 47.9578 24.4678C47.9077 23.796 48.1182 23.0675 48.546 22.4158C48.9705 21.764 49.5587 21.2861 50.1937 21.0656C50.4343 20.982 50.6716 20.9386 50.8922 20.9386C51.1963 20.9386 51.4737 21.0154 51.711 21.1725C52.6001 21.7574 52.6535 23.3148 51.8247 24.5715L51.8246 24.5747Z" fill="url(#paint1_linear_3_1402)"/>
<path d="M43.2537 28.2871C42.2109 28.2303 41.0914 28.5545 40.1054 29.1929C37.9999 30.5632 37.141 32.9928 38.197 34.6137C38.7318 35.4359 39.6442 35.9205 40.7738 35.9807C40.8507 35.9841 40.9275 35.9874 41.0044 35.9874C41.9836 35.9874 43.0097 35.6666 43.9221 35.0717C44.908 34.43 45.6566 33.5409 46.0309 32.5651C46.4353 31.5089 46.3652 30.4762 45.8304 29.6541C45.2957 28.832 44.3833 28.3474 43.2537 28.2871ZM44.7042 32.0537C44.4368 32.7522 43.8853 33.4005 43.1501 33.8751C42.4148 34.353 41.5993 34.597 40.854 34.5536C40.1923 34.5202 39.6743 34.2628 39.3969 33.835C38.7853 32.8892 39.4637 31.3117 40.8842 30.386C41.5693 29.9415 42.3179 29.7009 43.0231 29.7009C43.0766 29.7009 43.1301 29.7009 43.1835 29.7042C43.8453 29.7376 44.3633 29.995 44.644 30.4228C44.9247 30.8505 44.9448 31.4288 44.7109 32.047L44.7042 32.0537Z" fill="black"/>
<path d="M43.2537 28.2871C42.2109 28.2303 41.0914 28.5545 40.1054 29.1929C37.9999 30.5632 37.141 32.9928 38.197 34.6137C38.7318 35.4359 39.6442 35.9205 40.7738 35.9807C40.8507 35.9841 40.9275 35.9874 41.0044 35.9874C41.9836 35.9874 43.0097 35.6666 43.9221 35.0717C44.908 34.43 45.6566 33.5409 46.0309 32.5651C46.4353 31.5089 46.3652 30.4762 45.8304 29.6541C45.2957 28.832 44.3833 28.3474 43.2537 28.2871ZM44.7042 32.0537C44.4368 32.7522 43.8853 33.4005 43.1501 33.8751C42.4148 34.353 41.5993 34.597 40.854 34.5536C40.1923 34.5202 39.6743 34.2628 39.3969 33.835C38.7853 32.8892 39.4637 31.3117 40.8842 30.386C41.5693 29.9415 42.3179 29.7009 43.0231 29.7009C43.0766 29.7009 43.1301 29.7009 43.1835 29.7042C43.8453 29.7376 44.3633 29.995 44.644 30.4228C44.9247 30.8505 44.9448 31.4288 44.7109 32.047L44.7042 32.0537Z" fill="url(#paint2_linear_3_1402)"/>
<path d="M31.1925 36.3729C29.0502 37.7632 28.0743 39.9289 28.9666 41.3059C29.4011 41.9743 30.1765 42.3319 31.1691 42.3319C31.2426 42.3319 31.3195 42.3319 31.3997 42.3252C32.3589 42.2751 33.415 41.9007 34.3809 41.2757C36.5231 39.8854 37.499 37.7163 36.6067 36.3428C35.7144 34.9691 33.3348 34.9826 31.1959 36.3729L31.1925 36.3729ZM33.6022 40.0793C32.8535 40.5639 32.0246 40.8647 31.3195 40.9015C30.7613 40.9315 30.3369 40.7945 30.1631 40.5271C29.7787 39.9356 30.4672 38.5419 31.9678 37.5661C32.8434 36.9979 33.7358 36.7406 34.4043 36.7406C34.8822 36.7406 35.2465 36.8742 35.4069 37.1182C35.7913 37.7098 35.1028 39.1034 33.6022 40.0793Z" fill="black"/>
<path d="M31.1925 36.3729C29.0502 37.7632 28.0743 39.9289 28.9666 41.3059C29.4011 41.9743 30.1765 42.3319 31.1691 42.3319C31.2426 42.3319 31.3195 42.3319 31.3997 42.3252C32.3589 42.2751 33.415 41.9007 34.3809 41.2757C36.5231 39.8854 37.499 37.7163 36.6067 36.3428C35.7144 34.9691 33.3348 34.9826 31.1959 36.3729L31.1925 36.3729ZM33.6022 40.0793C32.8535 40.5639 32.0246 40.8647 31.3195 40.9015C30.7613 40.9315 30.3369 40.7945 30.1631 40.5271C29.7787 39.9356 30.4672 38.5419 31.9678 37.5661C32.8434 36.9979 33.7358 36.7406 34.4043 36.7406C34.8822 36.7406 35.2465 36.8742 35.4069 37.1182C35.7913 37.7098 35.1028 39.1034 33.6022 40.0793Z" fill="url(#paint3_linear_3_1402)"/>
<path d="M47.9685 17.6596C48.1991 17.3387 48.1322 16.8942 47.8114 16.6636C47.4905 16.433 47.046 16.4998 46.8154 16.8207C37.872 29.0931 27.2842 35.0488 19.9783 37.886C12.0509 40.9641 6.15897 41.1379 6.10165 41.1412C5.70727 41.1512 5.39646 41.4787 5.40649 41.8698C5.41651 42.2575 5.73067 42.5649 6.11836 42.5649H6.13507C6.38238 42.5583 12.2879 42.3911 20.4361 39.2395C27.9392 36.3353 38.8081 30.2388 47.9722 17.6626L47.9685 17.6596Z" fill="black"/>
<path d="M47.9685 17.6596C48.1991 17.3387 48.1322 16.8942 47.8114 16.6636C47.4905 16.433 47.046 16.4998 46.8154 16.8207C37.872 29.0931 27.2842 35.0488 19.9783 37.886C12.0509 40.9641 6.15897 41.1379 6.10165 41.1412C5.70727 41.1512 5.39646 41.4787 5.40649 41.8698C5.41651 42.2575 5.73067 42.5649 6.11836 42.5649H6.13507C6.38238 42.5583 12.2879 42.3911 20.4361 39.2395C27.9392 36.3353 38.8081 30.2388 47.9722 17.6626L47.9685 17.6596Z" fill="url(#paint4_linear_3_1402)"/>
<path d="M56.6478 1.05643C56.3002 0.872618 55.8691 0.999616 55.6852 1.34719C55.5014 1.69477 55.6284 2.12591 55.976 2.30972C60.7653 4.87981 62.0419 6.93517 62.3795 7.91447C54.2983 7.23602 52.4231 1.60789 52.3495 1.38064L52.1056 0.51839C52.0187 0.217601 51.748 0.00370497 51.4338 0.000359641C51.133 -0.00966693 50.8422 0.190864 50.742 0.488307C47.313 10.8118 40.2508 20.6013 31.8422 26.6734C23.1862 32.9265 12.5385 36.3757 1.85656 36.386C1.61928 36.386 1.39869 36.503 1.265 36.7001C1.21487 36.777 -3.8785 44.6009 6.73603 52.7928C6.83963 52.873 6.95995 52.9198 7.09363 52.9365C7.1939 52.9465 7.70524 53 8.58757 53C12.6148 53 24.3559 51.9205 39.9797 40.9987C49.9327 34.0438 55.8953 25.6855 59.1465 19.9069C62.6558 13.6672 63.8221 9.1052 63.8823 8.86478C63.8823 8.8581 63.8823 8.85476 63.8857 8.84807C63.8857 8.83805 63.8923 8.82802 63.8923 8.81799C63.9726 8.40023 64.2934 5.16842 56.6432 1.06428L56.6478 1.05643ZM39.1614 39.8246C21.7956 51.9636 9.12274 51.6393 7.4381 51.5289C-0.833672 45.0453 1.51251 39.2128 2.26114 37.8097C13.1031 37.7128 23.8843 34.1768 32.6711 27.8267C40.7958 21.958 47.7003 12.7206 51.4203 2.83091C52.4096 4.76932 55.2738 8.7565 62.2554 9.33804C61.099 13.0478 55.4808 28.4145 39.1614 39.8246Z" fill="black"/>
<path d="M56.6478 1.05643C56.3002 0.872618 55.8691 0.999616 55.6852 1.34719C55.5014 1.69477 55.6284 2.12591 55.976 2.30972C60.7653 4.87981 62.0419 6.93517 62.3795 7.91447C54.2983 7.23602 52.4231 1.60789 52.3495 1.38064L52.1056 0.51839C52.0187 0.217601 51.748 0.00370497 51.4338 0.000359641C51.133 -0.00966693 50.8422 0.190864 50.742 0.488307C47.313 10.8118 40.2508 20.6013 31.8422 26.6734C23.1862 32.9265 12.5385 36.3757 1.85656 36.386C1.61928 36.386 1.39869 36.503 1.265 36.7001C1.21487 36.777 -3.8785 44.6009 6.73603 52.7928C6.83963 52.873 6.95995 52.9198 7.09363 52.9365C7.1939 52.9465 7.70524 53 8.58757 53C12.6148 53 24.3559 51.9205 39.9797 40.9987C49.9327 34.0438 55.8953 25.6855 59.1465 19.9069C62.6558 13.6672 63.8221 9.1052 63.8823 8.86478C63.8823 8.8581 63.8823 8.85476 63.8857 8.84807C63.8857 8.83805 63.8923 8.82802 63.8923 8.81799C63.9726 8.40023 64.2934 5.16842 56.6432 1.06428L56.6478 1.05643ZM39.1614 39.8246C21.7956 51.9636 9.12274 51.6393 7.4381 51.5289C-0.833672 45.0453 1.51251 39.2128 2.26114 37.8097C13.1031 37.7128 23.8843 34.1768 32.6711 27.8267C40.7958 21.958 47.7003 12.7206 51.4203 2.83091C52.4096 4.76932 55.2738 8.7565 62.2554 9.33804C61.099 13.0478 55.4808 28.4145 39.1614 39.8246Z" fill="url(#paint5_linear_3_1402)"/>
<defs>
<linearGradient id="paint0_linear_3_1402" x1="56.3743" y1="15.6796" x2="49.7358" y2="12.7604" gradientUnits="userSpaceOnUse">
<stop stop-color="#55097B"/>
<stop offset="1" stop-color="#F00045"/>
</linearGradient>
<linearGradient id="paint1_linear_3_1402" x1="52.0456" y1="25.3629" x2="45.5987" y2="22.5301" gradientUnits="userSpaceOnUse">
<stop stop-color="#55097B"/>
<stop offset="1" stop-color="#F00045"/>
</linearGradient>
<linearGradient id="paint2_linear_3_1402" x1="44.1997" y1="33.9403" x2="37.1891" y2="30.2207" gradientUnits="userSpaceOnUse">
<stop stop-color="#55097B"/>
<stop offset="1" stop-color="#F00045"/>
</linearGradient>
<linearGradient id="paint3_linear_3_1402" x1="34.9062" y1="40.4697" x2="28.3" y2="36.7272" gradientUnits="userSpaceOnUse">
<stop stop-color="#55097B"/>
<stop offset="1" stop-color="#F00045"/>
</linearGradient>
<linearGradient id="paint4_linear_3_1402" x1="37.6595" y1="35.6486" x2="9.8748" y2="13.8462" gradientUnits="userSpaceOnUse">
<stop stop-color="#55097B"/>
<stop offset="1" stop-color="#F00045"/>
</linearGradient>
<linearGradient id="paint5_linear_3_1402" x1="48.2813" y1="38.9219" x2="-2.132" y2="9.82942" gradientUnits="userSpaceOnUse">
<stop stop-color="#55097B"/>
<stop offset="1" stop-color="#F00045"/>
</linearGradient>
</defs>
</svg>
