<svg width="21" height="21" viewBox="0 0 21 21" fill="none" xmlns="http://www.w3.org/2000/svg">
<path d="M20.7927 19.5772L15.2757 14.0602C16.6689 12.3475 17.3519 10.1654 17.1838 7.96397C17.0157 5.76251 16.0093 3.70948 14.3721 2.22816C12.7349 0.746845 10.5918 -0.0498219 8.38451 0.00241564C6.17726 0.0546532 4.0742 0.951813 2.50892 2.50892C0.951813 4.0742 0.0546532 6.17726 0.00241564 8.38451C-0.0498219 10.5918 0.746845 12.7349 2.22816 14.3721C3.70948 16.0093 5.76251 17.0157 7.96397 17.1838C10.1654 17.3519 12.3475 16.6689 14.0602 15.2757L19.5772 20.7927C19.7422 20.9339 19.9543 21.0077 20.1712 20.9994C20.3882 20.991 20.594 20.901 20.7475 20.7475C20.901 20.594 20.991 20.3882 20.9994 20.1712C21.0077 19.9543 20.9339 19.7422 20.7927 19.5772ZM3.72439 13.4826C2.75948 12.5184 2.10222 11.2896 1.83576 9.9517C1.5693 8.61382 1.7056 7.22698 2.22743 5.96658C2.74926 4.70618 3.63318 3.62886 4.76736 2.87089C5.90155 2.11291 7.23506 1.70834 8.59921 1.70834C9.96336 1.70834 11.2969 2.11291 12.4311 2.87089C13.5652 3.62886 14.4492 4.70618 14.971 5.96658C15.4928 7.22698 15.6291 8.61382 15.3627 9.9517C15.0962 11.2896 14.4389 12.5184 13.474 13.4826C12.8366 14.1277 12.0775 14.6399 11.2407 14.9894C10.4039 15.339 9.50608 15.519 8.59921 15.519C7.69234 15.519 6.79449 15.339 5.9577 14.9894C5.1209 14.6399 4.3618 14.1277 3.72439 13.4826Z" fill="#929292"/>
</svg>
