<svg width="21" height="21" viewBox="0 0 21 21" fill="none" xmlns="http://www.w3.org/2000/svg">
<path d="M10.3402 20.6411H10.2948C4.61832 20.6411 0 16.0214 0 10.3433V10.2978C0 4.61968 4.61832 0 10.2948 0H10.3402C16.0167 0 20.635 4.61968 20.635 10.2978V10.3433C20.635 16.0214 16.0167 20.6411 10.3402 20.6411ZM10.2948 0.698679C5.00318 0.698679 0.698474 5.00465 0.698474 10.2978V10.3433C0.698474 15.6364 5.00318 19.9424 10.2948 19.9424H10.3402C15.6318 19.9424 19.9365 15.6364 19.9365 10.3433V10.2978C19.9365 5.00465 15.6318 0.698679 10.3402 0.698679H10.2948Z" fill="white"/>
<path d="M10.9626 6C11.4688 6.00135 11.7258 6.00405 11.9476 6.01035L12.0349 6.0135C12.1357 6.0171 12.2351 6.0216 12.3553 6.027C12.8341 6.0495 13.1607 6.1251 13.4474 6.23624C13.7444 6.35054 13.9946 6.50534 14.2447 6.75508C14.4736 6.97996 14.6507 7.25208 14.7636 7.55246C14.8747 7.83911 14.9503 8.1658 14.9728 8.64504C14.9782 8.76473 14.9827 8.86418 14.9863 8.96543L14.989 9.05273C14.9958 9.27412 14.9985 9.53106 14.9994 10.0373L14.9998 10.373V10.9625C15.0009 11.2907 14.9974 11.6189 14.9895 11.9471L14.9868 12.0344C14.9832 12.1356 14.9787 12.235 14.9733 12.3547C14.9508 12.834 14.8743 13.1602 14.7636 13.4473C14.6507 13.7477 14.4736 14.0198 14.2447 14.2447C14.0199 14.4736 13.7478 14.6507 13.4474 14.7635C13.1607 14.8747 12.8341 14.9503 12.3553 14.9728L12.0349 14.9863L11.9476 14.989C11.7258 14.9953 11.4688 14.9984 10.9626 14.9993L10.6269 14.9998H10.0379C9.70954 15.0009 9.38117 14.9975 9.0529 14.9894L8.96561 14.9867C8.85879 14.9827 8.75199 14.978 8.64522 14.9728C8.16645 14.9503 7.83976 14.8747 7.55268 14.7635C7.25247 14.6506 6.98051 14.4736 6.75577 14.2447C6.5267 14.0199 6.34949 13.7477 6.23649 13.4473C6.12535 13.1607 6.04975 12.834 6.02725 12.3547L6.01376 12.0344L6.01151 11.9471C6.00321 11.6189 5.99946 11.2907 6.00026 10.9625V10.0373C5.99901 9.70908 6.00231 9.38086 6.01016 9.05273L6.01331 8.96543C6.01691 8.86418 6.0214 8.76473 6.0268 8.64504C6.0493 8.1658 6.1249 7.83956 6.23604 7.55246C6.3493 7.25196 6.52683 6.97982 6.75622 6.75508C6.98083 6.52628 7.25263 6.34922 7.55268 6.23624C7.83976 6.1251 8.166 6.0495 8.64522 6.027C8.76492 6.0216 8.86481 6.0171 8.96561 6.0135L9.0529 6.0108C9.38102 6.0028 9.70924 5.99935 10.0375 6.00045L10.9626 6ZM10.5 8.24995C9.90332 8.24995 9.33105 8.48699 8.90912 8.90894C8.48718 9.33089 8.25014 9.90317 8.25014 10.4999C8.25014 11.0966 8.48718 11.6689 8.90912 12.0908C9.33105 12.5128 9.90332 12.7498 10.5 12.7498C11.0967 12.7498 11.669 12.5128 12.0909 12.0908C12.5129 11.6689 12.7499 11.0966 12.7499 10.4999C12.7499 9.90317 12.5129 9.33089 12.0909 8.90894C11.669 8.48699 11.0967 8.24995 10.5 8.24995ZM10.5 9.14992C10.6773 9.14989 10.8529 9.18478 11.0166 9.2526C11.1804 9.32041 11.3293 9.41983 11.4546 9.54516C11.58 9.6705 11.6795 9.8193 11.7473 9.98307C11.8152 10.1468 11.8502 10.3224 11.8502 10.4997C11.8502 10.6769 11.8153 10.8525 11.7475 11.0163C11.6797 11.1801 11.5803 11.3289 11.455 11.4543C11.3296 11.5797 11.1808 11.6791 11.0171 11.747C10.8533 11.8149 10.6778 11.8498 10.5005 11.8499C10.1425 11.8499 9.79909 11.7076 9.54593 11.4545C9.29277 11.2013 9.15055 10.8579 9.15055 10.4999C9.15055 10.1419 9.29277 9.79849 9.54593 9.54532C9.79909 9.29215 10.1425 9.14992 10.5005 9.14992M12.8629 7.57496C12.7137 7.57496 12.5706 7.63422 12.4651 7.73971C12.3596 7.8452 12.3004 7.98827 12.3004 8.13745C12.3004 8.28663 12.3596 8.4297 12.4651 8.53519C12.5706 8.64067 12.7137 8.69993 12.8629 8.69993C13.012 8.69993 13.1551 8.64067 13.2606 8.53519C13.3661 8.4297 13.4253 8.28663 13.4253 8.13745C13.4253 7.98827 13.3661 7.8452 13.2606 7.73971C13.1551 7.63422 13.012 7.57496 12.8629 7.57496Z" fill="white"/>
</svg>
