<svg width="57" height="56" viewBox="0 0 57 56" fill="none" xmlns="http://www.w3.org/2000/svg">
<path d="M56.9281 46.5296C56.7305 46.0607 56.1927 45.8423 55.7238 46.04L38.4268 53.3211H17.8497L10.764 46.2354C10.1089 45.5803 10.1089 44.5139 10.764 43.8589C11.0811 43.5417 11.504 43.367 11.9522 43.367C12.3958 43.367 12.814 43.5371 13.1312 43.8497C13.1358 43.8543 13.1404 43.8589 13.145 43.8635L18.6564 49.3748C18.8288 49.5472 19.0632 49.6438 19.3068 49.6438H31.2579C31.7658 49.6438 32.1772 49.2324 32.1772 48.7244C32.1772 48.2165 31.7658 47.8051 31.2579 47.8051H24.8222C23.8087 47.8051 22.9836 46.98 22.9836 45.9664C22.9836 44.9528 23.8087 44.1278 24.8222 44.1278H34.5533L37.9618 47.5362C38.141 47.7155 38.3755 47.8051 38.6122 47.8051C38.803 47.8051 38.9937 47.7454 39.1569 47.6258L56.6245 34.7552C57.0336 34.4541 57.1209 33.8795 56.8198 33.4704C56.5188 33.0613 55.9442 32.974 55.5351 33.2751L48.4193 38.5176C48.2538 37.9706 47.9573 37.4626 47.5368 37.0421C46.8725 36.3779 45.9877 36.0101 45.0476 36.0101C44.1076 36.0101 43.2228 36.3756 42.5585 37.0421C42.5539 37.0467 42.547 37.0536 42.5424 37.0582L37.3115 42.2891H35.3579C35.6728 41.7467 35.852 41.1193 35.852 40.4505C35.852 38.4234 34.2018 36.7732 32.1747 36.7732H22.0618C21.8182 36.7732 21.5837 36.8697 21.4113 37.0421L18.2925 40.1609L1.46389 27.7592C1.05479 27.4581 0.480194 27.5455 0.179125 27.9546C-0.121957 28.3637 -0.034619 28.9383 0.374482 29.2393L17.8421 42.11C18.2075 42.3789 18.7154 42.3421 19.0372 42.0203L22.4456 38.6119H32.1767C33.1903 38.6119 34.0153 39.437 34.0153 40.4506C34.0153 41.4641 33.1903 42.2892 32.1767 42.2892H24.822C22.7949 42.2892 21.1447 43.9394 21.1447 45.9665C21.1447 46.6353 21.324 47.2651 21.6388 47.8052H19.6876L14.4566 42.5742C14.452 42.5696 14.4451 42.5627 14.4405 42.5581C13.7763 41.8939 12.8914 41.5262 11.9514 41.5262C11.0114 41.5262 10.1265 41.8916 9.46229 42.5581C9.13593 42.8845 8.89001 43.2568 8.71994 43.6567L1.27822 40.5218C0.809357 40.3242 0.271574 40.5448 0.0738809 41.0114C-0.123777 41.4802 0.0968639 42.018 0.563424 42.2157L8.46996 45.5437C8.57339 46.2722 8.90434 46.9755 9.46284 47.534L16.8175 54.8887C16.9899 55.061 17.2243 55.1576 17.4679 55.1576H38.6128C38.7346 55.1576 38.8565 55.1323 38.9691 55.0863L56.4366 47.7317C56.9055 47.5363 57.1235 46.9961 56.9281 46.5296ZM37.6937 44.1278C37.9373 44.1278 38.1717 44.0313 38.3441 43.8589L43.8555 38.3475C43.8601 38.3429 43.8647 38.3383 43.8693 38.3337C44.1865 38.0235 44.6025 37.8511 45.0483 37.8511C45.4965 37.8511 45.9194 38.0258 46.2366 38.3429C46.6181 38.7245 46.7882 39.2554 46.71 39.7771L38.7029 45.6767L37.1561 44.1276L37.6937 44.1278Z" fill="white"/>
<path d="M19.1354 28.2465C23.5436 32.4226 27.8897 34.7322 28.0733 34.8293C28.2066 34.9005 28.3537 34.935 28.5008 34.935C28.6479 34.935 28.795 34.9005 28.9283 34.8293C29.1122 34.7327 33.4583 32.4229 37.8662 28.2465C40.4703 25.7804 42.5456 23.1741 44.0418 20.5012C45.9287 17.1227 46.8871 13.6267 46.8871 10.1129C46.8871 4.53717 42.3502 0 36.7742 0C34.839 0 32.9589 0.549298 31.3363 1.58584C30.2194 2.30059 29.2563 3.22222 28.5002 4.29788C27.744 3.22228 26.7833 2.30065 25.6641 1.58584C24.0414 0.549304 22.1614 0 20.2262 0C14.6505 0 10.1133 4.53687 10.1133 10.1129C10.1133 13.6271 11.0717 17.1228 12.9586 20.5012C14.4525 23.1765 16.5302 25.7805 19.1341 28.2465H19.1354ZM20.2271 1.83866C23.4241 1.83866 26.2761 3.62678 27.6735 6.50427C27.8275 6.82144 28.1493 7.0214 28.5009 7.0214C28.8525 7.0214 29.1743 6.81915 29.3283 6.50427C30.7256 3.62678 33.5779 1.83866 36.7747 1.83866C41.3369 1.83866 45.0484 5.55046 45.0484 10.1123C45.0484 17.3681 40.4724 23.236 36.6341 26.8809C33.1843 30.156 29.6907 32.2797 28.5004 32.9623C27.3145 32.2821 23.844 30.1768 20.3985 26.9109C16.5465 23.2612 11.9525 17.3846 11.9525 10.1123C11.9525 5.55017 15.6643 1.83866 20.2261 1.83866H20.2271Z" fill="white"/>
<path d="M22.9846 20.225H25.7426V22.983C25.7426 23.491 26.154 23.9024 26.6619 23.9024H30.3392C30.8472 23.9024 31.2586 23.491 31.2586 22.983V20.225H34.0166C34.5245 20.225 34.9359 19.8136 34.9359 19.3057V15.6284C34.9359 15.1205 34.5245 14.7091 34.0166 14.7091H31.2586V11.9511C31.2586 11.4431 30.8472 11.0317 30.3392 11.0317H26.6619C26.154 11.0317 25.7426 11.4431 25.7426 11.9511V14.7091H22.9846C22.4767 14.7091 22.0653 15.1205 22.0653 15.6284V19.3057C22.0653 19.8136 22.4767 20.225 22.9846 20.225ZM23.9039 16.5477H26.6619C27.1698 16.5477 27.5812 16.1363 27.5812 15.6284V12.8704H29.4199V15.6284C29.4199 16.1363 29.8313 16.5477 30.3392 16.5477H33.0972V18.3864H30.3392C29.8313 18.3864 29.4199 18.7978 29.4199 19.3057V22.0637H27.5812V19.3057C27.5812 18.7978 27.1698 18.3864 26.6619 18.3864H23.9039V16.5477Z" fill="white"/>
</svg>
