<svg width="63" height="53" viewBox="0 0 63 53" fill="none" xmlns="http://www.w3.org/2000/svg">
<path d="M49.9681 12.4587C49.8857 13.4602 50.169 14.5209 50.7718 15.4465C51.6646 16.8169 53.0646 17.6009 54.3756 17.6009C54.9488 17.6009 55.5021 17.4527 55.9897 17.1331C57.5874 16.0955 57.8476 13.648 56.5695 11.6814C55.9667 10.7524 55.1135 10.0607 54.1648 9.73127C53.1535 9.37551 52.1554 9.47104 51.3516 9.9915C50.5478 10.5153 50.057 11.3882 49.9681 12.4555L49.9681 12.4587ZM51.3681 12.574C51.4175 11.9514 51.6844 11.4508 52.1159 11.1707C52.3662 11.0093 52.6594 10.9269 52.9756 10.9269C53.2062 10.9269 53.45 10.9698 53.7003 11.0554C54.3559 11.2827 54.9554 11.7768 55.3902 12.4455C56.2335 13.7401 56.1578 15.3476 55.2255 15.9538C54.2933 16.5599 52.7945 15.9768 51.9545 14.679C51.5229 14.0136 51.3121 13.2658 51.3714 12.5707L51.3681 12.574Z" fill="white"/>
<path d="M51.7371 19.6959C50.9597 19.1853 49.9912 19.093 49.0063 19.4356C48.0872 19.7552 47.2571 20.4239 46.6675 21.3232C46.0778 22.2192 45.7912 23.2503 45.8637 24.2187C45.9395 25.2597 46.4105 26.1129 47.1846 26.6235C47.6524 26.9298 48.1893 27.0847 48.7592 27.0847C49.1315 27.0847 49.5235 27.0188 49.9155 26.8804C50.8345 26.5609 51.6647 25.8922 52.2543 24.9929C53.5094 23.0856 53.2787 20.7072 51.7404 19.6926L51.7371 19.6959ZM51.0816 24.222C50.6632 24.8644 50.0835 25.3354 49.4576 25.5528C48.8943 25.7505 48.3639 25.7109 47.9621 25.4474C47.5602 25.1839 47.3164 24.7095 47.2703 24.1166C47.2209 23.4545 47.4284 22.7364 47.8501 22.094C48.2684 21.4517 48.8482 20.9806 49.4741 20.7632C49.7113 20.6809 49.9451 20.6381 50.1626 20.6381C50.4623 20.6381 50.7357 20.7138 50.9696 20.8686C51.8459 21.4451 51.8986 22.9802 51.0816 24.2188L51.0816 24.222Z" fill="white"/>
<path d="M42.6318 27.8815C41.6039 27.8255 40.5005 28.1451 39.5287 28.7742C37.4534 30.1249 36.6068 32.5197 37.6477 34.1173C38.1748 34.9277 39.0741 35.4053 40.1875 35.4646C40.2632 35.4679 40.339 35.4712 40.4148 35.4712C41.3799 35.4712 42.3913 35.155 43.2906 34.5686C44.2623 33.9362 45.0002 33.0599 45.3691 32.098C45.7677 31.0571 45.6985 30.0392 45.1715 29.2289C44.6444 28.4185 43.7452 27.9409 42.6318 27.8815ZM44.0614 31.594C43.7979 32.2825 43.2543 32.9215 42.5296 33.3893C41.8049 33.8603 41.0012 34.1008 40.2666 34.058C39.6143 34.025 39.1037 33.7714 38.8303 33.3498C38.2275 32.4175 38.8962 30.8627 40.2962 29.9503C40.9715 29.5121 41.7094 29.275 42.4045 29.275C42.4572 29.275 42.5099 29.275 42.5626 29.2782C43.2148 29.3112 43.7254 29.5648 44.0021 29.9865C44.2788 30.4081 44.2986 30.978 44.068 31.5874L44.0614 31.594Z" fill="white"/>
<path d="M30.7427 35.85C28.6312 37.2204 27.6693 39.3549 28.5488 40.7121C28.977 41.3709 29.7413 41.7234 30.7196 41.7234C30.7921 41.7234 30.8678 41.7234 30.9469 41.7168C31.8923 41.6674 32.9333 41.2985 33.8853 40.6824C35.9968 39.3121 36.9587 37.1741 36.0792 35.8203C35.1997 34.4664 32.8543 34.4796 30.746 35.85L30.7427 35.85ZM33.1178 39.5032C32.3799 39.9808 31.5629 40.2773 30.8679 40.3135C30.3177 40.3432 29.8994 40.2081 29.7281 39.9446C29.3492 39.3615 30.0278 37.9879 31.5069 37.026C32.3699 36.466 33.2495 36.2124 33.9084 36.2124C34.3794 36.2124 34.7385 36.3441 34.8966 36.5846C35.2755 37.1677 34.5969 38.5413 33.1178 39.5032Z" fill="white"/>
<path d="M47.2793 17.4062C47.5066 17.09 47.4407 16.6519 47.1245 16.4246C46.8082 16.1973 46.3701 16.2631 46.1428 16.5794C37.3278 28.6756 26.892 34.5458 19.6911 37.3422C11.8774 40.3761 6.07016 40.5474 6.01366 40.5507C5.62495 40.5606 5.3186 40.8834 5.32848 41.2688C5.33836 41.6509 5.64801 41.954 6.03013 41.954H6.0466C6.29036 41.9474 12.1111 41.7827 20.1423 38.6763C27.5376 35.8138 38.2504 29.8049 47.283 17.4092L47.2793 17.4062Z" fill="white"/>
<path d="M55.8344 1.04126C55.4918 0.860088 55.0668 0.985262 54.8857 1.32785C54.7045 1.67043 54.8297 2.09538 55.1722 2.27656C59.8928 4.80974 61.1511 6.83559 61.4838 7.80083C53.5186 7.13212 51.6704 1.5848 51.5979 1.36082L51.3574 0.510946C51.2717 0.214477 51.0049 0.00365177 50.6953 0.000354477C50.3988 -0.00952812 50.1122 0.188123 50.0134 0.481296C46.6336 10.6565 39.6729 20.3055 31.3849 26.2904C22.8533 32.4537 12.3585 35.8534 1.8299 35.8635C1.59602 35.8635 1.37861 35.9788 1.24684 36.1732C1.19743 36.2489 -3.82281 43.9605 6.6393 52.0347C6.74142 52.1138 6.86001 52.1599 6.99178 52.1764C7.0906 52.1863 7.5946 52.239 8.46426 52.239C12.4337 52.239 24.0062 51.175 39.4057 40.41C49.2157 33.555 55.0927 25.3167 58.2972 19.6211C61.7561 13.4709 62.9057 8.97446 62.965 8.73749C62.965 8.7309 62.965 8.72761 62.9683 8.72102C62.9683 8.71114 62.9749 8.70126 62.9749 8.69138C63.054 8.27961 63.3702 5.09421 55.8299 1.049L55.8344 1.04126ZM38.5991 39.2527C21.4827 51.2174 8.99175 50.8978 7.3313 50.789C-0.821701 44.3985 1.49079 38.6498 2.22867 37.2668C12.9149 37.1712 23.5413 33.6861 32.202 27.4272C40.21 21.6427 47.0153 12.5379 50.682 2.79026C51.657 4.70083 54.4801 8.63077 61.3615 9.20396C60.2217 12.8604 54.6841 28.0065 38.5991 39.2527Z" fill="white"/>
</svg>
