<svg width="52" height="55" viewBox="0 0 52 55" fill="none" xmlns="http://www.w3.org/2000/svg">
<path fill-rule="evenodd" clip-rule="evenodd" d="M27.9538 8.56916C27.7921 8.56916 27.6282 8.51384 27.4942 8.40318C27.1856 8.14782 27.1409 7.69244 27.3963 7.38176L31.5395 2.35338C31.7948 2.04482 32.2523 2.00014 32.5609 2.25549C32.8694 2.51085 32.9141 2.96624 32.6588 3.27691L28.5156 8.30529C28.3709 8.47978 28.1645 8.56916 27.956 8.56916H27.9538Z" fill="white"/>
<path fill-rule="evenodd" clip-rule="evenodd" d="M34.6338 5.62625C34.4721 5.62625 34.3083 5.57093 34.1742 5.46027L29.1075 1.2852C28.799 1.02985 28.7543 0.574455 29.0096 0.263781C29.265 -0.0447753 29.7225 -0.0894617 30.0311 0.165893L35.0977 4.34097C35.4063 4.59632 35.451 5.05383 35.1956 5.36239C35.0509 5.53475 34.8445 5.62625 34.636 5.62625H34.6338Z" fill="white"/>
<path fill-rule="evenodd" clip-rule="evenodd" d="M13.3582 30.9489C13.0049 30.9489 12.6645 30.8276 12.3942 30.6042L8.58517 27.4655C7.9319 26.9271 7.84676 25.944 8.39791 25.2758L23.4746 6.9818C23.73 6.67324 24.1854 6.62856 24.496 6.88391L29.5585 11.0547C29.7074 11.176 29.801 11.3526 29.8202 11.5441C29.8393 11.7356 29.7798 11.9271 29.6585 12.074L14.5818 30.368C14.2775 30.7361 13.8327 30.9489 13.3603 30.9489H13.3582ZM24.134 8.463L9.51927 26.1976C9.47245 26.255 9.48097 26.3252 9.50863 26.3465L13.3177 29.4852C13.3219 29.4895 13.3326 29.498 13.3602 29.498C13.3751 29.498 13.4241 29.4938 13.4624 29.4469L28.0793 11.7124L24.1362 8.46301L24.134 8.463Z" fill="white"/>
<path fill-rule="evenodd" clip-rule="evenodd" d="M4.57394 36.9389C4.41222 36.9389 4.24836 36.8857 4.11431 36.7729C3.80575 36.5176 3.76106 36.0622 4.01642 35.7515L8.61281 30.1721C8.86816 29.8636 9.32355 29.8189 9.63422 30.0721C9.94278 30.3275 9.98747 30.7829 9.73211 31.0935L5.13573 36.6729C4.99315 36.8474 4.78461 36.9368 4.5761 36.9368L4.57394 36.9389Z" fill="white"/>
<path fill-rule="evenodd" clip-rule="evenodd" d="M22.2613 13.5598C22.0995 13.5598 21.9357 13.5045 21.8016 13.3938L20.212 12.0831C19.9035 11.8277 19.8588 11.3723 20.1141 11.0616C20.3695 10.7531 20.827 10.7084 21.1356 10.9637L22.7252 12.2745C23.0337 12.5299 23.0784 12.9853 22.823 13.296C22.6783 13.4704 22.4719 13.5598 22.2634 13.5598H22.2613Z" fill="white"/>
<path fill-rule="evenodd" clip-rule="evenodd" d="M18.2652 18.4092C18.1035 18.4092 17.9397 18.3539 17.8056 18.2432L16.216 16.9324C15.9074 16.6771 15.8627 16.2217 16.1181 15.911C16.3735 15.6024 16.8288 15.5578 17.1395 15.8131L18.7291 17.1239C19.0377 17.3793 19.0824 17.8346 18.827 18.1453C18.6823 18.3198 18.4759 18.4092 18.2674 18.4092H18.2652Z" fill="white"/>
<path fill-rule="evenodd" clip-rule="evenodd" d="M14.269 23.2586C14.1072 23.2586 13.9434 23.2032 13.8093 23.0926L12.2197 21.7818C11.9112 21.5264 11.8665 21.071 12.1218 20.7604C12.3772 20.4518 12.8326 20.4071 13.1432 20.6625L14.7328 21.9733C15.0414 22.2286 15.0861 22.684 14.8307 22.9947C14.686 23.1692 14.4796 23.2586 14.2711 23.2586H14.269Z" fill="white"/>
<path fill-rule="evenodd" clip-rule="evenodd" d="M25.1998 11.9101C25.0381 11.9101 24.8743 11.8548 24.7402 11.7441L22.2101 9.65873C21.9015 9.40338 21.8568 8.94799 22.1122 8.63732C22.3675 8.32876 22.8229 8.28407 23.1336 8.53943L25.6637 10.6248C25.9723 10.8802 26.017 11.3356 25.7616 11.6462C25.619 11.8207 25.4105 11.9101 25.202 11.9101H25.1998Z" fill="white"/>
<path fill-rule="evenodd" clip-rule="evenodd" d="M21.2039 16.7602C21.0422 16.7602 20.8783 16.7049 20.7443 16.5942L18.2142 14.5088C17.9056 14.2535 17.8609 13.796 18.1163 13.4874C18.3716 13.1789 18.827 13.1342 19.1377 13.3895L21.6678 15.4749C21.9764 15.7303 22.0211 16.1857 21.7657 16.4963C21.621 16.6708 21.4146 16.7602 21.2061 16.7602H21.2039Z" fill="white"/>
<path fill-rule="evenodd" clip-rule="evenodd" d="M17.2076 21.6096C17.0459 21.6096 16.8821 21.5542 16.748 21.4436L14.2157 19.3582C13.9072 19.1028 13.8625 18.6475 14.1179 18.3368C14.3732 18.0282 14.8286 17.9835 15.1393 18.2389L17.6715 20.3243C17.9801 20.5796 18.0248 21.035 17.7694 21.3457C17.6247 21.5202 17.4183 21.6096 17.2098 21.6096H17.2076Z" fill="white"/>
<path fill-rule="evenodd" clip-rule="evenodd" d="M13.2113 26.4589C13.0496 26.4589 12.8857 26.4036 12.7517 26.2929L10.2215 24.2076C9.91299 23.9522 9.8683 23.4968 10.1237 23.1861C10.379 22.8776 10.8344 22.8329 11.1451 23.0883L13.6752 25.1736C13.9838 25.429 14.0284 25.8844 13.7731 26.1951C13.6284 26.3696 13.422 26.4589 13.2135 26.4589H13.2113Z" fill="white"/>
<path fill-rule="evenodd" clip-rule="evenodd" d="M29.8371 12.6973C29.4754 12.6973 29.1221 12.5717 28.8434 12.3419L23.368 7.83066C22.9382 7.4753 22.8169 7.08162 22.7913 6.81137C22.7275 6.13467 23.168 5.61122 23.4297 5.29629L23.4766 5.23884C23.7745 4.87708 24.215 4.67065 24.6831 4.67065C25.0448 4.67065 25.3981 4.7962 25.6747 5.02602L31.1501 9.53726C31.5799 9.89263 31.7012 10.2863 31.7267 10.5566C31.7906 11.2333 31.3501 11.7588 31.0883 12.0716L31.0415 12.127C30.7436 12.4887 30.3052 12.6951 29.835 12.6951L29.8371 12.6973ZM24.2408 6.66899C24.2493 6.67325 24.2642 6.69027 24.2919 6.71155L29.7673 11.2228C29.8013 11.2526 29.8588 11.2888 29.9247 11.2079L29.9779 11.1441C30.0609 11.044 30.2524 10.8164 30.2822 10.7014C30.2737 10.6972 30.2588 10.6802 30.2311 10.6589L24.7558 6.14764C24.7196 6.11785 24.6643 6.0838 24.5962 6.16254L24.543 6.22638C24.46 6.32639 24.2685 6.55408 24.2387 6.66899L24.2408 6.66899Z" fill="white"/>
<path fill-rule="evenodd" clip-rule="evenodd" d="M10.3369 32.3218C10.1688 32.3218 10.0049 32.2643 9.87512 32.1558L7.54503 30.2364C7.23647 29.981 7.19179 29.5256 7.44714 29.2171L9.22823 27.0572C9.48358 26.7487 9.9411 26.704 10.2496 26.9594L12.5797 28.8787C12.8883 29.1341 12.933 29.5895 12.6776 29.9002L10.8965 32.06C10.7752 32.209 10.5986 32.3026 10.4071 32.3218C10.3837 32.3239 10.3603 32.326 10.3369 32.326L10.3369 32.3218ZM9.02822 29.5788L10.2391 30.5768L11.0966 29.5362L9.88578 28.5382L9.02822 29.5788Z" fill="white"/>
<path fill-rule="evenodd" clip-rule="evenodd" d="M17.9033 47.3195C16.4095 47.3195 15.0795 46.93 14.522 45.998C13.9049 44.9638 14.3624 43.6785 15.8796 42.1762C17.3075 40.7654 20.0419 39.0694 24.0107 37.1393L24.9278 36.6903C29.6477 34.3793 32.7653 32.8536 38.6274 33.7792C40.2659 34.0388 41.9363 34.4729 43.5962 35.0709C43.9728 35.2071 44.1686 35.622 44.0324 35.9987C43.8962 36.3753 43.4813 36.5711 43.1046 36.4349C41.5321 35.8667 39.9488 35.4539 38.4018 35.2113C32.9904 34.358 30.1945 35.7242 25.5641 37.9926L24.6427 38.4437C20.8698 40.2802 18.1906 41.9272 16.8968 43.2082C15.8052 44.2892 15.5966 44.9744 15.7647 45.2574C16.1414 45.8895 18.3098 46.1299 20.4356 45.4809C23.4488 44.5616 31.7224 41.9548 31.8052 41.9293C32.1882 41.808 32.5947 42.0208 32.7139 42.4039C32.833 42.7848 32.6224 43.1933 32.2393 43.3125C32.1564 43.338 23.8762 45.9469 20.8566 46.8683C19.9139 47.1556 18.8713 47.3216 17.8966 47.3216L17.9033 47.3195Z" fill="white"/>
<path fill-rule="evenodd" clip-rule="evenodd" d="M11.134 43.4446C11.0127 43.4446 10.8871 43.4127 10.7743 43.3488C8.91023 42.2827 8.6847 40.5846 9.289 39.378C9.89973 38.1545 11.4532 37.2458 13.1278 37.9672L18.7476 40.3931C19.1157 40.5506 19.2838 40.9783 19.1263 41.3464C18.9667 41.7146 18.5412 41.8827 18.173 41.7252L12.5533 39.3015C11.6957 38.9333 10.8999 39.3993 10.5849 40.0292C10.2083 40.7804 10.5488 41.5528 11.4936 42.0955C11.8404 42.2934 11.9617 42.7381 11.7617 43.085C11.6276 43.319 11.3829 43.451 11.1319 43.451L11.134 43.4446Z" fill="white"/>
<path fill-rule="evenodd" clip-rule="evenodd" d="M23.3213 54.4694C21.8935 54.4694 20.5252 54.2843 19.1229 53.8608C15.3458 52.7245 7.8595 48.9815 1.86935 44.6871C-0.350096 43.0975 -0.273503 41.1207 0.46704 39.912C1.26718 38.6033 3.07381 37.7564 4.71871 38.6012L15.3584 44.0787C15.7137 44.2618 15.8542 44.7001 15.6712 45.0555C15.4882 45.4109 15.0498 45.5513 14.6944 45.3683L4.05259 39.8908C3.17161 39.4354 2.14594 39.9397 1.70332 40.6675C1.13939 41.5889 1.51819 42.6529 2.71412 43.5083C8.58279 47.7132 15.8798 51.3691 19.5422 52.4712C23.7556 53.7394 27.6389 52.6776 34.6914 50.7496C37.1343 50.0814 39.9027 49.3239 43.1841 48.5302C43.5735 48.4366 43.9651 48.6749 44.0587 49.0643C44.1524 49.4537 43.914 49.8453 43.5246 49.9389C40.2646 50.7284 37.5067 51.4838 35.0743 52.1477C30.1545 53.4948 26.5903 54.4693 23.3239 54.4693L23.3213 54.4694Z" fill="white"/>
<path fill-rule="evenodd" clip-rule="evenodd" d="M49.6531 52.1181H44.4332C43.4395 52.1181 42.6309 51.3095 42.6309 50.3158V34.8349C42.6309 33.8411 43.4395 33.0325 44.4332 33.0325H49.6531C50.6469 33.0325 51.4555 33.8411 51.4555 34.8349V50.3158C51.4555 51.3095 50.6469 52.1181 49.6531 52.1181ZM44.4332 34.4816C44.2417 34.4816 44.08 34.6434 44.08 34.8349V50.3158C44.08 50.5073 44.2417 50.669 44.4332 50.669H49.6531C49.8446 50.669 50.0063 50.5073 50.0063 50.3158V34.8349C50.0063 34.6434 49.8446 34.4816 49.6531 34.4816H44.4332Z" fill="white"/>
<path fill-rule="evenodd" clip-rule="evenodd" d="M47.042 40.0037C46.642 40.0037 46.3164 39.6782 46.3164 39.2781V36.9182C46.3164 36.5182 46.642 36.1926 47.042 36.1926C47.4421 36.1926 47.7676 36.5182 47.7676 36.9182V39.2781C47.7676 39.6782 47.4421 40.0037 47.042 40.0037Z" fill="white"/>
<path fill-rule="evenodd" clip-rule="evenodd" d="M46.9101 27.1803C45.0481 27.1803 43.5352 25.6652 43.5352 23.8054V18.0451C43.5352 16.1831 45.0481 14.6702 46.9101 14.6702C48.7699 14.6702 50.285 16.1831 50.285 18.0451V23.8054C50.285 25.6652 48.7721 27.1803 46.9101 27.1803ZM46.9101 16.1212C45.8483 16.1212 44.9843 16.9851 44.9843 18.0448V23.8051C44.9843 24.8669 45.8482 25.7309 46.9101 25.7309C47.9719 25.7309 48.8359 24.867 48.8359 23.8051V18.0448C48.8359 16.983 47.972 16.1212 46.9101 16.1212Z" fill="white"/>
<path fill-rule="evenodd" clip-rule="evenodd" d="M49.5586 21.65H44.2578C43.8578 21.65 43.5322 21.3244 43.5322 20.9243C43.5322 20.5243 43.8578 20.1987 44.2578 20.1987H49.5586C49.9587 20.1987 50.2842 20.5243 50.2842 20.9243C50.2842 21.3244 49.9586 21.65 49.5586 21.65Z" fill="white"/>
<path fill-rule="evenodd" clip-rule="evenodd" d="M33.6178 20.8013C32.1602 20.8013 30.8728 19.8757 30.411 18.4967C30.1259 17.6455 30.1918 16.7305 30.594 15.9219C30.9983 15.1132 31.6878 14.5111 32.5411 14.2259L38.0034 12.4001C38.3481 12.2852 38.7056 12.2256 39.0695 12.2256C40.525 12.2256 41.8146 13.1512 42.2763 14.5302C42.8678 16.2943 41.9103 18.2115 40.1462 18.801L34.6839 20.6268C34.3392 20.7417 33.9816 20.7991 33.6199 20.7991L33.6178 20.8013ZM39.0676 13.677C38.8633 13.677 38.659 13.711 38.4632 13.777L33.001 15.6049C32.5158 15.7667 32.1221 16.1114 31.8923 16.5731C31.6624 17.0349 31.6241 17.5563 31.7859 18.0414C32.0476 18.8266 32.7839 19.3565 33.6159 19.3565C33.8202 19.3565 34.0245 19.3225 34.2203 19.2586L39.6826 17.4328C40.6891 17.0966 41.2339 16.0028 40.8976 14.9963C40.6338 14.2111 39.8996 13.6812 39.0655 13.6812L39.0676 13.677Z" fill="white"/>
<path fill-rule="evenodd" clip-rule="evenodd" d="M37.1847 19.7519C36.8804 19.7519 36.5995 19.5604 36.4973 19.2561L34.8163 14.2298C34.6886 13.8511 34.8929 13.4404 35.2738 13.3127C35.6526 13.185 36.0654 13.3893 36.1909 13.7702L37.872 18.7964C37.9997 19.1773 37.7954 19.588 37.4145 19.7136C37.3379 19.7391 37.2613 19.7519 37.1847 19.7519Z" fill="white"/>
<path fill-rule="evenodd" clip-rule="evenodd" d="M39.2231 31.0152H33.4628C31.6008 31.0152 30.0879 29.5002 30.0879 27.6403C30.0879 25.7805 31.603 24.2654 33.4628 24.2654H39.2231C41.0851 24.2654 42.598 25.7783 42.598 27.6403C42.598 29.5023 41.0851 31.0152 39.2231 31.0152ZM33.4628 25.7166C32.401 25.7166 31.537 26.5805 31.537 27.6403C31.537 28.7021 32.4009 29.5661 33.4628 29.5661H39.2231C40.2849 29.5661 41.1489 28.7022 41.1489 27.6403C41.1489 26.5784 40.285 25.7166 39.2231 25.7166H33.4628Z" fill="white"/>
<path fill-rule="evenodd" clip-rule="evenodd" d="M36.3448 31.0133C35.9447 31.0133 35.6191 30.6877 35.6191 30.2877V24.989C35.6191 24.589 35.9447 24.2634 36.3448 24.2634C36.7448 24.2634 37.0704 24.589 37.0704 24.989V30.2877C37.0704 30.6877 36.7448 31.0133 36.3448 31.0133Z" fill="white"/>
</svg>
