<svg width="22" height="22" viewBox="0 0 22 22" fill="none" xmlns="http://www.w3.org/2000/svg">
<path d="M10.975 21.3208H10.9296C5.25308 21.3208 0.634766 16.7011 0.634766 11.0229V10.9775C0.634766 5.29937 5.25308 0.679688 10.9296 0.679688H10.975C16.6515 0.679688 21.2698 5.29937 21.2698 10.9775V11.0229C21.2698 16.7011 16.6515 21.3208 10.975 21.3208ZM10.9296 1.37837C5.63794 1.37837 1.33324 5.68434 1.33324 10.9775V11.0229C1.33324 16.3161 5.63794 20.6221 10.9296 20.6221H10.975C16.2666 20.6221 20.5713 16.3161 20.5713 11.0229V10.9775C20.5713 5.68434 16.2666 1.37837 10.975 1.37837H10.9296Z" fill="white"/>
<path d="M5.73942 7.65842C5.4768 7.41458 5.34619 7.11275 5.34619 6.75363C5.34619 6.39451 5.4775 6.0794 5.73942 5.83486C6.00205 5.59102 6.34011 5.46875 6.75431 5.46875C7.1685 5.46875 7.4933 5.59102 7.75523 5.83486C8.01785 6.0787 8.14846 6.38543 8.14846 6.75363C8.14846 7.12183 8.01715 7.41458 7.75523 7.65842C7.4926 7.90226 7.15942 8.02452 6.75431 8.02452C6.34919 8.02452 6.00205 7.90226 5.73942 7.65842ZM7.92775 9.05717V16.533H5.5662V9.05717H7.92775Z" fill="white"/>
<path d="M15.7905 9.7974C16.3053 10.3563 16.5623 11.1235 16.5623 12.1003V16.4027H14.3195V12.4035C14.3195 11.9109 14.1917 11.528 13.9368 11.2556C13.6818 10.9831 13.3382 10.8461 12.9079 10.8461C12.4777 10.8461 12.134 10.9824 11.8791 11.2556C11.6241 11.528 11.4963 11.9109 11.4963 12.4035V16.4027H9.24023V9.03794H11.4963V10.0147C11.7247 9.68911 12.0327 9.43199 12.4197 9.24265C12.8066 9.05331 13.2418 8.95898 13.7258 8.95898C14.5877 8.95898 15.2764 9.23846 15.7905 9.7974Z" fill="white"/>
</svg>
