<svg width="373" height="300" viewBox="0 0 373 300" fill="none" xmlns="http://www.w3.org/2000/svg">
<g opacity="0.5">
<path d="M78.4328 0.205078H74.3463C74.1872 0.205078 74.0735 0.244863 74.0053 0.324432C73.9371 0.404002 73.8803 0.580191 73.8234 0.847318L67.3328 25.0762C67.1169 25.8265 66.9464 26.2925 66.81 26.4801C66.6792 26.6676 66.4519 26.7586 66.1279 26.7586C65.7301 26.7586 65.4459 26.6563 65.2868 26.4573C65.1276 26.2584 64.9514 25.798 64.7639 25.0762L58.4893 0.847318C58.4381 0.580191 58.3756 0.404002 58.3074 0.324432C58.2392 0.244863 58.1255 0.205078 57.9664 0.205078H53.8799C53.4536 0.205078 53.2945 0.421052 53.3968 0.847318L60.0466 26.3209C60.5524 28.4295 61.1548 29.7538 61.8482 30.288C62.4621 30.7939 63.8886 31.0496 66.1336 31.0496C68.2422 31.0496 69.6063 30.7939 70.2201 30.288C70.8339 29.7822 71.4477 28.4579 72.0615 26.3209L78.9159 0.847318C79.0239 0.421052 78.8647 0.205078 78.4328 0.205078Z" fill="url(#paint0_linear_386_679)"/>
<path d="M290.01 54.8613H285.923C285.764 54.8613 285.651 54.9011 285.582 54.9807C285.514 55.0603 285.457 55.2364 285.401 55.5036L278.91 79.7325C278.694 80.4827 278.524 80.9488 278.387 81.1363C278.256 81.3239 278.029 81.4148 277.705 81.4148C277.307 81.4148 277.023 81.3125 276.864 81.1136C276.705 80.9147 276.529 80.4543 276.341 79.7325L270.066 55.5036C270.015 55.2364 269.953 55.0603 269.885 54.9807C269.816 54.9011 269.703 54.8613 269.544 54.8613H265.457C265.031 54.8613 264.872 55.0773 264.974 55.5036L271.624 80.9772C272.13 83.0858 272.732 84.41 273.425 84.9443C274.039 85.4501 275.466 85.7059 277.711 85.7059C279.819 85.7059 281.183 85.4501 281.797 84.9443C282.411 84.4384 283.025 83.1142 283.639 80.9772L290.493 55.5036C290.601 55.0773 290.442 54.8613 290.01 54.8613Z" fill="url(#paint1_linear_386_679)"/>
<path d="M290.01 0H285.923C285.764 0 285.651 0.0397848 285.582 0.119354C285.514 0.198924 285.457 0.375113 285.401 0.64224L278.91 24.8712C278.694 25.6214 278.524 26.0874 278.387 26.275C278.256 26.4625 278.029 26.5535 277.705 26.5535C277.307 26.5535 277.023 26.4512 276.864 26.2523C276.705 26.0533 276.529 25.593 276.341 24.8712L270.066 0.64224C270.015 0.375113 269.953 0.198924 269.885 0.119354C269.816 0.0397848 269.703 0 269.544 0H265.457C265.031 0 264.872 0.215974 264.974 0.64224L271.624 26.1158C272.13 28.2244 272.732 29.5487 273.425 30.083C274.039 30.5888 275.466 30.8445 277.711 30.8445C279.819 30.8445 281.183 30.5888 281.797 30.083C282.411 29.5771 283.025 28.2529 283.639 26.1158L290.493 0.64224C290.601 0.215974 290.442 0 290.01 0Z" fill="url(#paint2_linear_386_679)"/>
<path d="M184.3 109.724H180.214C180.054 109.724 179.941 109.763 179.872 109.843C179.804 109.923 179.747 110.099 179.691 110.366L173.2 134.595C172.984 135.345 172.814 135.811 172.677 135.999C172.546 136.186 172.319 136.277 171.995 136.277C171.597 136.277 171.313 136.175 171.154 135.976C170.995 135.777 170.819 135.317 170.631 134.595L164.356 110.366C164.305 110.099 164.243 109.923 164.175 109.843C164.106 109.763 163.993 109.724 163.834 109.724H159.747C159.321 109.724 159.162 109.94 159.264 110.366L165.914 135.839C166.42 137.948 167.022 139.272 167.715 139.807C168.329 140.312 169.756 140.568 172.001 140.568C174.109 140.568 175.473 140.312 176.087 139.807C176.701 139.301 177.315 137.976 177.929 135.839L184.783 110.366C184.891 109.94 184.732 109.724 184.3 109.724Z" fill="url(#paint3_linear_386_679)"/>
<path d="M25.5461 30.2023L18.6974 4.7287C18.0836 2.59169 17.4698 1.27311 16.856 0.761594C16.2421 0.255759 14.8781 0 12.7695 0C10.5245 0 9.09793 0.255759 8.48411 0.761594C7.79072 1.29585 7.18826 2.61443 6.68243 4.7287L0.0326946 30.2023C-0.0752926 30.6286 0.0838412 30.8445 0.51579 30.8445H4.60225C4.76139 30.8445 4.87507 30.8048 4.94327 30.7252C5.01147 30.6456 5.0683 30.4694 5.12514 30.2023L11.4111 5.97339C11.5987 5.25159 11.7692 4.79122 11.934 4.5923C12.0931 4.39337 12.3773 4.29107 12.7752 4.29107C13.0935 4.29107 13.3208 4.382 13.4572 4.56956C13.5936 4.75712 13.7641 5.22317 13.9801 5.97339L20.4707 30.2023C20.5218 30.4694 20.5844 30.6456 20.6526 30.7252C20.7208 30.8048 20.8344 30.8445 20.9936 30.8445H25.08C25.5063 30.8445 25.6654 30.6286 25.5631 30.2023H25.5461Z" fill="url(#paint4_linear_386_679)"/>
<path d="M25.5461 139.926L18.6974 114.452C18.0836 112.315 17.4698 110.997 16.856 110.485C16.2421 109.979 14.8781 109.724 12.7695 109.724C10.5245 109.724 9.09793 109.979 8.48411 110.485C7.79072 111.019 7.18826 112.338 6.68243 114.452L0.0326946 139.926C-0.0752926 140.352 0.0838412 140.568 0.51579 140.568H4.60225C4.76139 140.568 4.87507 140.528 4.94327 140.449C5.01147 140.369 5.0683 140.193 5.12514 139.926L11.4111 115.697C11.5987 114.975 11.7692 114.515 11.934 114.316C12.0931 114.117 12.3773 114.015 12.7752 114.015C13.0935 114.015 13.3208 114.106 13.4572 114.293C13.5936 114.481 13.7641 114.947 13.9801 115.697L20.4707 139.926C20.5218 140.193 20.5844 140.369 20.6526 140.449C20.7208 140.528 20.8344 140.568 20.9936 140.568H25.08C25.5063 140.568 25.6654 140.352 25.5631 139.926H25.5461Z" fill="url(#paint5_linear_386_679)"/>
<path d="M132.595 30.2023L125.746 4.7287C125.132 2.59169 124.519 1.27311 123.905 0.761594C123.291 0.255759 121.927 0 119.818 0C117.573 0 116.147 0.255759 115.533 0.761594C114.84 1.29585 114.237 2.61443 113.731 4.7287L107.082 30.2023C106.974 30.6286 107.133 30.8445 107.565 30.8445H111.651C111.81 30.8445 111.924 30.8048 111.992 30.7252C112.06 30.6456 112.117 30.4694 112.174 30.2023L118.46 5.97339C118.648 5.25159 118.818 4.79122 118.983 4.5923C119.142 4.39337 119.426 4.29107 119.824 4.29107C120.142 4.29107 120.37 4.382 120.506 4.56956C120.642 4.75712 120.813 5.22317 121.029 5.97339L127.52 30.2023C127.571 30.4694 127.633 30.6456 127.701 30.7252C127.77 30.8048 127.883 30.8445 128.042 30.8445H132.129C132.555 30.8445 132.714 30.6286 132.612 30.2023H132.595Z" fill="url(#paint6_linear_386_679)"/>
<path d="M132.595 85.0636L125.746 59.59C125.132 57.453 124.519 56.1344 123.905 55.6229C123.291 55.1171 121.927 54.8613 119.818 54.8613C117.573 54.8613 116.147 55.1171 115.533 55.6229C114.84 56.1572 114.237 57.4758 113.731 59.59L107.082 85.0636C106.974 85.4899 107.133 85.7059 107.565 85.7059H111.651C111.81 85.7059 111.924 85.6661 111.992 85.5865C112.06 85.5069 112.117 85.3308 112.174 85.0636L118.46 60.8347C118.648 60.1129 118.818 59.6525 118.983 59.4536C119.142 59.2547 119.426 59.1524 119.824 59.1524C120.142 59.1524 120.37 59.2433 120.506 59.4309C120.642 59.6184 120.813 60.0845 121.029 60.8347L127.52 85.0636C127.571 85.3308 127.633 85.5069 127.701 85.5865C127.77 85.6661 127.883 85.7059 128.042 85.7059H132.129C132.555 85.7059 132.714 85.4899 132.612 85.0636H132.595Z" fill="url(#paint7_linear_386_679)"/>
<path d="M132.595 139.926L125.746 114.452C125.132 112.315 124.519 110.997 123.905 110.485C123.291 109.979 121.927 109.724 119.818 109.724C117.573 109.724 116.147 109.979 115.533 110.485C114.84 111.019 114.237 112.338 113.731 114.452L107.082 139.926C106.974 140.352 107.133 140.568 107.565 140.568H111.651C111.81 140.568 111.924 140.528 111.992 140.449C112.06 140.369 112.117 140.193 112.174 139.926L118.46 115.697C118.648 114.975 118.818 114.515 118.983 114.316C119.142 114.117 119.426 114.015 119.824 114.015C120.142 114.015 120.37 114.106 120.506 114.293C120.642 114.481 120.813 114.947 121.029 115.697L127.52 139.926C127.571 140.193 127.633 140.369 127.701 140.449C127.77 140.528 127.883 140.568 128.042 140.568H132.129C132.555 140.568 132.714 140.352 132.612 139.926H132.595Z" fill="url(#paint8_linear_386_679)"/>
<path d="M236.967 139.926L230.118 114.452C229.505 112.315 228.891 110.997 228.277 110.485C227.663 109.979 226.299 109.724 224.19 109.724C221.945 109.724 220.519 109.979 219.905 110.485C219.212 111.019 218.609 112.338 218.103 114.452L211.454 139.926C211.346 140.352 211.505 140.568 211.937 140.568H216.023C216.182 140.568 216.296 140.528 216.364 140.449C216.432 140.369 216.489 140.193 216.546 139.926L222.832 115.697C223.02 114.975 223.19 114.515 223.355 114.316C223.514 114.117 223.798 114.015 224.196 114.015C224.514 114.015 224.742 114.106 224.878 114.293C225.014 114.481 225.185 114.947 225.401 115.697L231.892 139.926C231.943 140.193 232.005 140.369 232.073 140.449C232.142 140.528 232.255 140.568 232.414 140.568H236.501C236.927 140.568 237.086 140.352 236.984 139.926H236.967Z" fill="url(#paint9_linear_386_679)"/>
<path d="M236.967 85.0636L230.118 59.59C229.505 57.453 228.891 56.1344 228.277 55.6229C227.663 55.1171 226.299 54.8613 224.19 54.8613C221.945 54.8613 220.519 55.1171 219.905 55.6229C219.212 56.1572 218.609 57.4758 218.103 59.59L211.454 85.0636C211.346 85.4899 211.505 85.7059 211.937 85.7059H216.023C216.182 85.7059 216.296 85.6661 216.364 85.5865C216.432 85.5069 216.489 85.3308 216.546 85.0636L222.832 60.8347C223.02 60.1129 223.19 59.6525 223.355 59.4536C223.514 59.2547 223.798 59.1524 224.196 59.1524C224.514 59.1524 224.742 59.2433 224.878 59.4309C225.014 59.6184 225.185 60.0845 225.401 60.8347L231.892 85.0636C231.943 85.3308 232.005 85.5069 232.073 85.5865C232.142 85.6661 232.255 85.7059 232.414 85.7059H236.501C236.927 85.7059 237.086 85.4899 236.984 85.0636H236.967Z" fill="url(#paint10_linear_386_679)"/>
<path d="M395.735 0.205078H391.648C391.489 0.205078 391.375 0.244863 391.307 0.324432C391.239 0.404002 391.182 0.580191 391.125 0.847318L384.635 25.0762C384.419 25.8265 384.248 26.2925 384.112 26.4801C383.981 26.6676 383.754 26.7586 383.43 26.7586C383.032 26.7586 382.748 26.6563 382.589 26.4573C382.429 26.2584 382.253 25.798 382.066 25.0762L375.791 0.847318C375.74 0.580191 375.677 0.404002 375.609 0.324432C375.541 0.244863 375.427 0.205078 375.268 0.205078H371.182C370.755 0.205078 370.596 0.421052 370.699 0.847318L377.348 26.3209C377.854 28.4295 378.457 29.7538 379.15 30.288C379.764 30.7939 381.19 31.0496 383.435 31.0496C385.544 31.0496 386.908 30.7939 387.522 30.288C388.136 29.7822 388.749 28.4579 389.363 26.3209L396.218 0.847318C396.326 0.421052 396.167 0.205078 395.735 0.205078Z" fill="url(#paint11_linear_386_679)"/>
<path d="M395.735 54.8916H391.648C391.489 54.8916 391.375 54.9314 391.307 55.011C391.239 55.0905 391.182 55.2667 391.125 55.5338L384.635 79.7628C384.419 80.513 384.248 80.979 384.112 81.1666C383.981 81.3541 383.754 81.4451 383.43 81.4451C383.032 81.4451 382.748 81.3428 382.589 81.1439C382.429 80.9449 382.253 80.4846 382.066 79.7628L375.791 55.5338C375.74 55.2667 375.677 55.0905 375.609 55.011C375.541 54.9314 375.427 54.8916 375.268 54.8916H371.182C370.755 54.8916 370.596 55.1076 370.699 55.5338L377.348 81.0074C377.854 83.116 378.457 84.4403 379.15 84.9746C379.764 85.4804 381.19 85.7361 383.435 85.7361C385.544 85.7361 386.908 85.4804 387.522 84.9746C388.136 84.4687 388.749 83.1445 389.363 81.0074L396.218 55.5338C396.326 55.1076 396.167 54.8916 395.735 54.8916Z" fill="url(#paint12_linear_386_679)"/>
<path d="M395.735 109.783H391.648C391.489 109.783 391.375 109.823 391.307 109.903C391.239 109.982 391.182 110.158 391.125 110.425L384.635 134.654C384.419 135.405 384.248 135.871 384.112 136.058C383.981 136.246 383.754 136.337 383.43 136.337C383.032 136.337 382.748 136.234 382.589 136.035C382.429 135.837 382.253 135.376 382.066 134.654L375.791 110.425C375.74 110.158 375.677 109.982 375.609 109.903C375.541 109.823 375.427 109.783 375.268 109.783H371.182C370.755 109.783 370.596 109.999 370.699 110.425L377.348 135.899C377.854 138.008 378.457 139.332 379.15 139.866C379.764 140.372 381.19 140.628 383.435 140.628C385.544 140.628 386.908 140.372 387.522 139.866C388.136 139.36 388.749 138.036 389.363 135.899L396.218 110.425C396.326 109.999 396.167 109.783 395.735 109.783Z" fill="url(#paint13_linear_386_679)"/>
<path d="M607.311 54.8613H603.224C603.065 54.8613 602.951 54.9011 602.883 54.9807C602.815 55.0603 602.758 55.2364 602.701 55.5036L596.211 79.7325C595.995 80.4827 595.824 80.9488 595.688 81.1363C595.557 81.3239 595.33 81.4148 595.006 81.4148C594.608 81.4148 594.324 81.3125 594.165 81.1136C594.006 80.9147 593.829 80.4543 593.642 79.7325L587.367 55.5036C587.316 55.2364 587.254 55.0603 587.185 54.9807C587.117 54.9011 587.003 54.8613 586.844 54.8613H582.758C582.332 54.8613 582.172 55.0773 582.275 55.5036L588.924 80.9772C589.43 83.0858 590.033 84.41 590.726 84.9443C591.34 85.4501 592.767 85.7059 595.012 85.7059C597.12 85.7059 598.484 85.4501 599.098 84.9443C599.712 84.4384 600.326 83.1142 600.94 80.9772L607.794 55.5036C607.902 55.0773 607.743 54.8613 607.311 54.8613Z" fill="url(#paint14_linear_386_679)"/>
<path d="M607.311 0H603.224C603.065 0 602.951 0.0397848 602.883 0.119354C602.815 0.198924 602.758 0.375113 602.701 0.64224L596.211 24.8712C595.995 25.6214 595.824 26.0874 595.688 26.275C595.557 26.4625 595.33 26.5535 595.006 26.5535C594.608 26.5535 594.324 26.4512 594.165 26.2523C594.006 26.0533 593.829 25.593 593.642 24.8712L587.367 0.64224C587.316 0.375113 587.254 0.198924 587.185 0.119354C587.117 0.0397848 587.003 0 586.844 0H582.758C582.332 0 582.172 0.215974 582.275 0.64224L588.924 26.1158C589.43 28.2244 590.033 29.5487 590.726 30.083C591.34 30.5888 592.767 30.8445 595.012 30.8445C597.12 30.8445 598.484 30.5888 599.098 30.083C599.712 29.5771 600.326 28.2529 600.94 26.1158L607.794 0.64224C607.902 0.215974 607.743 0 607.311 0Z" fill="url(#paint15_linear_386_679)"/>
<path d="M501.601 109.724H497.514C497.355 109.724 497.241 109.763 497.173 109.843C497.105 109.923 497.048 110.099 496.991 110.366L490.501 134.595C490.285 135.345 490.114 135.811 489.978 135.999C489.847 136.186 489.62 136.277 489.296 136.277C488.898 136.277 488.614 136.175 488.455 135.976C488.296 135.777 488.119 135.317 487.932 134.595L481.657 110.366C481.606 110.099 481.544 109.923 481.475 109.843C481.407 109.763 481.293 109.724 481.134 109.724H477.048C476.622 109.724 476.462 109.94 476.565 110.366L483.215 135.839C483.72 137.948 484.323 139.272 485.016 139.807C485.63 140.312 487.057 140.568 489.302 140.568C491.41 140.568 492.774 140.312 493.388 139.807C494.002 139.301 494.616 137.976 495.23 135.839L502.084 110.366C502.192 109.94 502.033 109.724 501.601 109.724Z" fill="url(#paint16_linear_386_679)"/>
<path d="M501.601 54.8916H497.514C497.355 54.8916 497.241 54.9314 497.173 55.011C497.105 55.0905 497.048 55.2667 496.991 55.5338L490.501 79.7628C490.285 80.513 490.114 80.979 489.978 81.1666C489.847 81.3541 489.62 81.4451 489.296 81.4451C488.898 81.4451 488.614 81.3428 488.455 81.1439C488.296 80.9449 488.119 80.4846 487.932 79.7628L481.657 55.5338C481.606 55.2667 481.544 55.0905 481.475 55.011C481.407 54.9314 481.293 54.8916 481.134 54.8916H477.048C476.622 54.8916 476.462 55.1076 476.565 55.5338L483.215 81.0074C483.72 83.116 484.323 84.4403 485.016 84.9746C485.63 85.4804 487.057 85.7361 489.302 85.7361C491.41 85.7361 492.774 85.4804 493.388 84.9746C494.002 84.4687 494.616 83.1445 495.23 81.0074L502.084 55.5338C502.192 55.1076 502.033 54.8916 501.601 54.8916Z" fill="url(#paint17_linear_386_679)"/>
<path d="M342.848 30.2023L335.999 4.7287C335.385 2.59169 334.772 1.27311 334.158 0.761594C333.544 0.255759 332.18 0 330.071 0C327.826 0 326.4 0.255759 325.786 0.761594C325.092 1.29585 324.49 2.61443 323.984 4.7287L317.334 30.2023C317.226 30.6286 317.386 30.8445 317.818 30.8445H321.904C322.063 30.8445 322.177 30.8048 322.245 30.7252C322.313 30.6456 322.37 30.4694 322.427 30.2023L328.713 5.97339C328.9 5.25159 329.071 4.79122 329.236 4.5923C329.395 4.39337 329.679 4.29107 330.077 4.29107C330.395 4.29107 330.623 4.382 330.759 4.56956C330.895 4.75712 331.066 5.22317 331.282 5.97339L337.772 30.2023C337.824 30.4694 337.886 30.6456 337.954 30.7252C338.023 30.8048 338.136 30.8445 338.295 30.8445H342.382C342.808 30.8445 342.967 30.6286 342.865 30.2023H342.848Z" fill="url(#paint18_linear_386_679)"/>
<path d="M342.848 139.926L335.999 114.452C335.385 112.315 334.772 110.997 334.158 110.485C333.544 109.979 332.18 109.724 330.071 109.724C327.826 109.724 326.4 109.979 325.786 110.485C325.092 111.019 324.49 112.338 323.984 114.452L317.334 139.926C317.226 140.352 317.386 140.568 317.818 140.568H321.904C322.063 140.568 322.177 140.528 322.245 140.449C322.313 140.369 322.37 140.193 322.427 139.926L328.713 115.697C328.9 114.975 329.071 114.515 329.236 114.316C329.395 114.117 329.679 114.015 330.077 114.015C330.395 114.015 330.623 114.106 330.759 114.293C330.895 114.481 331.066 114.947 331.282 115.697L337.772 139.926C337.824 140.193 337.886 140.369 337.954 140.449C338.023 140.528 338.136 140.568 338.295 140.568H342.382C342.808 140.568 342.967 140.352 342.865 139.926H342.848Z" fill="url(#paint19_linear_386_679)"/>
<path d="M449.897 30.2023L443.048 4.7287C442.434 2.59169 441.82 1.27311 441.207 0.761594C440.593 0.255759 439.229 0 437.12 0C434.875 0 433.449 0.255759 432.835 0.761594C432.141 1.29585 431.539 2.61443 431.033 4.7287L424.383 30.2023C424.275 30.6286 424.434 30.8445 424.866 30.8445H428.953C429.112 30.8445 429.226 30.8048 429.294 30.7252C429.362 30.6456 429.419 30.4694 429.476 30.2023L435.762 5.97339C435.949 5.25159 436.12 4.79122 436.285 4.5923C436.444 4.39337 436.728 4.29107 437.126 4.29107C437.444 4.29107 437.671 4.382 437.808 4.56956C437.944 4.75712 438.115 5.22317 438.331 5.97339L444.821 30.2023C444.872 30.4694 444.935 30.6456 445.003 30.7252C445.071 30.8048 445.185 30.8445 445.344 30.8445H449.431C449.857 30.8445 450.016 30.6286 449.914 30.2023H449.897Z" fill="url(#paint20_linear_386_679)"/>
<path d="M449.897 85.0636L443.048 59.59C442.434 57.453 441.82 56.1344 441.207 55.6229C440.593 55.1171 439.229 54.8613 437.12 54.8613C434.875 54.8613 433.449 55.1171 432.835 55.6229C432.141 56.1572 431.539 57.4758 431.033 59.59L424.383 85.0636C424.275 85.4899 424.434 85.7059 424.866 85.7059H428.953C429.112 85.7059 429.226 85.6661 429.294 85.5865C429.362 85.5069 429.419 85.3308 429.476 85.0636L435.762 60.8347C435.949 60.1129 436.12 59.6525 436.285 59.4536C436.444 59.2547 436.728 59.1524 437.126 59.1524C437.444 59.1524 437.671 59.2433 437.808 59.4309C437.944 59.6184 438.115 60.0845 438.331 60.8347L444.821 85.0636C444.872 85.3308 444.935 85.5069 445.003 85.5865C445.071 85.6661 445.185 85.7059 445.344 85.7059H449.431C449.857 85.7059 450.016 85.4899 449.914 85.0636H449.897Z" fill="url(#paint21_linear_386_679)"/>
<path d="M449.897 139.926L443.048 114.452C442.434 112.315 441.82 110.997 441.207 110.485C440.593 109.979 439.229 109.724 437.12 109.724C434.875 109.724 433.449 109.979 432.835 110.485C432.141 111.019 431.539 112.338 431.033 114.452L424.383 139.926C424.275 140.352 424.434 140.568 424.866 140.568H428.953C429.112 140.568 429.226 140.528 429.294 140.449C429.362 140.369 429.419 140.193 429.476 139.926L435.762 115.697C435.949 114.975 436.12 114.515 436.285 114.316C436.444 114.117 436.728 114.015 437.126 114.015C437.444 114.015 437.671 114.106 437.808 114.293C437.944 114.481 438.115 114.947 438.331 115.697L444.821 139.926C444.872 140.193 444.935 140.369 445.003 140.449C445.071 140.528 445.185 140.568 445.344 140.568H449.431C449.857 140.568 450.016 140.352 449.914 139.926H449.897Z" fill="url(#paint22_linear_386_679)"/>
<path d="M554.268 139.926L547.419 114.452C546.805 112.315 546.191 110.997 545.578 110.485C544.964 109.979 543.6 109.724 541.491 109.724C539.246 109.724 537.82 109.979 537.206 110.485C536.512 111.019 535.91 112.338 535.404 114.452L528.754 139.926C528.646 140.352 528.806 140.568 529.237 140.568H533.324C533.483 140.568 533.597 140.528 533.665 140.449C533.733 140.369 533.79 140.193 533.847 139.926L540.133 115.697C540.32 114.975 540.491 114.515 540.656 114.316C540.815 114.117 541.099 114.015 541.497 114.015C541.815 114.015 542.042 114.106 542.179 114.293C542.315 114.481 542.486 114.947 542.702 115.697L549.192 139.926C549.244 140.193 549.306 140.369 549.374 140.449C549.442 140.528 549.556 140.568 549.715 140.568H553.802C554.228 140.568 554.387 140.352 554.285 139.926H554.268Z" fill="url(#paint23_linear_386_679)"/>
<path d="M554.268 85.0636L547.419 59.59C546.805 57.453 546.191 56.1344 545.578 55.6229C544.964 55.1171 543.6 54.8613 541.491 54.8613C539.246 54.8613 537.82 55.1171 537.206 55.6229C536.512 56.1572 535.91 57.4758 535.404 59.59L528.754 85.0636C528.646 85.4899 528.806 85.7059 529.237 85.7059H533.324C533.483 85.7059 533.597 85.6661 533.665 85.5865C533.733 85.5069 533.79 85.3308 533.847 85.0636L540.133 60.8347C540.32 60.1129 540.491 59.6525 540.656 59.4536C540.815 59.2547 541.099 59.1524 541.497 59.1524C541.815 59.1524 542.042 59.2433 542.179 59.4309C542.315 59.6184 542.486 60.0845 542.702 60.8347L549.192 85.0636C549.244 85.3308 549.306 85.5069 549.374 85.5865C549.442 85.6661 549.556 85.7059 549.715 85.7059H553.802C554.228 85.7059 554.387 85.4899 554.285 85.0636H554.268Z" fill="url(#paint24_linear_386_679)"/>
<path d="M78.4328 159.577H74.3463C74.1872 159.577 74.0735 159.617 74.0053 159.697C73.9371 159.776 73.8803 159.952 73.8234 160.219L67.3328 184.448C67.1169 185.199 66.9464 185.665 66.81 185.852C66.6792 186.04 66.4519 186.131 66.1279 186.131C65.7301 186.131 65.4459 186.028 65.2868 185.829C65.1276 185.63 64.9514 185.17 64.7639 184.448L58.4893 160.219C58.4381 159.952 58.3756 159.776 58.3074 159.697C58.2392 159.617 58.1255 159.577 57.9664 159.577H53.8799C53.4536 159.577 53.2945 159.793 53.3968 160.219L60.0466 185.693C60.5524 187.802 61.1548 189.126 61.8482 189.66C62.4621 190.166 63.8886 190.422 66.1336 190.422C68.2422 190.422 69.6063 190.166 70.2201 189.66C70.8339 189.154 71.4477 187.83 72.0615 185.693L78.9159 160.219C79.0239 159.793 78.8647 159.577 78.4328 159.577Z" fill="url(#paint25_linear_386_679)"/>
<path d="M290.01 214.233H285.923C285.764 214.233 285.651 214.273 285.582 214.353C285.514 214.432 285.457 214.609 285.401 214.876L278.91 239.105C278.694 239.855 278.524 240.321 278.387 240.508C278.256 240.696 278.029 240.787 277.705 240.787C277.307 240.787 277.023 240.685 276.864 240.486C276.705 240.287 276.529 239.826 276.341 239.105L270.066 214.876C270.015 214.609 269.953 214.432 269.885 214.353C269.816 214.273 269.703 214.233 269.544 214.233H265.457C265.031 214.233 264.872 214.449 264.974 214.876L271.624 240.349C272.13 242.458 272.732 243.782 273.425 244.316C274.039 244.822 275.466 245.078 277.711 245.078C279.819 245.078 281.183 244.822 281.797 244.316C282.411 243.811 283.025 242.486 283.639 240.349L290.493 214.876C290.601 214.449 290.442 214.233 290.01 214.233Z" fill="url(#paint26_linear_386_679)"/>
<path d="M290.01 159.372H285.923C285.764 159.372 285.651 159.412 285.582 159.491C285.514 159.571 285.457 159.747 285.401 160.014L278.91 184.243C278.694 184.993 278.524 185.459 278.387 185.647C278.256 185.835 278.029 185.926 277.705 185.926C277.307 185.926 277.023 185.823 276.864 185.624C276.705 185.425 276.529 184.965 276.341 184.243L270.066 160.014C270.015 159.747 269.953 159.571 269.885 159.491C269.816 159.412 269.703 159.372 269.544 159.372H265.457C265.031 159.372 264.872 159.588 264.974 160.014L271.624 185.488C272.13 187.597 272.732 188.921 273.425 189.455C274.039 189.961 275.466 190.217 277.711 190.217C279.819 190.217 281.183 189.961 281.797 189.455C282.411 188.949 283.025 187.625 283.639 185.488L290.493 160.014C290.601 159.588 290.442 159.372 290.01 159.372Z" fill="url(#paint27_linear_386_679)"/>
<path d="M184.3 269.096H180.214C180.054 269.096 179.941 269.135 179.872 269.215C179.804 269.295 179.747 269.471 179.691 269.738L173.2 293.967C172.984 294.717 172.814 295.183 172.677 295.371C172.546 295.558 172.319 295.649 171.995 295.649C171.597 295.649 171.313 295.547 171.154 295.348C170.995 295.149 170.819 294.689 170.631 293.967L164.356 269.738C164.305 269.471 164.243 269.295 164.175 269.215C164.106 269.135 163.993 269.096 163.834 269.096H159.747C159.321 269.096 159.162 269.312 159.264 269.738L165.914 295.212C166.42 297.32 167.022 298.644 167.715 299.179C168.329 299.684 169.756 299.94 172.001 299.94C174.109 299.94 175.473 299.684 176.087 299.179C176.701 298.673 177.315 297.349 177.929 295.212L184.783 269.738C184.891 269.312 184.732 269.096 184.3 269.096Z" fill="url(#paint28_linear_386_679)"/>
<path d="M25.5461 189.574L18.6974 164.101C18.0836 161.964 17.4698 160.645 16.856 160.134C16.2421 159.628 14.8781 159.372 12.7695 159.372C10.5245 159.372 9.09793 159.628 8.48411 160.134C7.79072 160.668 7.18826 161.986 6.68243 164.101L0.0326946 189.574C-0.0752926 190.001 0.0838412 190.217 0.51579 190.217H4.60225C4.76139 190.217 4.87507 190.177 4.94327 190.097C5.01147 190.018 5.0683 189.841 5.12514 189.574L11.4111 165.345C11.5987 164.624 11.7692 164.163 11.934 163.964C12.0931 163.765 12.3773 163.663 12.7752 163.663C13.0935 163.663 13.3208 163.754 13.4572 163.942C13.5936 164.129 13.7641 164.595 13.9801 165.345L20.4707 189.574C20.5218 189.841 20.5844 190.018 20.6526 190.097C20.7208 190.177 20.8344 190.217 20.9936 190.217H25.08C25.5063 190.217 25.6654 190.001 25.5631 189.574H25.5461Z" fill="url(#paint29_linear_386_679)"/>
<path d="M25.5461 299.298L18.6974 273.824C18.0836 271.687 17.4698 270.369 16.856 269.857C16.2421 269.351 14.8781 269.096 12.7695 269.096C10.5245 269.096 9.09793 269.351 8.48411 269.857C7.79072 270.392 7.18826 271.71 6.68243 273.824L0.0326946 299.298C-0.0752926 299.724 0.0838412 299.94 0.51579 299.94H4.60225C4.76139 299.94 4.87507 299.9 4.94327 299.821C5.01147 299.741 5.0683 299.565 5.12514 299.298L11.4111 275.069C11.5987 274.347 11.7692 273.887 11.934 273.688C12.0931 273.489 12.3773 273.387 12.7752 273.387C13.0935 273.387 13.3208 273.478 13.4572 273.665C13.5936 273.853 13.7641 274.319 13.9801 275.069L20.4707 299.298C20.5218 299.565 20.5844 299.741 20.6526 299.821C20.7208 299.9 20.8344 299.94 20.9936 299.94H25.08C25.5063 299.94 25.6654 299.724 25.5631 299.298H25.5461Z" fill="url(#paint30_linear_386_679)"/>
<path d="M132.595 189.574L125.746 164.101C125.132 161.964 124.519 160.645 123.905 160.134C123.291 159.628 121.927 159.372 119.818 159.372C117.573 159.372 116.147 159.628 115.533 160.134C114.84 160.668 114.237 161.986 113.731 164.101L107.082 189.574C106.974 190.001 107.133 190.217 107.565 190.217H111.651C111.81 190.217 111.924 190.177 111.992 190.097C112.06 190.018 112.117 189.841 112.174 189.574L118.46 165.345C118.648 164.624 118.818 164.163 118.983 163.964C119.142 163.765 119.426 163.663 119.824 163.663C120.142 163.663 120.37 163.754 120.506 163.942C120.642 164.129 120.813 164.595 121.029 165.345L127.52 189.574C127.571 189.841 127.633 190.018 127.701 190.097C127.77 190.177 127.883 190.217 128.042 190.217H132.129C132.555 190.217 132.714 190.001 132.612 189.574H132.595Z" fill="url(#paint31_linear_386_679)"/>
<path d="M132.595 244.436L125.746 218.962C125.132 216.825 124.519 215.507 123.905 214.995C123.291 214.489 121.927 214.233 119.818 214.233C117.573 214.233 116.147 214.489 115.533 214.995C114.84 215.529 114.237 216.848 113.731 218.962L107.082 244.436C106.974 244.862 107.133 245.078 107.565 245.078H111.651C111.81 245.078 111.924 245.038 111.992 244.959C112.06 244.879 112.117 244.703 112.174 244.436L118.46 220.207C118.648 219.485 118.818 219.025 118.983 218.826C119.142 218.627 119.426 218.524 119.824 218.524C120.142 218.524 120.37 218.615 120.506 218.803C120.642 218.991 120.813 219.457 121.029 220.207L127.52 244.436C127.571 244.703 127.633 244.879 127.701 244.959C127.77 245.038 127.883 245.078 128.042 245.078H132.129C132.555 245.078 132.714 244.862 132.612 244.436H132.595Z" fill="url(#paint32_linear_386_679)"/>
<path d="M132.595 299.298L125.746 273.824C125.132 271.687 124.519 270.369 123.905 269.857C123.291 269.351 121.927 269.096 119.818 269.096C117.573 269.096 116.147 269.351 115.533 269.857C114.84 270.392 114.237 271.71 113.731 273.824L107.082 299.298C106.974 299.724 107.133 299.94 107.565 299.94H111.651C111.81 299.94 111.924 299.9 111.992 299.821C112.06 299.741 112.117 299.565 112.174 299.298L118.46 275.069C118.648 274.347 118.818 273.887 118.983 273.688C119.142 273.489 119.426 273.387 119.824 273.387C120.142 273.387 120.37 273.478 120.506 273.665C120.642 273.853 120.813 274.319 121.029 275.069L127.52 299.298C127.571 299.565 127.633 299.741 127.701 299.821C127.77 299.9 127.883 299.94 128.042 299.94H132.129C132.555 299.94 132.714 299.724 132.612 299.298H132.595Z" fill="url(#paint33_linear_386_679)"/>
<path d="M236.967 299.298L230.118 273.824C229.505 271.687 228.891 270.369 228.277 269.857C227.663 269.351 226.299 269.096 224.19 269.096C221.945 269.096 220.519 269.351 219.905 269.857C219.212 270.392 218.609 271.71 218.103 273.824L211.454 299.298C211.346 299.724 211.505 299.94 211.937 299.94H216.023C216.182 299.94 216.296 299.9 216.364 299.821C216.432 299.741 216.489 299.565 216.546 299.298L222.832 275.069C223.02 274.347 223.19 273.887 223.355 273.688C223.514 273.489 223.798 273.387 224.196 273.387C224.514 273.387 224.742 273.478 224.878 273.665C225.014 273.853 225.185 274.319 225.401 275.069L231.892 299.298C231.943 299.565 232.005 299.741 232.073 299.821C232.142 299.9 232.255 299.94 232.414 299.94H236.501C236.927 299.94 237.086 299.724 236.984 299.298H236.967Z" fill="url(#paint34_linear_386_679)"/>
<path d="M236.967 244.436L230.118 218.962C229.505 216.825 228.891 215.507 228.277 214.995C227.663 214.489 226.299 214.233 224.19 214.233C221.945 214.233 220.519 214.489 219.905 214.995C219.212 215.529 218.609 216.848 218.103 218.962L211.454 244.436C211.346 244.862 211.505 245.078 211.937 245.078H216.023C216.182 245.078 216.296 245.038 216.364 244.959C216.432 244.879 216.489 244.703 216.546 244.436L222.832 220.207C223.02 219.485 223.19 219.025 223.355 218.826C223.514 218.627 223.798 218.524 224.196 218.524C224.514 218.524 224.742 218.615 224.878 218.803C225.014 218.991 225.185 219.457 225.401 220.207L231.892 244.436C231.943 244.703 232.005 244.879 232.073 244.959C232.142 245.038 232.255 245.078 232.414 245.078H236.501C236.927 245.078 237.086 244.862 236.984 244.436H236.967Z" fill="url(#paint35_linear_386_679)"/>
<path d="M395.735 159.577H391.648C391.489 159.577 391.375 159.617 391.307 159.697C391.239 159.776 391.182 159.952 391.125 160.219L384.635 184.448C384.419 185.199 384.248 185.665 384.112 185.852C383.981 186.04 383.754 186.131 383.43 186.131C383.032 186.131 382.748 186.028 382.589 185.829C382.429 185.63 382.253 185.17 382.066 184.448L375.791 160.219C375.74 159.952 375.677 159.776 375.609 159.697C375.541 159.617 375.427 159.577 375.268 159.577H371.182C370.755 159.577 370.596 159.793 370.699 160.219L377.348 185.693C377.854 187.802 378.457 189.126 379.15 189.66C379.764 190.166 381.19 190.422 383.435 190.422C385.544 190.422 386.908 190.166 387.522 189.66C388.136 189.154 388.749 187.83 389.363 185.693L396.218 160.219C396.326 159.793 396.167 159.577 395.735 159.577Z" fill="url(#paint36_linear_386_679)"/>
<path d="M395.735 214.264H391.648C391.489 214.264 391.375 214.303 391.307 214.383C391.239 214.463 391.182 214.639 391.125 214.906L384.635 239.135C384.419 239.885 384.248 240.351 384.112 240.539C383.981 240.726 383.754 240.817 383.43 240.817C383.032 240.817 382.748 240.715 382.589 240.516C382.429 240.317 382.253 239.857 382.066 239.135L375.791 214.906C375.74 214.639 375.677 214.463 375.609 214.383C375.541 214.303 375.427 214.264 375.268 214.264H371.182C370.755 214.264 370.596 214.48 370.699 214.906L377.348 240.38C377.854 242.488 378.457 243.812 379.15 244.347C379.764 244.852 381.19 245.108 383.435 245.108C385.544 245.108 386.908 244.852 387.522 244.347C388.136 243.841 388.749 242.517 389.363 240.38L396.218 214.906C396.326 214.48 396.167 214.264 395.735 214.264Z" fill="url(#paint37_linear_386_679)"/>
<path d="M395.735 269.156H391.648C391.489 269.156 391.375 269.196 391.307 269.276C391.239 269.355 391.182 269.531 391.125 269.798L384.635 294.027C384.419 294.778 384.248 295.244 384.112 295.431C383.981 295.619 383.754 295.71 383.43 295.71C383.032 295.71 382.748 295.607 382.589 295.409C382.429 295.21 382.253 294.749 382.066 294.027L375.791 269.798C375.74 269.531 375.677 269.355 375.609 269.276C375.541 269.196 375.427 269.156 375.268 269.156H371.182C370.755 269.156 370.596 269.372 370.699 269.798L377.348 295.272C377.854 297.381 378.457 298.705 379.15 299.239C379.764 299.745 381.19 300.001 383.435 300.001C385.544 300.001 386.908 299.745 387.522 299.239C388.136 298.733 388.749 297.409 389.363 295.272L396.218 269.798C396.326 269.372 396.167 269.156 395.735 269.156Z" fill="url(#paint38_linear_386_679)"/>
<path d="M607.311 214.234H603.224C603.065 214.234 602.951 214.274 602.883 214.354C602.815 214.433 602.758 214.609 602.701 214.877L596.211 239.106C595.995 239.856 595.824 240.322 595.688 240.509C595.557 240.697 595.33 240.788 595.006 240.788C594.608 240.788 594.324 240.686 594.165 240.487C594.006 240.288 593.829 239.827 593.642 239.106L587.367 214.877C587.316 214.609 587.254 214.433 587.185 214.354C587.117 214.274 587.003 214.234 586.844 214.234H582.758C582.332 214.234 582.172 214.45 582.275 214.877L588.924 240.35C589.43 242.459 590.033 243.783 590.726 244.317C591.34 244.823 592.767 245.079 595.012 245.079C597.12 245.079 598.484 244.823 599.098 244.317C599.712 243.811 600.326 242.487 600.94 240.35L607.794 214.877C607.902 214.45 607.743 214.234 607.311 214.234Z" fill="url(#paint39_linear_386_679)"/>
<path d="M607.311 159.372H603.224C603.065 159.372 602.951 159.412 602.883 159.491C602.815 159.571 602.758 159.747 602.701 160.014L596.211 184.243C595.995 184.993 595.824 185.459 595.688 185.647C595.557 185.835 595.33 185.926 595.006 185.926C594.608 185.926 594.324 185.823 594.165 185.624C594.006 185.425 593.829 184.965 593.642 184.243L587.367 160.014C587.316 159.747 587.254 159.571 587.185 159.491C587.117 159.412 587.003 159.372 586.844 159.372H582.758C582.332 159.372 582.172 159.588 582.275 160.014L588.924 185.488C589.43 187.597 590.033 188.921 590.726 189.455C591.34 189.961 592.767 190.217 595.012 190.217C597.12 190.217 598.484 189.961 599.098 189.455C599.712 188.949 600.326 187.625 600.94 185.488L607.794 160.014C607.902 159.588 607.743 159.372 607.311 159.372Z" fill="url(#paint40_linear_386_679)"/>
<path d="M501.601 269.096H497.514C497.355 269.096 497.241 269.135 497.173 269.215C497.105 269.295 497.048 269.471 496.991 269.738L490.501 293.967C490.285 294.717 490.114 295.183 489.978 295.371C489.847 295.558 489.62 295.649 489.296 295.649C488.898 295.649 488.614 295.547 488.455 295.348C488.296 295.149 488.119 294.689 487.932 293.967L481.657 269.738C481.606 269.471 481.544 269.295 481.475 269.215C481.407 269.135 481.293 269.096 481.134 269.096H477.048C476.622 269.096 476.462 269.312 476.565 269.738L483.215 295.212C483.72 297.32 484.323 298.644 485.016 299.179C485.63 299.684 487.057 299.94 489.302 299.94C491.41 299.94 492.774 299.684 493.388 299.179C494.002 298.673 494.616 297.349 495.23 295.212L502.084 269.738C502.192 269.312 502.033 269.096 501.601 269.096Z" fill="url(#paint41_linear_386_679)"/>
<path d="M501.601 214.264H497.514C497.355 214.264 497.241 214.303 497.173 214.383C497.105 214.463 497.048 214.639 496.991 214.906L490.501 239.135C490.285 239.885 490.114 240.351 489.978 240.539C489.847 240.726 489.62 240.817 489.296 240.817C488.898 240.817 488.614 240.715 488.455 240.516C488.296 240.317 488.119 239.857 487.932 239.135L481.657 214.906C481.606 214.639 481.544 214.463 481.475 214.383C481.407 214.303 481.293 214.264 481.134 214.264H477.048C476.622 214.264 476.462 214.48 476.565 214.906L483.215 240.38C483.72 242.488 484.323 243.812 485.016 244.347C485.63 244.852 487.057 245.108 489.302 245.108C491.41 245.108 492.774 244.852 493.388 244.347C494.002 243.841 494.616 242.517 495.23 240.38L502.084 214.906C502.192 214.48 502.033 214.264 501.601 214.264Z" fill="url(#paint42_linear_386_679)"/>
<path d="M342.848 189.574L335.999 164.101C335.385 161.964 334.772 160.645 334.158 160.134C333.544 159.628 332.18 159.372 330.071 159.372C327.826 159.372 326.4 159.628 325.786 160.134C325.092 160.668 324.49 161.986 323.984 164.101L317.334 189.574C317.226 190.001 317.386 190.217 317.818 190.217H321.904C322.063 190.217 322.177 190.177 322.245 190.097C322.313 190.018 322.37 189.841 322.427 189.574L328.713 165.345C328.9 164.624 329.071 164.163 329.236 163.964C329.395 163.765 329.679 163.663 330.077 163.663C330.395 163.663 330.623 163.754 330.759 163.942C330.895 164.129 331.066 164.595 331.282 165.345L337.772 189.574C337.824 189.841 337.886 190.018 337.954 190.097C338.023 190.177 338.136 190.217 338.295 190.217H342.382C342.808 190.217 342.967 190.001 342.865 189.574H342.848Z" fill="url(#paint43_linear_386_679)"/>
<path d="M342.848 299.298L335.999 273.824C335.385 271.687 334.772 270.369 334.158 269.857C333.544 269.351 332.18 269.096 330.071 269.096C327.826 269.096 326.4 269.351 325.786 269.857C325.092 270.392 324.49 271.71 323.984 273.824L317.334 299.298C317.226 299.724 317.386 299.94 317.818 299.94H321.904C322.063 299.94 322.177 299.9 322.245 299.821C322.313 299.741 322.37 299.565 322.427 299.298L328.713 275.069C328.9 274.347 329.071 273.887 329.236 273.688C329.395 273.489 329.679 273.387 330.077 273.387C330.395 273.387 330.623 273.478 330.759 273.665C330.895 273.853 331.066 274.319 331.282 275.069L337.772 299.298C337.824 299.565 337.886 299.741 337.954 299.821C338.023 299.9 338.136 299.94 338.295 299.94H342.382C342.808 299.94 342.967 299.724 342.865 299.298H342.848Z" fill="url(#paint44_linear_386_679)"/>
<path d="M449.897 189.574L443.048 164.101C442.434 161.964 441.82 160.645 441.207 160.134C440.593 159.628 439.229 159.372 437.12 159.372C434.875 159.372 433.449 159.628 432.835 160.134C432.141 160.668 431.539 161.986 431.033 164.101L424.383 189.574C424.275 190.001 424.434 190.217 424.866 190.217H428.953C429.112 190.217 429.226 190.177 429.294 190.097C429.362 190.018 429.419 189.841 429.476 189.574L435.762 165.345C435.949 164.624 436.12 164.163 436.285 163.964C436.444 163.765 436.728 163.663 437.126 163.663C437.444 163.663 437.671 163.754 437.808 163.942C437.944 164.129 438.115 164.595 438.331 165.345L444.821 189.574C444.872 189.841 444.935 190.018 445.003 190.097C445.071 190.177 445.185 190.217 445.344 190.217H449.431C449.857 190.217 450.016 190.001 449.914 189.574H449.897Z" fill="url(#paint45_linear_386_679)"/>
<path d="M449.897 244.437L443.048 218.963C442.434 216.826 441.82 215.507 441.207 214.996C440.593 214.49 439.229 214.234 437.12 214.234C434.875 214.234 433.449 214.49 432.835 214.996C432.141 215.53 431.539 216.849 431.033 218.963L424.383 244.437C424.275 244.863 424.434 245.079 424.866 245.079H428.953C429.112 245.079 429.226 245.039 429.294 244.96C429.362 244.88 429.419 244.704 429.476 244.437L435.762 220.208C435.949 219.486 436.12 219.026 436.285 218.827C436.444 218.628 436.728 218.525 437.126 218.525C437.444 218.525 437.671 218.616 437.808 218.804C437.944 218.992 438.115 219.458 438.331 220.208L444.821 244.437C444.872 244.704 444.935 244.88 445.003 244.96C445.071 245.039 445.185 245.079 445.344 245.079H449.431C449.857 245.079 450.016 244.863 449.914 244.437H449.897Z" fill="url(#paint46_linear_386_679)"/>
<path d="M449.897 299.298L443.048 273.824C442.434 271.687 441.82 270.369 441.207 269.857C440.593 269.351 439.229 269.096 437.12 269.096C434.875 269.096 433.449 269.351 432.835 269.857C432.141 270.392 431.539 271.71 431.033 273.824L424.383 299.298C424.275 299.724 424.434 299.94 424.866 299.94H428.953C429.112 299.94 429.226 299.9 429.294 299.821C429.362 299.741 429.419 299.565 429.476 299.298L435.762 275.069C435.949 274.347 436.12 273.887 436.285 273.688C436.444 273.489 436.728 273.387 437.126 273.387C437.444 273.387 437.671 273.478 437.808 273.665C437.944 273.853 438.115 274.319 438.331 275.069L444.821 299.298C444.872 299.565 444.935 299.741 445.003 299.821C445.071 299.9 445.185 299.94 445.344 299.94H449.431C449.857 299.94 450.016 299.724 449.914 299.298H449.897Z" fill="url(#paint47_linear_386_679)"/>
<path d="M554.268 299.298L547.419 273.824C546.805 271.687 546.191 270.369 545.578 269.857C544.964 269.351 543.6 269.096 541.491 269.096C539.246 269.096 537.82 269.351 537.206 269.857C536.512 270.392 535.91 271.71 535.404 273.824L528.754 299.298C528.646 299.724 528.806 299.94 529.237 299.94H533.324C533.483 299.94 533.597 299.9 533.665 299.821C533.733 299.741 533.79 299.565 533.847 299.298L540.133 275.069C540.32 274.347 540.491 273.887 540.656 273.688C540.815 273.489 541.099 273.387 541.497 273.387C541.815 273.387 542.042 273.478 542.179 273.665C542.315 273.853 542.486 274.319 542.702 275.069L549.192 299.298C549.244 299.565 549.306 299.741 549.374 299.821C549.442 299.9 549.556 299.94 549.715 299.94H553.802C554.228 299.94 554.387 299.724 554.285 299.298H554.268Z" fill="url(#paint48_linear_386_679)"/>
<path d="M554.268 244.437L547.419 218.963C546.805 216.826 546.191 215.507 545.578 214.996C544.964 214.49 543.6 214.234 541.491 214.234C539.246 214.234 537.82 214.49 537.206 214.996C536.512 215.53 535.91 216.849 535.404 218.963L528.754 244.437C528.646 244.863 528.806 245.079 529.237 245.079H533.324C533.483 245.079 533.597 245.039 533.665 244.96C533.733 244.88 533.79 244.704 533.847 244.437L540.133 220.208C540.32 219.486 540.491 219.026 540.656 218.827C540.815 218.628 541.099 218.525 541.497 218.525C541.815 218.525 542.042 218.616 542.179 218.804C542.315 218.992 542.486 219.458 542.702 220.208L549.192 244.437C549.244 244.704 549.306 244.88 549.374 244.96C549.442 245.039 549.556 245.079 549.715 245.079H553.802C554.228 245.079 554.387 244.863 554.285 244.437H554.268Z" fill="url(#paint49_linear_386_679)"/>
</g>
<defs>
<linearGradient id="paint0_linear_386_679" x1="147" y1="-8" x2="151" y2="248.5" gradientUnits="userSpaceOnUse">
<stop stop-color="white"/>
<stop offset="0.355" stop-color="#E5004B"/>
<stop offset="0.683307" stop-color="#55097B"/>
<stop offset="1" stop-color="#F6F9FF"/>
</linearGradient>
<linearGradient id="paint1_linear_386_679" x1="147" y1="-8" x2="151" y2="248.5" gradientUnits="userSpaceOnUse">
<stop stop-color="white"/>
<stop offset="0.355" stop-color="#E5004B"/>
<stop offset="0.683307" stop-color="#55097B"/>
<stop offset="1" stop-color="#F6F9FF"/>
</linearGradient>
<linearGradient id="paint2_linear_386_679" x1="147" y1="-8" x2="151" y2="248.5" gradientUnits="userSpaceOnUse">
<stop stop-color="white"/>
<stop offset="0.355" stop-color="#E5004B"/>
<stop offset="0.683307" stop-color="#55097B"/>
<stop offset="1" stop-color="#F6F9FF"/>
</linearGradient>
<linearGradient id="paint3_linear_386_679" x1="147" y1="-8" x2="151" y2="248.5" gradientUnits="userSpaceOnUse">
<stop stop-color="white"/>
<stop offset="0.355" stop-color="#E5004B"/>
<stop offset="0.683307" stop-color="#55097B"/>
<stop offset="1" stop-color="#F6F9FF"/>
</linearGradient>
<linearGradient id="paint4_linear_386_679" x1="147" y1="-8" x2="151" y2="248.5" gradientUnits="userSpaceOnUse">
<stop stop-color="white"/>
<stop offset="0.355" stop-color="#E5004B"/>
<stop offset="0.683307" stop-color="#55097B"/>
<stop offset="1" stop-color="#F6F9FF"/>
</linearGradient>
<linearGradient id="paint5_linear_386_679" x1="147" y1="-8" x2="151" y2="248.5" gradientUnits="userSpaceOnUse">
<stop stop-color="white"/>
<stop offset="0.355" stop-color="#E5004B"/>
<stop offset="0.683307" stop-color="#55097B"/>
<stop offset="1" stop-color="#F6F9FF"/>
</linearGradient>
<linearGradient id="paint6_linear_386_679" x1="147" y1="-8" x2="151" y2="248.5" gradientUnits="userSpaceOnUse">
<stop stop-color="white"/>
<stop offset="0.355" stop-color="#E5004B"/>
<stop offset="0.683307" stop-color="#55097B"/>
<stop offset="1" stop-color="#F6F9FF"/>
</linearGradient>
<linearGradient id="paint7_linear_386_679" x1="147" y1="-8" x2="151" y2="248.5" gradientUnits="userSpaceOnUse">
<stop stop-color="white"/>
<stop offset="0.355" stop-color="#E5004B"/>
<stop offset="0.683307" stop-color="#55097B"/>
<stop offset="1" stop-color="#F6F9FF"/>
</linearGradient>
<linearGradient id="paint8_linear_386_679" x1="147" y1="-8" x2="151" y2="248.5" gradientUnits="userSpaceOnUse">
<stop stop-color="white"/>
<stop offset="0.355" stop-color="#E5004B"/>
<stop offset="0.683307" stop-color="#55097B"/>
<stop offset="1" stop-color="#F6F9FF"/>
</linearGradient>
<linearGradient id="paint9_linear_386_679" x1="147" y1="-8" x2="151" y2="248.5" gradientUnits="userSpaceOnUse">
<stop stop-color="white"/>
<stop offset="0.355" stop-color="#E5004B"/>
<stop offset="0.683307" stop-color="#55097B"/>
<stop offset="1" stop-color="#F6F9FF"/>
</linearGradient>
<linearGradient id="paint10_linear_386_679" x1="147" y1="-8" x2="151" y2="248.5" gradientUnits="userSpaceOnUse">
<stop stop-color="white"/>
<stop offset="0.355" stop-color="#E5004B"/>
<stop offset="0.683307" stop-color="#55097B"/>
<stop offset="1" stop-color="#F6F9FF"/>
</linearGradient>
<linearGradient id="paint11_linear_386_679" x1="147" y1="-8" x2="151" y2="248.5" gradientUnits="userSpaceOnUse">
<stop stop-color="white"/>
<stop offset="0.355" stop-color="#E5004B"/>
<stop offset="0.683307" stop-color="#55097B"/>
<stop offset="1" stop-color="#F6F9FF"/>
</linearGradient>
<linearGradient id="paint12_linear_386_679" x1="147" y1="-8" x2="151" y2="248.5" gradientUnits="userSpaceOnUse">
<stop stop-color="white"/>
<stop offset="0.355" stop-color="#E5004B"/>
<stop offset="0.683307" stop-color="#55097B"/>
<stop offset="1" stop-color="#F6F9FF"/>
</linearGradient>
<linearGradient id="paint13_linear_386_679" x1="147" y1="-8" x2="151" y2="248.5" gradientUnits="userSpaceOnUse">
<stop stop-color="white"/>
<stop offset="0.355" stop-color="#E5004B"/>
<stop offset="0.683307" stop-color="#55097B"/>
<stop offset="1" stop-color="#F6F9FF"/>
</linearGradient>
<linearGradient id="paint14_linear_386_679" x1="147" y1="-8" x2="151" y2="248.5" gradientUnits="userSpaceOnUse">
<stop stop-color="white"/>
<stop offset="0.355" stop-color="#E5004B"/>
<stop offset="0.683307" stop-color="#55097B"/>
<stop offset="1" stop-color="#F6F9FF"/>
</linearGradient>
<linearGradient id="paint15_linear_386_679" x1="147" y1="-8" x2="151" y2="248.5" gradientUnits="userSpaceOnUse">
<stop stop-color="white"/>
<stop offset="0.355" stop-color="#E5004B"/>
<stop offset="0.683307" stop-color="#55097B"/>
<stop offset="1" stop-color="#F6F9FF"/>
</linearGradient>
<linearGradient id="paint16_linear_386_679" x1="147" y1="-8" x2="151" y2="248.5" gradientUnits="userSpaceOnUse">
<stop stop-color="white"/>
<stop offset="0.355" stop-color="#E5004B"/>
<stop offset="0.683307" stop-color="#55097B"/>
<stop offset="1" stop-color="#F6F9FF"/>
</linearGradient>
<linearGradient id="paint17_linear_386_679" x1="147" y1="-8" x2="151" y2="248.5" gradientUnits="userSpaceOnUse">
<stop stop-color="white"/>
<stop offset="0.355" stop-color="#E5004B"/>
<stop offset="0.683307" stop-color="#55097B"/>
<stop offset="1" stop-color="#F6F9FF"/>
</linearGradient>
<linearGradient id="paint18_linear_386_679" x1="147" y1="-8" x2="151" y2="248.5" gradientUnits="userSpaceOnUse">
<stop stop-color="white"/>
<stop offset="0.355" stop-color="#E5004B"/>
<stop offset="0.683307" stop-color="#55097B"/>
<stop offset="1" stop-color="#F6F9FF"/>
</linearGradient>
<linearGradient id="paint19_linear_386_679" x1="147" y1="-8" x2="151" y2="248.5" gradientUnits="userSpaceOnUse">
<stop stop-color="white"/>
<stop offset="0.355" stop-color="#E5004B"/>
<stop offset="0.683307" stop-color="#55097B"/>
<stop offset="1" stop-color="#F6F9FF"/>
</linearGradient>
<linearGradient id="paint20_linear_386_679" x1="147" y1="-8" x2="151" y2="248.5" gradientUnits="userSpaceOnUse">
<stop stop-color="white"/>
<stop offset="0.355" stop-color="#E5004B"/>
<stop offset="0.683307" stop-color="#55097B"/>
<stop offset="1" stop-color="#F6F9FF"/>
</linearGradient>
<linearGradient id="paint21_linear_386_679" x1="147" y1="-8" x2="151" y2="248.5" gradientUnits="userSpaceOnUse">
<stop stop-color="white"/>
<stop offset="0.355" stop-color="#E5004B"/>
<stop offset="0.683307" stop-color="#55097B"/>
<stop offset="1" stop-color="#F6F9FF"/>
</linearGradient>
<linearGradient id="paint22_linear_386_679" x1="147" y1="-8" x2="151" y2="248.5" gradientUnits="userSpaceOnUse">
<stop stop-color="white"/>
<stop offset="0.355" stop-color="#E5004B"/>
<stop offset="0.683307" stop-color="#55097B"/>
<stop offset="1" stop-color="#F6F9FF"/>
</linearGradient>
<linearGradient id="paint23_linear_386_679" x1="147" y1="-8" x2="151" y2="248.5" gradientUnits="userSpaceOnUse">
<stop stop-color="white"/>
<stop offset="0.355" stop-color="#E5004B"/>
<stop offset="0.683307" stop-color="#55097B"/>
<stop offset="1" stop-color="#F6F9FF"/>
</linearGradient>
<linearGradient id="paint24_linear_386_679" x1="147" y1="-8" x2="151" y2="248.5" gradientUnits="userSpaceOnUse">
<stop stop-color="white"/>
<stop offset="0.355" stop-color="#E5004B"/>
<stop offset="0.683307" stop-color="#55097B"/>
<stop offset="1" stop-color="#F6F9FF"/>
</linearGradient>
<linearGradient id="paint25_linear_386_679" x1="147" y1="-8" x2="151" y2="248.5" gradientUnits="userSpaceOnUse">
<stop stop-color="white"/>
<stop offset="0.355" stop-color="#E5004B"/>
<stop offset="0.683307" stop-color="#55097B"/>
<stop offset="1" stop-color="#F6F9FF"/>
</linearGradient>
<linearGradient id="paint26_linear_386_679" x1="147" y1="-8" x2="151" y2="248.5" gradientUnits="userSpaceOnUse">
<stop stop-color="white"/>
<stop offset="0.355" stop-color="#E5004B"/>
<stop offset="0.683307" stop-color="#55097B"/>
<stop offset="1" stop-color="#F6F9FF"/>
</linearGradient>
<linearGradient id="paint27_linear_386_679" x1="147" y1="-8" x2="151" y2="248.5" gradientUnits="userSpaceOnUse">
<stop stop-color="white"/>
<stop offset="0.355" stop-color="#E5004B"/>
<stop offset="0.683307" stop-color="#55097B"/>
<stop offset="1" stop-color="#F6F9FF"/>
</linearGradient>
<linearGradient id="paint28_linear_386_679" x1="147" y1="-8" x2="151" y2="248.5" gradientUnits="userSpaceOnUse">
<stop stop-color="white"/>
<stop offset="0.355" stop-color="#E5004B"/>
<stop offset="0.683307" stop-color="#55097B"/>
<stop offset="1" stop-color="#F6F9FF"/>
</linearGradient>
<linearGradient id="paint29_linear_386_679" x1="147" y1="-8" x2="151" y2="248.5" gradientUnits="userSpaceOnUse">
<stop stop-color="white"/>
<stop offset="0.355" stop-color="#E5004B"/>
<stop offset="0.683307" stop-color="#55097B"/>
<stop offset="1" stop-color="#F6F9FF"/>
</linearGradient>
<linearGradient id="paint30_linear_386_679" x1="147" y1="-8" x2="151" y2="248.5" gradientUnits="userSpaceOnUse">
<stop stop-color="white"/>
<stop offset="0.355" stop-color="#E5004B"/>
<stop offset="0.683307" stop-color="#55097B"/>
<stop offset="1" stop-color="#F6F9FF"/>
</linearGradient>
<linearGradient id="paint31_linear_386_679" x1="147" y1="-8" x2="151" y2="248.5" gradientUnits="userSpaceOnUse">
<stop stop-color="white"/>
<stop offset="0.355" stop-color="#E5004B"/>
<stop offset="0.683307" stop-color="#55097B"/>
<stop offset="1" stop-color="#F6F9FF"/>
</linearGradient>
<linearGradient id="paint32_linear_386_679" x1="147" y1="-8" x2="151" y2="248.5" gradientUnits="userSpaceOnUse">
<stop stop-color="white"/>
<stop offset="0.355" stop-color="#E5004B"/>
<stop offset="0.683307" stop-color="#55097B"/>
<stop offset="1" stop-color="#F6F9FF"/>
</linearGradient>
<linearGradient id="paint33_linear_386_679" x1="147" y1="-8" x2="151" y2="248.5" gradientUnits="userSpaceOnUse">
<stop stop-color="white"/>
<stop offset="0.355" stop-color="#E5004B"/>
<stop offset="0.683307" stop-color="#55097B"/>
<stop offset="1" stop-color="#F6F9FF"/>
</linearGradient>
<linearGradient id="paint34_linear_386_679" x1="147" y1="-8" x2="151" y2="248.5" gradientUnits="userSpaceOnUse">
<stop stop-color="white"/>
<stop offset="0.355" stop-color="#E5004B"/>
<stop offset="0.683307" stop-color="#55097B"/>
<stop offset="1" stop-color="#F6F9FF"/>
</linearGradient>
<linearGradient id="paint35_linear_386_679" x1="147" y1="-8" x2="151" y2="248.5" gradientUnits="userSpaceOnUse">
<stop stop-color="white"/>
<stop offset="0.355" stop-color="#E5004B"/>
<stop offset="0.683307" stop-color="#55097B"/>
<stop offset="1" stop-color="#F6F9FF"/>
</linearGradient>
<linearGradient id="paint36_linear_386_679" x1="147" y1="-8" x2="151" y2="248.5" gradientUnits="userSpaceOnUse">
<stop stop-color="white"/>
<stop offset="0.355" stop-color="#E5004B"/>
<stop offset="0.683307" stop-color="#55097B"/>
<stop offset="1" stop-color="#F6F9FF"/>
</linearGradient>
<linearGradient id="paint37_linear_386_679" x1="147" y1="-8" x2="151" y2="248.5" gradientUnits="userSpaceOnUse">
<stop stop-color="white"/>
<stop offset="0.355" stop-color="#E5004B"/>
<stop offset="0.683307" stop-color="#55097B"/>
<stop offset="1" stop-color="#F6F9FF"/>
</linearGradient>
<linearGradient id="paint38_linear_386_679" x1="147" y1="-8" x2="151" y2="248.5" gradientUnits="userSpaceOnUse">
<stop stop-color="white"/>
<stop offset="0.355" stop-color="#E5004B"/>
<stop offset="0.683307" stop-color="#55097B"/>
<stop offset="1" stop-color="#F6F9FF"/>
</linearGradient>
<linearGradient id="paint39_linear_386_679" x1="147" y1="-8" x2="151" y2="248.5" gradientUnits="userSpaceOnUse">
<stop stop-color="white"/>
<stop offset="0.355" stop-color="#E5004B"/>
<stop offset="0.683307" stop-color="#55097B"/>
<stop offset="1" stop-color="#F6F9FF"/>
</linearGradient>
<linearGradient id="paint40_linear_386_679" x1="147" y1="-8" x2="151" y2="248.5" gradientUnits="userSpaceOnUse">
<stop stop-color="white"/>
<stop offset="0.355" stop-color="#E5004B"/>
<stop offset="0.683307" stop-color="#55097B"/>
<stop offset="1" stop-color="#F6F9FF"/>
</linearGradient>
<linearGradient id="paint41_linear_386_679" x1="147" y1="-8" x2="151" y2="248.5" gradientUnits="userSpaceOnUse">
<stop stop-color="white"/>
<stop offset="0.355" stop-color="#E5004B"/>
<stop offset="0.683307" stop-color="#55097B"/>
<stop offset="1" stop-color="#F6F9FF"/>
</linearGradient>
<linearGradient id="paint42_linear_386_679" x1="147" y1="-8" x2="151" y2="248.5" gradientUnits="userSpaceOnUse">
<stop stop-color="white"/>
<stop offset="0.355" stop-color="#E5004B"/>
<stop offset="0.683307" stop-color="#55097B"/>
<stop offset="1" stop-color="#F6F9FF"/>
</linearGradient>
<linearGradient id="paint43_linear_386_679" x1="147" y1="-8" x2="151" y2="248.5" gradientUnits="userSpaceOnUse">
<stop stop-color="white"/>
<stop offset="0.355" stop-color="#E5004B"/>
<stop offset="0.683307" stop-color="#55097B"/>
<stop offset="1" stop-color="#F6F9FF"/>
</linearGradient>
<linearGradient id="paint44_linear_386_679" x1="147" y1="-8" x2="151" y2="248.5" gradientUnits="userSpaceOnUse">
<stop stop-color="white"/>
<stop offset="0.355" stop-color="#E5004B"/>
<stop offset="0.683307" stop-color="#55097B"/>
<stop offset="1" stop-color="#F6F9FF"/>
</linearGradient>
<linearGradient id="paint45_linear_386_679" x1="147" y1="-8" x2="151" y2="248.5" gradientUnits="userSpaceOnUse">
<stop stop-color="white"/>
<stop offset="0.355" stop-color="#E5004B"/>
<stop offset="0.683307" stop-color="#55097B"/>
<stop offset="1" stop-color="#F6F9FF"/>
</linearGradient>
<linearGradient id="paint46_linear_386_679" x1="147" y1="-8" x2="151" y2="248.5" gradientUnits="userSpaceOnUse">
<stop stop-color="white"/>
<stop offset="0.355" stop-color="#E5004B"/>
<stop offset="0.683307" stop-color="#55097B"/>
<stop offset="1" stop-color="#F6F9FF"/>
</linearGradient>
<linearGradient id="paint47_linear_386_679" x1="147" y1="-8" x2="151" y2="248.5" gradientUnits="userSpaceOnUse">
<stop stop-color="white"/>
<stop offset="0.355" stop-color="#E5004B"/>
<stop offset="0.683307" stop-color="#55097B"/>
<stop offset="1" stop-color="#F6F9FF"/>
</linearGradient>
<linearGradient id="paint48_linear_386_679" x1="147" y1="-8" x2="151" y2="248.5" gradientUnits="userSpaceOnUse">
<stop stop-color="white"/>
<stop offset="0.355" stop-color="#E5004B"/>
<stop offset="0.683307" stop-color="#55097B"/>
<stop offset="1" stop-color="#F6F9FF"/>
</linearGradient>
<linearGradient id="paint49_linear_386_679" x1="147" y1="-8" x2="151" y2="248.5" gradientUnits="userSpaceOnUse">
<stop stop-color="white"/>
<stop offset="0.355" stop-color="#E5004B"/>
<stop offset="0.683307" stop-color="#55097B"/>
<stop offset="1" stop-color="#F6F9FF"/>
</linearGradient>
</defs>
</svg>
