<svg width="660" height="307" viewBox="0 0 660 307" fill="none" xmlns="http://www.w3.org/2000/svg">
<path d="M27.8871 107.844C40.335 107.844 48.888 109.667 53.5774 113.328C58.1889 116.911 60.4947 124.202 60.4947 135.17C60.4947 143.661 59.1704 149.768 56.5375 153.507C53.9669 157.246 49.4801 159.583 43.0302 160.533L61.5852 190.181C62.0214 190.773 62.1149 191.271 61.8657 191.723C61.6008 192.159 61.0711 192.377 60.2766 192.377H50.0721C48.2493 192.377 46.7848 191.567 45.6787 189.963L27.5599 161.421L14.1616 161.53V190.726C14.1616 191.38 14.0526 191.817 13.8345 192.05C13.6164 192.268 13.1801 192.377 12.5102 192.377H1.65141C0.997079 192.377 0.560857 192.268 0.327167 192.05C0.109056 191.832 0 191.396 0 190.726V110.259C0 109.667 0.109056 109.293 0.327167 109.106C0.545278 108.919 0.9815 108.794 1.65141 108.716C9.98637 108.14 18.742 107.844 27.8871 107.844ZM26.5628 120.136H14.1616V150.22H26.5628C31.1743 150.22 34.5239 150.095 36.6115 149.83C38.6991 149.581 40.5531 148.927 42.1578 147.914C43.7624 146.886 44.853 145.484 45.3983 143.692C45.9435 141.9 46.224 139.174 46.224 135.513C46.224 129.078 44.9465 124.903 42.3759 123.002C39.8053 121.102 34.5394 120.151 26.5628 120.151V120.136Z" fill="#0F1822"/>
<path d="M74.4395 108.393H85.2048C86.2954 108.393 86.8563 108.938 86.8563 110.044V190.636C86.8563 191.804 86.311 192.397 85.2048 192.397H74.4395C73.3489 192.397 72.7881 191.804 72.7881 190.636V110.044C72.7881 108.953 73.3334 108.393 74.4395 108.393Z" fill="#0F1822"/>
<path d="M98.3069 0H109.508C109.945 0 110.256 0.109056 110.443 0.327167C110.63 0.545278 110.786 1.02824 110.942 1.76047L128.734 176.568C129.326 178.624 129.793 179.902 130.167 180.416C130.525 180.93 131.148 181.179 132.036 181.179C133.127 181.179 133.906 180.899 134.342 180.354C134.778 179.808 135.261 178.546 135.775 176.568L152.975 1.76047C153.115 1.02824 153.287 0.545278 153.473 0.327167C153.66 0.109056 153.972 0 154.408 0H165.61C166.778 0 167.214 0.592016 166.934 1.76047L148.706 179.98C147.32 185.76 145.668 189.39 143.768 190.854C142.085 192.241 138.175 192.942 132.021 192.942C126.241 192.942 122.502 192.241 120.819 190.854C119.137 189.467 117.454 185.837 115.771 179.98L96.9827 1.76047C96.6867 0.592016 97.1229 0 98.3069 0Z" fill="#5B0D8A"/>
<path d="M243.272 275.818L262.044 120.792C263.727 114.934 265.409 111.32 267.092 109.918C268.775 108.531 272.514 107.83 278.294 107.83C284.447 107.83 288.358 108.531 290.04 109.918C291.941 111.382 293.592 114.997 294.979 120.792L313.208 275.818C313.504 276.986 313.068 277.578 311.884 277.578H300.682C300.246 277.578 299.934 277.469 299.747 277.251C299.56 277.033 299.404 276.55 299.249 275.818L282.017 124.204C281.503 122.225 281.036 120.963 280.584 120.418C280.148 119.873 279.369 119.592 278.278 119.592C277.406 119.592 276.782 119.842 276.408 120.356C276.035 120.87 275.567 122.148 274.975 124.204L257.184 275.818C257.044 276.55 256.873 277.033 256.686 277.251C256.499 277.469 256.187 277.578 255.751 277.578H244.55C243.381 277.578 242.945 276.986 243.225 275.818H243.272Z" fill="#E5004B"/>
<path d="M178.802 108.393H231.944C233.112 108.393 233.704 108.938 233.704 110.044V119.049C233.704 120.139 233.112 120.7 231.944 120.7H191.328V145.3H228.438C229.529 145.3 230.09 145.845 230.09 146.952V155.629C230.09 156.72 229.544 157.281 228.438 157.281H191.328V180.12H231.944C233.112 180.12 233.704 180.665 233.704 181.771V190.776C233.704 191.867 233.112 192.428 231.944 192.428H178.802C177.712 192.428 177.151 191.882 177.151 190.776V110.044C177.151 108.953 177.696 108.393 178.802 108.393Z" fill="#0F1822"/>
<path d="M333.552 108.814H337.073C337.338 108.814 337.541 109.064 337.665 109.531L345.159 136.826C345.455 137.901 345.704 138.587 345.875 138.851C346.047 139.116 346.374 139.257 346.826 139.257C347.433 139.257 347.838 139.116 348.041 138.851C348.244 138.587 348.493 137.901 348.758 136.826L355.94 109.531C356.064 109.048 356.251 108.814 356.532 108.814H360.053C360.536 108.814 360.723 109.064 360.645 109.531L353.104 137.917C352.652 139.63 352.247 140.799 351.889 141.438C351.531 142.108 351.001 142.559 350.284 142.809C349.568 143.058 348.43 143.198 346.826 143.198C344.723 143.198 343.367 142.918 342.76 142.341C342.121 141.734 341.498 140.269 340.859 137.917L332.96 109.531C332.867 109.048 333.069 108.814 333.552 108.814Z" fill="#0F1822"/>
<path d="M374.914 108.598C377.236 108.598 378.731 108.894 379.432 109.501C380.149 110.109 380.834 111.558 381.458 113.879L389.169 142.265C389.232 142.561 389.216 142.763 389.154 142.857C389.076 142.95 388.905 142.997 388.64 142.997H385.119C384.947 142.997 384.807 142.95 384.729 142.857C384.651 142.763 384.589 142.576 384.527 142.265L381.722 132.294H368.137L365.286 142.265C365.224 142.561 365.162 142.763 365.084 142.857C365.006 142.95 364.881 142.997 364.694 142.997H361.173C360.908 142.997 360.721 142.95 360.659 142.857C360.581 142.763 360.581 142.576 360.644 142.265L368.636 113.879C369.321 111.527 370.007 110.078 370.661 109.501C371.409 108.894 372.827 108.598 374.899 108.598H374.914ZM374.914 112.57C374.276 112.57 373.87 112.695 373.668 112.96C373.465 113.209 373.232 113.879 372.967 114.97L369.259 128.321H380.679L377.158 114.97C376.831 113.863 376.55 113.194 376.348 112.991C376.129 112.726 375.662 112.586 374.899 112.586L374.914 112.57Z" fill="#0F1822"/>
<path d="M405.529 108.598C407.725 108.598 410.639 108.816 414.284 109.268C414.705 109.33 414.908 109.517 414.908 109.86V111.932C414.908 112.383 414.705 112.602 414.316 112.602H404.158C400.216 112.602 398.253 113.941 398.253 116.621V117.384C398.253 118.584 398.487 119.519 398.97 120.189C399.453 120.859 400.341 121.451 401.634 121.996L411.48 126.062C413.381 126.841 414.705 127.854 415.5 129.085C416.279 130.315 416.668 131.92 416.668 133.914V135.363C416.668 137.918 415.889 139.834 414.316 141.096C413.63 141.704 412.758 142.156 411.698 142.452C409.798 142.966 407.492 143.215 404.75 143.215C401.104 143.215 397.443 142.997 393.735 142.576C393.377 142.483 393.19 142.249 393.19 141.86V139.834C393.19 139.414 393.408 139.196 393.829 139.196H406.199C408.24 139.196 409.735 138.884 410.67 138.276C411.605 137.653 412.072 136.641 412.072 135.238V134.382C412.072 133.12 411.823 132.122 411.324 131.406C410.826 130.689 409.938 130.05 408.645 129.505L397.942 125.174C396.384 124.567 395.278 123.647 394.654 122.401C394.016 121.155 393.704 119.519 393.704 117.509V116.418C393.704 113.863 394.452 111.963 395.963 110.732C396.571 110.218 397.443 109.782 398.58 109.423C400.325 108.878 402.647 108.613 405.529 108.613V108.598Z" fill="#0F1822"/>
<path d="M434.897 108.598C438.48 108.598 441.269 108.753 443.294 109.049C443.777 109.081 444.011 109.33 444.011 109.813V111.932C444.011 112.383 443.793 112.602 443.341 112.602H434.897C431.08 112.602 428.587 113.49 427.45 115.266C426.313 117.042 425.736 120.594 425.736 125.922C425.736 131.25 426.313 134.755 427.45 136.531C428.587 138.308 431.08 139.196 434.897 139.196H443.341C443.793 139.196 444.011 139.414 444.011 139.865V141.984C444.011 142.436 443.777 142.701 443.294 142.794C441.331 143.059 438.542 143.199 434.897 143.199C432.015 143.199 429.724 142.935 428.042 142.389C426.359 141.844 424.988 140.894 423.929 139.554C422.901 138.23 422.184 136.516 421.779 134.428C421.374 132.341 421.171 129.505 421.171 125.922C421.171 122.339 421.374 119.503 421.779 117.416C422.184 115.328 422.901 113.614 423.929 112.29C424.957 110.903 426.313 109.937 428.011 109.408C429.709 108.863 431.999 108.598 434.897 108.598Z" fill="#0F1822"/>
<path d="M471.959 108.814H475.168C475.62 108.814 475.838 109.033 475.838 109.484V125.952C475.838 129.628 475.636 132.511 475.246 134.598C474.857 136.686 474.156 138.4 473.128 139.724C472.099 141.048 470.775 141.952 469.139 142.45C467.503 142.949 465.26 143.198 462.393 143.198C458.234 143.198 455.133 142.513 453.046 141.126C451.971 140.409 451.129 139.35 450.569 137.963C449.509 135.284 448.995 131.28 448.995 125.952V109.5C448.995 109.048 449.213 108.83 449.665 108.83H452.874C453.326 108.83 453.544 109.048 453.544 109.5V125.967C453.544 129.551 453.794 132.293 454.308 134.178C454.822 136.016 455.694 137.309 456.925 138.057C458.156 138.805 459.979 139.179 462.378 139.179C465.93 139.179 468.282 138.306 469.466 136.561C470.666 134.816 471.274 131.28 471.274 125.952V109.5C471.274 109.048 471.492 108.83 471.943 108.83L471.959 108.814Z" fill="#0F1822"/>
<path d="M483.146 108.814H486.356C486.808 108.814 487.026 109.033 487.026 109.484V138.945H503.4C503.851 138.945 504.07 139.163 504.07 139.615V142.279C504.07 142.731 503.851 142.949 503.4 142.949H483.131C482.679 142.949 482.461 142.731 482.461 142.279V109.5C482.461 109.048 482.679 108.83 483.131 108.83L483.146 108.814Z" fill="#0F1822"/>
<path d="M521.674 108.598C523.995 108.598 525.49 108.894 526.192 109.501C526.908 110.109 527.594 111.558 528.217 113.879L535.929 142.265C535.991 142.561 535.975 142.763 535.913 142.857C535.835 142.95 535.664 142.997 535.399 142.997H531.878C531.707 142.997 531.566 142.95 531.489 142.857C531.411 142.763 531.348 142.576 531.286 142.265L528.482 132.294H514.897L512.046 142.265C511.983 142.561 511.921 142.763 511.843 142.857C511.765 142.95 511.64 142.997 511.454 142.997H507.933C507.668 142.997 507.481 142.95 507.418 142.857C507.341 142.763 507.341 142.576 507.403 142.265L515.395 113.879C516.081 111.527 516.766 110.078 517.42 109.501C518.168 108.894 519.586 108.598 521.658 108.598H521.674ZM521.674 112.57C521.035 112.57 520.63 112.695 520.427 112.96C520.225 113.225 519.991 113.879 519.726 114.97L516.018 128.321H527.438L523.917 114.97C523.59 113.863 523.309 113.194 523.107 112.991C522.889 112.726 522.421 112.586 521.658 112.586L521.674 112.57Z" fill="#0F1822"/>
<path d="M551.101 108.598C553.936 108.598 556.117 108.738 557.66 109.034C559.202 109.314 560.526 109.86 561.601 110.639C562.723 111.418 563.502 112.508 563.954 113.91C564.405 115.312 564.624 117.213 564.624 119.612C564.624 123.196 564.063 125.719 562.957 127.199C561.882 128.679 559.965 129.599 557.223 129.957L564.857 142.093C565.044 142.343 565.075 142.545 564.966 142.732C564.857 142.919 564.639 142.997 564.312 142.997H561.43C560.682 142.997 560.074 142.67 559.623 142L552.176 130.222H545.367V142.311C545.367 142.576 545.321 142.763 545.227 142.857C545.134 142.95 544.962 142.997 544.682 142.997H541.473C541.208 142.997 541.021 142.95 540.927 142.857C540.834 142.763 540.787 142.592 540.787 142.311V109.579C540.787 109.314 540.834 109.143 540.927 109.065C541.021 108.987 541.192 108.94 541.473 108.909C544.246 108.691 547.44 108.598 551.085 108.598H551.101ZM550.696 112.617H545.367V126.343H550.696C552.176 126.343 553.126 126.343 553.578 126.296C555.556 126.233 556.865 126.062 557.504 125.751C558.47 125.33 559.14 124.676 559.514 123.788C559.887 122.9 560.059 121.544 560.028 119.706C560.028 116.668 559.42 114.72 558.22 113.879C557.083 113.038 554.559 112.617 550.68 112.617H550.696Z" fill="#0F1822"/>
<path d="M336.216 158.172H339.426C339.877 158.172 340.096 158.421 340.096 158.889V191.652C340.096 192.104 339.877 192.322 339.426 192.322H336.216C335.764 192.322 335.546 192.104 335.546 191.652V158.889C335.546 158.406 335.764 158.172 336.216 158.172Z" fill="#0F1822"/>
<path d="M370.507 158.17H373.717C374.169 158.17 374.387 158.419 374.387 158.887V191.65C374.387 192.102 374.169 192.32 373.717 192.32H370.959C370.258 192.32 369.744 192.055 369.386 191.51L351.563 164.651V191.634C351.563 192.086 351.345 192.304 350.893 192.304H347.684C347.232 192.304 347.014 192.086 347.014 191.634V158.871C347.014 158.388 347.232 158.154 347.684 158.154H350.753C351.532 158.185 352.061 158.279 352.357 158.419C352.638 158.575 352.965 158.918 353.323 159.463L369.837 184.328V158.871C369.837 158.388 370.056 158.154 370.507 158.154V158.17Z" fill="#0F1822"/>
<path d="M391.991 157.953C394.188 157.953 397.101 158.171 400.747 158.623C401.167 158.685 401.37 158.872 401.37 159.215V161.287C401.37 161.739 401.167 161.957 400.778 161.957H390.62C386.679 161.957 384.716 163.297 384.716 165.977V166.74C384.716 167.939 384.949 168.874 385.432 169.544C385.915 170.214 386.803 170.806 388.096 171.351L397.943 175.418C399.843 176.197 401.167 177.209 401.962 178.44C402.741 179.671 403.13 181.275 403.13 183.27V184.718C403.13 187.273 402.351 189.19 400.778 190.452C400.092 191.059 399.22 191.511 398.161 191.807C396.26 192.321 393.954 192.57 391.212 192.57C387.567 192.57 383.905 192.352 380.198 191.932C379.839 191.838 379.652 191.605 379.652 191.215V189.19C379.652 188.769 379.87 188.551 380.291 188.551H392.661C394.702 188.551 396.198 188.239 397.132 187.632C398.067 187.009 398.535 185.996 398.535 184.594V183.737C398.535 182.475 398.285 181.478 397.787 180.761C397.288 180.045 396.4 179.406 395.107 178.861L384.404 174.53C382.846 173.922 381.74 173.003 381.117 171.756C380.478 170.51 380.166 168.874 380.166 166.865V165.774C380.166 163.219 380.914 161.318 382.425 160.087C383.033 159.573 383.905 159.137 385.043 158.779C386.788 158.234 389.109 157.969 391.991 157.969V157.953Z" fill="#0F1822"/>
<path d="M406.62 158.172H431.672C432.124 158.172 432.342 158.39 432.342 158.842V161.506C432.342 161.958 432.124 162.176 431.672 162.176H421.436V191.636C421.436 192.088 421.218 192.306 420.766 192.306H417.557C417.105 192.306 416.887 192.088 416.887 191.636V162.176H406.636C406.184 162.176 405.966 161.958 405.966 161.506V158.842C405.966 158.39 406.184 158.172 406.636 158.172H406.62Z" fill="#0F1822"/>
<path d="M437.67 158.172H440.879C441.331 158.172 441.549 158.421 441.549 158.889V191.652C441.549 192.104 441.331 192.322 440.879 192.322H437.67C437.218 192.322 437 192.104 437 191.652V158.889C437 158.406 437.218 158.172 437.67 158.172Z" fill="#0F1822"/>
<path d="M446.861 158.172H471.912C472.364 158.172 472.582 158.39 472.582 158.842V161.506C472.582 161.958 472.364 162.176 471.912 162.176H461.677V191.636C461.677 192.088 461.459 192.306 461.007 192.306H457.798C457.346 192.306 457.128 192.088 457.128 191.636V162.176H446.876C446.425 162.176 446.207 161.958 446.207 161.506V158.842C446.207 158.39 446.425 158.172 446.876 158.172H446.861Z" fill="#0F1822"/>
<path d="M500.064 158.17H503.273C503.725 158.17 503.943 158.388 503.943 158.84V175.307C503.943 178.984 503.741 181.866 503.351 183.954C502.962 186.041 502.261 187.755 501.233 189.079C500.204 190.404 498.88 191.307 497.244 191.806C495.608 192.304 493.365 192.554 490.498 192.554C486.339 192.554 483.238 191.868 481.151 190.481C480.076 189.765 479.234 188.705 478.674 187.319C477.614 184.639 477.1 180.635 477.1 175.307V158.84C477.1 158.388 477.318 158.17 477.77 158.17H480.979C481.431 158.17 481.649 158.388 481.649 158.84V175.307C481.649 178.89 481.899 181.632 482.413 183.518C482.927 185.356 483.799 186.649 485.03 187.397C486.261 188.145 488.084 188.518 490.483 188.518C494.035 188.518 496.387 187.646 497.571 185.901C498.771 184.156 499.379 180.62 499.379 175.292V158.824C499.379 158.372 499.597 158.154 500.049 158.154L500.064 158.17Z" fill="#0F1822"/>
<path d="M509.101 158.172H534.153C534.605 158.172 534.823 158.39 534.823 158.842V161.506C534.823 161.958 534.605 162.176 534.153 162.176H523.917V191.636C523.917 192.088 523.699 192.306 523.247 192.306H520.038C519.586 192.306 519.368 192.088 519.368 191.636V162.176H509.117C508.665 162.176 508.447 161.958 508.447 161.506V158.842C508.447 158.39 508.665 158.172 509.117 158.172H509.101Z" fill="#0F1822"/>
<path d="M540.135 158.17H561.26C561.712 158.17 561.93 158.388 561.93 158.84V161.504C561.93 161.956 561.712 162.174 561.26 162.174H544.03V173.765H559.734C560.185 173.765 560.404 173.983 560.404 174.435V177.052C560.404 177.504 560.185 177.722 559.734 177.722H544.03V188.285H561.26C561.712 188.285 561.93 188.503 561.93 188.955V191.619C561.93 192.071 561.712 192.289 561.26 192.289H540.135C539.683 192.289 539.465 192.071 539.465 191.619V158.809C539.465 158.357 539.683 158.139 540.135 158.139V158.17Z" fill="#0F1822"/>
<path d="M339.931 217.731H341.551C341.779 217.731 341.893 217.853 341.893 218.096V234.658C341.893 234.886 341.779 235 341.551 235H339.931C339.703 235 339.589 234.886 339.589 234.658V218.096C339.589 217.853 339.703 217.731 339.931 217.731ZM350.394 222.408C351.565 222.408 352.424 222.461 352.971 222.567C353.58 222.659 354.104 222.894 354.545 223.275C354.986 223.624 355.283 224.142 355.435 224.826C355.602 225.495 355.686 226.468 355.686 227.746V234.658C355.686 234.886 355.557 235 355.298 235H353.838C353.61 235 353.496 234.886 353.496 234.658V227.928C353.496 226.712 353.374 225.792 353.131 225.168C353.025 224.894 352.835 224.704 352.561 224.598C352.165 224.415 351.519 224.324 350.622 224.324H347.497V234.658C347.497 234.886 347.383 235 347.154 235H345.649C345.421 235 345.307 234.886 345.307 234.658V223.138C345.307 223.047 345.322 222.978 345.352 222.932C345.383 222.872 345.413 222.834 345.443 222.818C345.489 222.803 345.558 222.788 345.649 222.773C346.865 222.529 348.447 222.408 350.394 222.408ZM366.953 217.754H368.458C368.686 217.754 368.8 217.868 368.8 218.096V234.361C368.8 234.589 368.679 234.711 368.435 234.726C366.763 234.985 365.181 235.114 363.691 235.114C361.972 235.114 360.71 234.863 359.904 234.361C359.311 233.92 358.908 233.289 358.695 232.468C358.497 231.647 358.391 230.422 358.375 228.795C358.375 226.24 358.71 224.537 359.379 223.685C360.048 222.834 361.447 222.408 363.576 222.408C364.854 222.408 365.865 222.461 366.61 222.567V218.096C366.61 217.868 366.725 217.754 366.953 217.754ZM366.61 233.015V224.324H363.713C362.345 224.324 361.478 224.605 361.113 225.168C360.748 225.716 360.565 226.917 360.565 228.772C360.565 230.582 360.74 231.776 361.09 232.354C361.455 232.917 362.322 233.198 363.691 233.198C364.588 233.198 365.561 233.137 366.61 233.015ZM374.392 218.872C374.392 219.769 373.943 220.218 373.046 220.218C372.149 220.218 371.7 219.769 371.7 218.872C371.7 217.99 372.149 217.549 373.046 217.549C373.943 217.549 374.392 217.99 374.392 218.872ZM372.293 222.522H373.799C374.027 222.522 374.141 222.636 374.141 222.864V234.658C374.141 234.886 374.027 235 373.799 235H372.293C372.065 235 371.951 234.886 371.951 234.658V222.864C371.951 222.636 372.065 222.522 372.293 222.522ZM381.267 222.408C383.046 222.408 384.346 222.697 385.167 223.275C386.004 223.837 386.422 224.742 386.422 225.989V233.973C386.422 234.293 386.278 234.506 385.989 234.612C385.122 234.947 383.434 235.114 380.924 235.114C379.328 235.114 378.195 234.871 377.525 234.384C376.856 233.882 376.522 232.901 376.522 231.441C376.522 230.164 376.841 229.259 377.48 228.727C378.134 228.194 379.16 227.928 380.559 227.928L384.232 227.905V226.377C384.232 225.647 383.996 225.122 383.525 224.803C383.069 224.484 382.316 224.324 381.267 224.324H377.845C377.708 224.324 377.617 224.301 377.571 224.256C377.525 224.21 377.503 224.119 377.503 223.982V223.047C377.503 222.925 377.518 222.841 377.548 222.796C377.594 222.75 377.685 222.712 377.822 222.682C378.902 222.499 380.05 222.408 381.267 222.408ZM384.232 232.97V229.685H380.605C379.936 229.685 379.449 229.822 379.145 230.095C378.841 230.354 378.689 230.787 378.689 231.396C378.689 232.11 378.879 232.597 379.259 232.856C379.639 233.114 380.324 233.243 381.312 233.243C382.544 233.243 383.517 233.152 384.232 232.97ZM390.226 217.731H392.279C392.431 217.731 392.507 217.807 392.507 217.959V218.279C392.507 218.355 392.469 218.454 392.393 218.575L389.291 223.799C389.169 223.936 389.055 223.974 388.948 223.913L388.424 223.64C388.317 223.579 388.294 223.472 388.355 223.32L389.929 217.914C389.975 217.792 390.074 217.731 390.226 217.731ZM396.978 222.408C398.164 222.408 399.328 222.476 400.468 222.613C400.681 222.644 400.788 222.765 400.788 222.978V223.959C400.788 224.187 400.674 224.301 400.445 224.301H396.202C395.092 224.301 394.537 224.697 394.537 225.487V225.784C394.537 226.499 395.009 227.031 395.951 227.381L398.985 228.59C399.883 228.94 400.483 229.358 400.788 229.844C401.107 230.331 401.267 230.985 401.267 231.806V232.057C401.267 233.274 400.909 234.088 400.194 234.498C399.48 234.909 398.301 235.114 396.659 235.114C395.047 235.114 393.655 235.046 392.484 234.909C392.256 234.878 392.142 234.764 392.142 234.567V233.563C392.142 233.335 392.256 233.221 392.484 233.221H396.704C397.647 233.221 398.278 233.145 398.598 232.993C398.932 232.84 399.1 232.521 399.1 232.034V231.761C399.1 231.411 399.001 231.122 398.803 230.894C398.62 230.666 398.278 230.445 397.776 230.232L394.537 229C393.077 228.438 392.347 227.35 392.347 225.738V225.259C392.347 224.058 392.819 223.267 393.762 222.887C394.583 222.567 395.655 222.408 396.978 222.408ZM414.429 217.617C415.858 217.617 416.961 217.693 417.737 217.845C418.527 217.982 419.196 218.248 419.744 218.644C420.307 219.039 420.702 219.594 420.93 220.309C421.158 221.009 421.272 221.967 421.272 223.183C421.272 224.4 421.158 225.358 420.93 226.058C420.702 226.742 420.322 227.282 419.79 227.677C419.47 227.905 419.029 228.088 418.466 228.225C417.524 228.438 416.178 228.544 414.429 228.544H411.532V234.658C411.532 234.795 411.509 234.886 411.463 234.932C411.418 234.977 411.326 235 411.189 235H409.57C409.433 235 409.342 234.977 409.296 234.932C409.25 234.886 409.228 234.795 409.228 234.658V218.119C409.228 217.982 409.25 217.899 409.296 217.868C409.342 217.823 409.433 217.792 409.57 217.777C410.969 217.671 412.589 217.617 414.429 217.617ZM414.223 219.648H411.532V226.582H414.223C414.969 226.582 415.455 226.575 415.683 226.56C416.687 226.529 417.349 226.438 417.668 226.286C418.155 226.073 418.489 225.746 418.672 225.305C418.87 224.849 418.961 224.157 418.946 223.229C418.946 221.693 418.641 220.712 418.033 220.286C417.455 219.86 416.185 219.648 414.223 219.648ZM427.282 222.408C428.483 222.408 429.335 222.491 429.837 222.659C430.065 222.735 430.179 222.864 430.179 223.047V224.005C430.179 224.233 430.057 224.339 429.814 224.324H427.829C427.039 224.324 426.506 224.408 426.233 224.575C425.974 224.742 425.845 225.084 425.845 225.601V234.658C425.845 234.886 425.731 235 425.503 235H424.02C423.792 235 423.678 234.886 423.678 234.658V225.077C423.678 224.149 423.967 223.465 424.544 223.024C424.803 222.841 425.107 222.704 425.457 222.613C425.944 222.476 426.552 222.408 427.282 222.408ZM436.891 222.408C438.913 222.408 440.259 222.811 440.928 223.617C441.613 224.438 441.962 226.043 441.978 228.43V229.092C441.978 229.335 441.917 229.502 441.795 229.594C441.689 229.685 441.476 229.73 441.156 229.73H433.902C433.933 231.13 434.138 232.057 434.518 232.513C434.913 232.97 435.72 233.198 436.936 233.198H440.677C440.905 233.198 441.019 233.312 441.019 233.54V234.544C441.019 234.757 440.913 234.878 440.7 234.909C439.696 235.046 438.427 235.114 436.891 235.114C434.761 235.114 433.362 234.703 432.693 233.882C432.024 233.031 431.689 231.327 431.689 228.772C431.689 226.217 432.024 224.514 432.693 223.662C433.347 222.826 434.746 222.408 436.891 222.408ZM436.891 224.324C435.689 224.324 434.891 224.567 434.495 225.054C434.1 225.541 433.895 226.506 433.879 227.951H439.788C439.772 226.491 439.575 225.518 439.195 225.031C438.83 224.56 438.062 224.324 436.891 224.324ZM456.074 222.385C458.097 222.355 459.458 222.644 460.157 223.252C460.903 223.936 461.275 225.404 461.275 227.655L461.23 234.658C461.23 234.886 461.116 235 460.887 235H459.427C459.199 235 459.085 234.886 459.085 234.658V227.928C459.085 226.712 458.964 225.792 458.72 225.168C458.599 224.879 458.409 224.681 458.15 224.575C457.77 224.392 457.139 224.301 456.257 224.301C455.238 224.301 454.348 224.37 453.588 224.507C453.831 225.176 453.953 226.255 453.953 227.746L453.907 234.658C453.907 234.886 453.808 235 453.61 235H452.105C451.877 235 451.763 234.886 451.763 234.658V227.791C451.763 226.894 451.717 226.225 451.626 225.784C451.55 225.343 451.382 225.016 451.124 224.803C450.881 224.59 450.622 224.461 450.348 224.415C450.075 224.354 449.603 224.324 448.934 224.324H446.653V234.658C446.653 234.886 446.539 235 446.311 235H444.805C444.577 235 444.463 234.886 444.463 234.658V223.138C444.463 222.94 444.577 222.818 444.805 222.773C446.022 222.529 447.292 222.408 448.615 222.408C450.166 222.408 451.428 222.636 452.401 223.092C453.725 222.621 454.949 222.385 456.074 222.385ZM466.753 218.872C466.753 219.769 466.305 220.218 465.407 220.218C464.51 220.218 464.062 219.769 464.062 218.872C464.062 217.99 464.51 217.549 465.407 217.549C466.305 217.549 466.753 217.99 466.753 218.872ZM464.655 222.522H466.16C466.388 222.522 466.502 222.636 466.502 222.864V234.658C466.502 234.886 466.388 235 466.16 235H464.655C464.427 235 464.312 234.886 464.312 234.658V222.864C464.312 222.636 464.427 222.522 464.655 222.522ZM474.472 222.408C476.495 222.408 477.841 222.811 478.51 223.617C479.194 224.438 479.544 226.043 479.559 228.43V229.092C479.559 229.335 479.499 229.502 479.377 229.594C479.27 229.685 479.058 229.73 478.738 229.73H471.484C471.514 231.13 471.72 232.057 472.1 232.513C472.495 232.97 473.301 233.198 474.518 233.198H478.259C478.487 233.198 478.601 233.312 478.601 233.54V234.544C478.601 234.757 478.495 234.878 478.282 234.909C477.278 235.046 476.008 235.114 474.472 235.114C472.343 235.114 470.944 234.703 470.275 233.882C469.606 233.031 469.271 231.327 469.271 228.772C469.271 226.217 469.606 224.514 470.275 223.662C470.929 222.826 472.328 222.408 474.472 222.408ZM474.472 224.324C473.271 224.324 472.472 224.567 472.077 225.054C471.682 225.541 471.476 226.506 471.461 227.951H477.369C477.354 226.491 477.157 225.518 476.776 225.031C476.411 224.56 475.643 224.324 474.472 224.324ZM485.626 222.408C486.828 222.408 487.679 222.491 488.181 222.659C488.409 222.735 488.523 222.864 488.523 223.047V224.005C488.523 224.233 488.402 224.339 488.158 224.324H486.174C485.383 224.324 484.851 224.408 484.577 224.575C484.318 224.742 484.189 225.084 484.189 225.601V234.658C484.189 234.886 484.075 235 483.847 235H482.364C482.136 235 482.022 234.886 482.022 234.658V225.077C482.022 224.149 482.311 223.465 482.889 223.024C483.147 222.841 483.451 222.704 483.801 222.613C484.288 222.476 484.896 222.408 485.626 222.408ZM492.811 217.731H494.59C494.727 217.731 494.826 217.853 494.887 218.096L498.673 231.898C498.826 232.445 498.947 232.787 499.038 232.924C499.13 233.061 499.289 233.129 499.518 233.129C499.822 233.129 500.027 233.061 500.133 232.924C500.24 232.787 500.362 232.445 500.498 231.898L504.126 218.096C504.186 217.853 504.285 217.731 504.422 217.731H506.201C506.445 217.731 506.544 217.853 506.498 218.096L502.688 232.445C502.46 233.312 502.255 233.905 502.072 234.224C501.89 234.559 501.616 234.795 501.251 234.932C500.901 235.053 500.324 235.114 499.518 235.114C498.453 235.114 497.769 234.97 497.464 234.681C497.145 234.376 496.826 233.631 496.506 232.445L492.514 218.096C492.469 217.853 492.567 217.731 492.811 217.731ZM510.876 222.408C512.655 222.408 513.956 222.697 514.777 223.275C515.613 223.837 516.031 224.742 516.031 225.989V233.973C516.031 234.293 515.887 234.506 515.598 234.612C514.731 234.947 513.043 235.114 510.534 235.114C508.937 235.114 507.804 234.871 507.135 234.384C506.466 233.882 506.131 232.901 506.131 231.441C506.131 230.164 506.45 229.259 507.089 228.727C507.743 228.194 508.77 227.928 510.169 227.928L513.841 227.905V226.377C513.841 225.647 513.606 225.122 513.134 224.803C512.678 224.484 511.925 224.324 510.876 224.324H507.454C507.317 224.324 507.226 224.301 507.18 224.256C507.135 224.21 507.112 224.119 507.112 223.982V223.047C507.112 222.925 507.127 222.841 507.158 222.796C507.203 222.75 507.294 222.712 507.431 222.682C508.511 222.499 509.659 222.408 510.876 222.408ZM513.841 232.97V229.685H510.214C509.545 229.685 509.059 229.822 508.754 230.095C508.45 230.354 508.298 230.787 508.298 231.396C508.298 232.11 508.488 232.597 508.868 232.856C509.249 233.114 509.933 233.243 510.922 233.243C512.153 233.243 513.127 233.152 513.841 232.97ZM523.313 222.408C524.499 222.408 525.662 222.476 526.803 222.613C527.016 222.644 527.122 222.765 527.122 222.978V223.959C527.122 224.187 527.008 224.301 526.78 224.301H522.537C521.427 224.301 520.872 224.697 520.872 225.487V225.784C520.872 226.499 521.343 227.031 522.286 227.381L525.32 228.59C526.217 228.94 526.818 229.358 527.122 229.844C527.441 230.331 527.601 230.985 527.601 231.806V232.057C527.601 233.274 527.244 234.088 526.529 234.498C525.814 234.909 524.636 235.114 522.993 235.114C521.381 235.114 519.99 235.046 518.819 234.909C518.59 234.878 518.476 234.764 518.476 234.567V233.563C518.476 233.335 518.59 233.221 518.819 233.221H523.039C523.982 233.221 524.613 233.145 524.932 232.993C525.267 232.84 525.434 232.521 525.434 232.034V231.761C525.434 231.411 525.335 231.122 525.137 230.894C524.955 230.666 524.613 230.445 524.111 230.232L520.872 229C519.412 228.438 518.682 227.35 518.682 225.738V225.259C518.682 224.058 519.153 223.267 520.096 222.887C520.917 222.567 521.989 222.408 523.313 222.408ZM535.047 222.408C536.355 222.408 537.511 222.476 538.514 222.613C538.727 222.644 538.834 222.773 538.834 223.001V223.982C538.834 224.21 538.72 224.324 538.492 224.324H535.047C533.709 224.324 532.857 224.605 532.492 225.168C532.127 225.731 531.945 226.932 531.945 228.772C531.945 230.582 532.127 231.776 532.492 232.354C532.857 232.917 533.709 233.198 535.047 233.198H538.492C538.72 233.198 538.834 233.312 538.834 233.54V234.521C538.834 234.749 538.727 234.878 538.514 234.909C537.511 235.046 536.355 235.114 535.047 235.114C533.861 235.114 532.941 235.023 532.287 234.84C531.648 234.658 531.131 234.323 530.736 233.837C530.355 233.35 530.097 232.734 529.96 231.989C529.823 231.244 529.755 230.171 529.755 228.772C529.755 227.373 529.823 226.301 529.96 225.556C530.097 224.811 530.355 224.195 530.736 223.708C531.131 223.206 531.648 222.864 532.287 222.682C532.941 222.499 533.861 222.408 535.047 222.408ZM549.654 222.522H551.16C551.388 222.522 551.502 222.636 551.502 222.864V234.407C551.502 234.498 551.487 234.567 551.456 234.612C551.426 234.658 551.388 234.688 551.342 234.703C551.312 234.719 551.251 234.734 551.16 234.749C549.928 234.992 548.346 235.114 546.415 235.114C545.289 235.114 544.43 235.068 543.837 234.977C543.214 234.856 542.689 234.612 542.263 234.247C541.822 233.882 541.518 233.365 541.351 232.696C541.198 232.012 541.122 231.031 541.122 229.753V222.864C541.122 222.636 541.252 222.522 541.51 222.522H542.97C543.198 222.522 543.312 222.636 543.312 222.864V229.594C543.312 230.521 543.35 231.213 543.426 231.669C543.518 232.126 543.685 232.468 543.928 232.696C544.187 232.909 544.461 233.046 544.75 233.107C545.038 233.167 545.518 233.198 546.187 233.198H549.312V222.864C549.312 222.636 549.426 222.522 549.654 222.522ZM554.989 217.731H556.495C556.723 217.731 556.837 217.845 556.837 218.074V234.658C556.837 234.886 556.723 235 556.495 235H554.989C554.761 235 554.647 234.886 554.647 234.658V218.074C554.647 217.845 554.761 217.731 554.989 217.731ZM563.963 222.408C565.742 222.408 567.042 222.697 567.864 223.275C568.7 223.837 569.118 224.742 569.118 225.989V233.973C569.118 234.293 568.974 234.506 568.685 234.612C567.818 234.947 566.13 235.114 563.621 235.114C562.024 235.114 560.891 234.871 560.222 234.384C559.552 233.882 559.218 232.901 559.218 231.441C559.218 230.164 559.537 229.259 560.176 228.727C560.83 228.194 561.856 227.928 563.256 227.928L566.928 227.905V226.377C566.928 225.647 566.693 225.122 566.221 224.803C565.765 224.484 565.012 224.324 563.963 224.324H560.541C560.404 224.324 560.313 224.301 560.267 224.256C560.222 224.21 560.199 224.119 560.199 223.982V223.047C560.199 222.925 560.214 222.841 560.244 222.796C560.29 222.75 560.381 222.712 560.518 222.682C561.598 222.499 562.746 222.408 563.963 222.408ZM566.928 232.97V229.685H563.301C562.632 229.685 562.145 229.822 561.841 230.095C561.537 230.354 561.385 230.787 561.385 231.396C561.385 232.11 561.575 232.597 561.955 232.856C562.335 233.114 563.02 233.243 564.008 233.243C565.24 233.243 566.214 233.152 566.928 232.97ZM575.738 222.408C576.939 222.408 577.791 222.491 578.293 222.659C578.521 222.735 578.635 222.864 578.635 223.047V224.005C578.635 224.233 578.513 224.339 578.27 224.324H576.285C575.494 224.324 574.962 224.408 574.688 224.575C574.43 224.742 574.301 225.084 574.301 225.601V234.658C574.301 234.886 574.187 235 573.958 235H572.476C572.248 235 572.133 234.886 572.133 234.658V225.077C572.133 224.149 572.422 223.465 573 223.024C573.259 222.841 573.563 222.704 573.913 222.613C574.399 222.476 575.008 222.408 575.738 222.408ZM596.926 217.731H598.546C598.774 217.731 598.888 217.853 598.888 218.096V234.658C598.888 234.886 598.774 235 598.546 235H596.926C596.698 235 596.584 234.886 596.584 234.658V227.244H587.3V234.658C587.3 234.886 587.185 235 586.957 235H585.338C585.11 235 584.996 234.886 584.996 234.658V218.096C584.996 217.853 585.11 217.731 585.338 217.731H586.957C587.185 217.731 587.3 217.853 587.3 218.096V225.214H596.584V218.096C596.584 217.853 596.698 217.731 596.926 217.731ZM607.156 222.408C609.179 222.408 610.524 222.811 611.194 223.617C611.878 224.438 612.228 226.043 612.243 228.43V229.092C612.243 229.335 612.182 229.502 612.06 229.594C611.954 229.685 611.741 229.73 611.422 229.73H604.168C604.198 231.13 604.403 232.057 604.783 232.513C605.179 232.97 605.985 233.198 607.202 233.198H610.943C611.171 233.198 611.285 233.312 611.285 233.54V234.544C611.285 234.757 611.178 234.878 610.965 234.909C609.962 235.046 608.692 235.114 607.156 235.114C605.027 235.114 603.628 234.703 602.959 233.882C602.289 233.031 601.955 231.327 601.955 228.772C601.955 226.217 602.289 224.514 602.959 223.662C603.612 222.826 605.012 222.408 607.156 222.408ZM607.156 224.324C605.954 224.324 605.156 224.567 604.761 225.054C604.365 225.541 604.16 226.506 604.145 227.951H610.053C610.038 226.491 609.84 225.518 609.46 225.031C609.095 224.56 608.327 224.324 607.156 224.324ZM618.72 222.408C620.5 222.408 621.8 222.697 622.621 223.275C623.458 223.837 623.876 224.742 623.876 225.989V233.973C623.876 234.293 623.731 234.506 623.442 234.612C622.576 234.947 620.887 235.114 618.378 235.114C616.781 235.114 615.648 234.871 614.979 234.384C614.31 233.882 613.975 232.901 613.975 231.441C613.975 230.164 614.295 229.259 614.934 228.727C615.587 228.194 616.614 227.928 618.013 227.928L621.686 227.905V226.377C621.686 225.647 621.45 225.122 620.979 224.803C620.522 224.484 619.77 224.324 618.72 224.324H615.299C615.162 224.324 615.07 224.301 615.025 224.256C614.979 224.21 614.956 224.119 614.956 223.982V223.047C614.956 222.925 614.972 222.841 615.002 222.796C615.048 222.75 615.139 222.712 615.276 222.682C616.355 222.499 617.504 222.408 618.72 222.408ZM621.686 232.97V229.685H618.059C617.39 229.685 616.903 229.822 616.599 230.095C616.295 230.354 616.143 230.787 616.143 231.396C616.143 232.11 616.333 232.597 616.713 232.856C617.093 233.114 617.777 233.243 618.766 233.243C619.998 233.243 620.971 233.152 621.686 232.97ZM627.279 217.731H628.784C629.013 217.731 629.127 217.845 629.127 218.074V234.658C629.127 234.886 629.013 235 628.784 235H627.279C627.051 235 626.937 234.886 626.937 234.658V218.074C626.937 217.845 627.051 217.731 627.279 217.731ZM633.196 219.442L634.701 219.077C634.96 219.001 635.089 219.1 635.089 219.374V222.545H637.484C637.728 222.545 637.849 222.659 637.849 222.887V223.959C637.849 224.187 637.728 224.301 637.484 224.301H635.089V231.966C635.089 232.468 635.18 232.802 635.363 232.97C635.561 233.122 635.964 233.198 636.572 233.198H637.667C637.91 233.198 638.032 233.304 638.032 233.517V234.612C638.032 234.81 637.918 234.932 637.69 234.977C637.325 235.068 636.899 235.114 636.412 235.114C635.621 235.114 634.975 235.053 634.473 234.932C633.956 234.81 633.576 234.567 633.333 234.202C633.089 233.837 632.945 233.274 632.899 232.513V224.301H631.622C631.394 224.301 631.28 224.187 631.28 223.959V222.887C631.28 222.659 631.394 222.545 631.622 222.545H632.899V219.807C632.899 219.61 632.998 219.488 633.196 219.442ZM640.422 217.754H641.928C642.156 217.754 642.27 217.868 642.27 218.096V222.522C643.107 222.446 644.072 222.408 645.167 222.408C646.338 222.408 647.198 222.461 647.745 222.567C648.353 222.659 648.878 222.894 649.319 223.275C649.76 223.624 650.057 224.142 650.209 224.826C650.376 225.495 650.46 226.468 650.46 227.746V234.658C650.46 234.886 650.346 235 650.118 235H648.612C648.384 235 648.27 234.886 648.27 234.658V227.928C648.27 226.985 648.224 226.286 648.133 225.83C648.057 225.373 647.89 225.039 647.631 224.826C647.373 224.598 647.099 224.453 646.81 224.392C646.536 224.332 646.065 224.301 645.395 224.301H642.27V234.658C642.27 234.886 642.156 235 641.928 235H640.422C640.194 235 640.08 234.886 640.08 234.658V218.096C640.08 217.868 640.194 217.754 640.422 217.754ZM339.931 244.731H350.607C350.835 244.731 350.949 244.845 350.949 245.074V246.419C350.949 246.648 350.835 246.762 350.607 246.762H341.893V252.624H349.831C350.06 252.624 350.174 252.738 350.174 252.966V254.29C350.174 254.518 350.06 254.632 349.831 254.632H341.893V259.97H350.607C350.835 259.97 350.949 260.084 350.949 260.312V261.658C350.949 261.886 350.835 262 350.607 262H339.931C339.703 262 339.589 261.886 339.589 261.658V245.074C339.589 244.845 339.703 244.731 339.931 244.731ZM358.566 249.408C359.874 249.408 361.03 249.476 362.034 249.613C362.247 249.644 362.353 249.773 362.353 250.001V250.982C362.353 251.21 362.239 251.324 362.011 251.324H358.566C357.228 251.324 356.376 251.605 356.011 252.168C355.646 252.731 355.464 253.932 355.464 255.772C355.464 257.582 355.646 258.776 356.011 259.354C356.376 259.917 357.228 260.198 358.566 260.198H362.011C362.239 260.198 362.353 260.312 362.353 260.54V261.521C362.353 261.749 362.247 261.878 362.034 261.909C361.03 262.046 359.874 262.114 358.566 262.114C357.38 262.114 356.46 262.023 355.806 261.84C355.167 261.658 354.65 261.323 354.255 260.837C353.875 260.35 353.616 259.734 353.479 258.989C353.342 258.244 353.274 257.171 353.274 255.772C353.274 254.373 353.342 253.301 353.479 252.556C353.616 251.811 353.875 251.195 354.255 250.708C354.65 250.206 355.167 249.864 355.806 249.682C356.46 249.499 357.38 249.408 358.566 249.408ZM366.746 249.682C367.415 249.499 368.312 249.408 369.438 249.408C370.578 249.408 371.475 249.499 372.129 249.682C373.468 250.016 374.266 250.997 374.525 252.624C374.661 253.369 374.73 254.419 374.73 255.772C374.73 257.111 374.661 258.168 374.525 258.943C374.266 260.51 373.468 261.483 372.129 261.863C371.43 262.03 370.533 262.114 369.438 262.114C368.327 262.114 367.423 262.03 366.723 261.863C365.415 261.498 364.617 260.525 364.328 258.943C364.191 258.168 364.122 257.111 364.122 255.772C364.122 254.419 364.191 253.369 364.328 252.624C364.617 250.997 365.423 250.016 366.746 249.682ZM369.438 251.324C368.084 251.324 367.225 251.605 366.86 252.168C366.495 252.731 366.312 253.932 366.312 255.772C366.312 257.582 366.495 258.776 366.86 259.354C367.225 259.917 368.084 260.198 369.438 260.198C370.776 260.198 371.628 259.917 371.993 259.354C372.357 258.776 372.54 257.582 372.54 255.772C372.54 253.932 372.357 252.731 371.993 252.168C371.628 251.605 370.776 251.324 369.438 251.324ZM381.718 249.408C382.904 249.408 384.068 249.476 385.208 249.613C385.421 249.644 385.528 249.765 385.528 249.978V250.959C385.528 251.187 385.414 251.301 385.185 251.301H380.942C379.832 251.301 379.277 251.697 379.277 252.487V252.784C379.277 253.499 379.749 254.031 380.692 254.381L383.726 255.59C384.623 255.94 385.223 256.358 385.528 256.844C385.847 257.331 386.007 257.985 386.007 258.806V259.057C386.007 260.274 385.649 261.088 384.935 261.498C384.22 261.909 383.041 262.114 381.399 262.114C379.787 262.114 378.395 262.046 377.224 261.909C376.996 261.878 376.882 261.764 376.882 261.567V260.563C376.882 260.335 376.996 260.221 377.224 260.221H381.444C382.387 260.221 383.018 260.145 383.338 259.993C383.672 259.84 383.84 259.521 383.84 259.034V258.761C383.84 258.411 383.741 258.122 383.543 257.894C383.361 257.666 383.018 257.445 382.516 257.232L379.277 256C377.817 255.438 377.087 254.35 377.087 252.738V252.259C377.087 251.058 377.559 250.267 378.502 249.887C379.323 249.567 380.395 249.408 381.718 249.408ZM396.988 249.522H398.494C398.722 249.522 398.836 249.636 398.836 249.864V260.859C398.836 262.076 398.76 263.019 398.608 263.688C398.471 264.372 398.213 264.943 397.832 265.399C397.437 265.855 396.912 266.175 396.258 266.357C395.604 266.54 394.707 266.631 393.567 266.631C392.289 266.631 391.141 266.562 390.122 266.426C389.909 266.395 389.803 266.273 389.803 266.061V265.08C389.803 264.851 389.917 264.737 390.145 264.737H393.521C394.783 264.737 395.62 264.555 396.03 264.19C396.441 263.825 396.646 263.118 396.646 262.068V261.932C395.84 262.053 394.836 262.114 393.635 262.114C391.506 262.114 390.099 261.703 389.415 260.882C388.746 260.031 388.411 258.365 388.411 255.886V249.864C388.411 249.636 388.525 249.522 388.753 249.522H390.236C390.464 249.522 390.578 249.636 390.578 249.864V255.75C390.578 257.574 390.761 258.776 391.126 259.354C391.506 259.917 392.388 260.198 393.772 260.198C394.897 260.198 395.855 260.145 396.646 260.038V249.864C396.646 249.636 396.76 249.522 396.988 249.522ZM406.201 249.408C407.387 249.408 408.55 249.476 409.691 249.613C409.904 249.644 410.01 249.765 410.01 249.978V250.959C410.01 251.187 409.896 251.301 409.668 251.301H405.425C404.315 251.301 403.76 251.697 403.76 252.487V252.784C403.76 253.499 404.231 254.031 405.174 254.381L408.208 255.59C409.106 255.94 409.706 256.358 410.01 256.844C410.33 257.331 410.489 257.985 410.489 258.806V259.057C410.489 260.274 410.132 261.088 409.417 261.498C408.703 261.909 407.524 262.114 405.881 262.114C404.269 262.114 402.878 262.046 401.707 261.909C401.479 261.878 401.365 261.764 401.365 261.567V260.563C401.365 260.335 401.479 260.221 401.707 260.221H405.927C406.87 260.221 407.501 260.145 407.82 259.993C408.155 259.84 408.322 259.521 408.322 259.034V258.761C408.322 258.411 408.223 258.122 408.026 257.894C407.843 257.666 407.501 257.445 406.999 257.232L403.76 256C402.3 255.438 401.57 254.35 401.57 252.738V252.259C401.57 251.058 402.041 250.267 402.984 249.887C403.806 249.567 404.878 249.408 406.201 249.408ZM413.92 246.442L415.426 246.077C415.684 246.001 415.814 246.1 415.814 246.374V249.545H418.209C418.452 249.545 418.574 249.659 418.574 249.887V250.959C418.574 251.187 418.452 251.301 418.209 251.301H415.814V258.966C415.814 259.468 415.905 259.802 416.087 259.97C416.285 260.122 416.688 260.198 417.297 260.198H418.391C418.635 260.198 418.756 260.304 418.756 260.517V261.612C418.756 261.81 418.642 261.932 418.414 261.977C418.049 262.068 417.623 262.114 417.137 262.114C416.346 262.114 415.7 262.053 415.198 261.932C414.681 261.81 414.301 261.567 414.057 261.202C413.814 260.837 413.669 260.274 413.624 259.513V251.301H412.346C412.118 251.301 412.004 251.187 412.004 250.959V249.887C412.004 249.659 412.118 249.545 412.346 249.545H413.624V246.807C413.624 246.61 413.723 246.488 413.92 246.442ZM425.618 249.408C427.641 249.408 428.987 249.811 429.656 250.617C430.34 251.438 430.69 253.043 430.705 255.43V256.092C430.705 256.335 430.644 256.502 430.523 256.594C430.416 256.685 430.203 256.73 429.884 256.73H422.63C422.66 258.13 422.866 259.057 423.246 259.513C423.641 259.97 424.447 260.198 425.664 260.198H429.405C429.633 260.198 429.747 260.312 429.747 260.54V261.544C429.747 261.757 429.641 261.878 429.428 261.909C428.424 262.046 427.154 262.114 425.618 262.114C423.489 262.114 422.09 261.703 421.421 260.882C420.752 260.031 420.417 258.327 420.417 255.772C420.417 253.217 420.752 251.514 421.421 250.662C422.075 249.826 423.474 249.408 425.618 249.408ZM425.618 251.324C424.417 251.324 423.618 251.567 423.223 252.054C422.828 252.541 422.622 253.506 422.607 254.951H428.515C428.5 253.491 428.302 252.518 427.922 252.031C427.557 251.56 426.789 251.324 425.618 251.324ZM444.802 249.385C446.824 249.355 448.186 249.644 448.885 250.252C449.63 250.936 450.003 252.404 450.003 254.655L449.957 261.658C449.957 261.886 449.843 262 449.615 262H448.155C447.927 262 447.813 261.886 447.813 261.658V254.928C447.813 253.712 447.691 252.792 447.448 252.168C447.326 251.879 447.136 251.681 446.878 251.575C446.498 251.392 445.866 251.301 444.984 251.301C443.965 251.301 443.076 251.37 442.315 251.507C442.559 252.176 442.68 253.255 442.68 254.746L442.635 261.658C442.635 261.886 442.536 262 442.338 262H440.833C440.604 262 440.49 261.886 440.49 261.658V254.791C440.49 253.894 440.445 253.225 440.354 252.784C440.277 252.343 440.11 252.016 439.852 251.803C439.608 251.59 439.35 251.461 439.076 251.415C438.802 251.354 438.331 251.324 437.662 251.324H435.38V261.658C435.38 261.886 435.266 262 435.038 262H433.533C433.305 262 433.191 261.886 433.191 261.658V250.138C433.191 249.94 433.305 249.818 433.533 249.773C434.749 249.529 436.019 249.408 437.342 249.408C438.894 249.408 440.156 249.636 441.129 250.092C442.452 249.621 443.676 249.385 444.802 249.385Z" fill="url(#paint0_linear_386_1030)"/>
<defs>
<linearGradient id="paint0_linear_386_1030" x1="452.095" y1="220.703" x2="460.332" y2="261.258" gradientUnits="userSpaceOnUse">
<stop/>
<stop offset="1" stop-color="#A9A9A9"/>
</linearGradient>
</defs>
</svg>
