<svg width="1210" height="586" viewBox="0 0 1210 586" fill="none" xmlns="http://www.w3.org/2000/svg">
<g clip-path="url(#clip0_830_405)">
<path d="M831.473 402.481L674.754 365.601L643.6 497.985L800.319 534.865L831.473 402.481Z" stroke="url(#paint0_linear_830_405)"/>
<path d="M1002.5 11L991 53L1203 99.5M955.5 11C953.167 22 948.2 43.9 947 43.5C945.8 43.1 845.833 21.667 796 11M690 347L861 387L829 518M876.5 520.5L907 398.5L1203 467M1203 431.5L1025.5 390L1046.5 298L1203 335.5M1206 322L1051.5 282L1080.5 163.5L1209.5 195.5M1206 170L1085 141.5L1093 111L1206 135.5M694 21L805 47.5L758 220L648 191L694 21ZM687.5 220L752 235.5L729.5 322L666 304.5L687.5 220Z" stroke="url(#paint1_linear_830_405)"/>
<path d="M418 0.5L387.482 101.641L179.878 38.341M458.976 23.521C455.622 34.254 429.254 114.671 430.496 114.91C431.738 115.149 529.39 145.428 578.061 160.537L618.925 16M528 509.5L337.223 456.507L300.956 586.39M258.319 565.304L291.486 444.002L-0.12793 358.738M17.2604 327.788L192.338 378.548L219.092 288.054L64.2824 244.092M68.2796 230.853L222.57 271.656L255.329 154.14L127.19 118.852M142.976 97.899L262.182 132.755L270.147 102.246L159.63 68.257M661 223L551.247 191.734L508.82 361.362L618.925 389.959L661 223ZM570.283 395.894L506.458 377.814L483.706 464.248L547.639 480.094L570.283 395.894Z" stroke="url(#paint2_linear_830_405)"/>
<path d="M746 323L823 52.5L939 77.5L868.5 354L746 323Z" stroke="white"/>
<path d="M977 116L984.5 86L1076 107L1068.5 137L977 116Z" stroke="white"/>
<path d="M941.5 254.5L970.5 138L1066.5 159.5L1037 278L941.5 254.5Z" stroke="white"/>
<path d="M914.5 362.5L937.5 271L1033.5 294L1010.5 386L914.5 362.5Z" stroke="white"/>
<path d="M1001.51 405.778L1004.57 393.37L1007.1 393.993L1004.56 404.293L1010.84 405.841L1010.32 407.949L1001.51 405.778ZM1012.71 403.595C1012.9 402.798 1013.29 402.076 1013.87 401.427C1014.44 400.779 1015.14 400.347 1015.95 400.131C1016.77 399.917 1017.62 399.919 1018.51 400.138C1019.88 400.476 1020.9 401.199 1021.55 402.308C1022.21 403.412 1022.37 404.644 1022.03 406.003C1021.7 407.374 1020.97 408.403 1019.86 409.088C1018.76 409.77 1017.54 409.945 1016.19 409.614C1015.36 409.409 1014.61 409.026 1013.95 408.464C1013.29 407.903 1012.86 407.213 1012.64 406.394C1012.43 405.569 1012.45 404.636 1012.71 403.595ZM1015.13 404.329C1014.91 405.228 1014.96 405.969 1015.26 406.552C1015.57 407.135 1016.04 407.503 1016.67 407.658C1017.29 407.812 1017.87 407.702 1018.41 407.328C1018.96 406.955 1019.34 406.314 1019.57 405.404C1019.78 404.516 1019.74 403.781 1019.43 403.198C1019.13 402.616 1018.66 402.248 1018.04 402.094C1017.41 401.94 1016.83 402.049 1016.28 402.422C1015.74 402.794 1015.35 403.43 1015.13 404.329ZM1025.09 411.591L1022.69 411L1024.93 401.937L1027.16 402.486L1026.84 403.775C1027.37 403.26 1027.81 402.943 1028.16 402.824C1028.51 402.706 1028.88 402.695 1029.27 402.791C1029.82 402.925 1030.31 403.206 1030.74 403.632L1029.48 405.54C1029.14 405.179 1028.8 404.955 1028.45 404.87C1028.12 404.787 1027.81 404.811 1027.53 404.941C1027.25 405.065 1026.98 405.353 1026.73 405.802C1026.48 406.254 1026.16 407.25 1025.78 408.792L1025.09 411.591ZM1035.57 411.114L1037.86 412.104C1037.33 412.904 1036.68 413.453 1035.9 413.749C1035.13 414.042 1034.25 414.065 1033.25 413.82C1031.68 413.431 1030.64 412.629 1030.13 411.413C1029.74 410.44 1029.7 409.326 1030.01 408.068C1030.38 406.567 1031.06 405.489 1032.05 404.834C1033.05 404.175 1034.15 403.993 1035.35 404.289C1036.7 404.621 1037.65 405.33 1038.21 406.415C1038.77 407.495 1038.81 408.949 1038.32 410.778L1032.31 409.297C1032.15 410.013 1032.21 410.615 1032.48 411.104C1032.75 411.588 1033.17 411.898 1033.72 412.034C1034.09 412.127 1034.44 412.102 1034.74 411.96C1035.05 411.819 1035.32 411.536 1035.57 411.114ZM1036.3 408.724C1036.45 408.025 1036.4 407.455 1036.15 407.012C1035.9 406.564 1035.53 406.28 1035.04 406.159C1034.52 406.03 1034.04 406.114 1033.6 406.411C1033.17 406.708 1032.87 407.184 1032.72 407.84L1036.3 408.724ZM1041.39 405.996L1043.6 406.541L1043.3 407.778C1044.32 407.011 1045.38 406.763 1046.48 407.032C1047.06 407.175 1047.53 407.419 1047.9 407.763C1048.27 408.107 1048.53 408.555 1048.68 409.105C1049.2 408.72 1049.72 408.465 1050.24 408.339C1050.76 408.214 1051.28 408.216 1051.8 408.345C1052.47 408.509 1053 408.784 1053.39 409.171C1053.78 409.552 1054.03 410.032 1054.13 410.612C1054.2 411.039 1054.13 411.686 1053.91 412.55L1052.49 418.345L1050.09 417.753L1051.36 412.573C1051.59 411.675 1051.65 411.074 1051.55 410.772C1051.41 410.376 1051.11 410.121 1050.65 410.007C1050.31 409.924 1049.97 409.949 1049.63 410.081C1049.28 410.213 1048.99 410.462 1048.76 410.828C1048.53 411.188 1048.32 411.795 1048.11 412.648L1047.03 417L1044.63 416.409L1045.86 411.442C1046.08 410.561 1046.17 409.981 1046.15 409.704C1046.13 409.427 1046.04 409.204 1045.89 409.034C1045.75 408.865 1045.52 408.743 1045.21 408.667C1044.84 408.576 1044.49 408.593 1044.14 408.719C1043.8 408.846 1043.51 409.08 1043.29 409.424C1043.07 409.768 1042.85 410.376 1042.64 411.246L1041.55 415.649L1039.16 415.058L1041.39 405.996ZM1059.69 420.12L1062.77 407.61L1065.3 408.233L1062.21 420.743L1059.69 420.12ZM1066.78 412.255L1069.01 412.806L1068.68 414.137C1069.09 413.754 1069.57 413.481 1070.14 413.318C1070.7 413.156 1071.29 413.149 1071.89 413.298C1072.94 413.557 1073.73 414.19 1074.26 415.196C1074.79 416.201 1074.88 417.441 1074.51 418.915C1074.14 420.428 1073.48 421.514 1072.53 422.174C1071.59 422.828 1070.59 423.025 1069.54 422.766C1069.04 422.642 1068.6 422.43 1068.24 422.13C1067.89 421.832 1067.55 421.385 1067.22 420.791L1066.09 425.356L1063.69 424.765L1066.78 412.255ZM1068.07 417.217C1067.82 418.236 1067.84 419.039 1068.12 419.628C1068.4 420.211 1068.84 420.574 1069.42 420.717C1069.97 420.855 1070.49 420.747 1070.97 420.395C1071.45 420.036 1071.82 419.348 1072.07 418.33C1072.3 417.38 1072.29 416.627 1072.02 416.073C1071.75 415.518 1071.34 415.171 1070.77 415.032C1070.19 414.888 1069.64 414.995 1069.14 415.355C1068.65 415.709 1068.29 416.33 1068.07 417.217ZM1075.09 421.174L1077.58 421.401C1077.57 421.892 1077.69 422.299 1077.94 422.621C1078.2 422.937 1078.61 423.165 1079.17 423.303C1079.79 423.456 1080.29 423.458 1080.65 423.307C1080.9 423.2 1081.06 423.012 1081.13 422.745C1081.17 422.563 1081.15 422.398 1081.07 422.251C1080.98 422.107 1080.74 421.936 1080.34 421.737C1078.52 420.833 1077.39 420.142 1076.95 419.661C1076.36 418.995 1076.17 418.227 1076.38 417.357C1076.58 416.571 1077.05 415.988 1077.8 415.606C1078.55 415.224 1079.58 415.194 1080.88 415.515C1082.12 415.821 1082.99 416.25 1083.5 416.803C1084 417.355 1084.27 418.055 1084.3 418.902L1081.94 418.762C1081.93 418.386 1081.81 418.07 1081.58 417.815C1081.36 417.561 1081 417.373 1080.5 417.249C1079.87 417.094 1079.39 417.07 1079.08 417.179C1078.87 417.26 1078.73 417.399 1078.69 417.598C1078.64 417.769 1078.69 417.934 1078.82 418.093C1078.99 418.305 1079.68 418.714 1080.89 419.318C1082.09 419.924 1082.9 420.499 1083.3 421.045C1083.7 421.595 1083.8 422.252 1083.61 423.014C1083.41 423.845 1082.89 424.473 1082.04 424.899C1081.2 425.325 1080.1 425.371 1078.74 425.036C1077.51 424.731 1076.59 424.24 1075.99 423.561C1075.4 422.884 1075.1 422.088 1075.09 421.174ZM1090.99 427.837L1091.32 426.481C1090.87 426.883 1090.34 427.157 1089.74 427.302C1089.13 427.449 1088.53 427.449 1087.93 427.302C1087.33 427.152 1086.81 426.883 1086.39 426.497C1085.98 426.11 1085.72 425.648 1085.62 425.111C1085.53 424.575 1085.58 423.879 1085.79 423.026L1087.21 417.292L1089.6 417.883L1088.58 422.047C1088.26 423.321 1088.11 424.114 1088.13 424.425C1088.15 424.732 1088.25 425 1088.45 425.228C1088.64 425.45 1088.91 425.606 1089.27 425.694C1089.68 425.795 1090.08 425.775 1090.45 425.633C1090.84 425.485 1091.13 425.261 1091.33 424.961C1091.53 424.654 1091.79 423.853 1092.11 422.556L1093.05 418.733L1095.45 419.324L1093.22 428.386L1090.99 427.837ZM1097.76 419.894L1099.97 420.439L1099.67 421.676C1100.7 420.91 1101.76 420.661 1102.85 420.931C1103.43 421.074 1103.9 421.317 1104.27 421.661C1104.64 422.005 1104.9 422.453 1105.05 423.004C1105.57 422.618 1106.09 422.363 1106.61 422.238C1107.13 422.112 1107.65 422.114 1108.17 422.243C1108.84 422.407 1109.37 422.683 1109.76 423.07C1110.16 423.451 1110.4 423.931 1110.5 424.51C1110.57 424.938 1110.5 425.584 1110.29 426.449L1108.86 432.243L1106.46 431.652L1107.74 426.472C1107.96 425.573 1108.02 424.972 1107.92 424.67C1107.78 424.274 1107.48 424.019 1107.02 423.906C1106.68 423.823 1106.34 423.847 1106 423.979C1105.65 424.111 1105.36 424.36 1105.13 424.726C1104.91 425.086 1104.69 425.693 1104.48 426.546L1103.4 430.899L1101.01 430.307L1102.23 425.341C1102.45 424.459 1102.55 423.88 1102.52 423.603C1102.5 423.326 1102.42 423.102 1102.26 422.932C1102.12 422.763 1101.89 422.641 1101.58 422.565C1101.22 422.474 1100.86 422.492 1100.51 422.618C1100.17 422.744 1099.88 422.979 1099.66 423.322C1099.44 423.667 1099.23 424.274 1099.01 425.145L1097.93 429.548L1095.53 428.957L1097.76 419.894ZM1116.5 429.809L1119.02 430.176C1118.96 431.038 1119.11 431.717 1119.46 432.215C1119.82 432.714 1120.39 433.058 1121.16 433.247C1121.97 433.448 1122.62 433.428 1123.12 433.188C1123.62 432.943 1123.93 432.59 1124.04 432.13C1124.11 431.834 1124.09 431.562 1123.96 431.313C1123.84 431.061 1123.58 430.804 1123.19 430.544C1122.92 430.369 1122.29 430.021 1121.3 429.5C1120.03 428.83 1119.18 428.183 1118.76 427.559C1118.16 426.682 1117.98 425.748 1118.23 424.758C1118.38 424.121 1118.71 423.571 1119.2 423.107C1119.7 422.639 1120.33 422.344 1121.08 422.221C1121.83 422.099 1122.69 422.156 1123.65 422.393C1125.22 422.781 1126.32 423.416 1126.94 424.299C1127.56 425.184 1127.76 426.206 1127.51 427.365L1124.96 426.853C1125.01 426.183 1124.89 425.665 1124.6 425.298C1124.32 424.926 1123.82 424.653 1123.11 424.478C1122.38 424.297 1121.76 424.306 1121.27 424.505C1120.96 424.633 1120.76 424.858 1120.68 425.183C1120.61 425.479 1120.67 425.763 1120.87 426.035C1121.12 426.381 1121.83 426.85 1122.99 427.443C1124.14 428.036 1124.98 428.562 1125.48 429.019C1126 429.472 1126.36 430.01 1126.55 430.631C1126.76 431.249 1126.76 431.953 1126.57 432.744C1126.39 433.461 1126.03 434.083 1125.47 434.61C1124.92 435.138 1124.24 435.466 1123.44 435.593C1122.64 435.715 1121.69 435.642 1120.6 435.375C1119.02 434.985 1117.9 434.321 1117.23 433.384C1116.56 432.441 1116.32 431.249 1116.5 429.809ZM1134.17 428.869L1133.7 430.781L1132.06 430.377L1131.16 434.029C1130.97 434.769 1130.88 435.205 1130.88 435.337C1130.88 435.465 1130.93 435.582 1131.02 435.688C1131.11 435.796 1131.24 435.869 1131.4 435.909C1131.62 435.963 1131.96 435.966 1132.42 435.916L1132.17 437.827C1131.55 437.928 1130.89 437.892 1130.18 437.718C1129.75 437.611 1129.38 437.444 1129.07 437.216C1128.76 436.983 1128.55 436.732 1128.44 436.464C1128.34 436.191 1128.3 435.851 1128.34 435.443C1128.35 435.152 1128.47 434.582 1128.68 433.735L1129.65 429.784L1128.55 429.512L1129.02 427.601L1130.12 427.872L1130.57 426.071L1133.32 425.265L1132.53 428.465L1134.17 428.869ZM1133.6 438.342L1134.19 435.944L1136.59 436.535L1135.99 438.933L1133.6 438.342Z" fill="white"/>
<path d="M738.48 346.007L741.498 333.589L744.026 334.204L741.52 344.512L747.806 346.04L747.293 348.149L738.48 346.007ZM749.665 343.787C749.859 342.99 750.243 342.266 750.817 341.616C751.391 340.966 752.085 340.531 752.897 340.313C753.716 340.096 754.569 340.095 755.458 340.311C756.83 340.644 757.846 341.365 758.505 342.472C759.166 343.573 759.331 344.804 759.001 346.165C758.667 347.537 757.946 348.568 756.838 349.257C755.737 349.942 754.514 350.121 753.171 349.795C752.339 349.593 751.591 349.212 750.925 348.652C750.265 348.094 749.826 347.405 749.609 346.587C749.393 345.762 749.412 344.829 749.665 343.787ZM752.094 344.513C751.875 345.413 751.921 346.154 752.232 346.736C752.543 347.318 753.011 347.685 753.637 347.837C754.264 347.989 754.846 347.877 755.383 347.502C755.927 347.127 756.309 346.484 756.53 345.573C756.746 344.685 756.699 343.95 756.388 343.368C756.083 342.787 755.617 342.421 754.991 342.269C754.364 342.116 753.78 342.228 753.236 342.602C752.693 342.977 752.312 343.614 752.094 344.513ZM762.077 351.742L759.677 351.159L761.881 342.089L764.11 342.631L763.797 343.921C764.327 343.404 764.766 343.086 765.115 342.965C765.469 342.847 765.84 342.834 766.227 342.928C766.774 343.061 767.264 343.34 767.697 343.765L766.445 345.677C766.105 345.317 765.761 345.094 765.414 345.01C765.078 344.928 764.77 344.953 764.491 345.084C764.213 345.21 763.947 345.498 763.693 345.948C763.445 346.401 763.133 347.398 762.758 348.941L762.077 351.742ZM772.549 351.23L774.843 352.213C774.322 353.015 773.673 353.566 772.894 353.865C772.123 354.16 771.239 354.186 770.243 353.944C768.666 353.561 767.624 352.762 767.117 351.547C766.72 350.576 766.674 349.462 766.98 348.204C767.345 346.7 768.024 345.62 769.016 344.963C770.009 344.3 771.107 344.114 772.308 344.406C773.657 344.734 774.613 345.44 775.176 346.523C775.74 347.601 775.782 349.055 775.301 350.886L769.288 349.425C769.132 350.141 769.191 350.743 769.464 351.231C769.739 351.714 770.152 352.023 770.705 352.157C771.08 352.248 771.421 352.223 771.727 352.08C772.033 351.937 772.307 351.654 772.549 351.23ZM773.275 348.838C773.427 348.139 773.375 347.569 773.121 347.127C772.868 346.68 772.496 346.397 772.007 346.278C771.483 346.15 771.004 346.236 770.57 346.534C770.135 346.833 769.841 347.31 769.688 347.966L773.275 348.838ZM778.356 346.093L780.568 346.631L780.267 347.869C781.292 347.099 782.351 346.847 783.445 347.113C784.025 347.254 784.5 347.496 784.869 347.839C785.238 348.182 785.5 348.628 785.656 349.179C786.172 348.792 786.69 348.535 787.209 348.408C787.728 348.281 788.25 348.281 788.774 348.408C789.44 348.57 789.97 348.844 790.365 349.229C790.761 349.609 791.01 350.088 791.11 350.667C791.181 351.095 791.111 351.741 790.901 352.606L789.492 358.405L787.092 357.822L788.352 352.638C788.57 351.738 788.629 351.138 788.528 350.836C788.389 350.44 788.088 350.186 787.627 350.074C787.291 349.992 786.95 350.018 786.605 350.151C786.259 350.284 785.972 350.534 785.744 350.901C785.518 351.262 785.301 351.869 785.093 352.723L784.034 357.079L781.635 356.496L782.843 351.525C783.057 350.643 783.153 350.063 783.13 349.786C783.106 349.509 783.019 349.286 782.867 349.116C782.721 348.948 782.494 348.827 782.187 348.752C781.817 348.662 781.46 348.681 781.115 348.808C780.771 348.935 780.487 349.171 780.265 349.515C780.048 349.86 779.834 350.468 779.622 351.339L778.551 355.746L776.152 355.163L778.356 346.093ZM796.7 360.157L799.743 347.637L802.271 348.251L799.228 360.772L796.7 360.157ZM803.764 352.268L806.001 352.812L805.678 354.144C806.079 353.759 806.561 353.485 807.126 353.321C807.691 353.156 808.275 353.147 808.878 353.294C809.931 353.55 810.725 354.18 811.259 355.184C811.793 356.188 811.88 357.428 811.522 358.902C811.154 360.417 810.497 361.505 809.552 362.168C808.609 362.825 807.61 363.026 806.557 362.77C806.056 362.648 805.625 362.438 805.263 362.139C804.907 361.841 804.563 361.396 804.231 360.803L803.121 365.372L800.721 364.789L803.764 352.268ZM805.073 357.227C804.825 358.246 804.844 359.049 805.13 359.637C805.416 360.219 805.85 360.581 806.431 360.722C806.989 360.858 807.507 360.748 807.985 360.394C808.464 360.034 808.828 359.345 809.075 358.326C809.306 357.375 809.287 356.623 809.018 356.069C808.748 355.515 808.332 355.169 807.768 355.032C807.182 354.89 806.64 354.999 806.142 355.361C805.645 355.716 805.289 356.338 805.073 357.227ZM812.104 361.16L814.601 361.378C814.59 361.87 814.712 362.277 814.965 362.597C815.22 362.913 815.63 363.139 816.193 363.276C816.814 363.427 817.309 363.426 817.677 363.275C817.927 363.166 818.084 362.978 818.149 362.711C818.193 362.529 818.173 362.364 818.088 362.217C817.996 362.074 817.754 361.903 817.362 361.706C815.53 360.808 814.398 360.12 813.965 359.641C813.367 358.977 813.174 358.209 813.385 357.338C813.576 356.553 814.047 355.967 814.798 355.583C815.549 355.199 816.576 355.165 817.88 355.482C819.121 355.784 819.994 356.21 820.499 356.761C821.005 357.312 821.275 358.011 821.31 358.857L818.946 358.726C818.935 358.349 818.815 358.034 818.588 357.779C818.366 357.527 818.004 357.339 817.503 357.217C816.871 357.064 816.397 357.042 816.081 357.152C815.868 357.233 815.738 357.373 815.689 357.573C815.648 357.743 815.692 357.908 815.823 358.066C816 358.278 816.691 358.684 817.896 359.285C819.107 359.886 819.914 360.46 820.318 361.004C820.716 361.553 820.822 362.209 820.636 362.972C820.434 363.803 819.913 364.433 819.073 364.862C818.233 365.291 817.133 365.34 815.772 365.01C814.537 364.709 813.618 364.221 813.017 363.544C812.421 362.869 812.117 362.074 812.104 361.16ZM828.026 367.771L828.356 366.413C827.908 366.816 827.38 367.092 826.771 367.24C826.168 367.388 825.568 367.39 824.97 367.245C824.361 367.097 823.847 366.83 823.428 366.445C823.009 366.06 822.75 365.599 822.652 365.062C822.553 364.526 822.607 363.831 822.815 362.977L824.21 357.237L826.609 357.821L825.597 361.988C825.287 363.264 825.139 364.057 825.154 364.368C825.176 364.675 825.283 364.942 825.475 365.17C825.668 365.392 825.944 365.546 826.303 365.633C826.713 365.733 827.107 365.711 827.485 365.568C827.865 365.419 828.155 365.194 828.355 364.893C828.556 364.586 828.814 363.783 829.13 362.485L830.06 358.659L832.46 359.242L830.255 368.312L828.026 367.771ZM834.774 359.805L836.986 360.343L836.685 361.581C837.71 360.811 838.77 360.559 839.863 360.825C840.444 360.966 840.918 361.208 841.287 361.551C841.656 361.894 841.918 362.34 842.074 362.891C842.59 362.504 843.108 362.247 843.627 362.119C844.147 361.992 844.668 361.993 845.192 362.12C845.858 362.282 846.389 362.555 846.783 362.941C847.18 363.32 847.428 363.8 847.528 364.379C847.599 364.806 847.53 365.453 847.319 366.318L845.91 372.117L843.51 371.534L844.77 366.35C844.989 365.45 845.047 364.849 844.946 364.547C844.807 364.152 844.507 363.898 844.045 363.786C843.71 363.704 843.369 363.73 843.023 363.863C842.677 363.996 842.39 364.246 842.162 364.613C841.936 364.974 841.719 365.581 841.511 366.435L840.453 370.791L838.053 370.208L839.261 365.237C839.475 364.354 839.571 363.775 839.548 363.498C839.525 363.221 839.437 362.998 839.285 362.828C839.139 362.66 838.913 362.538 838.605 362.464C838.235 362.374 837.878 362.392 837.533 362.52C837.189 362.647 836.905 362.883 836.683 363.227C836.467 363.572 836.252 364.18 836.041 365.051L834.97 369.458L832.57 368.875L834.774 359.805ZM853.545 369.658L856.062 370.017C856.01 370.878 856.161 371.557 856.517 372.054C856.878 372.552 857.443 372.894 858.212 373.081C859.026 373.279 859.68 373.257 860.173 373.015C860.673 372.768 860.979 372.415 861.091 371.954C861.163 371.657 861.135 371.386 861.009 371.138C860.889 370.885 860.632 370.63 860.236 370.371C859.965 370.197 859.335 369.85 858.345 369.333C857.072 368.667 856.221 368.023 855.794 367.401C855.192 366.525 855.012 365.592 855.253 364.601C855.408 363.964 855.732 363.412 856.225 362.947C856.725 362.478 857.349 362.18 858.097 362.054C858.851 361.93 859.709 361.985 860.671 362.219C862.242 362.601 863.34 363.232 863.964 364.113C864.594 364.996 864.789 366.017 864.549 367.177L861.994 366.674C862.042 366.004 861.921 365.486 861.63 365.12C861.346 364.75 860.849 364.478 860.137 364.305C859.402 364.126 858.791 364.137 858.302 364.338C857.987 364.467 857.79 364.693 857.711 365.018C857.639 365.314 857.703 365.598 857.902 365.869C858.156 366.214 858.863 366.682 860.022 367.271C861.181 367.86 862.016 368.383 862.526 368.838C863.044 369.29 863.402 369.826 863.601 370.447C863.807 371.064 863.813 371.768 863.621 372.559C863.447 373.277 863.084 373.9 862.533 374.43C861.982 374.959 861.305 375.289 860.502 375.419C859.7 375.544 858.755 375.474 857.667 375.21C856.085 374.825 854.958 374.165 854.286 373.23C853.616 372.29 853.369 371.099 853.545 369.658ZM871.208 368.66L870.743 370.573L869.103 370.174L868.215 373.83C868.035 374.57 867.944 375.006 867.942 375.138C867.947 375.266 867.994 375.383 868.083 375.489C868.177 375.596 868.304 375.669 868.464 375.708C868.686 375.762 869.026 375.763 869.485 375.712L869.237 377.624C868.621 377.727 867.96 377.693 867.254 377.522C866.821 377.416 866.449 377.251 866.136 377.024C865.824 376.791 865.614 376.541 865.504 376.273C865.401 376.001 865.367 375.661 865.399 375.253C865.416 374.961 865.527 374.392 865.734 373.543L866.695 369.589L865.593 369.321L866.058 367.408L867.16 367.676L867.597 365.874L870.346 365.059L869.568 368.261L871.208 368.66ZM870.669 378.134L871.252 375.735L873.652 376.318L873.069 378.718L870.669 378.134Z" fill="white"/>
<path d="M475.66 153.253L479.351 141.018L481.842 141.77L478.778 151.926L484.971 153.794L484.344 155.873L475.66 153.253ZM486.95 151.647C487.187 150.861 487.61 150.16 488.219 149.541C488.827 148.923 489.544 148.527 490.367 148.354C491.196 148.182 492.049 148.227 492.924 148.491C494.276 148.899 495.251 149.674 495.849 150.815C496.449 151.951 496.546 153.189 496.142 154.53C495.734 155.882 494.958 156.872 493.814 157.5C492.677 158.124 491.446 158.236 490.123 157.837C489.304 157.589 488.577 157.168 487.942 156.573C487.314 155.979 486.913 155.268 486.741 154.439C486.571 153.604 486.64 152.673 486.95 151.647ZM489.335 152.504C489.068 153.39 489.074 154.133 489.352 154.731C489.631 155.329 490.078 155.721 490.696 155.907C491.313 156.093 491.9 156.013 492.457 155.667C493.02 155.323 493.437 154.702 493.708 153.805C493.972 152.93 493.964 152.193 493.686 151.595C493.413 150.998 492.968 150.607 492.351 150.421C491.734 150.235 491.144 150.314 490.581 150.658C490.018 151.002 489.603 151.618 489.335 152.504ZM498.909 160.267L496.545 159.554L499.241 150.618L501.437 151.28L501.054 152.551C501.611 152.064 502.067 151.77 502.421 151.669C502.782 151.57 503.153 151.578 503.534 151.693C504.073 151.855 504.547 152.16 504.956 152.608L503.602 154.449C503.282 154.071 502.951 153.83 502.608 153.727C502.277 153.627 501.969 153.635 501.683 153.751C501.399 153.861 501.118 154.134 500.839 154.57C500.566 155.008 500.201 155.987 499.742 157.507L498.909 160.267ZM509.393 160.327L511.63 161.434C511.067 162.206 510.388 162.721 509.595 162.977C508.809 163.229 507.925 163.208 506.943 162.911C505.389 162.443 504.392 161.588 503.953 160.348C503.609 159.356 503.624 158.241 503.998 157.001C504.445 155.52 505.182 154.479 506.208 153.876C507.236 153.269 508.342 153.143 509.525 153.5C510.855 153.901 511.771 154.658 512.274 155.771C512.778 156.878 512.74 158.332 512.16 160.134L506.236 158.347C506.042 159.053 506.067 159.657 506.313 160.16C506.561 160.657 506.957 160.988 507.501 161.152C507.872 161.264 508.213 161.257 508.527 161.131C508.84 161.005 509.129 160.737 509.393 160.327ZM510.249 157.978C510.439 157.289 510.419 156.717 510.189 156.262C509.96 155.801 509.605 155.498 509.123 155.353C508.606 155.197 508.123 155.256 507.673 155.53C507.224 155.805 506.904 156.265 506.715 156.912L510.249 157.978ZM515.472 155.515L517.652 156.172L517.284 157.392C518.349 156.68 519.421 156.486 520.498 156.811C521.07 156.983 521.531 157.251 521.881 157.613C522.23 157.976 522.468 158.436 522.593 158.994C523.13 158.636 523.661 158.408 524.186 158.309C524.712 158.211 525.232 158.239 525.748 158.395C526.405 158.593 526.919 158.895 527.293 159.301C527.667 159.702 527.889 160.194 527.958 160.778C528.005 161.209 527.901 161.85 527.643 162.703L525.92 168.416L523.555 167.703L525.096 162.595C525.364 161.709 525.455 161.112 525.37 160.805C525.253 160.403 524.967 160.133 524.513 159.996C524.182 159.896 523.84 159.903 523.487 160.017C523.135 160.131 522.834 160.365 522.587 160.718C522.341 161.067 522.091 161.661 521.838 162.503L520.543 166.794L518.178 166.081L519.656 161.184C519.918 160.314 520.045 159.74 520.037 159.463C520.029 159.185 519.954 158.957 519.812 158.78C519.675 158.604 519.456 158.47 519.153 158.379C518.788 158.269 518.43 158.268 518.079 158.376C517.728 158.484 517.432 158.704 517.192 159.036C516.957 159.369 516.71 159.964 516.451 160.822L515.141 165.164L512.776 164.451L515.472 155.515ZM533.021 170.559L536.743 158.223L539.234 158.975L535.512 171.31L533.021 170.559ZM540.505 163.067L542.71 163.732L542.314 165.045C542.735 164.683 543.232 164.435 543.805 164.302C544.378 164.168 544.961 164.191 545.556 164.371C546.594 164.684 547.352 165.356 547.83 166.388C548.308 167.42 548.328 168.662 547.89 170.115C547.44 171.607 546.725 172.658 545.745 173.269C544.767 173.873 543.759 174.019 542.721 173.706C542.228 173.557 541.808 173.323 541.464 173.005C541.125 172.689 540.806 172.225 540.506 171.615L539.148 176.116L536.784 175.403L540.505 163.067ZM541.542 168.09C541.239 169.094 541.214 169.897 541.467 170.5C541.721 171.097 542.135 171.482 542.707 171.654C543.256 171.82 543.78 171.739 544.276 171.412C544.775 171.079 545.175 170.41 545.478 169.406C545.761 168.469 545.783 167.717 545.544 167.149C545.305 166.581 544.908 166.213 544.353 166.046C543.775 165.872 543.228 165.951 542.711 166.285C542.196 166.613 541.806 167.215 541.542 168.09ZM548.348 172.401L550.83 172.755C550.792 173.246 550.891 173.658 551.127 173.992C551.364 174.321 551.76 174.569 552.316 174.737C552.927 174.921 553.421 174.948 553.797 174.817C554.052 174.722 554.219 174.543 554.299 174.279C554.353 174.1 554.342 173.934 554.265 173.783C554.181 173.635 553.949 173.452 553.568 173.233C551.788 172.237 550.695 171.488 550.289 170.986C549.728 170.29 549.577 169.513 549.836 168.655C550.069 167.881 550.572 167.322 551.342 166.979C552.113 166.637 553.14 166.659 554.425 167.047C555.648 167.416 556.496 167.889 556.971 168.467C557.445 169.044 557.677 169.757 557.666 170.604L555.312 170.344C555.322 169.967 555.22 169.646 555.006 169.379C554.798 169.115 554.448 168.908 553.954 168.759C553.331 168.571 552.859 168.524 552.537 168.616C552.321 168.685 552.183 168.818 552.123 169.015C552.073 169.183 552.108 169.35 552.23 169.515C552.395 169.736 553.063 170.179 554.234 170.845C555.41 171.512 556.184 172.128 556.558 172.694C556.925 173.263 556.995 173.924 556.768 174.676C556.521 175.495 555.967 176.095 555.105 176.478C554.242 176.86 553.141 176.849 551.8 176.445C550.583 176.078 549.693 175.54 549.129 174.831C548.571 174.124 548.311 173.314 548.348 172.401ZM563.886 179.871L564.289 178.533C563.82 178.912 563.277 179.158 562.662 179.272C562.051 179.388 561.452 179.357 560.863 179.179C560.263 178.998 559.764 178.704 559.367 178.296C558.969 177.889 558.736 177.414 558.667 176.873C558.597 176.332 558.69 175.641 558.943 174.799L560.649 169.145L563.014 169.858L561.775 173.965C561.396 175.221 561.205 176.005 561.203 176.317C561.208 176.624 561.3 176.897 561.48 177.134C561.661 177.366 561.928 177.536 562.281 177.642C562.685 177.764 563.08 177.764 563.466 177.642C563.853 177.514 564.155 177.305 564.371 177.015C564.588 176.72 564.89 175.933 565.276 174.654L566.413 170.884L568.778 171.597L566.082 180.533L563.886 179.871ZM571.058 172.285L573.237 172.943L572.869 174.163C573.935 173.45 575.007 173.256 576.084 173.581C576.656 173.754 577.117 174.021 577.466 174.384C577.816 174.746 578.053 175.207 578.179 175.765C578.715 175.406 579.246 175.178 579.772 175.079C580.297 174.981 580.818 175.01 581.334 175.165C581.99 175.363 582.505 175.665 582.878 176.072C583.253 176.473 583.475 176.965 583.544 177.549C583.591 177.979 583.486 178.621 583.229 179.473L581.505 185.187L579.141 184.473L580.682 179.366C580.949 178.48 581.041 177.883 580.956 177.576C580.839 177.173 580.553 176.903 580.098 176.766C579.767 176.666 579.426 176.673 579.073 176.787C578.72 176.901 578.42 177.135 578.173 177.489C577.927 177.837 577.677 178.432 577.423 179.273L576.129 183.565L573.764 182.851L575.242 177.954C575.504 177.084 575.631 176.511 575.623 176.233C575.615 175.955 575.54 175.728 575.398 175.55C575.261 175.374 575.041 175.24 574.738 175.149C574.374 175.039 574.016 175.038 573.665 175.147C573.314 175.255 573.018 175.475 572.778 175.806C572.542 176.139 572.295 176.735 572.036 177.593L570.727 181.935L568.362 181.221L571.058 172.285ZM589.263 183.148L591.757 183.644C591.658 184.501 591.772 185.187 592.1 185.703C592.434 186.219 592.979 186.592 593.736 186.821C594.539 187.063 595.192 187.076 595.698 186.861C596.211 186.643 596.536 186.306 596.673 185.852C596.761 185.56 596.748 185.287 596.635 185.033C596.53 184.774 596.286 184.505 595.906 184.225C595.645 184.036 595.034 183.656 594.074 183.085C592.839 182.351 592.025 181.662 591.632 181.017C591.079 180.11 590.95 179.168 591.245 178.192C591.434 177.564 591.788 177.031 592.305 176.593C592.83 176.152 593.47 175.889 594.223 175.804C594.983 175.721 595.837 175.823 596.785 176.109C598.333 176.576 599.395 177.266 599.969 178.18C600.55 179.096 600.689 180.126 600.386 181.271L597.863 180.629C597.947 179.963 597.855 179.44 597.584 179.058C597.321 178.673 596.839 178.374 596.137 178.163C595.414 177.944 594.802 177.922 594.303 178.096C593.982 178.207 593.773 178.422 593.677 178.742C593.589 179.034 593.637 179.321 593.821 179.603C594.056 179.961 594.736 180.466 595.861 181.118C596.986 181.769 597.791 182.337 598.276 182.82C598.768 183.299 599.096 183.854 599.261 184.485C599.433 185.112 599.401 185.815 599.166 186.595C598.953 187.302 598.557 187.904 597.978 188.403C597.399 188.902 596.705 189.194 595.895 189.28C595.088 189.361 594.148 189.24 593.077 188.917C591.517 188.446 590.428 187.726 589.809 186.755C589.191 185.78 589.009 184.577 589.263 183.148ZM606.954 183.115L606.385 185L604.77 184.513L603.683 188.114C603.463 188.843 603.349 189.274 603.34 189.406C603.338 189.534 603.378 189.653 603.461 189.764C603.55 189.876 603.672 189.956 603.829 190.003C604.048 190.069 604.388 190.089 604.849 190.063L604.497 191.958C603.876 192.028 603.218 191.958 602.523 191.748C602.096 191.619 601.733 191.433 601.433 191.19C601.135 190.941 600.939 190.68 600.844 190.406C600.756 190.129 600.74 189.787 600.795 189.381C600.827 189.091 600.969 188.528 601.222 187.693L602.397 183.797L601.312 183.469L601.88 181.584L602.966 181.912L603.501 180.136L606.291 179.472L605.339 182.628L606.954 183.115ZM605.899 192.546L606.612 190.182L608.977 190.895L608.263 193.26L605.899 192.546Z" fill="white"/>
<path d="M629.711 459.747L617.367 456.439L618.04 453.926L628.287 456.672L629.961 450.424L632.058 450.986L629.711 459.747ZM627.753 448.513C626.96 448.3 626.246 447.899 625.609 447.31C624.972 446.721 624.554 446.018 624.355 445.2C624.157 444.376 624.176 443.523 624.413 442.64C624.778 441.276 625.522 440.278 626.644 439.644C627.761 439.009 628.995 438.873 630.348 439.235C631.712 439.601 632.726 440.345 633.389 441.47C634.048 442.586 634.199 443.813 633.841 445.148C633.619 445.975 633.221 446.714 632.646 447.367C632.072 448.014 631.373 448.436 630.55 448.634C629.721 448.831 628.789 448.79 627.753 448.513ZM628.535 446.102C629.43 446.341 630.171 446.313 630.76 446.015C631.35 445.718 631.728 445.259 631.894 444.636C632.061 444.013 631.963 443.429 631.6 442.883C631.238 442.331 630.604 441.934 629.699 441.691C628.816 441.454 628.08 441.485 627.491 441.782C626.903 442.073 626.526 442.53 626.359 443.153C626.192 443.775 626.29 444.363 626.651 444.914C627.013 445.466 627.641 445.862 628.535 446.102ZM635.996 436.29L635.357 438.676L626.341 436.26L626.935 434.044L628.216 434.388C627.712 433.846 627.404 433.4 627.292 433.048C627.182 432.691 627.178 432.32 627.281 431.935C627.427 431.392 627.717 430.908 628.152 430.485L630.034 431.781C629.666 432.113 629.436 432.452 629.343 432.797C629.254 433.131 629.271 433.439 629.396 433.721C629.515 434.001 629.797 434.274 630.241 434.539C630.688 434.798 631.678 435.133 633.211 435.544L635.996 436.29ZM635.729 425.809L636.765 423.539C637.554 424.078 638.09 424.74 638.371 425.525C638.648 426.303 638.653 427.187 638.388 428.178C637.968 429.745 637.145 430.768 635.919 431.247C634.939 431.621 633.824 431.641 632.573 431.306C631.079 430.905 630.014 430.201 629.38 429.194C628.741 428.186 628.581 427.085 628.901 425.89C629.26 424.549 629.988 423.61 631.085 423.072C632.175 422.534 633.63 422.526 635.449 423.05L633.848 429.027C634.56 429.199 635.163 429.155 635.658 428.893C636.147 428.63 636.465 428.224 636.612 427.675C636.712 427.301 636.694 426.96 636.559 426.65C636.423 426.341 636.147 426.061 635.729 425.809ZM633.354 425.027C632.659 424.859 632.088 424.897 631.64 425.141C631.187 425.384 630.895 425.748 630.765 426.235C630.625 426.756 630.7 427.237 630.988 427.678C631.276 428.119 631.746 428.424 632.399 428.593L633.354 425.027ZM630.729 419.883L631.318 417.685L632.549 418.014C631.803 416.971 631.576 415.907 631.867 414.82C632.022 414.243 632.275 413.774 632.626 413.413C632.978 413.052 633.431 412.8 633.984 412.658C633.609 412.132 633.365 411.609 633.25 411.087C633.135 410.565 633.147 410.043 633.287 409.522C633.464 408.86 633.75 408.336 634.145 407.951C634.533 407.564 635.019 407.327 635.6 407.24C636.029 407.179 636.673 407.263 637.534 407.494L643.298 409.039L642.659 411.424L637.506 410.043C636.611 409.804 636.012 409.731 635.708 409.825C635.309 409.955 635.048 410.249 634.925 410.708C634.836 411.042 634.854 411.383 634.979 411.732C635.103 412.081 635.347 412.373 635.708 412.61C636.063 412.845 636.666 413.076 637.515 413.303L641.844 414.463L641.205 416.849L636.264 415.525C635.387 415.29 634.81 415.181 634.532 415.197C634.255 415.214 634.03 415.296 633.856 415.444C633.685 415.586 633.558 415.81 633.476 416.116C633.378 416.483 633.388 416.841 633.507 417.188C633.627 417.536 633.856 417.825 634.194 418.055C634.534 418.28 635.137 418.508 636.003 418.74L640.384 419.914L639.745 422.299L630.729 419.883ZM645.218 401.873L632.772 398.539L633.445 396.026L645.891 399.36L645.218 401.873ZM637.496 394.627L638.092 392.403L639.417 392.758C639.041 392.348 638.778 391.858 638.627 391.29C638.476 390.722 638.481 390.138 638.641 389.538C638.922 388.491 639.57 387.712 640.587 387.202C641.603 386.692 642.844 386.633 644.31 387.026C645.815 387.429 646.888 388.111 647.529 389.071C648.164 390.03 648.341 391.033 648.06 392.08C647.927 392.578 647.707 393.004 647.399 393.359C647.094 393.707 646.64 394.041 646.039 394.359L650.581 395.576L649.942 397.962L637.496 394.627ZM642.484 393.434C643.497 393.705 644.301 393.705 644.895 393.434C645.484 393.161 645.856 392.736 646.01 392.159C646.159 391.604 646.062 391.083 645.719 390.597C645.37 390.11 644.689 389.73 643.676 389.459C642.731 389.205 641.979 389.207 641.419 389.463C640.859 389.72 640.503 390.128 640.353 390.688C640.197 391.271 640.294 391.816 640.643 392.322C640.987 392.827 641.601 393.197 642.484 393.434ZM646.581 386.497L646.857 384.005C647.349 384.028 647.758 383.916 648.085 383.67C648.406 383.422 648.641 383.018 648.791 382.458C648.957 381.841 648.968 381.347 648.825 380.975C648.723 380.723 648.538 380.561 648.272 380.49C648.091 380.441 647.926 380.458 647.777 380.539C647.632 380.628 647.456 380.866 647.249 381.253C646.309 383.064 645.594 384.179 645.106 384.6C644.428 385.183 643.656 385.358 642.79 385.126C642.009 384.917 641.435 384.433 641.068 383.673C640.702 382.914 640.692 381.886 641.039 380.59C641.37 379.356 641.816 378.493 642.379 378.001C642.941 377.509 643.646 377.255 644.494 377.239L644.307 379.6C643.93 379.603 643.612 379.714 643.353 379.936C643.095 380.152 642.899 380.509 642.765 381.007C642.597 381.635 642.564 382.109 642.667 382.427C642.743 382.642 642.88 382.776 643.078 382.829C643.248 382.874 643.413 382.834 643.575 382.707C643.791 382.534 644.213 381.853 644.841 380.662C645.471 379.466 646.063 378.673 646.617 378.281C647.175 377.897 647.833 377.806 648.591 378.009C649.418 378.231 650.035 378.766 650.445 379.616C650.854 380.466 650.877 381.567 650.515 382.92C650.186 384.148 649.676 385.055 648.985 385.64C648.296 386.22 647.495 386.505 646.581 386.497ZM653.562 370.734L652.212 370.372C652.605 370.829 652.868 371.364 653.001 371.976C653.136 372.582 653.124 373.182 652.965 373.776C652.803 374.382 652.524 374.89 652.129 375.3C651.734 375.709 651.267 375.957 650.729 376.043C650.19 376.13 649.496 376.059 648.647 375.832L642.942 374.303L643.581 371.917L647.724 373.027C648.992 373.367 649.782 373.533 650.093 373.526C650.4 373.511 650.67 373.41 650.902 373.224C651.128 373.036 651.289 372.763 651.385 372.407C651.494 371.999 651.481 371.605 651.347 371.223C651.207 370.84 650.989 370.545 650.692 370.338C650.39 370.129 649.594 369.852 648.304 369.507L644.5 368.488L645.14 366.102L654.155 368.518L653.562 370.734ZM645.756 363.801L646.345 361.602L647.576 361.932C646.83 360.889 646.603 359.824 646.894 358.738C647.049 358.161 647.302 357.691 647.654 357.331C648.005 356.97 648.458 356.718 649.012 356.575C648.637 356.05 648.392 355.527 648.277 355.005C648.162 354.482 648.174 353.961 648.314 353.44C648.491 352.778 648.777 352.254 649.172 351.869C649.561 351.481 650.046 351.244 650.627 351.158C651.056 351.097 651.7 351.181 652.561 351.412L658.325 352.956L657.686 355.342L652.533 353.961C651.639 353.722 651.039 353.649 650.735 353.743C650.336 353.873 650.075 354.167 649.953 354.626C649.863 354.959 649.881 355.301 650.006 355.65C650.131 355.999 650.374 356.291 650.735 356.528C651.091 356.762 651.693 356.994 652.542 357.221L656.872 358.381L656.232 360.767L651.291 359.443C650.414 359.208 649.837 359.099 649.559 359.115C649.282 359.132 649.057 359.214 648.884 359.362C648.712 359.504 648.585 359.728 648.504 360.033C648.405 360.401 648.415 360.759 648.535 361.106C648.654 361.454 648.883 361.743 649.221 361.973C649.562 362.197 650.165 362.426 651.031 362.658L655.411 363.832L654.772 366.217L645.756 363.801ZM656.045 345.266L656.463 342.758C657.323 342.83 658.005 342.695 658.51 342.351C659.016 342.001 659.372 341.444 659.576 340.68C659.793 339.871 659.786 339.217 659.556 338.718C659.321 338.213 658.975 337.899 658.517 337.776C658.222 337.697 657.95 337.718 657.699 337.839C657.444 337.952 657.183 338.204 656.915 338.593C656.734 338.86 656.373 339.482 655.832 340.459C655.137 341.717 654.474 342.552 653.841 342.965C652.952 343.546 652.015 343.704 651.03 343.44C650.396 343.27 649.852 342.934 649.399 342.43C648.941 341.919 648.658 341.288 648.55 340.537C648.443 339.781 648.518 338.924 648.775 337.968C649.193 336.406 649.85 335.323 650.746 334.72C651.643 334.111 652.668 333.94 653.822 334.207L653.259 336.749C652.591 336.685 652.07 336.795 651.698 337.077C651.321 337.352 651.037 337.843 650.848 338.551C650.652 339.281 650.649 339.893 650.838 340.386C650.959 340.704 651.181 340.906 651.504 340.992C651.798 341.071 652.083 341.014 652.359 340.821C652.71 340.575 653.194 339.88 653.81 338.735C654.426 337.59 654.968 336.767 655.436 336.268C655.899 335.761 656.443 335.416 657.069 335.231C657.691 335.04 658.395 335.05 659.181 335.261C659.895 335.452 660.509 335.829 661.026 336.392C661.542 336.955 661.856 337.639 661.968 338.446C662.073 339.25 661.982 340.193 661.692 341.274C661.27 342.848 660.584 343.959 659.634 344.608C658.678 345.256 657.482 345.475 656.045 345.266ZM655.46 327.585L657.362 328.094L656.925 329.724L660.559 330.698C661.294 330.895 661.728 330.996 661.86 331.001C661.988 330.999 662.106 330.955 662.214 330.869C662.324 330.777 662.4 330.651 662.443 330.493C662.502 330.272 662.511 329.932 662.47 329.472L664.376 329.764C664.465 330.383 664.415 331.043 664.227 331.745C664.112 332.175 663.937 332.543 663.703 332.851C663.464 333.157 663.209 333.361 662.938 333.465C662.664 333.561 662.323 333.588 661.916 333.546C661.625 333.522 661.058 333.398 660.214 333.172L656.284 332.118L655.99 333.213L654.089 332.704L654.382 331.609L652.591 331.129L651.84 328.362L655.023 329.215L655.46 327.585ZM664.92 328.345L662.534 327.706L663.173 325.32L665.559 325.959L664.92 328.345Z" fill="white"/>
<path d="M1038.53 84.769L1041.63 72.37L1044.15 73L1041.58 83.292L1047.86 84.859L1047.33 86.965L1038.53 84.769ZM1049.73 82.617C1049.93 81.821 1050.32 81.1 1050.9 80.453C1051.48 79.806 1052.17 79.376 1052.99 79.163C1053.81 78.951 1054.66 78.955 1055.55 79.176C1056.92 79.518 1057.93 80.245 1058.58 81.356C1059.23 82.461 1059.39 83.693 1059.05 85.052C1058.71 86.422 1057.98 87.448 1056.87 88.131C1055.77 88.809 1054.54 88.981 1053.2 88.646C1052.37 88.439 1051.63 88.054 1050.96 87.49C1050.31 86.927 1049.87 86.236 1049.66 85.416C1049.45 84.591 1049.47 83.658 1049.73 82.617ZM1052.16 83.358C1051.93 84.256 1051.97 84.997 1052.28 85.581C1052.59 86.165 1053.05 86.535 1053.68 86.691C1054.31 86.847 1054.89 86.739 1055.43 86.367C1055.97 85.995 1056.36 85.355 1056.59 84.445C1056.81 83.559 1056.77 82.823 1056.46 82.239C1056.16 81.657 1055.69 81.287 1055.07 81.131C1054.44 80.975 1053.86 81.083 1053.31 81.454C1052.77 81.825 1052.38 82.46 1052.16 83.358ZM1062.1 90.648L1059.7 90.05L1061.96 80.994L1064.18 81.549L1063.86 82.837C1064.4 82.324 1064.84 82.008 1065.19 81.89C1065.54 81.773 1065.91 81.763 1066.3 81.86C1066.85 81.996 1067.33 82.278 1067.76 82.705L1066.5 84.609C1066.16 84.247 1065.82 84.023 1065.47 83.936C1065.14 83.853 1064.83 83.875 1064.55 84.005C1064.27 84.129 1064 84.415 1063.75 84.864C1063.5 85.315 1063.18 86.311 1062.79 87.851L1062.1 90.648ZM1072.57 90.2L1074.86 91.197C1074.33 91.996 1073.68 92.542 1072.9 92.837C1072.13 93.127 1071.24 93.148 1070.25 92.9C1068.67 92.507 1067.64 91.702 1067.14 90.484C1066.75 89.511 1066.71 88.396 1067.02 87.139C1067.39 85.639 1068.08 84.563 1069.08 83.911C1070.07 83.254 1071.17 83.075 1072.37 83.375C1073.72 83.711 1074.67 84.422 1075.23 85.509C1075.78 86.591 1075.82 88.045 1075.32 89.873L1069.32 88.375C1069.16 89.09 1069.22 89.692 1069.49 90.182C1069.76 90.667 1070.17 90.978 1070.72 91.116C1071.1 91.209 1071.44 91.186 1071.74 91.045C1072.05 90.904 1072.33 90.622 1072.57 90.2ZM1073.31 87.812C1073.47 87.115 1073.42 86.544 1073.17 86.101C1072.92 85.652 1072.55 85.366 1072.06 85.244C1071.54 85.114 1071.06 85.196 1070.62 85.492C1070.18 85.788 1069.89 86.264 1069.73 86.919L1073.31 87.812ZM1078.41 85.099L1080.62 85.65L1080.31 86.886C1081.34 86.123 1082.4 85.877 1083.49 86.149C1084.07 86.294 1084.54 86.539 1084.91 86.884C1085.28 87.229 1085.54 87.678 1085.69 88.229C1086.21 87.845 1086.73 87.591 1087.25 87.467C1087.77 87.343 1088.29 87.347 1088.81 87.477C1089.48 87.643 1090.01 87.92 1090.4 88.308C1090.79 88.69 1091.04 89.171 1091.13 89.751C1091.2 90.178 1091.13 90.824 1090.91 91.688L1089.47 97.479L1087.07 96.881L1088.36 91.705C1088.59 90.806 1088.65 90.206 1088.55 89.903C1088.41 89.507 1088.12 89.251 1087.66 89.136C1087.32 89.052 1086.98 89.076 1086.63 89.207C1086.29 89.338 1086 89.586 1085.77 89.951C1085.54 90.311 1085.32 90.917 1085.11 91.77L1084.02 96.119L1081.62 95.521L1082.86 90.558C1083.08 89.677 1083.18 89.098 1083.16 88.821C1083.14 88.543 1083.05 88.32 1082.9 88.149C1082.76 87.98 1082.53 87.857 1082.22 87.781C1081.85 87.689 1081.5 87.705 1081.15 87.83C1080.81 87.955 1080.52 88.189 1080.3 88.532C1080.08 88.876 1079.86 89.483 1079.64 90.353L1078.55 94.753L1076.15 94.155L1078.41 85.099ZM1096.67 99.275L1099.79 86.773L1102.31 87.403L1099.19 99.904L1096.67 99.275ZM1103.78 91.429L1106.01 91.987L1105.68 93.317C1106.08 92.934 1106.57 92.663 1107.13 92.502C1107.7 92.341 1108.28 92.336 1108.89 92.486C1109.94 92.749 1110.73 93.384 1111.26 94.391C1111.78 95.398 1111.86 96.638 1111.5 98.111C1111.12 99.623 1110.46 100.707 1109.51 101.364C1108.56 102.016 1107.56 102.21 1106.51 101.948C1106.01 101.823 1105.58 101.61 1105.22 101.309C1104.86 101.009 1104.52 100.561 1104.19 99.966L1103.06 104.528L1100.66 103.931L1103.78 91.429ZM1105.06 96.395C1104.8 97.413 1104.82 98.217 1105.1 98.806C1105.38 99.39 1105.81 99.754 1106.39 99.899C1106.95 100.038 1107.47 99.932 1107.95 99.581C1108.43 99.224 1108.8 98.537 1109.05 97.519C1109.29 96.57 1109.28 95.817 1109.01 95.262C1108.74 94.706 1108.33 94.358 1107.77 94.218C1107.18 94.072 1106.64 94.178 1106.14 94.536C1105.64 94.889 1105.28 95.508 1105.06 96.395ZM1112.06 100.372L1114.56 100.605C1114.55 101.097 1114.66 101.504 1114.92 101.827C1115.17 102.143 1115.58 102.372 1116.14 102.512C1116.76 102.667 1117.25 102.67 1117.62 102.52C1117.87 102.414 1118.03 102.227 1118.1 101.959C1118.14 101.778 1118.13 101.613 1118.04 101.465C1117.95 101.321 1117.71 101.15 1117.32 100.949C1115.49 100.041 1114.36 99.346 1113.93 98.864C1113.34 98.196 1113.15 97.428 1113.37 96.558C1113.56 95.773 1114.04 95.191 1114.79 94.811C1115.55 94.432 1116.57 94.404 1117.87 94.729C1119.11 95.038 1119.98 95.47 1120.49 96.024C1120.99 96.578 1121.25 97.278 1121.28 98.125L1118.92 97.979C1118.91 97.603 1118.79 97.287 1118.57 97.031C1118.35 96.777 1117.99 96.587 1117.49 96.462C1116.86 96.305 1116.38 96.28 1116.07 96.388C1115.85 96.468 1115.72 96.607 1115.67 96.806C1115.63 96.977 1115.67 97.142 1115.8 97.301C1115.98 97.514 1116.67 97.924 1117.87 98.532C1119.07 99.141 1119.88 99.719 1120.28 100.266C1120.67 100.817 1120.78 101.474 1120.58 102.236C1120.38 103.066 1119.85 103.692 1119.01 104.116C1118.17 104.54 1117.07 104.583 1115.71 104.244C1114.47 103.936 1113.56 103.442 1112.96 102.761C1112.37 102.082 1112.07 101.286 1112.06 100.372ZM1127.95 107.08L1128.28 105.724C1127.83 106.125 1127.3 106.397 1126.69 106.541C1126.09 106.686 1125.49 106.684 1124.89 106.535C1124.28 106.383 1123.77 106.114 1123.36 105.726C1122.94 105.338 1122.68 104.876 1122.59 104.339C1122.49 103.801 1122.55 103.106 1122.76 102.254L1124.19 96.523L1126.59 97.121L1125.55 101.283C1125.23 102.556 1125.08 103.348 1125.09 103.66C1125.11 103.967 1125.22 104.234 1125.41 104.463C1125.6 104.686 1125.88 104.842 1126.24 104.932C1126.64 105.034 1127.04 105.014 1127.42 104.874C1127.8 104.727 1128.09 104.504 1128.29 104.204C1128.49 103.898 1128.76 103.097 1129.08 101.801L1130.03 97.981L1132.43 98.579L1130.17 107.635L1127.95 107.08ZM1134.74 99.155L1136.95 99.706L1136.64 100.943C1137.67 100.179 1138.73 99.934 1139.82 100.206C1140.4 100.351 1140.88 100.596 1141.24 100.941C1141.61 101.286 1141.87 101.734 1142.02 102.286C1142.54 101.902 1143.06 101.648 1143.58 101.524C1144.1 101.4 1144.62 101.403 1145.15 101.534C1145.81 101.7 1146.34 101.977 1146.73 102.365C1147.13 102.747 1147.37 103.228 1147.47 103.807C1147.54 104.235 1147.46 104.881 1147.25 105.745L1145.8 111.535L1143.41 110.937L1144.7 105.761C1144.92 104.863 1144.98 104.263 1144.88 103.96C1144.75 103.563 1144.45 103.308 1143.99 103.193C1143.65 103.109 1143.31 103.133 1142.97 103.264C1142.62 103.395 1142.33 103.643 1142.1 104.008C1141.87 104.368 1141.65 104.974 1141.44 105.827L1140.35 110.176L1137.96 109.578L1139.2 104.615C1139.42 103.733 1139.51 103.154 1139.49 102.877C1139.47 102.6 1139.39 102.376 1139.23 102.206C1139.09 102.037 1138.86 101.914 1138.56 101.837C1138.19 101.745 1137.83 101.762 1137.48 101.887C1137.14 102.012 1136.85 102.246 1136.63 102.589C1136.41 102.933 1136.19 103.54 1135.98 104.409L1134.88 108.81L1132.48 108.212L1134.74 99.155ZM1153.45 109.123L1155.97 109.497C1155.91 110.358 1156.06 111.038 1156.41 111.537C1156.77 112.037 1157.33 112.383 1158.1 112.574C1158.91 112.777 1159.56 112.759 1160.06 112.52C1160.56 112.277 1160.87 111.925 1160.98 111.465C1161.06 111.169 1161.03 110.897 1160.91 110.648C1160.79 110.395 1160.53 110.138 1160.14 109.877C1159.87 109.701 1159.24 109.351 1158.25 108.827C1156.98 108.154 1156.14 107.505 1155.71 106.88C1155.12 106 1154.94 105.066 1155.19 104.077C1155.35 103.44 1155.68 102.891 1156.17 102.429C1156.68 101.962 1157.3 101.668 1158.05 101.547C1158.81 101.428 1159.66 101.488 1160.62 101.727C1162.19 102.119 1163.29 102.757 1163.91 103.642C1164.53 104.529 1164.72 105.551 1164.47 106.71L1161.92 106.191C1161.97 105.521 1161.85 105.003 1161.57 104.635C1161.28 104.262 1160.79 103.988 1160.08 103.81C1159.34 103.627 1158.73 103.635 1158.24 103.832C1157.93 103.959 1157.73 104.184 1157.65 104.508C1157.57 104.804 1157.64 105.088 1157.83 105.361C1158.08 105.708 1158.79 106.179 1159.94 106.775C1161.1 107.372 1161.93 107.899 1162.44 108.358C1162.95 108.813 1163.31 109.351 1163.5 109.974C1163.71 110.592 1163.71 111.296 1163.51 112.086C1163.33 112.802 1162.97 113.423 1162.41 113.95C1161.86 114.476 1161.18 114.801 1160.37 114.927C1159.57 115.046 1158.63 114.971 1157.54 114.7C1155.96 114.306 1154.84 113.639 1154.17 112.7C1153.51 111.755 1153.27 110.563 1153.45 109.123ZM1171.12 108.233L1170.64 110.143L1169.01 109.734L1168.1 113.384C1167.91 114.123 1167.82 114.559 1167.82 114.691C1167.82 114.819 1167.87 114.936 1167.95 115.043C1168.05 115.151 1168.17 115.225 1168.33 115.264C1168.56 115.32 1168.9 115.323 1169.35 115.274L1169.1 117.185C1168.48 117.284 1167.82 117.246 1167.11 117.07C1166.68 116.963 1166.31 116.794 1166 116.566C1165.69 116.331 1165.48 116.08 1165.37 115.811C1165.27 115.538 1165.24 115.198 1165.27 114.79C1165.29 114.499 1165.41 113.93 1165.62 113.083L1166.6 109.134L1165.5 108.86L1165.98 106.95L1167.08 107.224L1167.53 105.425L1170.28 104.626L1169.48 107.824L1171.12 108.233ZM1170.52 117.704L1171.12 115.308L1173.52 115.906L1172.92 118.302L1170.52 117.704Z" fill="white"/>
<path d="M927.211 249.747L914.867 246.439L915.54 243.926L925.787 246.672L927.461 240.424L929.558 240.986L927.211 249.747ZM925.253 238.513C924.46 238.3 923.746 237.9 923.109 237.31C922.472 236.721 922.054 236.018 921.855 235.2C921.657 234.377 921.676 233.523 921.913 232.64C922.278 231.276 923.022 230.278 924.144 229.644C925.261 229.009 926.495 228.873 927.848 229.235C929.212 229.601 930.226 230.346 930.889 231.47C931.548 232.587 931.699 233.813 931.341 235.149C931.119 235.975 930.721 236.714 930.146 237.367C929.572 238.014 928.873 238.436 928.05 238.634C927.221 238.831 926.289 238.79 925.253 238.513ZM926.035 236.102C926.93 236.341 927.671 236.313 928.26 236.016C928.85 235.718 929.228 235.259 929.394 234.636C929.561 234.014 929.463 233.429 929.1 232.883C928.738 232.331 928.104 231.934 927.199 231.691C926.316 231.455 925.58 231.485 924.991 231.782C924.403 232.073 924.026 232.53 923.859 233.153C923.692 233.775 923.79 234.363 924.151 234.915C924.513 235.466 925.141 235.862 926.035 236.102ZM933.496 226.29L932.857 228.676L923.841 226.26L924.435 224.044L925.716 224.388C925.212 223.846 924.904 223.4 924.792 223.048C924.682 222.691 924.678 222.32 924.781 221.935C924.927 221.392 925.217 220.908 925.652 220.485L927.534 221.781C927.166 222.113 926.936 222.452 926.843 222.797C926.754 223.131 926.771 223.439 926.896 223.721C927.015 224.002 927.297 224.274 927.741 224.539C928.188 224.798 929.178 225.133 930.711 225.544L933.496 226.29ZM933.229 215.809L934.265 213.539C935.054 214.078 935.59 214.74 935.871 215.525C936.148 216.303 936.153 217.187 935.888 218.178C935.468 219.746 934.645 220.769 933.419 221.247C932.439 221.621 931.324 221.641 930.073 221.306C928.579 220.905 927.514 220.202 926.88 219.195C926.241 218.186 926.081 217.085 926.401 215.891C926.76 214.549 927.488 213.61 928.585 213.073C929.675 212.534 931.13 212.526 932.949 213.05L931.348 219.027C932.06 219.199 932.663 219.155 933.158 218.893C933.647 218.63 933.965 218.224 934.112 217.675C934.212 217.301 934.194 216.96 934.059 216.65C933.923 216.341 933.647 216.061 933.229 215.809ZM930.854 215.027C930.159 214.859 929.588 214.897 929.14 215.141C928.687 215.384 928.395 215.749 928.265 216.235C928.125 216.756 928.2 217.237 928.488 217.678C928.776 218.119 929.246 218.424 929.899 218.593L930.854 215.027ZM928.229 209.884L928.818 207.685L930.049 208.015C929.303 206.972 929.076 205.907 929.367 204.82C929.522 204.243 929.775 203.774 930.126 203.413C930.478 203.052 930.931 202.8 931.484 202.658C931.109 202.133 930.865 201.609 930.75 201.087C930.635 200.565 930.647 200.043 930.787 199.523C930.964 198.86 931.25 198.337 931.645 197.951C932.033 197.564 932.519 197.327 933.1 197.24C933.529 197.179 934.173 197.264 935.034 197.494L940.798 199.039L940.159 201.424L935.006 200.043C934.111 199.804 933.512 199.731 933.208 199.826C932.809 199.955 932.548 200.249 932.425 200.708C932.336 201.042 932.354 201.383 932.479 201.732C932.603 202.081 932.847 202.374 933.208 202.61C933.563 202.845 934.166 203.076 935.015 203.303L939.344 204.463L938.705 206.849L933.764 205.525C932.887 205.29 932.31 205.181 932.032 205.198C931.755 205.214 931.53 205.296 931.356 205.444C931.185 205.586 931.058 205.81 930.976 206.116C930.878 206.484 930.888 206.841 931.007 207.189C931.127 207.536 931.356 207.825 931.694 208.055C932.034 208.28 932.637 208.508 933.503 208.74L937.884 209.914L937.245 212.299L928.229 209.884ZM942.718 191.873L930.272 188.539L930.945 186.026L943.391 189.361L942.718 191.873ZM934.996 184.627L935.592 182.403L936.917 182.758C936.541 182.348 936.278 181.859 936.127 181.29C935.976 180.722 935.981 180.138 936.141 179.538C936.422 178.491 937.07 177.712 938.087 177.202C939.103 176.692 940.344 176.633 941.81 177.026C943.315 177.43 944.388 178.111 945.029 179.072C945.664 180.03 945.841 181.033 945.56 182.08C945.427 182.578 945.207 183.004 944.899 183.359C944.594 183.708 944.14 184.041 943.539 184.359L948.081 185.576L947.442 187.962L934.996 184.627ZM939.984 183.434C940.997 183.705 941.801 183.705 942.395 183.434C942.984 183.161 943.356 182.736 943.51 182.159C943.659 181.604 943.562 181.084 943.219 180.597C942.87 180.11 942.189 179.73 941.176 179.459C940.231 179.205 939.479 179.207 938.919 179.463C938.359 179.72 938.003 180.128 937.853 180.688C937.697 181.271 937.794 181.816 938.143 182.322C938.487 182.827 939.101 183.197 939.984 183.434ZM944.081 176.497L944.357 174.005C944.849 174.028 945.258 173.916 945.585 173.67C945.906 173.422 946.141 173.018 946.291 172.458C946.457 171.841 946.468 171.347 946.325 170.975C946.223 170.723 946.038 170.561 945.772 170.49C945.591 170.442 945.426 170.458 945.277 170.539C945.132 170.628 944.956 170.866 944.749 171.253C943.809 173.064 943.094 174.18 942.606 174.601C941.928 175.183 941.156 175.359 940.29 175.127C939.509 174.917 938.935 174.433 938.568 173.673C938.202 172.914 938.192 171.886 938.539 170.59C938.87 169.356 939.316 168.493 939.879 168.001C940.441 167.509 941.146 167.255 941.994 167.239L941.807 169.6C941.43 169.603 941.112 169.715 940.853 169.936C940.595 170.152 940.399 170.509 940.265 171.007C940.097 171.635 940.064 172.109 940.167 172.428C940.243 172.642 940.38 172.776 940.578 172.829C940.748 172.874 940.913 172.834 941.075 172.707C941.291 172.535 941.713 171.853 942.341 170.663C942.971 169.467 943.563 168.673 944.117 168.281C944.675 167.897 945.333 167.806 946.091 168.01C946.918 168.231 947.535 168.767 947.945 169.616C948.354 170.466 948.377 171.567 948.015 172.92C947.686 174.148 947.176 175.055 946.485 175.64C945.796 176.22 944.995 176.505 944.081 176.497ZM951.062 160.734L949.712 160.372C950.105 160.829 950.368 161.364 950.501 161.976C950.636 162.582 950.624 163.182 950.465 163.777C950.303 164.382 950.024 164.89 949.629 165.3C949.234 165.709 948.767 165.957 948.229 166.044C947.69 166.13 946.996 166.059 946.147 165.832L940.442 164.303L941.081 161.917L945.224 163.028C946.492 163.367 947.282 163.533 947.593 163.526C947.9 163.511 948.17 163.41 948.402 163.224C948.628 163.036 948.789 162.763 948.885 162.407C948.994 161.999 948.981 161.605 948.847 161.223C948.707 160.84 948.489 160.545 948.192 160.338C947.89 160.13 947.094 159.853 945.804 159.507L942 158.488L942.64 156.102L951.655 158.518L951.062 160.734ZM943.256 153.801L943.845 151.603L945.076 151.932C944.33 150.889 944.103 149.825 944.394 148.738C944.549 148.161 944.802 147.692 945.154 147.331C945.505 146.97 945.958 146.718 946.512 146.576C946.137 146.05 945.892 145.527 945.777 145.005C945.662 144.483 945.674 143.961 945.814 143.44C945.991 142.778 946.277 142.254 946.672 141.869C947.061 141.482 947.546 141.245 948.127 141.158C948.556 141.097 949.2 141.181 950.061 141.412L955.825 142.956L955.186 145.342L950.033 143.961C949.139 143.722 948.539 143.649 948.235 143.743C947.836 143.873 947.575 144.167 947.453 144.626C947.363 144.96 947.381 145.301 947.506 145.65C947.631 145.999 947.874 146.291 948.235 146.528C948.591 146.763 949.193 146.994 950.042 147.221L954.372 148.381L953.732 150.767L948.791 149.443C947.914 149.208 947.337 149.099 947.059 149.115C946.782 149.132 946.557 149.214 946.384 149.362C946.212 149.504 946.085 149.728 946.004 150.034C945.905 150.401 945.915 150.759 946.035 151.106C946.154 151.454 946.383 151.743 946.721 151.973C947.062 152.198 947.665 152.426 948.531 152.658L952.911 153.832L952.272 156.217L943.256 153.801ZM953.545 135.267L953.963 132.758C954.823 132.831 955.505 132.695 956.01 132.351C956.516 132.001 956.872 131.444 957.076 130.68C957.293 129.871 957.286 129.217 957.056 128.719C956.821 128.213 956.475 127.899 956.017 127.776C955.722 127.697 955.45 127.718 955.199 127.839C954.944 127.953 954.683 128.204 954.415 128.593C954.234 128.86 953.873 129.482 953.332 130.46C952.637 131.717 951.974 132.552 951.341 132.965C950.452 133.546 949.515 133.704 948.53 133.44C947.896 133.27 947.352 132.934 946.899 132.43C946.441 131.919 946.158 131.288 946.05 130.538C945.943 129.781 946.018 128.925 946.275 127.968C946.693 126.406 947.35 125.323 948.246 124.72C949.143 124.111 950.168 123.94 951.322 124.207L950.759 126.749C950.091 126.686 949.57 126.795 949.198 127.077C948.821 127.352 948.537 127.843 948.348 128.551C948.152 129.281 948.149 129.893 948.338 130.386C948.459 130.704 948.681 130.906 949.004 130.992C949.298 131.071 949.583 131.014 949.859 130.821C950.21 130.576 950.694 129.88 951.31 128.735C951.926 127.59 952.468 126.767 952.936 126.268C953.399 125.761 953.943 125.416 954.569 125.232C955.191 125.04 955.895 125.05 956.681 125.261C957.395 125.452 958.009 125.829 958.526 126.392C959.042 126.955 959.356 127.639 959.468 128.446C959.573 129.251 959.482 130.194 959.192 131.275C958.77 132.848 958.084 133.959 957.134 134.608C956.178 135.256 954.982 135.475 953.545 135.267ZM952.96 117.585L954.862 118.094L954.425 119.724L958.059 120.698C958.794 120.895 959.228 120.996 959.36 121.001C959.488 120.999 959.606 120.955 959.714 120.869C959.824 120.777 959.9 120.651 959.943 120.493C960.002 120.272 960.011 119.932 959.97 119.472L961.876 119.764C961.965 120.383 961.915 121.043 961.727 121.745C961.612 122.175 961.437 122.544 961.203 122.851C960.964 123.157 960.709 123.361 960.438 123.465C960.164 123.561 959.823 123.588 959.416 123.546C959.125 123.522 958.558 123.398 957.714 123.172L953.784 122.118L953.49 123.214L951.589 122.704L951.882 121.609L950.091 121.129L949.34 118.362L952.523 119.215L952.96 117.585ZM962.42 118.345L960.034 117.706L960.673 115.32L963.059 115.96L962.42 118.345Z" fill="white"/>
<path d="M962.438 356.406C962.438 364.781 943.094 369.156 923.969 369.156C904.844 369.156 885.5 364.781 885.5 356.406C885.5 349.906 897.281 345.812 911.562 344.344L912.843 346.532L914.124 348.75L919.906 358.75C920.749 360.188 922.312 361.094 923.968 361.094C925.624 361.094 927.187 360.188 928.031 358.75L933.812 348.75L935.093 346.532L936.374 344.344C950.655 345.813 962.436 349.907 962.436 356.406H962.438ZM902.157 321.781C899.907 317.844 898.751 313.625 898.751 309.219C898.751 295.313 910.063 284 923.97 284C933.064 284 941.22 288.688 945.751 296.562C950.313 304.468 950.345 313.874 945.782 321.781L932.907 344.031L931.626 346.281L930.313 348.531L925.313 357.187C925.032 357.656 924.532 357.969 923.97 357.969C923.407 357.969 922.907 357.656 922.626 357.187L917.626 348.531L916.313 346.281L915.032 344.031L902.157 321.781ZM914.345 308.593C914.345 313.906 918.658 318.218 923.97 318.218C929.283 318.218 933.595 313.906 933.595 308.593C933.595 303.281 929.283 298.968 923.97 298.968C918.658 298.968 914.345 303.281 914.345 308.593Z" fill="white"/>
<path opacity="0.8" d="M359.036 269.428L248.207 238.724L284.525 107.63L395.387 141.834L359.036 269.428Z" stroke="white"/>
<path opacity="0.8" d="M455.456 465.944L332.596 431.907L411.02 148.824L533.387 186.334L455.456 465.944Z" stroke="white"/>
<path opacity="0.8" d="M351.353 286.318L240.527 255.615L202.616 392.461L313.441 423.164L351.353 286.318Z" stroke="white"/>
</g>
<defs>
<linearGradient id="paint0_linear_830_405" x1="753.376" y1="383.486" x2="721.993" y2="516.843" gradientUnits="userSpaceOnUse">
<stop stop-color="white"/>
<stop offset="1" stop-color="white" stop-opacity="0"/>
</linearGradient>
<linearGradient id="paint1_linear_830_405" x1="948.5" y1="11" x2="1200" y2="320" gradientUnits="userSpaceOnUse">
<stop offset="0.318685" stop-color="white"/>
<stop offset="1" stop-color="white" stop-opacity="0"/>
</linearGradient>
<linearGradient id="paint2_linear_830_405" x1="445.107" y1="85.841" x2="74.4896" y2="232.048" gradientUnits="userSpaceOnUse">
<stop offset="0.318685" stop-color="white"/>
<stop offset="1" stop-color="white" stop-opacity="0"/>
</linearGradient>
<clipPath id="clip0_830_405">
<rect width="1210" height="586" fill="white"/>
</clipPath>
</defs>
</svg>
