<svg width="22" height="22" viewBox="0 0 22 22" fill="none" xmlns="http://www.w3.org/2000/svg">
<path fill-rule="evenodd" clip-rule="evenodd" d="M20.5734 10.8354C20.5734 5.45721 16.2136 1.09707 10.8351 1.09707C5.45666 1.09707 1.0968 5.45694 1.0968 10.8354C1.0968 16.2139 5.45666 20.5737 10.8351 20.5737C16.2136 20.5737 20.5734 16.2136 20.5734 10.8354ZM11.2159 10.8354L7.58369 7.20348C7.23785 6.85763 7.48681 6.26715 7.97148 6.26715H11.0749C11.2264 6.26715 11.3634 6.32858 11.4627 6.4279L15.4824 10.4476C15.6964 10.6617 15.6964 11.0091 15.4824 11.2235L11.4629 15.2432C11.3558 15.3503 11.2153 15.4039 11.0752 15.4039H7.97175C7.48221 15.4039 7.24109 14.8102 7.58396 14.4673L11.2159 10.8354ZM9.29614 7.36422H10.8481L14.319 10.8354L10.8478 14.3066H9.29587L12.3792 11.2232C12.5936 11.0091 12.5936 10.6614 12.3792 10.4473L9.29614 7.36422ZM18.497 3.17349C22.7286 7.40509 22.7286 14.2654 18.497 18.497C14.2654 22.7286 7.40509 22.7286 3.17349 18.497C-1.05783 14.2657 -1.05783 7.40482 3.17349 3.17349C7.40482 -1.05783 14.2654 -1.05783 18.497 3.17349Z" fill="#55097B"/>
<path d="M11.4462 6.99414H8.90252L11.4462 10.8096L8.2666 15.2611H10.8103L15.2617 10.8096L11.4462 6.99414Z" fill="#55097B"/>
</svg>
