<svg version="1.2" xmlns="http://www.w3.org/2000/svg" viewBox="0 0 23 22" width="16" height="15">
	<title>btn-arrow</title>
	<style>
		.s0 { fill: #ffffff } 
	</style>
	<path fill-rule="evenodd" class="s0" d="m19 3.2c4.2 4.2 4.2 11.1 0 15.3-4.2 4.2-11.1 4.2-15.3 0-4.2-4.2-4.2-11.1 0-15.3 4.2-4.3 11.1-4.3 15.3 0zm2.1 7.6c0-5.3-4.4-9.7-9.7-9.7-5.4 0-9.8 4.4-9.8 9.7 0 5.4 4.4 9.8 9.8 9.8 5.3 0 9.7-4.4 9.7-9.8zm-9.4 0l-3.6-3.6c-0.3-0.3-0.1-0.9 0.4-0.9h3.1q0.2 0 0.4 0.1l4 4c0.2 0.3 0.2 0.6 0 0.8l-4 4q-0.2 0.2-0.4 0.2h-3.1c-0.5 0-0.7-0.6-0.4-0.9zm1.2-0.4c0.2 0.2 0.2 0.5 0 0.8l-3.1 3h1.5l3.5-3.4-3.5-3.5h-1.5z"/>
	<path class="s0" d="m12 7h-2.6l2.6 3.8-3.2 4.5h2.5l4.5-4.5z"/>
</svg>