<svg version="1.2" xmlns="http://www.w3.org/2000/svg" viewBox="0 0 23 22" width="16" height="15">
	<title>toggle-arrow</title>
	<style>
		.s0 { fill: #ffffff } 
	</style>
	<path fill-rule="evenodd" class="s0" d="m19.4 18.5c-4.2 4.2-11.1 4.2-15.3 0-4.3-4.2-4.3-11.1 0-15.3 4.2-4.3 11.1-4.3 15.3 0 4.2 4.2 4.2 11.1 0 15.3zm-7.7 2.1c5.4 0 9.8-4.4 9.8-9.8 0-5.3-4.4-9.7-9.8-9.7-5.3 0-9.7 4.4-9.7 9.7 0 5.4 4.4 9.8 9.7 9.8zm0-9.4l3.7-3.6c0.3-0.4 0.9-0.1 0.9 0.4v3.1q0 0.2-0.2 0.4l-4 4c-0.2 0.2-0.5 0.2-0.8 0l-4-4q-0.1-0.2-0.1-0.4v-3.1c0-0.5 0.6-0.8 0.9-0.4zm0.4 1.1c-0.2 0.3-0.6 0.3-0.8 0l-3.1-3v1.5l3.5 3.5 3.5-3.5v-1.5z"/>
	<path class="s0" d="m15.6 11.4v-2.5l-3.8 2.5-4.5-3.1v2.5l4.5 4.5z"/>
</svg>