<svg width="63" height="44" viewBox="0 0 63 44" fill="none" xmlns="http://www.w3.org/2000/svg">
<path fill-rule="evenodd" clip-rule="evenodd" d="M34.7839 38.8277L34.965 42.4777H39.6638C40.089 42.4777 40.4329 42.818 40.4329 43.2388C40.4329 43.6597 40.089 44 39.6638 44L16.4167 43.9974C15.9914 43.9974 15.6476 43.6571 15.6476 43.2362C15.6476 42.8154 15.9915 42.4751 16.4167 42.4751H21.1154L21.2966 38.8251L2.90061 38.8277C2.10261 38.8277 1.37551 38.5055 0.85048 37.986C0.325482 37.4638 0 36.7468 0 35.957V2.87064C0 2.08089 0.325502 1.3613 0.85048 0.841692C1.37546 0.322085 2.09999 0 2.90061 0H53.1822C53.9802 0 54.7073 0.322139 55.2323 0.841692C55.7574 1.36124 56.0828 2.08089 56.0828 2.87064V11.3035C56.0828 11.7244 55.7389 12.0647 55.3137 12.0647C54.8885 12.0647 54.5446 11.7243 54.5446 11.3035V2.87064C54.5446 2.49914 54.3924 2.16142 54.143 1.91722C53.8962 1.67301 53.555 1.51974 53.1796 1.51974H2.90071C2.52533 1.51974 2.18409 1.67041 1.93733 1.91722C1.69058 2.16142 1.5357 2.49914 1.5357 2.87064V30.9745H54.5449V30.3354C54.5449 29.9145 54.8888 29.5742 55.314 29.5742C55.7393 29.5742 56.0831 29.9146 56.0831 30.3354V35.9571C56.0831 36.7469 55.7576 37.4665 55.2326 37.9861C54.7077 38.5057 53.9805 38.8278 53.1825 38.8278L34.7839 38.8277ZM14.4425 33.7437C13.7968 33.7437 13.2744 34.2607 13.2744 34.8997C13.2744 35.5388 13.7968 36.0558 14.4425 36.0558C15.0883 36.0558 15.6107 35.5388 15.6107 34.8997C15.6107 34.2633 15.0883 33.7437 14.4425 33.7437ZM5.51505 33.7437C4.8693 33.7437 4.34691 34.2607 4.34691 34.8997C4.34691 35.5388 4.86928 36.0558 5.51505 36.0558C6.1608 36.0558 6.68318 35.5388 6.68318 34.8997C6.68056 34.2633 6.15818 33.7437 5.51505 33.7437ZM9.97752 33.7437C9.33177 33.7437 8.80938 34.2607 8.80938 34.8997C8.80938 35.5388 9.33175 36.0558 9.97752 36.0558C10.6233 36.0558 11.1457 35.5388 11.1457 34.8997C11.1457 34.2633 10.6233 33.7437 9.97752 33.7437ZM56.6343 19.4397L57.2722 18.8084C57.9967 18.0914 58.359 17.1484 58.359 16.2053H58.3563C58.3563 15.2597 57.9941 14.3167 57.2722 13.6023C56.5477 12.8853 55.5948 12.5267 54.6419 12.5267C53.689 12.5267 52.7362 12.8852 52.0117 13.6023L45.4754 20.071C44.7509 20.788 44.3887 21.731 44.3887 22.6741C44.3887 23.6171 44.7509 24.5601 45.4754 25.2771C46.1973 25.9915 47.1502 26.3501 48.1057 26.3501V26.3527C49.0586 26.3527 50.0114 25.9942 50.736 25.2771L51.3738 24.6459L56.6527 29.8702C57.3772 30.5872 58.3301 30.9457 59.283 30.9457C60.2359 30.9457 61.1887 30.5872 61.9132 29.8702C62.6377 29.1532 63 28.2101 63 27.2671C63 26.3241 62.6377 25.3811 61.9132 24.664L56.6343 19.4397ZM51.9173 23.0325L57.7395 28.7946C58.1621 29.2155 58.7239 29.4233 59.283 29.4233C59.8422 29.4233 60.4039 29.2129 60.8265 28.7946C61.2491 28.3764 61.4618 27.8204 61.4618 27.2671C61.4618 26.7111 61.2491 26.1577 60.8265 25.7395L55.0043 19.9774C54.705 19.6812 54.705 19.2006 55.0043 18.9019L56.1855 17.7328C56.6108 17.3146 56.8208 16.7587 56.8208 16.2053H56.8234C56.8234 15.6519 56.6108 15.0986 56.1855 14.6777C55.7629 14.2595 55.2012 14.049 54.642 14.049C54.0828 14.049 53.5211 14.2595 53.0985 14.6777L46.5622 21.1464C46.1396 21.5647 45.927 22.1206 45.927 22.674C45.927 23.2274 46.1396 23.7833 46.5622 24.2016C46.9875 24.6224 47.5466 24.8328 48.1057 24.8328V24.8302C48.6649 24.8302 49.2266 24.6198 49.6493 24.2016L50.8305 23.0325C51.1297 22.7338 51.618 22.7338 51.9173 23.0325ZM39.6714 17.4653C39.4247 16.1456 39.5061 14.7869 39.9077 13.5114C40.2962 12.2696 40.9892 11.1083 41.9709 10.1342C42.9526 9.16257 44.1286 8.4767 45.3834 8.09224C46.6723 7.69476 48.0451 7.61423 49.3786 7.85843C49.7934 7.93377 50.1923 7.66099 50.2685 7.25053C50.3446 6.84007 50.069 6.44262 49.6542 6.36987C48.0766 6.08151 46.4544 6.17763 44.9319 6.64524C43.4382 7.10506 42.0444 7.91563 40.8842 9.06125C39.7239 10.2095 38.9049 11.589 38.443 13.0671C37.9705 14.5739 37.8733 16.1794 38.1647 17.7407C38.2408 18.1511 38.6398 18.4239 39.0546 18.3486C39.4746 18.2732 39.7475 17.8783 39.6714 17.4653ZM43.4803 17.4133C43.2756 16.6002 43.2939 15.7611 43.5118 14.9791C43.7297 14.2023 44.1497 13.4776 44.7508 12.8827C45.352 12.2878 46.0844 11.8721 46.8692 11.6564C47.6593 11.4408 48.5046 11.4226 49.3288 11.6253C49.741 11.724 50.1557 11.4772 50.2554 11.0693C50.3552 10.6615 50.1058 10.251 49.6937 10.1523C48.6148 9.8873 47.5018 9.90808 46.4597 10.1938C45.4176 10.4796 44.449 11.0278 43.6614 11.8071C42.8739 12.5865 42.3227 13.5451 42.0313 14.5765C41.7426 15.6078 41.7189 16.7093 41.9867 17.777C42.0864 18.1849 42.5038 18.4317 42.9133 18.333C43.3307 18.2317 43.5801 17.8212 43.4803 17.4133ZM30.1398 17.125C29.1135 17.5744 28.0529 17.9511 26.9688 18.2499C25.8925 18.546 24.7874 18.772 23.6639 18.9149C23.2439 18.9669 22.9473 19.3462 22.9998 19.7618C23.0523 20.1774 23.4355 20.471 23.8555 20.419C25.063 20.2658 26.2364 20.0268 27.3756 19.7124C28.5464 19.3903 29.6751 18.9876 30.7566 18.5148C31.1451 18.3459 31.321 17.8965 31.1503 17.5146C30.9797 17.1301 30.5257 16.9561 30.1398 17.125ZM21.7607 19.0838C21.5454 19.0942 21.3459 19.1019 21.1674 19.1071C21.0467 19.1097 20.8498 19.1123 20.5768 19.1123C19.6922 19.1123 18.8285 19.0656 17.9885 18.9747C17.138 18.8837 16.2902 18.7434 15.4476 18.5616C15.0328 18.4707 14.6233 18.7305 14.5314 19.1409C14.4396 19.5514 14.7021 19.9567 15.1168 20.0476C15.9936 20.2398 16.8965 20.3853 17.8258 20.484C18.7393 20.5827 19.6554 20.6321 20.5741 20.6321C20.7053 20.6321 20.918 20.6295 21.2015 20.6217C21.4298 20.6165 21.6398 20.6087 21.8315 20.5983C22.2541 20.5802 22.5796 20.2242 22.5612 19.806C22.5428 19.3851 22.1833 19.0629 21.7607 19.0838ZM13.5993 18.0784C14.0035 18.2005 14.2319 18.6266 14.1059 19.0266C13.9825 19.4267 13.552 19.6527 13.1477 19.528C12.3576 19.289 11.5911 19.0136 10.8509 18.7071C10.3259 18.4889 9.8061 18.2551 9.29948 18.0031L7.54072 21.0192C9.39134 22.0558 11.3784 22.8793 13.4653 23.4534C15.7228 24.0743 18.109 24.4069 20.5764 24.4069C23.0465 24.4069 25.43 24.0743 27.6875 23.4534C29.7744 22.8793 31.7615 22.0558 33.6121 21.0192L29.2546 13.548C29.2467 13.535 29.2388 13.522 29.231 13.509L28.769 12.7193C28.3988 12.8933 28.0208 13.057 27.6402 13.2077C27.026 13.4493 26.4039 13.6597 25.7791 13.8338C25.3722 13.9455 24.947 13.7117 24.8342 13.309C24.7213 12.9063 24.9575 12.4855 25.3644 12.3738C25.9576 12.2075 26.5273 12.0179 27.0759 11.7997C27.3883 11.6776 27.698 11.5451 28.0025 11.4048L25.8028 7.63268C25.0993 7.93144 24.3643 8.17564 23.6005 8.35227C22.6266 8.57828 21.6134 8.69779 20.5765 8.69779C19.5396 8.69779 18.5264 8.57828 17.5525 8.35227C16.7913 8.17562 16.0536 7.93401 15.3502 7.63268L11.9219 13.5116H11.9193L10.066 16.6888C10.5149 16.9096 10.9717 17.1148 11.4389 17.3071C12.1477 17.6006 12.8669 17.8576 13.5993 18.0784ZM8.31513 16.6626L5.86341 20.8659C5.85554 20.8789 5.84766 20.8919 5.83716 20.9049C5.61929 21.2634 5.73479 21.731 6.09704 21.9466C8.24165 23.2274 10.5779 24.2353 13.0536 24.9159C15.4528 25.5758 17.9754 25.9291 20.5739 25.9291C23.1726 25.9291 25.6953 25.5758 28.0942 24.9159C30.5722 24.2353 32.9085 23.2273 35.0507 21.9466C35.413 21.731 35.5311 21.2634 35.3106 20.9049C35.3027 20.8919 35.2949 20.8789 35.2844 20.8659L30.5751 12.7942C30.5673 12.7812 30.5594 12.7656 30.5515 12.7526L26.7952 6.31248C26.6036 5.94098 26.1468 5.78771 25.7688 5.97476C24.9735 6.36703 24.1282 6.671 23.2488 6.87624C22.3931 7.07627 21.498 7.18019 20.574 7.18019C19.6526 7.18019 18.7549 7.07367 17.8991 6.87624C17.0171 6.67101 16.1718 6.36706 15.3791 5.97476C15.0011 5.78771 14.5417 5.93839 14.3527 6.31248L10.5964 12.7526H10.599L8.36779 16.5792C8.35467 16.6 8.34154 16.6208 8.33104 16.6416C8.32317 16.6468 8.31775 16.6548 8.31513 16.6626ZM23.4143 12.7995C22.9601 12.8723 22.4903 12.9294 22.0046 12.9684C21.54 13.0048 21.0623 13.0256 20.5766 13.0256C19.965 13.0256 19.377 12.997 18.81 12.9398C18.2167 12.8801 17.6366 12.7943 17.0697 12.6826C16.9332 12.6567 16.7441 12.6125 16.4974 12.5553C16.2507 12.4982 16.0617 12.4514 15.9278 12.4151C15.7545 12.3683 15.5655 12.3137 15.3582 12.2514C15.1665 12.1942 14.9802 12.1319 14.7964 12.0695C14.3974 11.9319 13.9616 12.1397 13.8225 12.5346C13.6834 12.9294 13.8934 13.3607 14.2924 13.4984C14.4972 13.5685 14.7019 13.636 14.9067 13.6984C15.093 13.7555 15.2978 13.8153 15.5235 13.875C15.7808 13.9452 15.9882 13.9971 16.143 14.0335C16.2953 14.0699 16.5027 14.114 16.7678 14.166C17.3925 14.2907 18.0225 14.3868 18.6578 14.4492C19.3035 14.5141 19.9414 14.5453 20.5741 14.5453C21.0912 14.5453 21.6057 14.5245 22.1228 14.4829C22.6294 14.444 23.1413 14.3816 23.6585 14.2985C24.0758 14.2309 24.3594 13.8413 24.2911 13.4282C24.2255 13.0125 23.8316 12.732 23.4143 12.7995ZM1.53467 32.4938V35.9567C1.53467 36.3282 1.68692 36.6659 1.9363 36.9101C2.18305 37.1543 2.52429 37.3076 2.89967 37.3076H53.1813C53.5566 37.3076 53.8979 37.1569 54.1446 36.9101C54.3914 36.6659 54.5463 36.3282 54.5463 35.9567L54.5436 32.4938H1.53467ZM33.2496 38.8273H22.831L22.6498 42.4773H33.428L33.2496 38.8273Z" fill="black"/>
<path fill-rule="evenodd" clip-rule="evenodd" d="M34.7839 38.8277L34.965 42.4777H39.6638C40.089 42.4777 40.4329 42.818 40.4329 43.2388C40.4329 43.6597 40.089 44 39.6638 44L16.4167 43.9974C15.9914 43.9974 15.6476 43.6571 15.6476 43.2362C15.6476 42.8154 15.9915 42.4751 16.4167 42.4751H21.1154L21.2966 38.8251L2.90061 38.8277C2.10261 38.8277 1.37551 38.5055 0.85048 37.986C0.325482 37.4638 0 36.7468 0 35.957V2.87064C0 2.08089 0.325502 1.3613 0.85048 0.841692C1.37546 0.322085 2.09999 0 2.90061 0H53.1822C53.9802 0 54.7073 0.322139 55.2323 0.841692C55.7574 1.36124 56.0828 2.08089 56.0828 2.87064V11.3035C56.0828 11.7244 55.7389 12.0647 55.3137 12.0647C54.8885 12.0647 54.5446 11.7243 54.5446 11.3035V2.87064C54.5446 2.49914 54.3924 2.16142 54.143 1.91722C53.8962 1.67301 53.555 1.51974 53.1796 1.51974H2.90071C2.52533 1.51974 2.18409 1.67041 1.93733 1.91722C1.69058 2.16142 1.5357 2.49914 1.5357 2.87064V30.9745H54.5449V30.3354C54.5449 29.9145 54.8888 29.5742 55.314 29.5742C55.7393 29.5742 56.0831 29.9146 56.0831 30.3354V35.9571C56.0831 36.7469 55.7576 37.4665 55.2326 37.9861C54.7077 38.5057 53.9805 38.8278 53.1825 38.8278L34.7839 38.8277ZM14.4425 33.7437C13.7968 33.7437 13.2744 34.2607 13.2744 34.8997C13.2744 35.5388 13.7968 36.0558 14.4425 36.0558C15.0883 36.0558 15.6107 35.5388 15.6107 34.8997C15.6107 34.2633 15.0883 33.7437 14.4425 33.7437ZM5.51505 33.7437C4.8693 33.7437 4.34691 34.2607 4.34691 34.8997C4.34691 35.5388 4.86928 36.0558 5.51505 36.0558C6.1608 36.0558 6.68318 35.5388 6.68318 34.8997C6.68056 34.2633 6.15818 33.7437 5.51505 33.7437ZM9.97752 33.7437C9.33177 33.7437 8.80938 34.2607 8.80938 34.8997C8.80938 35.5388 9.33175 36.0558 9.97752 36.0558C10.6233 36.0558 11.1457 35.5388 11.1457 34.8997C11.1457 34.2633 10.6233 33.7437 9.97752 33.7437ZM56.6343 19.4397L57.2722 18.8084C57.9967 18.0914 58.359 17.1484 58.359 16.2053H58.3563C58.3563 15.2597 57.9941 14.3167 57.2722 13.6023C56.5477 12.8853 55.5948 12.5267 54.6419 12.5267C53.689 12.5267 52.7362 12.8852 52.0117 13.6023L45.4754 20.071C44.7509 20.788 44.3887 21.731 44.3887 22.6741C44.3887 23.6171 44.7509 24.5601 45.4754 25.2771C46.1973 25.9915 47.1502 26.3501 48.1057 26.3501V26.3527C49.0586 26.3527 50.0114 25.9942 50.736 25.2771L51.3738 24.6459L56.6527 29.8702C57.3772 30.5872 58.3301 30.9457 59.283 30.9457C60.2359 30.9457 61.1887 30.5872 61.9132 29.8702C62.6377 29.1532 63 28.2101 63 27.2671C63 26.3241 62.6377 25.3811 61.9132 24.664L56.6343 19.4397ZM51.9173 23.0325L57.7395 28.7946C58.1621 29.2155 58.7239 29.4233 59.283 29.4233C59.8422 29.4233 60.4039 29.2129 60.8265 28.7946C61.2491 28.3764 61.4618 27.8204 61.4618 27.2671C61.4618 26.7111 61.2491 26.1577 60.8265 25.7395L55.0043 19.9774C54.705 19.6812 54.705 19.2006 55.0043 18.9019L56.1855 17.7328C56.6108 17.3146 56.8208 16.7587 56.8208 16.2053H56.8234C56.8234 15.6519 56.6108 15.0986 56.1855 14.6777C55.7629 14.2595 55.2012 14.049 54.642 14.049C54.0828 14.049 53.5211 14.2595 53.0985 14.6777L46.5622 21.1464C46.1396 21.5647 45.927 22.1206 45.927 22.674C45.927 23.2274 46.1396 23.7833 46.5622 24.2016C46.9875 24.6224 47.5466 24.8328 48.1057 24.8328V24.8302C48.6649 24.8302 49.2266 24.6198 49.6493 24.2016L50.8305 23.0325C51.1297 22.7338 51.618 22.7338 51.9173 23.0325ZM39.6714 17.4653C39.4247 16.1456 39.5061 14.7869 39.9077 13.5114C40.2962 12.2696 40.9892 11.1083 41.9709 10.1342C42.9526 9.16257 44.1286 8.4767 45.3834 8.09224C46.6723 7.69476 48.0451 7.61423 49.3786 7.85843C49.7934 7.93377 50.1923 7.66099 50.2685 7.25053C50.3446 6.84007 50.069 6.44262 49.6542 6.36987C48.0766 6.08151 46.4544 6.17763 44.9319 6.64524C43.4382 7.10506 42.0444 7.91563 40.8842 9.06125C39.7239 10.2095 38.9049 11.589 38.443 13.0671C37.9705 14.5739 37.8733 16.1794 38.1647 17.7407C38.2408 18.1511 38.6398 18.4239 39.0546 18.3486C39.4746 18.2732 39.7475 17.8783 39.6714 17.4653ZM43.4803 17.4133C43.2756 16.6002 43.2939 15.7611 43.5118 14.9791C43.7297 14.2023 44.1497 13.4776 44.7508 12.8827C45.352 12.2878 46.0844 11.8721 46.8692 11.6564C47.6593 11.4408 48.5046 11.4226 49.3288 11.6253C49.741 11.724 50.1557 11.4772 50.2554 11.0693C50.3552 10.6615 50.1058 10.251 49.6937 10.1523C48.6148 9.8873 47.5018 9.90808 46.4597 10.1938C45.4176 10.4796 44.449 11.0278 43.6614 11.8071C42.8739 12.5865 42.3227 13.5451 42.0313 14.5765C41.7426 15.6078 41.7189 16.7093 41.9867 17.777C42.0864 18.1849 42.5038 18.4317 42.9133 18.333C43.3307 18.2317 43.5801 17.8212 43.4803 17.4133ZM30.1398 17.125C29.1135 17.5744 28.0529 17.9511 26.9688 18.2499C25.8925 18.546 24.7874 18.772 23.6639 18.9149C23.2439 18.9669 22.9473 19.3462 22.9998 19.7618C23.0523 20.1774 23.4355 20.471 23.8555 20.419C25.063 20.2658 26.2364 20.0268 27.3756 19.7124C28.5464 19.3903 29.6751 18.9876 30.7566 18.5148C31.1451 18.3459 31.321 17.8965 31.1503 17.5146C30.9797 17.1301 30.5257 16.9561 30.1398 17.125ZM21.7607 19.0838C21.5454 19.0942 21.3459 19.1019 21.1674 19.1071C21.0467 19.1097 20.8498 19.1123 20.5768 19.1123C19.6922 19.1123 18.8285 19.0656 17.9885 18.9747C17.138 18.8837 16.2902 18.7434 15.4476 18.5616C15.0328 18.4707 14.6233 18.7305 14.5314 19.1409C14.4396 19.5514 14.7021 19.9567 15.1168 20.0476C15.9936 20.2398 16.8965 20.3853 17.8258 20.484C18.7393 20.5827 19.6554 20.6321 20.5741 20.6321C20.7053 20.6321 20.918 20.6295 21.2015 20.6217C21.4298 20.6165 21.6398 20.6087 21.8315 20.5983C22.2541 20.5802 22.5796 20.2242 22.5612 19.806C22.5428 19.3851 22.1833 19.0629 21.7607 19.0838ZM13.5993 18.0784C14.0035 18.2005 14.2319 18.6266 14.1059 19.0266C13.9825 19.4267 13.552 19.6527 13.1477 19.528C12.3576 19.289 11.5911 19.0136 10.8509 18.7071C10.3259 18.4889 9.8061 18.2551 9.29948 18.0031L7.54072 21.0192C9.39134 22.0558 11.3784 22.8793 13.4653 23.4534C15.7228 24.0743 18.109 24.4069 20.5764 24.4069C23.0465 24.4069 25.43 24.0743 27.6875 23.4534C29.7744 22.8793 31.7615 22.0558 33.6121 21.0192L29.2546 13.548C29.2467 13.535 29.2388 13.522 29.231 13.509L28.769 12.7193C28.3988 12.8933 28.0208 13.057 27.6402 13.2077C27.026 13.4493 26.4039 13.6597 25.7791 13.8338C25.3722 13.9455 24.947 13.7117 24.8342 13.309C24.7213 12.9063 24.9575 12.4855 25.3644 12.3738C25.9576 12.2075 26.5273 12.0179 27.0759 11.7997C27.3883 11.6776 27.698 11.5451 28.0025 11.4048L25.8028 7.63268C25.0993 7.93144 24.3643 8.17564 23.6005 8.35227C22.6266 8.57828 21.6134 8.69779 20.5765 8.69779C19.5396 8.69779 18.5264 8.57828 17.5525 8.35227C16.7913 8.17562 16.0536 7.93401 15.3502 7.63268L11.9219 13.5116H11.9193L10.066 16.6888C10.5149 16.9096 10.9717 17.1148 11.4389 17.3071C12.1477 17.6006 12.8669 17.8576 13.5993 18.0784ZM8.31513 16.6626L5.86341 20.8659C5.85554 20.8789 5.84766 20.8919 5.83716 20.9049C5.61929 21.2634 5.73479 21.731 6.09704 21.9466C8.24165 23.2274 10.5779 24.2353 13.0536 24.9159C15.4528 25.5758 17.9754 25.9291 20.5739 25.9291C23.1726 25.9291 25.6953 25.5758 28.0942 24.9159C30.5722 24.2353 32.9085 23.2273 35.0507 21.9466C35.413 21.731 35.5311 21.2634 35.3106 20.9049C35.3027 20.8919 35.2949 20.8789 35.2844 20.8659L30.5751 12.7942C30.5673 12.7812 30.5594 12.7656 30.5515 12.7526L26.7952 6.31248C26.6036 5.94098 26.1468 5.78771 25.7688 5.97476C24.9735 6.36703 24.1282 6.671 23.2488 6.87624C22.3931 7.07627 21.498 7.18019 20.574 7.18019C19.6526 7.18019 18.7549 7.07367 17.8991 6.87624C17.0171 6.67101 16.1718 6.36706 15.3791 5.97476C15.0011 5.78771 14.5417 5.93839 14.3527 6.31248L10.5964 12.7526H10.599L8.36779 16.5792C8.35467 16.6 8.34154 16.6208 8.33104 16.6416C8.32317 16.6468 8.31775 16.6548 8.31513 16.6626ZM23.4143 12.7995C22.9601 12.8723 22.4903 12.9294 22.0046 12.9684C21.54 13.0048 21.0623 13.0256 20.5766 13.0256C19.965 13.0256 19.377 12.997 18.81 12.9398C18.2167 12.8801 17.6366 12.7943 17.0697 12.6826C16.9332 12.6567 16.7441 12.6125 16.4974 12.5553C16.2507 12.4982 16.0617 12.4514 15.9278 12.4151C15.7545 12.3683 15.5655 12.3137 15.3582 12.2514C15.1665 12.1942 14.9802 12.1319 14.7964 12.0695C14.3974 11.9319 13.9616 12.1397 13.8225 12.5346C13.6834 12.9294 13.8934 13.3607 14.2924 13.4984C14.4972 13.5685 14.7019 13.636 14.9067 13.6984C15.093 13.7555 15.2978 13.8153 15.5235 13.875C15.7808 13.9452 15.9882 13.9971 16.143 14.0335C16.2953 14.0699 16.5027 14.114 16.7678 14.166C17.3925 14.2907 18.0225 14.3868 18.6578 14.4492C19.3035 14.5141 19.9414 14.5453 20.5741 14.5453C21.0912 14.5453 21.6057 14.5245 22.1228 14.4829C22.6294 14.444 23.1413 14.3816 23.6585 14.2985C24.0758 14.2309 24.3594 13.8413 24.2911 13.4282C24.2255 13.0125 23.8316 12.732 23.4143 12.7995ZM1.53467 32.4938V35.9567C1.53467 36.3282 1.68692 36.6659 1.9363 36.9101C2.18305 37.1543 2.52429 37.3076 2.89967 37.3076H53.1813C53.5566 37.3076 53.8979 37.1569 54.1446 36.9101C54.3914 36.6659 54.5463 36.3282 54.5463 35.9567L54.5436 32.4938H1.53467ZM33.2496 38.8273H22.831L22.6498 42.4773H33.428L33.2496 38.8273Z" fill="url(#paint0_linear_3_1411)"/>
<defs>
<linearGradient id="paint0_linear_3_1411" x1="47.588" y1="32.3125" x2="2.51082" y2="1.42847" gradientUnits="userSpaceOnUse">
<stop stop-color="#55097B"/>
<stop offset="1" stop-color="#F00045"/>
</linearGradient>
</defs>
</svg>
