<svg width="32" height="53" viewBox="0 0 32 53" fill="none" xmlns="http://www.w3.org/2000/svg">
<path d="M24.9323 40.8516C23.5139 39.7519 22.8635 38.5328 22.9456 37.1283V37.1128V37.0709C22.9456 37.062 22.9456 37.051 22.9434 37.0422C22.9434 37.0289 22.9412 37.0179 22.9389 37.0046C22.9367 36.9936 22.9367 36.9825 22.9345 36.9715C22.9323 36.9605 22.9301 36.9516 22.9279 36.9406C22.9256 36.9273 22.9212 36.9163 22.919 36.903C22.9168 36.8942 22.9145 36.8854 22.9123 36.8765C22.9079 36.8633 22.9034 36.8523 22.899 36.839C22.8968 36.8302 22.8923 36.8235 22.8879 36.8147C22.8835 36.8037 22.8768 36.7904 22.8724 36.7794C22.8679 36.7705 22.8635 36.7617 22.859 36.7529C22.8524 36.7418 22.8479 36.733 22.8413 36.722C22.8346 36.7131 22.828 36.7021 22.8213 36.6932C22.8146 36.6844 22.8102 36.6778 22.8035 36.669C22.7969 36.6579 22.788 36.6491 22.7791 36.6402C22.7725 36.6336 22.7658 36.627 22.7614 36.6182C22.7525 36.6093 22.7436 36.5983 22.7347 36.5895L22.7148 36.5696C22.7059 36.5607 22.6948 36.5541 22.6859 36.5453C22.677 36.5387 22.6681 36.532 22.6615 36.5254C22.6526 36.5188 22.6437 36.5122 22.6348 36.5077C22.6237 36.5011 22.6126 36.4945 22.6015 36.4879C22.5949 36.4835 22.586 36.479 22.5771 36.4746C22.5638 36.468 22.5505 36.4614 22.5372 36.4547C22.5327 36.4525 22.5283 36.4503 22.5239 36.4481C22.5194 36.4459 22.5172 36.4459 22.5128 36.4437C22.4994 36.4393 22.4861 36.4327 22.4728 36.4282C22.4639 36.426 22.455 36.4216 22.4462 36.4194C22.4351 36.415 22.424 36.4128 22.4106 36.4106C22.3995 36.4084 22.3862 36.4062 22.3751 36.4039C22.3663 36.4017 22.3552 36.4017 22.3463 36.3995C22.333 36.3973 22.3174 36.3951 22.3041 36.3951C22.2997 36.3951 22.2974 36.3929 22.293 36.3929H22.2797H22.2308C22.2242 36.3929 22.2175 36.3929 22.2109 36.3951C22.1953 36.3973 22.1776 36.3973 22.162 36.3995C22.1554 36.3995 22.1509 36.4017 22.1443 36.4017C22.1287 36.4039 22.111 36.4084 22.0954 36.4106C22.0888 36.4128 22.0843 36.4128 22.0777 36.415C22.0621 36.4194 22.0466 36.4238 22.0288 36.4305C22.0244 36.4327 22.0178 36.4349 22.0133 36.4349C21.9978 36.4415 21.98 36.4481 21.9645 36.4547C21.96 36.457 21.9556 36.4592 21.9512 36.4592C21.9356 36.4658 21.9179 36.4746 21.9023 36.4857C21.9001 36.4879 21.8957 36.4901 21.8934 36.4901C21.8779 36.5011 21.8601 36.51 21.8446 36.521C21.8424 36.5232 21.8402 36.5232 21.8379 36.5254C21.8224 36.5365 21.8069 36.5497 21.7913 36.563C21.7891 36.5652 21.7869 36.5674 21.7847 36.5674C21.7714 36.5806 21.758 36.5939 21.7447 36.6071C21.7425 36.6093 21.7403 36.6137 21.7358 36.616C21.7247 36.6292 21.7136 36.6402 21.7025 36.6557C21.6981 36.6601 21.6959 36.6667 21.6914 36.6712C21.6826 36.6822 21.6759 36.6955 21.667 36.7065C21.6626 36.7153 21.6559 36.722 21.6515 36.7308C21.6448 36.7418 21.6404 36.7507 21.6337 36.7617C21.6271 36.7728 21.6226 36.7838 21.6182 36.7948C21.616 36.7993 21.6138 36.8059 21.6115 36.8103C21.6093 36.8169 21.6071 36.8235 21.6049 36.8302C21.6027 36.8346 21.6027 36.8368 21.6004 36.8412C20.242 40.061 21.0522 44.3587 21.9556 47.3708C21.0743 47.2693 19.9822 47.4459 18.8502 47.9229C17.8624 48.3381 17.0611 48.8924 16.5128 49.4931L16.0799 48.2829C15.5827 46.8938 15.2919 45.3745 15.2142 43.7667C15.212 43.738 15.2098 43.7093 15.2031 43.6806C15.2009 43.6762 15.2009 43.6695 15.2009 43.6651C15.1943 43.6254 15.1809 43.5878 15.1676 43.5503C15.1654 43.5459 15.1632 43.5437 15.1632 43.5393C15.1476 43.5017 15.1277 43.4642 15.1055 43.431C15.1032 43.4266 15.101 43.4244 15.0988 43.42C15.0744 43.3847 15.0478 43.3515 15.0189 43.3206C15.0167 43.3184 15.0167 43.3184 15.0145 43.3162C15.0122 43.314 15.01 43.314 15.01 43.3118C14.9789 43.2831 14.9479 43.2544 14.9124 43.2323C14.9079 43.2301 14.9057 43.2279 14.9013 43.2257C14.868 43.2036 14.8324 43.1837 14.7947 43.1683C14.7903 43.166 14.7858 43.1638 14.7814 43.1638C14.7436 43.1484 14.7059 43.1373 14.666 43.1285C14.6615 43.1263 14.6571 43.1263 14.6526 43.1263C14.6149 43.1197 14.5749 43.1152 14.535 43.113H14.5195H14.4884C14.4595 43.1152 14.4284 43.1175 14.4018 43.1241C14.3974 43.1241 14.3929 43.1263 14.3885 43.1263C14.3485 43.1329 14.3108 43.1462 14.2731 43.1594C14.2686 43.1616 14.2664 43.1638 14.262 43.1638C14.2242 43.1793 14.1865 43.197 14.1532 43.219C14.1488 43.2213 14.1465 43.2235 14.1421 43.2257C14.1066 43.2478 14.0755 43.2743 14.0444 43.303C14.0422 43.3052 14.04 43.3052 14.0378 43.3074C13.03 44.2945 11.6804 44.6125 9.91347 44.2768C9.53833 44.204 9.17649 44.4513 9.10325 44.8245C9.03221 45.1977 9.27861 45.5577 9.65375 45.6306C10.1887 45.7322 10.7015 45.783 11.1876 45.783C11.2253 45.783 11.2631 45.7808 11.2986 45.7808C11.2164 46.2489 11.0122 46.6906 10.6948 47.0638C10.2264 47.6159 9.56715 47.9516 8.84353 48.0112C8.46395 48.0422 8.1798 48.3756 8.21089 48.7533C8.23974 49.1132 8.54385 49.3849 8.89899 49.3849C8.91897 49.3849 8.93673 49.3849 8.9567 49.3827C10.0488 49.2921 11.0411 48.7864 11.7492 47.9539C12.3219 47.2803 12.6549 46.4588 12.7125 45.5953C13.1454 45.4826 13.5539 45.317 13.9356 45.1006C14.0865 46.3792 14.3662 47.5983 14.7747 48.7422L15.7158 51.3724C15.7314 51.5336 15.7669 51.6882 15.8335 51.8384C16.162 52.6047 17.0344 53 18.162 53C18.9412 53 19.8424 52.8101 20.7702 52.4214C21.7558 52.0062 22.6104 51.421 23.1787 50.7739C23.8491 50.012 24.0688 49.2236 23.8025 48.5457C23.8025 48.5435 23.8002 48.5413 23.8002 48.539C23.061 46.4698 22.0666 43.0313 22.2953 39.9927C22.7148 40.6883 23.3097 41.3376 24.0821 41.936C24.2087 42.0354 24.3596 42.0818 24.5061 42.0818C24.7126 42.0818 24.9168 41.9913 25.0522 41.8168C25.2875 41.5165 25.2342 41.0857 24.9323 40.8516ZM22.1354 49.8684C21.7092 50.3542 21.0144 50.8224 20.2286 51.1537C18.5549 51.8581 17.2608 51.6572 17.1143 51.3127C17.1054 51.2928 17.1009 51.2685 17.0987 51.242V51.2243C17.0854 50.8114 17.8468 49.8507 19.3962 49.1992C21.0699 48.4948 22.364 48.6957 22.5105 49.0402C22.5682 49.1727 22.475 49.4819 22.1354 49.8684ZM25.2431 36.62C25.0056 36.0834 24.848 35.5511 24.7725 35.0211C24.8813 34.946 24.9945 34.8732 25.1121 34.8025L25.1809 34.7628C25.192 34.7561 25.2009 34.7517 25.2098 34.7451L25.2764 34.7009C29.485 31.9117 32 27.2474 32 22.2214C32 19.8165 31.4451 17.5197 30.3485 15.3931C29.3962 13.5491 28.0466 11.8972 26.4262 10.5854C27.7293 8.14957 27.7536 4.99159 26.4706 1.81122V1.80901C26.2509 1.26354 25.7403 0.866005 25.07 0.720258C24.4884 0.594377 23.8225 0.660631 23.1987 0.910181C21.7936 1.47112 21.03 2.74536 21.4607 3.8098V3.81201C22.0933 5.37774 22.6172 6.97667 22.3419 8.23101C21.2875 7.82687 20.1909 7.54196 19.07 7.38519C18.8258 4.86322 17.3985 2.40084 14.9989 0.393512C14.5461 0.0136654 13.909 -0.0967529 13.2476 0.0865446C12.6749 0.24776 12.1177 0.61877 11.6849 1.13114C11.252 1.64351 10.979 2.25081 10.919 2.84042C10.8502 3.51838 11.07 4.12348 11.5228 4.50334C12.6349 5.43305 13.7026 6.43129 14.1976 7.48685C13.3252 7.64586 12.4706 7.88216 11.6404 8.19354C10.7192 5.32043 8.18871 3.07227 4.56163 1.95943H4.55941C3.99338 1.78718 3.36516 1.93072 2.83021 2.35474C2.36406 2.72575 1.99782 3.28225 1.80024 3.92268C1.60046 4.5631 1.58936 5.22784 1.7625 5.7954C1.96228 6.44464 2.39957 6.91727 2.9634 7.09174C2.96562 7.09174 2.96784 7.09395 2.96784 7.09395C5.6249 7.90884 7.32967 8.78338 7.52055 10.5236C4.95009 12.5244 3.09655 14.6577 1.86906 17.0364C0.612696 19.4745 0 22.182 0 25.3176C0 26.742 2.0355 27.8154 4.73694 27.8154C7.43616 27.8154 9.47166 26.7421 9.47388 25.3176V22.2237C9.47388 18.1315 12.819 14.8034 16.9323 14.8034C21.0455 14.8034 24.3906 18.1315 24.3906 22.2237C24.3906 24.6838 23.1698 26.9761 21.1232 28.3628C19.8468 29.1335 18.7059 30.1383 17.7247 31.3287C16.0887 31.5539 14.7236 32.0685 13.6403 32.8635C12.8435 32.4417 11.9334 32.2915 11.0277 32.4439C9.94667 32.6272 9.00325 33.2168 8.36839 34.1068C8.14642 34.416 8.21967 34.8466 8.53265 35.0674C8.65474 35.1536 8.79459 35.1955 8.93221 35.1955C9.14974 35.1955 9.36284 35.0939 9.49602 34.9062C9.91556 34.3166 10.5415 33.9257 11.2585 33.8042C11.6914 33.7314 12.1264 33.7623 12.5327 33.8904C12.2086 34.268 11.9223 34.6832 11.6781 35.1381C11.4983 35.4738 11.627 35.8911 11.9644 36.07C12.0688 36.1252 12.1797 36.1517 12.2885 36.1517C12.5349 36.1517 12.7746 36.0192 12.8989 35.7873C13.647 34.3894 14.8479 33.4641 16.5416 32.976C15.1409 35.2198 14.2264 37.9228 13.92 40.8576C13.0344 41.3103 11.9689 41.5731 10.7059 41.6526C10.3241 41.6768 10.0355 42.0037 10.0599 42.3835C10.0821 42.7479 10.3884 43.0284 10.7502 43.0284C10.7658 43.0284 10.7791 43.0284 10.7946 43.0262C12.3973 42.9246 13.7625 42.5447 14.8856 41.8933C14.9123 41.88 14.9389 41.8646 14.9633 41.8469C15.9333 41.2683 16.7214 40.4888 17.3163 39.5016C17.5138 39.1748 17.4073 38.753 17.0787 38.5564C16.7502 38.3598 16.3263 38.4659 16.1287 38.7927C15.9356 39.1129 15.718 39.4044 15.4783 39.6694C15.9644 36.8957 17.0477 34.4068 18.5882 32.4482C18.6171 32.4173 18.6437 32.3864 18.6659 32.3511C19.5782 31.2115 20.6481 30.2531 21.849 29.5309C21.8601 29.5243 21.869 29.5177 21.8779 29.5111C24.313 27.8702 25.7669 25.145 25.7669 22.2209C25.7669 17.3713 21.8002 13.4246 16.9254 13.4246C12.0506 13.4246 8.0839 17.371 8.0839 22.2209V23.5172C7.23816 23.08 6.06613 22.8172 4.73209 22.8172C3.438 22.8172 2.29927 23.0645 1.46018 23.4775C1.89969 18.5704 4.16383 14.7875 8.64352 11.3909C8.64796 11.3887 8.65018 11.3843 8.65462 11.382C8.66572 11.3732 8.6746 11.3666 8.68348 11.3578C8.69014 11.3511 8.69902 11.3445 8.7079 11.3357C8.71677 11.329 8.72343 11.3202 8.73009 11.3114C8.73897 11.3025 8.74563 11.2937 8.75451 11.2849C8.76117 11.2783 8.76783 11.2694 8.77449 11.2606C8.78115 11.2495 8.79003 11.2407 8.79669 11.2319C8.80335 11.223 8.80778 11.2142 8.81222 11.2054C8.81888 11.1943 8.82554 11.1855 8.82998 11.1745C8.83442 11.1634 8.84108 11.1546 8.84552 11.1435C8.84996 11.1347 8.8544 11.1237 8.85884 11.1148C8.86328 11.1038 8.86772 11.0927 8.87216 11.0795C8.8766 11.0707 8.87882 11.0618 8.88104 11.053C8.88548 11.0397 8.8877 11.0287 8.89214 11.0155L8.8988 10.989C8.90101 10.9779 8.90323 10.9647 8.90545 10.9514C8.90767 10.9404 8.90989 10.9315 8.90989 10.9205C8.91211 10.9094 8.91211 10.8984 8.91211 10.8874C8.91211 10.8741 8.91433 10.8631 8.91433 10.8498V10.8366C8.91433 10.8277 8.91211 10.8189 8.91211 10.8101V10.7946C8.87882 8.30131 6.86991 7.05799 5.05194 6.34469C5.34494 6.00681 5.57802 5.58944 5.7201 5.12789C5.84662 4.72155 5.89324 4.31961 5.87548 3.94416C8.36604 5.1301 10.0086 7.00502 10.4771 9.25975C10.4837 9.29508 10.4948 9.3282 10.5081 9.36354C10.5104 9.37016 10.5126 9.37679 10.5148 9.38341C10.517 9.38783 10.517 9.39225 10.5192 9.39666C10.5281 9.41654 10.5392 9.43642 10.5503 9.45629C10.557 9.46733 10.5614 9.47617 10.5658 9.48721C10.5858 9.51813 10.608 9.54684 10.6324 9.57554C10.6369 9.58217 10.6435 9.58659 10.648 9.591C10.668 9.61309 10.6879 9.63075 10.7101 9.65063C10.719 9.65726 10.7301 9.66388 10.739 9.67271C10.759 9.68817 10.779 9.70142 10.7989 9.71247C10.81 9.71909 10.8233 9.72572 10.8344 9.73234C10.8544 9.74338 10.8744 9.75222 10.8966 9.76105C10.9099 9.76547 10.9232 9.77209 10.9366 9.77651C10.9588 9.78313 10.981 9.78976 11.0032 9.79418C11.0165 9.79638 11.0276 9.8008 11.0409 9.80301C11.0764 9.80964 11.1119 9.81184 11.1474 9.81184H11.1497H11.1519C11.2118 9.81184 11.274 9.80301 11.3339 9.78755C11.3428 9.78534 11.3517 9.78313 11.3605 9.78093C11.3628 9.78093 11.3628 9.77872 11.365 9.77872C11.3872 9.77209 11.4094 9.76326 11.4293 9.75443C12.6236 9.23325 13.8844 8.8865 15.1785 8.72312C15.1874 8.72091 15.1963 8.7187 15.2052 8.7187C15.2141 8.71649 15.2207 8.71649 15.2296 8.71428C15.2318 8.71428 15.234 8.71207 15.2363 8.71207C15.2496 8.70986 15.2629 8.70545 15.2762 8.70103C15.2851 8.69882 15.2962 8.69661 15.3051 8.6922C15.3184 8.68778 15.3295 8.68336 15.3428 8.67895C15.3517 8.67453 15.3628 8.67232 15.3717 8.66791C15.3828 8.66349 15.3939 8.65686 15.405 8.65245C15.4138 8.64803 15.4249 8.64361 15.4338 8.63699C15.4427 8.63257 15.4538 8.62595 15.4627 8.61932C15.4738 8.6127 15.4826 8.60607 15.4915 8.59945C15.5004 8.59282 15.5071 8.58619 15.5159 8.57957C15.5248 8.57294 15.5359 8.56411 15.5448 8.55749C15.5515 8.55086 15.5603 8.54424 15.567 8.53761C15.5759 8.52878 15.5848 8.52215 15.5936 8.51332C15.6003 8.50669 15.607 8.49786 15.6136 8.49123C15.6203 8.4824 15.6291 8.47357 15.6358 8.46473C15.6425 8.4559 15.6491 8.44707 15.6558 8.43823C15.6624 8.4294 15.6691 8.42056 15.6758 8.41173C15.6824 8.4029 15.6869 8.39186 15.6935 8.38302C15.698 8.37419 15.7046 8.36535 15.7091 8.35652C15.7135 8.34548 15.7202 8.33444 15.7246 8.32339C15.729 8.31456 15.7335 8.30573 15.7379 8.29469C15.7424 8.28364 15.7468 8.2726 15.749 8.26156C15.7535 8.25052 15.7557 8.24168 15.7601 8.23285C15.7646 8.22181 15.7668 8.21077 15.769 8.19972C15.7712 8.18868 15.7734 8.17764 15.7757 8.16881C15.7779 8.15777 15.7801 8.14672 15.7801 8.13568C15.7823 8.12464 15.7845 8.1136 15.7845 8.10035C15.7867 8.0893 15.7867 8.07826 15.7867 8.06943C15.7867 8.05618 15.789 8.04514 15.789 8.03189C15.789 8.02085 15.7867 8.0098 15.7867 8.00097C15.7867 7.98772 15.7845 7.97668 15.7845 7.96343V7.95459C15.7823 7.94576 15.7801 7.93693 15.7801 7.92809C15.7779 7.91926 15.7779 7.91263 15.7757 7.9038C15.7757 7.89938 15.7734 7.89497 15.7734 7.89055C15.7734 7.88834 15.7712 7.88392 15.7712 7.88172C15.5137 6.67153 14.7102 5.60709 13.7201 4.63537C14.1241 4.43882 14.5059 4.1429 14.8211 3.76744C15.0897 3.45165 15.294 3.0983 15.4271 2.73613C16.87 4.36151 17.6691 6.19008 17.709 8.01418C17.709 8.02301 17.7112 8.02964 17.7112 8.03847C17.7112 8.05172 17.7135 8.06497 17.7135 8.07822C17.7157 8.08926 17.7157 8.0981 17.7179 8.10693C17.7201 8.12018 17.7223 8.13122 17.7246 8.14447C17.7268 8.15551 17.729 8.16435 17.7312 8.17539C17.7334 8.18643 17.7379 8.19747 17.7401 8.20852C17.7445 8.21956 17.7468 8.2306 17.7512 8.24164C17.7556 8.25048 17.7579 8.26152 17.7623 8.27035C17.7667 8.28139 17.7734 8.29244 17.7778 8.30348C17.7823 8.31231 17.7867 8.32114 17.7912 8.32777C17.7978 8.33881 17.8045 8.34985 17.8111 8.3609C17.8156 8.36752 17.82 8.37635 17.8267 8.38519C17.8333 8.39623 17.8422 8.40506 17.8489 8.41611C17.8555 8.42273 17.86 8.43156 17.8666 8.43819C17.8733 8.44702 17.8822 8.45586 17.8888 8.46469C17.8955 8.47131 17.9021 8.48015 17.911 8.48677C17.9177 8.4934 17.9266 8.50223 17.9354 8.50886C17.9443 8.51548 17.951 8.52432 17.9599 8.53094C17.9665 8.53757 17.9754 8.54419 17.9843 8.54861C17.9932 8.55523 18.0043 8.56186 18.0131 8.57069C18.022 8.57732 18.0309 8.58174 18.0398 8.58615C18.0509 8.59278 18.0598 8.5994 18.0686 8.60382C18.0797 8.61044 18.0908 8.61486 18.0997 8.61928C18.1086 8.62369 18.1175 8.62811 18.1286 8.63253C18.1419 8.63915 18.1574 8.64357 18.1707 8.64799C18.1774 8.6502 18.1841 8.6524 18.1907 8.65461C18.2129 8.66124 18.2329 8.66786 18.2551 8.67007C18.2795 8.67449 18.3017 8.6789 18.3261 8.68111C19.7534 8.82687 21.1408 9.19125 22.4504 9.76766C22.4593 9.77207 22.4682 9.77428 22.4748 9.77649C22.4859 9.78091 22.497 9.78533 22.5081 9.78974C22.5215 9.79416 22.537 9.79858 22.5503 9.80299C22.5614 9.8052 22.5725 9.80962 22.5814 9.81182C22.5969 9.81624 22.6125 9.81845 22.628 9.82066C22.6369 9.82287 22.6458 9.82287 22.6546 9.82508C22.6791 9.82728 22.7035 9.82949 22.7279 9.82949H22.7301H22.7346C22.7656 9.82949 22.7967 9.82728 22.8278 9.82287C22.8389 9.82066 22.85 9.81845 22.8611 9.81624C22.8811 9.81182 22.901 9.80962 22.921 9.80299C22.9343 9.79858 22.9454 9.79416 22.9587 9.78974C22.9765 9.78312 22.9943 9.77649 23.012 9.76987C23.0253 9.76545 23.0364 9.75662 23.0498 9.74999C23.0653 9.74116 23.0831 9.73453 23.0986 9.72349C23.1097 9.71686 23.1208 9.70803 23.1341 9.6992C23.1496 9.68816 23.163 9.67932 23.1763 9.66828C23.1874 9.65945 23.1985 9.6484 23.2096 9.63736C23.2229 9.62632 23.234 9.61307 23.2473 9.59982C23.2584 9.58878 23.2673 9.57553 23.2784 9.56228C23.2895 9.54903 23.3006 9.53578 23.3095 9.52032C23.3183 9.50707 23.3272 9.49161 23.3339 9.47836C23.3405 9.46732 23.3472 9.45848 23.3539 9.44744C23.3583 9.43861 23.3627 9.42977 23.3672 9.41873V9.41652V9.41431C24.0198 8.08263 23.8267 6.53013 23.3339 4.95778C23.3694 4.95999 23.4049 4.95999 23.4427 4.95999C23.8622 4.95999 24.2973 4.87386 24.7168 4.70602C25.1008 4.55143 25.4471 4.33943 25.7357 4.08323C26.2973 6.44843 26.0243 8.6789 24.9277 10.3818C24.9255 10.384 24.9255 10.3884 24.9232 10.3906C24.9166 10.4017 24.9099 10.4127 24.9033 10.4237C24.8988 10.4326 24.8922 10.4414 24.8877 10.4502C24.8811 10.4613 24.8766 10.4745 24.8722 10.4856C24.8678 10.4944 24.8633 10.5055 24.8611 10.5143C24.8567 10.5253 24.8544 10.5364 24.85 10.5496C24.8478 10.5607 24.8433 10.5695 24.8411 10.5805C24.8389 10.5916 24.8367 10.6026 24.8345 10.6137C24.8322 10.6247 24.83 10.6358 24.8278 10.6468C24.8256 10.6578 24.8256 10.6689 24.8234 10.6799C24.8211 10.691 24.8211 10.702 24.8189 10.713V10.744V10.7771C24.8189 10.7881 24.8211 10.7992 24.8211 10.8102C24.8234 10.8213 24.8234 10.8323 24.8234 10.8433C24.8256 10.8544 24.8278 10.8654 24.8278 10.8765C24.83 10.8875 24.8322 10.8986 24.8345 10.9074C24.8367 10.9184 24.8411 10.9295 24.8433 10.9405C24.8456 10.9516 24.8478 10.9604 24.8522 10.9714C24.8567 10.9825 24.8611 10.9935 24.8655 11.0046C24.87 11.0134 24.8722 11.0244 24.8766 11.0333C24.8811 11.0443 24.8877 11.0553 24.8922 11.0642C24.8966 11.073 24.901 11.0841 24.9077 11.0929C24.9144 11.1039 24.9188 11.1128 24.9255 11.1216C24.9321 11.1304 24.9366 11.1415 24.9432 11.1503C24.9499 11.1591 24.9565 11.168 24.9632 11.1768C24.9699 11.1856 24.9765 11.1967 24.9854 11.2055C24.9921 11.2121 24.9987 11.221 25.0076 11.2276C25.0165 11.2364 25.0254 11.2453 25.0342 11.2541C25.0409 11.2607 25.0498 11.2674 25.0586 11.274C25.0675 11.2828 25.0786 11.2894 25.0875 11.2983C25.0897 11.3005 25.0919 11.3027 25.0964 11.3049C28.5947 13.9042 30.6014 17.8816 30.6014 22.2167C30.6014 26.6644 28.4327 30.8032 24.7836 33.3535C24.828 33.0929 24.8923 32.8345 24.9767 32.574C25.0943 32.2118 24.8923 31.8253 24.5283 31.7083C24.1642 31.5912 23.7758 31.7922 23.6582 32.1544C23.3807 33.009 23.2764 33.8725 23.3407 34.736C23.3407 34.7493 23.343 34.7603 23.343 34.7735C23.4229 35.7828 23.7359 36.7964 24.2797 37.8057C24.2841 37.8145 24.2886 37.8211 24.293 37.83C24.5683 38.3401 24.9034 38.8481 25.2963 39.356C25.4317 39.5326 25.6382 39.6254 25.8446 39.6254C25.9911 39.6254 26.1398 39.579 26.2664 39.4818C26.5682 39.25 26.6259 38.8171 26.3929 38.5168C26.2264 38.3004 26.071 38.0861 25.9289 37.8719C27.0877 37.7019 28.2708 38.2937 28.7925 39.4023C28.9101 39.6519 29.1587 39.7999 29.4207 39.7999C29.5183 39.7999 29.6182 39.78 29.7137 39.7358C30.06 39.5746 30.2087 39.1661 30.0466 38.8215C29.1965 36.993 27.1387 36.0944 25.2431 36.62ZM4.7392 24.1936C6.91676 24.1936 8.09101 24.9909 8.09101 25.3155C8.09101 25.6401 6.91676 26.4374 4.7392 26.4374C2.56164 26.4374 1.38739 25.6401 1.38739 25.3155C1.38739 24.9909 2.56164 24.1936 4.7392 24.1936ZM4.40846 4.72413C4.29303 5.09735 4.08437 5.4242 3.83577 5.62071C3.75364 5.68476 3.5472 5.8283 3.37628 5.7753C3.20314 5.7223 3.11435 5.48821 3.08549 5.38884C2.99226 5.08849 3.00557 4.70205 3.12101 4.3266C3.23643 3.95338 3.44509 3.62653 3.6937 3.43001C3.76251 3.3748 3.92233 3.26218 4.0755 3.26218C4.10213 3.26218 4.12877 3.26659 4.15541 3.27322C4.41734 3.35493 4.64597 3.96 4.40846 4.72413ZM14.22 1.91502C14.1867 2.22861 14.0247 2.57976 13.7716 2.88007C13.5186 3.1782 13.1989 3.39904 12.8948 3.48516C12.7949 3.51387 12.5485 3.56687 12.4109 3.44983C12.2733 3.33499 12.2821 3.08323 12.2932 2.97944C12.3265 2.66585 12.4886 2.3147 12.7416 2.01439C12.9947 1.71626 13.3143 1.49542 13.6184 1.4093C13.6717 1.39384 13.7649 1.37175 13.8626 1.37175C13.9492 1.37175 14.038 1.38942 14.1024 1.44242C14.24 1.55947 14.2311 1.81122 14.22 1.91502ZM25.0635 2.79397C24.8881 3.05456 24.5774 3.28865 24.2111 3.43439C23.8471 3.58015 23.4608 3.62432 23.15 3.55806C23.0479 3.53598 22.806 3.46752 22.7394 3.29968C22.6373 3.04572 22.9636 2.48699 23.7094 2.18888C23.9625 2.0873 24.2266 2.0343 24.4685 2.0343C24.5729 2.0343 24.675 2.04534 24.7704 2.06521C24.8725 2.0873 25.1145 2.15576 25.1811 2.3236C25.2477 2.48923 25.1212 2.70784 25.0635 2.79397Z" fill="black"/>
<path d="M24.9323 40.8516C23.5139 39.7519 22.8635 38.5328 22.9456 37.1283V37.1128V37.0709C22.9456 37.062 22.9456 37.051 22.9434 37.0422C22.9434 37.0289 22.9412 37.0179 22.9389 37.0046C22.9367 36.9936 22.9367 36.9825 22.9345 36.9715C22.9323 36.9605 22.9301 36.9516 22.9279 36.9406C22.9256 36.9273 22.9212 36.9163 22.919 36.903C22.9168 36.8942 22.9145 36.8854 22.9123 36.8765C22.9079 36.8633 22.9034 36.8523 22.899 36.839C22.8968 36.8302 22.8923 36.8235 22.8879 36.8147C22.8835 36.8037 22.8768 36.7904 22.8724 36.7794C22.8679 36.7705 22.8635 36.7617 22.859 36.7529C22.8524 36.7418 22.8479 36.733 22.8413 36.722C22.8346 36.7131 22.828 36.7021 22.8213 36.6932C22.8146 36.6844 22.8102 36.6778 22.8035 36.669C22.7969 36.6579 22.788 36.6491 22.7791 36.6402C22.7725 36.6336 22.7658 36.627 22.7614 36.6182C22.7525 36.6093 22.7436 36.5983 22.7347 36.5895L22.7148 36.5696C22.7059 36.5607 22.6948 36.5541 22.6859 36.5453C22.677 36.5387 22.6681 36.532 22.6615 36.5254C22.6526 36.5188 22.6437 36.5122 22.6348 36.5077C22.6237 36.5011 22.6126 36.4945 22.6015 36.4879C22.5949 36.4835 22.586 36.479 22.5771 36.4746C22.5638 36.468 22.5505 36.4614 22.5372 36.4547C22.5327 36.4525 22.5283 36.4503 22.5239 36.4481C22.5194 36.4459 22.5172 36.4459 22.5128 36.4437C22.4994 36.4393 22.4861 36.4327 22.4728 36.4282C22.4639 36.426 22.455 36.4216 22.4462 36.4194C22.4351 36.415 22.424 36.4128 22.4106 36.4106C22.3995 36.4084 22.3862 36.4062 22.3751 36.4039C22.3663 36.4017 22.3552 36.4017 22.3463 36.3995C22.333 36.3973 22.3174 36.3951 22.3041 36.3951C22.2997 36.3951 22.2974 36.3929 22.293 36.3929H22.2797H22.2308C22.2242 36.3929 22.2175 36.3929 22.2109 36.3951C22.1953 36.3973 22.1776 36.3973 22.162 36.3995C22.1554 36.3995 22.1509 36.4017 22.1443 36.4017C22.1287 36.4039 22.111 36.4084 22.0954 36.4106C22.0888 36.4128 22.0843 36.4128 22.0777 36.415C22.0621 36.4194 22.0466 36.4238 22.0288 36.4305C22.0244 36.4327 22.0178 36.4349 22.0133 36.4349C21.9978 36.4415 21.98 36.4481 21.9645 36.4547C21.96 36.457 21.9556 36.4592 21.9512 36.4592C21.9356 36.4658 21.9179 36.4746 21.9023 36.4857C21.9001 36.4879 21.8957 36.4901 21.8934 36.4901C21.8779 36.5011 21.8601 36.51 21.8446 36.521C21.8424 36.5232 21.8402 36.5232 21.8379 36.5254C21.8224 36.5365 21.8069 36.5497 21.7913 36.563C21.7891 36.5652 21.7869 36.5674 21.7847 36.5674C21.7714 36.5806 21.758 36.5939 21.7447 36.6071C21.7425 36.6093 21.7403 36.6137 21.7358 36.616C21.7247 36.6292 21.7136 36.6402 21.7025 36.6557C21.6981 36.6601 21.6959 36.6667 21.6914 36.6712C21.6826 36.6822 21.6759 36.6955 21.667 36.7065C21.6626 36.7153 21.6559 36.722 21.6515 36.7308C21.6448 36.7418 21.6404 36.7507 21.6337 36.7617C21.6271 36.7728 21.6226 36.7838 21.6182 36.7948C21.616 36.7993 21.6138 36.8059 21.6115 36.8103C21.6093 36.8169 21.6071 36.8235 21.6049 36.8302C21.6027 36.8346 21.6027 36.8368 21.6004 36.8412C20.242 40.061 21.0522 44.3587 21.9556 47.3708C21.0743 47.2693 19.9822 47.4459 18.8502 47.9229C17.8624 48.3381 17.0611 48.8924 16.5128 49.4931L16.0799 48.2829C15.5827 46.8938 15.2919 45.3745 15.2142 43.7667C15.212 43.738 15.2098 43.7093 15.2031 43.6806C15.2009 43.6762 15.2009 43.6695 15.2009 43.6651C15.1943 43.6254 15.1809 43.5878 15.1676 43.5503C15.1654 43.5459 15.1632 43.5437 15.1632 43.5393C15.1476 43.5017 15.1277 43.4642 15.1055 43.431C15.1032 43.4266 15.101 43.4244 15.0988 43.42C15.0744 43.3847 15.0478 43.3515 15.0189 43.3206C15.0167 43.3184 15.0167 43.3184 15.0145 43.3162C15.0122 43.314 15.01 43.314 15.01 43.3118C14.9789 43.2831 14.9479 43.2544 14.9124 43.2323C14.9079 43.2301 14.9057 43.2279 14.9013 43.2257C14.868 43.2036 14.8324 43.1837 14.7947 43.1683C14.7903 43.166 14.7858 43.1638 14.7814 43.1638C14.7436 43.1484 14.7059 43.1373 14.666 43.1285C14.6615 43.1263 14.6571 43.1263 14.6526 43.1263C14.6149 43.1197 14.5749 43.1152 14.535 43.113H14.5195H14.4884C14.4595 43.1152 14.4284 43.1175 14.4018 43.1241C14.3974 43.1241 14.3929 43.1263 14.3885 43.1263C14.3485 43.1329 14.3108 43.1462 14.2731 43.1594C14.2686 43.1616 14.2664 43.1638 14.262 43.1638C14.2242 43.1793 14.1865 43.197 14.1532 43.219C14.1488 43.2213 14.1465 43.2235 14.1421 43.2257C14.1066 43.2478 14.0755 43.2743 14.0444 43.303C14.0422 43.3052 14.04 43.3052 14.0378 43.3074C13.03 44.2945 11.6804 44.6125 9.91347 44.2768C9.53833 44.204 9.17649 44.4513 9.10325 44.8245C9.03221 45.1977 9.27861 45.5577 9.65375 45.6306C10.1887 45.7322 10.7015 45.783 11.1876 45.783C11.2253 45.783 11.2631 45.7808 11.2986 45.7808C11.2164 46.2489 11.0122 46.6906 10.6948 47.0638C10.2264 47.6159 9.56715 47.9516 8.84353 48.0112C8.46395 48.0422 8.1798 48.3756 8.21089 48.7533C8.23974 49.1132 8.54385 49.3849 8.89899 49.3849C8.91897 49.3849 8.93673 49.3849 8.9567 49.3827C10.0488 49.2921 11.0411 48.7864 11.7492 47.9539C12.3219 47.2803 12.6549 46.4588 12.7125 45.5953C13.1454 45.4826 13.5539 45.317 13.9356 45.1006C14.0865 46.3792 14.3662 47.5983 14.7747 48.7422L15.7158 51.3724C15.7314 51.5336 15.7669 51.6882 15.8335 51.8384C16.162 52.6047 17.0344 53 18.162 53C18.9412 53 19.8424 52.8101 20.7702 52.4214C21.7558 52.0062 22.6104 51.421 23.1787 50.7739C23.8491 50.012 24.0688 49.2236 23.8025 48.5457C23.8025 48.5435 23.8002 48.5413 23.8002 48.539C23.061 46.4698 22.0666 43.0313 22.2953 39.9927C22.7148 40.6883 23.3097 41.3376 24.0821 41.936C24.2087 42.0354 24.3596 42.0818 24.5061 42.0818C24.7126 42.0818 24.9168 41.9913 25.0522 41.8168C25.2875 41.5165 25.2342 41.0857 24.9323 40.8516ZM22.1354 49.8684C21.7092 50.3542 21.0144 50.8224 20.2286 51.1537C18.5549 51.8581 17.2608 51.6572 17.1143 51.3127C17.1054 51.2928 17.1009 51.2685 17.0987 51.242V51.2243C17.0854 50.8114 17.8468 49.8507 19.3962 49.1992C21.0699 48.4948 22.364 48.6957 22.5105 49.0402C22.5682 49.1727 22.475 49.4819 22.1354 49.8684ZM25.2431 36.62C25.0056 36.0834 24.848 35.5511 24.7725 35.0211C24.8813 34.946 24.9945 34.8732 25.1121 34.8025L25.1809 34.7628C25.192 34.7561 25.2009 34.7517 25.2098 34.7451L25.2764 34.7009C29.485 31.9117 32 27.2474 32 22.2214C32 19.8165 31.4451 17.5197 30.3485 15.3931C29.3962 13.5491 28.0466 11.8972 26.4262 10.5854C27.7293 8.14957 27.7536 4.99159 26.4706 1.81122V1.80901C26.2509 1.26354 25.7403 0.866005 25.07 0.720258C24.4884 0.594377 23.8225 0.660631 23.1987 0.910181C21.7936 1.47112 21.03 2.74536 21.4607 3.8098V3.81201C22.0933 5.37774 22.6172 6.97667 22.3419 8.23101C21.2875 7.82687 20.1909 7.54196 19.07 7.38519C18.8258 4.86322 17.3985 2.40084 14.9989 0.393512C14.5461 0.0136654 13.909 -0.0967529 13.2476 0.0865446C12.6749 0.24776 12.1177 0.61877 11.6849 1.13114C11.252 1.64351 10.979 2.25081 10.919 2.84042C10.8502 3.51838 11.07 4.12348 11.5228 4.50334C12.6349 5.43305 13.7026 6.43129 14.1976 7.48685C13.3252 7.64586 12.4706 7.88216 11.6404 8.19354C10.7192 5.32043 8.18871 3.07227 4.56163 1.95943H4.55941C3.99338 1.78718 3.36516 1.93072 2.83021 2.35474C2.36406 2.72575 1.99782 3.28225 1.80024 3.92268C1.60046 4.5631 1.58936 5.22784 1.7625 5.7954C1.96228 6.44464 2.39957 6.91727 2.9634 7.09174C2.96562 7.09174 2.96784 7.09395 2.96784 7.09395C5.6249 7.90884 7.32967 8.78338 7.52055 10.5236C4.95009 12.5244 3.09655 14.6577 1.86906 17.0364C0.612696 19.4745 0 22.182 0 25.3176C0 26.742 2.0355 27.8154 4.73694 27.8154C7.43616 27.8154 9.47166 26.7421 9.47388 25.3176V22.2237C9.47388 18.1315 12.819 14.8034 16.9323 14.8034C21.0455 14.8034 24.3906 18.1315 24.3906 22.2237C24.3906 24.6838 23.1698 26.9761 21.1232 28.3628C19.8468 29.1335 18.7059 30.1383 17.7247 31.3287C16.0887 31.5539 14.7236 32.0685 13.6403 32.8635C12.8435 32.4417 11.9334 32.2915 11.0277 32.4439C9.94667 32.6272 9.00325 33.2168 8.36839 34.1068C8.14642 34.416 8.21967 34.8466 8.53265 35.0674C8.65474 35.1536 8.79459 35.1955 8.93221 35.1955C9.14974 35.1955 9.36284 35.0939 9.49602 34.9062C9.91556 34.3166 10.5415 33.9257 11.2585 33.8042C11.6914 33.7314 12.1264 33.7623 12.5327 33.8904C12.2086 34.268 11.9223 34.6832 11.6781 35.1381C11.4983 35.4738 11.627 35.8911 11.9644 36.07C12.0688 36.1252 12.1797 36.1517 12.2885 36.1517C12.5349 36.1517 12.7746 36.0192 12.8989 35.7873C13.647 34.3894 14.8479 33.4641 16.5416 32.976C15.1409 35.2198 14.2264 37.9228 13.92 40.8576C13.0344 41.3103 11.9689 41.5731 10.7059 41.6526C10.3241 41.6768 10.0355 42.0037 10.0599 42.3835C10.0821 42.7479 10.3884 43.0284 10.7502 43.0284C10.7658 43.0284 10.7791 43.0284 10.7946 43.0262C12.3973 42.9246 13.7625 42.5447 14.8856 41.8933C14.9123 41.88 14.9389 41.8646 14.9633 41.8469C15.9333 41.2683 16.7214 40.4888 17.3163 39.5016C17.5138 39.1748 17.4073 38.753 17.0787 38.5564C16.7502 38.3598 16.3263 38.4659 16.1287 38.7927C15.9356 39.1129 15.718 39.4044 15.4783 39.6694C15.9644 36.8957 17.0477 34.4068 18.5882 32.4482C18.6171 32.4173 18.6437 32.3864 18.6659 32.3511C19.5782 31.2115 20.6481 30.2531 21.849 29.5309C21.8601 29.5243 21.869 29.5177 21.8779 29.5111C24.313 27.8702 25.7669 25.145 25.7669 22.2209C25.7669 17.3713 21.8002 13.4246 16.9254 13.4246C12.0506 13.4246 8.0839 17.371 8.0839 22.2209V23.5172C7.23816 23.08 6.06613 22.8172 4.73209 22.8172C3.438 22.8172 2.29927 23.0645 1.46018 23.4775C1.89969 18.5704 4.16383 14.7875 8.64352 11.3909C8.64796 11.3887 8.65018 11.3843 8.65462 11.382C8.66572 11.3732 8.6746 11.3666 8.68348 11.3578C8.69014 11.3511 8.69902 11.3445 8.7079 11.3357C8.71677 11.329 8.72343 11.3202 8.73009 11.3114C8.73897 11.3025 8.74563 11.2937 8.75451 11.2849C8.76117 11.2783 8.76783 11.2694 8.77449 11.2606C8.78115 11.2495 8.79003 11.2407 8.79669 11.2319C8.80335 11.223 8.80778 11.2142 8.81222 11.2054C8.81888 11.1943 8.82554 11.1855 8.82998 11.1745C8.83442 11.1634 8.84108 11.1546 8.84552 11.1435C8.84996 11.1347 8.8544 11.1237 8.85884 11.1148C8.86328 11.1038 8.86772 11.0927 8.87216 11.0795C8.8766 11.0707 8.87882 11.0618 8.88104 11.053C8.88548 11.0397 8.8877 11.0287 8.89214 11.0155L8.8988 10.989C8.90101 10.9779 8.90323 10.9647 8.90545 10.9514C8.90767 10.9404 8.90989 10.9315 8.90989 10.9205C8.91211 10.9094 8.91211 10.8984 8.91211 10.8874C8.91211 10.8741 8.91433 10.8631 8.91433 10.8498V10.8366C8.91433 10.8277 8.91211 10.8189 8.91211 10.8101V10.7946C8.87882 8.30131 6.86991 7.05799 5.05194 6.34469C5.34494 6.00681 5.57802 5.58944 5.7201 5.12789C5.84662 4.72155 5.89324 4.31961 5.87548 3.94416C8.36604 5.1301 10.0086 7.00502 10.4771 9.25975C10.4837 9.29508 10.4948 9.3282 10.5081 9.36354C10.5104 9.37016 10.5126 9.37679 10.5148 9.38341C10.517 9.38783 10.517 9.39225 10.5192 9.39666C10.5281 9.41654 10.5392 9.43642 10.5503 9.45629C10.557 9.46733 10.5614 9.47617 10.5658 9.48721C10.5858 9.51813 10.608 9.54684 10.6324 9.57554C10.6369 9.58217 10.6435 9.58659 10.648 9.591C10.668 9.61309 10.6879 9.63075 10.7101 9.65063C10.719 9.65726 10.7301 9.66388 10.739 9.67271C10.759 9.68817 10.779 9.70142 10.7989 9.71247C10.81 9.71909 10.8233 9.72572 10.8344 9.73234C10.8544 9.74338 10.8744 9.75222 10.8966 9.76105C10.9099 9.76547 10.9232 9.77209 10.9366 9.77651C10.9588 9.78313 10.981 9.78976 11.0032 9.79418C11.0165 9.79638 11.0276 9.8008 11.0409 9.80301C11.0764 9.80964 11.1119 9.81184 11.1474 9.81184H11.1497H11.1519C11.2118 9.81184 11.274 9.80301 11.3339 9.78755C11.3428 9.78534 11.3517 9.78313 11.3605 9.78093C11.3628 9.78093 11.3628 9.77872 11.365 9.77872C11.3872 9.77209 11.4094 9.76326 11.4293 9.75443C12.6236 9.23325 13.8844 8.8865 15.1785 8.72312C15.1874 8.72091 15.1963 8.7187 15.2052 8.7187C15.2141 8.71649 15.2207 8.71649 15.2296 8.71428C15.2318 8.71428 15.234 8.71207 15.2363 8.71207C15.2496 8.70986 15.2629 8.70545 15.2762 8.70103C15.2851 8.69882 15.2962 8.69661 15.3051 8.6922C15.3184 8.68778 15.3295 8.68336 15.3428 8.67895C15.3517 8.67453 15.3628 8.67232 15.3717 8.66791C15.3828 8.66349 15.3939 8.65686 15.405 8.65245C15.4138 8.64803 15.4249 8.64361 15.4338 8.63699C15.4427 8.63257 15.4538 8.62595 15.4627 8.61932C15.4738 8.6127 15.4826 8.60607 15.4915 8.59945C15.5004 8.59282 15.5071 8.58619 15.5159 8.57957C15.5248 8.57294 15.5359 8.56411 15.5448 8.55749C15.5515 8.55086 15.5603 8.54424 15.567 8.53761C15.5759 8.52878 15.5848 8.52215 15.5936 8.51332C15.6003 8.50669 15.607 8.49786 15.6136 8.49123C15.6203 8.4824 15.6291 8.47357 15.6358 8.46473C15.6425 8.4559 15.6491 8.44707 15.6558 8.43823C15.6624 8.4294 15.6691 8.42056 15.6758 8.41173C15.6824 8.4029 15.6869 8.39186 15.6935 8.38302C15.698 8.37419 15.7046 8.36535 15.7091 8.35652C15.7135 8.34548 15.7202 8.33444 15.7246 8.32339C15.729 8.31456 15.7335 8.30573 15.7379 8.29469C15.7424 8.28364 15.7468 8.2726 15.749 8.26156C15.7535 8.25052 15.7557 8.24168 15.7601 8.23285C15.7646 8.22181 15.7668 8.21077 15.769 8.19972C15.7712 8.18868 15.7734 8.17764 15.7757 8.16881C15.7779 8.15777 15.7801 8.14672 15.7801 8.13568C15.7823 8.12464 15.7845 8.1136 15.7845 8.10035C15.7867 8.0893 15.7867 8.07826 15.7867 8.06943C15.7867 8.05618 15.789 8.04514 15.789 8.03189C15.789 8.02085 15.7867 8.0098 15.7867 8.00097C15.7867 7.98772 15.7845 7.97668 15.7845 7.96343V7.95459C15.7823 7.94576 15.7801 7.93693 15.7801 7.92809C15.7779 7.91926 15.7779 7.91263 15.7757 7.9038C15.7757 7.89938 15.7734 7.89497 15.7734 7.89055C15.7734 7.88834 15.7712 7.88392 15.7712 7.88172C15.5137 6.67153 14.7102 5.60709 13.7201 4.63537C14.1241 4.43882 14.5059 4.1429 14.8211 3.76744C15.0897 3.45165 15.294 3.0983 15.4271 2.73613C16.87 4.36151 17.6691 6.19008 17.709 8.01418C17.709 8.02301 17.7112 8.02964 17.7112 8.03847C17.7112 8.05172 17.7135 8.06497 17.7135 8.07822C17.7157 8.08926 17.7157 8.0981 17.7179 8.10693C17.7201 8.12018 17.7223 8.13122 17.7246 8.14447C17.7268 8.15551 17.729 8.16435 17.7312 8.17539C17.7334 8.18643 17.7379 8.19747 17.7401 8.20852C17.7445 8.21956 17.7468 8.2306 17.7512 8.24164C17.7556 8.25048 17.7579 8.26152 17.7623 8.27035C17.7667 8.28139 17.7734 8.29244 17.7778 8.30348C17.7823 8.31231 17.7867 8.32114 17.7912 8.32777C17.7978 8.33881 17.8045 8.34985 17.8111 8.3609C17.8156 8.36752 17.82 8.37635 17.8267 8.38519C17.8333 8.39623 17.8422 8.40506 17.8489 8.41611C17.8555 8.42273 17.86 8.43156 17.8666 8.43819C17.8733 8.44702 17.8822 8.45586 17.8888 8.46469C17.8955 8.47131 17.9021 8.48015 17.911 8.48677C17.9177 8.4934 17.9266 8.50223 17.9354 8.50886C17.9443 8.51548 17.951 8.52432 17.9599 8.53094C17.9665 8.53757 17.9754 8.54419 17.9843 8.54861C17.9932 8.55523 18.0043 8.56186 18.0131 8.57069C18.022 8.57732 18.0309 8.58174 18.0398 8.58615C18.0509 8.59278 18.0598 8.5994 18.0686 8.60382C18.0797 8.61044 18.0908 8.61486 18.0997 8.61928C18.1086 8.62369 18.1175 8.62811 18.1286 8.63253C18.1419 8.63915 18.1574 8.64357 18.1707 8.64799C18.1774 8.6502 18.1841 8.6524 18.1907 8.65461C18.2129 8.66124 18.2329 8.66786 18.2551 8.67007C18.2795 8.67449 18.3017 8.6789 18.3261 8.68111C19.7534 8.82687 21.1408 9.19125 22.4504 9.76766C22.4593 9.77207 22.4682 9.77428 22.4748 9.77649C22.4859 9.78091 22.497 9.78533 22.5081 9.78974C22.5215 9.79416 22.537 9.79858 22.5503 9.80299C22.5614 9.8052 22.5725 9.80962 22.5814 9.81182C22.5969 9.81624 22.6125 9.81845 22.628 9.82066C22.6369 9.82287 22.6458 9.82287 22.6546 9.82508C22.6791 9.82728 22.7035 9.82949 22.7279 9.82949H22.7301H22.7346C22.7656 9.82949 22.7967 9.82728 22.8278 9.82287C22.8389 9.82066 22.85 9.81845 22.8611 9.81624C22.8811 9.81182 22.901 9.80962 22.921 9.80299C22.9343 9.79858 22.9454 9.79416 22.9587 9.78974C22.9765 9.78312 22.9943 9.77649 23.012 9.76987C23.0253 9.76545 23.0364 9.75662 23.0498 9.74999C23.0653 9.74116 23.0831 9.73453 23.0986 9.72349C23.1097 9.71686 23.1208 9.70803 23.1341 9.6992C23.1496 9.68816 23.163 9.67932 23.1763 9.66828C23.1874 9.65945 23.1985 9.6484 23.2096 9.63736C23.2229 9.62632 23.234 9.61307 23.2473 9.59982C23.2584 9.58878 23.2673 9.57553 23.2784 9.56228C23.2895 9.54903 23.3006 9.53578 23.3095 9.52032C23.3183 9.50707 23.3272 9.49161 23.3339 9.47836C23.3405 9.46732 23.3472 9.45848 23.3539 9.44744C23.3583 9.43861 23.3627 9.42977 23.3672 9.41873V9.41652V9.41431C24.0198 8.08263 23.8267 6.53013 23.3339 4.95778C23.3694 4.95999 23.4049 4.95999 23.4427 4.95999C23.8622 4.95999 24.2973 4.87386 24.7168 4.70602C25.1008 4.55143 25.4471 4.33943 25.7357 4.08323C26.2973 6.44843 26.0243 8.6789 24.9277 10.3818C24.9255 10.384 24.9255 10.3884 24.9232 10.3906C24.9166 10.4017 24.9099 10.4127 24.9033 10.4237C24.8988 10.4326 24.8922 10.4414 24.8877 10.4502C24.8811 10.4613 24.8766 10.4745 24.8722 10.4856C24.8678 10.4944 24.8633 10.5055 24.8611 10.5143C24.8567 10.5253 24.8544 10.5364 24.85 10.5496C24.8478 10.5607 24.8433 10.5695 24.8411 10.5805C24.8389 10.5916 24.8367 10.6026 24.8345 10.6137C24.8322 10.6247 24.83 10.6358 24.8278 10.6468C24.8256 10.6578 24.8256 10.6689 24.8234 10.6799C24.8211 10.691 24.8211 10.702 24.8189 10.713V10.744V10.7771C24.8189 10.7881 24.8211 10.7992 24.8211 10.8102C24.8234 10.8213 24.8234 10.8323 24.8234 10.8433C24.8256 10.8544 24.8278 10.8654 24.8278 10.8765C24.83 10.8875 24.8322 10.8986 24.8345 10.9074C24.8367 10.9184 24.8411 10.9295 24.8433 10.9405C24.8456 10.9516 24.8478 10.9604 24.8522 10.9714C24.8567 10.9825 24.8611 10.9935 24.8655 11.0046C24.87 11.0134 24.8722 11.0244 24.8766 11.0333C24.8811 11.0443 24.8877 11.0553 24.8922 11.0642C24.8966 11.073 24.901 11.0841 24.9077 11.0929C24.9144 11.1039 24.9188 11.1128 24.9255 11.1216C24.9321 11.1304 24.9366 11.1415 24.9432 11.1503C24.9499 11.1591 24.9565 11.168 24.9632 11.1768C24.9699 11.1856 24.9765 11.1967 24.9854 11.2055C24.9921 11.2121 24.9987 11.221 25.0076 11.2276C25.0165 11.2364 25.0254 11.2453 25.0342 11.2541C25.0409 11.2607 25.0498 11.2674 25.0586 11.274C25.0675 11.2828 25.0786 11.2894 25.0875 11.2983C25.0897 11.3005 25.0919 11.3027 25.0964 11.3049C28.5947 13.9042 30.6014 17.8816 30.6014 22.2167C30.6014 26.6644 28.4327 30.8032 24.7836 33.3535C24.828 33.0929 24.8923 32.8345 24.9767 32.574C25.0943 32.2118 24.8923 31.8253 24.5283 31.7083C24.1642 31.5912 23.7758 31.7922 23.6582 32.1544C23.3807 33.009 23.2764 33.8725 23.3407 34.736C23.3407 34.7493 23.343 34.7603 23.343 34.7735C23.4229 35.7828 23.7359 36.7964 24.2797 37.8057C24.2841 37.8145 24.2886 37.8211 24.293 37.83C24.5683 38.3401 24.9034 38.8481 25.2963 39.356C25.4317 39.5326 25.6382 39.6254 25.8446 39.6254C25.9911 39.6254 26.1398 39.579 26.2664 39.4818C26.5682 39.25 26.6259 38.8171 26.3929 38.5168C26.2264 38.3004 26.071 38.0861 25.9289 37.8719C27.0877 37.7019 28.2708 38.2937 28.7925 39.4023C28.9101 39.6519 29.1587 39.7999 29.4207 39.7999C29.5183 39.7999 29.6182 39.78 29.7137 39.7358C30.06 39.5746 30.2087 39.1661 30.0466 38.8215C29.1965 36.993 27.1387 36.0944 25.2431 36.62ZM4.7392 24.1936C6.91676 24.1936 8.09101 24.9909 8.09101 25.3155C8.09101 25.6401 6.91676 26.4374 4.7392 26.4374C2.56164 26.4374 1.38739 25.6401 1.38739 25.3155C1.38739 24.9909 2.56164 24.1936 4.7392 24.1936ZM4.40846 4.72413C4.29303 5.09735 4.08437 5.4242 3.83577 5.62071C3.75364 5.68476 3.5472 5.8283 3.37628 5.7753C3.20314 5.7223 3.11435 5.48821 3.08549 5.38884C2.99226 5.08849 3.00557 4.70205 3.12101 4.3266C3.23643 3.95338 3.44509 3.62653 3.6937 3.43001C3.76251 3.3748 3.92233 3.26218 4.0755 3.26218C4.10213 3.26218 4.12877 3.26659 4.15541 3.27322C4.41734 3.35493 4.64597 3.96 4.40846 4.72413ZM14.22 1.91502C14.1867 2.22861 14.0247 2.57976 13.7716 2.88007C13.5186 3.1782 13.1989 3.39904 12.8948 3.48516C12.7949 3.51387 12.5485 3.56687 12.4109 3.44983C12.2733 3.33499 12.2821 3.08323 12.2932 2.97944C12.3265 2.66585 12.4886 2.3147 12.7416 2.01439C12.9947 1.71626 13.3143 1.49542 13.6184 1.4093C13.6717 1.39384 13.7649 1.37175 13.8626 1.37175C13.9492 1.37175 14.038 1.38942 14.1024 1.44242C14.24 1.55947 14.2311 1.81122 14.22 1.91502ZM25.0635 2.79397C24.8881 3.05456 24.5774 3.28865 24.2111 3.43439C23.8471 3.58015 23.4608 3.62432 23.15 3.55806C23.0479 3.53598 22.806 3.46752 22.7394 3.29968C22.6373 3.04572 22.9636 2.48699 23.7094 2.18888C23.9625 2.0873 24.2266 2.0343 24.4685 2.0343C24.5729 2.0343 24.675 2.04534 24.7704 2.06521C24.8725 2.0873 25.1145 2.15576 25.1811 2.3236C25.2477 2.48923 25.1212 2.70784 25.0635 2.79397Z" fill="url(#paint0_linear_3_1432)"/>
<defs>
<linearGradient id="paint0_linear_3_1432" x1="24.1717" y1="38.9219" x2="-6.88058" y2="29.9505" gradientUnits="userSpaceOnUse">
<stop stop-color="#55097B"/>
<stop offset="1" stop-color="#F00045"/>
</linearGradient>
</defs>
</svg>
