<svg width="23" height="53" viewBox="0 0 23 53" fill="none" xmlns="http://www.w3.org/2000/svg">
<path d="M9.44084 10.5031C5.46424 11.8678 0.800269 15.1359 0.748854 19.8595C0.717612 22.8163 1.03003 25.9518 1.36252 29.2707C1.84454 34.0869 2.34443 39.0687 1.69056 43.4408C1.14606 47.0887 2.31314 50.1408 4.8884 51.8164C6.10014 52.6047 7.49708 53 8.88511 53C10.1861 53 11.4804 52.6533 12.6162 51.9555C15.2852 50.3148 16.5304 47.051 16.0305 42.9965C15.91 42.0226 15.7561 41.1747 15.6043 40.3554C14.9772 36.9348 14.5622 34.6758 17.885 29.2969C24.0148 19.3706 23.0309 14.4993 21.1274 12.159C18.9383 9.46934 14.3504 8.81816 9.44084 10.5031ZM21.7279 18.4705C21.2793 21.3677 19.7842 24.8879 17.2871 28.9332C13.826 34.54 14.2834 37.0307 14.915 40.4802C15.0645 41.2907 15.2163 42.1276 15.3345 43.0816C15.9705 48.2466 13.6743 50.486 12.2483 51.3622C10.1663 52.6407 7.36789 52.5878 5.2793 51.2319C2.94061 49.7126 1.88957 46.9104 2.39167 43.5426C3.05669 39.0842 2.55457 34.0607 2.06586 29.2024C1.73559 25.9033 1.42317 22.7873 1.45442 19.868C1.50128 15.5068 5.91084 12.4529 9.67339 11.1634C11.8001 10.4347 14.016 10.1454 15.9129 10.3552C17.9525 10.5782 19.5659 11.3555 20.5791 12.601C21.7261 14.0077 22.1117 15.984 21.7279 18.4705ZM22.3215 0.853253C21.8372 0.323277 21.1678 0.0207239 20.4381 0.000881617C18.9407 -0.0366582 17.633 1.12929 17.5281 2.61102L17.2625 6.34296C17.2112 7.06503 17.45 7.75403 17.9342 8.28401C18.4185 8.81398 19.0879 9.11653 19.8177 9.13638C19.8445 9.13638 19.869 9.13859 19.8958 9.13859C21.3619 9.13859 22.6227 7.98366 22.7276 6.52844L22.9932 2.7965C23.0445 2.07223 22.8057 1.38103 22.3215 0.853253ZM22.2903 2.74353L22.0247 6.47547C21.9466 7.58845 20.9692 8.46728 19.8378 8.43862C19.3022 8.42316 18.8113 8.20233 18.4564 7.81587C18.1016 7.42943 17.9276 6.92156 17.9655 6.39158L18.2311 2.65964C18.3092 1.56656 19.2576 0.696494 20.36 0.696494C20.3801 0.696494 20.4001 0.696493 20.4202 0.698702C20.9558 0.714159 21.4468 0.934983 21.8016 1.32145C22.1542 1.70788 22.3282 2.21355 22.2903 2.74353ZM12.0718 6.3827C12.1254 7.44045 13.0135 8.26631 14.0735 8.26631C14.107 8.26631 14.1405 8.26631 14.1739 8.2641C14.7073 8.2376 15.1982 8.00574 15.5597 7.6127C15.919 7.21963 16.1042 6.71171 16.0775 6.18399L15.9101 2.92024C15.8833 2.39248 15.649 1.90665 15.2518 1.54892C14.8546 1.19339 14.3413 1.01011 13.808 1.03661C13.2747 1.06311 12.7837 1.29497 12.4222 1.68801C12.0629 2.08108 11.8777 2.589 11.9045 3.11672L12.0718 6.3827ZM12.9466 2.15612C13.1809 1.89997 13.5 1.7498 13.8436 1.73435C14.1895 1.71668 14.5198 1.83593 14.7786 2.06559C15.0375 2.29745 15.1892 2.61323 15.2049 2.95329L15.37 6.21704C15.3878 6.55932 15.2673 6.88614 15.0353 7.14228C14.8009 7.39843 14.4841 7.54859 14.1382 7.56405C13.4219 7.60159 12.8104 7.05174 12.7747 6.34287L12.6096 3.07912C12.594 2.74126 12.7122 2.41226 12.9466 2.15612ZM7.6868 7.73192C7.79168 8.64394 8.57496 9.31744 9.48095 9.31744C9.55013 9.31744 9.61931 9.31303 9.68849 9.3064C10.166 9.2512 10.5945 9.01492 10.8958 8.63951C11.197 8.26411 11.3331 7.79816 11.2774 7.32341L10.9449 4.46154C10.8311 3.48107 9.93399 2.77664 8.94316 2.88705C7.95234 2.99967 7.24047 3.88736 7.35204 4.86783L7.6868 7.73192ZM9.02347 3.58268C9.62823 3.51422 10.1772 3.94482 10.2441 4.54325L10.5766 7.40512C10.6101 7.69219 10.5275 7.97704 10.3423 8.20673C10.1593 8.43638 9.896 8.57992 9.60587 8.61304C9.00112 8.68371 8.45218 8.25089 8.38523 7.65247L8.05272 4.7906C7.98578 4.19216 8.42097 3.65113 9.02347 3.58268ZM3.85741 9.71062C3.97568 10.5387 4.6965 11.1371 5.51766 11.1371C5.59576 11.1371 5.6761 11.1327 5.7542 11.1217C6.19605 11.0598 6.58878 10.8302 6.85882 10.4747C7.12887 10.1192 7.24265 9.68193 7.18017 9.24466L6.8075 6.64775C6.67807 5.74015 5.82559 5.10859 4.91069 5.23669C3.9935 5.36476 3.35527 6.20834 3.48472 7.11368L3.85741 9.71062ZM5.00888 5.92571C5.05574 5.91908 5.10037 5.91688 5.14724 5.91688C5.62479 5.91688 6.04209 6.26578 6.11127 6.74494L6.48393 9.34185C6.51964 9.5958 6.45492 9.84754 6.29649 10.0551C6.14028 10.2627 5.91266 10.3952 5.65603 10.4305C5.12492 10.5056 4.63173 10.1368 4.55586 9.61126L4.18319 7.01434C4.10732 6.48878 4.47777 6.00078 5.00888 5.92571ZM0.898365 13.277C1.16169 13.4757 1.4741 13.5795 1.79767 13.5795C1.86462 13.5795 1.93379 13.5751 2.00074 13.5663C2.3935 13.5133 2.74386 13.3101 2.98488 12.9965C3.22589 12.683 3.33077 12.2943 3.27498 11.9057L2.96703 9.67315C2.91347 9.2845 2.70817 8.9378 2.3913 8.69929C2.07441 8.4608 1.68165 8.35701 1.2889 8.41222C0.896148 8.46522 0.545784 8.66838 0.304762 8.98194C0.0637401 9.2955 -0.0411296 9.68417 0.0146614 10.0728L0.322615 12.3053C0.376172 12.6918 0.581489 13.0363 0.898365 13.277ZM0.867123 9.3993C0.994324 9.23368 1.17954 9.12548 1.38708 9.09898C1.42278 9.09457 1.45849 9.09236 1.49419 9.09236C1.66379 9.09236 1.82893 9.14756 1.96951 9.25135C2.13688 9.37722 2.24623 9.5605 2.273 9.76587L2.58096 11.9984C2.63898 12.4246 2.33772 12.8176 1.90702 12.8751C1.47633 12.9325 1.07912 12.6344 1.02108 12.2082L0.71313 9.97566C0.684119 9.77029 0.739925 9.5649 0.867123 9.3993ZM15.2319 14.5621C13.6051 14.5621 12.2818 15.8716 12.2818 17.4815C12.2818 19.0913 13.6051 20.4008 15.2319 20.4008C16.8587 20.4008 18.182 19.0913 18.182 17.4815C18.182 15.8738 16.8587 14.5621 15.2319 14.5621ZM15.2319 19.7074C13.9934 19.7074 12.9847 18.7115 12.9847 17.4837C12.9847 16.2581 13.9911 15.26 15.2319 15.26C16.4704 15.26 17.4791 16.2559 17.4791 17.4837C17.4791 18.7093 16.4704 19.7074 15.2319 19.7074ZM15.2319 15.9666C14.3861 15.9666 13.6988 16.6467 13.6988 17.4837C13.6988 18.3206 14.3861 19.0007 15.2319 19.0007C16.0777 19.0007 16.765 18.3206 16.765 17.4837C16.765 16.6467 16.0777 15.9666 15.2319 15.9666ZM15.2319 18.3029C14.7744 18.3029 14.404 17.9363 14.404 17.4837C14.404 17.031 14.7744 16.6644 15.2319 16.6644C15.6894 16.6644 16.0598 17.031 16.0598 17.4837C16.0598 17.9363 15.6894 18.3029 15.2319 18.3029Z" fill="black"/>
<path d="M9.44084 10.5031C5.46424 11.8678 0.800269 15.1359 0.748854 19.8595C0.717612 22.8163 1.03003 25.9518 1.36252 29.2707C1.84454 34.0869 2.34443 39.0687 1.69056 43.4408C1.14606 47.0887 2.31314 50.1408 4.8884 51.8164C6.10014 52.6047 7.49708 53 8.88511 53C10.1861 53 11.4804 52.6533 12.6162 51.9555C15.2852 50.3148 16.5304 47.051 16.0305 42.9965C15.91 42.0226 15.7561 41.1747 15.6043 40.3554C14.9772 36.9348 14.5622 34.6758 17.885 29.2969C24.0148 19.3706 23.0309 14.4993 21.1274 12.159C18.9383 9.46934 14.3504 8.81816 9.44084 10.5031ZM21.7279 18.4705C21.2793 21.3677 19.7842 24.8879 17.2871 28.9332C13.826 34.54 14.2834 37.0307 14.915 40.4802C15.0645 41.2907 15.2163 42.1276 15.3345 43.0816C15.9705 48.2466 13.6743 50.486 12.2483 51.3622C10.1663 52.6407 7.36789 52.5878 5.2793 51.2319C2.94061 49.7126 1.88957 46.9104 2.39167 43.5426C3.05669 39.0842 2.55457 34.0607 2.06586 29.2024C1.73559 25.9033 1.42317 22.7873 1.45442 19.868C1.50128 15.5068 5.91084 12.4529 9.67339 11.1634C11.8001 10.4347 14.016 10.1454 15.9129 10.3552C17.9525 10.5782 19.5659 11.3555 20.5791 12.601C21.7261 14.0077 22.1117 15.984 21.7279 18.4705ZM22.3215 0.853253C21.8372 0.323277 21.1678 0.0207239 20.4381 0.000881617C18.9407 -0.0366582 17.633 1.12929 17.5281 2.61102L17.2625 6.34296C17.2112 7.06503 17.45 7.75403 17.9342 8.28401C18.4185 8.81398 19.0879 9.11653 19.8177 9.13638C19.8445 9.13638 19.869 9.13859 19.8958 9.13859C21.3619 9.13859 22.6227 7.98366 22.7276 6.52844L22.9932 2.7965C23.0445 2.07223 22.8057 1.38103 22.3215 0.853253ZM22.2903 2.74353L22.0247 6.47547C21.9466 7.58845 20.9692 8.46728 19.8378 8.43862C19.3022 8.42316 18.8113 8.20233 18.4564 7.81587C18.1016 7.42943 17.9276 6.92156 17.9655 6.39158L18.2311 2.65964C18.3092 1.56656 19.2576 0.696494 20.36 0.696494C20.3801 0.696494 20.4001 0.696493 20.4202 0.698702C20.9558 0.714159 21.4468 0.934983 21.8016 1.32145C22.1542 1.70788 22.3282 2.21355 22.2903 2.74353ZM12.0718 6.3827C12.1254 7.44045 13.0135 8.26631 14.0735 8.26631C14.107 8.26631 14.1405 8.26631 14.1739 8.2641C14.7073 8.2376 15.1982 8.00574 15.5597 7.6127C15.919 7.21963 16.1042 6.71171 16.0775 6.18399L15.9101 2.92024C15.8833 2.39248 15.649 1.90665 15.2518 1.54892C14.8546 1.19339 14.3413 1.01011 13.808 1.03661C13.2747 1.06311 12.7837 1.29497 12.4222 1.68801C12.0629 2.08108 11.8777 2.589 11.9045 3.11672L12.0718 6.3827ZM12.9466 2.15612C13.1809 1.89997 13.5 1.7498 13.8436 1.73435C14.1895 1.71668 14.5198 1.83593 14.7786 2.06559C15.0375 2.29745 15.1892 2.61323 15.2049 2.95329L15.37 6.21704C15.3878 6.55932 15.2673 6.88614 15.0353 7.14228C14.8009 7.39843 14.4841 7.54859 14.1382 7.56405C13.4219 7.60159 12.8104 7.05174 12.7747 6.34287L12.6096 3.07912C12.594 2.74126 12.7122 2.41226 12.9466 2.15612ZM7.6868 7.73192C7.79168 8.64394 8.57496 9.31744 9.48095 9.31744C9.55013 9.31744 9.61931 9.31303 9.68849 9.3064C10.166 9.2512 10.5945 9.01492 10.8958 8.63951C11.197 8.26411 11.3331 7.79816 11.2774 7.32341L10.9449 4.46154C10.8311 3.48107 9.93399 2.77664 8.94316 2.88705C7.95234 2.99967 7.24047 3.88736 7.35204 4.86783L7.6868 7.73192ZM9.02347 3.58268C9.62823 3.51422 10.1772 3.94482 10.2441 4.54325L10.5766 7.40512C10.6101 7.69219 10.5275 7.97704 10.3423 8.20673C10.1593 8.43638 9.896 8.57992 9.60587 8.61304C9.00112 8.68371 8.45218 8.25089 8.38523 7.65247L8.05272 4.7906C7.98578 4.19216 8.42097 3.65113 9.02347 3.58268ZM3.85741 9.71062C3.97568 10.5387 4.6965 11.1371 5.51766 11.1371C5.59576 11.1371 5.6761 11.1327 5.7542 11.1217C6.19605 11.0598 6.58878 10.8302 6.85882 10.4747C7.12887 10.1192 7.24265 9.68193 7.18017 9.24466L6.8075 6.64775C6.67807 5.74015 5.82559 5.10859 4.91069 5.23669C3.9935 5.36476 3.35527 6.20834 3.48472 7.11368L3.85741 9.71062ZM5.00888 5.92571C5.05574 5.91908 5.10037 5.91688 5.14724 5.91688C5.62479 5.91688 6.04209 6.26578 6.11127 6.74494L6.48393 9.34185C6.51964 9.5958 6.45492 9.84754 6.29649 10.0551C6.14028 10.2627 5.91266 10.3952 5.65603 10.4305C5.12492 10.5056 4.63173 10.1368 4.55586 9.61126L4.18319 7.01434C4.10732 6.48878 4.47777 6.00078 5.00888 5.92571ZM0.898365 13.277C1.16169 13.4757 1.4741 13.5795 1.79767 13.5795C1.86462 13.5795 1.93379 13.5751 2.00074 13.5663C2.3935 13.5133 2.74386 13.3101 2.98488 12.9965C3.22589 12.683 3.33077 12.2943 3.27498 11.9057L2.96703 9.67315C2.91347 9.2845 2.70817 8.9378 2.3913 8.69929C2.07441 8.4608 1.68165 8.35701 1.2889 8.41222C0.896148 8.46522 0.545784 8.66838 0.304762 8.98194C0.0637401 9.2955 -0.0411296 9.68417 0.0146614 10.0728L0.322615 12.3053C0.376172 12.6918 0.581489 13.0363 0.898365 13.277ZM0.867123 9.3993C0.994324 9.23368 1.17954 9.12548 1.38708 9.09898C1.42278 9.09457 1.45849 9.09236 1.49419 9.09236C1.66379 9.09236 1.82893 9.14756 1.96951 9.25135C2.13688 9.37722 2.24623 9.5605 2.273 9.76587L2.58096 11.9984C2.63898 12.4246 2.33772 12.8176 1.90702 12.8751C1.47633 12.9325 1.07912 12.6344 1.02108 12.2082L0.71313 9.97566C0.684119 9.77029 0.739925 9.5649 0.867123 9.3993ZM15.2319 14.5621C13.6051 14.5621 12.2818 15.8716 12.2818 17.4815C12.2818 19.0913 13.6051 20.4008 15.2319 20.4008C16.8587 20.4008 18.182 19.0913 18.182 17.4815C18.182 15.8738 16.8587 14.5621 15.2319 14.5621ZM15.2319 19.7074C13.9934 19.7074 12.9847 18.7115 12.9847 17.4837C12.9847 16.2581 13.9911 15.26 15.2319 15.26C16.4704 15.26 17.4791 16.2559 17.4791 17.4837C17.4791 18.7093 16.4704 19.7074 15.2319 19.7074ZM15.2319 15.9666C14.3861 15.9666 13.6988 16.6467 13.6988 17.4837C13.6988 18.3206 14.3861 19.0007 15.2319 19.0007C16.0777 19.0007 16.765 18.3206 16.765 17.4837C16.765 16.6467 16.0777 15.9666 15.2319 15.9666ZM15.2319 18.3029C14.7744 18.3029 14.404 17.9363 14.404 17.4837C14.404 17.031 14.7744 16.6644 15.2319 16.6644C15.6894 16.6644 16.0598 17.031 16.0598 17.4837C16.0598 17.9363 15.6894 18.3029 15.2319 18.3029Z" fill="url(#paint0_linear_3_1435)"/>
<defs>
<linearGradient id="paint0_linear_3_1435" x1="17.3734" y1="38.9219" x2="-5.80873" y2="34.108" gradientUnits="userSpaceOnUse">
<stop stop-color="#55097B"/>
<stop offset="1" stop-color="#F00045"/>
</linearGradient>
</defs>
</svg>
