<svg width="109" height="120" viewBox="0 0 109 120" fill="none" xmlns="http://www.w3.org/2000/svg">
<path d="M107.427 29.4931C106.977 28.5857 106.303 28.1321 105.179 28.1321C94.8412 28.3589 84.0536 28.3589 73.7155 28.3589H73.4907C79.5588 25.6369 84.7278 22.2344 88.099 18.1514C92.1443 13.3878 93.268 8.17064 91.2454 3.86078C90.5711 2.27294 88.3237 -0.222238 82.7051 0.6851C73.0412 2.04611 56.6351 12.2537 51.9155 24.2759C39.7794 7.9438 30.3402 -0.222236 23.8227 0.00459856C21.1258 0.00459856 18.8784 1.3656 17.3052 3.86078C15.2825 6.80963 15.0577 10.2121 16.1814 13.6147C18.4289 19.7392 25.3959 25.1832 31.6887 28.5857H3.59588C2.24742 28.5857 1.34845 29.4931 1.12371 30.8541L0 58.0742C0 58.7547 0.224745 59.4352 0.674229 59.8889C1.12371 60.3426 1.79794 60.5694 2.47217 60.5694H8.76495C8.98969 63.7451 9.88866 79.1698 9.88866 85.9748C9.88866 93.914 9.88866 117.278 9.88866 117.278C9.88866 118.639 11.0124 119.773 12.3608 119.773C12.3608 119.773 49.8928 119.773 61.5794 119.773C65.6247 119.773 69.6701 119.773 73.7155 119.773C82.7051 119.546 92.1443 119.546 101.134 120C101.134 120 101.134 120 101.359 120C102.482 120 103.381 119.093 103.606 117.958C104.73 112.061 103.831 106.163 102.932 100.492C102.707 98.9044 102.482 97.3166 102.258 95.7287C101.584 89.6042 102.707 67.1476 103.157 59.8889H106.753C108.101 59.8889 109 58.7547 109 57.6205C108.775 51.496 109 33.1224 107.427 29.4931ZM83.3794 5.22179C83.8289 5.22179 84.2783 5.22179 84.7278 5.22179C85.8515 5.22179 86.7505 5.44863 86.9753 5.90229C88.5484 9.07798 86.5258 12.4805 84.5031 14.9757C78.8845 21.5539 67.4227 26.9979 55.5113 27.9052C58.2082 17.0172 74.1649 6.35596 83.3794 5.22179ZM20.6763 11.5732C20.0021 9.53165 20.2268 7.71697 21.3505 6.12913C22.2495 4.76812 23.1485 4.54129 23.8227 4.54129C28.767 4.54129 37.7567 13.161 48.5443 28.1321C45.1732 27.9052 42.0268 27.4516 38.8804 26.3174C33.0371 24.049 22.9237 17.6977 20.6763 11.5732ZM5.8433 32.8956H50.7918L50.567 54.8985L4.94433 55.3522L5.8433 32.8956ZM97.0887 95.7287C97.3134 97.3166 97.5381 98.9044 97.7629 100.719C98.4371 105.256 99.1113 110.019 98.8866 114.329C90.3464 113.875 81.8062 114.102 73.266 114.102C69.2206 114.102 65.1753 114.102 61.1299 114.102C59.5567 114.102 57.534 114.102 55.2866 114.102C55.2866 112.741 55.2866 90.2847 55.2866 69.6428C55.2866 68.2818 54.1629 67.1476 52.8144 67.1476C51.466 67.1476 50.3423 68.2818 50.3423 69.6428C50.3423 90.2847 50.3423 112.514 50.3423 114.102C37.7567 114.102 20.4515 114.102 14.1588 114.102C14.1588 107.978 14.1588 91.4189 14.1588 85.0675C14.1588 78.2625 13.2598 63.2914 13.2598 59.6621L97.9876 58.9815C97.5381 67.1476 96.1897 89.1505 97.0887 95.7287ZM103.831 54.4449H100.909C100.685 54.4449 100.685 54.4449 100.685 54.4449C100.46 54.4449 100.235 54.4449 99.7856 54.4449L55.2866 54.6717L55.5113 32.6688H59.7814C64.501 32.6688 68.9959 32.6688 73.7155 32.6688C83.3794 32.6688 93.4928 32.6688 103.381 32.6688C103.831 36.5249 104.056 45.8251 103.831 54.4449Z" fill="white"/>
</svg>
