<svg width="52" height="52" viewBox="0 0 52 52" fill="none" xmlns="http://www.w3.org/2000/svg">
<path d="M22.1665 22.1729C20.3065 24.0329 20.3065 27.0584 22.1665 28.9183C23.0666 29.8197 24.2651 30.3162 25.5398 30.3162C26.8145 30.3162 28.0117 29.8197 28.9131 28.9183C30.7731 27.0584 30.7731 24.0329 28.9131 22.1729C27.0519 20.313 24.0252 20.313 22.1665 22.1729ZM27.6029 27.6094C26.4996 28.7126 24.5787 28.7126 23.4754 27.6094C22.3379 26.4718 22.3379 24.6195 23.4754 23.4819C24.0442 22.9131 24.7907 22.6287 25.5385 22.6287C26.2863 22.6287 27.0341 22.9131 27.6029 23.4819C28.7405 24.6207 28.7405 26.4718 27.6029 27.6094Z" fill="black"/>
<path d="M22.1665 22.1729C20.3065 24.0329 20.3065 27.0584 22.1665 28.9183C23.0666 29.8197 24.2651 30.3162 25.5398 30.3162C26.8145 30.3162 28.0117 29.8197 28.9131 28.9183C30.7731 27.0584 30.7731 24.0329 28.9131 22.1729C27.0519 20.313 24.0252 20.313 22.1665 22.1729ZM27.6029 27.6094C26.4996 28.7126 24.5787 28.7126 23.4754 27.6094C22.3379 26.4718 22.3379 24.6195 23.4754 23.4819C24.0442 22.9131 24.7907 22.6287 25.5385 22.6287C26.2863 22.6287 27.0341 22.9131 27.6029 23.4819C28.7405 24.6207 28.7405 26.4718 27.6029 27.6094Z" fill="url(#paint0_linear_3_1444)"/>
<path d="M35.4495 34.1466C35.0876 33.7848 34.5024 33.7848 34.1405 34.1466C33.7787 34.5085 33.7787 35.0937 34.1405 35.4556L36.8156 38.1306C36.9959 38.3109 37.2333 38.4023 37.4707 38.4023C37.7081 38.4023 37.9442 38.3122 38.1258 38.1306C38.4876 37.7688 38.4876 37.1835 38.1258 36.8217L35.4495 34.1466Z" fill="black"/>
<path d="M35.4495 34.1466C35.0876 33.7848 34.5024 33.7848 34.1405 34.1466C33.7787 34.5085 33.7787 35.0937 34.1405 35.4556L36.8156 38.1306C36.9959 38.3109 37.2333 38.4023 37.4707 38.4023C37.7081 38.4023 37.9442 38.3122 38.1258 38.1306C38.4876 37.7688 38.4876 37.1835 38.1258 36.8217L35.4495 34.1466Z" fill="url(#paint1_linear_3_1444)"/>
<path d="M15.5561 2.17172C16.0487 2.32027 16.5629 2.04222 16.7102 1.5547C16.8587 1.06463 16.5819 0.547903 16.0931 0.400629C12.2158 -0.771213 7.5119 0.677402 4.0954 4.09517C0.668748 7.52182 -0.777328 12.2409 0.40848 16.1183C0.530361 16.517 0.897276 16.7734 1.29339 16.7734C1.38353 16.7734 1.47368 16.7607 1.56509 16.7328C2.05388 16.583 2.32939 16.065 2.17957 15.5762C1.19182 12.345 2.45762 8.35341 5.40436 5.4054C8.34222 2.46373 12.3288 1.18905 15.5561 2.17172Z" fill="black"/>
<path d="M15.5561 2.17172C16.0487 2.32027 16.5629 2.04222 16.7102 1.5547C16.8587 1.06463 16.5819 0.547903 16.0931 0.400629C12.2158 -0.771213 7.5119 0.677402 4.0954 4.09517C0.668748 7.52182 -0.777328 12.2409 0.40848 16.1183C0.530361 16.517 0.897276 16.7734 1.29339 16.7734C1.38353 16.7734 1.47368 16.7607 1.56509 16.7328C2.05388 16.583 2.32939 16.065 2.17957 15.5762C1.19182 12.345 2.45762 8.35341 5.40436 5.4054C8.34222 2.46373 12.3288 1.18905 15.5561 2.17172Z" fill="url(#paint2_linear_3_1444)"/>
<path d="M8.59421 14.9286C8.13969 13.447 8.7618 11.5236 10.1419 10.1448C11.5371 8.74822 13.4085 8.13627 14.9181 8.5946C15.4069 8.74441 15.9236 8.46637 16.0722 7.9763C16.2207 7.4875 15.9439 6.97078 15.4539 6.82223C13.3057 6.16966 10.7056 6.96189 8.8329 8.83582C6.95262 10.7148 6.16419 13.3188 6.82312 15.472C6.945 15.8707 7.31191 16.1271 7.70803 16.1271C7.79817 16.1271 7.88831 16.1144 7.97972 16.0865C8.46979 15.9367 8.74402 15.4187 8.59421 14.9286Z" fill="black"/>
<path d="M8.59421 14.9286C8.13969 13.447 8.7618 11.5236 10.1419 10.1448C11.5371 8.74822 13.4085 8.13627 14.9181 8.5946C15.4069 8.74441 15.9236 8.46637 16.0722 7.9763C16.2207 7.4875 15.9439 6.97078 15.4539 6.82223C13.3057 6.16966 10.7056 6.96189 8.8329 8.83582C6.95262 10.7148 6.16419 13.3188 6.82312 15.472C6.945 15.8707 7.31191 16.1271 7.70803 16.1271C7.79817 16.1271 7.88831 16.1144 7.97972 16.0865C8.46979 15.9367 8.74402 15.4187 8.59421 14.9286Z" fill="url(#paint3_linear_3_1444)"/>
<path d="M51.7283 50.4252L47.192 45.8889C47.5373 45.3112 47.7341 44.6549 47.7341 43.9642C47.7341 42.9536 47.3405 42.0052 46.627 41.293L45.8335 40.4982C46.0379 39.791 46.1788 39.0635 46.1788 38.3081C46.1788 36.2044 45.36 34.2251 43.8707 32.7384L38.3759 27.2435C36.535 25.4026 36.535 22.4064 38.3759 20.5654C38.7377 20.2036 38.7377 19.6183 38.3759 19.2565L27.2313 8.11065C27.2047 8.08399 27.1716 8.07383 27.1424 8.05225C27.0929 8.01289 27.0434 7.97734 26.9863 7.94941C26.933 7.92275 26.8796 7.90371 26.8225 7.88847C26.7654 7.87197 26.7108 7.86054 26.6511 7.85546C26.5876 7.85038 26.528 7.85419 26.4657 7.86181C26.4302 7.86562 26.3946 7.85673 26.3591 7.86562C17.1583 10.0773 10.0688 17.1667 7.8572 26.3675C7.84831 26.4031 7.8572 26.4373 7.85339 26.4729C7.84577 26.5351 7.84196 26.5961 7.84704 26.6583C7.85212 26.7192 7.86481 26.7738 7.88132 26.8322C7.89655 26.8881 7.9156 26.9401 7.94099 26.9934C7.97019 27.0518 8.00574 27.1026 8.04764 27.1534C8.06922 27.1801 8.07938 27.2131 8.10477 27.2385L19.2506 38.3843C19.6124 38.7461 20.1977 38.7461 20.5596 38.3843C22.3433 36.6005 25.4551 36.6018 27.2377 38.3843L32.7325 43.8791C34.2687 45.4141 36.2861 46.1822 38.3022 46.1822C39.0411 46.1822 39.7724 46.0425 40.4885 45.8369L41.2871 46.6354C42.0006 47.349 42.949 47.7413 43.957 47.7413C44.6477 47.7413 45.3041 47.5445 45.883 47.1991L50.4193 51.7354C50.5996 51.9157 50.837 52.0071 51.0744 52.0071C51.3118 52.0071 51.548 51.917 51.7295 51.7354C52.0901 51.3723 52.0901 50.787 51.7283 50.4252ZM26.3032 9.80049L28.9313 12.4286C21.009 14.8738 14.8679 21.0149 12.4227 28.9372L9.79461 26.3091C11.9301 18.1938 18.1879 11.936 26.3032 9.80049ZM34.0402 42.5676L28.5453 37.0728C26.2829 34.8116 22.4602 34.5704 19.9489 36.4634L13.9272 30.4417C16.0626 22.3264 22.3205 16.0685 30.4358 13.933L36.4588 19.956C34.5239 22.5295 34.7258 26.2101 37.0669 28.5512L42.5618 34.0461C43.7006 35.1849 44.3265 36.697 44.3265 38.3069C44.3265 39.9167 43.6993 41.4288 42.5618 42.5676C40.213 44.9164 36.3902 44.9189 34.0402 42.5676ZM42.596 45.3239L42.3218 45.051C42.8715 44.7234 43.3997 44.3502 43.872 43.8779C44.3392 43.4106 44.715 42.8812 45.0464 42.3289L45.3193 42.6019C45.6824 42.965 45.883 43.4487 45.883 43.9642C45.883 44.4784 45.6824 44.9621 45.3193 45.3252C44.5677 46.0743 43.3464 46.0743 42.596 45.3239Z" fill="black"/>
<path d="M51.7283 50.4252L47.192 45.8889C47.5373 45.3112 47.7341 44.6549 47.7341 43.9642C47.7341 42.9536 47.3405 42.0052 46.627 41.293L45.8335 40.4982C46.0379 39.791 46.1788 39.0635 46.1788 38.3081C46.1788 36.2044 45.36 34.2251 43.8707 32.7384L38.3759 27.2435C36.535 25.4026 36.535 22.4064 38.3759 20.5654C38.7377 20.2036 38.7377 19.6183 38.3759 19.2565L27.2313 8.11065C27.2047 8.08399 27.1716 8.07383 27.1424 8.05225C27.0929 8.01289 27.0434 7.97734 26.9863 7.94941C26.933 7.92275 26.8796 7.90371 26.8225 7.88847C26.7654 7.87197 26.7108 7.86054 26.6511 7.85546C26.5876 7.85038 26.528 7.85419 26.4657 7.86181C26.4302 7.86562 26.3946 7.85673 26.3591 7.86562C17.1583 10.0773 10.0688 17.1667 7.8572 26.3675C7.84831 26.4031 7.8572 26.4373 7.85339 26.4729C7.84577 26.5351 7.84196 26.5961 7.84704 26.6583C7.85212 26.7192 7.86481 26.7738 7.88132 26.8322C7.89655 26.8881 7.9156 26.9401 7.94099 26.9934C7.97019 27.0518 8.00574 27.1026 8.04764 27.1534C8.06922 27.1801 8.07938 27.2131 8.10477 27.2385L19.2506 38.3843C19.6124 38.7461 20.1977 38.7461 20.5596 38.3843C22.3433 36.6005 25.4551 36.6018 27.2377 38.3843L32.7325 43.8791C34.2687 45.4141 36.2861 46.1822 38.3022 46.1822C39.0411 46.1822 39.7724 46.0425 40.4885 45.8369L41.2871 46.6354C42.0006 47.349 42.949 47.7413 43.957 47.7413C44.6477 47.7413 45.3041 47.5445 45.883 47.1991L50.4193 51.7354C50.5996 51.9157 50.837 52.0071 51.0744 52.0071C51.3118 52.0071 51.548 51.917 51.7295 51.7354C52.0901 51.3723 52.0901 50.787 51.7283 50.4252ZM26.3032 9.80049L28.9313 12.4286C21.009 14.8738 14.8679 21.0149 12.4227 28.9372L9.79461 26.3091C11.9301 18.1938 18.1879 11.936 26.3032 9.80049ZM34.0402 42.5676L28.5453 37.0728C26.2829 34.8116 22.4602 34.5704 19.9489 36.4634L13.9272 30.4417C16.0626 22.3264 22.3205 16.0685 30.4358 13.933L36.4588 19.956C34.5239 22.5295 34.7258 26.2101 37.0669 28.5512L42.5618 34.0461C43.7006 35.1849 44.3265 36.697 44.3265 38.3069C44.3265 39.9167 43.6993 41.4288 42.5618 42.5676C40.213 44.9164 36.3902 44.9189 34.0402 42.5676ZM42.596 45.3239L42.3218 45.051C42.8715 44.7234 43.3997 44.3502 43.872 43.8779C44.3392 43.4106 44.715 42.8812 45.0464 42.3289L45.3193 42.6019C45.6824 42.965 45.883 43.4487 45.883 43.9642C45.883 44.4784 45.6824 44.9621 45.3193 45.3252C44.5677 46.0743 43.3464 46.0743 42.596 45.3239Z" fill="url(#paint4_linear_3_1444)"/>
<defs>
<linearGradient id="paint0_linear_3_1444" x1="27.9751" y1="27.7826" x2="19.8161" y2="23.879" gradientUnits="userSpaceOnUse">
<stop stop-color="#55097B"/>
<stop offset="1" stop-color="#F00045"/>
</linearGradient>
<linearGradient id="paint1_linear_3_1444" x1="37.2895" y1="37.1998" x2="33.416" y2="35.346" gradientUnits="userSpaceOnUse">
<stop stop-color="#55097B"/>
<stop offset="1" stop-color="#F00045"/>
</linearGradient>
<linearGradient id="paint2_linear_3_1444" x1="12.6526" y1="12.318" x2="-1.6846" y2="5.46697" gradientUnits="userSpaceOnUse">
<stop stop-color="#55097B"/>
<stop offset="1" stop-color="#F00045"/>
</linearGradient>
<linearGradient id="paint3_linear_3_1444" x1="13.7837" y1="13.5956" x2="5.63688" y2="9.70215" gradientUnits="userSpaceOnUse">
<stop stop-color="#55097B"/>
<stop offset="1" stop-color="#F00045"/>
</linearGradient>
<linearGradient id="paint4_linear_3_1444" x1="41.1979" y1="40.2787" x2="3.42374" y2="22.203" gradientUnits="userSpaceOnUse">
<stop stop-color="#55097B"/>
<stop offset="1" stop-color="#F00045"/>
</linearGradient>
</defs>
</svg>
