<svg width="37" height="53" viewBox="0 0 37 53" fill="none" xmlns="http://www.w3.org/2000/svg">
<path d="M21.6348 38.3771C21.2781 36.9089 20.3876 35.7264 19.1237 35.0506C18.4188 34.6731 17.6471 34.4875 16.8567 34.4791C16.8379 34.4708 16.8254 34.4562 16.8045 34.452C13.6928 33.4759 10.1742 31.4509 11.0881 27.3341C12.0412 23.044 19.051 19.6319 25.2346 16.6229C29.8227 14.3892 33.7878 12.4601 34.9117 10.3975C37.0599 6.45987 33.1619 2.33272 31.9168 1.16256C30.5174 -0.153444 28.436 -0.376619 26.8509 0.618238L26.7779 0.664119C25.952 1.20012 25.4202 2.07605 25.3201 3.06882C25.2158 4.09909 25.5808 5.10645 26.319 5.83222C27.5495 7.03979 27.0886 7.86567 26.9364 8.13681C26.6611 8.62899 24.3711 9.61966 21.9456 10.6666C13.9912 14.1058 0.676767 19.8624 0.0365166 29.7771C-0.737257 41.784 11.0169 44.9269 13.3821 45.4359C13.4113 45.4422 13.4405 45.4443 13.4697 45.4443C13.4781 45.4443 13.4843 45.4401 13.4927 45.4401C13.5114 45.4505 13.526 45.463 13.5448 45.4714C14.2643 45.8572 15.0527 46.0512 15.8598 46.0512C16.4709 46.0512 17.0924 45.9406 17.7035 45.7175C19.1071 45.2044 20.2875 44.1616 21.0279 42.7788C21.7683 41.394 21.9832 39.834 21.6307 38.3824L21.6348 38.3771ZM0.870466 29.8283C1.47739 20.4226 14.4977 14.7933 22.2795 11.4292C25.6394 9.97557 27.2725 9.24771 27.6689 8.54068C28.0902 7.78568 28.3008 6.60106 26.9077 5.23291C26.3508 4.68649 26.0755 3.92731 26.1527 3.1494C26.2278 2.41109 26.6219 1.75829 27.2309 1.36413L27.2997 1.32033C28.5615 0.52783 30.2258 0.713409 31.3479 1.76873C32.4824 2.83656 36.0427 6.58418 34.1822 9.99855C33.1853 11.8276 29.1474 13.7923 24.8716 15.8738C18.519 18.9668 11.3151 22.4703 10.2744 27.155C9.52573 30.5274 11.2172 33.1299 15.1651 34.7467C15.0984 34.7676 15.0295 34.7843 14.9628 34.8093C14.5749 34.9511 14.2078 35.1347 13.8595 35.3536C11.9262 34.6508 10.4642 33.389 9.51309 31.5996C8.51619 29.7225 6.25956 28.9905 4.37641 29.9332C2.60991 30.8154 1.79445 32.8655 2.48061 34.6988C3.49629 37.4163 5.83216 40.9767 11.1732 42.5971C11.3734 43.1978 11.6758 43.7526 12.0679 44.2385C7.99887 43.0414 0.248814 39.4814 0.869933 29.8313L0.870466 29.8283ZM11.6386 37.7454C10.9649 39.005 10.7501 40.3795 10.942 41.6412C6.26406 40.0583 4.18268 36.8632 3.26257 34.404C2.72657 32.9712 3.36686 31.3695 4.74961 30.6771C6.22415 29.9387 7.99273 30.5144 8.77692 31.9889C9.74254 33.8075 11.1899 35.1277 13.0753 35.9328C12.5039 36.4333 12.0138 37.0465 11.6404 37.7472L11.6386 37.7454ZM20.2982 42.3815C19.6538 43.5849 18.6339 44.4901 17.4222 44.9301C16.2292 45.366 14.9925 45.2951 13.9413 44.732C11.7577 43.5619 11.0549 40.6045 12.375 38.1372C13.0195 36.9338 14.0393 36.0287 15.2511 35.5887C15.7683 35.4009 16.2939 35.3071 16.807 35.3071C17.4806 35.3071 18.1355 35.4677 18.7299 35.7868C19.781 36.3499 20.5235 37.3385 20.8238 38.5731C21.1283 39.8245 20.9406 41.178 20.2962 42.3793L20.2982 42.3815Z" fill="black"/>
<path d="M21.6348 38.3771C21.2781 36.9089 20.3876 35.7264 19.1237 35.0506C18.4188 34.6731 17.6471 34.4875 16.8567 34.4791C16.8379 34.4708 16.8254 34.4562 16.8045 34.452C13.6928 33.4759 10.1742 31.4509 11.0881 27.3341C12.0412 23.044 19.051 19.6319 25.2346 16.6229C29.8227 14.3892 33.7878 12.4601 34.9117 10.3975C37.0599 6.45987 33.1619 2.33272 31.9168 1.16256C30.5174 -0.153444 28.436 -0.376619 26.8509 0.618238L26.7779 0.664119C25.952 1.20012 25.4202 2.07605 25.3201 3.06882C25.2158 4.09909 25.5808 5.10645 26.319 5.83222C27.5495 7.03979 27.0886 7.86567 26.9364 8.13681C26.6611 8.62899 24.3711 9.61966 21.9456 10.6666C13.9912 14.1058 0.676767 19.8624 0.0365166 29.7771C-0.737257 41.784 11.0169 44.9269 13.3821 45.4359C13.4113 45.4422 13.4405 45.4443 13.4697 45.4443C13.4781 45.4443 13.4843 45.4401 13.4927 45.4401C13.5114 45.4505 13.526 45.463 13.5448 45.4714C14.2643 45.8572 15.0527 46.0512 15.8598 46.0512C16.4709 46.0512 17.0924 45.9406 17.7035 45.7175C19.1071 45.2044 20.2875 44.1616 21.0279 42.7788C21.7683 41.394 21.9832 39.834 21.6307 38.3824L21.6348 38.3771ZM0.870466 29.8283C1.47739 20.4226 14.4977 14.7933 22.2795 11.4292C25.6394 9.97557 27.2725 9.24771 27.6689 8.54068C28.0902 7.78568 28.3008 6.60106 26.9077 5.23291C26.3508 4.68649 26.0755 3.92731 26.1527 3.1494C26.2278 2.41109 26.6219 1.75829 27.2309 1.36413L27.2997 1.32033C28.5615 0.52783 30.2258 0.713409 31.3479 1.76873C32.4824 2.83656 36.0427 6.58418 34.1822 9.99855C33.1853 11.8276 29.1474 13.7923 24.8716 15.8738C18.519 18.9668 11.3151 22.4703 10.2744 27.155C9.52573 30.5274 11.2172 33.1299 15.1651 34.7467C15.0984 34.7676 15.0295 34.7843 14.9628 34.8093C14.5749 34.9511 14.2078 35.1347 13.8595 35.3536C11.9262 34.6508 10.4642 33.389 9.51309 31.5996C8.51619 29.7225 6.25956 28.9905 4.37641 29.9332C2.60991 30.8154 1.79445 32.8655 2.48061 34.6988C3.49629 37.4163 5.83216 40.9767 11.1732 42.5971C11.3734 43.1978 11.6758 43.7526 12.0679 44.2385C7.99887 43.0414 0.248814 39.4814 0.869933 29.8313L0.870466 29.8283ZM11.6386 37.7454C10.9649 39.005 10.7501 40.3795 10.942 41.6412C6.26406 40.0583 4.18268 36.8632 3.26257 34.404C2.72657 32.9712 3.36686 31.3695 4.74961 30.6771C6.22415 29.9387 7.99273 30.5144 8.77692 31.9889C9.74254 33.8075 11.1899 35.1277 13.0753 35.9328C12.5039 36.4333 12.0138 37.0465 11.6404 37.7472L11.6386 37.7454ZM20.2982 42.3815C19.6538 43.5849 18.6339 44.4901 17.4222 44.9301C16.2292 45.366 14.9925 45.2951 13.9413 44.732C11.7577 43.5619 11.0549 40.6045 12.375 38.1372C13.0195 36.9338 14.0393 36.0287 15.2511 35.5887C15.7683 35.4009 16.2939 35.3071 16.807 35.3071C17.4806 35.3071 18.1355 35.4677 18.7299 35.7868C19.781 36.3499 20.5235 37.3385 20.8238 38.5731C21.1283 39.8245 20.9406 41.178 20.2962 42.3793L20.2982 42.3815Z" fill="url(#paint0_linear_3_1414)"/>
<path d="M18.1196 36.9321C17.4043 36.5483 16.5325 36.5045 15.6961 36.809C14.7848 37.1406 14.0131 37.831 13.5188 38.7528C13.0245 39.6746 12.8785 40.7007 13.1079 41.6434C13.3185 42.5152 13.8337 43.2076 14.5532 43.5935C14.962 43.8125 15.4104 43.923 15.8734 43.923C16.278 43.923 16.693 43.8396 17.1039 43.6706C17.9569 43.3223 18.6848 42.6487 19.1519 41.7728C19.6462 40.8509 19.7901 39.8248 19.5628 38.8842C19.3521 38.0124 18.837 37.32 18.1175 36.9342L18.1196 36.9321ZM18.42 41.3765C18.0425 42.0814 17.4647 42.6195 16.7911 42.8969C16.1446 43.1618 15.4897 43.1472 14.9495 42.8552C14.4406 42.584 14.0756 42.0814 13.9213 41.4432C13.742 40.7007 13.8609 39.8853 14.2571 39.1449C14.6534 38.4046 15.2666 37.8539 15.984 37.5911C16.2593 37.491 16.5367 37.4389 16.8078 37.4389C17.1394 37.4389 17.4481 37.514 17.7276 37.6641C18.2365 37.9353 18.6014 38.4379 18.7557 39.0761C18.9351 39.8186 18.8162 40.634 18.42 41.3744V41.3765Z" fill="black"/>
<path d="M18.1196 36.9321C17.4043 36.5483 16.5325 36.5045 15.6961 36.809C14.7848 37.1406 14.0131 37.831 13.5188 38.7528C13.0245 39.6746 12.8785 40.7007 13.1079 41.6434C13.3185 42.5152 13.8337 43.2076 14.5532 43.5935C14.962 43.8125 15.4104 43.923 15.8734 43.923C16.278 43.923 16.693 43.8396 17.1039 43.6706C17.9569 43.3223 18.6848 42.6487 19.1519 41.7728C19.6462 40.8509 19.7901 39.8248 19.5628 38.8842C19.3521 38.0124 18.837 37.32 18.1175 36.9342L18.1196 36.9321ZM18.42 41.3765C18.0425 42.0814 17.4647 42.6195 16.7911 42.8969C16.1446 43.1618 15.4897 43.1472 14.9495 42.8552C14.4406 42.584 14.0756 42.0814 13.9213 41.4432C13.742 40.7007 13.8609 39.8853 14.2571 39.1449C14.6534 38.4046 15.2666 37.8539 15.984 37.5911C16.2593 37.491 16.5367 37.4389 16.8078 37.4389C17.1394 37.4389 17.4481 37.514 17.7276 37.6641C18.2365 37.9353 18.6014 38.4379 18.7557 39.0761C18.9351 39.8186 18.8162 40.634 18.42 41.3744V41.3765Z" fill="url(#paint1_linear_3_1414)"/>
<path d="M30.4655 41.502C31.7773 39.9086 31.8212 37.7688 30.5614 36.7302C29.3018 35.6936 27.2099 36.1441 25.8959 37.7375C25.2723 38.4925 24.9136 39.3956 24.8803 40.2757C24.8469 41.1996 25.1743 41.9921 25.8 42.5073C26.2588 42.8848 26.8261 43.0662 27.4288 43.0662C28.48 43.0662 29.6292 42.5156 30.4655 41.502ZM26.3319 41.8649C25.9106 41.5166 25.6916 40.9639 25.7145 40.3069C25.7396 39.6083 26.0336 38.8845 26.5404 38.2693C27.212 37.4538 28.1213 37.0013 28.9221 37.0013C29.3372 37.0013 29.7209 37.1222 30.0296 37.3767C30.9348 38.1212 30.8409 39.7355 29.821 40.9743C28.8012 42.2111 27.237 42.6115 26.3318 41.8669L26.3319 41.8649Z" fill="black"/>
<path d="M30.4655 41.502C31.7773 39.9086 31.8212 37.7688 30.5614 36.7302C29.3018 35.6936 27.2099 36.1441 25.8959 37.7375C25.2723 38.4925 24.9136 39.3956 24.8803 40.2757C24.8469 41.1996 25.1743 41.9921 25.8 42.5073C26.2588 42.8848 26.8261 43.0662 27.4288 43.0662C28.48 43.0662 29.6292 42.5156 30.4655 41.502ZM26.3319 41.8649C25.9106 41.5166 25.6916 40.9639 25.7145 40.3069C25.7396 39.6083 26.0336 38.8845 26.5404 38.2693C27.212 37.4538 28.1213 37.0013 28.9221 37.0013C29.3372 37.0013 29.7209 37.1222 30.0296 37.3767C30.9348 38.1212 30.8409 39.7355 29.821 40.9743C28.8012 42.2111 27.237 42.6115 26.3318 41.8669L26.3319 41.8649Z" fill="url(#paint2_linear_3_1414)"/>
<path d="M29.2848 38.6417C29.0658 38.5708 28.8301 38.6938 28.7613 38.9128C28.6695 39.1985 28.5152 39.4801 28.3108 39.7262C28.1023 39.9806 27.8478 40.1913 27.5767 40.3352C27.3723 40.4436 27.2951 40.696 27.4036 40.9004C27.4787 41.0422 27.6226 41.1215 27.7727 41.1215C27.8395 41.1215 27.9062 41.1069 27.9688 41.0735C28.3358 40.8774 28.6779 40.5959 28.9553 40.258C29.2264 39.9306 29.4329 39.5531 29.5559 39.1672C29.6248 38.9483 29.5038 38.7126 29.2848 38.6437L29.2848 38.6417Z" fill="black"/>
<path d="M29.2848 38.6417C29.0658 38.5708 28.8301 38.6938 28.7613 38.9128C28.6695 39.1985 28.5152 39.4801 28.3108 39.7262C28.1023 39.9806 27.8478 40.1913 27.5767 40.3352C27.3723 40.4436 27.2951 40.696 27.4036 40.9004C27.4787 41.0422 27.6226 41.1215 27.7727 41.1215C27.8395 41.1215 27.9062 41.1069 27.9688 41.0735C28.3358 40.8774 28.6779 40.5959 28.9553 40.258C29.2264 39.9306 29.4329 39.5531 29.5559 39.1672C29.6248 38.9483 29.5038 38.7126 29.2848 38.6437L29.2848 38.6417Z" fill="url(#paint3_linear_3_1414)"/>
<path d="M25.8014 46.7075C25.0464 46.0839 24.1433 45.7252 23.2632 45.6918C22.3372 45.6501 21.5468 45.9859 21.0317 46.6116C20.5144 47.2393 20.3455 48.0798 20.5561 48.9787C20.7563 49.838 21.2819 50.6535 22.039 51.275C22.8565 51.9486 23.818 52.2885 24.7023 52.2885C25.5386 52.2885 26.3061 51.984 26.8108 51.3709C27.328 50.7431 27.497 49.9026 27.2864 49.0037C27.0861 48.1445 26.5606 47.329 25.8035 46.7075H25.8014ZM26.1622 50.8411C25.4177 51.7463 23.8034 51.6504 22.5667 50.6326C21.9514 50.1258 21.5259 49.4709 21.3675 48.7889C21.2194 48.1486 21.3278 47.5626 21.674 47.1413C22.0036 46.7409 22.5208 46.5219 23.136 46.5219C23.1673 46.5219 23.2007 46.5219 23.232 46.5239C23.9306 46.549 24.6544 46.843 25.2696 47.3498C25.8848 47.8566 26.3103 48.5115 26.4688 49.1935C26.619 49.8338 26.5084 50.4198 26.1622 50.8411Z" fill="black"/>
<path d="M25.8014 46.7075C25.0464 46.0839 24.1433 45.7252 23.2632 45.6918C22.3372 45.6501 21.5468 45.9859 21.0317 46.6116C20.5144 47.2393 20.3455 48.0798 20.5561 48.9787C20.7563 49.838 21.2819 50.6535 22.039 51.275C22.8565 51.9486 23.818 52.2885 24.7023 52.2885C25.5386 52.2885 26.3061 51.984 26.8108 51.3709C27.328 50.7431 27.497 49.9026 27.2864 49.0037C27.0861 48.1445 26.5606 47.329 25.8035 46.7075H25.8014ZM26.1622 50.8411C25.4177 51.7463 23.8034 51.6504 22.5667 50.6326C21.9514 50.1258 21.5259 49.4709 21.3675 48.7889C21.2194 48.1486 21.3278 47.5626 21.674 47.1413C22.0036 46.7409 22.5208 46.5219 23.136 46.5219C23.1673 46.5219 23.2007 46.5219 23.232 46.5239C23.9306 46.549 24.6544 46.843 25.2696 47.3498C25.8848 47.8566 26.3103 48.5115 26.4688 49.1935C26.619 49.8338 26.5084 50.4198 26.1622 50.8411Z" fill="url(#paint4_linear_3_1414)"/>
<path d="M24.6254 49.5732C24.3397 49.4835 24.0582 49.3271 23.8121 49.1248C23.5597 48.9162 23.3491 48.6618 23.203 48.3885C23.0946 48.1862 22.8422 48.107 22.6379 48.2154C22.4356 48.3239 22.3584 48.5762 22.4648 48.7806C22.6608 49.1477 22.9423 49.4897 23.2802 49.7671C23.6097 50.0382 23.9873 50.2447 24.373 50.3678C24.4148 50.3803 24.4565 50.3865 24.4982 50.3865C24.6755 50.3865 24.8402 50.2739 24.8965 50.0946C24.9654 49.8756 24.8444 49.6399 24.6254 49.5711L24.6254 49.5732Z" fill="black"/>
<path d="M24.6254 49.5732C24.3397 49.4835 24.0582 49.3271 23.8121 49.1248C23.5597 48.9162 23.3491 48.6618 23.203 48.3885C23.0946 48.1862 22.8422 48.107 22.6379 48.2154C22.4356 48.3239 22.3584 48.5762 22.4648 48.7806C22.6608 49.1477 22.9423 49.4897 23.2802 49.7671C23.6097 50.0382 23.9873 50.2447 24.373 50.3678C24.4148 50.3803 24.4565 50.3865 24.4982 50.3865C24.6755 50.3865 24.8402 50.2739 24.8965 50.0946C24.9654 49.8756 24.8444 49.6399 24.6254 49.5711L24.6254 49.5732Z" fill="url(#paint5_linear_3_1414)"/>
<path d="M36.9311 45.9693C36.7371 45.1809 36.1636 44.5428 35.3169 44.1736C34.5097 43.8211 33.5399 43.7544 32.5889 43.9901C30.5846 44.4822 29.2728 46.1737 29.6608 47.7587C29.8547 48.5471 30.4283 49.1853 31.275 49.5544C31.7651 49.7692 32.3136 49.8756 32.883 49.8756C33.2522 49.8756 33.6296 49.8297 34.003 49.738C34.954 49.5044 35.782 48.9975 36.3347 48.3093C36.9124 47.5898 37.1251 46.7577 36.9311 45.9693ZM35.6839 47.7879C35.2459 48.3343 34.5785 48.739 33.8048 48.9288C33.0311 49.1186 32.251 49.0685 31.6108 48.789C31.008 48.5262 30.6034 48.0883 30.4741 47.5585C30.1947 46.4198 31.2333 45.183 32.7912 44.7993C33.102 44.7221 33.4127 44.6846 33.7152 44.6846C34.1677 44.6846 34.6015 44.7701 34.9874 44.9369C35.5901 45.1997 35.9947 45.6377 36.124 46.1674C36.2554 46.6972 36.099 47.2728 35.6881 47.7858L35.6839 47.7879Z" fill="black"/>
<path d="M36.9311 45.9693C36.7371 45.1809 36.1636 44.5428 35.3169 44.1736C34.5097 43.8211 33.5399 43.7544 32.5889 43.9901C30.5846 44.4822 29.2728 46.1737 29.6608 47.7587C29.8547 48.5471 30.4283 49.1853 31.275 49.5544C31.7651 49.7692 32.3136 49.8756 32.883 49.8756C33.2522 49.8756 33.6296 49.8297 34.003 49.738C34.954 49.5044 35.782 48.9975 36.3347 48.3093C36.9124 47.5898 37.1251 46.7577 36.9311 45.9693ZM35.6839 47.7879C35.2459 48.3343 34.5785 48.739 33.8048 48.9288C33.0311 49.1186 32.251 49.0685 31.6108 48.789C31.008 48.5262 30.6034 48.0883 30.4741 47.5585C30.1947 46.4198 31.2333 45.183 32.7912 44.7993C33.102 44.7221 33.4127 44.6846 33.7152 44.6846C34.1677 44.6846 34.6015 44.7701 34.9874 44.9369C35.5901 45.1997 35.9947 45.6377 36.124 46.1674C36.2554 46.6972 36.099 47.2728 35.6881 47.7858L35.6839 47.7879Z" fill="url(#paint6_linear_3_1414)"/>
<path d="M34.1818 46.6454C33.9378 46.8206 33.6458 46.9541 33.335 47.0291C33.0159 47.1063 32.6864 47.123 32.3819 47.0771C32.1546 47.0416 31.9419 47.1981 31.9064 47.4254C31.8709 47.6527 32.0274 47.8655 32.2547 47.9009C32.409 47.9239 32.5675 47.9364 32.726 47.9364C32.993 47.9364 33.2662 47.903 33.5332 47.8384C33.9503 47.7362 34.332 47.5631 34.6677 47.3211C34.8554 47.1877 34.8972 46.927 34.7637 46.7393C34.6281 46.5516 34.3695 46.5078 34.1818 46.6433L34.1818 46.6454Z" fill="black"/>
<path d="M34.1818 46.6454C33.9378 46.8206 33.6458 46.9541 33.335 47.0291C33.0159 47.1063 32.6864 47.123 32.3819 47.0771C32.1546 47.0416 31.9419 47.1981 31.9064 47.4254C31.8709 47.6527 32.0274 47.8655 32.2547 47.9009C32.409 47.9239 32.5675 47.9364 32.726 47.9364C32.993 47.9364 33.2662 47.903 33.5332 47.8384C33.9503 47.7362 34.332 47.5631 34.6677 47.3211C34.8554 47.1877 34.8972 46.927 34.7637 46.7393C34.6281 46.5516 34.3695 46.5078 34.1818 46.6433L34.1818 46.6454Z" fill="url(#paint7_linear_3_1414)"/>
<path d="M23.9232 28.6189C23.041 28.89 22.3986 29.4573 22.115 30.2206C21.5477 31.7494 22.6593 33.5806 24.5927 34.298C25.1224 34.4961 25.6626 34.5879 26.1757 34.5879C27.5334 34.5879 28.7201 33.9351 29.131 32.8256C29.6982 31.2948 28.5866 29.4657 26.6532 28.7482C25.7356 28.4083 24.7658 28.3624 23.9211 28.6189L23.9232 28.6189ZM28.351 32.5336C27.9422 33.6327 26.3884 34.0727 24.8847 33.5138C23.381 32.9548 22.4905 31.6075 22.8971 30.5084C23.0869 29.9954 23.5374 29.6074 24.1673 29.4156C24.8367 29.2112 25.6167 29.2508 26.3634 29.5282C27.8671 30.0871 28.7576 31.4345 28.351 32.5336Z" fill="black"/>
<path d="M23.9232 28.6189C23.041 28.89 22.3986 29.4573 22.115 30.2206C21.5477 31.7494 22.6593 33.5806 24.5927 34.298C25.1224 34.4961 25.6626 34.5879 26.1757 34.5879C27.5334 34.5879 28.7201 33.9351 29.131 32.8256C29.6982 31.2948 28.5866 29.4657 26.6532 28.7482C25.7356 28.4083 24.7658 28.3624 23.9211 28.6189L23.9232 28.6189ZM28.351 32.5336C27.9422 33.6327 26.3884 34.0727 24.8847 33.5138C23.381 32.9548 22.4905 31.6075 22.8971 30.5084C23.0869 29.9954 23.5374 29.6074 24.1673 29.4156C24.8367 29.2112 25.6167 29.2508 26.3634 29.5282C27.8671 30.0871 28.7576 31.4345 28.351 32.5336Z" fill="url(#paint8_linear_3_1414)"/>
<path d="M24.7489 31.187C24.58 31.0306 24.3151 31.0389 24.1587 31.2079C24.0023 31.3768 24.0106 31.6396 24.1796 31.7981C24.4841 32.0818 24.8615 32.3112 25.2724 32.4655C25.6499 32.6052 26.0336 32.6762 26.4195 32.6762H26.5008C26.7302 32.6699 26.9137 32.478 26.9075 32.2486C26.9012 32.0192 26.7093 31.8294 26.4799 31.8419C26.1775 31.8544 25.8626 31.796 25.5644 31.6834C25.2557 31.5687 24.9741 31.3977 24.7489 31.187L24.7489 31.187Z" fill="black"/>
<path d="M24.7489 31.187C24.58 31.0306 24.3151 31.0389 24.1587 31.2079C24.0023 31.3768 24.0106 31.6396 24.1796 31.7981C24.4841 32.0818 24.8615 32.3112 25.2724 32.4655C25.6499 32.6052 26.0336 32.6762 26.4195 32.6762H26.5008C26.7302 32.6699 26.9137 32.478 26.9075 32.2486C26.9012 32.0192 26.7093 31.8294 26.4799 31.8419C26.1775 31.8544 25.8626 31.796 25.5644 31.6834C25.2557 31.5687 24.9741 31.3977 24.7489 31.187L24.7489 31.187Z" fill="url(#paint9_linear_3_1414)"/>
<defs>
<linearGradient id="paint0_linear_3_1414" x1="26.85" y1="33.8188" x2="-6.03585" y2="21.6725" gradientUnits="userSpaceOnUse">
<stop stop-color="#55097B"/>
<stop offset="1" stop-color="#F00045"/>
</linearGradient>
<linearGradient id="paint1_linear_3_1414" x1="18.0371" y1="41.9801" x2="12.1486" y2="39.4122" gradientUnits="userSpaceOnUse">
<stop stop-color="#55097B"/>
<stop offset="1" stop-color="#F00045"/>
</linearGradient>
<linearGradient id="paint2_linear_3_1414" x1="29.8638" y1="41.2351" x2="24.1281" y2="38.6072" gradientUnits="userSpaceOnUse">
<stop stop-color="#55097B"/>
<stop offset="1" stop-color="#F00045"/>
</linearGradient>
<linearGradient id="paint3_linear_3_1414" x1="29.032" y1="40.4574" x2="27.0544" y2="39.6168" gradientUnits="userSpaceOnUse">
<stop stop-color="#55097B"/>
<stop offset="1" stop-color="#F00045"/>
</linearGradient>
<linearGradient id="paint4_linear_3_1414" x1="25.685" y1="50.5354" x2="19.879" y2="47.6281" gradientUnits="userSpaceOnUse">
<stop stop-color="#55097B"/>
<stop offset="1" stop-color="#F00045"/>
</linearGradient>
<linearGradient id="paint5_linear_3_1414" x1="24.3045" y1="49.7969" x2="22.2682" y2="48.7" gradientUnits="userSpaceOnUse">
<stop stop-color="#55097B"/>
<stop offset="1" stop-color="#F00045"/>
</linearGradient>
<linearGradient id="paint6_linear_3_1414" x1="35.1888" y1="48.2754" x2="29.4032" y2="44.8709" gradientUnits="userSpaceOnUse">
<stop stop-color="#55097B"/>
<stop offset="1" stop-color="#F00045"/>
</linearGradient>
<linearGradient id="paint7_linear_3_1414" x1="34.1224" y1="47.572" x2="32.6156" y2="46.0268" gradientUnits="userSpaceOnUse">
<stop stop-color="#55097B"/>
<stop offset="1" stop-color="#F00045"/>
</linearGradient>
<linearGradient id="paint8_linear_3_1414" x1="27.4903" y1="32.9589" x2="21.6902" y2="29.6497" gradientUnits="userSpaceOnUse">
<stop stop-color="#55097B"/>
<stop offset="1" stop-color="#F00045"/>
</linearGradient>
<linearGradient id="paint9_linear_3_1414" x1="26.2078" y1="32.2509" x2="24.4703" y2="30.7653" gradientUnits="userSpaceOnUse">
<stop stop-color="#55097B"/>
<stop offset="1" stop-color="#F00045"/>
</linearGradient>
</defs>
</svg>
