<svg width="48" height="52" viewBox="0 0 48 52" fill="none" xmlns="http://www.w3.org/2000/svg">
<path d="M36.7218 13.9053C36.6216 13.5258 36.8433 13.1378 37.2206 13.037C37.5957 12.9362 37.9815 13.1613 38.0816 13.5387L38.4269 14.8316V14.8295C38.5271 15.2069 38.3033 15.5949 37.9282 15.6957C37.8685 15.7129 37.8088 15.7214 37.747 15.7214C37.4273 15.7214 37.148 15.5049 37.0671 15.1961L36.7218 13.9053ZM47.9992 45.4797V47.7032C47.9971 48.4494 47.3981 49.0518 46.6564 49.054H28.8635C28.3839 49.9717 27.7807 50.8164 27.0667 51.5648C26.9345 51.7041 26.7512 51.7835 26.5594 51.7835H11.6545C11.4627 51.7835 11.2794 51.7041 11.1472 51.5648C10.8318 51.2346 10.5376 50.8829 10.2648 50.5162C9.2481 51.4725 7.90745 52.0043 6.51561 52C3.46982 51.9978 0.999678 49.5128 0.997495 46.4489V31.9119C0.40285 31.7082 0.00212802 31.1464 0 30.5139V28.2797C0.00213129 27.4735 0.647954 26.8152 1.44934 26.8045V25.7217C1.45148 24.8126 2.18471 24.0729 3.09054 24.0729H9.94331H9.94118C10.8471 24.0729 11.5802 24.8126 11.5802 25.7217V26.8045C12.3838 26.8153 13.0296 27.4735 13.0296 28.2797V30.5139C13.0275 31.1464 12.6289 31.7082 12.0342 31.9119V35.4154C12.729 34.8279 13.4943 34.3283 14.3127 33.9317C14.7518 33.728 15.0289 33.282 15.0204 32.7931V31.2236C14.4235 31.1078 13.993 30.5825 13.993 29.9715V28.6678C13.993 27.9646 14.56 27.3942 15.2612 27.3921H16.3184C16.295 27.0597 16.2843 26.7231 16.2843 26.3908H16.2822C16.2843 23.003 17.4694 19.7244 19.6285 17.1259C21.7898 14.5272 24.7908 12.7776 28.1051 12.1772C28.5357 11.3174 29.2519 10.6335 30.13 10.2454L29.2433 6.91767C28.9619 5.85846 29.563 4.76494 30.6053 4.44334L30.1896 2.88238L29.7975 2.98745V2.98959C29.7378 3.0046 29.6781 3.01318 29.6163 3.01318C29.2625 3.01318 28.9641 2.74945 28.9193 2.3978C28.8724 2.04402 29.0941 1.71382 29.433 1.6216L35.356 0.0241962C35.7311 -0.0765764 36.1169 0.146414 36.2192 0.525923C36.3194 0.903292 36.0956 1.29136 35.7205 1.39214L35.3283 1.49721L35.7439 3.05817C36.8054 2.81588 37.8668 3.45912 38.1481 4.51616L41 15.2285C41.5755 15.2371 42.0743 15.6273 42.2235 16.1869L42.3791 16.7723C42.5922 17.5699 42.4196 18.4211 41.9123 19.0708L42.2341 19.5404H42.232C42.5005 19.9306 42.5283 20.4387 42.3045 20.8547L42.8736 21.6845C43.091 22.0061 43.0121 22.4435 42.6924 22.6665L41.2793 23.6485C41.162 23.73 41.0235 23.7729 40.8807 23.7729C40.8381 23.7729 40.7954 23.7708 40.7528 23.7622C40.5695 23.7279 40.4075 23.6228 40.3009 23.4684L39.7383 22.6387C39.2694 22.703 38.809 22.495 38.5425 22.1048L37.7646 20.9684L37.6559 22.3449H37.6537C37.6154 22.8166 37.317 23.2262 36.8821 23.4084L36.8011 24.4118H36.8033C36.7734 24.7806 36.4686 25.0637 36.102 25.0637H36.0445L34.3329 24.9264C33.945 24.8943 33.6573 24.5534 33.6871 24.1631L33.7681 23.1597C33.6573 23.0911 33.5571 23.0053 33.4718 22.9045C33.2544 22.6494 33.1479 22.3192 33.1756 21.9847L33.2203 21.4165C33.1074 21.3693 32.9965 21.3157 32.8878 21.2535C32.2889 20.9083 31.8498 20.3337 31.6729 19.6626L31.5173 19.0772V19.0751C31.4342 18.7663 31.4683 18.4383 31.6153 18.1552C30.2768 18.1016 29.0491 17.3941 28.3244 16.262C26.0438 16.7852 24.0083 18.0738 22.5526 19.9134C21.0947 21.7553 20.3018 24.0387 20.306 26.391C20.306 26.7255 20.3231 27.06 20.3551 27.3923H22.9533C23.6524 27.3944 24.2193 27.9648 24.2215 28.6681V29.9717C24.2215 30.5828 23.7909 31.1059 23.1962 31.2238V32.7934C23.1856 33.2822 23.4627 33.7282 23.9039 33.9319C25.0187 34.4744 26.0353 35.2034 26.9092 36.0868C29.9763 37.2789 33.4231 36.9337 36.1939 35.1562V31.5734L29.2222 31.5755C28.3803 31.5734 27.6982 30.8873 27.6982 30.0403V28.846C27.7003 27.9991 28.3824 27.3129 29.2222 27.3129H43.3834C44.2232 27.3151 44.9052 27.9991 44.9073 28.846V30.0403C44.9052 30.8851 44.2253 31.5712 43.3834 31.5734H42.1705V38.5505C42.6267 39.3202 42.8675 40.2014 42.8654 41.0977C42.8654 41.3807 42.8419 41.6616 42.795 41.9382H44.1123H44.1101C45.1013 41.9403 45.9027 42.7465 45.9027 43.7414V44.1295H46.6572C47.399 44.1295 47.9979 44.7342 48 45.4803L47.9992 45.4797ZM35.8799 14.0272C35.8799 15.08 35.477 16.0941 34.7566 16.8574L39.6312 15.5431L37.9665 9.29057L37.0202 9.54572L37.6937 12.0758C37.7406 12.2559 37.715 12.4489 37.6212 12.6119C37.5296 12.7748 37.374 12.8927 37.195 12.942C37.1353 12.9571 37.0735 12.9656 37.0117 12.9656C36.6941 12.9656 36.4148 12.7512 36.3317 12.4425L35.6582 9.91451L33.774 10.4227C35.072 11.1517 35.8756 12.5303 35.8777 14.027L35.8799 14.0272ZM31.4145 9.59312L35.9758 8.36452L37.6 7.92711L37.2717 6.69209L31.0863 8.36025L31.4145 9.59312ZM33.0301 19.2911V19.2932C33.2049 19.9343 33.8614 20.316 34.5008 20.1466L40.1728 18.6178C40.8122 18.4441 41.1916 17.7816 41.0211 17.1384L40.8975 16.6709L32.9049 18.8237L33.0301 19.2911ZM40.7778 19.9065C40.6989 19.9365 40.62 19.9643 40.5369 19.9836L39.0662 20.3803L39.6097 21.1736L40.9887 20.2173L40.7778 19.9065ZM36.2592 22.0763L36.3359 21.1157L34.8652 21.5124C34.7842 21.5338 34.7011 21.551 34.618 21.566L34.5881 21.9434L36.2592 22.0763ZM35.4556 23.5901L35.4684 23.4314L35.1593 23.4057L35.1465 23.5643L35.4556 23.5901ZM41.3191 21.9026L41.2296 21.7718L40.9759 21.9477L41.0654 22.0785L41.3191 21.9026ZM31.5466 2.51769L31.9601 4.07218L34.3835 3.41822L33.9679 1.86159L31.5466 2.51769ZM30.6045 6.5487L30.7238 6.99254L36.9093 5.32438L36.7899 4.88054C36.7004 4.55035 36.3615 4.35523 36.0333 4.44099L31.0415 5.78536C30.7132 5.87756 30.5171 6.21852 30.6045 6.5487ZM29.0762 14.0275C29.0762 15.1253 29.7348 16.1159 30.743 16.5361C31.7512 16.9564 32.9128 16.7226 33.6844 15.9465C34.456 15.1703 34.6882 14.0017 34.2705 12.9876C33.8527 11.9734 32.868 11.3108 31.7767 11.3108C31.0606 11.3108 30.3721 11.596 29.867 12.1063C29.3597 12.6145 29.0762 13.307 29.0762 14.0275ZM44.1093 43.3552H30.1058C30.1144 43.5396 30.1208 43.724 30.1208 43.9084V44.1292H44.4974V43.7411C44.4953 43.5289 44.3225 43.3552 44.1093 43.3552ZM32.9148 41.0974C32.9148 40.9452 32.9234 40.7951 32.9361 40.645C32.1774 40.7693 31.4079 40.8315 30.6385 40.8315C30.3188 40.8315 29.999 40.8187 29.6815 40.7994C29.7902 41.1746 29.8797 41.5541 29.9479 41.9379H32.9873C32.9404 41.6613 32.9148 41.3804 32.9148 41.0974ZM37.8896 41.8114C38.1773 41.8114 38.4352 41.6377 38.5461 41.3719C38.6548 41.1038 38.5951 40.7972 38.3905 40.5935C38.188 40.3898 37.8832 40.3276 37.6167 40.4391C37.3524 40.5485 37.1798 40.8101 37.1798 41.0974C37.1798 41.4919 37.4974 41.8114 37.8896 41.8114ZM41.3574 41.9379C41.6132 40.8701 41.366 39.7444 40.6903 38.8804C40.0146 38.0184 38.9809 37.5145 37.8896 37.5145C36.7983 37.5145 35.7646 38.0184 35.0889 38.8804C34.4132 39.7444 34.166 40.8701 34.4217 41.9379H35.9457C35.6644 41.2797 35.7305 40.5249 36.1226 39.9245C36.5148 39.3264 37.1798 38.9661 37.8917 38.9661C38.6036 38.9661 39.2686 39.3263 39.6608 39.9245C40.0509 40.5249 40.1191 41.2797 39.8356 41.9379H41.3574ZM29.2212 30.158H43.3823C43.4441 30.1537 43.4932 30.1044 43.4974 30.0422V28.8457C43.4932 28.7836 43.4442 28.7321 43.3823 28.73H29.2212C29.1594 28.7321 29.1104 28.7836 29.1061 28.8457V30.04C29.1082 30.1022 29.1594 30.1537 29.2212 30.158ZM37.5996 31.5731V35.5333C37.5996 35.767 37.4866 35.9836 37.2948 36.1165L37.2735 36.1294V36.1315C37.4781 36.1058 37.6827 36.0929 37.8895 36.0908C38.9189 36.0908 39.9229 36.4124 40.7605 37.0128V31.573L37.5996 31.5731ZM30.6382 38.2005C29.8922 38.2026 29.1505 38.1319 28.4194 37.9904C28.6901 38.4192 28.9288 38.8674 29.1377 39.3283C29.6365 39.3862 30.1373 39.4141 30.6382 39.4162C31.5355 39.4162 32.4329 39.3219 33.3132 39.1375C33.5561 38.565 33.9035 38.0461 34.3384 37.6023C33.1448 38.0011 31.8936 38.2027 30.6382 38.2005ZM17.7304 27.3921H18.9411C18.9134 27.0598 18.8985 26.7253 18.8985 26.3908H18.8963C18.8921 23.7599 19.7638 21.202 21.3731 19.1267C22.9802 17.0512 25.231 15.5759 27.7697 14.937C27.7015 14.639 27.6674 14.3324 27.6674 14.0279C27.6674 13.9207 27.6717 13.8157 27.6802 13.7106H27.6823C24.8454 14.3946 22.3196 16.0156 20.5082 18.3141C18.6943 20.6147 17.7032 23.4579 17.6883 26.3911C17.6904 26.7256 17.7053 27.0601 17.7309 27.3924L17.7304 27.3921ZM15.4008 29.83L22.8139 29.8321V28.8094H15.4008V29.83ZM9.57111 42.7462C10.8265 42.7998 12.0713 43.0185 13.2712 43.3916C15.2002 44.0327 17.2506 44.2128 19.2624 43.919C22.1569 42.03 25.0599 41.4018 28.3229 41.2024C27.5556 38.5823 25.7289 36.4038 23.2863 35.2051C22.3591 34.7677 21.7709 33.8243 21.7837 32.793V31.2471H16.4274V32.793C16.4402 33.8243 15.8519 34.7678 14.9226 35.2051C11.9876 36.6481 9.97554 39.4848 9.57057 42.7459L9.57111 42.7462ZM10.2233 47.594C12.6958 47.5576 15.1064 46.8286 17.1869 45.4864C15.7353 45.4285 14.2988 45.1841 12.9091 44.7595C11.805 44.41 10.6604 44.2085 9.5052 44.1613C9.53504 45.3385 9.77786 46.5027 10.2233 47.594ZM1.46734 28.2195C1.43537 28.2217 1.40979 28.2453 1.40766 28.2774V30.5116C1.40979 30.5438 1.43537 30.5695 1.46734 30.5695H11.5618C11.5938 30.5695 11.6193 30.5438 11.6215 30.5116V28.2796C11.6193 28.2474 11.5938 28.2238 11.5618 28.2217L1.46734 28.2195ZM2.40301 31.9911V33.2883H10.6259V31.9911H2.40301ZM2.40301 45.1433H8.16012C8.11537 44.7337 8.09192 44.3199 8.09192 43.9082C8.09192 43.7389 8.09618 43.5695 8.10471 43.4022L3.64149 43.4001C3.25144 43.4001 2.93597 43.0849 2.93597 42.6925C2.93597 42.3023 3.25142 41.9849 3.64149 41.9849H8.26027C8.30716 41.7233 8.36045 41.4617 8.42439 41.2044H3.64148C3.25995 41.1937 2.95729 40.8807 2.95729 40.4968C2.95729 40.113 3.25996 39.8 3.64148 39.7892H8.88055C9.3047 38.7193 9.893 37.7245 10.6262 36.8389V34.7055H2.4033L2.40301 45.1433ZM2.85701 25.7215V26.8044H10.1719V25.7215C10.1698 25.595 10.0675 25.4921 9.94174 25.49H3.08897C2.96108 25.4921 2.85914 25.595 2.85701 25.7215ZM9.48388 49.3028C9.0043 48.4409 8.64407 47.5189 8.40961 46.5605H2.40532C2.46713 48.7989 4.28736 50.5807 6.51469 50.585C7.63796 50.5871 8.71228 50.124 9.48388 49.3028ZM28.7135 43.9082C28.7114 43.4729 28.6816 43.0355 28.624 42.6045C24.8173 42.8125 21.5563 43.6059 18.2289 46.464C17.4829 47.1029 14.8271 48.6789 10.9265 48.9726L10.9244 48.9705C11.2271 49.4679 11.5745 49.9353 11.9624 50.3685H15.0721C15.1446 50.362 15.2171 50.362 15.2895 50.3685H26.2516C27.8395 48.5974 28.7178 46.2949 28.7135 43.9082ZM46.5922 45.5463L30.0013 45.5442C29.8968 46.2582 29.722 46.9593 29.4812 47.639H46.5899L46.5922 45.5463ZM29.8648 14.5423C29.5835 13.4809 30.208 12.3917 31.2609 12.1065C32.0325 11.8985 32.8553 12.1794 33.3412 12.8162C33.8272 13.4552 33.8847 14.3257 33.484 15.0225C33.0854 15.7172 32.3075 16.1032 31.5146 15.9981C30.7217 15.893 30.0716 15.3184 29.8648 14.5423ZM31.2226 14.1756C31.2823 14.3986 31.4698 14.5637 31.6979 14.5937C31.9259 14.6237 32.1497 14.5144 32.2649 14.3128C32.38 14.1134 32.3629 13.8626 32.2244 13.6782C32.0837 13.4959 31.8471 13.4145 31.6254 13.4745C31.4783 13.5131 31.3547 13.6096 31.278 13.7404C31.2034 13.8712 31.1821 14.0298 31.2226 14.1756ZM3.64176 38.0056H6.77922C7.16714 38.0056 7.48261 37.6882 7.48261 37.298C7.48261 36.9056 7.16716 36.5904 6.77922 36.5904H3.64176C3.25171 36.5904 2.93624 36.9056 2.93624 37.298C2.93624 37.6882 3.25168 38.0056 3.64176 38.0056ZM15.1282 39.8323V37.8747C15.1282 37.2851 15.6035 36.807 16.1917 36.8048H17.072L17.0699 35.9193C17.072 35.3297 17.5473 34.8515 18.1335 34.8515H20.0794C20.6656 34.8515 21.1409 35.3297 21.143 35.9193V36.8048H22.0233H22.0212C22.6094 36.8048 23.0848 37.2851 23.0869 37.8747V39.8323C23.0847 40.422 22.6094 40.9001 22.0212 40.9001H21.143V41.7857C21.1409 42.3774 20.6656 42.8556 20.0794 42.8556H18.1335C17.5473 42.8556 17.072 42.3774 17.0699 41.7857V40.9001H16.1917C15.6035 40.9001 15.1282 40.422 15.1282 39.8323ZM16.5349 39.485H17.7754C18.1633 39.485 18.4787 39.8023 18.4787 40.1926V41.4405H19.7342V40.1926C19.7342 39.8023 20.0496 39.485 20.4376 39.485H21.678V38.2221H20.4376C20.2521 38.2221 20.0731 38.147 19.9409 38.0141C19.8088 37.8812 19.7342 37.7011 19.7342 37.5145V36.2666H18.4788V37.5145C18.4788 37.9048 18.1633 38.2221 17.7754 38.2221H16.5328L16.5349 39.485Z" fill="black"/>
<path d="M36.7218 13.9053C36.6216 13.5258 36.8433 13.1378 37.2206 13.037C37.5957 12.9362 37.9815 13.1613 38.0816 13.5387L38.4269 14.8316V14.8295C38.5271 15.2069 38.3033 15.5949 37.9282 15.6957C37.8685 15.7129 37.8088 15.7214 37.747 15.7214C37.4273 15.7214 37.148 15.5049 37.0671 15.1961L36.7218 13.9053ZM47.9992 45.4797V47.7032C47.9971 48.4494 47.3981 49.0518 46.6564 49.054H28.8635C28.3839 49.9717 27.7807 50.8164 27.0667 51.5648C26.9345 51.7041 26.7512 51.7835 26.5594 51.7835H11.6545C11.4627 51.7835 11.2794 51.7041 11.1472 51.5648C10.8318 51.2346 10.5376 50.8829 10.2648 50.5162C9.2481 51.4725 7.90745 52.0043 6.51561 52C3.46982 51.9978 0.999678 49.5128 0.997495 46.4489V31.9119C0.40285 31.7082 0.00212802 31.1464 0 30.5139V28.2797C0.00213129 27.4735 0.647954 26.8152 1.44934 26.8045V25.7217C1.45148 24.8126 2.18471 24.0729 3.09054 24.0729H9.94331H9.94118C10.8471 24.0729 11.5802 24.8126 11.5802 25.7217V26.8045C12.3838 26.8153 13.0296 27.4735 13.0296 28.2797V30.5139C13.0275 31.1464 12.6289 31.7082 12.0342 31.9119V35.4154C12.729 34.8279 13.4943 34.3283 14.3127 33.9317C14.7518 33.728 15.0289 33.282 15.0204 32.7931V31.2236C14.4235 31.1078 13.993 30.5825 13.993 29.9715V28.6678C13.993 27.9646 14.56 27.3942 15.2612 27.3921H16.3184C16.295 27.0597 16.2843 26.7231 16.2843 26.3908H16.2822C16.2843 23.003 17.4694 19.7244 19.6285 17.1259C21.7898 14.5272 24.7908 12.7776 28.1051 12.1772C28.5357 11.3174 29.2519 10.6335 30.13 10.2454L29.2433 6.91767C28.9619 5.85846 29.563 4.76494 30.6053 4.44334L30.1896 2.88238L29.7975 2.98745V2.98959C29.7378 3.0046 29.6781 3.01318 29.6163 3.01318C29.2625 3.01318 28.9641 2.74945 28.9193 2.3978C28.8724 2.04402 29.0941 1.71382 29.433 1.6216L35.356 0.0241962C35.7311 -0.0765764 36.1169 0.146414 36.2192 0.525923C36.3194 0.903292 36.0956 1.29136 35.7205 1.39214L35.3283 1.49721L35.7439 3.05817C36.8054 2.81588 37.8668 3.45912 38.1481 4.51616L41 15.2285C41.5755 15.2371 42.0743 15.6273 42.2235 16.1869L42.3791 16.7723C42.5922 17.5699 42.4196 18.4211 41.9123 19.0708L42.2341 19.5404H42.232C42.5005 19.9306 42.5283 20.4387 42.3045 20.8547L42.8736 21.6845C43.091 22.0061 43.0121 22.4435 42.6924 22.6665L41.2793 23.6485C41.162 23.73 41.0235 23.7729 40.8807 23.7729C40.8381 23.7729 40.7954 23.7708 40.7528 23.7622C40.5695 23.7279 40.4075 23.6228 40.3009 23.4684L39.7383 22.6387C39.2694 22.703 38.809 22.495 38.5425 22.1048L37.7646 20.9684L37.6559 22.3449H37.6537C37.6154 22.8166 37.317 23.2262 36.8821 23.4084L36.8011 24.4118H36.8033C36.7734 24.7806 36.4686 25.0637 36.102 25.0637H36.0445L34.3329 24.9264C33.945 24.8943 33.6573 24.5534 33.6871 24.1631L33.7681 23.1597C33.6573 23.0911 33.5571 23.0053 33.4718 22.9045C33.2544 22.6494 33.1479 22.3192 33.1756 21.9847L33.2203 21.4165C33.1074 21.3693 32.9965 21.3157 32.8878 21.2535C32.2889 20.9083 31.8498 20.3337 31.6729 19.6626L31.5173 19.0772V19.0751C31.4342 18.7663 31.4683 18.4383 31.6153 18.1552C30.2768 18.1016 29.0491 17.3941 28.3244 16.262C26.0438 16.7852 24.0083 18.0738 22.5526 19.9134C21.0947 21.7553 20.3018 24.0387 20.306 26.391C20.306 26.7255 20.3231 27.06 20.3551 27.3923H22.9533C23.6524 27.3944 24.2193 27.9648 24.2215 28.6681V29.9717C24.2215 30.5828 23.7909 31.1059 23.1962 31.2238V32.7934C23.1856 33.2822 23.4627 33.7282 23.9039 33.9319C25.0187 34.4744 26.0353 35.2034 26.9092 36.0868C29.9763 37.2789 33.4231 36.9337 36.1939 35.1562V31.5734L29.2222 31.5755C28.3803 31.5734 27.6982 30.8873 27.6982 30.0403V28.846C27.7003 27.9991 28.3824 27.3129 29.2222 27.3129H43.3834C44.2232 27.3151 44.9052 27.9991 44.9073 28.846V30.0403C44.9052 30.8851 44.2253 31.5712 43.3834 31.5734H42.1705V38.5505C42.6267 39.3202 42.8675 40.2014 42.8654 41.0977C42.8654 41.3807 42.8419 41.6616 42.795 41.9382H44.1123H44.1101C45.1013 41.9403 45.9027 42.7465 45.9027 43.7414V44.1295H46.6572C47.399 44.1295 47.9979 44.7342 48 45.4803L47.9992 45.4797ZM35.8799 14.0272C35.8799 15.08 35.477 16.0941 34.7566 16.8574L39.6312 15.5431L37.9665 9.29057L37.0202 9.54572L37.6937 12.0758C37.7406 12.2559 37.715 12.4489 37.6212 12.6119C37.5296 12.7748 37.374 12.8927 37.195 12.942C37.1353 12.9571 37.0735 12.9656 37.0117 12.9656C36.6941 12.9656 36.4148 12.7512 36.3317 12.4425L35.6582 9.91451L33.774 10.4227C35.072 11.1517 35.8756 12.5303 35.8777 14.027L35.8799 14.0272ZM31.4145 9.59312L35.9758 8.36452L37.6 7.92711L37.2717 6.69209L31.0863 8.36025L31.4145 9.59312ZM33.0301 19.2911V19.2932C33.2049 19.9343 33.8614 20.316 34.5008 20.1466L40.1728 18.6178C40.8122 18.4441 41.1916 17.7816 41.0211 17.1384L40.8975 16.6709L32.9049 18.8237L33.0301 19.2911ZM40.7778 19.9065C40.6989 19.9365 40.62 19.9643 40.5369 19.9836L39.0662 20.3803L39.6097 21.1736L40.9887 20.2173L40.7778 19.9065ZM36.2592 22.0763L36.3359 21.1157L34.8652 21.5124C34.7842 21.5338 34.7011 21.551 34.618 21.566L34.5881 21.9434L36.2592 22.0763ZM35.4556 23.5901L35.4684 23.4314L35.1593 23.4057L35.1465 23.5643L35.4556 23.5901ZM41.3191 21.9026L41.2296 21.7718L40.9759 21.9477L41.0654 22.0785L41.3191 21.9026ZM31.5466 2.51769L31.9601 4.07218L34.3835 3.41822L33.9679 1.86159L31.5466 2.51769ZM30.6045 6.5487L30.7238 6.99254L36.9093 5.32438L36.7899 4.88054C36.7004 4.55035 36.3615 4.35523 36.0333 4.44099L31.0415 5.78536C30.7132 5.87756 30.5171 6.21852 30.6045 6.5487ZM29.0762 14.0275C29.0762 15.1253 29.7348 16.1159 30.743 16.5361C31.7512 16.9564 32.9128 16.7226 33.6844 15.9465C34.456 15.1703 34.6882 14.0017 34.2705 12.9876C33.8527 11.9734 32.868 11.3108 31.7767 11.3108C31.0606 11.3108 30.3721 11.596 29.867 12.1063C29.3597 12.6145 29.0762 13.307 29.0762 14.0275ZM44.1093 43.3552H30.1058C30.1144 43.5396 30.1208 43.724 30.1208 43.9084V44.1292H44.4974V43.7411C44.4953 43.5289 44.3225 43.3552 44.1093 43.3552ZM32.9148 41.0974C32.9148 40.9452 32.9234 40.7951 32.9361 40.645C32.1774 40.7693 31.4079 40.8315 30.6385 40.8315C30.3188 40.8315 29.999 40.8187 29.6815 40.7994C29.7902 41.1746 29.8797 41.5541 29.9479 41.9379H32.9873C32.9404 41.6613 32.9148 41.3804 32.9148 41.0974ZM37.8896 41.8114C38.1773 41.8114 38.4352 41.6377 38.5461 41.3719C38.6548 41.1038 38.5951 40.7972 38.3905 40.5935C38.188 40.3898 37.8832 40.3276 37.6167 40.4391C37.3524 40.5485 37.1798 40.8101 37.1798 41.0974C37.1798 41.4919 37.4974 41.8114 37.8896 41.8114ZM41.3574 41.9379C41.6132 40.8701 41.366 39.7444 40.6903 38.8804C40.0146 38.0184 38.9809 37.5145 37.8896 37.5145C36.7983 37.5145 35.7646 38.0184 35.0889 38.8804C34.4132 39.7444 34.166 40.8701 34.4217 41.9379H35.9457C35.6644 41.2797 35.7305 40.5249 36.1226 39.9245C36.5148 39.3264 37.1798 38.9661 37.8917 38.9661C38.6036 38.9661 39.2686 39.3263 39.6608 39.9245C40.0509 40.5249 40.1191 41.2797 39.8356 41.9379H41.3574ZM29.2212 30.158H43.3823C43.4441 30.1537 43.4932 30.1044 43.4974 30.0422V28.8457C43.4932 28.7836 43.4442 28.7321 43.3823 28.73H29.2212C29.1594 28.7321 29.1104 28.7836 29.1061 28.8457V30.04C29.1082 30.1022 29.1594 30.1537 29.2212 30.158ZM37.5996 31.5731V35.5333C37.5996 35.767 37.4866 35.9836 37.2948 36.1165L37.2735 36.1294V36.1315C37.4781 36.1058 37.6827 36.0929 37.8895 36.0908C38.9189 36.0908 39.9229 36.4124 40.7605 37.0128V31.573L37.5996 31.5731ZM30.6382 38.2005C29.8922 38.2026 29.1505 38.1319 28.4194 37.9904C28.6901 38.4192 28.9288 38.8674 29.1377 39.3283C29.6365 39.3862 30.1373 39.4141 30.6382 39.4162C31.5355 39.4162 32.4329 39.3219 33.3132 39.1375C33.5561 38.565 33.9035 38.0461 34.3384 37.6023C33.1448 38.0011 31.8936 38.2027 30.6382 38.2005ZM17.7304 27.3921H18.9411C18.9134 27.0598 18.8985 26.7253 18.8985 26.3908H18.8963C18.8921 23.7599 19.7638 21.202 21.3731 19.1267C22.9802 17.0512 25.231 15.5759 27.7697 14.937C27.7015 14.639 27.6674 14.3324 27.6674 14.0279C27.6674 13.9207 27.6717 13.8157 27.6802 13.7106H27.6823C24.8454 14.3946 22.3196 16.0156 20.5082 18.3141C18.6943 20.6147 17.7032 23.4579 17.6883 26.3911C17.6904 26.7256 17.7053 27.0601 17.7309 27.3924L17.7304 27.3921ZM15.4008 29.83L22.8139 29.8321V28.8094H15.4008V29.83ZM9.57111 42.7462C10.8265 42.7998 12.0713 43.0185 13.2712 43.3916C15.2002 44.0327 17.2506 44.2128 19.2624 43.919C22.1569 42.03 25.0599 41.4018 28.3229 41.2024C27.5556 38.5823 25.7289 36.4038 23.2863 35.2051C22.3591 34.7677 21.7709 33.8243 21.7837 32.793V31.2471H16.4274V32.793C16.4402 33.8243 15.8519 34.7678 14.9226 35.2051C11.9876 36.6481 9.97554 39.4848 9.57057 42.7459L9.57111 42.7462ZM10.2233 47.594C12.6958 47.5576 15.1064 46.8286 17.1869 45.4864C15.7353 45.4285 14.2988 45.1841 12.9091 44.7595C11.805 44.41 10.6604 44.2085 9.5052 44.1613C9.53504 45.3385 9.77786 46.5027 10.2233 47.594ZM1.46734 28.2195C1.43537 28.2217 1.40979 28.2453 1.40766 28.2774V30.5116C1.40979 30.5438 1.43537 30.5695 1.46734 30.5695H11.5618C11.5938 30.5695 11.6193 30.5438 11.6215 30.5116V28.2796C11.6193 28.2474 11.5938 28.2238 11.5618 28.2217L1.46734 28.2195ZM2.40301 31.9911V33.2883H10.6259V31.9911H2.40301ZM2.40301 45.1433H8.16012C8.11537 44.7337 8.09192 44.3199 8.09192 43.9082C8.09192 43.7389 8.09618 43.5695 8.10471 43.4022L3.64149 43.4001C3.25144 43.4001 2.93597 43.0849 2.93597 42.6925C2.93597 42.3023 3.25142 41.9849 3.64149 41.9849H8.26027C8.30716 41.7233 8.36045 41.4617 8.42439 41.2044H3.64148C3.25995 41.1937 2.95729 40.8807 2.95729 40.4968C2.95729 40.113 3.25996 39.8 3.64148 39.7892H8.88055C9.3047 38.7193 9.893 37.7245 10.6262 36.8389V34.7055H2.4033L2.40301 45.1433ZM2.85701 25.7215V26.8044H10.1719V25.7215C10.1698 25.595 10.0675 25.4921 9.94174 25.49H3.08897C2.96108 25.4921 2.85914 25.595 2.85701 25.7215ZM9.48388 49.3028C9.0043 48.4409 8.64407 47.5189 8.40961 46.5605H2.40532C2.46713 48.7989 4.28736 50.5807 6.51469 50.585C7.63796 50.5871 8.71228 50.124 9.48388 49.3028ZM28.7135 43.9082C28.7114 43.4729 28.6816 43.0355 28.624 42.6045C24.8173 42.8125 21.5563 43.6059 18.2289 46.464C17.4829 47.1029 14.8271 48.6789 10.9265 48.9726L10.9244 48.9705C11.2271 49.4679 11.5745 49.9353 11.9624 50.3685H15.0721C15.1446 50.362 15.2171 50.362 15.2895 50.3685H26.2516C27.8395 48.5974 28.7178 46.2949 28.7135 43.9082ZM46.5922 45.5463L30.0013 45.5442C29.8968 46.2582 29.722 46.9593 29.4812 47.639H46.5899L46.5922 45.5463ZM29.8648 14.5423C29.5835 13.4809 30.208 12.3917 31.2609 12.1065C32.0325 11.8985 32.8553 12.1794 33.3412 12.8162C33.8272 13.4552 33.8847 14.3257 33.484 15.0225C33.0854 15.7172 32.3075 16.1032 31.5146 15.9981C30.7217 15.893 30.0716 15.3184 29.8648 14.5423ZM31.2226 14.1756C31.2823 14.3986 31.4698 14.5637 31.6979 14.5937C31.9259 14.6237 32.1497 14.5144 32.2649 14.3128C32.38 14.1134 32.3629 13.8626 32.2244 13.6782C32.0837 13.4959 31.8471 13.4145 31.6254 13.4745C31.4783 13.5131 31.3547 13.6096 31.278 13.7404C31.2034 13.8712 31.1821 14.0298 31.2226 14.1756ZM3.64176 38.0056H6.77922C7.16714 38.0056 7.48261 37.6882 7.48261 37.298C7.48261 36.9056 7.16716 36.5904 6.77922 36.5904H3.64176C3.25171 36.5904 2.93624 36.9056 2.93624 37.298C2.93624 37.6882 3.25168 38.0056 3.64176 38.0056ZM15.1282 39.8323V37.8747C15.1282 37.2851 15.6035 36.807 16.1917 36.8048H17.072L17.0699 35.9193C17.072 35.3297 17.5473 34.8515 18.1335 34.8515H20.0794C20.6656 34.8515 21.1409 35.3297 21.143 35.9193V36.8048H22.0233H22.0212C22.6094 36.8048 23.0848 37.2851 23.0869 37.8747V39.8323C23.0847 40.422 22.6094 40.9001 22.0212 40.9001H21.143V41.7857C21.1409 42.3774 20.6656 42.8556 20.0794 42.8556H18.1335C17.5473 42.8556 17.072 42.3774 17.0699 41.7857V40.9001H16.1917C15.6035 40.9001 15.1282 40.422 15.1282 39.8323ZM16.5349 39.485H17.7754C18.1633 39.485 18.4787 39.8023 18.4787 40.1926V41.4405H19.7342V40.1926C19.7342 39.8023 20.0496 39.485 20.4376 39.485H21.678V38.2221H20.4376C20.2521 38.2221 20.0731 38.147 19.9409 38.0141C19.8088 37.8812 19.7342 37.7011 19.7342 37.5145V36.2666H18.4788V37.5145C18.4788 37.9048 18.1633 38.2221 17.7754 38.2221H16.5328L16.5349 39.485Z" fill="url(#paint0_linear_3_1438)"/>
<defs>
<linearGradient id="paint0_linear_3_1438" x1="36.2575" y1="38.1875" x2="-5.97016" y2="19.5355" gradientUnits="userSpaceOnUse">
<stop stop-color="#55097B"/>
<stop offset="1" stop-color="#F00045"/>
</linearGradient>
</defs>
</svg>
