<svg width="428" height="211" viewBox="0 0 428 211" fill="none" xmlns="http://www.w3.org/2000/svg">
<path d="M55.2283 0.144267H52.3508C52.2388 0.144267 52.1587 0.172255 52.1107 0.22823C52.0627 0.284205 52.0227 0.408149 51.9827 0.596065L47.4123 17.6405C47.2602 18.1682 47.1402 18.4961 47.0441 18.628C46.9521 18.76 46.792 18.8239 46.5639 18.8239C46.2837 18.8239 46.0836 18.752 45.9716 18.612C45.8595 18.4721 45.7354 18.1482 45.6034 17.6405L41.1851 0.596065C41.1491 0.408149 41.1051 0.284205 41.057 0.22823C41.009 0.172255 40.929 0.144267 40.8169 0.144267H37.9394C37.6393 0.144267 37.5272 0.296199 37.5993 0.596065L42.2817 18.5161C42.6379 19.9994 43.0621 20.931 43.5503 21.3068C43.9825 21.6627 44.9871 21.8426 46.5679 21.8426C48.0526 21.8426 49.0131 21.6627 49.4453 21.3068C49.8776 20.951 50.3098 20.0194 50.742 18.5161L55.5685 0.596065C55.6445 0.296199 55.5325 0.144267 55.2283 0.144267Z" fill="url(#paint0_linear_386_2609)"/>
<path d="M204.21 38.5935H201.333C201.22 38.5935 201.14 38.6215 201.092 38.6774C201.044 38.7334 201.004 38.8574 200.964 39.0453L196.394 56.0897C196.242 56.6175 196.122 56.9453 196.026 57.0772C195.934 57.2092 195.774 57.2732 195.546 57.2732C195.265 57.2732 195.065 57.2012 194.953 57.0613C194.841 56.9213 194.717 56.5975 194.585 56.0897L190.167 39.0453C190.131 38.8574 190.087 38.7334 190.039 38.6774C189.991 38.6215 189.911 38.5935 189.799 38.5935H186.921C186.621 38.5935 186.509 38.7454 186.581 39.0453L191.263 56.9653C191.62 58.4486 192.044 59.3802 192.532 59.7561C192.964 60.1119 193.969 60.2918 195.55 60.2918C197.034 60.2918 197.995 60.1119 198.427 59.7561C198.859 59.4002 199.291 58.4686 199.724 56.9653L204.55 39.0453C204.626 38.7454 204.514 38.5935 204.21 38.5935Z" fill="url(#paint1_linear_386_2609)"/>
<path d="M204.21 0H201.333C201.22 0 201.14 0.0279875 201.092 0.0839625C201.044 0.139938 201.004 0.263882 200.964 0.451798L196.394 17.4962C196.242 18.024 196.122 18.3518 196.026 18.4838C195.934 18.6157 195.774 18.6797 195.546 18.6797C195.265 18.6797 195.065 18.6077 194.953 18.4678C194.841 18.3278 194.717 18.004 194.585 17.4962L190.167 0.451798C190.131 0.263882 190.087 0.139938 190.039 0.0839625C189.991 0.0279875 189.911 0 189.799 0H186.921C186.621 0 186.509 0.151932 186.581 0.451798L191.263 18.3718C191.62 19.8551 192.044 20.7867 192.532 21.1626C192.964 21.5184 193.969 21.6983 195.55 21.6983C197.034 21.6983 197.995 21.5184 198.427 21.1626C198.859 20.8067 199.291 19.8751 199.724 18.3718L204.55 0.451798C204.626 0.151932 204.514 0 204.21 0Z" fill="url(#paint2_linear_386_2609)"/>
<path d="M129.775 77.187H126.897C126.785 77.187 126.705 77.215 126.657 77.2709C126.609 77.3269 126.569 77.4509 126.529 77.6388L121.959 94.6832C121.806 95.2109 121.686 95.5388 121.59 95.6707C121.498 95.8027 121.338 95.8666 121.11 95.8666C120.83 95.8666 120.63 95.7947 120.518 95.6547C120.406 95.5148 120.282 95.1909 120.15 94.6832L115.731 77.6388C115.695 77.4509 115.651 77.3269 115.603 77.2709C115.555 77.215 115.475 77.187 115.363 77.187H112.486C112.185 77.187 112.073 77.3389 112.145 77.6388L116.828 95.5588C117.184 97.0421 117.608 97.9737 118.097 98.3495C118.529 98.7054 119.533 98.8853 121.114 98.8853C122.599 98.8853 123.559 98.7054 123.992 98.3495C124.424 97.9937 124.856 97.0621 125.288 95.5588L130.115 77.6388C130.191 77.3389 130.079 77.187 129.775 77.187Z" fill="url(#paint3_linear_386_2609)"/>
<path d="M17.9882 21.2465L13.1658 3.32652C12.7335 1.82319 12.3013 0.8956 11.8691 0.535761C11.4369 0.17992 10.4764 0 8.99161 0C7.4108 0 6.40629 0.17992 5.97407 0.535761C5.48582 0.911593 5.0616 1.83918 4.70542 3.32652L0.0230218 21.2465C-0.0530172 21.5464 0.0590366 21.6983 0.363192 21.6983H3.24067C3.35273 21.6983 3.43277 21.6703 3.48079 21.6144C3.52882 21.5584 3.56884 21.4344 3.60886 21.2465L8.03512 4.20212C8.16719 3.69435 8.28725 3.3705 8.40331 3.23056C8.51537 3.09062 8.71548 3.01865 8.99562 3.01865C9.21973 3.01865 9.37982 3.08262 9.47586 3.21457C9.57191 3.34651 9.69197 3.67436 9.84405 4.20212L14.4144 21.2465C14.4504 21.4344 14.4944 21.5584 14.5425 21.6144C14.5905 21.6703 14.6705 21.6983 14.7826 21.6983H17.6601C17.9602 21.6983 18.0723 21.5464 18.0002 21.2465H17.9882Z" fill="url(#paint4_linear_386_2609)"/>
<path d="M17.9882 98.4335L13.1658 80.5135C12.7335 79.0102 12.3013 78.0826 11.8691 77.7227C11.4369 77.3669 10.4764 77.187 8.99161 77.187C7.4108 77.187 6.40629 77.3669 5.97407 77.7227C5.48582 78.0986 5.0616 79.0262 4.70542 80.5135L0.0230218 98.4335C-0.0530172 98.7334 0.0590366 98.8853 0.363192 98.8853H3.24067C3.35273 98.8853 3.43277 98.8573 3.48079 98.8013C3.52882 98.7454 3.56884 98.6214 3.60886 98.4335L8.03512 81.3891C8.16719 80.8813 8.28725 80.5575 8.40331 80.4175C8.51537 80.2776 8.71548 80.2056 8.99562 80.2056C9.21973 80.2056 9.37982 80.2696 9.47586 80.4016C9.57191 80.5335 9.69197 80.8613 9.84405 81.3891L14.4144 98.4335C14.4504 98.6214 14.4944 98.7454 14.5425 98.8013C14.5905 98.8573 14.6705 98.8853 14.7826 98.8853H17.6601C17.9602 98.8853 18.0723 98.7334 18.0002 98.4335H17.9882Z" fill="url(#paint5_linear_386_2609)"/>
<path d="M93.3665 21.2465L88.544 3.32652C88.1118 1.82319 87.6796 0.8956 87.2473 0.535761C86.8151 0.17992 85.8546 0 84.3699 0C82.789 0 81.7845 0.17992 81.3523 0.535761C80.8641 0.911593 80.4398 1.83918 80.0837 3.32652L75.4013 21.2465C75.3252 21.5464 75.4373 21.6983 75.7414 21.6983H78.6189C78.731 21.6983 78.811 21.6703 78.859 21.6144C78.9071 21.5584 78.9471 21.4344 78.9871 21.2465L83.4134 4.20212C83.5454 3.69435 83.6655 3.3705 83.7816 3.23056C83.8936 3.09062 84.0937 3.01865 84.3739 3.01865C84.598 3.01865 84.7581 3.08262 84.8541 3.21457C84.9501 3.34651 85.0702 3.67436 85.2223 4.20212L89.7926 21.2465C89.8287 21.4344 89.8727 21.5584 89.9207 21.6144C89.9687 21.6703 90.0488 21.6983 90.1608 21.6983H93.0383C93.3385 21.6983 93.4505 21.5464 93.3785 21.2465H93.3665Z" fill="url(#paint6_linear_386_2609)"/>
<path d="M93.3665 59.84L88.544 41.92C88.1118 40.4167 87.6796 39.4891 87.2473 39.1292C86.8151 38.7734 85.8546 38.5935 84.3699 38.5935C82.789 38.5935 81.7845 38.7734 81.3523 39.1292C80.8641 39.5051 80.4398 40.4327 80.0837 41.92L75.4013 59.84C75.3252 60.1399 75.4373 60.2918 75.7414 60.2918H78.6189C78.731 60.2918 78.811 60.2638 78.859 60.2078C78.9071 60.1519 78.9471 60.0279 78.9871 59.84L83.4134 42.7956C83.5454 42.2878 83.6655 41.964 83.7816 41.824C83.8936 41.6841 84.0937 41.6121 84.3739 41.6121C84.598 41.6121 84.7581 41.6761 84.8541 41.8081C84.9501 41.94 85.0702 42.2678 85.2223 42.7956L89.7926 59.84C89.8287 60.0279 89.8727 60.1519 89.9207 60.2078C89.9687 60.2638 90.0488 60.2918 90.1608 60.2918H93.0383C93.3385 60.2918 93.4505 60.1399 93.3785 59.84H93.3665Z" fill="url(#paint7_linear_386_2609)"/>
<path d="M93.3665 98.4335L88.544 80.5135C88.1118 79.0102 87.6796 78.0826 87.2473 77.7227C86.8151 77.3669 85.8546 77.187 84.3699 77.187C82.789 77.187 81.7845 77.3669 81.3523 77.7227C80.8641 78.0986 80.4398 79.0262 80.0837 80.5135L75.4013 98.4335C75.3252 98.7334 75.4373 98.8853 75.7414 98.8853H78.6189C78.731 98.8853 78.811 98.8573 78.859 98.8013C78.9071 98.7454 78.9471 98.6214 78.9871 98.4335L83.4134 81.3891C83.5454 80.8813 83.6655 80.5575 83.7816 80.4175C83.8936 80.2776 84.0937 80.2056 84.3739 80.2056C84.598 80.2056 84.7581 80.2696 84.8541 80.4016C84.9501 80.5335 85.0702 80.8613 85.2223 81.3891L89.7926 98.4335C89.8287 98.6214 89.8727 98.7454 89.9207 98.8013C89.9687 98.8573 90.0488 98.8853 90.1608 98.8853H93.0383C93.3385 98.8853 93.4505 98.7334 93.3785 98.4335H93.3665Z" fill="url(#paint8_linear_386_2609)"/>
<path d="M166.86 98.4335L162.037 80.5135C161.605 79.0102 161.173 78.0826 160.741 77.7227C160.309 77.3669 159.348 77.187 157.863 77.187C156.282 77.187 155.278 77.3669 154.846 77.7227C154.357 78.0986 153.933 79.0262 153.577 80.5135L148.895 98.4335C148.819 98.7334 148.931 98.8853 149.235 98.8853H152.112C152.224 98.8853 152.304 98.8573 152.352 98.8013C152.4 98.7454 152.44 98.6214 152.481 98.4335L156.907 81.3891C157.039 80.8813 157.159 80.5575 157.275 80.4175C157.387 80.2776 157.587 80.2056 157.867 80.2056C158.091 80.2056 158.251 80.2696 158.348 80.4016C158.444 80.5335 158.564 80.8613 158.716 81.3891L163.286 98.4335C163.322 98.6214 163.366 98.7454 163.414 98.8013C163.462 98.8573 163.542 98.8853 163.654 98.8853H166.532C166.832 98.8853 166.944 98.7334 166.872 98.4335H166.86Z" fill="url(#paint9_linear_386_2609)"/>
<path d="M166.86 59.84L162.037 41.92C161.605 40.4167 161.173 39.4891 160.741 39.1292C160.309 38.7734 159.348 38.5935 157.863 38.5935C156.282 38.5935 155.278 38.7734 154.846 39.1292C154.357 39.5051 153.933 40.4327 153.577 41.92L148.895 59.84C148.819 60.1399 148.931 60.2918 149.235 60.2918H152.112C152.224 60.2918 152.304 60.2638 152.352 60.2078C152.4 60.1519 152.44 60.0279 152.481 59.84L156.907 42.7956C157.039 42.2878 157.159 41.964 157.275 41.824C157.387 41.6841 157.587 41.6121 157.867 41.6121C158.091 41.6121 158.251 41.6761 158.348 41.8081C158.444 41.94 158.564 42.2678 158.716 42.7956L163.286 59.84C163.322 60.0279 163.366 60.1519 163.414 60.2078C163.462 60.2638 163.542 60.2918 163.654 60.2918H166.532C166.832 60.2918 166.944 60.1399 166.872 59.84H166.86Z" fill="url(#paint10_linear_386_2609)"/>
<path d="M278.656 0.144267H275.778C275.666 0.144267 275.586 0.172255 275.538 0.22823C275.49 0.284205 275.45 0.408149 275.41 0.596065L270.84 17.6405C270.688 18.1682 270.568 18.4961 270.472 18.628C270.38 18.76 270.219 18.8239 269.991 18.8239C269.711 18.8239 269.511 18.752 269.399 18.612C269.287 18.4721 269.163 18.1482 269.031 17.6405L264.613 0.596065C264.577 0.408149 264.533 0.284205 264.485 0.22823C264.436 0.172255 264.356 0.144267 264.244 0.144267H261.367C261.067 0.144267 260.955 0.296199 261.027 0.596065L265.709 18.5161C266.065 19.9994 266.49 20.931 266.978 21.3068C267.41 21.6627 268.415 21.8426 269.995 21.8426C271.48 21.8426 272.441 21.6627 272.873 21.3068C273.305 20.951 273.737 20.0194 274.169 18.5161L278.996 0.596065C279.072 0.296199 278.96 0.144267 278.656 0.144267Z" fill="url(#paint11_linear_386_2609)"/>
<path d="M278.656 38.6155H275.778C275.666 38.6155 275.586 38.6435 275.538 38.6994C275.49 38.7554 275.45 38.8794 275.41 39.0673L270.84 56.1117C270.688 56.6394 270.568 56.9673 270.472 57.0992C270.38 57.2312 270.219 57.2951 269.991 57.2951C269.711 57.2951 269.511 57.2232 269.399 57.0832C269.287 56.9433 269.163 56.6194 269.031 56.1117L264.613 39.0673C264.577 38.8794 264.533 38.7554 264.485 38.6994C264.436 38.6435 264.356 38.6155 264.244 38.6155H261.367C261.067 38.6155 260.955 38.7674 261.027 39.0673L265.709 56.9873C266.065 58.4706 266.49 59.4022 266.978 59.778C267.41 60.1339 268.415 60.3138 269.995 60.3138C271.48 60.3138 272.441 60.1339 272.873 59.778C273.305 59.4222 273.737 58.4906 274.169 56.9873L278.996 39.0673C279.072 38.7674 278.96 38.6155 278.656 38.6155Z" fill="url(#paint12_linear_386_2609)"/>
<path d="M278.656 77.2296H275.778C275.666 77.2296 275.586 77.2576 275.538 77.3135C275.49 77.3695 275.45 77.4935 275.41 77.6814L270.84 94.7258C270.688 95.2535 270.568 95.5814 270.472 95.7133C270.38 95.8453 270.219 95.9092 269.991 95.9092C269.711 95.9092 269.511 95.8373 269.399 95.6973C269.287 95.5574 269.163 95.2335 269.031 94.7258L264.613 77.6814C264.577 77.4935 264.533 77.3695 264.485 77.3135C264.436 77.2576 264.356 77.2296 264.244 77.2296H261.367C261.067 77.2296 260.955 77.3815 261.027 77.6814L265.709 95.6014C266.065 97.0847 266.49 98.0163 266.978 98.3921C267.41 98.748 268.415 98.9279 269.995 98.9279C271.48 98.9279 272.441 98.748 272.873 98.3921C273.305 98.0363 273.737 97.1047 274.169 95.6014L278.996 77.6814C279.072 77.3815 278.96 77.2296 278.656 77.2296Z" fill="url(#paint13_linear_386_2609)"/>
<path d="M427.637 38.5935H424.759C424.647 38.5935 424.567 38.6215 424.519 38.6774C424.471 38.7334 424.431 38.8574 424.391 39.0453L419.821 56.0897C419.669 56.6175 419.549 56.9453 419.453 57.0772C419.361 57.2092 419.201 57.2732 418.972 57.2732C418.692 57.2732 418.492 57.2012 418.38 57.0613C418.268 56.9213 418.144 56.5975 418.012 56.0897L413.594 39.0453C413.558 38.8574 413.514 38.7334 413.466 38.6774C413.418 38.6215 413.337 38.5935 413.225 38.5935H410.348C410.048 38.5935 409.936 38.7454 410.008 39.0453L414.69 56.9653C415.046 58.4486 415.471 59.3802 415.959 59.7561C416.391 60.1119 417.396 60.2918 418.976 60.2918C420.461 60.2918 421.422 60.1119 421.854 59.7561C422.286 59.4002 422.718 58.4686 423.151 56.9653L427.977 39.0453C428.053 38.7454 427.941 38.5935 427.637 38.5935Z" fill="url(#paint14_linear_386_2609)"/>
<path d="M427.637 0H424.759C424.647 0 424.567 0.0279875 424.519 0.0839625C424.471 0.139938 424.431 0.263882 424.391 0.451798L419.821 17.4962C419.669 18.024 419.549 18.3518 419.453 18.4838C419.361 18.6157 419.201 18.6797 418.972 18.6797C418.692 18.6797 418.492 18.6077 418.38 18.4678C418.268 18.3278 418.144 18.004 418.012 17.4962L413.594 0.451798C413.558 0.263882 413.514 0.139938 413.466 0.0839625C413.418 0.0279875 413.337 0 413.225 0H410.348C410.048 0 409.936 0.151932 410.008 0.451798L414.69 18.3718C415.046 19.8551 415.471 20.7867 415.959 21.1626C416.391 21.5184 417.396 21.6983 418.976 21.6983C420.461 21.6983 421.422 21.5184 421.854 21.1626C422.286 20.8067 422.718 19.8751 423.151 18.3718L427.977 0.451798C428.053 0.151932 427.941 0 427.637 0Z" fill="url(#paint15_linear_386_2609)"/>
<path d="M353.202 77.187H350.324C350.212 77.187 350.132 77.215 350.084 77.2709C350.036 77.3269 349.996 77.4509 349.956 77.6388L345.386 94.6832C345.234 95.2109 345.114 95.5388 345.018 95.6707C344.926 95.8027 344.766 95.8666 344.538 95.8666C344.257 95.8666 344.057 95.7947 343.945 95.6547C343.833 95.5148 343.709 95.1909 343.577 94.6832L339.159 77.6388C339.123 77.4509 339.079 77.3269 339.031 77.2709C338.983 77.215 338.903 77.187 338.791 77.187H335.913C335.613 77.187 335.501 77.3389 335.573 77.6388L340.255 95.5588C340.612 97.0421 341.036 97.9737 341.524 98.3495C341.956 98.7054 342.961 98.8853 344.542 98.8853C346.026 98.8853 346.987 98.7054 347.419 98.3495C347.851 97.9937 348.283 97.0621 348.716 95.5588L353.542 77.6388C353.618 77.3389 353.506 77.187 353.202 77.187Z" fill="url(#paint16_linear_386_2609)"/>
<path d="M353.202 38.6155H350.324C350.212 38.6155 350.132 38.6435 350.084 38.6994C350.036 38.7554 349.996 38.8794 349.956 39.0673L345.386 56.1117C345.234 56.6394 345.114 56.9673 345.018 57.0992C344.926 57.2312 344.766 57.2951 344.538 57.2951C344.257 57.2951 344.057 57.2232 343.945 57.0832C343.833 56.9433 343.709 56.6194 343.577 56.1117L339.159 39.0673C339.123 38.8794 339.079 38.7554 339.031 38.6994C338.983 38.6435 338.903 38.6155 338.791 38.6155H335.913C335.613 38.6155 335.501 38.7674 335.573 39.0673L340.255 56.9873C340.612 58.4706 341.036 59.4022 341.524 59.778C341.956 60.1339 342.961 60.3138 344.542 60.3138C346.026 60.3138 346.987 60.1339 347.419 59.778C347.851 59.4222 348.283 58.4906 348.716 56.9873L353.542 39.0673C353.618 38.7674 353.506 38.6155 353.202 38.6155Z" fill="url(#paint17_linear_386_2609)"/>
<path d="M241.416 21.2465L236.593 3.32652C236.161 1.82319 235.729 0.8956 235.297 0.535761C234.864 0.17992 233.904 0 232.419 0C230.838 0 229.834 0.17992 229.402 0.535761C228.913 0.911593 228.489 1.83918 228.133 3.32652L223.451 21.2465C223.374 21.5464 223.487 21.6983 223.791 21.6983H226.668C226.78 21.6983 226.86 21.6703 226.908 21.6144C226.956 21.5584 226.996 21.4344 227.036 21.2465L231.463 4.20212C231.595 3.69435 231.715 3.3705 231.831 3.23056C231.943 3.09062 232.143 3.01865 232.423 3.01865C232.647 3.01865 232.807 3.08262 232.903 3.21457C232.999 3.34651 233.119 3.67436 233.272 4.20212L237.842 21.2465C237.878 21.4344 237.922 21.5584 237.97 21.6144C238.018 21.6703 238.098 21.6983 238.21 21.6983H241.088C241.388 21.6983 241.5 21.5464 241.428 21.2465H241.416Z" fill="url(#paint18_linear_386_2609)"/>
<path d="M316.794 21.2465L311.971 3.32652C311.539 1.82319 311.107 0.8956 310.675 0.535761C310.243 0.17992 309.282 0 307.797 0C306.217 0 305.212 0.17992 304.78 0.535761C304.292 0.911593 303.867 1.83918 303.511 3.32652L298.829 21.2465C298.753 21.5464 298.865 21.6983 299.169 21.6983H302.046C302.158 21.6983 302.238 21.6703 302.287 21.6144C302.335 21.5584 302.375 21.4344 302.415 21.2465L306.841 4.20212C306.973 3.69435 307.093 3.3705 307.209 3.23056C307.321 3.09062 307.521 3.01865 307.801 3.01865C308.025 3.01865 308.186 3.08262 308.282 3.21457C308.378 3.34651 308.498 3.67436 308.65 4.20212L313.22 21.2465C313.256 21.4344 313.3 21.5584 313.348 21.6144C313.396 21.6703 313.476 21.6983 313.588 21.6983H316.466C316.766 21.6983 316.878 21.5464 316.806 21.2465H316.794Z" fill="url(#paint19_linear_386_2609)"/>
<path d="M316.794 59.84L311.971 41.92C311.539 40.4167 311.107 39.4891 310.675 39.1292C310.243 38.7734 309.282 38.5935 307.797 38.5935C306.217 38.5935 305.212 38.7734 304.78 39.1292C304.292 39.5051 303.867 40.4327 303.511 41.92L298.829 59.84C298.753 60.1399 298.865 60.2918 299.169 60.2918H302.046C302.158 60.2918 302.238 60.2638 302.287 60.2078C302.335 60.1519 302.375 60.0279 302.415 59.84L306.841 42.7956C306.973 42.2878 307.093 41.964 307.209 41.824C307.321 41.6841 307.521 41.6121 307.801 41.6121C308.025 41.6121 308.186 41.6761 308.282 41.8081C308.378 41.94 308.498 42.2678 308.65 42.7956L313.22 59.84C313.256 60.0279 313.3 60.1519 313.348 60.2078C313.396 60.2638 313.476 60.2918 313.588 60.2918H316.466C316.766 60.2918 316.878 60.1399 316.806 59.84H316.794Z" fill="url(#paint20_linear_386_2609)"/>
<path d="M316.794 98.4335L311.971 80.5135C311.539 79.0102 311.107 78.0826 310.675 77.7227C310.243 77.3669 309.282 77.187 307.797 77.187C306.217 77.187 305.212 77.3669 304.78 77.7227C304.292 78.0986 303.867 79.0262 303.511 80.5135L298.829 98.4335C298.753 98.7334 298.865 98.8853 299.169 98.8853H302.046C302.158 98.8853 302.238 98.8573 302.287 98.8013C302.335 98.7454 302.375 98.6214 302.415 98.4335L306.841 81.3891C306.973 80.8813 307.093 80.5575 307.209 80.4175C307.321 80.2776 307.521 80.2056 307.801 80.2056C308.025 80.2056 308.186 80.2696 308.282 80.4016C308.378 80.5335 308.498 80.8613 308.65 81.3891L313.22 98.4335C313.256 98.6214 313.3 98.7454 313.348 98.8013C313.396 98.8573 313.476 98.8853 313.588 98.8853H316.466C316.766 98.8853 316.878 98.7334 316.806 98.4335H316.794Z" fill="url(#paint21_linear_386_2609)"/>
<path d="M390.287 98.4335L385.465 80.5135C385.033 79.0102 384.6 78.0826 384.168 77.7227C383.736 77.3669 382.776 77.187 381.291 77.187C379.71 77.187 378.705 77.3669 378.273 77.7227C377.785 78.0986 377.361 79.0262 377.005 80.5135L372.322 98.4335C372.246 98.7334 372.358 98.8853 372.662 98.8853H375.54C375.652 98.8853 375.732 98.8573 375.78 98.8013C375.828 98.7454 375.868 98.6214 375.908 98.4335L380.334 81.3891C380.466 80.8813 380.586 80.5575 380.702 80.4175C380.814 80.2776 381.015 80.2056 381.295 80.2056C381.519 80.2056 381.679 80.2696 381.775 80.4016C381.871 80.5335 381.991 80.8613 382.143 81.3891L386.714 98.4335C386.75 98.6214 386.794 98.7454 386.842 98.8013C386.89 98.8573 386.97 98.8853 387.082 98.8853H389.959C390.259 98.8853 390.371 98.7334 390.299 98.4335H390.287Z" fill="url(#paint22_linear_386_2609)"/>
<path d="M390.287 59.84L385.465 41.92C385.033 40.4167 384.6 39.4891 384.168 39.1292C383.736 38.7734 382.776 38.5935 381.291 38.5935C379.71 38.5935 378.705 38.7734 378.273 39.1292C377.785 39.5051 377.361 40.4327 377.005 41.92L372.322 59.84C372.246 60.1399 372.358 60.2918 372.662 60.2918H375.54C375.652 60.2918 375.732 60.2638 375.78 60.2078C375.828 60.1519 375.868 60.0279 375.908 59.84L380.334 42.7956C380.466 42.2878 380.586 41.964 380.702 41.824C380.814 41.6841 381.015 41.6121 381.295 41.6121C381.519 41.6121 381.679 41.6761 381.775 41.8081C381.871 41.94 381.991 42.2678 382.143 42.7956L386.714 59.84C386.75 60.0279 386.794 60.1519 386.842 60.2078C386.89 60.2638 386.97 60.2918 387.082 60.2918H389.959C390.259 60.2918 390.371 60.1399 390.299 59.84H390.287Z" fill="url(#paint23_linear_386_2609)"/>
<path d="M55.2283 112.258H52.3508C52.2388 112.258 52.1587 112.286 52.1107 112.342C52.0627 112.398 52.0227 112.521 51.9827 112.709L47.4123 129.754C47.2602 130.282 47.1402 130.609 47.0441 130.741C46.9521 130.873 46.792 130.937 46.5639 130.937C46.2837 130.937 46.0836 130.865 45.9716 130.725C45.8595 130.585 45.7354 130.262 45.6034 129.754L41.1851 112.709C41.1491 112.521 41.1051 112.398 41.057 112.342C41.009 112.286 40.929 112.258 40.8169 112.258H37.9394C37.6393 112.258 37.5272 112.41 37.5993 112.709L42.2817 130.629C42.6379 132.113 43.0621 133.044 43.5503 133.42C43.9825 133.776 44.9871 133.956 46.5679 133.956C48.0526 133.956 49.0131 133.776 49.4453 133.42C49.8776 133.064 50.3098 132.133 50.742 130.629L55.5685 112.709C55.6445 112.41 55.5325 112.258 55.2283 112.258Z" fill="url(#paint24_linear_386_2609)"/>
<path d="M204.21 150.707H201.333C201.22 150.707 201.14 150.735 201.092 150.791C201.044 150.847 201.004 150.971 200.964 151.159L196.394 168.203C196.242 168.731 196.122 169.059 196.026 169.191C195.934 169.323 195.774 169.386 195.546 169.386C195.265 169.386 195.065 169.315 194.953 169.175C194.841 169.035 194.717 168.711 194.585 168.203L190.167 151.159C190.131 150.971 190.087 150.847 190.039 150.791C189.991 150.735 189.911 150.707 189.799 150.707H186.921C186.621 150.707 186.509 150.859 186.581 151.159L191.263 169.079C191.62 170.562 192.044 171.494 192.532 171.869C192.964 172.225 193.969 172.405 195.55 172.405C197.034 172.405 197.995 172.225 198.427 171.869C198.859 171.514 199.291 170.582 199.724 169.079L204.55 151.159C204.626 150.859 204.514 150.707 204.21 150.707Z" fill="url(#paint25_linear_386_2609)"/>
<path d="M204.21 112.113H201.333C201.22 112.113 201.14 112.141 201.092 112.197C201.044 112.253 201.004 112.377 200.964 112.565L196.394 129.61C196.242 130.137 196.122 130.465 196.026 130.597C195.934 130.729 195.774 130.793 195.546 130.793C195.265 130.793 195.065 130.721 194.953 130.581C194.841 130.441 194.717 130.117 194.585 129.61L190.167 112.565C190.131 112.377 190.087 112.253 190.039 112.197C189.991 112.141 189.911 112.113 189.799 112.113H186.921C186.621 112.113 186.509 112.265 186.581 112.565L191.263 130.485C191.62 131.968 192.044 132.9 192.532 133.276C192.964 133.632 193.969 133.812 195.55 133.812C197.034 133.812 197.995 133.632 198.427 133.276C198.859 132.92 199.291 131.988 199.724 130.485L204.55 112.565C204.626 112.265 204.514 112.113 204.21 112.113Z" fill="url(#paint26_linear_386_2609)"/>
<path d="M129.775 189.302H126.897C126.785 189.302 126.705 189.33 126.657 189.386C126.609 189.442 126.569 189.566 126.529 189.753L121.959 206.798C121.806 207.326 121.686 207.654 121.59 207.785C121.498 207.917 121.338 207.981 121.11 207.981C120.83 207.981 120.63 207.909 120.518 207.769C120.406 207.63 120.282 207.306 120.15 206.798L115.731 189.753C115.695 189.566 115.651 189.442 115.603 189.386C115.555 189.33 115.475 189.302 115.363 189.302H112.486C112.185 189.302 112.073 189.454 112.145 189.753L116.828 207.673C117.184 209.157 117.608 210.088 118.097 210.464C118.529 210.82 119.533 211 121.114 211C122.599 211 123.559 210.82 123.992 210.464C124.424 210.108 124.856 209.177 125.288 207.673L130.115 189.753C130.191 189.454 130.079 189.302 129.775 189.302Z" fill="url(#paint27_linear_386_2609)"/>
<path d="M17.9882 133.36L13.1658 115.44C12.7335 113.937 12.3013 113.009 11.8691 112.649C11.4369 112.293 10.4764 112.113 8.99161 112.113C7.4108 112.113 6.40629 112.293 5.97407 112.649C5.48582 113.025 5.0616 113.953 4.70542 115.44L0.0230218 133.36C-0.0530172 133.66 0.0590366 133.812 0.363192 133.812H3.24067C3.35273 133.812 3.43277 133.784 3.48079 133.728C3.52882 133.672 3.56884 133.548 3.60886 133.36L8.03512 116.315C8.16719 115.808 8.28725 115.484 8.40331 115.344C8.51537 115.204 8.71548 115.132 8.99562 115.132C9.21973 115.132 9.37982 115.196 9.47586 115.328C9.57191 115.46 9.69197 115.788 9.84405 116.315L14.4144 133.36C14.4504 133.548 14.4944 133.672 14.5425 133.728C14.5905 133.784 14.6705 133.812 14.7826 133.812H17.6601C17.9602 133.812 18.0723 133.66 18.0002 133.36H17.9882Z" fill="url(#paint28_linear_386_2609)"/>
<path d="M17.9882 210.548L13.1658 192.628C12.7335 191.125 12.3013 190.197 11.8691 189.837C11.4369 189.482 10.4764 189.302 8.99161 189.302C7.4108 189.302 6.40629 189.482 5.97407 189.837C5.48582 190.213 5.0616 191.141 4.70542 192.628L0.0230218 210.548C-0.0530172 210.848 0.0590366 211 0.363192 211H3.24067C3.35273 211 3.43277 210.972 3.48079 210.916C3.52882 210.86 3.56884 210.736 3.60886 210.548L8.03512 193.504C8.16719 192.996 8.28725 192.672 8.40331 192.532C8.51537 192.392 8.71548 192.32 8.99562 192.32C9.21973 192.32 9.37982 192.384 9.47586 192.516C9.57191 192.648 9.69197 192.976 9.84405 193.504L14.4144 210.548C14.4504 210.736 14.4944 210.86 14.5425 210.916C14.5905 210.972 14.6705 211 14.7826 211H17.6601C17.9602 211 18.0723 210.848 18.0002 210.548H17.9882Z" fill="url(#paint29_linear_386_2609)"/>
<path d="M93.3665 133.36L88.544 115.44C88.1118 113.937 87.6796 113.009 87.2473 112.649C86.8151 112.293 85.8546 112.113 84.3699 112.113C82.789 112.113 81.7845 112.293 81.3523 112.649C80.8641 113.025 80.4398 113.953 80.0837 115.44L75.4013 133.36C75.3252 133.66 75.4373 133.812 75.7414 133.812H78.6189C78.731 133.812 78.811 133.784 78.859 133.728C78.9071 133.672 78.9471 133.548 78.9871 133.36L83.4134 116.315C83.5454 115.808 83.6655 115.484 83.7816 115.344C83.8936 115.204 84.0937 115.132 84.3739 115.132C84.598 115.132 84.7581 115.196 84.8541 115.328C84.9501 115.46 85.0702 115.788 85.2223 116.315L89.7926 133.36C89.8287 133.548 89.8727 133.672 89.9207 133.728C89.9687 133.784 90.0488 133.812 90.1608 133.812H93.0383C93.3385 133.812 93.4505 133.66 93.3785 133.36H93.3665Z" fill="url(#paint30_linear_386_2609)"/>
<path d="M93.3665 171.953L88.544 154.033C88.1118 152.53 87.6796 151.602 87.2473 151.243C86.8151 150.887 85.8546 150.707 84.3699 150.707C82.789 150.707 81.7845 150.887 81.3523 151.243C80.8641 151.618 80.4398 152.546 80.0837 154.033L75.4013 171.953C75.3252 172.253 75.4373 172.405 75.7414 172.405H78.6189C78.731 172.405 78.811 172.377 78.859 172.321C78.9071 172.265 78.9471 172.141 78.9871 171.953L83.4134 154.909C83.5454 154.401 83.6655 154.077 83.7816 153.937C83.8936 153.797 84.0937 153.725 84.3739 153.725C84.598 153.725 84.7581 153.789 84.8541 153.921C84.9501 154.053 85.0702 154.381 85.2223 154.909L89.7926 171.953C89.8287 172.141 89.8727 172.265 89.9207 172.321C89.9687 172.377 90.0488 172.405 90.1608 172.405H93.0383C93.3385 172.405 93.4505 172.253 93.3785 171.953H93.3665Z" fill="url(#paint31_linear_386_2609)"/>
<path d="M93.3665 210.548L88.544 192.628C88.1118 191.125 87.6796 190.197 87.2473 189.837C86.8151 189.482 85.8546 189.302 84.3699 189.302C82.789 189.302 81.7845 189.482 81.3523 189.837C80.8641 190.213 80.4398 191.141 80.0837 192.628L75.4013 210.548C75.3252 210.848 75.4373 211 75.7414 211H78.6189C78.731 211 78.811 210.972 78.859 210.916C78.9071 210.86 78.9471 210.736 78.9871 210.548L83.4134 193.504C83.5454 192.996 83.6655 192.672 83.7816 192.532C83.8936 192.392 84.0937 192.32 84.3739 192.32C84.598 192.32 84.7581 192.384 84.8541 192.516C84.9501 192.648 85.0702 192.976 85.2223 193.504L89.7926 210.548C89.8287 210.736 89.8727 210.86 89.9207 210.916C89.9687 210.972 90.0488 211 90.1608 211H93.0383C93.3385 211 93.4505 210.848 93.3785 210.548H93.3665Z" fill="url(#paint32_linear_386_2609)"/>
<path d="M278.656 112.258H275.778C275.666 112.258 275.586 112.286 275.538 112.342C275.49 112.398 275.45 112.521 275.41 112.709L270.84 129.754C270.688 130.282 270.568 130.609 270.472 130.741C270.38 130.873 270.219 130.937 269.991 130.937C269.711 130.937 269.511 130.865 269.399 130.725C269.287 130.585 269.163 130.262 269.031 129.754L264.613 112.709C264.577 112.521 264.533 112.398 264.485 112.342C264.436 112.286 264.356 112.258 264.244 112.258H261.367C261.067 112.258 260.955 112.41 261.027 112.709L265.709 130.629C266.065 132.113 266.49 133.044 266.978 133.42C267.41 133.776 268.415 133.956 269.995 133.956C271.48 133.956 272.441 133.776 272.873 133.42C273.305 133.064 273.737 132.133 274.169 130.629L278.996 112.709C279.072 112.41 278.96 112.258 278.656 112.258Z" fill="url(#paint33_linear_386_2609)"/>
<path d="M278.656 150.729H275.778C275.666 150.729 275.586 150.757 275.538 150.813C275.49 150.869 275.45 150.993 275.41 151.181L270.84 168.225C270.688 168.753 270.568 169.081 270.472 169.213C270.38 169.344 270.219 169.408 269.991 169.408C269.711 169.408 269.511 169.337 269.399 169.197C269.287 169.057 269.163 168.733 269.031 168.225L264.613 151.181C264.577 150.993 264.533 150.869 264.485 150.813C264.436 150.757 264.356 150.729 264.244 150.729H261.367C261.067 150.729 260.955 150.881 261.027 151.181L265.709 169.101C266.065 170.584 266.49 171.516 266.978 171.891C267.41 172.247 268.415 172.427 269.995 172.427C271.48 172.427 272.441 172.247 272.873 171.891C273.305 171.536 273.737 170.604 274.169 169.101L278.996 151.181C279.072 150.881 278.96 150.729 278.656 150.729Z" fill="url(#paint34_linear_386_2609)"/>
<path d="M427.637 150.707H424.759C424.647 150.707 424.567 150.735 424.519 150.791C424.471 150.847 424.431 150.971 424.391 151.159L419.821 168.203C419.669 168.731 419.549 169.059 419.453 169.191C419.361 169.323 419.201 169.386 418.972 169.386C418.692 169.386 418.492 169.315 418.38 169.175C418.268 169.035 418.144 168.711 418.012 168.203L413.594 151.159C413.558 150.971 413.514 150.847 413.466 150.791C413.418 150.735 413.337 150.707 413.225 150.707H410.348C410.048 150.707 409.936 150.859 410.008 151.159L414.69 169.079C415.046 170.562 415.471 171.494 415.959 171.869C416.391 172.225 417.396 172.405 418.976 172.405C420.461 172.405 421.422 172.225 421.854 171.869C422.286 171.514 422.718 170.582 423.151 169.079L427.977 151.159C428.053 150.859 427.941 150.707 427.637 150.707Z" fill="url(#paint35_linear_386_2609)"/>
<path d="M427.637 112.113H424.759C424.647 112.113 424.567 112.141 424.519 112.197C424.471 112.253 424.431 112.377 424.391 112.565L419.821 129.61C419.669 130.137 419.549 130.465 419.453 130.597C419.361 130.729 419.201 130.793 418.972 130.793C418.692 130.793 418.492 130.721 418.38 130.581C418.268 130.441 418.144 130.117 418.012 129.61L413.594 112.565C413.558 112.377 413.514 112.253 413.466 112.197C413.418 112.141 413.337 112.113 413.225 112.113H410.348C410.048 112.113 409.936 112.265 410.008 112.565L414.69 130.485C415.046 131.968 415.471 132.9 415.959 133.276C416.391 133.632 417.396 133.812 418.976 133.812C420.461 133.812 421.422 133.632 421.854 133.276C422.286 132.92 422.718 131.988 423.151 130.485L427.977 112.565C428.053 112.265 427.941 112.113 427.637 112.113Z" fill="url(#paint36_linear_386_2609)"/>
<path d="M241.416 210.548L236.593 192.628C236.161 191.125 235.729 190.197 235.297 189.837C234.864 189.482 233.904 189.302 232.419 189.302C230.838 189.302 229.834 189.482 229.402 189.837C228.913 190.213 228.489 191.141 228.133 192.628L223.451 210.548C223.374 210.848 223.487 211 223.791 211H226.668C226.78 211 226.86 210.972 226.908 210.916C226.956 210.86 226.996 210.736 227.036 210.548L231.463 193.504C231.595 192.996 231.715 192.672 231.831 192.532C231.943 192.392 232.143 192.32 232.423 192.32C232.647 192.32 232.807 192.384 232.903 192.516C232.999 192.648 233.119 192.976 233.272 193.504L237.842 210.548C237.878 210.736 237.922 210.86 237.97 210.916C238.018 210.972 238.098 211 238.21 211H241.088C241.388 211 241.5 210.848 241.428 210.548H241.416Z" fill="url(#paint37_linear_386_2609)"/>
<path d="M316.794 133.36L311.971 115.44C311.539 113.937 311.107 113.009 310.675 112.649C310.243 112.293 309.282 112.113 307.797 112.113C306.217 112.113 305.212 112.293 304.78 112.649C304.292 113.025 303.867 113.953 303.511 115.44L298.829 133.36C298.753 133.66 298.865 133.812 299.169 133.812H302.046C302.158 133.812 302.238 133.784 302.287 133.728C302.335 133.672 302.375 133.548 302.415 133.36L306.841 116.315C306.973 115.808 307.093 115.484 307.209 115.344C307.321 115.204 307.521 115.132 307.801 115.132C308.025 115.132 308.186 115.196 308.282 115.328C308.378 115.46 308.498 115.788 308.65 116.315L313.22 133.36C313.256 133.548 313.3 133.672 313.348 133.728C313.396 133.784 313.476 133.812 313.588 133.812H316.466C316.766 133.812 316.878 133.66 316.806 133.36H316.794Z" fill="url(#paint38_linear_386_2609)"/>
<path d="M316.794 171.953L311.971 154.033C311.539 152.53 311.107 151.602 310.675 151.243C310.243 150.887 309.282 150.707 307.797 150.707C306.217 150.707 305.212 150.887 304.78 151.243C304.292 151.618 303.867 152.546 303.511 154.033L298.829 171.953C298.753 172.253 298.865 172.405 299.169 172.405H302.046C302.158 172.405 302.238 172.377 302.287 172.321C302.335 172.265 302.375 172.141 302.415 171.953L306.841 154.909C306.973 154.401 307.093 154.077 307.209 153.937C307.321 153.797 307.521 153.725 307.801 153.725C308.025 153.725 308.186 153.789 308.282 153.921C308.378 154.053 308.498 154.381 308.65 154.909L313.22 171.953C313.256 172.141 313.3 172.265 313.348 172.321C313.396 172.377 313.476 172.405 313.588 172.405H316.466C316.766 172.405 316.878 172.253 316.806 171.953H316.794Z" fill="url(#paint39_linear_386_2609)"/>
<path d="M316.794 210.548L311.971 192.628C311.539 191.125 311.107 190.197 310.675 189.837C310.243 189.482 309.282 189.302 307.797 189.302C306.217 189.302 305.212 189.482 304.78 189.837C304.292 190.213 303.867 191.141 303.511 192.628L298.829 210.548C298.753 210.848 298.865 211 299.169 211H302.046C302.158 211 302.238 210.972 302.287 210.916C302.335 210.86 302.375 210.736 302.415 210.548L306.841 193.504C306.973 192.996 307.093 192.672 307.209 192.532C307.321 192.392 307.521 192.32 307.801 192.32C308.025 192.32 308.186 192.384 308.282 192.516C308.378 192.648 308.498 192.976 308.65 193.504L313.22 210.548C313.256 210.736 313.3 210.86 313.348 210.916C313.396 210.972 313.476 211 313.588 211H316.466C316.766 211 316.878 210.848 316.806 210.548H316.794Z" fill="url(#paint40_linear_386_2609)"/>
<path d="M390.287 210.548L385.465 192.628C385.033 191.125 384.6 190.197 384.168 189.837C383.736 189.482 382.776 189.302 381.291 189.302C379.71 189.302 378.705 189.482 378.273 189.837C377.785 190.213 377.361 191.141 377.005 192.628L372.322 210.548C372.246 210.848 372.358 211 372.662 211H375.54C375.652 211 375.732 210.972 375.78 210.916C375.828 210.86 375.868 210.736 375.908 210.548L380.334 193.504C380.466 192.996 380.586 192.672 380.702 192.532C380.814 192.392 381.015 192.32 381.295 192.32C381.519 192.32 381.679 192.384 381.775 192.516C381.871 192.648 381.991 192.976 382.143 193.504L386.714 210.548C386.75 210.736 386.794 210.86 386.842 210.916C386.89 210.972 386.97 211 387.082 211H389.959C390.259 211 390.371 210.848 390.299 210.548H390.287Z" fill="url(#paint41_linear_386_2609)"/>
<path d="M390.287 171.953L385.465 154.033C385.033 152.53 384.6 151.602 384.168 151.243C383.736 150.887 382.776 150.707 381.291 150.707C379.71 150.707 378.705 150.887 378.273 151.243C377.785 151.618 377.361 152.546 377.005 154.033L372.322 171.953C372.246 172.253 372.358 172.405 372.662 172.405H375.54C375.652 172.405 375.732 172.377 375.78 172.321C375.828 172.265 375.868 172.141 375.908 171.953L380.334 154.909C380.466 154.401 380.586 154.077 380.702 153.937C380.814 153.797 381.015 153.725 381.295 153.725C381.519 153.725 381.679 153.789 381.775 153.921C381.871 154.053 381.991 154.381 382.143 154.909L386.714 171.953C386.75 172.141 386.794 172.265 386.842 172.321C386.89 172.377 386.97 172.405 387.082 172.405H389.959C390.259 172.405 390.371 172.253 390.299 171.953H390.287Z" fill="url(#paint42_linear_386_2609)"/>
<defs>
<linearGradient id="paint0_linear_386_2609" x1="-1.05848e-05" y1="25.3251" x2="213.883" y2="163.182" gradientUnits="userSpaceOnUse">
<stop stop-color="white"/>
<stop offset="1" stop-color="white" stop-opacity="0"/>
</linearGradient>
<linearGradient id="paint1_linear_386_2609" x1="-1.05848e-05" y1="25.3251" x2="213.883" y2="163.182" gradientUnits="userSpaceOnUse">
<stop stop-color="white"/>
<stop offset="1" stop-color="white" stop-opacity="0"/>
</linearGradient>
<linearGradient id="paint2_linear_386_2609" x1="-1.05848e-05" y1="25.3251" x2="213.883" y2="163.182" gradientUnits="userSpaceOnUse">
<stop stop-color="white"/>
<stop offset="1" stop-color="white" stop-opacity="0"/>
</linearGradient>
<linearGradient id="paint3_linear_386_2609" x1="-1.05848e-05" y1="25.3251" x2="213.883" y2="163.182" gradientUnits="userSpaceOnUse">
<stop stop-color="white"/>
<stop offset="1" stop-color="white" stop-opacity="0"/>
</linearGradient>
<linearGradient id="paint4_linear_386_2609" x1="-1.05848e-05" y1="25.3251" x2="213.883" y2="163.182" gradientUnits="userSpaceOnUse">
<stop stop-color="white"/>
<stop offset="1" stop-color="white" stop-opacity="0"/>
</linearGradient>
<linearGradient id="paint5_linear_386_2609" x1="-1.05848e-05" y1="25.3251" x2="213.883" y2="163.182" gradientUnits="userSpaceOnUse">
<stop stop-color="white"/>
<stop offset="1" stop-color="white" stop-opacity="0"/>
</linearGradient>
<linearGradient id="paint6_linear_386_2609" x1="-1.05848e-05" y1="25.3251" x2="213.883" y2="163.182" gradientUnits="userSpaceOnUse">
<stop stop-color="white"/>
<stop offset="1" stop-color="white" stop-opacity="0"/>
</linearGradient>
<linearGradient id="paint7_linear_386_2609" x1="-1.05848e-05" y1="25.3251" x2="213.883" y2="163.182" gradientUnits="userSpaceOnUse">
<stop stop-color="white"/>
<stop offset="1" stop-color="white" stop-opacity="0"/>
</linearGradient>
<linearGradient id="paint8_linear_386_2609" x1="-1.05848e-05" y1="25.3251" x2="213.883" y2="163.182" gradientUnits="userSpaceOnUse">
<stop stop-color="white"/>
<stop offset="1" stop-color="white" stop-opacity="0"/>
</linearGradient>
<linearGradient id="paint9_linear_386_2609" x1="-1.05848e-05" y1="25.3251" x2="213.883" y2="163.182" gradientUnits="userSpaceOnUse">
<stop stop-color="white"/>
<stop offset="1" stop-color="white" stop-opacity="0"/>
</linearGradient>
<linearGradient id="paint10_linear_386_2609" x1="-1.05848e-05" y1="25.3251" x2="213.883" y2="163.182" gradientUnits="userSpaceOnUse">
<stop stop-color="white"/>
<stop offset="1" stop-color="white" stop-opacity="0"/>
</linearGradient>
<linearGradient id="paint11_linear_386_2609" x1="-1.05848e-05" y1="25.3251" x2="213.883" y2="163.182" gradientUnits="userSpaceOnUse">
<stop stop-color="white"/>
<stop offset="1" stop-color="white" stop-opacity="0"/>
</linearGradient>
<linearGradient id="paint12_linear_386_2609" x1="-1.05848e-05" y1="25.3251" x2="213.883" y2="163.182" gradientUnits="userSpaceOnUse">
<stop stop-color="white"/>
<stop offset="1" stop-color="white" stop-opacity="0"/>
</linearGradient>
<linearGradient id="paint13_linear_386_2609" x1="-1.05848e-05" y1="25.3251" x2="213.883" y2="163.182" gradientUnits="userSpaceOnUse">
<stop stop-color="white"/>
<stop offset="1" stop-color="white" stop-opacity="0"/>
</linearGradient>
<linearGradient id="paint14_linear_386_2609" x1="-1.05848e-05" y1="25.3251" x2="213.883" y2="163.182" gradientUnits="userSpaceOnUse">
<stop stop-color="white"/>
<stop offset="1" stop-color="white" stop-opacity="0"/>
</linearGradient>
<linearGradient id="paint15_linear_386_2609" x1="-1.05848e-05" y1="25.3251" x2="213.883" y2="163.182" gradientUnits="userSpaceOnUse">
<stop stop-color="white"/>
<stop offset="1" stop-color="white" stop-opacity="0"/>
</linearGradient>
<linearGradient id="paint16_linear_386_2609" x1="-1.05848e-05" y1="25.3251" x2="213.883" y2="163.182" gradientUnits="userSpaceOnUse">
<stop stop-color="white"/>
<stop offset="1" stop-color="white" stop-opacity="0"/>
</linearGradient>
<linearGradient id="paint17_linear_386_2609" x1="-1.05848e-05" y1="25.3251" x2="213.883" y2="163.182" gradientUnits="userSpaceOnUse">
<stop stop-color="white"/>
<stop offset="1" stop-color="white" stop-opacity="0"/>
</linearGradient>
<linearGradient id="paint18_linear_386_2609" x1="-1.05848e-05" y1="25.3251" x2="213.883" y2="163.182" gradientUnits="userSpaceOnUse">
<stop stop-color="white"/>
<stop offset="1" stop-color="white" stop-opacity="0"/>
</linearGradient>
<linearGradient id="paint19_linear_386_2609" x1="-1.05848e-05" y1="25.3251" x2="213.883" y2="163.182" gradientUnits="userSpaceOnUse">
<stop stop-color="white"/>
<stop offset="1" stop-color="white" stop-opacity="0"/>
</linearGradient>
<linearGradient id="paint20_linear_386_2609" x1="-1.05848e-05" y1="25.3251" x2="213.883" y2="163.182" gradientUnits="userSpaceOnUse">
<stop stop-color="white"/>
<stop offset="1" stop-color="white" stop-opacity="0"/>
</linearGradient>
<linearGradient id="paint21_linear_386_2609" x1="-1.05848e-05" y1="25.3251" x2="213.883" y2="163.182" gradientUnits="userSpaceOnUse">
<stop stop-color="white"/>
<stop offset="1" stop-color="white" stop-opacity="0"/>
</linearGradient>
<linearGradient id="paint22_linear_386_2609" x1="-1.05848e-05" y1="25.3251" x2="213.883" y2="163.182" gradientUnits="userSpaceOnUse">
<stop stop-color="white"/>
<stop offset="1" stop-color="white" stop-opacity="0"/>
</linearGradient>
<linearGradient id="paint23_linear_386_2609" x1="-1.05848e-05" y1="25.3251" x2="213.883" y2="163.182" gradientUnits="userSpaceOnUse">
<stop stop-color="white"/>
<stop offset="1" stop-color="white" stop-opacity="0"/>
</linearGradient>
<linearGradient id="paint24_linear_386_2609" x1="-1.05848e-05" y1="25.3251" x2="213.883" y2="163.182" gradientUnits="userSpaceOnUse">
<stop stop-color="white"/>
<stop offset="1" stop-color="white" stop-opacity="0"/>
</linearGradient>
<linearGradient id="paint25_linear_386_2609" x1="-1.05848e-05" y1="25.3251" x2="213.883" y2="163.182" gradientUnits="userSpaceOnUse">
<stop stop-color="white"/>
<stop offset="1" stop-color="white" stop-opacity="0"/>
</linearGradient>
<linearGradient id="paint26_linear_386_2609" x1="-1.05848e-05" y1="25.3251" x2="213.883" y2="163.182" gradientUnits="userSpaceOnUse">
<stop stop-color="white"/>
<stop offset="1" stop-color="white" stop-opacity="0"/>
</linearGradient>
<linearGradient id="paint27_linear_386_2609" x1="-1.05848e-05" y1="25.3251" x2="213.883" y2="163.182" gradientUnits="userSpaceOnUse">
<stop stop-color="white"/>
<stop offset="1" stop-color="white" stop-opacity="0"/>
</linearGradient>
<linearGradient id="paint28_linear_386_2609" x1="-1.05848e-05" y1="25.3251" x2="213.883" y2="163.182" gradientUnits="userSpaceOnUse">
<stop stop-color="white"/>
<stop offset="1" stop-color="white" stop-opacity="0"/>
</linearGradient>
<linearGradient id="paint29_linear_386_2609" x1="-1.05848e-05" y1="25.3251" x2="213.883" y2="163.182" gradientUnits="userSpaceOnUse">
<stop stop-color="white"/>
<stop offset="1" stop-color="white" stop-opacity="0"/>
</linearGradient>
<linearGradient id="paint30_linear_386_2609" x1="-1.05848e-05" y1="25.3251" x2="213.883" y2="163.182" gradientUnits="userSpaceOnUse">
<stop stop-color="white"/>
<stop offset="1" stop-color="white" stop-opacity="0"/>
</linearGradient>
<linearGradient id="paint31_linear_386_2609" x1="-1.05848e-05" y1="25.3251" x2="213.883" y2="163.182" gradientUnits="userSpaceOnUse">
<stop stop-color="white"/>
<stop offset="1" stop-color="white" stop-opacity="0"/>
</linearGradient>
<linearGradient id="paint32_linear_386_2609" x1="-1.05848e-05" y1="25.3251" x2="213.883" y2="163.182" gradientUnits="userSpaceOnUse">
<stop stop-color="white"/>
<stop offset="1" stop-color="white" stop-opacity="0"/>
</linearGradient>
<linearGradient id="paint33_linear_386_2609" x1="-1.05848e-05" y1="25.3251" x2="213.883" y2="163.182" gradientUnits="userSpaceOnUse">
<stop stop-color="white"/>
<stop offset="1" stop-color="white" stop-opacity="0"/>
</linearGradient>
<linearGradient id="paint34_linear_386_2609" x1="-1.05848e-05" y1="25.3251" x2="213.883" y2="163.182" gradientUnits="userSpaceOnUse">
<stop stop-color="white"/>
<stop offset="1" stop-color="white" stop-opacity="0"/>
</linearGradient>
<linearGradient id="paint35_linear_386_2609" x1="-1.05848e-05" y1="25.3251" x2="213.883" y2="163.182" gradientUnits="userSpaceOnUse">
<stop stop-color="white"/>
<stop offset="1" stop-color="white" stop-opacity="0"/>
</linearGradient>
<linearGradient id="paint36_linear_386_2609" x1="-1.05848e-05" y1="25.3251" x2="213.883" y2="163.182" gradientUnits="userSpaceOnUse">
<stop stop-color="white"/>
<stop offset="1" stop-color="white" stop-opacity="0"/>
</linearGradient>
<linearGradient id="paint37_linear_386_2609" x1="-1.05848e-05" y1="25.3251" x2="213.883" y2="163.182" gradientUnits="userSpaceOnUse">
<stop stop-color="white"/>
<stop offset="1" stop-color="white" stop-opacity="0"/>
</linearGradient>
<linearGradient id="paint38_linear_386_2609" x1="-1.05848e-05" y1="25.3251" x2="213.883" y2="163.182" gradientUnits="userSpaceOnUse">
<stop stop-color="white"/>
<stop offset="1" stop-color="white" stop-opacity="0"/>
</linearGradient>
<linearGradient id="paint39_linear_386_2609" x1="-1.05848e-05" y1="25.3251" x2="213.883" y2="163.182" gradientUnits="userSpaceOnUse">
<stop stop-color="white"/>
<stop offset="1" stop-color="white" stop-opacity="0"/>
</linearGradient>
<linearGradient id="paint40_linear_386_2609" x1="-1.05848e-05" y1="25.3251" x2="213.883" y2="163.182" gradientUnits="userSpaceOnUse">
<stop stop-color="white"/>
<stop offset="1" stop-color="white" stop-opacity="0"/>
</linearGradient>
<linearGradient id="paint41_linear_386_2609" x1="-1.05848e-05" y1="25.3251" x2="213.883" y2="163.182" gradientUnits="userSpaceOnUse">
<stop stop-color="white"/>
<stop offset="1" stop-color="white" stop-opacity="0"/>
</linearGradient>
<linearGradient id="paint42_linear_386_2609" x1="-1.05848e-05" y1="25.3251" x2="213.883" y2="163.182" gradientUnits="userSpaceOnUse">
<stop stop-color="white"/>
<stop offset="1" stop-color="white" stop-opacity="0"/>
</linearGradient>
</defs>
</svg>
