<svg width="35" height="35" viewBox="0 0 35 35" fill="none" xmlns="http://www.w3.org/2000/svg">
<g clip-path="url(#clip0_1353_661)">
<path d="M1.72742 15C2.49848 15 3.02829 15.1071 3.31877 15.3223C3.60442 15.5329 3.74724 15.9614 3.74724 16.6059C3.74724 17.1049 3.66522 17.4638 3.50212 17.6836C3.34289 17.9033 3.06496 18.0407 2.66544 18.0965L3.8148 19.8389C3.84182 19.8736 3.84761 19.9029 3.83217 19.9295C3.81576 19.9551 3.78295 19.968 3.73373 19.968H3.10163C2.98872 19.968 2.89801 19.9203 2.82949 19.826L1.70715 18.1487L0.87722 18.1551V19.8709C0.87722 19.9094 0.870464 19.935 0.856954 19.9487C0.843443 19.9615 0.816422 19.968 0.774926 19.968H0.102294C0.0617624 19.968 0.0347414 19.9615 0.0202658 19.9487C0.00675527 19.9359 0 19.9103 0 19.8709V15.1419C0 15.1071 0.00675527 15.0851 0.0202658 15.0742C0.0337763 15.0632 0.0607974 15.0559 0.102294 15.0513C0.618589 15.0174 1.16094 15 1.72742 15ZM1.64539 15.7224H0.87722V17.4904H1.64539C1.93104 17.4904 2.13852 17.4831 2.26784 17.4675C2.39715 17.4528 2.51199 17.4144 2.61139 17.3549C2.71079 17.2945 2.77834 17.212 2.81212 17.1068C2.8459 17.0015 2.86327 16.8412 2.86327 16.6261C2.86327 16.2479 2.78414 16.0026 2.6249 15.8909C2.46567 15.7792 2.13949 15.7233 1.64539 15.7233V15.7224Z" fill="#0F1822"/>
<path d="M4.61108 15.0332H5.27792C5.34548 15.0332 5.38022 15.0652 5.38022 15.1303V19.8666C5.38022 19.9352 5.34644 19.97 5.27792 19.97H4.61108C4.54353 19.97 4.50879 19.9352 4.50879 19.8666V15.1303C4.50879 15.0662 4.54257 15.0332 4.61108 15.0332Z" fill="#0F1822"/>
<path d="M6.08953 15.0332H6.7834C6.81042 15.0332 6.82972 15.0396 6.8413 15.0524C6.85288 15.0652 6.86253 15.0936 6.87218 15.1367L7.97425 19.0398C8.01092 19.1607 8.03987 19.2357 8.06304 19.2659C8.08523 19.2962 8.12383 19.3108 8.17884 19.3108C8.24639 19.3108 8.29464 19.2943 8.32167 19.2623C8.34869 19.2302 8.3786 19.1561 8.41045 19.0398L9.47585 15.1367C9.48454 15.0936 9.49515 15.0652 9.50673 15.0524C9.51831 15.0396 9.53761 15.0332 9.56463 15.0332H10.2585C10.3309 15.0332 10.3579 15.068 10.3405 15.1367L9.21143 19.2403C9.12554 19.58 9.02325 19.7933 8.90551 19.8794C8.80129 19.9609 8.55906 20.0021 8.17787 20.0021C7.81985 20.0021 7.58824 19.9609 7.48401 19.8794C7.37979 19.7979 7.27556 19.5846 7.17134 19.2403L6.0075 15.1367C5.98917 15.068 6.01619 15.0332 6.08953 15.0332Z" fill="#5B0D8A"/>
<path d="M15.069 19.8654L16.2319 15.7618C16.3361 15.4175 16.4403 15.2051 16.5446 15.1227C16.6488 15.0412 16.8804 15 17.2384 15C17.6196 15 17.8618 15.0412 17.9661 15.1227C18.0838 15.2088 18.1861 15.4212 18.272 15.7618L19.4011 19.8654C19.4194 19.9341 19.3924 19.9689 19.319 19.9689H18.6252C18.5982 19.9689 18.5789 19.9625 18.5673 19.9496C18.5557 19.9368 18.5461 19.9084 18.5364 19.8654L17.4691 15.9623C17.4372 15.846 17.4083 15.7718 17.3803 15.7398C17.3533 15.7077 17.305 15.6913 17.2375 15.6913C17.1834 15.6913 17.1448 15.7059 17.1217 15.7361C17.0985 15.7663 17.0695 15.8414 17.0329 15.9623L15.9308 19.8654C15.9221 19.9084 15.9115 19.9368 15.8999 19.9496C15.8883 19.9625 15.869 19.9689 15.842 19.9689H15.1482C15.0758 19.9689 15.0488 19.9341 15.0661 19.8654H15.069Z" fill="#E5004B"/>
<path d="M11.0759 15.0332H14.3677C14.44 15.0332 14.4767 15.0652 14.4767 15.1303V15.6595C14.4767 15.7236 14.44 15.7565 14.3677 15.7565H11.8518V17.2022H14.1505C14.2181 17.2022 14.2528 17.2343 14.2528 17.2993V17.8093C14.2528 17.8733 14.2191 17.9063 14.1505 17.9063H11.8518V19.2485H14.3677C14.44 19.2485 14.4767 19.2806 14.4767 19.3456V19.8748C14.4767 19.9389 14.44 19.9719 14.3677 19.9719H11.0759C11.0084 19.9719 10.9736 19.9398 10.9736 19.8748V15.1303C10.9736 15.0662 11.0074 15.0332 11.0759 15.0332Z" fill="#0F1822"/>
<path d="M20.6616 15.0605H20.8797C20.8961 15.0605 20.9086 15.0752 20.9164 15.1027L21.3805 16.7068C21.3989 16.7699 21.4143 16.8102 21.4249 16.8258C21.4355 16.8414 21.4558 16.8496 21.4838 16.8496C21.5214 16.8496 21.5465 16.8414 21.5591 16.8258C21.5716 16.8102 21.5871 16.7699 21.6035 16.7068L22.0483 15.1027C22.0561 15.0743 22.0676 15.0605 22.085 15.0605H22.3031C22.333 15.0605 22.3446 15.0752 22.3398 15.1027L21.8727 16.7709C21.8447 16.8716 21.8196 16.9402 21.7974 16.9778C21.7752 17.0171 21.7424 17.0437 21.698 17.0583C21.6536 17.073 21.5832 17.0812 21.4838 17.0812C21.3535 17.0812 21.2696 17.0648 21.2319 17.0309C21.1924 16.9952 21.1538 16.9091 21.1142 16.7709L20.6249 15.1027C20.6191 15.0743 20.6317 15.0605 20.6616 15.0605Z" fill="#0F1822"/>
<path d="M23.2237 15.0469C23.3675 15.0469 23.4601 15.0643 23.5035 15.1C23.5479 15.1357 23.5904 15.2208 23.629 15.3573L24.1067 17.0255C24.1105 17.0428 24.1096 17.0547 24.1057 17.0602C24.1009 17.0657 24.0903 17.0685 24.0739 17.0685H23.8558C23.8452 17.0685 23.8365 17.0657 23.8316 17.0602C23.8268 17.0547 23.823 17.0438 23.8191 17.0255L23.6454 16.4395H22.8039L22.6273 17.0255C22.6234 17.0428 22.6196 17.0547 22.6147 17.0602C22.6099 17.0657 22.6022 17.0685 22.5906 17.0685H22.3725C22.3561 17.0685 22.3445 17.0657 22.3407 17.0602C22.3358 17.0547 22.3358 17.0438 22.3397 17.0255L22.8348 15.3573C22.8772 15.219 22.9197 15.1339 22.9602 15.1C23.0065 15.0643 23.0944 15.0469 23.2227 15.0469H23.2237ZM23.2237 15.2803C23.1841 15.2803 23.159 15.2877 23.1465 15.3032C23.1339 15.3179 23.1194 15.3573 23.103 15.4213L22.8734 16.206H23.5807L23.3626 15.4213C23.3424 15.3563 23.325 15.317 23.3125 15.3051C23.2989 15.2895 23.27 15.2813 23.2227 15.2813L23.2237 15.2803Z" fill="#0F1822"/>
<path d="M25.1203 15.0469C25.2563 15.0469 25.4368 15.0597 25.6626 15.0862C25.6887 15.0899 25.7012 15.1009 25.7012 15.121V15.2428C25.7012 15.2694 25.6887 15.2822 25.6645 15.2822H25.0353C24.7912 15.2822 24.6696 15.3609 24.6696 15.5184V15.5633C24.6696 15.6338 24.6841 15.6887 24.714 15.7281C24.7439 15.7674 24.7989 15.8022 24.879 15.8343L25.4889 16.0732C25.6066 16.119 25.6887 16.1785 25.7379 16.2509C25.7861 16.3232 25.8103 16.4175 25.8103 16.5347V16.6198C25.8103 16.77 25.762 16.8826 25.6645 16.9568C25.6221 16.9925 25.568 17.019 25.5024 17.0364C25.3847 17.0667 25.2419 17.0813 25.072 17.0813C24.8462 17.0813 24.6194 17.0685 24.3897 17.0438C24.3675 17.0383 24.356 17.0245 24.356 17.0016V16.8826C24.356 16.8579 24.3695 16.8451 24.3955 16.8451H25.1618C25.2882 16.8451 25.3808 16.8268 25.4387 16.7911C25.4966 16.7544 25.5256 16.6949 25.5256 16.6125V16.5622C25.5256 16.488 25.5101 16.4294 25.4793 16.3873C25.4484 16.3452 25.3934 16.3076 25.3133 16.2756L24.6503 16.0211C24.5538 15.9853 24.4853 15.9313 24.4467 15.8581C24.4071 15.7848 24.3878 15.6887 24.3878 15.5706V15.5065C24.3878 15.3563 24.4341 15.2446 24.5277 15.1723C24.5654 15.1421 24.6194 15.1165 24.6899 15.0954C24.7979 15.0634 24.9417 15.0478 25.1203 15.0478V15.0469Z" fill="#0F1822"/>
<path d="M26.9391 15.0469C27.161 15.0469 27.3338 15.056 27.4592 15.0734C27.4891 15.0753 27.5036 15.0899 27.5036 15.1183V15.2428C27.5036 15.2694 27.4901 15.2822 27.4621 15.2822H26.9391C26.7026 15.2822 26.5482 15.3344 26.4778 15.4387C26.4073 15.5431 26.3716 15.7519 26.3716 16.065C26.3716 16.3781 26.4073 16.5841 26.4778 16.6885C26.5482 16.7929 26.7026 16.8451 26.9391 16.8451H27.4621C27.4901 16.8451 27.5036 16.8579 27.5036 16.8845V17.009C27.5036 17.0355 27.4891 17.0511 27.4592 17.0566C27.3376 17.0721 27.1649 17.0804 26.9391 17.0804C26.7605 17.0804 26.6187 17.0648 26.5144 17.0328C26.4102 17.0007 26.3253 16.9449 26.2597 16.8661C26.196 16.7883 26.1516 16.6876 26.1265 16.5649C26.1014 16.4422 26.0889 16.2756 26.0889 16.065C26.0889 15.8544 26.1014 15.6878 26.1265 15.5651C26.1516 15.4424 26.196 15.3417 26.2597 15.2639C26.3234 15.1824 26.4073 15.1256 26.5125 15.0945C26.6177 15.0624 26.7596 15.0469 26.9391 15.0469Z" fill="#0F1822"/>
<path d="M29.235 15.0605H29.4338C29.4617 15.0605 29.4753 15.0734 29.4753 15.0999V16.0677C29.4753 16.2838 29.4627 16.4531 29.4386 16.5758C29.4145 16.6985 29.371 16.7992 29.3073 16.8771C29.2437 16.9549 29.1616 17.008 29.0603 17.0373C28.959 17.0666 28.82 17.0812 28.6424 17.0812C28.3848 17.0812 28.1927 17.041 28.0634 16.9595C27.9968 16.9173 27.9447 16.8551 27.91 16.7736C27.8443 16.6161 27.8125 16.3808 27.8125 16.0677V15.1008C27.8125 15.0743 27.826 15.0615 27.854 15.0615H28.0528C28.0808 15.0615 28.0943 15.0743 28.0943 15.1008V16.0686C28.0943 16.2792 28.1097 16.4403 28.1416 16.5511C28.1734 16.6592 28.2275 16.7351 28.3037 16.7791C28.3799 16.823 28.4929 16.845 28.6415 16.845C28.8615 16.845 29.0072 16.7937 29.0806 16.6912C29.1549 16.5887 29.1925 16.3808 29.1925 16.0677V15.1008C29.1925 15.0743 29.206 15.0615 29.234 15.0615L29.235 15.0605Z" fill="#0F1822"/>
<path d="M29.9277 15.0605H30.1265C30.1545 15.0605 30.168 15.0734 30.168 15.0999V16.8313H31.1823C31.2103 16.8313 31.2238 16.8441 31.2238 16.8707V17.0272C31.2238 17.0538 31.2103 17.0666 31.1823 17.0666H29.9267C29.8988 17.0666 29.8853 17.0538 29.8853 17.0272V15.1008C29.8853 15.0743 29.8988 15.0615 29.9267 15.0615L29.9277 15.0605Z" fill="#0F1822"/>
<path d="M32.3145 15.0469C32.4583 15.0469 32.5509 15.0643 32.5944 15.1C32.6387 15.1357 32.6812 15.2208 32.7198 15.3573L33.1975 17.0255C33.2014 17.0428 33.2004 17.0547 33.1965 17.0602C33.1917 17.0657 33.1811 17.0685 33.1647 17.0685H32.9466C32.936 17.0685 32.9273 17.0657 32.9225 17.0602C32.9176 17.0547 32.9138 17.0438 32.9099 17.0255L32.7362 16.4395H31.8947L31.7181 17.0255C31.7142 17.0428 31.7104 17.0547 31.7056 17.0602C31.7007 17.0657 31.693 17.0685 31.6814 17.0685H31.4633C31.4469 17.0685 31.4353 17.0657 31.4315 17.0602C31.4267 17.0547 31.4267 17.0438 31.4305 17.0255L31.9256 15.3573C31.968 15.219 32.0105 15.1339 32.051 15.1C32.0974 15.0643 32.1852 15.0469 32.3135 15.0469H32.3145ZM32.3145 15.2803C32.2749 15.2803 32.2498 15.2877 32.2373 15.3032C32.2247 15.3188 32.2103 15.3573 32.1939 15.4213L31.9642 16.206H32.6716L32.4535 15.4213C32.4332 15.3563 32.4158 15.317 32.4033 15.3051C32.3898 15.2895 32.3608 15.2813 32.3135 15.2813L32.3145 15.2803Z" fill="#0F1822"/>
<path d="M34.1374 15.0469C34.313 15.0469 34.4481 15.0551 34.5437 15.0725C34.6392 15.089 34.7212 15.121 34.7878 15.1668C34.8573 15.2126 34.9056 15.2767 34.9335 15.3591C34.9615 15.4415 34.975 15.5532 34.975 15.6942C34.975 15.9048 34.9403 16.0531 34.8718 16.1401C34.8052 16.2271 34.6865 16.2811 34.5167 16.3021L34.9895 17.0154C35.0011 17.03 35.003 17.0419 34.9963 17.0529C34.9895 17.0639 34.976 17.0685 34.9557 17.0685H34.7772C34.7309 17.0685 34.6933 17.0493 34.6653 17.0099L34.204 16.3177H33.7823V17.0282C33.7823 17.0438 33.7794 17.0547 33.7736 17.0602C33.7678 17.0657 33.7572 17.0685 33.7398 17.0685H33.541C33.5246 17.0685 33.513 17.0657 33.5072 17.0602C33.5014 17.0547 33.4985 17.0447 33.4985 17.0282V15.1046C33.4985 15.089 33.5014 15.0789 33.5072 15.0743C33.513 15.0698 33.5236 15.067 33.541 15.0652C33.7128 15.0524 33.9106 15.0469 34.1364 15.0469H34.1374ZM34.1123 15.2831H33.7823V16.0897H34.1123C34.204 16.0897 34.2628 16.0897 34.2908 16.087C34.4134 16.0833 34.4945 16.0732 34.534 16.0549C34.5939 16.0302 34.6354 15.9918 34.6585 15.9396C34.6817 15.8874 34.6923 15.8077 34.6904 15.6997C34.6904 15.5211 34.6527 15.4067 34.5784 15.3573C34.508 15.3078 34.3516 15.2831 34.1113 15.2831H34.1123Z" fill="#0F1822"/>
<path d="M20.8267 17.9609H21.0254C21.0534 17.9609 21.0669 17.9756 21.0669 18.0031V19.9285C21.0669 19.9551 21.0534 19.9679 21.0254 19.9679H20.8267C20.7987 19.9679 20.7852 19.9551 20.7852 19.9285V18.0031C20.7852 17.9747 20.7987 17.9609 20.8267 17.9609Z" fill="#0F1822"/>
<path d="M22.9509 17.9599H23.1497C23.1777 17.9599 23.1912 17.9745 23.1912 18.002V19.9275C23.1912 19.954 23.1777 19.9669 23.1497 19.9669H22.9789C22.9354 19.9669 22.9036 19.9513 22.8814 19.9192L21.7774 18.3408V19.9266C21.7774 19.9531 21.7639 19.9659 21.7359 19.9659H21.5371C21.5091 19.9659 21.4956 19.9531 21.4956 19.9266V18.0011C21.4956 17.9727 21.5091 17.959 21.5371 17.959H21.7272C21.7755 17.9608 21.8083 17.9663 21.8266 17.9745C21.844 17.9837 21.8642 18.0038 21.8864 18.0359L22.9094 19.4972V18.0011C22.9094 17.9727 22.9229 17.959 22.9509 17.959V17.9599Z" fill="#0F1822"/>
<path d="M24.2814 17.9473C24.4175 17.9473 24.5979 17.9601 24.8238 17.9866C24.8498 17.9903 24.8624 18.0013 24.8624 18.0214V18.1432C24.8624 18.1698 24.8498 18.1826 24.8257 18.1826H24.1965C23.9523 18.1826 23.8307 18.2613 23.8307 18.4188V18.4637C23.8307 18.5342 23.8452 18.5891 23.8751 18.6285C23.905 18.6678 23.96 18.7026 24.0401 18.7347L24.65 18.9736C24.7678 19.0194 24.8498 19.0789 24.899 19.1513C24.9473 19.2236 24.9714 19.3179 24.9714 19.4351V19.5202C24.9714 19.6704 24.9231 19.783 24.8257 19.8572C24.7832 19.8929 24.7292 19.9194 24.6636 19.9368C24.5458 19.967 24.403 19.9817 24.2331 19.9817C24.0073 19.9817 23.7805 19.9689 23.5509 19.9442C23.5287 19.9387 23.5171 19.9249 23.5171 19.902V19.783C23.5171 19.7583 23.5306 19.7455 23.5567 19.7455H24.3229C24.4493 19.7455 24.542 19.7272 24.5999 19.6915C24.6578 19.6548 24.6867 19.5953 24.6867 19.5129V19.4626C24.6867 19.3884 24.6713 19.3298 24.6404 19.2877C24.6095 19.2456 24.5545 19.208 24.4744 19.176L23.8114 18.9214C23.7149 18.8857 23.6464 18.8317 23.6078 18.7585C23.5682 18.6852 23.5489 18.5891 23.5489 18.471V18.4069C23.5489 18.2567 23.5953 18.145 23.6889 18.0727C23.7265 18.0425 23.7805 18.0168 23.851 17.9958C23.9591 17.9637 24.1029 17.9482 24.2814 17.9482V17.9473Z" fill="#0F1822"/>
<path d="M25.1875 17.9609H26.7393C26.7673 17.9609 26.7808 17.9738 26.7808 18.0003V18.1569C26.7808 18.1834 26.7673 18.1962 26.7393 18.1962H26.1053V19.9276C26.1053 19.9542 26.0917 19.967 26.0638 19.967H25.865C25.837 19.967 25.8235 19.9542 25.8235 19.9276V18.1962H25.1885C25.1605 18.1962 25.147 18.1834 25.147 18.1569V18.0003C25.147 17.9738 25.1605 17.9609 25.1885 17.9609H25.1875Z" fill="#0F1822"/>
<path d="M27.1108 17.9609H27.3096C27.3376 17.9609 27.3511 17.9756 27.3511 18.0031V19.9285C27.3511 19.9551 27.3376 19.9679 27.3096 19.9679H27.1108C27.0828 19.9679 27.0693 19.9551 27.0693 19.9285V18.0031C27.0693 17.9747 27.0828 17.9609 27.1108 17.9609Z" fill="#0F1822"/>
<path d="M27.6802 17.9609H29.232C29.2599 17.9609 29.2735 17.9738 29.2735 18.0003V18.1569C29.2735 18.1834 29.2599 18.1962 29.232 18.1962H28.5979V19.9276C28.5979 19.9542 28.5844 19.967 28.5564 19.967H28.3576C28.3297 19.967 28.3161 19.9542 28.3161 19.9276V18.1962H27.6811C27.6532 18.1962 27.6396 18.1834 27.6396 18.1569V18.0003C27.6396 17.9738 27.6532 17.9609 27.6811 17.9609H27.6802Z" fill="#0F1822"/>
<path d="M30.9762 17.9599H31.175C31.203 17.9599 31.2165 17.9727 31.2165 17.9993V18.967C31.2165 19.1831 31.2039 19.3525 31.1798 19.4752C31.1557 19.5979 31.1122 19.6986 31.0486 19.7764C30.9849 19.8542 30.9028 19.9073 30.8015 19.9366C30.7002 19.9659 30.5612 19.9806 30.3836 19.9806C30.126 19.9806 29.9339 19.9403 29.8046 19.8588C29.738 19.8167 29.6859 19.7544 29.6512 19.673C29.5856 19.5155 29.5537 19.2802 29.5537 18.967V17.9993C29.5537 17.9727 29.5672 17.9599 29.5952 17.9599H29.794C29.822 17.9599 29.8355 17.9727 29.8355 17.9993V18.967C29.8355 19.1776 29.8509 19.3388 29.8828 19.4496C29.9146 19.5576 29.9687 19.6336 30.0449 19.6775C30.1212 19.7215 30.2341 19.7435 30.3827 19.7435C30.6027 19.7435 30.7484 19.6922 30.8218 19.5896C30.8961 19.4871 30.9337 19.2793 30.9337 18.9661V17.9984C30.9337 17.9718 30.9472 17.959 30.9752 17.959L30.9762 17.9599Z" fill="#0F1822"/>
<path d="M31.5357 17.9609H33.0874C33.1154 17.9609 33.1289 17.9738 33.1289 18.0003V18.1569C33.1289 18.1834 33.1154 18.1962 33.0874 18.1962H32.4534V19.9276C32.4534 19.9542 32.4399 19.967 32.4119 19.967H32.2131C32.1851 19.967 32.1716 19.9542 32.1716 19.9276V18.1962H31.5366C31.5086 18.1962 31.4951 18.1834 31.4951 18.1569V18.0003C31.4951 17.9738 31.5086 17.9609 31.5366 17.9609H31.5357Z" fill="#0F1822"/>
<path d="M33.458 17.9608H34.7666C34.7946 17.9608 34.8081 17.9736 34.8081 18.0002V18.1568C34.8081 18.1833 34.7946 18.1961 34.7666 18.1961H33.6993V18.8773H34.672C34.7 18.8773 34.7135 18.8901 34.7135 18.9167V19.0705C34.7135 19.0971 34.7 19.1099 34.672 19.1099H33.6993V19.7306H34.7666C34.7946 19.7306 34.8081 19.7435 34.8081 19.77V19.9266C34.8081 19.9531 34.7946 19.9659 34.7666 19.9659H33.458C33.43 19.9659 33.4165 19.9531 33.4165 19.9266V17.9984C33.4165 17.9718 33.43 17.959 33.458 17.959V17.9608Z" fill="#0F1822"/>
</g>
<defs>
<clipPath id="clip0_1353_661">
<rect width="35" height="35" fill="white"/>
</clipPath>
</defs>
</svg>
