<svg width="1243" height="848" viewBox="0 0 1243 848" fill="none" xmlns="http://www.w3.org/2000/svg">
<path d="M1035.02 180.062L1023.52 222.187L1235.5 268.825M988.022 180.062C985.688 191.094 980.722 213.059 979.522 212.658C978.322 212.257 878.364 190.76 828.535 180.062M722.544 517.06L893.53 557.178L861.532 688.567M909.028 691.075L939.526 568.713L1235.5 637.416M1235.5 601.811L1058.02 560.187L1079.01 467.914L1235.5 505.525M1238.5 491.985L1084.01 451.867L1113.01 333.015L1242 365.11M1238.5 339.534L1117.51 310.949L1125.51 280.359L1238.5 304.932M726.544 190.091L837.534 216.67L790.538 389.682L680.548 360.596L726.544 190.091ZM720.044 389.682L784.539 405.229L765.041 479.95L701.546 462.398L720.044 389.682Z" stroke="url(#paint0_linear_7_52)"/>
<path d="M450.362 170.104L419.819 271.42L212.048 208.01M491.371 193.165C488.014 203.917 461.625 284.473 462.868 284.712C464.111 284.952 561.841 315.283 610.551 330.418L651.449 185.631M560.45 679.984L369.519 626.899L333.223 757.008M290.552 735.885L323.746 614.373L31.8973 528.961M49.2997 497.958L224.517 548.806L251.293 458.155L96.3595 414.117M100.36 400.855L254.774 441.729L287.56 324.01L159.317 288.661M175.116 267.672L294.418 302.588L302.389 272.026L191.783 237.978M693.558 392.989L583.716 361.669L541.254 531.59L651.449 560.236L693.558 392.989ZM602.768 566.182L538.891 548.071L516.121 634.654L580.105 650.528L602.768 566.182Z" stroke="url(#paint1_linear_7_52)"/>
<path d="M778.627 493.061L855.689 222.311L971.782 247.334L901.226 524.09L778.627 493.061Z" stroke="white"/>
<path d="M1009.81 285.685L1017.32 255.507L1108.89 276.631L1101.39 306.809L1009.81 285.685Z" stroke="white"/>
<path d="M973.784 424.533L1002.81 307.815L1098.88 329.355L1069.36 448.077L973.784 424.533Z" stroke="white"/>
<path d="M946.762 532.736L969.781 441.064L1065.86 464.107L1042.84 556.28L946.762 532.736Z" stroke="white"/>
<path d="M1007.78 563.599C1007.66 563.136 1007.41 562.748 1007.05 562.435C1006.69 562.113 1006.24 561.883 1005.68 561.745C1004.71 561.506 1003.86 561.636 1003.12 562.133C1002.38 562.618 1001.88 563.391 1001.62 564.451C1001.34 565.582 1001.42 566.542 1001.87 567.332C1002.33 568.114 1003.1 568.637 1004.17 568.901C1004.91 569.082 1005.57 569.048 1006.16 568.799C1006.77 568.553 1007.27 568.109 1007.68 567.467L1003.89 566.531L1004.43 564.329L1010.93 565.934L1010.24 568.712C1009.84 569.404 1009.29 570.003 1008.6 570.512C1007.91 571.023 1007.12 571.377 1006.2 571.572C1005.29 571.766 1004.32 571.737 1003.3 571.484C1002.08 571.185 1001.07 570.656 1000.24 569.896C999.428 569.127 998.87 568.204 998.567 567.128C998.275 566.055 998.278 564.913 998.577 563.701C998.875 562.489 999.403 561.476 1000.16 560.662C1000.93 559.839 1001.85 559.281 1002.93 558.99C1004 558.687 1005.15 558.685 1006.36 558.984C1007.82 559.346 1008.97 560.006 1009.8 560.964C1010.64 561.925 1011.07 563.075 1011.08 564.414L1007.78 563.599ZM1011.49 568.223C1011.74 567.221 1012.14 566.387 1012.7 565.722C1013.27 565.059 1013.93 564.605 1014.69 564.358C1015.44 564.111 1016.22 564.087 1017.02 564.285C1017.71 564.455 1018.27 564.743 1018.72 565.149C1019.17 565.558 1019.49 566.024 1019.65 566.547L1019.99 565.167L1022.98 565.904L1020.58 575.657L1017.59 574.919L1017.93 573.538C1017.53 573.921 1017.03 574.187 1016.44 574.338C1015.85 574.491 1015.22 574.483 1014.53 574.313C1013.74 574.117 1013.07 573.735 1012.52 573.166C1011.97 572.586 1011.59 571.87 1011.4 571.017C1011.21 570.156 1011.24 569.225 1011.49 568.223ZM1018.79 570.043C1018.98 569.297 1018.91 568.657 1018.6 568.122C1018.3 567.591 1017.85 567.251 1017.25 567.105C1016.66 566.958 1016.1 567.049 1015.57 567.376C1015.06 567.695 1014.72 568.227 1014.53 568.973C1014.35 569.719 1014.41 570.363 1014.7 570.907C1015.02 571.441 1015.47 571.782 1016.07 571.929C1016.66 572.075 1017.21 571.983 1017.73 571.653C1018.25 571.325 1018.61 570.789 1018.79 570.043ZM1023.35 571.167C1023.6 570.154 1024.02 569.318 1024.61 568.662C1025.22 568.008 1025.94 567.567 1026.77 567.341C1027.62 567.117 1028.52 567.123 1029.48 567.359C1030.7 567.661 1031.64 568.233 1032.3 569.075C1032.97 569.92 1033.29 570.956 1033.26 572.185L1030.08 571.4C1029.99 570.588 1029.56 570.087 1028.8 569.897C1028.25 569.762 1027.76 569.87 1027.33 570.221C1026.9 570.56 1026.58 571.125 1026.39 571.918C1026.19 572.71 1026.21 573.362 1026.43 573.873C1026.65 574.373 1027.03 574.691 1027.58 574.826C1028.35 575.016 1028.96 574.771 1029.41 574.091L1032.59 574.876C1032.06 575.955 1031.29 576.718 1030.3 577.167C1029.32 577.615 1028.22 577.69 1027.01 577.391C1026.05 577.155 1025.25 576.741 1024.6 576.149C1023.97 575.561 1023.54 574.836 1023.31 573.975C1023.08 573.117 1023.1 572.181 1023.35 571.167ZM1041.74 570.423C1042.86 570.699 1043.67 571.293 1044.16 572.206C1044.65 573.107 1044.74 574.204 1044.42 575.497L1043.02 581.195L1040.05 580.462L1041.35 575.166C1041.52 574.513 1041.47 573.965 1041.22 573.52C1040.97 573.076 1040.56 572.783 1039.99 572.642C1039.42 572.501 1038.92 572.57 1038.5 572.847C1038.07 573.125 1037.78 573.59 1037.61 574.243L1036.31 579.539L1033.32 578.801L1036.51 565.868L1039.5 566.605L1038.39 571.097C1038.8 570.741 1039.3 570.499 1039.88 570.372C1040.47 570.245 1041.09 570.262 1041.74 570.423ZM1049.25 571.312C1048.73 571.182 1048.33 570.925 1048.07 570.538C1047.82 570.143 1047.75 569.718 1047.87 569.264C1047.98 568.798 1048.24 568.454 1048.64 568.231C1049.05 568 1049.52 567.949 1050.05 568.078C1050.56 568.205 1050.94 568.466 1051.19 568.861C1051.45 569.247 1051.53 569.673 1051.41 570.139C1051.3 570.594 1051.04 570.937 1050.62 571.168C1050.22 571.39 1049.77 571.438 1049.25 571.312ZM1050.49 572.692L1048.09 582.445L1045.1 581.707L1047.5 571.955L1050.49 572.692ZM1055.3 575.345C1055.69 574.959 1056.19 574.691 1056.78 574.541C1057.37 574.391 1058.01 574.399 1058.68 574.566C1059.49 574.764 1060.16 575.148 1060.72 575.717C1061.27 576.285 1061.64 576.995 1061.82 577.844C1062.02 578.696 1062 579.623 1061.75 580.625C1061.5 581.627 1061.09 582.465 1060.52 583.14C1059.96 583.805 1059.3 584.267 1058.55 584.525C1057.79 584.772 1057.02 584.796 1056.21 584.598C1055.52 584.428 1054.96 584.146 1054.51 583.752C1054.07 583.346 1053.76 582.879 1053.58 582.353L1053.24 583.716L1050.25 582.979L1053.44 570.046L1056.43 570.783L1055.3 575.345ZM1058.71 579.875C1058.89 579.129 1058.83 578.495 1058.51 577.972C1058.21 577.44 1057.76 577.1 1057.15 576.95C1056.56 576.803 1056 576.894 1055.47 577.222C1054.96 577.552 1054.61 578.09 1054.42 578.836C1054.24 579.582 1054.3 580.22 1054.6 580.752C1054.91 581.287 1055.37 581.627 1055.96 581.774C1056.56 581.921 1057.12 581.83 1057.64 581.502C1058.17 581.163 1058.53 580.621 1058.71 579.875ZM1066.52 587.141C1065.56 586.905 1064.75 586.489 1064.08 585.891C1063.42 585.296 1062.97 584.566 1062.71 583.699C1062.47 582.835 1062.47 581.897 1062.72 580.883C1062.97 579.881 1063.4 579.056 1064.03 578.408C1064.67 577.748 1065.42 577.309 1066.29 577.091C1067.16 576.873 1068.07 576.882 1069.02 577.118C1069.98 577.353 1070.79 577.77 1071.46 578.368C1072.13 578.965 1072.59 579.703 1072.84 580.581C1073.1 581.448 1073.1 582.382 1072.86 583.384C1072.61 584.386 1072.16 585.216 1071.52 585.873C1070.89 586.521 1070.14 586.953 1069.25 587.168C1068.38 587.386 1067.47 587.377 1066.52 587.141ZM1067.15 584.554C1067.72 584.695 1068.26 584.605 1068.76 584.283C1069.27 583.964 1069.62 583.415 1069.81 582.634C1070.01 581.853 1069.96 581.204 1069.66 580.687C1069.38 580.173 1068.96 579.845 1068.39 579.704C1067.8 579.561 1067.27 579.651 1066.78 579.976C1066.3 580.289 1065.96 580.841 1065.76 581.633C1065.57 582.414 1065.61 583.06 1065.88 583.572C1066.16 584.086 1066.58 584.414 1067.15 584.554ZM1089.64 582.354L1084.6 591.455L1081.3 590.64L1081.32 583.934L1078.17 589.868L1074.88 589.057L1074.63 578.649L1077.62 579.387L1077.28 586.701L1080.64 580.133L1083.8 580.913L1083.75 588.262L1086.83 581.659L1089.64 582.354ZM1094.55 580.191L1091.37 593.125L1088.38 592.387L1091.56 579.454L1094.55 580.191ZM1097.69 583.264C1097.16 583.135 1096.77 582.877 1096.5 582.49C1096.26 582.095 1096.19 581.671 1096.3 581.216C1096.41 580.75 1096.67 580.406 1097.07 580.183C1097.49 579.952 1097.96 579.901 1098.48 580.031C1099 580.157 1099.38 580.418 1099.62 580.813C1099.89 581.199 1099.96 581.625 1099.85 582.092C1099.74 582.546 1099.47 582.889 1099.06 583.12C1098.66 583.342 1098.2 583.39 1097.69 583.264ZM1098.92 584.644L1096.52 594.397L1093.53 593.659L1095.93 583.907L1098.92 584.644ZM1111.72 590.324L1111.11 592.806L1103.42 590.908L1104.03 588.426L1111.72 590.324ZM1133.14 590.42L1130.12 602.689L1127.13 601.952L1128.95 594.593L1124.39 601.274L1121.98 600.679L1121.03 592.622L1119.22 599.998L1116.23 599.261L1119.25 586.991L1122.78 587.862L1124.13 597.206L1129.63 589.553L1133.14 590.42ZM1136.43 592.824C1135.9 592.695 1135.51 592.437 1135.25 592.05C1135 591.655 1134.93 591.231 1135.04 590.776C1135.15 590.31 1135.41 589.966 1135.81 589.743C1136.23 589.512 1136.7 589.461 1137.22 589.591C1137.74 589.717 1138.12 589.978 1138.36 590.373C1138.63 590.759 1138.7 591.186 1138.59 591.652C1138.48 592.106 1138.21 592.449 1137.8 592.68C1137.4 592.903 1136.94 592.95 1136.43 592.824ZM1137.66 594.204L1135.26 603.957L1132.27 603.219L1134.67 593.467L1137.66 594.204ZM1149.79 597.197L1140.13 610.071L1136.91 609.278L1140.37 604.866L1138.73 594.467L1142.06 595.291L1142.82 601.947L1146.56 596.399L1149.79 597.197ZM1149.08 602.176C1149.33 601.174 1149.73 600.34 1150.29 599.675C1150.86 599.012 1151.52 598.557 1152.27 598.311C1153.03 598.064 1153.8 598.04 1154.61 598.238C1155.3 598.408 1155.86 598.695 1156.31 599.102C1156.76 599.511 1157.07 599.977 1157.24 600.5L1157.58 599.12L1160.57 599.857L1158.17 609.609L1155.18 608.872L1155.52 607.491C1155.11 607.874 1154.62 608.14 1154.02 608.29C1153.44 608.444 1152.81 608.435 1152.12 608.266C1151.33 608.07 1150.66 607.688 1150.1 607.119C1149.55 606.539 1149.18 605.822 1148.98 604.97C1148.8 604.109 1148.83 603.178 1149.08 602.176ZM1156.38 603.996C1156.56 603.25 1156.5 602.61 1156.18 602.075C1155.88 601.544 1155.44 601.204 1154.84 601.058C1154.25 600.911 1153.69 601.002 1153.16 601.329C1152.65 601.648 1152.3 602.18 1152.12 602.926C1151.94 603.672 1151.99 604.316 1152.29 604.86C1152.61 605.394 1153.06 605.735 1153.65 605.882C1154.25 606.028 1154.8 605.936 1155.32 605.606C1155.84 605.278 1156.2 604.741 1156.38 603.996ZM1165.38 602.509C1165.78 602.126 1166.27 601.858 1166.86 601.705C1167.44 601.552 1168.07 601.56 1168.76 601.73C1169.56 601.928 1170.24 602.312 1170.79 602.881C1171.34 603.449 1171.71 604.159 1171.9 605.008C1172.1 605.86 1172.07 606.787 1171.83 607.789C1171.58 608.791 1171.17 609.629 1170.6 610.304C1170.04 610.969 1169.38 611.431 1168.62 611.689C1167.87 611.936 1167.09 611.96 1166.29 611.762C1165.61 611.595 1165.05 611.307 1164.59 610.898C1164.15 610.492 1163.83 610.032 1163.65 609.517L1162.17 615.529L1159.18 614.792L1162.73 600.39L1165.72 601.128L1165.38 602.509ZM1168.79 607.039C1168.97 606.293 1168.9 605.659 1168.59 605.136C1168.29 604.604 1167.83 604.264 1167.23 604.114C1166.63 603.967 1166.07 604.058 1165.55 604.386C1165.03 604.716 1164.68 605.254 1164.5 606C1164.32 606.746 1164.38 607.384 1164.68 607.916C1164.99 608.451 1165.44 608.791 1166.04 608.938C1166.63 609.085 1167.19 608.994 1167.72 608.666C1168.25 608.327 1168.6 607.785 1168.79 607.039ZM1184.22 605.694L1181.82 615.446L1178.83 614.709L1179.16 613.38C1178.75 613.737 1178.25 613.984 1177.66 614.123C1177.08 614.253 1176.48 614.24 1175.85 614.085C1175.11 613.901 1174.49 613.575 1174 613.108C1173.51 612.629 1173.19 612.036 1173.03 611.33C1172.87 610.623 1172.89 609.844 1173.1 608.994L1174.5 603.296L1177.48 604.029L1176.17 609.325C1176.01 609.977 1176.05 610.526 1176.3 610.97C1176.55 611.415 1176.96 611.708 1177.53 611.849C1178.12 611.992 1178.62 611.925 1179.05 611.647C1179.47 611.37 1179.77 610.904 1179.93 610.252L1181.23 604.956L1184.22 605.694ZM1188.96 608.586C1189.44 608.136 1189.98 607.825 1190.58 607.651C1191.18 607.466 1191.8 607.452 1192.44 607.611L1191.66 610.774L1190.84 610.571C1190.09 610.387 1189.49 610.412 1189.04 610.647C1188.59 610.869 1188.27 611.383 1188.07 612.187L1186.95 616.713L1183.96 615.976L1186.37 606.223L1189.36 606.961L1188.96 608.586ZM1201.4 620.278L1199.99 615.017L1199.27 614.84L1198.13 619.472L1195.14 618.734L1198.17 606.465L1203.18 607.703C1204.15 607.941 1204.93 608.313 1205.52 608.818C1206.12 609.325 1206.52 609.918 1206.71 610.595C1206.91 611.261 1206.92 611.956 1206.74 612.678C1206.54 613.494 1206.13 614.164 1205.5 614.69C1204.89 615.219 1204.1 615.507 1203.14 615.553L1204.77 621.111L1201.4 620.278ZM1199.79 612.725L1201.65 613.183C1202.19 613.318 1202.63 613.284 1202.97 613.082C1203.31 612.883 1203.55 612.539 1203.67 612.05C1203.78 611.584 1203.73 611.182 1203.52 610.845C1203.32 610.511 1202.94 610.277 1202.39 610.141L1200.54 609.684L1199.79 612.725ZM1207.15 616.507C1207.4 615.505 1207.8 614.672 1208.36 614.006C1208.94 613.344 1209.6 612.889 1210.35 612.642C1211.1 612.395 1211.88 612.371 1212.69 612.57C1213.33 612.728 1213.88 613.005 1214.33 613.403C1214.8 613.803 1215.13 614.268 1215.32 614.797L1216.44 610.27L1219.43 611.008L1216.24 623.941L1213.25 623.204L1213.6 621.805C1213.2 622.203 1212.71 622.476 1212.12 622.626C1211.54 622.78 1210.9 622.771 1210.21 622.602C1209.41 622.403 1208.73 622.02 1208.18 621.451C1207.63 620.87 1207.26 620.154 1207.06 619.302C1206.88 618.441 1206.91 617.509 1207.15 616.507ZM1214.46 618.327C1214.64 617.582 1214.57 616.942 1214.26 616.407C1213.96 615.875 1213.51 615.536 1212.92 615.389C1212.32 615.243 1211.76 615.333 1211.24 615.661C1210.73 615.98 1210.38 616.512 1210.2 617.258C1210.01 618.003 1210.07 618.648 1210.37 619.191C1210.68 619.726 1211.13 620.067 1211.73 620.213C1212.32 620.36 1212.88 620.268 1213.39 619.937C1213.92 619.61 1214.27 619.073 1214.46 618.327Z" fill="white"/>
<path d="M518.735 315.546L516.252 323.784C515.867 325.059 515.209 325.932 514.278 326.403C513.358 326.877 512.289 326.93 511.071 326.563C509.796 326.178 508.883 325.507 508.331 324.551C507.78 323.594 507.705 322.45 508.107 321.117L511.036 322.002C510.884 322.507 510.871 322.923 510.998 323.25C511.129 323.565 511.389 323.782 511.78 323.9C512.136 324.007 512.446 323.976 512.711 323.805C512.976 323.634 513.174 323.33 513.305 322.894L515.788 314.656L518.735 315.546ZM532.471 319.694L524.533 330.496L520.846 329.383L520.202 315.989L523.338 316.936L523.583 326.975L529.352 318.752L532.471 319.694ZM535.036 327.049C535.396 325.854 535.975 324.87 536.772 324.095C537.573 323.309 538.511 322.796 539.586 322.557C540.676 322.309 541.806 322.362 542.978 322.716C544.414 323.15 545.529 323.9 546.323 324.967C547.117 326.034 547.489 327.275 547.438 328.689L544.199 327.71C544.11 327.132 543.881 326.643 543.513 326.244C543.156 325.847 542.696 325.564 542.133 325.394C541.226 325.12 540.395 325.214 539.642 325.676C538.889 326.138 538.353 326.898 538.034 327.955C537.715 329.012 537.742 329.941 538.115 330.743C538.487 331.545 539.127 332.083 540.035 332.357C540.598 332.527 541.137 332.546 541.653 332.413C542.181 332.284 542.642 332.004 543.035 331.571L546.275 332.549C545.535 333.755 544.54 334.583 543.289 335.032C542.042 335.47 540.7 335.472 539.264 335.039C538.092 334.685 537.119 334.109 536.344 333.311C535.585 332.505 535.087 331.558 534.85 330.472C534.614 329.385 534.676 328.244 535.036 327.049ZM551.168 338.69C550.226 338.405 549.436 337.948 548.799 337.317C548.174 336.689 547.755 335.936 547.544 335.057C547.344 334.182 547.395 333.245 547.696 332.245C547.994 331.257 548.473 330.455 549.135 329.84C549.8 329.214 550.572 328.814 551.452 328.641C552.331 328.468 553.242 328.523 554.184 328.808C555.126 329.092 555.915 329.55 556.552 330.181C557.189 330.812 557.612 331.573 557.82 332.463C558.031 333.342 557.988 334.275 557.69 335.263C557.392 336.251 556.905 337.057 556.228 337.68C555.567 338.295 554.791 338.687 553.9 338.857C553.02 339.03 552.11 338.974 551.168 338.69ZM551.936 336.139C552.499 336.309 553.038 336.246 553.554 335.951C554.08 335.658 554.46 335.127 554.692 334.358C554.924 333.588 554.907 332.937 554.641 332.406C554.387 331.878 553.978 331.528 553.415 331.359C552.841 331.185 552.302 331.248 551.798 331.547C551.298 331.835 550.93 332.369 550.694 333.15C550.462 333.92 550.468 334.567 550.711 335.092C550.965 335.62 551.374 335.969 551.936 336.139ZM564.595 328.68L560.751 341.433L557.804 340.543L561.648 327.79L564.595 328.68ZM567.221 343.538C566.279 343.253 565.49 342.795 564.853 342.164C564.227 341.537 563.809 340.784 563.597 339.905C563.397 339.03 563.448 338.092 563.749 337.093C564.047 336.105 564.527 335.303 565.189 334.688C565.854 334.062 566.626 333.662 567.505 333.489C568.385 333.316 569.295 333.371 570.237 333.656C571.179 333.94 571.969 334.398 572.606 335.029C573.243 335.66 573.665 336.421 573.873 337.311C574.085 338.19 574.041 339.123 573.744 340.111C573.446 341.099 572.959 341.905 572.282 342.528C571.62 343.143 570.844 343.535 569.953 343.705C569.074 343.878 568.163 343.822 567.221 343.538ZM567.99 340.987C568.553 341.157 569.092 341.094 569.607 340.799C570.134 340.506 570.513 339.975 570.745 339.206C570.977 338.436 570.96 337.785 570.695 337.253C570.44 336.725 570.031 336.376 569.469 336.206C568.894 336.033 568.355 336.096 567.851 336.395C567.351 336.683 566.983 337.217 566.748 337.998C566.516 338.768 566.521 339.415 566.764 339.94C567.018 340.468 567.427 340.817 567.99 340.987ZM582.646 337.441C583.772 337.78 584.557 338.419 585.002 339.355C585.461 340.284 585.499 341.386 585.114 342.661L583.421 348.279L580.492 347.395L582.066 342.173C582.26 341.529 582.244 340.979 582.018 340.523C581.792 340.066 581.398 339.752 580.835 339.582C580.272 339.412 579.77 339.455 579.33 339.711C578.889 339.966 578.572 340.416 578.378 341.059L576.804 346.281L573.858 345.391L576.756 335.775L579.703 336.665L579.318 337.94C579.745 337.605 580.248 337.393 580.826 337.305C581.408 337.204 582.014 337.25 582.646 337.441ZM598.189 342.247L587.883 354.609L584.712 353.652L588.393 349.424L587.282 338.953L590.573 339.947L590.983 346.633L595.001 341.284L598.189 342.247ZM617.353 345.327L613.707 357.425L610.76 356.535L612.947 349.28L608.055 355.718L605.677 355L605.146 346.905L602.954 354.178L600.008 353.288L603.654 341.19L607.135 342.241L608.005 351.642L613.89 344.281L617.353 345.327ZM616.694 353.062C616.992 352.074 617.437 351.262 618.03 350.627C618.634 349.994 619.319 349.574 620.083 349.366C620.848 349.158 621.626 349.174 622.419 349.414C623.097 349.618 623.647 349.935 624.069 350.363C624.503 350.795 624.79 351.277 624.931 351.808L625.341 350.446L628.288 351.336L625.389 360.953L622.442 360.063L622.853 358.702C622.431 359.063 621.919 359.303 621.319 359.423C620.731 359.546 620.098 359.505 619.42 359.301C618.639 359.065 617.987 358.649 617.465 358.052C616.946 357.444 616.61 356.71 616.456 355.849C616.317 354.979 616.396 354.051 616.694 353.062ZM623.892 355.255C624.113 354.519 624.081 353.877 623.796 353.327C623.522 352.78 623.092 352.419 622.506 352.242C621.921 352.065 621.357 352.126 620.815 352.427C620.288 352.719 619.914 353.233 619.692 353.968C619.471 354.703 619.495 355.35 619.766 355.908C620.051 356.458 620.487 356.821 621.073 356.998C621.658 357.175 622.217 357.112 622.747 356.808C623.288 356.508 623.67 355.99 623.892 355.255ZM632.203 351.428C631.686 351.272 631.306 350.994 631.063 350.595C630.834 350.187 630.788 349.76 630.923 349.312C631.061 348.852 631.337 348.521 631.748 348.32C632.175 348.11 632.647 348.084 633.164 348.24C633.669 348.392 634.036 348.672 634.264 349.08C634.507 349.479 634.559 349.908 634.421 350.368C634.286 350.816 634.005 351.145 633.578 351.354C633.167 351.556 632.708 351.581 632.203 351.428ZM633.366 352.87L630.467 362.486L627.521 361.597L630.419 351.98L633.366 352.87ZM641.391 355.18C642.517 355.52 643.302 356.159 643.747 357.095C644.206 358.024 644.244 359.126 643.86 360.401L642.166 366.019L639.237 365.135L640.811 359.913C641.005 359.269 640.989 358.719 640.763 358.262C640.537 357.806 640.143 357.492 639.58 357.322C639.017 357.152 638.515 357.195 638.075 357.451C637.634 357.706 637.317 358.156 637.123 358.799L635.549 364.021L632.603 363.131L635.501 353.515L638.448 354.404L638.063 355.68C638.49 355.345 638.993 355.133 639.571 355.044C640.153 354.944 640.759 354.99 641.391 355.18ZM654.034 369.603L652.895 364.276L652.188 364.063L650.812 368.63L647.865 367.74L651.512 355.642L656.457 357.135C657.411 357.423 658.171 357.834 658.736 358.369C659.314 358.907 659.681 359.519 659.837 360.206C659.997 360.881 659.97 361.574 659.755 362.287C659.513 363.091 659.066 363.74 658.416 364.233C657.778 364.729 656.977 364.976 656.012 364.973L657.36 370.607L654.034 369.603ZM652.817 361.978L654.644 362.529C655.183 362.692 655.625 362.682 655.969 362.497C656.325 362.316 656.575 361.984 656.72 361.502C656.859 361.042 656.83 360.639 656.634 360.291C656.45 359.947 656.087 359.694 655.547 359.531L653.721 358.979L652.817 361.978ZM659.975 366.132C660.273 365.144 660.718 364.332 661.311 363.697C661.915 363.064 662.599 362.644 663.364 362.436C664.128 362.228 664.907 362.244 665.699 362.483C666.331 362.674 666.866 362.98 667.303 363.4C667.752 363.824 668.058 364.305 668.222 364.843L669.567 360.38L672.514 361.27L668.67 374.023L665.723 373.133L666.139 371.754C665.724 372.131 665.217 372.379 664.617 372.498C664.029 372.621 663.395 372.581 662.718 372.376C661.925 372.136 661.268 371.719 660.745 371.122C660.227 370.514 659.891 369.78 659.737 368.918C659.597 368.049 659.677 367.12 659.975 366.132ZM667.172 368.325C667.394 367.589 667.362 366.947 667.077 366.397C666.803 365.85 666.373 365.488 665.787 365.312C665.201 365.135 664.637 365.196 664.096 365.496C663.569 365.789 663.195 366.302 662.973 367.038C662.751 367.773 662.776 368.42 663.046 368.978C663.332 369.528 663.767 369.891 664.353 370.068C664.939 370.245 665.497 370.182 666.027 369.878C666.569 369.578 666.951 369.06 667.172 368.325Z" fill="white"/>
<path d="M654.002 624.494L662.313 626.723C663.599 627.068 664.493 627.699 664.992 628.616C665.496 629.521 665.583 630.588 665.254 631.817C664.909 633.103 664.268 634.037 663.33 634.618C662.392 635.199 661.25 635.309 659.906 634.948L660.697 631.992C661.207 632.129 661.623 632.129 661.946 631.992C662.257 631.851 662.465 631.584 662.57 631.19C662.667 630.831 662.625 630.521 662.446 630.262C662.267 630.003 661.957 629.814 661.517 629.696L653.207 627.467L654.002 624.494ZM657.713 610.634L668.759 618.237L667.762 621.958L654.399 623.014L655.246 619.849L665.27 619.295L656.87 613.781L657.713 610.634ZM664.982 607.843C663.777 607.519 662.774 606.971 661.975 606.198C661.164 605.421 660.622 604.499 660.349 603.432C660.067 602.35 660.085 601.218 660.401 600.036C660.789 598.587 661.503 597.449 662.545 596.622C663.586 595.796 664.814 595.386 666.228 595.393L665.353 598.661C664.778 598.768 664.296 599.012 663.909 599.392C663.524 599.761 663.256 600.23 663.104 600.798C662.859 601.714 662.979 602.541 663.464 603.28C663.95 604.019 664.726 604.531 665.792 604.817C666.858 605.103 667.786 605.048 668.576 604.651C669.365 604.254 669.882 603.597 670.128 602.682C670.28 602.114 670.281 601.574 670.133 601.062C669.987 600.538 669.692 600.086 669.247 599.706L670.122 596.437C671.35 597.139 672.209 598.109 672.698 599.345C673.175 600.579 673.22 601.92 672.832 603.369C672.515 604.552 671.97 605.543 671.198 606.342C670.416 607.126 669.486 607.653 668.408 607.923C667.329 608.193 666.187 608.166 664.982 607.843ZM676.104 591.356C675.849 592.307 675.417 593.11 674.806 593.766C674.199 594.411 673.46 594.852 672.588 595.091C671.72 595.318 670.782 595.296 669.773 595.025C668.777 594.758 667.961 594.303 667.325 593.661C666.678 593.015 666.254 592.255 666.053 591.381C665.852 590.508 665.879 589.595 666.134 588.645C666.388 587.694 666.821 586.891 667.431 586.235C668.041 585.578 668.788 585.133 669.671 584.897C670.542 584.659 671.476 584.673 672.473 584.941C673.47 585.208 674.29 585.67 674.934 586.327C675.57 586.97 675.986 587.734 676.184 588.619C676.385 589.493 676.358 590.406 676.104 591.356ZM673.531 590.666C673.683 590.098 673.603 589.561 673.291 589.055C672.982 588.537 672.44 588.174 671.663 587.966C670.887 587.758 670.237 587.795 669.714 588.077C669.195 588.348 668.859 588.767 668.707 589.335C668.552 589.915 668.631 590.452 668.946 590.946C669.249 591.437 669.795 591.789 670.583 592C671.36 592.208 672.006 592.183 672.523 591.924C673.043 591.653 673.379 591.234 673.531 590.666ZM665.677 578.24L678.542 581.691L677.746 584.664L664.881 581.214L665.677 578.24ZM680.44 575.157C680.186 576.107 679.753 576.911 679.143 577.567C678.535 578.212 677.796 578.653 676.925 578.892C676.057 579.119 675.118 579.097 674.11 578.826C673.113 578.559 672.297 578.104 671.662 577.462C671.015 576.816 670.591 576.056 670.39 575.182C670.189 574.308 670.216 573.396 670.47 572.446C670.725 571.495 671.157 570.692 671.768 570.036C672.378 569.379 673.125 568.933 674.008 568.698C674.879 568.46 675.813 568.474 676.81 568.741C677.806 569.009 678.627 569.471 679.271 570.128C679.906 570.771 680.323 571.535 680.521 572.42C680.721 573.294 680.695 574.206 680.44 575.157ZM677.867 574.467C678.019 573.899 677.939 573.362 677.628 572.856C677.319 572.338 676.776 571.975 676 571.767C675.223 571.559 674.574 571.596 674.051 571.878C673.531 572.148 673.195 572.568 673.043 573.136C672.888 573.715 672.968 574.252 673.283 574.747C673.586 575.238 674.132 575.59 674.92 575.801C675.696 576.009 676.343 575.984 676.86 575.725C677.379 575.454 677.715 575.035 677.867 574.467ZM673.86 559.923C674.164 558.787 674.777 557.983 675.699 557.509C676.612 557.021 677.712 556.95 678.998 557.295L684.666 558.815L683.875 561.771L678.607 560.358C677.958 560.184 677.409 560.217 676.959 560.456C676.51 560.696 676.209 561.1 676.057 561.668C675.905 562.236 675.964 562.736 676.233 563.169C676.502 563.602 676.962 563.905 677.611 564.079L682.879 565.492L682.083 568.465L672.381 565.863L673.177 562.89L674.464 563.235C674.116 562.819 673.888 562.323 673.781 561.747C673.663 561.169 673.689 560.561 673.86 559.923ZM678.171 544.236L690.85 554.159L689.994 557.358L685.652 553.808L675.225 555.242L676.114 551.921L682.782 551.305L677.31 547.453L678.171 544.236ZM680.642 524.981L692.847 528.254L692.051 531.228L684.732 529.265L691.32 533.958L690.678 536.357L682.606 537.137L689.942 539.104L689.146 542.078L676.942 538.804L677.882 535.292L687.248 534.133L679.707 528.476L680.642 524.981ZM688.393 525.402C687.396 525.135 686.571 524.714 685.917 524.141C685.266 523.557 684.824 522.886 684.593 522.128C684.361 521.37 684.352 520.591 684.566 519.791C684.749 519.107 685.048 518.547 685.463 518.112C685.88 517.665 686.353 517.363 686.879 517.206L685.506 516.838L686.302 513.864L696.003 516.466L695.207 519.439L693.833 519.071C694.208 519.482 694.464 519.986 694.603 520.582C694.744 521.167 694.724 521.801 694.541 522.485C694.33 523.273 693.934 523.937 693.355 524.478C692.764 525.015 692.041 525.374 691.185 525.554C690.32 525.72 689.39 525.669 688.393 525.402ZM690.356 518.139C689.614 517.94 688.973 517.991 688.433 518.294C687.895 518.584 687.547 519.025 687.389 519.616C687.231 520.208 687.31 520.769 687.627 521.302C687.936 521.819 688.461 522.178 689.203 522.376C689.945 522.575 690.59 522.531 691.139 522.244C691.68 521.941 692.029 521.494 692.188 520.903C692.346 520.312 692.265 519.756 691.945 519.235C691.627 518.703 691.098 518.337 690.356 518.139ZM686.269 509.947C686.13 510.469 685.864 510.858 685.473 511.113C685.073 511.354 684.647 511.413 684.195 511.292C683.732 511.168 683.392 510.903 683.178 510.497C682.955 510.077 682.913 509.607 683.053 509.085C683.19 508.575 683.458 508.2 683.858 507.959C684.249 507.704 684.676 507.638 685.14 507.762C685.592 507.884 685.93 508.154 686.153 508.574C686.367 508.98 686.406 509.437 686.269 509.947ZM687.673 508.74L697.375 511.342L696.579 514.315L686.877 511.713L687.673 508.74ZM689.729 500.645C690.033 499.509 690.646 498.705 691.567 498.231C692.481 497.743 693.581 497.672 694.867 498.017L700.535 499.537L699.743 502.493L694.476 501.08C693.827 500.906 693.277 500.939 692.828 501.179C692.379 501.418 692.078 501.822 691.926 502.39C691.774 502.958 691.833 503.459 692.102 503.891C692.371 504.324 692.83 504.627 693.48 504.801L698.747 506.214L697.951 509.187L688.25 506.585L689.046 503.612L690.333 503.957C689.985 503.541 689.757 503.045 689.65 502.469C689.532 501.891 689.558 501.283 689.729 500.645ZM703.741 487.561L698.454 488.864L698.263 489.577L702.87 490.813L702.074 493.786L689.87 490.513L691.206 485.522C691.463 484.56 691.85 483.788 692.366 483.206C692.885 482.612 693.485 482.227 694.166 482.049C694.836 481.868 695.53 481.874 696.249 482.067C697.06 482.285 697.722 482.711 698.236 483.345C698.752 483.968 699.024 484.762 699.052 485.726L704.639 484.205L703.741 487.561ZM696.159 489.013L696.653 487.17C696.799 486.625 696.774 486.184 696.579 485.845C696.387 485.496 696.047 485.256 695.56 485.125C695.097 485.001 694.694 485.042 694.353 485.249C694.015 485.444 693.774 485.814 693.628 486.358L693.134 488.202L696.159 489.013ZM700.085 481.729C699.088 481.462 698.262 481.041 697.608 480.468C696.957 479.884 696.516 479.213 696.284 478.455C696.052 477.697 696.043 476.918 696.257 476.118C696.428 475.48 696.716 474.937 697.123 474.486C697.532 474.025 698.003 473.704 698.536 473.524L694.033 472.316L694.829 469.343L707.694 472.793L706.898 475.766L705.507 475.393C705.897 475.796 706.16 476.295 706.299 476.891C706.44 477.476 706.42 478.11 706.237 478.794C706.023 479.594 705.626 480.264 705.046 480.805C704.455 481.342 703.732 481.701 702.876 481.881C702.012 482.047 701.081 481.996 700.085 481.729ZM702.048 474.465C701.306 474.266 700.665 474.318 700.124 474.62C699.587 474.911 699.239 475.352 699.081 475.943C698.922 476.534 699.002 477.096 699.319 477.629C699.627 478.146 700.153 478.504 700.894 478.703C701.636 478.902 702.282 478.858 702.831 478.57C703.371 478.268 703.721 477.821 703.879 477.23C704.037 476.639 703.956 476.083 703.636 475.562C703.319 475.03 702.789 474.664 702.048 474.465Z" fill="white"/>
<path d="M1104.32 251.324C1105.61 251.647 1106.67 252.185 1107.51 252.939C1108.35 253.692 1108.92 254.6 1109.21 255.663C1109.51 256.716 1109.52 257.849 1109.21 259.059C1108.92 260.259 1108.38 261.257 1107.61 262.055C1106.86 262.856 1105.93 263.39 1104.82 263.658C1103.73 263.929 1102.54 263.905 1101.26 263.585L1096.67 262.438L1099.72 250.177L1104.32 251.324ZM1101.71 260.952C1102.84 261.234 1103.8 261.145 1104.58 260.685C1105.36 260.225 1105.89 259.43 1106.18 258.301C1106.46 257.171 1106.36 256.213 1105.89 255.428C1105.42 254.642 1104.62 254.108 1103.49 253.826L1102.07 253.473L1100.3 260.599L1101.71 260.952ZM1112.92 264.047L1116.83 265.024L1116.25 267.329L1109.35 265.607L1112.41 253.346L1115.4 254.092L1112.92 264.047ZM1128.71 257.418L1128.12 259.811L1123.12 258.563L1122.48 261.148L1126.22 262.081L1125.64 264.404L1121.9 263.471L1120.66 268.431L1117.68 267.685L1120.73 255.424L1128.71 257.418ZM1137.18 272.556L1135.78 267.291L1135.07 267.112L1133.91 271.741L1130.93 270.995L1133.99 258.734L1139 259.986C1139.96 260.227 1140.74 260.601 1141.33 261.107C1141.94 261.617 1142.33 262.21 1142.52 262.888C1142.71 263.555 1142.72 264.249 1142.54 264.971C1142.34 265.786 1141.92 266.456 1141.3 266.98C1140.68 267.507 1139.9 267.792 1138.93 267.836L1140.55 273.398L1137.18 272.556ZM1135.6 264.999L1137.45 265.461C1137.99 265.598 1138.43 265.566 1138.77 265.365C1139.12 265.167 1139.35 264.823 1139.47 264.334C1139.59 263.869 1139.54 263.467 1139.33 263.129C1139.13 262.795 1138.75 262.559 1138.2 262.422L1136.35 261.96L1135.6 264.999ZM1142.95 268.801C1143.2 267.8 1143.6 266.968 1144.16 266.304C1144.74 265.643 1145.4 265.19 1146.15 264.945C1146.91 264.701 1147.68 264.679 1148.49 264.879C1149.13 265.039 1149.68 265.319 1150.13 265.717C1150.6 266.119 1150.93 266.584 1151.12 267.114L1152.25 262.591L1155.24 263.336L1152.01 276.261L1149.03 275.515L1149.38 274.118C1148.98 274.514 1148.48 274.786 1147.89 274.935C1147.31 275.086 1146.68 275.076 1145.99 274.904C1145.18 274.704 1144.51 274.318 1143.96 273.748C1143.41 273.166 1143.04 272.449 1142.84 271.596C1142.66 270.734 1142.7 269.803 1142.95 268.801ZM1150.24 270.642C1150.43 269.897 1150.36 269.257 1150.05 268.721C1149.75 268.189 1149.31 267.848 1148.71 267.7C1148.12 267.551 1147.56 267.64 1147.03 267.967C1146.52 268.284 1146.17 268.815 1145.98 269.56C1145.8 270.306 1145.85 270.95 1146.15 271.495C1146.46 272.03 1146.92 272.372 1147.51 272.52C1148.1 272.669 1148.66 272.578 1149.17 272.249C1149.7 271.923 1150.06 271.387 1150.24 270.642Z" fill="white"/>
<path d="M995.239 526.626C995.239 535.015 975.879 539.398 956.739 539.398C937.598 539.398 918.239 535.015 918.239 526.626C918.239 520.114 930.029 516.013 944.322 514.543L945.604 516.734L946.886 518.957L952.672 528.974C953.516 530.414 955.08 531.322 956.738 531.322C958.395 531.322 959.959 530.414 960.803 528.974L966.589 518.957L967.871 516.734L969.154 514.543C983.446 516.014 995.237 520.115 995.237 526.626H995.239ZM934.909 491.941C932.657 487.997 931.5 483.771 931.5 479.357C931.5 465.427 942.821 454.094 956.739 454.094C965.84 454.094 974.003 458.79 978.538 466.678C983.104 474.598 983.135 484.02 978.569 491.941L965.684 514.229L964.402 516.483L963.088 518.737L958.084 527.408C957.802 527.878 957.302 528.191 956.739 528.191C956.176 528.191 955.676 527.878 955.394 527.408L950.39 518.737L949.077 516.483L947.794 514.229L934.909 491.941ZM947.107 478.73C947.107 484.052 951.423 488.372 956.74 488.372C962.056 488.372 966.372 484.052 966.372 478.73C966.372 473.408 962.056 469.088 956.74 469.088C951.423 469.088 947.107 473.408 947.107 478.73Z" fill="white"/>
<path opacity="0.8" d="M427.73 311.681L391.351 439.498L280.431 408.74L316.778 277.418L427.73 311.681Z" stroke="white"/>
<path opacity="0.8" d="M565.842 356.259L487.848 636.355L364.888 602.259L443.377 318.684L565.842 356.259Z" stroke="white"/>
<rect opacity="0.8" x="0.348442" y="0.615488" width="115.101" height="142.238" transform="matrix(0.963638 0.267211 -0.266754 0.963765 272.573 424.974)" stroke="white"/>
<defs>
<linearGradient id="paint0_linear_7_52" x1="981.022" y1="180.062" x2="1233.42" y2="489.226" gradientUnits="userSpaceOnUse">
<stop offset="0.318685" stop-color="white"/>
<stop offset="1" stop-color="white" stop-opacity="0"/>
</linearGradient>
<linearGradient id="paint1_linear_7_52" x1="477.49" y1="255.593" x2="106.483" y2="401.819" gradientUnits="userSpaceOnUse">
<stop offset="0.318685" stop-color="white"/>
<stop offset="1" stop-color="white" stop-opacity="0"/>
</linearGradient>
</defs>
</svg>
