<svg width="512" height="512" viewBox="0 0 512 512" fill="none" xmlns="http://www.w3.org/2000/svg">
<g clip-path="url(#clip0_1353_636)">
<path d="M25.2697 218.014C36.5492 218.014 44.2995 219.657 48.5488 222.958C52.7275 226.188 54.8168 232.761 54.8168 242.649C54.8168 250.303 53.6169 255.809 51.2311 259.18C48.9017 262.551 44.836 264.658 38.9915 265.514L55.805 292.242C56.2003 292.776 56.285 293.225 56.0591 293.633C55.8191 294.026 55.3391 294.222 54.6192 294.222H45.3725C43.7207 294.222 42.3937 293.492 41.3914 292.045L24.9732 266.315L12.8325 266.413V292.734C12.8325 293.324 12.7337 293.717 12.536 293.928C12.3384 294.124 11.9431 294.222 11.3361 294.222H1.49642C0.903496 294.222 0.508217 294.124 0.29646 293.928C0.0988199 293.731 0 293.338 0 292.734V220.191C0 219.657 0.0988199 219.32 0.29646 219.151C0.4941 218.983 0.889379 218.87 1.49642 218.8C9.04908 218.281 16.9829 218.014 25.2697 218.014ZM24.0697 229.095H12.8325V256.216H24.0697C28.2484 256.216 31.2836 256.104 33.1753 255.865C35.0669 255.641 36.7469 255.051 38.2009 254.138C39.655 253.211 40.6432 251.947 41.1373 250.331C41.6314 248.716 41.8855 246.258 41.8855 242.958C41.8855 237.157 40.7279 233.393 38.3986 231.68C36.0693 229.966 31.2977 229.109 24.0697 229.109V229.095Z" fill="#0F1822"/>
<path d="M67.4525 218.506H77.2074C78.1956 218.506 78.7038 218.997 78.7038 219.995V292.65C78.7038 293.703 78.2097 294.237 77.2074 294.237H67.4525C66.4643 294.237 65.9561 293.703 65.9561 292.65V219.995C65.9561 219.011 66.4502 218.506 67.4525 218.506Z" fill="#0F1822"/>
<path d="M89.079 218.506H99.2292C99.6245 218.506 99.9069 218.604 100.076 218.801C100.246 218.997 100.387 219.433 100.528 220.093L116.65 279.967C117.186 281.821 117.61 282.973 117.949 283.436C118.273 283.9 118.838 284.125 119.643 284.125C120.631 284.125 121.337 283.872 121.732 283.38C122.127 282.889 122.565 281.751 123.031 279.967L138.616 220.093C138.743 219.433 138.898 218.997 139.068 218.801C139.237 218.604 139.52 218.506 139.915 218.506H150.065C151.124 218.506 151.519 219.04 151.265 220.093L134.748 283.043C133.491 288.254 131.995 291.526 130.273 292.847C128.748 294.097 125.205 294.729 119.628 294.729C114.391 294.729 111.003 294.097 109.478 292.847C107.954 291.597 106.429 288.324 104.904 283.043L87.8791 220.093C87.6108 219.04 88.0061 218.506 89.079 218.506Z" fill="#5B0D8A"/>
<path d="M220.439 292.636L237.45 229.686C238.975 224.405 240.5 221.146 242.024 219.882C243.549 218.632 246.937 218 252.174 218C257.751 218 261.294 218.632 262.819 219.882C264.541 221.202 266.037 224.461 267.294 229.686L283.811 292.636C284.079 293.689 283.684 294.223 282.611 294.223H272.461C272.065 294.223 271.783 294.125 271.614 293.928C271.444 293.731 271.303 293.296 271.162 292.636L255.548 232.761C255.083 230.978 254.659 229.84 254.25 229.348C253.854 228.857 253.148 228.604 252.16 228.604C251.37 228.604 250.805 228.829 250.466 229.292C250.127 229.756 249.704 230.907 249.167 232.761L233.046 292.636C232.919 293.296 232.763 293.731 232.594 293.928C232.425 294.125 232.142 294.223 231.747 294.223H221.597C220.538 294.223 220.143 293.689 220.397 292.636H220.439Z" fill="#E5004B"/>
<path d="M162.022 218.506H210.176C211.235 218.506 211.771 218.997 211.771 219.995V228.113C211.771 229.096 211.235 229.602 210.176 229.602H173.372V251.779H206.999C207.988 251.779 208.496 252.27 208.496 253.268V261.091C208.496 262.074 208.002 262.579 206.999 262.579H173.372V283.17H210.176C211.235 283.17 211.771 283.661 211.771 284.658V292.776C211.771 293.76 211.235 294.265 210.176 294.265H162.022C161.034 294.265 160.526 293.774 160.526 292.776V219.995C160.526 219.011 161.02 218.506 162.022 218.506Z" fill="#0F1822"/>
<path d="M302.248 218.891H305.438C305.678 218.891 305.862 219.115 305.975 219.537L312.765 244.144C313.033 245.113 313.259 245.731 313.415 245.97C313.57 246.208 313.866 246.335 314.276 246.335C314.826 246.335 315.193 246.208 315.377 245.97C315.56 245.731 315.786 245.113 316.026 244.144L322.534 219.537C322.647 219.101 322.817 218.891 323.071 218.891H326.261C326.699 218.891 326.868 219.115 326.798 219.537L319.965 245.127C319.556 246.672 319.189 247.725 318.864 248.301C318.539 248.905 318.059 249.312 317.41 249.537C316.76 249.762 315.73 249.888 314.276 249.888C312.37 249.888 311.142 249.635 310.591 249.116C310.012 248.568 309.448 247.248 308.869 245.127L301.712 219.537C301.627 219.101 301.81 218.891 302.248 218.891Z" fill="#0F1822"/>
<path d="M339.729 218.693C341.833 218.693 343.188 218.96 343.823 219.508C344.473 220.056 345.094 221.362 345.659 223.455L352.647 249.045C352.703 249.312 352.689 249.494 352.632 249.579C352.562 249.663 352.407 249.705 352.167 249.705H348.976C348.821 249.705 348.694 249.663 348.623 249.579C348.553 249.494 348.496 249.326 348.44 249.045L345.899 240.056H333.588L331.005 249.045C330.948 249.312 330.892 249.494 330.821 249.579C330.751 249.663 330.638 249.705 330.469 249.705H327.278C327.038 249.705 326.869 249.663 326.812 249.579C326.742 249.494 326.742 249.326 326.798 249.045L334.04 223.455C334.661 221.334 335.282 220.028 335.875 219.508C336.553 218.96 337.838 218.693 339.715 218.693H339.729ZM339.729 222.275C339.151 222.275 338.784 222.387 338.6 222.626C338.416 222.851 338.205 223.455 337.965 224.438L334.605 236.474H344.953L341.762 224.438C341.466 223.441 341.212 222.837 341.028 222.654C340.83 222.415 340.407 222.289 339.715 222.289L339.729 222.275Z" fill="#0F1822"/>
<path d="M367.469 218.693C369.459 218.693 372.099 218.89 375.403 219.297C375.784 219.353 375.967 219.522 375.967 219.831V221.699C375.967 222.106 375.784 222.303 375.431 222.303H366.227C362.655 222.303 360.876 223.511 360.876 225.927V226.615C360.876 227.696 361.088 228.539 361.526 229.143C361.963 229.747 362.768 230.281 363.94 230.772L372.862 234.438C374.584 235.14 375.784 236.053 376.504 237.163C377.21 238.272 377.563 239.719 377.563 241.517V242.823C377.563 245.126 376.857 246.854 375.431 247.991C374.81 248.539 374.019 248.947 373.059 249.213C371.337 249.677 369.248 249.902 366.763 249.902C363.46 249.902 360.142 249.705 356.782 249.326C356.457 249.241 356.288 249.031 356.288 248.68V246.854C356.288 246.475 356.486 246.278 356.867 246.278H368.076C369.925 246.278 371.28 245.997 372.128 245.449C372.975 244.888 373.398 243.975 373.398 242.711V241.938C373.398 240.8 373.172 239.901 372.72 239.255C372.269 238.609 371.464 238.033 370.292 237.542L360.594 233.637C359.182 233.09 358.18 232.261 357.615 231.137C357.036 230.014 356.754 228.539 356.754 226.727V225.744C356.754 223.441 357.432 221.727 358.801 220.618C359.352 220.154 360.142 219.761 361.173 219.438C362.754 218.946 364.857 218.707 367.469 218.707V218.693Z" fill="#0F1822"/>
<path d="M394.079 218.693C397.326 218.693 399.853 218.834 401.688 219.101C402.126 219.129 402.338 219.353 402.338 219.789V221.699C402.338 222.106 402.14 222.303 401.731 222.303H394.079C390.621 222.303 388.362 223.104 387.331 224.705C386.301 226.306 385.778 229.508 385.778 234.312C385.778 239.115 386.301 242.275 387.331 243.876C388.362 245.477 390.621 246.278 394.079 246.278H401.731C402.14 246.278 402.338 246.475 402.338 246.882V248.792C402.338 249.199 402.126 249.438 401.688 249.522C399.91 249.761 397.383 249.888 394.079 249.888C391.468 249.888 389.392 249.649 387.868 249.157C386.343 248.666 385.101 247.809 384.141 246.601C383.209 245.407 382.56 243.862 382.193 241.98C381.826 240.098 381.642 237.542 381.642 234.312C381.642 231.081 381.826 228.525 382.193 226.643C382.56 224.761 383.209 223.216 384.141 222.022C385.073 220.772 386.301 219.901 387.84 219.424C389.378 218.932 391.453 218.693 394.079 218.693Z" fill="#0F1822"/>
<path d="M427.665 218.889H430.573C430.982 218.889 431.18 219.085 431.18 219.493V234.338C431.18 237.653 430.996 240.251 430.643 242.133C430.29 244.015 429.655 245.56 428.723 246.754C427.792 247.948 426.592 248.763 425.109 249.212C423.627 249.662 421.594 249.886 418.997 249.886C415.227 249.886 412.418 249.268 410.526 248.018C409.552 247.372 408.79 246.417 408.282 245.167C407.322 242.751 406.856 239.142 406.856 234.338V219.507C406.856 219.099 407.054 218.903 407.463 218.903H410.371C410.781 218.903 410.978 219.099 410.978 219.507V234.352C410.978 237.583 411.204 240.055 411.67 241.754C412.136 243.411 412.926 244.577 414.042 245.251C415.157 245.926 416.809 246.263 418.983 246.263C422.201 246.263 424.333 245.476 425.406 243.903C426.493 242.33 427.043 239.142 427.043 234.338V219.507C427.043 219.099 427.241 218.903 427.65 218.903L427.665 218.889Z" fill="#0F1822"/>
<path d="M437.801 218.889H440.709C441.118 218.889 441.316 219.085 441.316 219.493V246.052H456.153C456.563 246.052 456.76 246.249 456.76 246.656V249.058C456.76 249.465 456.563 249.662 456.153 249.662H437.787C437.377 249.662 437.18 249.465 437.18 249.058V219.507C437.18 219.099 437.377 218.903 437.787 218.903L437.801 218.889Z" fill="#0F1822"/>
<path d="M472.713 218.693C474.816 218.693 476.171 218.96 476.807 219.508C477.456 220.056 478.077 221.362 478.642 223.455L485.63 249.045C485.686 249.312 485.672 249.494 485.616 249.579C485.545 249.663 485.39 249.705 485.15 249.705H481.959C481.804 249.705 481.677 249.663 481.607 249.579C481.536 249.494 481.479 249.326 481.423 249.045L478.882 240.056H466.572L463.988 249.045C463.932 249.312 463.875 249.494 463.805 249.579C463.734 249.663 463.621 249.705 463.452 249.705H460.261C460.021 249.705 459.852 249.663 459.796 249.579C459.725 249.494 459.725 249.326 459.781 249.045L467.024 223.455C467.645 221.334 468.266 220.028 468.859 219.508C469.536 218.96 470.821 218.693 472.699 218.693H472.713ZM472.713 222.275C472.134 222.275 471.767 222.387 471.583 222.626C471.4 222.865 471.188 223.455 470.948 224.438L467.588 236.474H477.936L474.746 224.438C474.449 223.441 474.195 222.837 474.011 222.654C473.814 222.415 473.39 222.289 472.699 222.289L472.713 222.275Z" fill="#0F1822"/>
<path d="M499.38 218.693C501.949 218.693 503.925 218.82 505.323 219.087C506.721 219.339 507.921 219.831 508.895 220.533C509.911 221.236 510.617 222.219 511.026 223.483C511.436 224.747 511.633 226.46 511.633 228.623C511.633 231.854 511.125 234.129 510.123 235.463C509.149 236.798 507.412 237.626 504.928 237.949L511.845 248.89C512.015 249.115 512.043 249.298 511.944 249.466C511.845 249.635 511.648 249.705 511.351 249.705H508.739C508.062 249.705 507.511 249.41 507.102 248.806L500.354 238.188H494.185V249.087C494.185 249.326 494.142 249.494 494.058 249.579C493.973 249.663 493.818 249.705 493.563 249.705H490.655C490.415 249.705 490.246 249.663 490.161 249.579C490.077 249.494 490.034 249.34 490.034 249.087V219.578C490.034 219.339 490.077 219.185 490.161 219.115C490.246 219.044 490.401 219.002 490.655 218.974C493.168 218.778 496.062 218.693 499.366 218.693H499.38ZM499.013 222.317H494.185V234.691H499.013C500.354 234.691 501.215 234.691 501.624 234.649C503.417 234.592 504.603 234.438 505.182 234.157C506.057 233.778 506.664 233.188 507.003 232.387C507.342 231.587 507.497 230.365 507.469 228.708C507.469 225.969 506.918 224.213 505.831 223.455C504.801 222.696 502.514 222.317 498.999 222.317H499.013Z" fill="#0F1822"/>
<path d="M304.663 263.387H307.571C307.98 263.387 308.178 263.611 308.178 264.033V293.57C308.178 293.977 307.98 294.174 307.571 294.174H304.663C304.253 294.174 304.056 293.977 304.056 293.57V264.033C304.056 263.597 304.253 263.387 304.663 263.387Z" fill="#0F1822"/>
<path d="M335.734 263.383H338.643C339.052 263.383 339.25 263.608 339.25 264.029V293.566C339.25 293.973 339.052 294.17 338.643 294.17H336.144C335.509 294.17 335.043 293.931 334.718 293.44L318.568 269.226V293.552C318.568 293.959 318.37 294.156 317.961 294.156H315.053C314.643 294.156 314.446 293.959 314.446 293.552V264.015C314.446 263.58 314.643 263.369 315.053 263.369H317.834C318.54 263.397 319.02 263.481 319.288 263.608C319.542 263.748 319.839 264.057 320.163 264.549L335.127 286.965V264.015C335.127 263.58 335.325 263.369 335.734 263.369V263.383Z" fill="#0F1822"/>
<path d="M355.201 263.188C357.191 263.188 359.831 263.384 363.135 263.791C363.516 263.848 363.699 264.016 363.699 264.325V266.193C363.699 266.6 363.516 266.797 363.163 266.797H353.958C350.387 266.797 348.608 268.005 348.608 270.421V271.109C348.608 272.19 348.82 273.033 349.257 273.637C349.695 274.241 350.5 274.775 351.672 275.266L360.594 278.932C362.316 279.634 363.516 280.547 364.236 281.657C364.942 282.766 365.295 284.213 365.295 286.011V287.317C365.295 289.62 364.589 291.348 363.163 292.486C362.542 293.033 361.751 293.441 360.791 293.708C359.069 294.171 356.98 294.396 354.495 294.396C351.192 294.396 347.874 294.199 344.514 293.82C344.189 293.736 344.02 293.525 344.02 293.174V291.348C344.02 290.969 344.218 290.772 344.599 290.772H355.808C357.657 290.772 359.012 290.491 359.859 289.943C360.706 289.382 361.13 288.469 361.13 287.205V286.432C361.13 285.295 360.904 284.396 360.452 283.75C360.001 283.103 359.196 282.528 358.024 282.036L348.326 278.132C346.914 277.584 345.912 276.755 345.347 275.631C344.768 274.508 344.486 273.033 344.486 271.221V270.238C344.486 267.935 345.164 266.221 346.533 265.112C347.083 264.648 347.874 264.255 348.905 263.932C350.486 263.44 352.589 263.202 355.201 263.202V263.188Z" fill="#0F1822"/>
<path d="M368.457 263.387H391.158C391.567 263.387 391.765 263.583 391.765 263.991V266.392C391.765 266.8 391.567 266.996 391.158 266.996H381.883V293.556C381.883 293.963 381.685 294.16 381.276 294.16H378.367C377.958 294.16 377.76 293.963 377.76 293.556V266.996H368.471C368.062 266.996 367.864 266.8 367.864 266.392V263.991C367.864 263.583 368.062 263.387 368.471 263.387H368.457Z" fill="#0F1822"/>
<path d="M396.593 263.387H399.501C399.911 263.387 400.109 263.611 400.109 264.033V293.57C400.109 293.977 399.911 294.174 399.501 294.174H396.593C396.184 294.174 395.986 293.977 395.986 293.57V264.033C395.986 263.597 396.184 263.387 396.593 263.387Z" fill="#0F1822"/>
<path d="M404.922 263.387H427.622C428.031 263.387 428.229 263.583 428.229 263.991V266.392C428.229 266.8 428.031 266.996 427.622 266.996H418.347V293.556C418.347 293.963 418.149 294.16 417.74 294.16H414.832C414.422 294.16 414.225 293.963 414.225 293.556V266.996H404.936C404.526 266.996 404.329 266.8 404.329 266.392V263.991C404.329 263.583 404.526 263.387 404.936 263.387H404.922Z" fill="#0F1822"/>
<path d="M453.132 263.383H456.041C456.45 263.383 456.648 263.58 456.648 263.987V278.833C456.648 282.147 456.464 284.746 456.111 286.628C455.758 288.51 455.123 290.055 454.191 291.249C453.259 292.443 452.06 293.257 450.577 293.707C449.095 294.156 447.062 294.381 444.464 294.381C440.695 294.381 437.886 293.763 435.994 292.513C435.02 291.867 434.258 290.912 433.75 289.662C432.79 287.246 432.324 283.636 432.324 278.833V263.987C432.324 263.58 432.521 263.383 432.931 263.383H435.839C436.248 263.383 436.446 263.58 436.446 263.987V278.833C436.446 282.063 436.672 284.535 437.138 286.235C437.604 287.892 438.394 289.058 439.509 289.732C440.625 290.406 442.276 290.743 444.45 290.743C447.669 290.743 449.801 289.957 450.874 288.383C451.961 286.81 452.511 283.622 452.511 278.819V263.973C452.511 263.566 452.709 263.369 453.118 263.369L453.132 263.383Z" fill="#0F1822"/>
<path d="M461.32 263.387H484.02C484.43 263.387 484.627 263.583 484.627 263.991V266.392C484.627 266.8 484.43 266.996 484.02 266.996H474.745V293.556C474.745 293.963 474.548 294.16 474.138 294.16H471.23C470.821 294.16 470.623 293.963 470.623 293.556V266.996H461.334C460.925 266.996 460.727 266.8 460.727 266.392V263.991C460.727 263.583 460.925 263.387 461.334 263.387H461.32Z" fill="#0F1822"/>
<path d="M489.441 263.386H508.584C508.993 263.386 509.191 263.582 509.191 263.989V266.391C509.191 266.798 508.993 266.995 508.584 266.995H492.97V277.445H507.2C507.61 277.445 507.807 277.641 507.807 278.049V280.408C507.807 280.816 507.61 281.012 507.2 281.012H492.97V290.535H508.584C508.993 290.535 509.191 290.731 509.191 291.139V293.54C509.191 293.948 508.993 294.144 508.584 294.144H489.441C489.032 294.144 488.834 293.948 488.834 293.54V263.961C488.834 263.554 489.032 263.357 489.441 263.357V263.386Z" fill="#0F1822"/>
</g>
<defs>
<clipPath id="clip0_1353_636">
<rect width="512" height="512" fill="white"/>
</clipPath>
</defs>
</svg>
