<svg width="295" height="45" viewBox="0 0 295 45" fill="none" xmlns="http://www.w3.org/2000/svg">
<g clip-path="url(#clip0_386_766)">
<path d="M14.5597 0C21.0586 0 25.5242 0.951665 27.9725 2.86313C30.3801 4.73393 31.5839 8.54059 31.5839 14.2668C31.5839 18.6998 30.8925 21.8883 29.5179 23.8404C28.1758 25.7926 25.8332 27.0127 22.4658 27.5088L32.1533 42.9876C32.381 43.2967 32.4298 43.557 32.2997 43.7929C32.1614 44.0206 31.8849 44.1345 31.47 44.1345H26.1423C25.1907 44.1345 24.4261 43.7115 23.8486 42.8737L14.3889 27.9725L7.39371 28.0294V43.2723C7.39371 43.6139 7.33677 43.8417 7.2229 43.9637C7.10902 44.0776 6.88127 44.1345 6.53152 44.1345H0.862193C0.520569 44.1345 0.29282 44.0776 0.170812 43.9637C0.0569372 43.8498 0 43.6221 0 43.2723V1.26075C0 0.951665 0.0569372 0.756452 0.170812 0.658845C0.284686 0.561239 0.512435 0.496167 0.862193 0.455498C5.21383 0.154544 9.78507 0 14.5597 0ZM13.8683 6.41764H7.39371V22.1242H13.8683C16.2759 22.1242 18.0247 22.0591 19.1146 21.9208C20.2046 21.7907 21.1725 21.4491 22.0103 20.9204C22.8481 20.3835 23.4175 19.6515 23.7022 18.7161C23.9869 17.7807 24.1333 16.3573 24.1333 14.4458C24.1333 11.0865 23.4663 8.90661 22.1242 7.91428C20.7821 6.92194 18.0328 6.42578 13.8683 6.42578V6.41764Z" fill="#0F1822"/>
<path d="M38.8641 0.285156H44.4847C45.054 0.285156 45.3469 0.569842 45.3469 1.14735V43.224C45.3469 43.834 45.0622 44.1431 44.4847 44.1431H38.8641C38.2948 44.1431 38.002 43.834 38.002 43.224V1.14735C38.002 0.577976 38.2866 0.285156 38.8641 0.285156Z" fill="#0F1822"/>
<path d="M51.3251 0.285156H57.1734C57.4011 0.285156 57.5638 0.342094 57.6614 0.455968C57.759 0.569842 57.8403 0.821993 57.9217 1.20429L67.2106 35.8791C67.5197 36.9527 67.7637 37.6197 67.9589 37.8881C68.146 38.1566 68.4713 38.2867 68.935 38.2867C69.5043 38.2867 69.911 38.1403 70.1388 37.8556C70.3665 37.5709 70.6187 36.9121 70.8871 35.8791L79.8669 1.20429C79.9401 0.821993 80.0296 0.569842 80.1272 0.455968C80.2248 0.342094 80.3875 0.285156 80.6152 0.285156H86.4635C87.0735 0.285156 87.3013 0.594244 87.1549 1.20429L77.6382 37.6604C76.9143 40.6781 76.0521 42.5733 75.0598 43.3378C74.1813 44.0618 72.1397 44.4278 68.9268 44.4278C65.9092 44.4278 63.957 44.0618 63.0786 43.3378C62.2001 42.6139 61.3216 40.7187 60.4432 37.6604L50.6337 1.20429C50.4792 0.594244 50.7069 0.285156 51.3251 0.285156Z" fill="#5B0D8A"/>
<path d="M127.011 43.2157L136.812 6.75959C137.69 3.70124 138.569 1.81418 139.447 1.08213C140.326 0.358213 142.278 -0.0078125 145.296 -0.0078125C148.509 -0.0078125 150.55 0.358213 151.429 1.08213C152.421 1.84671 153.283 3.73378 154.007 6.75959L163.524 43.2157C163.678 43.8257 163.451 44.1348 162.832 44.1348H156.984C156.756 44.1348 156.594 44.0779 156.496 43.964C156.398 43.8501 156.317 43.598 156.236 43.2157L147.24 8.54091C146.971 7.5079 146.727 6.84906 146.491 6.56437C146.264 6.27969 145.857 6.13328 145.288 6.13328C144.832 6.13328 144.507 6.26342 144.311 6.53184C144.116 6.80026 143.872 7.46723 143.563 8.54091L134.274 43.2157C134.201 43.598 134.112 43.8501 134.014 43.964C133.916 44.0779 133.754 44.1348 133.526 44.1348H127.678C127.068 44.1348 126.84 43.8257 126.986 43.2157H127.011Z" fill="#E5004B"/>
<path d="M93.3524 0.285156H121.097C121.707 0.285156 122.016 0.569842 122.016 1.14735V5.84874C122.016 6.41811 121.707 6.71093 121.097 6.71093H99.8921V19.5543H119.267C119.836 19.5543 120.129 19.839 120.129 20.4165V24.9471C120.129 25.5165 119.845 25.8093 119.267 25.8093H99.8921V37.7336H121.097C121.707 37.7336 122.016 38.0183 122.016 38.5958V43.2972C122.016 43.8666 121.707 44.1594 121.097 44.1594H93.3524C92.7831 44.1594 92.4902 43.8747 92.4902 43.2972V1.14735C92.4902 0.577976 92.7749 0.285156 93.3524 0.285156Z" fill="#0F1822"/>
<path d="M174.147 0.503906H175.985C176.123 0.503906 176.229 0.634049 176.294 0.878065L180.207 15.1286C180.361 15.6899 180.491 16.0478 180.581 16.186C180.67 16.3243 180.841 16.3975 181.077 16.3975C181.394 16.3975 181.606 16.3243 181.711 16.186C181.817 16.0478 181.947 15.6899 182.086 15.1286L185.835 0.878065C185.9 0.625915 185.998 0.503906 186.144 0.503906H187.983C188.235 0.503906 188.332 0.634049 188.292 0.878065L184.355 15.698C184.119 16.5927 183.908 17.2028 183.72 17.5363C183.533 17.886 183.257 18.1219 182.883 18.2521C182.508 18.3822 181.915 18.4554 181.077 18.4554C179.979 18.4554 179.271 18.309 178.954 18.008C178.62 17.6908 178.295 16.9262 177.962 15.698L173.838 0.878065C173.789 0.625915 173.895 0.503906 174.147 0.503906Z" fill="#0F1822"/>
<path d="M195.743 0.390625C196.955 0.390625 197.735 0.545169 198.101 0.862391C198.476 1.17961 198.834 1.93606 199.159 3.14801L203.185 17.968C203.218 18.1225 203.21 18.2283 203.177 18.2771C203.136 18.3259 203.047 18.3503 202.909 18.3503H201.07C200.981 18.3503 200.908 18.3259 200.867 18.2771C200.826 18.2283 200.794 18.1306 200.761 17.968L199.297 12.7623H192.204L190.716 17.968C190.683 18.1225 190.651 18.2283 190.61 18.2771C190.57 18.3259 190.504 18.3503 190.407 18.3503H188.569C188.43 18.3503 188.333 18.3259 188.3 18.2771C188.259 18.2283 188.259 18.1306 188.292 17.968L192.465 3.14801C192.823 1.9198 193.18 1.16334 193.522 0.862391C193.913 0.545169 194.653 0.390625 195.735 0.390625H195.743ZM195.743 2.46477C195.409 2.46477 195.198 2.52984 195.092 2.66811C194.986 2.79826 194.864 3.14801 194.726 3.71739L192.79 10.6881H198.752L196.914 3.71739C196.743 3.13988 196.597 2.79012 196.491 2.68438C196.377 2.54611 196.133 2.4729 195.735 2.4729L195.743 2.46477Z" fill="#0F1822"/>
<path d="M211.725 0.390625C212.872 0.390625 214.393 0.5045 216.297 0.740382C216.516 0.772918 216.622 0.870525 216.622 1.04947V2.13128C216.622 2.36716 216.516 2.48104 216.313 2.48104H211.009C208.952 2.48104 207.927 3.18055 207.927 4.57958V4.97814C207.927 5.60445 208.049 6.09248 208.301 6.44224C208.553 6.792 209.017 7.10109 209.692 7.38577L214.832 9.50872C215.825 9.91541 216.516 10.4441 216.931 11.0867C217.338 11.7293 217.541 12.5671 217.541 13.6082V14.3647C217.541 15.6986 217.134 16.6991 216.313 17.3579C215.955 17.6751 215.499 17.911 214.946 18.0656C213.954 18.334 212.75 18.4641 211.319 18.4641C209.415 18.4641 207.504 18.3503 205.568 18.1306C205.381 18.0818 205.283 17.9598 205.283 17.7565V16.6991C205.283 16.4795 205.397 16.3656 205.617 16.3656H212.075C213.141 16.3656 213.921 16.2029 214.409 15.8857C214.897 15.5603 215.141 15.0316 215.141 14.2996V13.8522C215.141 13.1934 215.011 12.6728 214.751 12.2986C214.491 11.9245 214.027 11.591 213.352 11.3063L207.764 9.04509C206.951 8.72786 206.373 8.24796 206.048 7.59725C205.714 6.94654 205.552 6.09248 205.552 5.04321V4.47384C205.552 3.13988 205.942 2.14755 206.731 1.50497C207.048 1.23655 207.504 1.0088 208.098 0.821721C209.009 0.537035 210.22 0.398759 211.725 0.398759V0.390625Z" fill="#0F1822"/>
<path d="M227.058 0.390625C228.928 0.390625 230.384 0.471964 231.442 0.626508C231.694 0.642776 231.816 0.772918 231.816 1.02507V2.13128C231.816 2.36716 231.702 2.48104 231.466 2.48104H227.058C225.065 2.48104 223.763 2.94467 223.17 3.87193C222.576 4.79919 222.275 6.65372 222.275 9.43551C222.275 12.2173 222.576 14.0474 223.17 14.9747C223.763 15.902 225.065 16.3656 227.058 16.3656H231.466C231.702 16.3656 231.816 16.4795 231.816 16.7153V17.8216C231.816 18.0574 231.694 18.1957 231.442 18.2445C230.417 18.3828 228.961 18.456 227.058 18.456C225.553 18.456 224.357 18.3177 223.479 18.033C222.6 17.7484 221.884 17.2522 221.331 16.5527C220.794 15.8613 220.42 14.9666 220.209 13.8766C219.997 12.7867 219.892 11.3063 219.892 9.43551C219.892 7.56472 219.997 6.08435 220.209 4.99441C220.42 3.90447 220.794 3.00974 221.331 2.31836C221.868 1.59444 222.576 1.09014 223.462 0.813587C224.349 0.528901 225.545 0.390625 227.058 0.390625Z" fill="#0F1822"/>
<path d="M246.408 0.503906H248.084C248.32 0.503906 248.434 0.617781 248.434 0.853664V9.45119C248.434 11.3708 248.328 12.8756 248.125 13.9655C247.921 15.0554 247.555 15.9502 247.018 16.6415C246.481 17.3329 245.79 17.8047 244.936 18.065C244.082 18.3253 242.911 18.4554 241.414 18.4554C239.242 18.4554 237.624 18.0975 236.534 17.3736C235.972 16.9994 235.533 16.4463 235.24 15.7224C234.687 14.3234 234.419 12.233 234.419 9.45119V0.861797C234.419 0.625915 234.533 0.51204 234.769 0.51204H236.444C236.68 0.51204 236.794 0.625915 236.794 0.861797V9.45932C236.794 11.3301 236.924 12.7617 237.193 13.7459C237.461 14.7057 237.917 15.3808 238.559 15.7712C239.202 16.1616 240.153 16.3569 241.406 16.3569C243.26 16.3569 244.489 15.9014 245.107 14.9904C245.733 14.0794 246.05 12.233 246.05 9.45119V0.861797C246.05 0.625915 246.164 0.51204 246.4 0.51204L246.408 0.503906Z" fill="#0F1822"/>
<path d="M252.249 0.503906H253.924C254.16 0.503906 254.274 0.617781 254.274 0.853664V16.2349H262.823C263.058 16.2349 263.172 16.3487 263.172 16.5846V17.9755C263.172 18.2114 263.058 18.3253 262.823 18.3253H252.24C252.004 18.3253 251.891 18.2114 251.891 17.9755V0.861797C251.891 0.625915 252.004 0.51204 252.24 0.51204L252.249 0.503906Z" fill="#0F1822"/>
<path d="M272.364 0.390625C273.576 0.390625 274.357 0.545169 274.723 0.862391C275.097 1.17961 275.455 1.93606 275.78 3.14801L279.806 17.968C279.839 18.1225 279.831 18.2283 279.798 18.2771C279.757 18.3259 279.668 18.3503 279.53 18.3503H277.691C277.602 18.3503 277.529 18.3259 277.488 18.2771C277.447 18.2283 277.415 18.1306 277.382 17.968L275.918 12.7623H268.826L267.337 17.968C267.304 18.1225 267.272 18.2283 267.231 18.2771C267.191 18.3259 267.126 18.3503 267.028 18.3503H265.19C265.051 18.3503 264.954 18.3259 264.921 18.2771C264.881 18.2283 264.881 18.1306 264.913 17.968L269.086 3.14801C269.444 1.9198 269.802 1.16334 270.143 0.862391C270.534 0.545169 271.274 0.390625 272.356 0.390625H272.364ZM272.364 2.46477C272.03 2.46477 271.819 2.52984 271.713 2.66811C271.607 2.80639 271.485 3.14801 271.347 3.71739L269.411 10.6881H275.373L273.535 3.71739C273.364 3.13988 273.218 2.79012 273.112 2.68438C272.998 2.54611 272.754 2.4729 272.356 2.4729L272.364 2.46477Z" fill="#0F1822"/>
<path d="M287.728 0.390625C289.209 0.390625 290.348 0.46383 291.153 0.618374C291.958 0.764784 292.649 1.04947 293.211 1.45616C293.796 1.86286 294.203 2.43223 294.439 3.16428C294.675 3.89633 294.789 4.88867 294.789 6.14129C294.789 8.01208 294.496 9.32977 293.918 10.1025C293.357 10.8752 292.357 11.3551 290.925 11.5422L294.911 17.8785C295.008 18.0086 295.025 18.1144 294.968 18.212C294.911 18.3096 294.797 18.3503 294.626 18.3503H293.121C292.731 18.3503 292.414 18.1794 292.178 17.8297L288.29 11.6805H284.735V17.9924C284.735 18.1306 284.711 18.2283 284.662 18.2771C284.613 18.3259 284.524 18.3503 284.377 18.3503H282.702C282.563 18.3503 282.466 18.3259 282.417 18.2771C282.368 18.2283 282.344 18.1388 282.344 17.9924V0.90306C282.344 0.764784 282.368 0.675311 282.417 0.634642C282.466 0.593972 282.555 0.569571 282.702 0.553303C284.149 0.439428 285.817 0.390625 287.72 0.390625H287.728ZM287.517 2.48917H284.735V9.65513H287.517C288.29 9.65513 288.786 9.65513 289.022 9.63073C290.055 9.59819 290.738 9.50872 291.071 9.34604C291.576 9.12643 291.925 8.7848 292.121 8.32117C292.316 7.85754 292.405 7.14989 292.389 6.19009C292.389 4.60398 292.072 3.58724 291.446 3.14801C290.852 2.70878 289.534 2.48917 287.509 2.48917H287.517Z" fill="#0F1822"/>
<path d="M175.538 26.2734H177.214C177.45 26.2734 177.564 26.4036 177.564 26.6476V43.7532C177.564 43.9891 177.45 44.1029 177.214 44.1029H175.538C175.302 44.1029 175.188 43.9891 175.188 43.7532V26.6476C175.188 26.3954 175.302 26.2734 175.538 26.2734Z" fill="#0F1822"/>
<path d="M193.441 26.2718H195.116C195.352 26.2718 195.466 26.4019 195.466 26.646V43.7515C195.466 43.9874 195.352 44.1013 195.116 44.1013H193.677C193.311 44.1013 193.042 43.963 192.855 43.6783L183.55 29.6555V43.7434C183.55 43.9793 183.436 44.0932 183.2 44.0932H181.525C181.289 44.0932 181.175 43.9793 181.175 43.7434V26.6378C181.175 26.3857 181.289 26.2637 181.525 26.2637H183.127C183.534 26.2799 183.81 26.3287 183.965 26.4019C184.111 26.4833 184.282 26.6622 184.469 26.9469L193.091 39.9286V26.6378C193.091 26.3857 193.205 26.2637 193.441 26.2637V26.2718Z" fill="#0F1822"/>
<path d="M204.657 26.1582C205.804 26.1582 207.325 26.2721 209.228 26.508C209.448 26.5405 209.553 26.6381 209.553 26.817V27.8989C209.553 28.1347 209.448 28.2486 209.244 28.2486H203.941C201.883 28.2486 200.858 28.9481 200.858 30.3472V30.7457C200.858 31.372 200.98 31.8601 201.233 32.2098C201.485 32.5596 201.948 32.8687 202.623 33.1533L207.764 35.2763C208.756 35.683 209.448 36.2117 209.863 36.8543C210.269 37.4969 210.473 38.3346 210.473 39.3758V40.1322C210.473 41.4662 210.066 42.4667 209.244 43.1255C208.887 43.4427 208.431 43.6786 207.878 43.8331C206.886 44.1016 205.682 44.2317 204.25 44.2317C202.347 44.2317 200.435 44.1178 198.5 43.8982C198.312 43.8494 198.215 43.7274 198.215 43.5241V42.4667C198.215 42.247 198.329 42.1332 198.548 42.1332H205.007C206.072 42.1332 206.853 41.9705 207.341 41.6533C207.829 41.3279 208.073 40.7992 208.073 40.0672V39.6198C208.073 38.9609 207.943 38.4404 207.683 38.0662C207.422 37.6921 206.959 37.3586 206.284 37.0739L200.696 34.8127C199.882 34.4954 199.305 34.0155 198.979 33.3648C198.646 32.7141 198.483 31.8601 198.483 30.8108V30.2414C198.483 28.9075 198.874 27.9151 199.663 27.2725C199.98 27.0041 200.435 26.7764 201.029 26.5893C201.94 26.3046 203.152 26.1663 204.657 26.1663V26.1582Z" fill="#0F1822"/>
<path d="M212.295 26.2734H225.374C225.61 26.2734 225.724 26.3873 225.724 26.6232V28.0141C225.724 28.25 225.61 28.3638 225.374 28.3638H220.03V43.745C220.03 43.9809 219.916 44.0948 219.68 44.0948H218.005C217.769 44.0948 217.655 43.9809 217.655 43.745V28.3638H212.303C212.067 28.3638 211.953 28.25 211.953 28.0141V26.6232C211.953 26.3873 212.067 26.2734 212.303 26.2734H212.295Z" fill="#0F1822"/>
<path d="M228.506 26.2734H230.182C230.417 26.2734 230.531 26.4036 230.531 26.6476V43.7532C230.531 43.9891 230.417 44.1029 230.182 44.1029H228.506C228.27 44.1029 228.156 43.9891 228.156 43.7532V26.6476C228.156 26.3954 228.27 26.2734 228.506 26.2734Z" fill="#0F1822"/>
<path d="M233.305 26.2734H246.384C246.62 26.2734 246.734 26.3873 246.734 26.6232V28.0141C246.734 28.25 246.62 28.3638 246.384 28.3638H241.04V43.745C241.04 43.9809 240.926 44.0948 240.69 44.0948H239.015C238.779 44.0948 238.665 43.9809 238.665 43.745V28.3638H233.313C233.077 28.3638 232.963 28.25 232.963 28.0141V26.6232C232.963 26.3873 233.077 26.2734 233.313 26.2734H233.305Z" fill="#0F1822"/>
<path d="M261.082 26.2718H262.758C262.994 26.2718 263.107 26.3857 263.107 26.6216V35.2191C263.107 37.1387 263.002 38.6435 262.798 39.7334C262.595 40.8233 262.229 41.7181 261.692 42.4094C261.155 43.1008 260.464 43.5726 259.61 43.8329C258.756 44.0932 257.585 44.2233 256.088 44.2233C253.916 44.2233 252.298 43.8654 251.208 43.1415C250.646 42.7673 250.207 42.2142 249.914 41.4903C249.361 40.0913 249.093 38.0009 249.093 35.2191V26.6216C249.093 26.3857 249.207 26.2718 249.443 26.2718H251.118C251.354 26.2718 251.468 26.3857 251.468 26.6216V35.2191C251.468 37.0899 251.598 38.5214 251.866 39.5056C252.135 40.4654 252.59 41.1406 253.233 41.531C253.875 41.9214 254.827 42.1166 256.08 42.1166C257.934 42.1166 259.163 41.6611 259.781 40.7501C260.407 39.8391 260.724 37.9927 260.724 35.211V26.6134C260.724 26.3775 260.838 26.2637 261.074 26.2637L261.082 26.2718Z" fill="#0F1822"/>
<path d="M265.8 26.2734H278.879C279.115 26.2734 279.229 26.3873 279.229 26.6232V28.0141C279.229 28.25 279.115 28.3638 278.879 28.3638H273.535V43.745C273.535 43.9809 273.421 44.0948 273.185 44.0948H271.51C271.274 44.0948 271.16 43.9809 271.16 43.745V28.3638H265.808C265.572 28.3638 265.458 28.25 265.458 28.0141V26.6232C265.458 26.3873 265.572 26.2734 265.808 26.2734H265.8Z" fill="#0F1822"/>
<path d="M282.002 26.2741H293.032C293.268 26.2741 293.381 26.388 293.381 26.6238V28.0147C293.381 28.2506 293.268 28.3645 293.032 28.3645H284.036V34.4161H292.235C292.47 34.4161 292.584 34.53 292.584 34.7659V36.1324C292.584 36.3682 292.47 36.4821 292.235 36.4821H284.036V41.9969H293.032C293.268 41.9969 293.381 42.1108 293.381 42.3467V43.7375C293.381 43.9734 293.268 44.0873 293.032 44.0873H282.002C281.766 44.0873 281.652 43.9734 281.652 43.7375V26.6076C281.652 26.3717 281.766 26.2578 282.002 26.2578V26.2741Z" fill="#0F1822"/>
</g>
<defs>
<clipPath id="clip0_386_766">
<rect width="295" height="44.4192" fill="white"/>
</clipPath>
</defs>
</svg>
