<svg width="553" height="2019" viewBox="0 0 553 2019" fill="none" xmlns="http://www.w3.org/2000/svg">
<path d="M275.5 -145C275.5 19.8306 455.989 87.8541 458.989 240.566C461.989 393.277 262.506 490.627 262.506 705.262C262.506 869.307 463.499 998.754 463.499 1152.66C463.499 1306.56 274.989 1386.5 274.989 1510.58C274.989 1640.62 274.989 2018.17 274.989 2018.17" stroke="white" stroke-width="6"/>
<path d="M275.5 -145C275.5 19.8306 455.989 87.8541 458.989 240.566C461.989 393.277 262.506 490.627 262.506 705.262C262.506 869.307 463.499 998.754 463.499 1152.66C463.499 1306.56 274.989 1386.5 274.989 1510.58C274.989 1640.62 274.989 2018.17 274.989 2018.17" stroke="url(#paint0_linear_386_936)" stroke-width="6"/>
<path d="M306.002 -145C306.002 -145 306.502 -24.8896 306.502 212.529C306.502 420.143 549.501 440.345 549.501 688.559C549.501 931.943 305.499 919.799 305.499 1441.97C305.499 1628.09 305.499 1700.5 305.499 1700.5" stroke="white" stroke-width="6"/>
<path d="M242.5 1848.5C242.5 1848.5 242.5 1626.9 242.5 1440.78C242.5 918.606 2.67458e-05 935.58 0 687.366C-2.67458e-05 439.152 242.999 418.95 242.999 211.336C242.999 102.676 242.886 -31.7237 243 -145" stroke="url(#paint1_linear_386_936)" stroke-width="6"/>
<path d="M210.999 1692.5C210.999 1692.5 210.999 1412.75 210.999 1146.69C210.999 945.109 422.499 836.498 422.499 701.683C422.499 566.867 217.005 453.557 213.005 281.726C209.678 138.833 209.757 -19.1126 210.5 -145" stroke="white" stroke-width="6"/>
<defs>
<linearGradient id="paint0_linear_386_936" x1="363.002" y1="-145" x2="363.002" y2="2018.17" gradientUnits="userSpaceOnUse">
<stop offset="0.93138" stop-color="white"/>
<stop offset="1" stop-color="#55097B"/>
</linearGradient>
<linearGradient id="paint1_linear_386_936" x1="121.5" y1="-145" x2="121.5" y2="1848.5" gradientUnits="userSpaceOnUse">
<stop offset="0.93138" stop-color="white"/>
<stop offset="1" stop-color="#55097B"/>
</linearGradient>
</defs>
</svg>
