<svg width="53" height="53" viewBox="0 0 53 53" fill="none" xmlns="http://www.w3.org/2000/svg">
<path d="M37.6641 0.75C38.2101 0.75 38.7585 0.85629 39.2812 1.08105H39.2803C41.5358 2.05008 42.4702 4.82413 41.5215 7.33105L41.4238 7.57227C40.5661 9.56537 38.7238 10.8123 36.8516 10.8125C36.3741 10.8125 35.895 10.7305 35.4326 10.5596L35.2354 10.4814C32.9076 9.48085 31.9867 6.55721 33.0918 3.99023L33.2637 3.62598C34.1798 1.84662 35.9087 0.750198 37.6641 0.75ZM37.6641 2.04688C36.3776 2.04709 35.093 2.90165 34.4111 4.23145L34.2822 4.50391C33.8674 5.4679 33.809 6.50396 34.1084 7.4209L34.166 7.58301C34.4704 8.38319 35.0289 8.9817 35.7471 9.29004L36.0127 9.38867C36.2819 9.47327 36.5632 9.51562 36.8516 9.51562C38.224 9.51542 39.5947 8.5435 40.2334 7.05957L40.3066 6.87793C40.6308 6.02668 40.682 5.12963 40.459 4.31445L40.4072 4.1416C40.1373 3.31544 39.6064 2.6854 38.9102 2.33887L38.7686 2.27246C38.4202 2.12265 38.0487 2.04688 37.6641 2.04688Z" fill="white" stroke="white" stroke-width="0.5"/>
<path d="M44.5752 7.125C45.1096 7.125 45.6267 7.27478 46.0615 7.5957L46.1826 7.69141C47.322 8.65213 47.3358 10.4999 46.3867 11.9922L46.1768 12.2959C45.3645 13.3757 44.1849 13.9999 43.0889 14C42.5543 14 42.0374 13.8502 41.6025 13.5293V13.5303C40.2596 12.5396 40.2942 10.415 41.4873 8.8291L41.6436 8.63184C42.4466 7.67353 43.5477 7.12509 44.5752 7.125ZM44.5752 8.42188C43.9252 8.42198 43.1859 8.80747 42.6318 9.47266L42.5234 9.60938C42.0388 10.2538 41.8204 11.0164 41.9111 11.6387L41.957 11.8555C42.021 12.0797 42.1438 12.3172 42.373 12.4863L42.4463 12.5361C42.6235 12.645 42.8369 12.7031 43.0889 12.7031C43.7821 12.7031 44.5775 12.2642 45.1406 11.5156L45.3096 11.2695C45.6229 10.7668 45.7831 10.2156 45.7725 9.72559L45.7529 9.48633C45.7177 9.24527 45.625 8.94978 45.3975 8.72852L45.291 8.63867C45.1004 8.49807 44.8632 8.42188 44.5752 8.42188Z" fill="white" stroke="white" stroke-width="0.5"/>
<path d="M47.7783 13.1016C48.5126 13.1016 49.1833 13.4478 49.5625 14.127L49.623 14.2441C49.907 14.8337 49.923 15.535 49.7354 16.1992C49.5598 16.8205 49.2028 17.4249 48.6953 17.9014L48.4678 18.0977C47.899 18.5504 47.2598 18.7812 46.6582 18.7812C45.97 18.7811 45.3379 18.4768 44.9492 17.8799L44.875 17.7559C44.1961 16.5356 44.7289 14.7728 45.9697 13.7852L46.1855 13.626C46.697 13.2783 47.252 13.1016 47.7783 13.1016ZM47.7783 14.3984C47.5095 14.3985 47.2022 14.501 46.9043 14.7061L46.7773 14.7998C46.385 15.1122 46.102 15.5449 45.9648 15.9805C45.8267 16.4193 45.8446 16.8314 46.0078 17.125L46.0732 17.2246C46.2365 17.4337 46.4632 17.4843 46.6582 17.4844C46.9654 17.4844 47.3235 17.3505 47.6602 17.083L47.8027 16.96C48.1217 16.6619 48.3537 16.2831 48.4736 15.9023C48.5944 15.5187 48.5953 15.1558 48.4844 14.875L48.4297 14.7598C48.265 14.4648 48.0008 14.3984 47.7783 14.3984Z" fill="white" stroke="white" stroke-width="0.5"/>
<path d="M50.2207 18.2812C50.8508 18.2812 51.4476 18.5036 51.8398 18.9785L51.9121 19.0723C52.256 19.5502 52.324 20.1512 52.1758 20.7334C52.0376 21.2758 51.711 21.812 51.2285 22.251L51.0117 22.4336C50.3918 22.9157 49.6671 23.1641 48.998 23.1641C48.4466 23.1641 47.921 22.9936 47.5352 22.6328L47.3789 22.4668C46.9732 21.9751 46.885 21.3327 47.043 20.7119C47.2009 20.0919 47.6052 19.4797 48.207 19.0117L48.4443 18.8418C49.0074 18.4714 49.6352 18.2813 50.2207 18.2812ZM50.2207 19.5781C49.8791 19.5782 49.4942 19.7022 49.1484 19.9316L49.0029 20.0361C48.6282 20.3273 48.3809 20.6978 48.2969 21.04L48.2715 21.1855C48.2548 21.3362 48.2711 21.5107 48.3789 21.6416L48.4404 21.7031C48.5969 21.834 48.8283 21.8672 48.998 21.8672C49.3882 21.8672 49.8356 21.7059 50.2158 21.4102L50.3682 21.2803C50.7059 20.9682 50.9107 20.592 50.9473 20.2598L50.9531 20.1436C50.951 20.0447 50.9296 19.9433 50.876 19.8555L50.8398 19.8047C50.6886 19.6216 50.4144 19.5781 50.2207 19.5781Z" fill="white" stroke="white" stroke-width="0.5"/>
<path d="M50.7148 23.4609C51.1969 23.4609 51.6534 23.6453 51.9492 24.0391L52.0527 24.1992C52.2685 24.5846 52.2972 25.0498 52.1865 25.4971C52.0755 25.9456 51.8221 26.3922 51.4502 26.7607L51.2842 26.9131C50.7984 27.3274 50.2274 27.5469 49.6982 27.5469C49.2763 27.5468 48.875 27.4056 48.583 27.1064L48.4648 26.9688C48.1563 26.557 48.101 26.0221 48.2275 25.5107C48.3544 24.9983 48.6668 24.4879 49.1299 24.0928H49.1309L49.3164 23.9473C49.7577 23.6287 50.2521 23.461 50.7148 23.4609ZM50.7148 24.7578C50.4993 24.758 50.225 24.8652 49.9717 25.0811L49.9707 25.0801C49.7271 25.2879 49.5729 25.5383 49.5029 25.7588C49.4288 25.9927 49.4639 26.1381 49.5029 26.1904L49.5264 26.2129C49.537 26.2199 49.5506 26.2266 49.5684 26.2324C49.6056 26.2447 49.6515 26.25 49.6982 26.25C49.9133 26.25 50.1886 26.143 50.4424 25.9268H50.4434L50.5303 25.8467C50.7242 25.6568 50.85 25.4416 50.9111 25.249C50.9667 25.0738 50.9613 24.9479 50.9385 24.874L50.9111 24.8174C50.9 24.8025 50.8812 24.7872 50.8457 24.7754C50.8084 24.7631 50.7617 24.7578 50.7148 24.7578Z" fill="white" stroke="white" stroke-width="0.5"/>
<path d="M40.3193 22.7207C40.6475 22.5745 41.029 22.724 41.1738 23.0498H41.1748L41.293 23.3555C41.4945 23.9155 41.8802 25.1835 41.877 26.6689C41.8726 28.6009 41.2073 30.914 38.6299 32.4922L38.374 32.6426C38.2738 32.6991 38.1635 32.7266 38.0547 32.7266C37.8576 32.7264 37.6651 32.6364 37.54 32.4727L37.4902 32.3975C37.3362 32.125 37.4006 31.7879 37.6279 31.5898L37.7354 31.5137C40.0134 30.2239 40.5982 28.3121 40.6064 26.6787C40.6127 25.4428 40.2874 24.3718 40.1055 23.8711L39.9883 23.5752C39.8441 23.2481 39.9922 22.8648 40.3193 22.7197V22.7207Z" fill="white" stroke="white" stroke-width="0.5"/>
<path d="M34.2673 11.1191C35.7464 11.2095 37.5092 11.9392 39.6169 13.542L40.074 13.8984L40.0798 13.9043L39.9167 14.0938L40.0808 13.9043L40.0828 13.9062C40.0843 13.9076 40.0868 13.9097 40.0896 13.9121C40.0952 13.917 40.1036 13.9244 40.114 13.9336C40.1352 13.9523 40.1662 13.9796 40.2058 14.0156C40.2858 14.0882 40.402 14.1956 40.5466 14.335C40.8358 14.6136 41.2405 15.022 41.7058 15.541C42.6357 16.5785 43.8107 18.0638 44.7839 19.8535C46.6698 23.3217 47.8137 27.9672 44.9011 32.6846L44.6072 33.1406C43.6529 34.5581 42.4153 35.6758 41.1248 36.708C39.9866 37.6183 38.8237 38.451 37.74 39.3789L37.28 39.7832C36.3787 40.5992 35.5751 41.6719 34.7781 42.8389C33.9873 43.9967 33.1959 45.258 32.3416 46.4043C30.6825 48.6301 28.7089 50.531 25.7693 50.6504L25.4822 50.6562H25.4763C25.24 50.6562 25.0004 50.6432 24.7615 50.6221L24.2458 50.5762L24.6023 50.2012L24.9275 49.8389C25.0323 49.7151 25.1334 49.588 25.2312 49.458L25.3064 49.3584H25.4314C25.4445 49.3584 25.4569 49.3591 25.4636 49.3594C25.4718 49.3597 25.4745 49.3594 25.4763 49.3594L25.7888 49.3506C27.3338 49.2669 28.5676 48.5759 29.6658 47.5303C30.8452 46.4072 31.8534 44.8905 32.9099 43.2979L33.7146 42.0967C34.5351 40.8969 35.4111 39.7264 36.4099 38.8223L36.7292 38.5381C37.4814 37.8827 38.2734 37.2758 39.0349 36.6914L39.6814 36.1924C41.1736 35.0356 42.5302 33.9038 43.531 32.417L43.7507 32.0791C45.8763 28.6924 45.9298 24.9519 43.8767 20.915L43.6648 20.5107C41.9143 17.2733 39.4062 15.0386 39.241 14.8936V14.8926C37.1439 13.2166 35.3691 12.4064 33.9548 12.4062C32.7955 12.4062 31.8949 12.985 31.1853 13.8945C30.4713 14.8097 29.9633 16.0456 29.6052 17.3096C28.8896 19.8356 28.794 22.3936 28.7908 22.4922C28.7685 23.6823 28.5401 24.8873 28.0974 26.1572L27.8943 26.7061C27.2231 28.4246 26.2848 30.1422 25.0046 32.0078L24.6257 32.5605L24.5505 31.8955C24.5009 31.4596 24.4621 31.0323 24.4373 30.6152L24.4324 30.5342L24.4773 30.4648C25.3448 29.1189 26.1094 27.7109 26.6863 26.2344L26.8572 25.7744C27.2361 24.6989 27.4737 23.5981 27.4939 22.459V22.4561L27.4949 22.4551C27.4949 22.4536 27.4948 22.451 27.4949 22.4482C27.495 22.4425 27.4955 22.4337 27.4958 22.4229C27.4966 22.4011 27.497 22.3693 27.4988 22.3281C27.5025 22.2452 27.5094 22.1243 27.5193 21.9707C27.5391 21.6635 27.5739 21.2255 27.6345 20.7002C27.7556 19.6508 27.9795 18.2479 28.3914 16.8418C28.8023 15.4387 29.4055 14.0138 30.2957 12.9355C31.1912 11.8508 32.3845 11.1096 33.9539 11.1094L34.2673 11.1191Z" fill="white" stroke="white" stroke-width="0.5"/>
<path d="M20.7238 11.9062C23.0695 11.9062 24.5409 12.7446 25.3888 14.043C26.2243 15.3224 26.4251 17.0052 26.3419 18.6445C26.2584 20.2896 25.8864 21.9289 25.5372 23.1523C25.3624 23.7651 25.1927 24.2767 25.0665 24.6348C25.0035 24.8136 24.9508 24.9543 24.9142 25.0508C24.8959 25.0991 24.8811 25.1368 24.8712 25.1621C24.8664 25.1743 24.8631 25.1839 24.8605 25.1904C24.8592 25.1936 24.8582 25.1965 24.8575 25.1982L24.8566 25.2002V25.2012L24.6241 25.1074L24.8556 25.2012V25.2031C24.426 26.243 24.2108 27.3325 24.1349 28.4551L24.1105 28.9375C24.0267 31.4342 24.4494 33.958 25.0548 36.3975L25.1769 36.8701C25.3037 37.3425 25.4435 37.8149 25.5861 38.29C25.7758 38.9222 25.9721 39.5613 26.1466 40.2031C26.4521 41.3268 26.6969 42.4745 26.7423 43.6572L26.7491 44.166C26.7142 47.03 25.2343 49.9206 22.6456 51.3838L22.3917 51.5215C21.4096 52.0275 20.2621 52.25 19.1163 52.25C18.044 52.25 16.963 52.0546 16.005 51.7051L15.6017 51.5459C12.7621 50.3329 11.6522 47.7648 10.9865 45.0127C10.6544 43.64 10.4254 42.1871 10.1564 40.8291C9.91909 39.6315 9.64911 38.4975 9.24719 37.502L9.06653 37.083C8.38852 35.6174 7.53529 34.2464 6.75208 32.7949C6.02376 31.4452 5.36767 30.0459 5.02747 28.5098L4.96399 28.2012C3.87459 22.5009 6.83906 18.5692 10.0323 16.085C11.629 14.8429 13.2911 13.955 14.5519 13.3779C15.1826 13.0892 15.7142 12.8778 16.089 12.7383C16.2763 12.6685 16.4246 12.6166 16.5265 12.582C16.5773 12.5648 16.6168 12.5517 16.6437 12.543C16.6571 12.5386 16.6679 12.5354 16.6749 12.5332C16.6784 12.5321 16.6809 12.5309 16.6827 12.5303H16.6847L16.6857 12.5293L16.6945 12.5273L17.2716 12.3779C18.5932 12.0545 19.736 11.9063 20.7238 11.9062ZM20.7238 13.2031C19.6874 13.2032 18.4526 13.3935 17.0509 13.7744L17.0499 13.7734C16.7806 13.8608 14.0194 14.7866 11.339 16.7256L10.796 17.1338C6.95223 20.1385 5.43772 23.7733 6.23743 27.958L6.31555 28.3271C6.74001 30.1598 7.66995 31.8058 8.67493 33.5811L9.07922 34.2979C9.48455 35.0227 9.88783 35.7709 10.2433 36.5391L10.379 36.8457C11.0355 38.3987 11.3706 40.2293 11.6906 41.9678L11.9493 43.3389C12.2151 44.6871 12.5188 45.9571 12.9972 47.0645C13.6306 48.5306 14.5631 49.692 16.1115 50.3535L16.4572 50.4902C17.281 50.7894 18.2125 50.9531 19.1163 50.9531C20.136 50.9531 21.0623 50.7473 21.798 50.3682L22.0001 50.2588C24.0662 49.0933 25.4209 46.7255 25.4523 44.1504L25.4503 43.8271C25.4214 42.6438 25.1609 41.484 24.8224 40.2803L24.4298 38.9463C24.2664 38.4033 24.097 37.8425 23.9435 37.2764L23.796 36.71C23.7055 36.3453 23.6224 35.9881 23.545 35.6387C23.2051 37.0659 22.6515 38.5002 21.7394 39.5146L21.4962 39.7666C21.3704 39.8881 21.2074 39.9482 21.046 39.9482C20.9191 39.9482 20.792 39.9109 20.6827 39.8369L20.5792 39.75C20.3315 39.4922 20.3383 39.0816 20.5968 38.833L20.8077 38.6113C21.2843 38.067 21.653 37.3381 21.9357 36.5195C22.2579 35.5866 22.4623 34.5554 22.5909 33.5898C22.7194 32.6254 22.7715 31.732 22.7931 31.0762C22.8039 30.7486 22.8068 30.4807 22.8077 30.293C22.8082 30.1988 22.8086 30.1259 22.8087 30.0732C22.8088 30.0476 22.8084 30.0249 22.8087 30.0088C22.8089 30.0011 22.8093 29.9925 22.8097 29.9844C22.8098 29.9825 22.8095 29.9797 22.8097 29.9766C22.8031 29.6133 22.8028 29.2515 22.8146 28.8945L22.8448 28.3164C22.9393 26.9888 23.2045 25.8037 23.6544 24.7129C23.6947 24.6113 24.3708 22.8814 24.7745 20.7832C24.9782 19.7248 25.1102 18.5809 25.0607 17.5098C25.0141 16.5033 24.8082 15.5792 24.3654 14.8506L24.2736 14.708C23.6014 13.7137 22.4671 13.2031 20.7238 13.2031Z" fill="white" stroke="white" stroke-width="0.5"/>
<path d="M22.1172 0.75C24.705 0.750123 26.75 3.12292 26.75 5.98047C26.75 8.83802 24.705 11.2108 22.1172 11.2109C19.5294 11.2109 17.4844 8.83807 17.4844 5.98047C17.4844 3.12287 19.5294 0.75 22.1172 0.75ZM22.1172 2.04688C20.3128 2.04688 18.7812 3.77403 18.7812 5.98047C18.7812 8.18691 20.3128 9.91406 22.1172 9.91406C23.9217 9.91393 25.4531 8.18679 25.4531 5.98047C25.4531 3.77414 23.9217 2.047 22.1172 2.04688Z" fill="white" stroke="white" stroke-width="0.5"/>
<path d="M14.0049 3.54297C15.4125 3.62201 16.6722 4.91689 17.0645 6.64941L17.1357 7.03125C17.266 7.91983 17.1476 8.78289 16.8301 9.49316C16.49 10.2538 15.9136 10.8527 15.1602 11.0957L15.0068 11.1396C14.8147 11.1879 14.6207 11.2109 14.4287 11.2109C13.058 11.2108 11.8043 10.0487 11.3193 8.42969L11.2324 8.10059C11.0013 7.07979 11.104 6.06848 11.4668 5.25684C11.8296 4.44546 12.4613 3.81826 13.29 3.61035L13.4346 3.5791C13.5791 3.55224 13.7241 3.53906 13.8682 3.53906L14.0049 3.54297ZM13.8682 4.83594C13.7797 4.83595 13.691 4.84578 13.6055 4.86719L13.6064 4.86816C13.1898 4.97269 12.8319 5.33195 12.6152 5.87598C12.3999 6.41672 12.3389 7.11042 12.498 7.81348L12.5566 8.04004C12.7097 8.55824 12.9692 9.00685 13.2803 9.33496C13.6375 9.71164 14.0454 9.91396 14.4287 9.91406C14.5171 9.91406 14.6059 9.90326 14.6914 9.88184L14.8447 9.83008C15.195 9.68394 15.4922 9.3498 15.6816 8.87402C15.8701 8.40064 15.9407 7.80971 15.8486 7.19824L15.7998 6.93555C15.6608 6.32179 15.372 5.79001 15.0166 5.41504C14.6593 5.03811 14.2514 4.83594 13.8682 4.83594Z" fill="white" stroke="white" stroke-width="0.5"/>
<path d="M8.72852 7.92188C9.98762 7.92198 11.1473 8.95713 11.502 10.3789L11.5635 10.6797C11.7973 12.1318 11.1087 13.5393 9.84082 13.9102L9.70801 13.9443C9.54238 13.9821 9.37519 14 9.20996 14C8.02921 13.9998 6.93602 13.0894 6.51172 11.8037L6.43555 11.542C6.03561 9.93947 6.78684 8.30642 8.22949 7.97852V7.97754C8.39505 7.93991 8.56274 7.92188 8.72852 7.92188ZM8.62207 9.22461L8.51758 9.24219C8.275 9.29728 8.10029 9.43826 7.97754 9.58691L7.87109 9.73535C7.62871 10.1295 7.55562 10.6727 7.69434 11.2285L7.74023 11.3896C7.99815 12.1791 8.63487 12.7029 9.20996 12.7031C9.2801 12.7031 9.35105 12.695 9.41992 12.6797L9.53613 12.6455C9.79295 12.5503 9.96173 12.356 10.0664 12.1855L10.1494 12.0312C10.2989 11.7093 10.35 11.3132 10.2852 10.9004L10.2432 10.6934C10.0241 9.81484 9.34127 9.21875 8.72852 9.21875C8.69291 9.21876 8.65732 9.22063 8.62207 9.22461Z" fill="white" stroke="white" stroke-width="0.5"/>
<path d="M5.01355 12.3047C5.8931 12.3047 6.77652 12.9269 7.26453 13.8984V13.8994L7.37683 14.1465C7.6137 14.7279 7.67828 15.3387 7.58191 15.8838C7.48561 16.4284 7.22528 16.9209 6.80164 17.2383L6.60925 17.3633C6.34036 17.5143 6.04802 17.5859 5.75183 17.5859C4.92729 17.5859 4.09971 17.0394 3.59753 16.1699L3.50085 15.9912C3.17337 15.3388 3.07336 14.6299 3.18347 14.0068C3.29352 13.3843 3.61843 12.8301 4.15613 12.5273L4.36218 12.4287C4.57162 12.3449 4.7916 12.3047 5.01355 12.3047ZM5.01355 13.6016C4.93009 13.6016 4.85715 13.6209 4.79285 13.6572L4.79187 13.6582C4.62387 13.7531 4.48796 13.9781 4.45007 14.3164C4.41299 14.6482 4.47759 15.0457 4.66003 15.4092L4.78796 15.6318C5.10066 16.1074 5.50493 16.2891 5.75183 16.2891C5.83534 16.289 5.90882 16.2699 5.97351 16.2334L6.03503 16.1914C6.17409 16.0801 6.28214 15.8698 6.31531 15.5732C6.34774 15.2827 6.30188 14.9424 6.16785 14.6182L6.10535 14.4805C5.78322 13.8391 5.29579 13.6016 5.01355 13.6016Z" fill="white" stroke="white" stroke-width="0.5"/>
<path d="M2.29785 16.6875C2.98501 16.6875 3.66171 17.1602 4.06836 17.8926L4.14551 18.042L4.23633 18.251C4.42816 18.7417 4.48055 19.2572 4.40234 19.7178C4.32438 20.1768 4.11296 20.5977 3.7627 20.8711L3.60352 20.9795C3.38024 21.1101 3.13636 21.1718 2.88965 21.1719C2.15677 21.1719 1.43601 20.6341 1.04199 19.8154V19.8164C0.776749 19.2667 0.695922 18.6688 0.785156 18.1426C0.874198 17.6179 1.13791 17.1427 1.58398 16.8809L1.75488 16.7949C1.92932 16.7221 2.11284 16.6875 2.29785 16.6875ZM2.2666 17.9883L2.24023 17.999C2.17585 18.0368 2.08165 18.1682 2.05371 18.4209C2.02735 18.6598 2.06837 18.9594 2.20996 19.2529L2.2998 19.416C2.51665 19.7625 2.77819 19.875 2.88965 19.875C2.91507 19.875 2.93132 19.8698 2.94727 19.8604H2.94824L3 19.8145C3.05464 19.7501 3.11284 19.6288 3.13379 19.4385C3.15686 19.2288 3.12784 18.9728 3.02539 18.7148L2.97754 18.6045C2.74898 18.1314 2.42525 17.9844 2.29785 17.9844C2.28589 17.9844 2.27584 17.9858 2.2666 17.9883Z" fill="white" stroke="white" stroke-width="0.5"/>
<path d="M19.3281 40.1953C19.6862 40.1953 19.9766 40.4856 19.9766 40.8438C19.9766 41.2019 19.6862 41.4922 19.3281 41.4922C18.97 41.4922 18.6797 41.2019 18.6797 40.8438C18.6797 40.4856 18.97 40.1953 19.3281 40.1953Z" fill="white" stroke="white" stroke-width="0.5"/>
<path d="M11.8386 20.3564C12.1014 20.2086 12.4398 20.2606 12.6453 20.4971L12.7214 20.6035C12.8485 20.8285 12.8285 21.1101 12.6716 21.3154L12.5818 21.4111C12.5006 21.4819 11.4412 22.426 10.8328 23.8672C10.5298 24.5847 10.3412 25.4192 10.4353 26.3281C10.5293 27.2351 10.9065 28.233 11.7595 29.2773L11.8328 29.3867C11.9729 29.6538 11.9103 29.9912 11.6677 30.1895V30.1904C11.5478 30.288 11.4021 30.3359 11.2576 30.3359C11.0941 30.3359 10.9307 30.274 10.8064 30.1533L10.7556 30.0977C9.72254 28.833 9.25479 27.5925 9.14624 26.4385C9.03793 25.2868 9.28824 24.237 9.66675 23.3535C10.4209 21.5934 11.695 20.4642 11.7312 20.4326V20.4316L11.8386 20.3564Z" fill="white" stroke="white" stroke-width="0.5"/>
<path d="M2.93066 36.2158C3.29407 36.1739 3.60442 36.4517 3.6377 36.7988L3.83594 38.8906L5.74512 37.9502L5.81836 37.9199C5.99148 37.8592 6.18454 37.8735 6.34863 37.9658H6.34766C6.53361 38.0695 6.65733 38.2576 6.67773 38.4697L6.87695 40.5635L8.78906 39.623H8.79004L8.8623 39.5918C9.03549 39.5316 9.22911 39.5466 9.39258 39.6387H9.3916C9.57799 39.7424 9.70016 39.9312 9.7207 40.1426L10.0127 43.1738L10.0117 43.3047C9.97977 43.6045 9.74145 43.8508 9.42969 43.8809H9.42773C9.41058 43.8824 9.38971 43.8838 9.36719 43.8838C9.0781 43.8838 8.8253 43.692 8.74512 43.4189L8.72168 43.2979L8.51953 41.2002L6.6084 42.1426H6.60742C6.41765 42.2356 6.19341 42.2313 6.00586 42.126V42.127C5.84285 42.0361 5.7281 41.88 5.68848 41.7002L5.67578 41.6221L5.47559 39.5283L3.56738 40.4697L3.56836 40.4707C3.3771 40.5657 3.15112 40.5598 2.96484 40.4551V40.4561C2.8017 40.3651 2.68714 40.2089 2.64746 40.0293L2.63477 39.9512L2.34668 36.9219C2.31304 36.5682 2.57032 36.2545 2.92285 36.2168V36.2158H2.92578C2.92742 36.2157 2.92902 36.215 2.93066 36.2148V36.2158Z" fill="white" stroke="white" stroke-width="0.5"/>
<path d="M7.21863 44.2793C7.39128 44.1707 7.60361 44.1502 7.79187 44.2207V44.2217L9.19714 44.752H9.19812L9.31531 44.8105C9.53364 44.9484 9.65008 45.2048 9.60925 45.46L9.57507 45.5869C9.4487 45.9224 9.0734 46.0918 8.73914 45.9648V45.9639L8.13367 45.7363L7.93542 47.9648V47.9658C7.91841 48.1546 7.82003 48.3253 7.66785 48.4346L7.59949 48.4775C7.40816 48.5816 7.17843 48.5821 6.98718 48.4814L6.98621 48.4805L5.24109 47.5566L5.05164 49.667C5.03468 49.8565 4.93595 50.0267 4.78406 50.1357L4.7157 50.1787C4.61866 50.2315 4.51206 50.2578 4.40613 50.2578C4.32752 50.2578 4.24955 50.243 4.17566 50.2148L4.10339 50.1826L1.49402 48.8037C1.17737 48.6365 1.05644 48.2443 1.22351 47.9277L1.29578 47.8184C1.48727 47.5848 1.82297 47.5103 2.10046 47.6572H2.09949L3.84656 48.5801L4.03699 46.4697C4.05651 46.2533 4.18259 46.0616 4.37292 45.958L4.44617 45.9238C4.62107 45.8554 4.81766 45.8668 4.98523 45.9551H4.98621L6.73035 46.877L6.91687 44.7705L6.92859 44.6953C6.96436 44.524 7.0681 44.3726 7.21863 44.2783V44.2793Z" fill="white" stroke="white" stroke-width="0.5"/>
<path d="M39.4941 38.7305C39.6463 38.6169 39.8427 38.5747 40.0322 38.6211L40.0332 38.6201C40.2484 38.672 40.4233 38.8301 40.4951 39.04L41.2139 41.1396L42.7031 39.7051V39.7041L42.7656 39.6514C42.9172 39.5382 43.114 39.494 43.3047 39.541H43.3057C43.5214 39.593 43.695 39.7523 43.7666 39.9619L44.4834 42.0596L45.9717 40.625L46.0742 40.543C46.2924 40.4041 46.5749 40.4097 46.7881 40.5557L46.8887 40.6406L46.9697 40.7441C47.1083 40.9625 47.1035 41.2448 46.957 41.458L46.8721 41.5576L44.6504 43.7012C44.5282 43.8189 44.3661 43.8828 44.2002 43.8828C44.1511 43.8828 44.0997 43.8771 44.0479 43.8643V43.8652C43.859 43.8197 43.7025 43.6923 43.6182 43.5205L43.5869 43.4443L42.8691 41.3457L41.3818 42.7812H41.3809C41.2232 42.9325 40.9978 42.9977 40.7793 42.9434V42.9443C40.5906 42.8989 40.434 42.7719 40.3496 42.6006L40.3184 42.5244L39.5977 40.4229L38.1055 41.8584L38.1064 41.8594C37.8805 42.0775 37.5375 42.098 37.2891 41.9268L37.1895 41.8418C36.9407 41.5837 36.9485 41.1732 37.2061 40.9248H37.207L39.4316 38.7832L39.4941 38.7305Z" fill="white" stroke="white" stroke-width="0.5"/>
<path d="M36.3291 42.5957L36.4541 42.6318L36.4561 42.6328L37.917 43.2227H37.918L37.9863 43.2549C38.1421 43.3404 38.2575 43.487 38.3027 43.6611L38.3174 43.7363C38.3413 43.9121 38.2918 44.0917 38.1787 44.2314L38.1777 44.2305L36.7959 45.9434L38.8271 46.4854H38.8281L38.9053 46.5117C39.0801 46.5832 39.2175 46.7275 39.2773 46.9102L39.2969 46.9893C39.3276 47.1484 39.2981 47.314 39.2129 47.4521L39.165 47.5186L37.7803 49.2363L39.8154 49.7793L39.9385 49.8252C40.2086 49.9595 40.3556 50.2698 40.2754 50.5723V50.5732C40.1977 50.8635 39.9348 51.0537 39.6484 51.0537C39.5938 51.0537 39.5372 51.0476 39.4805 51.0322V51.0312L36.4834 50.2324V50.2314C36.2984 50.182 36.1454 50.0548 36.0645 49.8838L36.0342 49.8076C35.9662 49.5994 36.0083 49.3701 36.1465 49.1992L37.5293 47.4814L35.4971 46.9404C35.3119 46.8907 35.1591 46.762 35.0781 46.5908L35.0479 46.5156V46.5146C34.9799 46.3059 35.0213 46.077 35.1592 45.9062L36.6201 44.0967L35.9707 43.835C35.6388 43.7008 35.4783 43.3232 35.6123 42.9912L35.6729 42.875C35.8161 42.6592 36.076 42.5503 36.3291 42.5957Z" fill="white" stroke="white" stroke-width="0.5"/>
<path d="M18.4354 14.748C20.5184 13.7841 22.6506 14.4739 23.4667 15.7998L23.5233 15.918C23.612 16.1608 23.547 16.4354 23.3583 16.6123L23.2538 16.6924C23.1484 16.7573 23.0307 16.788 22.9149 16.7881C22.7252 16.7881 22.5379 16.7049 22.412 16.5508L22.3622 16.4795C21.9409 15.7947 20.4717 15.1517 18.828 15.998L18.829 15.999C18.5494 16.144 18.215 16.0647 18.0262 15.8301L17.955 15.7197C17.791 15.4012 17.9162 15.0106 18.2343 14.8467L18.4354 14.748Z" fill="white" stroke="white" stroke-width="0.5"/>
<path d="M34.6025 13.9277L34.8027 13.9609C35.8001 14.1575 36.7096 14.8027 37.3896 15.7676L37.4541 15.8818C37.5748 16.1581 37.4889 16.4904 37.2334 16.6709H37.2324C37.1195 16.7501 36.9887 16.7891 36.8594 16.7891C36.6818 16.789 36.5057 16.7164 36.3799 16.5781L36.3291 16.5146C35.7931 15.7538 35.1131 15.3059 34.4277 15.2129V15.2119C34.0264 15.1585 33.6609 15.2354 33.3945 15.4043L33.2871 15.4824C33.0099 15.711 32.6008 15.6689 32.374 15.3936V15.3926C32.1471 15.116 32.1864 14.7078 32.4629 14.4805L32.5723 14.3965C33.1277 13.9917 33.8604 13.8256 34.6025 13.9277Z" fill="white" stroke="white" stroke-width="0.5"/>
</svg>
