<svg width="45" height="74" viewBox="0 0 45 74" fill="none" xmlns="http://www.w3.org/2000/svg">
<path d="M5.45593 51.0541C5.57311 51.0541 5.67549 51.0541 5.75936 51.0541C6.1442 51.0319 12.6075 50.6655 18.554 50.1216L17.8633 72.737C17.8581 72.9021 17.8863 73.0667 17.9459 73.2207C18.0056 73.3748 18.0957 73.5154 18.2107 73.634C18.3258 73.7526 18.4635 73.8469 18.6157 73.9113C18.7679 73.9756 18.9315 74.0088 19.0967 74.0087H43.7658C44.093 74.0087 44.4067 73.8787 44.638 73.6474C44.8693 73.4161 44.9993 73.1023 44.9993 72.7752V41.1186C45.0279 38.2956 44.1986 35.5304 42.6212 33.1891C41.0437 30.8477 38.7924 29.0406 36.1653 28.0069C38.4599 25.6748 39.8308 22.5895 40.0235 19.3234C40.5115 19.344 40.9985 19.266 41.4556 19.0941C41.9128 18.9222 42.3306 18.66 42.6841 18.3231C43.8682 17.1414 44.0064 15.179 43.0751 12.7997C42.0678 10.449 40.5999 8.32389 38.758 6.54975C38.2646 6.0502 37.7379 5.57286 37.21 5.13128L35.625 7.0234C36.0987 7.41934 36.5662 7.84612 37.0127 8.29386C38.6134 9.82789 39.8927 11.6653 40.7759 13.6989C41.2965 15.0273 41.3594 16.1584 40.9375 16.579C40.6547 16.7904 40.3014 16.8849 39.9508 16.8429C39.5433 13.5601 37.9517 10.5389 35.4747 8.3464C32.9976 6.1539 29.8054 4.94092 26.4975 4.93516C26.31 4.93516 26.1274 4.95613 25.9424 4.96353C24.4712 3.29596 22.7112 1.90747 20.7471 0.864757C18.4541 -0.262621 16.488 -0.288523 15.2101 0.791984C13.6485 2.11055 13.5536 4.68847 14.9511 7.86338L17.2083 6.87662C16.208 4.60336 16.2968 3.10841 16.8025 2.68287C17.2564 2.29927 18.3788 2.45591 19.6592 3.08621C20.854 3.71023 21.9551 4.49914 22.9303 5.42978C20.3963 6.12563 18.1184 7.54142 16.3727 9.50562C14.627 11.4698 13.4883 13.8981 13.0947 16.4963C12.8823 16.3775 12.6598 16.2776 12.4299 16.1978C11.8525 16.003 11.241 15.9298 10.6339 15.9829C10.0268 16.0359 9.43723 16.2141 8.90238 16.5062C8.36753 16.7984 7.89896 17.198 7.52616 17.6801C7.15336 18.1622 6.88442 18.7163 6.73626 19.3074C6.00482 22.2368 5.19567 25.228 4.4149 28.1167C2.87431 33.8178 1.28069 39.7112 0.148373 45.5726C-0.0234968 46.2537 -0.0463499 46.9639 0.0813729 47.6547C0.209096 48.3454 0.484386 49.0005 0.888447 49.5751C1.93072 50.8962 4.35322 51.0541 5.45593 51.0541ZM24.9174 7.52542C25.2554 7.93739 25.5859 8.35307 25.877 8.76874L27.7309 7.47485C30.0239 7.73479 32.1792 8.70167 33.898 10.2415C35.6168 11.7812 36.8139 13.8176 37.3235 16.0683C35.5899 15.1957 34.0128 14.042 32.6561 12.6541C31.6552 11.6594 30.7636 10.5602 29.9968 9.3756L27.9147 10.7003C28.7765 12.036 29.7807 13.2742 30.9095 14.3933C32.6849 16.2348 34.8108 17.7027 37.1619 18.7104C37.3038 18.7659 37.4407 18.8078 37.5801 18.8559C37.5139 20.9673 36.8463 23.0159 35.6558 24.7609C34.4653 26.5059 32.8015 27.8748 30.8597 28.7067C28.918 29.5385 26.7792 29.7988 24.6946 29.4569C22.6101 29.1149 20.6664 28.185 19.0922 26.7764C17.518 25.3678 16.3787 23.5391 15.8081 21.5052C15.2375 19.4713 15.2593 17.3168 15.8711 15.2949C16.4829 13.273 17.6592 11.4678 19.2617 10.0915C20.8642 8.71519 22.8263 7.82494 24.9174 7.52542ZM21.782 31.2078C20.7879 32.2044 19.9556 33.3501 19.315 34.6035C18.7749 35.7432 17.9477 36.723 16.9148 37.4467C15.8818 38.1705 14.6785 38.6133 13.4228 38.7318L14.8734 25.4623C16.4599 28.1039 18.8954 30.1294 21.782 31.2078ZM2.56841 46.0388C3.67852 40.2663 5.26598 34.416 6.79423 28.7581C7.57994 25.8558 8.39032 22.856 9.12793 19.9044C9.19325 19.6433 9.31202 19.3985 9.47673 19.1856C9.64144 18.9728 9.84852 18.7964 10.0849 18.6676C10.3212 18.5388 10.5817 18.4604 10.8499 18.4374C11.1181 18.4144 11.3881 18.4473 11.6429 18.534C12.1091 18.7325 12.4892 19.0906 12.7153 19.544C12.9413 19.9975 12.9984 20.5166 12.8764 21.0083L10.4662 43.0378L12.9183 43.3067L13.1453 41.2284C14.9074 41.151 16.6156 40.5974 18.0882 39.6265C19.5607 38.6557 20.7426 37.3039 21.5081 35.7148C22.265 34.2349 23.343 32.9429 24.6633 31.933C27.8704 32.4008 31.1376 31.6738 33.8439 29.8904C36.337 30.5249 38.5463 31.9746 40.1206 34.0091C41.695 36.0436 42.5439 38.5461 42.5324 41.1186V71.5418H20.3684L21.0308 49.8761C22.6824 49.7034 24.2119 49.5184 25.4539 49.3248L25.074 46.8875C19.0832 47.8236 5.75566 48.5798 5.65699 48.5859C4.67966 48.6698 3.69811 48.4829 2.82004 48.0457C2.64397 47.7458 2.53085 47.4132 2.48759 47.0682C2.44432 46.7231 2.47183 46.3729 2.56841 46.0388Z" fill="white"/>
<path d="M36.3653 1.23438H33.8984V3.70129H36.3653V1.23438Z" fill="white"/>
</svg>
