<svg width="57" height="71" viewBox="0 0 57 71" fill="none" xmlns="http://www.w3.org/2000/svg">
<path d="M56.7534 5.9762C56.4297 5.69211 55.9074 5.69501 55.5933 5.99069C52.0711 9.25766 47.5908 12.2638 41.9535 15.1594C41.8029 13.7853 41.649 12.8925 41.6266 12.7678C41.5529 12.362 41.133 12.0866 40.6876 12.1533C40.2389 12.217 39.9345 12.5997 40.0082 13.0026C40.0274 13.1099 41.867 23.746 38.989 30.422C36.0951 37.1415 26.5061 45.7598 26.4101 45.8466C26.3844 45.8698 26.362 45.8901 26.3428 45.9162C24.984 47.4758 25.0064 49.6412 26.3973 51.1805L26.9549 51.798C27.3331 52.2183 27.6055 52.7169 27.7433 53.2445C28.1952 54.9896 27.301 56.7985 25.5608 57.6536L23.311 58.4566C20.7599 59.3669 18.462 60.8394 16.6673 62.7092L14.2124 65.2718C13.0394 66.4951 11.4242 67.4633 9.41152 68.1445C8.42766 68.4779 7.2066 68.733 6.12977 68.9563L5.64264 69.0577C4.53054 69.2925 3.00182 69.4433 2.02763 68.8258C1.72317 68.6316 1.51165 68.2489 1.72637 67.9243C1.91546 67.6373 2.28081 67.3967 2.67176 67.1445L2.92815 66.9764C3.10441 66.8575 3.28388 66.7416 3.46656 66.6256C4.1588 66.1821 4.87345 65.7211 5.4375 65.0979C6.96622 63.4137 8.18408 61.5294 9.05579 59.4973C10.623 55.8448 11.969 53.1489 12.8439 51.9078C14.7572 49.1916 15.395 48.2176 15.411 48.1944C16.8339 46.1334 17.9748 43.9128 18.8017 41.5967L28.2687 15.0056C28.743 13.675 29.1115 12.301 29.3615 10.924L29.5602 9.82534C29.9897 7.46856 31.3133 5.29153 33.2843 3.70298L35.9763 1.53173C36.316 1.25924 36.3449 0.789627 36.0436 0.485215C35.7424 0.17794 35.2232 0.154749 34.8866 0.42434L32.1913 2.59559C29.9383 4.41025 28.4289 6.8917 27.9417 9.58472L27.743 10.6834C27.5058 11.9908 27.1565 13.2895 26.7079 14.5504L17.2408 41.1415C16.4556 43.3417 15.3724 45.4492 14.0104 47.4233C14.0039 47.432 13.3566 48.4205 11.4625 51.1106C10.2703 52.8006 8.66463 56.3141 7.53013 58.9606C6.72252 60.8449 5.59119 62.5928 4.17142 64.1553C3.74197 64.6279 3.12028 65.0279 2.51775 65.4163C2.32546 65.541 2.13317 65.6627 1.95049 65.7874L1.71334 65.9439C1.22941 66.2599 0.681389 66.6165 0.319248 67.1701C-0.312103 68.1325 0.0179917 69.3703 1.08841 70.0458C1.83193 70.5154 2.76456 70.7531 3.87338 70.7531C4.52717 70.7531 5.24187 70.6719 6.01743 70.5067L6.50136 70.4052C7.57178 70.182 8.90499 69.9066 9.99462 69.5384C12.2668 68.7673 14.1064 67.66 15.4589 66.2482L17.9138 63.6857C19.5355 61.9928 21.6154 60.6622 23.9197 59.8418L26.2143 59.0243C26.2432 59.0127 26.272 59.0011 26.2977 58.9895C28.7205 57.8271 29.9736 55.3283 29.3454 52.9106C29.1531 52.1628 28.7653 51.4554 28.2301 50.8641L27.6725 50.2466C26.7848 49.261 26.7591 47.8812 27.6084 46.8752C28.3775 46.1708 37.5595 37.8223 40.5171 30.9578C42.4304 26.5197 42.4048 20.6441 42.1067 16.7822C48.1927 13.7152 52.9997 10.5178 56.7688 7.02202C57.0829 6.72924 57.0764 6.25966 56.7528 5.9755L56.7534 5.9762Z" fill="white"/>
<path d="M21.2871 54.6912C21.4473 54.8477 21.6685 54.926 21.8864 54.926C22.0883 54.926 22.2902 54.8593 22.4472 54.726C25.2803 52.3228 24.4439 50.2037 23.2452 48.8471C22.9632 48.5253 22.444 48.476 22.0915 48.7311C21.739 48.9862 21.6813 49.453 21.9633 49.7747C22.7453 50.6588 23.3799 51.8967 21.3224 53.6417C20.9955 53.9229 20.9794 54.3926 21.2871 54.6912Z" fill="white"/>
<path d="M14.6802 19.2153C14.8212 19.4414 15.0808 19.5834 15.3692 19.5921C15.6609 19.6008 15.9237 19.4733 16.0807 19.2558L17.4524 17.3542L19.7983 21.0937C19.949 21.3343 20.2278 21.4706 20.513 21.4706C20.6508 21.4706 20.7886 21.4387 20.9168 21.3749C21.311 21.172 21.4488 20.7198 21.2277 20.3632L18.2183 15.5627C18.0773 15.3366 17.8177 15.1945 17.5293 15.1858C17.2216 15.1685 16.9717 15.3047 16.8178 15.5221L15.4461 17.4238L13.1002 13.6842C12.8758 13.3277 12.3759 13.203 11.9817 13.4059C11.5875 13.6088 11.4497 14.0611 11.674 14.4176L14.6802 19.2153Z" fill="white"/>
<path d="M10.2248 26.7653C10.4267 26.9508 10.7216 27.0261 10.9972 26.9682C11.276 26.9102 11.5003 26.7218 11.5901 26.4783L12.7727 23.2171L17.5286 27.5943C17.6889 27.7422 17.9004 27.8146 18.1151 27.8146C18.3234 27.8146 18.5318 27.7451 18.692 27.603C19.0157 27.316 19.0189 26.8464 18.7016 26.5536L13.0002 21.3067C12.8015 21.1212 12.5067 21.0458 12.2279 21.1038C11.949 21.1618 11.7247 21.3502 11.635 21.5937L10.4524 24.8549L5.69639 20.4776C5.37911 20.1849 4.85995 20.182 4.53621 20.4689C4.21252 20.7559 4.20931 21.2255 4.5266 21.5184L10.2248 26.7653Z" fill="white"/>
<path d="M16.8734 32.1941C17.008 31.8028 16.7676 31.3854 16.3349 31.2636L10.5117 29.617C10.2393 29.5416 9.94126 29.5967 9.72654 29.7677C9.51181 29.9388 9.40926 30.1997 9.46053 30.4548L9.89318 32.6898L5.35518 31.4055C4.92573 31.2838 4.46107 31.5012 4.32643 31.8926C4.19183 32.2839 4.4322 32.7013 4.86485 32.8231L10.6881 34.4697C10.7682 34.4928 10.8515 34.5044 10.9316 34.5044C11.1271 34.5044 11.3194 34.4407 11.4733 34.3189C11.688 34.1479 11.7905 33.887 11.7393 33.6319L11.3066 31.3969L15.8446 32.6811C16.2741 32.8 16.7355 32.5854 16.8734 32.1941Z" fill="white"/>
</svg>
