<svg width="63" height="63" viewBox="0 0 63 63" fill="none" xmlns="http://www.w3.org/2000/svg">
<path d="M1.65797 56.4515H1.64139C0.726757 56.4432 -0.00820708 55.6971 6.92177e-05 54.7825C0.00283223 54.415 0.135468 45.7139 5.82765 41.2072C8.99153 38.701 13.1554 38.013 18.2039 39.1625C22.7576 40.1986 23.8657 39.284 24.095 38.9801C25.6314 36.9464 21.4976 29.3697 18.762 24.3544C17.7507 22.5003 16.7947 20.7456 15.9933 19.1182C10.0248 6.99304 16.5431 0.707297 16.825 0.44486C17.4965 -0.179618 18.5437 -0.140932 19.1682 0.524992C19.7899 1.19092 19.7568 2.23267 19.0964 2.8599C18.8725 3.07819 14.1475 7.86126 18.9692 17.654C19.7401 19.2179 20.6797 20.9394 21.6744 22.7659C25.7363 30.2075 29.5715 37.2395 26.7421 40.978C25.2113 43.0034 22.1829 43.4649 17.4719 42.3955C13.457 41.4836 10.2355 41.9534 7.90044 43.7992C3.45168 47.3084 3.31904 54.7388 3.31904 54.8131C3.30799 55.7222 2.57021 56.4544 1.66109 56.4544L1.65797 56.4515Z" fill="white"/>
<path d="M7.96898 56.457H7.92753C7.0129 56.4349 6.28897 55.675 6.31104 54.7604C6.38288 51.8148 6.79459 48.1757 9.37815 46.1502C11.2046 44.7217 13.8103 44.368 17.1232 45.1002C19.3973 45.6086 23.4205 46.0204 27.9022 45.6418C28.8141 45.5727 29.6154 46.2442 29.6927 47.156C29.7701 48.0679 29.0903 48.8692 28.1785 48.9465C23.3236 49.3499 18.9105 48.8968 16.4021 48.3358C14.1087 47.8274 12.4286 47.9683 11.4201 48.7614C9.91137 49.9413 9.67093 52.7956 9.6212 54.8404C9.5991 55.744 8.86134 56.4597 7.96326 56.4597L7.96898 56.457Z" fill="white"/>
<path d="M48.2122 35.3906C48.0686 35.3906 47.9249 35.3712 47.7812 35.3325C46.897 35.0949 46.3719 34.1858 46.6096 33.3016C47.0269 31.7487 47.2396 30.041 47.2396 28.2284C47.2396 21.9394 45.4104 17.3362 41.8044 14.5477C34.6868 9.04623 22.863 12.0387 22.747 12.0719C22.2524 12.2045 21.7219 12.094 21.3157 11.779C20.9095 11.464 20.6719 10.9804 20.6719 10.4665C20.6719 3.70217 23.214 0.822796 23.5014 0.519332C24.1314 -0.146599 25.1786 -0.17423 25.8446 0.455778C26.5022 1.08026 26.5381 2.11649 25.9247 2.78241C25.8667 2.85149 24.4685 4.52595 24.0844 8.41935C28.2319 7.72302 37.3866 6.94383 43.8329 11.9258C48.2955 15.3743 50.5557 20.8621 50.5557 28.2315C50.5557 30.3344 50.3071 32.3321 49.8124 34.1641C49.6135 34.9046 48.9448 35.3937 48.2126 35.3937L48.2122 35.3906Z" fill="white"/>
<path d="M50.8128 15.4847C50.4231 15.4847 50.0335 15.3493 49.7185 15.0703C49.0305 14.4651 48.9642 13.4179 49.5693 12.7326L52.0009 9.97219L49.865 9.08246C49.3814 8.88074 49.0222 8.4635 48.8951 7.95504C48.768 7.44661 48.8896 6.90777 49.2212 6.50159L53.2278 1.60521C53.8081 0.897831 54.8526 0.792856 55.56 1.3731C56.2673 1.95337 56.3723 2.99787 55.7948 3.70801L53.2002 6.88017L55.4162 7.80308C55.9108 8.01032 56.2728 8.43862 56.3944 8.96084C56.516 9.48307 56.3778 10.0302 56.0241 10.4308L52.0617 14.9266C51.7329 15.2996 51.2769 15.4903 50.8183 15.4903L50.8128 15.4847Z" fill="white"/>
<path d="M54.2746 26.8076C53.7026 26.8076 53.1444 26.512 52.8378 25.9786C52.3791 25.1856 52.6526 24.1715 53.4457 23.7129L56.6316 21.8753L54.8908 20.3501C54.4957 20.0047 54.2885 19.4935 54.3327 18.9712C54.3741 18.449 54.6615 17.9765 55.1036 17.6974L60.4641 14.3374C61.2406 13.8538 62.263 14.0887 62.7493 14.8624C63.2356 15.6389 63.0008 16.6612 62.2243 17.1475L58.751 19.3249L60.5553 20.9082C60.9587 21.2619 61.1632 21.7869 61.1107 22.3175C61.0582 22.8508 60.7515 23.3233 60.29 23.5913L55.1008 26.5866C54.8411 26.7386 54.5565 26.8076 54.2746 26.8076Z" fill="white"/>
<path d="M12.7062 26.8223C12.4188 26.8223 12.1259 26.7477 11.8607 26.5902L6.71287 23.5258C6.25418 23.2523 5.95576 22.7742 5.90879 22.2409C5.86458 21.7076 6.07735 21.1854 6.48354 20.84L8.30998 19.2816L4.86704 17.0572C4.0989 16.5599 3.87785 15.5347 4.3752 14.7638C4.87257 13.9956 5.89768 13.7718 6.66589 14.2719L11.9795 17.7066C12.4188 17.9912 12.7007 18.4665 12.7338 18.9887C12.7698 19.5109 12.5542 20.0194 12.1563 20.3592L10.3962 21.8597L13.5573 23.7414C14.3448 24.2112 14.6018 25.228 14.1348 26.0155C13.8253 26.535 13.2726 26.8251 12.709 26.8251L12.7062 26.8223Z" fill="white"/>
<path d="M7.74575 35.4266C7.22074 35.4266 6.72614 35.1779 6.4139 34.7552C6.09613 34.3269 6.00495 33.7687 6.16797 33.2603L6.90577 30.9751L2.80794 30.8894C1.8933 30.8701 1.16661 30.113 1.18592 29.1984C1.20527 28.2838 1.98172 27.5543 2.87698 27.5736L9.20191 27.7062C9.72692 27.7173 10.2132 27.977 10.5172 28.4026C10.8212 28.8281 10.9068 29.3752 10.7438 29.8726L10.0337 32.0749L13.7114 32.0168C14.6426 32.0002 15.3804 32.7352 15.3942 33.6499C15.408 34.5645 14.6786 35.3189 13.7612 35.3326L7.77054 35.4266L7.74575 35.4266Z" fill="white"/>
<path d="M28.7901 31.3177C26.8531 31.3177 24.6563 30.8839 22.0507 29.7454C21.2107 29.3807 20.8266 28.4025 21.1942 27.5625C21.5589 26.7225 22.5343 26.3384 23.377 26.706C28.9117 29.121 31.816 27.7283 35.4965 25.9654C38.956 24.3075 42.8773 22.4285 49.18 23.9704C50.0697 24.1887 50.6141 25.0867 50.3958 25.9737C50.1776 26.8607 49.2823 27.4105 48.3926 27.1895C43.2392 25.9296 40.175 27.3995 36.9281 28.9552C34.491 30.124 32.0014 31.3177 28.7933 31.3177H28.7901Z" fill="white"/>
<path d="M47.5266 63.0004C38.9942 63.0004 32.0527 56.0593 32.0527 47.5266C32.0527 38.9939 38.9939 32.0527 47.5266 32.0527C56.0593 32.0527 63.0004 38.9939 63.0004 47.5266C63.0004 56.0593 56.0593 63.0004 47.5266 63.0004ZM47.5266 35.3689C40.8231 35.3689 35.3682 40.8234 35.3682 47.5273C35.3682 54.2312 40.8227 59.6857 47.5266 59.6857C54.2305 59.6857 59.685 54.2312 59.685 47.5273C59.685 40.8234 54.2305 35.3689 47.5266 35.3689Z" fill="white"/>
<path d="M47.5271 56.9222C46.6124 56.9222 45.8691 56.1788 45.8691 55.2642V54.1589C45.8691 53.2443 46.6124 52.501 47.5271 52.501C48.4417 52.501 49.185 53.2443 49.185 54.1589V55.2642C49.185 56.1788 48.4417 56.9222 47.5271 56.9222Z" fill="white"/>
<path d="M47.5271 50.289C46.6124 50.289 45.8691 49.5456 45.8691 48.631V39.7888C45.8691 38.8742 46.6124 38.1309 47.5271 38.1309C48.4417 38.1309 49.185 38.8742 49.185 39.7888V48.631C49.185 49.5456 48.4417 50.289 47.5271 50.289Z" fill="white"/>
</svg>
