<svg width="57" height="69" viewBox="0 0 57 69" fill="none" xmlns="http://www.w3.org/2000/svg">
<path d="M0.429843 62.9855C0.000717694 63.8438 -0.374784 65.6675 0.698042 67.0086C1.77087 68.3497 2.68273 68.3496 4.50654 68.3496C5.82612 68.3121 7.14027 68.1324 8.42229 67.8132H8.52957C10.5277 68.4327 12.6063 68.7412 14.6983 68.7251C17.5814 68.7331 20.4432 68.1887 23.1201 67.1158C30.0396 64.3265 38.837 67.2767 38.9442 67.2767C40.3388 67.7595 47.2046 68.5641 49.6187 68.1886C52.0328 67.8131 55.1973 65.9894 56.2702 63.5755C57.7721 60.2497 56.6993 55.637 55.3583 52.6867C52.3544 46.1962 53.159 39.1154 53.4272 36.7555C53.5882 35.2536 53.8027 33.4835 54.0709 31.4988C55.0364 23.8281 56.3775 13.3149 56.2702 5.42928C56.2702 5.14498 56.1575 4.87142 55.9564 4.67024C55.7552 4.46909 55.4816 4.35645 55.1973 4.35645C54.6046 4.35645 54.1245 4.83653 54.1245 5.42926C54.2318 13.1 52.9444 23.5596 51.9789 31.1768C51.7107 33.1614 51.4961 34.9853 51.3352 36.4872C51.067 38.9547 50.2088 46.5177 53.4272 53.5451C54.661 56.1735 55.4656 60.1965 54.3391 62.6638C53.2126 65.1311 51.1206 65.7749 49.2968 66.0432C47.473 66.3114 40.6072 65.5604 39.6419 65.2386C39.5346 65.1849 29.9869 62.0201 22.3162 65.0776C18.7384 66.4857 14.8384 66.8773 11.0518 66.2041C11.0304 65.8849 10.8668 65.5926 10.6093 65.4048C10.3491 65.2197 10.0193 65.1581 9.71083 65.2385C4.02495 66.8478 2.68416 65.8822 2.4157 65.5604C2.18773 65.2117 2.12872 64.7772 2.25478 64.3802L4.34678 64.112L4.66862 64.0047C5.84875 63.4147 9.22806 61.9127 10.6227 61.6446C12.0174 61.3764 12.3392 60.5717 13.5194 59.2844C14.7504 57.8039 16.1155 56.4388 17.5961 55.2077L15.3968 54.2422C14.1524 55.3767 12.9857 56.5943 11.9102 57.8897C11.3201 58.5871 10.5692 59.4453 10.2473 59.5526C8.47719 59.8745 4.77594 61.591 3.91769 62.0201L1.28931 62.342C0.908465 62.3876 0.581293 62.6343 0.431065 62.9857L0.429843 62.9855Z" fill="white"/>
<path d="M24.7842 48.8779L23.9796 49.1997L21.834 50.1116L24.5697 51.2917H24.7306L25.5352 50.9699C29.9874 49.307 35.5658 47.2687 35.9413 41.2071C36.746 28.5476 32.4011 2.15675 32.2401 1.03004C32.2267 0.718929 32.0819 0.431951 31.8405 0.236194C31.5991 0.0430882 31.2827 -0.0373744 30.9796 0.0162696C30.6738 0.0725921 30.4056 0.254973 30.2474 0.523172C30.0892 0.788694 30.0516 1.11054 30.1482 1.40559C30.2018 1.67379 34.6004 28.6554 33.8494 41.0993C33.5275 45.6587 29.0754 47.268 24.7842 48.8771L24.7842 48.8779Z" fill="white"/>
<path d="M41.4634 56.5486C40.8707 56.5486 40.3906 57.0287 40.3906 57.6214C40.3906 58.2142 40.8707 58.6943 41.4634 58.6943C43.1531 58.6406 44.7382 57.8574 45.8083 56.5486C46.908 55.3444 47.4176 53.7137 47.2029 52.0964C47.1895 51.7853 47.0447 51.4984 46.8033 51.3026C46.5619 51.1095 46.2454 51.029 45.9424 51.0827C45.6366 51.139 45.3684 51.3214 45.2102 51.5896C45.052 51.8551 45.0144 52.1769 45.111 52.472C45.2451 53.467 44.9313 54.4674 44.2527 55.2077C43.5581 56.0337 42.5416 56.5245 41.4634 56.5486Z" fill="white"/>
<path d="M13.4112 19.9121C9.33456 19.9282 5.55586 22.0497 3.41504 25.5203C1.27745 28.9882 1.07902 33.3166 2.89473 36.9673C4.71044 40.6175 8.28028 43.0716 12.3382 43.4605V49.951C12.3463 50.372 12.5957 50.7475 12.9819 50.9164L24.6754 55.9587L25.1045 56.066C25.598 56.0499 26.0164 55.6985 26.1183 55.2158C26.2176 54.733 25.9789 54.2422 25.5337 54.0276L14.4835 49.2536V43.4604C18.5415 43.0715 22.111 40.6175 23.927 36.9672C25.7427 33.317 25.5443 28.9883 23.4067 25.5203C21.2664 22.0497 17.4875 19.9282 13.4105 19.9121L13.4112 19.9121ZM13.4112 41.3684C9.50621 41.3684 5.98499 39.0162 4.49094 35.4089C2.99704 31.7989 3.82312 27.6469 6.58294 24.8847C9.34541 22.1249 13.497 21.2988 17.1071 22.7927C20.7145 24.2866 23.0666 27.8081 23.0666 31.713C23.0666 37.0449 18.7428 41.3684 13.4112 41.3684Z" fill="white"/>
<path d="M13.9492 28.494H14.432C14.9872 29.2342 15.883 29.6339 16.8056 29.5561C17.7255 29.4783 18.5435 28.9312 18.9646 28.1078C19.3856 27.2844 19.3535 26.3028 18.8787 25.5089C18.404 24.715 17.5565 24.2215 16.6312 24.2028H16.0948C15.537 23.4599 14.6331 23.0575 13.7078 23.1407C12.7825 23.2238 11.9671 23.7817 11.5515 24.6131C11.1357 25.4445 11.1786 26.4315 11.6668 27.2227C12.1576 28.0139 13.0186 28.494 13.9492 28.494ZM16.6312 26.3484C16.8485 26.3484 17.0442 26.4798 17.1274 26.6783C17.2105 26.8794 17.1649 27.1101 17.0094 27.263C16.8565 27.4185 16.6259 27.4641 16.4247 27.381C16.2262 27.2978 16.0948 27.102 16.0948 26.8848C16.0948 26.5898 16.3362 26.3484 16.6312 26.3484ZM13.9492 25.2756C14.1182 25.2756 14.2764 25.356 14.3783 25.4901C14.204 25.753 14.078 26.0426 14.0029 26.3484H13.9492C13.6542 26.3484 13.4128 26.107 13.4128 25.812C13.4128 25.5169 13.6542 25.2756 13.9492 25.2756Z" fill="white"/>
<path d="M18.2392 30.9619C17.1557 30.9619 16.1767 31.6163 15.761 32.6168C15.3453 33.6198 15.5759 34.7731 16.343 35.5402C17.1101 36.3072 18.2633 36.5379 19.2664 36.1222C20.2668 35.7064 20.9212 34.7275 20.9212 33.644C20.9212 32.9332 20.6396 32.2493 20.1354 31.7478C19.6339 31.2435 18.9499 30.9619 18.2392 30.9619ZM18.2392 34.1804C18.0219 34.1804 17.8262 34.0489 17.743 33.8505C17.6599 33.6493 17.7055 33.4186 17.861 33.2658C18.0139 33.1102 18.2446 33.0646 18.4457 33.1478C18.6442 33.2309 18.7756 33.4267 18.7756 33.6439C18.7756 33.7861 18.7193 33.9229 18.6174 34.0221C18.5181 34.124 18.3813 34.1804 18.2392 34.1804Z" fill="white"/>
<path d="M12.2841 34.2344C11.2006 34.2344 10.2216 34.8888 9.8059 35.8892C9.39019 36.8923 9.62085 38.0456 10.3879 38.8126C11.155 39.5797 12.3083 39.8103 13.3113 39.3946C14.3117 38.9789 14.9662 38 14.9662 36.9164C14.9662 36.2056 14.6845 35.5218 14.1803 35.0202C13.6788 34.516 12.9948 34.2344 12.2841 34.2344ZM12.2841 37.4528C12.0669 37.4528 11.8711 37.3214 11.7879 37.1229C11.7048 36.9218 11.7504 36.6911 11.906 36.5382C12.0588 36.3827 12.2895 36.3371 12.4906 36.4202C12.6891 36.5034 12.8205 36.6992 12.8205 36.9164C12.8205 37.0586 12.7642 37.1953 12.6623 37.2946C12.563 37.3965 12.4263 37.4528 12.2841 37.4528Z" fill="white"/>
<path d="M10.4603 30.9619C10.4603 29.8783 9.80588 28.8994 8.80545 28.4836C7.80239 28.0679 6.64911 28.2986 5.88204 29.0656C5.11497 29.8327 4.88434 30.986 5.30004 31.989C5.71575 32.9894 6.69466 33.6439 7.77825 33.6439C8.48902 33.6439 9.17287 33.3623 9.67443 32.8581C10.1787 32.3565 10.4603 31.6726 10.4603 30.9619ZM7.77829 31.4983C7.56105 31.4983 7.36526 31.3668 7.28211 31.1684C7.19897 30.9672 7.24456 30.7366 7.40013 30.5837C7.553 30.4281 7.78365 30.3825 7.98481 30.4657C8.18328 30.5488 8.3147 30.7446 8.3147 30.9619C8.3147 31.104 8.25838 31.2408 8.15646 31.34C8.05722 31.4419 7.92044 31.4983 7.77829 31.4983Z" fill="white"/>
</svg>
