<svg width="21" height="21" viewBox="0 0 21 21" fill="none" xmlns="http://www.w3.org/2000/svg">
<path d="M13.5923 12.9053L13.6213 12.9333H13.6617H14.5419L20.2637 18.6666L18.6666 20.2637L12.9333 14.5419V13.6617V13.6213L12.9053 13.5923L12.5903 13.2656L12.5248 13.1976L12.4531 13.2592C11.1406 14.3875 9.43682 15.0667 7.58334 15.0667C6.10327 15.0667 4.65645 14.6278 3.42582 13.8055C2.19519 12.9832 1.23603 11.8145 0.669638 10.4471C0.103242 9.07968 -0.0449525 7.57504 0.243794 6.12341C0.53254 4.67179 1.24526 3.33838 2.29182 2.29182C3.33838 1.24526 4.67179 0.53254 6.12341 0.243794C7.57504 -0.0449525 9.07968 0.103242 10.4471 0.669638C11.8145 1.23603 12.9832 2.19519 13.8055 3.42582C14.6278 4.65645 15.0667 6.10327 15.0667 7.58334V7.58341C15.068 9.37091 14.4265 11.0993 13.2593 12.453L13.1975 12.5247L13.2656 12.5903L13.5923 12.9053ZM2.23334 7.58334C2.23334 10.5436 4.62311 12.9333 7.58334 12.9333C10.5436 12.9333 12.9333 10.5436 12.9333 7.58334C12.9333 4.62311 10.5436 2.23334 7.58334 2.23334C4.62311 2.23334 2.23334 4.62311 2.23334 7.58334Z" fill="black" stroke="white" stroke-width="0.2"/>
</svg>
