<svg width="66" height="65" viewBox="0 0 66 65" fill="none" xmlns="http://www.w3.org/2000/svg">
<path d="M56.5375 0.000827827H19.8062C14.6054 0.000827827 10.398 4.14338 10.398 9.25612V10.2299H9.40816C4.20734 10.2299 0 14.3724 0 19.4852V41.7326C0 46.849 4.21097 50.9879 9.40816 50.9879H11.6361L9.65645 62.6793C9.57262 63.247 9.82089 63.8148 10.3174 64.059C10.4819 64.1415 10.7301 64.2208 10.9784 64.2208C11.3073 64.2208 11.6394 64.1383 11.8877 63.8973L26.4168 50.9879H46.1427C51.3435 50.9879 55.5509 46.8454 55.5509 41.7326V40.7589H56.5407C61.7415 40.7589 65.9489 36.6163 65.9489 31.5036L65.9457 9.25854C65.9457 4.14223 61.7347 0 56.5375 0L56.5375 0.000827827ZM52.8231 41.8194C52.8231 45.4734 49.7697 48.4772 46.0553 48.4772L25.9967 48.4804C25.7484 48.4804 25.584 48.4804 25.4195 48.5628C25.4195 48.5628 25.3357 48.5628 25.3357 48.6453C25.2519 48.7278 25.0874 48.7278 25.0068 48.8071L12.8706 59.4428L14.4376 49.9431V49.8606V49.6988C14.4376 49.6164 14.4376 49.5371 14.3538 49.4546V49.2928C14.3538 49.2104 14.2699 49.1311 14.1893 48.9693C14.1893 48.8868 14.1055 48.8868 14.1055 48.8075L13.9411 48.6458C13.8572 48.5633 13.7766 48.5633 13.6928 48.484C13.609 48.484 13.609 48.4015 13.5284 48.4015C13.4445 48.4015 13.3639 48.3191 13.3639 48.3191H13.1995H13.1156H9.23682C5.52242 48.3191 2.46902 45.3153 2.46902 41.6612L2.47224 19.5721C2.47224 15.9181 5.52565 12.9143 9.24005 12.9143H45.9713C49.6857 12.9143 52.7391 15.9181 52.7391 19.5721V41.8196L52.8231 41.8194ZM63.2217 31.5076C63.2217 35.1617 60.1683 38.1655 56.4539 38.1655H55.4641V19.5721C55.4641 14.4557 51.2531 10.3168 46.0559 10.3168H13.039V9.34301C13.039 5.68896 16.0924 2.68517 19.8068 2.68517H56.5381C60.2525 2.68517 63.3059 5.68896 63.3059 9.34301V31.5085L63.2217 31.5076Z" fill="white"/>
<path d="M13.531 26.2295C11.0548 26.2295 8.99121 28.177 8.99121 30.6955C8.99121 33.1316 10.9709 35.1616 13.531 35.1616C16.0073 35.1616 18.0709 33.2141 18.0709 30.6955C17.987 28.2595 16.0073 26.2295 13.531 26.2295ZM13.531 32.4813C12.5412 32.4813 11.7158 31.6693 11.7158 30.6955C11.7158 29.7218 12.5412 28.9098 13.531 28.9098C14.5209 28.9098 15.3463 29.7218 15.3463 30.6955C15.3463 31.6693 14.5209 32.4813 13.531 32.4813Z" fill="white"/>
<path d="M27.7283 26.2295C25.252 26.2295 23.1885 28.177 23.1885 30.6955C23.1885 33.1316 25.1682 35.1616 27.7283 35.1616C30.2046 35.1616 32.2681 33.2141 32.2681 30.6955C32.1875 28.2595 30.2046 26.2295 27.7283 26.2295ZM27.7283 32.4813C26.7385 32.4813 25.913 31.6693 25.913 30.6955C25.913 29.7218 26.7385 28.9098 27.7283 28.9098C28.7181 28.9098 29.5436 29.7218 29.5436 30.6955C29.5436 31.6693 28.7181 32.4813 27.7283 32.4813Z" fill="white"/>
<path d="M41.9246 26.2295C39.4483 26.2295 37.3848 28.177 37.3848 30.6955C37.3848 33.1316 39.3645 35.1616 41.9246 35.1616C44.4009 35.1616 46.4644 33.2141 46.4644 30.6955C46.3838 28.2595 44.4009 26.2295 41.9246 26.2295ZM41.9246 32.4813C40.9347 32.4813 40.1093 31.6693 40.1093 30.6955C40.1093 29.7218 40.9347 28.9098 41.9246 28.9098C42.9144 28.9098 43.7399 29.7218 43.7399 30.6955C43.7431 31.6693 42.9177 32.4813 41.9246 32.4813Z" fill="white"/>
</svg>
