<svg width="65" height="65" viewBox="0 0 65 65" fill="none" xmlns="http://www.w3.org/2000/svg">
<path d="M64.0034 55.0064H62.6302V37.7953C62.6302 35.4612 61.6804 33.1827 60.0259 31.5394L54.0847 25.6288C57.6945 19.5678 58.4828 14.1222 56.4829 9.20638C54.9704 5.4684 51.7394 2.44347 47.6225 0.919953C41.8734 -1.18577 36.754 0.326669 32.3666 5.4239C27.9573 0.335033 22.8152 -1.18856 17.0801 0.919953C12.9633 2.44354 9.73205 5.46847 8.21965 9.20638C6.2114 14.1337 6.99968 19.5899 10.6207 25.6623L4.66827 31.5506C3.01655 33.194 2.06398 35.4724 2.06398 37.8065V55.0062H0.690774C0.300817 55.0062 0 55.3181 0 55.6969V64.3064C0 64.6852 0.311962 64.9971 0.690774 64.9971C1.06958 64.9971 1.38155 64.6852 1.38155 64.3064V56.3879H2.74363H2.75477H20.1498H20.1609H21.5536V64.3064C21.5536 64.6852 21.8656 64.9971 22.2444 64.9971C22.6343 64.9971 22.9351 64.6852 22.9351 64.3064V55.6969C22.9351 55.3181 22.6232 55.0062 22.2444 55.0062H20.8405V52.4241C23.9183 51.0314 25.8765 48.0065 25.8765 44.5919V42.3887C27.1076 43.436 28.3944 44.4944 29.7537 45.5752C30.5197 46.1796 31.4389 46.4832 32.3469 46.4832C33.2661 46.4832 34.1824 46.1796 34.9512 45.5752C36.3021 44.5056 37.5667 43.4583 38.7978 42.411V44.5947C38.7978 48.0096 40.7642 51.0345 43.8337 52.427V55.009H42.4299C42.0399 55.009 41.7391 55.321 41.7391 55.6998V64.3092C41.7391 64.688 42.0511 65 42.4299 65C42.8198 65 43.1206 64.688 43.1206 64.3092V56.3907H44.5133H44.5244H61.9195H61.9306H63.2927V64.3092C63.2927 64.688 63.6047 65 63.9835 65C64.3734 65 64.6742 64.688 64.6742 64.3092V55.6998C64.7049 55.307 64.3905 55.0064 64.0034 55.0064ZM24.4929 44.5779C24.4929 47.5694 22.688 50.2071 19.9026 51.299C19.6324 51.4077 19.4597 51.6556 19.4597 51.948V54.9952H3.4466V37.7956C3.4466 35.8291 4.24601 33.9183 5.63868 32.534L11.3654 26.863C12.4127 28.4841 13.6549 30.1358 15.1034 31.8433L9.25965 37.8179C8.98947 38.0881 9.00061 38.5309 9.27079 38.8011C9.54098 39.0713 9.98385 39.0602 10.254 38.79L20.6575 28.1583C21.2508 27.5539 22.0391 27.2196 22.8942 27.2085H22.9165C23.7604 27.2085 24.5487 27.5316 25.142 28.1277C25.7464 28.7322 26.0806 29.5316 26.0723 30.3867C26.0612 31.239 25.7269 32.0384 25.1113 32.6344L18.769 38.7818C18.6381 38.9127 18.5518 39.0937 18.5518 39.2776V41.4279C18.5518 44.3135 16.1953 46.6672 13.3124 46.6672C12.9225 46.6672 12.6217 46.9792 12.6217 47.358C12.6217 47.7368 12.9336 48.0487 13.3124 48.0487C16.9641 48.0487 19.9361 45.0767 19.9361 41.4251V39.5672L21.2647 38.2804C22.2814 39.2302 23.351 40.2023 24.4735 41.1855L24.4707 44.5781L24.4929 44.5779ZM34.097 44.4832C33.0915 45.2826 31.6348 45.2826 30.6292 44.4832C27.518 42.021 24.7521 39.6311 22.2979 37.3084L26.0888 33.6346C26.9745 32.7822 27.462 31.6346 27.4703 30.4036C27.4815 29.1724 27.0052 28.0165 26.1306 27.1502C25.2671 26.2979 24.1307 25.8216 22.9218 25.8216H22.8884C21.6684 25.8327 20.5236 26.3174 19.6685 27.1948L16.1143 30.8241C9.32919 22.7217 7.08135 15.6553 9.50189 9.73618C10.864 6.35472 13.8025 3.62229 17.5516 2.22698C19.0752 1.66433 20.5347 1.38301 21.9497 1.38301C25.4064 1.38301 28.5288 3.06817 31.4255 6.47188L30.0634 7.83396C29.7933 8.10414 29.7933 8.54701 30.0634 8.81719C30.2027 8.95646 30.3754 9.02331 30.5509 9.02331C30.7236 9.02331 30.9074 8.95924 31.0383 8.81719L32.8432 7.0123C32.8544 7.00116 32.8544 6.99002 32.8655 6.97888C32.8766 6.96774 32.8878 6.96774 32.8989 6.95659C36.9823 1.8566 41.7679 0.268908 47.1265 2.23537C50.8756 3.62805 53.8142 6.36333 55.1876 9.74457C57.597 15.6663 55.3603 22.7186 48.5752 30.8325L45.021 27.2032C44.1687 26.3286 43.0211 25.8411 41.8011 25.83H41.7677C40.5589 25.83 39.4224 26.3063 38.559 27.1586C37.6843 28.0221 37.2081 29.178 37.2192 30.4119C37.2304 31.6431 37.715 32.7879 38.6008 33.643L42.4028 37.328C39.9655 39.6316 37.1996 42.0182 34.097 44.4832ZM44.7929 51.3102C42.0047 50.2183 40.2026 47.5833 40.2026 44.589V41.2187C41.3362 40.2355 42.4058 39.2634 43.4225 38.3024L44.74 39.5893V41.4472C44.74 45.0988 47.712 48.0708 51.3636 48.0708C51.7536 48.0708 52.0544 47.7589 52.0544 47.38C52.0544 47.0012 51.7425 46.6893 51.3636 46.6893C48.478 46.6893 46.1243 44.3439 46.1243 41.4499V39.2996C46.1243 39.1158 46.0491 38.932 45.9071 38.8038L39.5648 32.6565C38.9492 32.0632 38.615 31.2638 38.6038 30.4087C38.5926 29.5564 38.9269 28.757 39.5341 28.1498C40.1274 27.5565 40.9157 27.2306 41.7596 27.2306H41.7819C42.6342 27.2417 43.4253 27.576 44.0186 28.1804L54.4221 38.812C54.6922 39.0822 55.1351 39.0934 55.4053 38.8232C55.6755 38.553 55.6866 38.1101 55.4164 37.84L49.5616 31.8653C51.01 30.1579 52.2634 28.4839 53.3107 26.8628L59.0263 32.5561C60.419 33.9377 61.2184 35.8512 61.2184 37.8177V55.0174L45.2359 55.0146V51.9478C45.2359 51.6665 45.0631 51.4076 44.7929 51.3102Z" fill="white"/>
<path d="M19.0051 6.12909C18.5622 6.29065 18.1305 6.48562 17.7183 6.70288C17.384 6.88672 17.242 7.29617 17.4258 7.64155C17.5456 7.87831 17.7935 8.00922 18.0414 8.00922C18.15 8.00922 18.2586 7.98694 18.3645 7.93401C18.721 7.73903 19.0998 7.57748 19.487 7.43822C19.8435 7.30731 20.0273 6.90899 19.8964 6.54133C19.7599 6.18202 19.3728 5.99818 19.0051 6.12909Z" fill="white"/>
<path d="M15.2339 8.52711C14.4011 9.37108 13.7632 10.2986 13.3649 11.3041C12.5655 13.2594 12.5126 15.485 13.1922 17.9166C13.2786 18.2202 13.5599 18.4235 13.8607 18.4235C13.9248 18.4235 13.9916 18.4124 14.0445 18.4012C14.4122 18.2926 14.6267 17.9138 14.532 17.5489C13.9387 15.4209 13.9693 13.4962 14.6518 11.8333C14.986 11.0005 15.5152 10.2234 16.2171 9.51033C16.4873 9.24015 16.4873 8.79728 16.2171 8.5271C15.9469 8.25692 15.5041 8.25692 15.2339 8.52711Z" fill="white"/>
<path d="M39.542 21.9554V17.2676C39.542 16.8888 39.2301 16.5768 38.8513 16.5768H35.4058V13.1313C35.4058 12.7525 35.0938 12.4406 34.715 12.4406H30.0272C29.6373 12.4406 29.3365 12.7525 29.3365 13.1313V16.5768H25.891C25.501 16.5768 25.2002 16.8888 25.2002 17.2676V21.9554C25.2002 22.3342 25.5122 22.6461 25.891 22.6461H29.3365V26.0916C29.3365 26.4704 29.6484 26.7824 30.0272 26.7824H34.715C35.105 26.7824 35.4058 26.4704 35.4058 26.0916V22.6461H38.8513C39.2301 22.6573 39.542 22.3453 39.542 21.9554ZM38.1605 21.2646H34.715C34.3251 21.2646 34.0242 21.5766 34.0242 21.9554V25.4009H30.7291V21.9554C30.7291 21.5766 30.4172 21.2646 30.0384 21.2646H26.5929V17.9695H30.0384C30.4283 17.9695 30.7291 17.6575 30.7291 17.2787V13.8332H34.0242V17.2787C34.0242 17.6575 34.3362 17.9695 34.715 17.9695H38.1605V21.2646Z" fill="white"/>
</svg>
