<svg width="54" height="54" viewBox="0 0 54 54" fill="none" xmlns="http://www.w3.org/2000/svg">
<path fill-rule="evenodd" clip-rule="evenodd" d="M18.4239 4.96094C17.8927 4.96094 17.4624 5.39123 17.4624 5.92248V8.80711H14.5778C14.0465 8.80711 13.6162 9.2374 13.6162 9.76866V13.6148C13.6162 14.1461 14.0465 14.5764 14.5778 14.5764H17.4624V17.461C17.4624 17.9923 17.8927 18.4226 18.4239 18.4226H22.2701C22.8014 18.4226 23.2316 17.9923 23.2316 17.461V14.5764H26.1163C26.6475 14.5764 27.0778 14.1461 27.0778 13.6148V9.76866C27.0778 9.2374 26.6475 8.80711 26.1163 8.80711H23.2316V5.92248C23.2316 5.39123 22.8014 4.96094 22.2701 4.96094H18.4239ZM19.3855 9.76866V6.88403H21.3086V9.76866C21.3086 10.2999 21.7389 10.7302 22.2701 10.7302H25.1547V12.6533H22.2701C21.7389 12.6533 21.3086 13.0836 21.3086 13.6148V16.4995H19.3855V13.6148C19.3855 13.0836 18.9552 12.6533 18.4239 12.6533H15.5393V10.7302H18.4239C18.9552 10.7302 19.3855 10.2999 19.3855 9.76866Z" fill="white"/>
<path fill-rule="evenodd" clip-rule="evenodd" d="M4.96094 22.2701C4.96094 21.7389 5.39123 21.3086 5.92248 21.3086H9.76866C10.2999 21.3086 10.7302 21.7389 10.7302 22.2701V26.1163C10.7302 26.6476 10.2999 27.0779 9.76866 27.0779H5.92248C5.39123 27.0779 4.96094 26.6476 4.96094 26.1163V22.2701ZM6.88403 23.2317V25.1548H8.80711V23.2317H6.88403Z" fill="white"/>
<path fill-rule="evenodd" clip-rule="evenodd" d="M5.92346 29C5.39221 29 4.96191 29.4303 4.96191 29.9615V33.8077C4.96191 34.339 5.39221 34.7693 5.92346 34.7693H9.76963C10.3009 34.7693 10.7312 34.339 10.7312 33.8077V29.9615C10.7312 29.4303 10.3009 29 9.76963 29H5.92346ZM6.885 32.8462V30.9231H8.80809V32.8462H6.885Z" fill="white"/>
<path fill-rule="evenodd" clip-rule="evenodd" d="M4.96094 37.6539C4.96094 37.1227 5.39123 36.6924 5.92248 36.6924H9.76866C10.2999 36.6924 10.7302 37.1227 10.7302 37.6539V41.5001C10.7302 42.0314 10.2999 42.4616 9.76866 42.4616H5.92248C5.39123 42.4616 4.96094 42.0314 4.96094 41.5001V37.6539ZM6.88403 38.6155V40.5386H8.80711V38.6155H6.88403Z" fill="white"/>
<path d="M12.6539 23.2305C12.1227 23.2305 11.6924 23.6608 11.6924 24.192C11.6924 24.7233 12.1227 25.1536 12.6539 25.1536H34.7697C35.301 25.1536 35.7313 24.7233 35.7313 24.192C35.7313 23.6608 35.301 23.2305 34.7697 23.2305H12.6539Z" fill="white"/>
<path d="M11.6924 31.8845C11.6924 31.3533 12.1227 30.923 12.6539 30.923H34.7697C35.301 30.923 35.7313 31.3533 35.7313 31.8845C35.7313 32.4158 35.301 32.8461 34.7697 32.8461H12.6539C12.1227 32.8461 11.6924 32.4158 11.6924 31.8845Z" fill="white"/>
<path d="M12.6539 38.6152C12.1227 38.6152 11.6924 39.0455 11.6924 39.5768C11.6924 40.108 12.1227 40.5383 12.6539 40.5383H34.7697C35.301 40.5383 35.7313 40.108 35.7313 39.5768C35.7313 39.0455 35.301 38.6152 34.7697 38.6152H12.6539Z" fill="white"/>
<path fill-rule="evenodd" clip-rule="evenodd" d="M40.3848 2.88471V43.3176C40.3776 43.4546 40.3416 43.5892 40.2791 43.7094C40.2622 43.7406 40.243 43.7719 40.2238 43.8031C40.1877 43.856 40.1493 43.9041 40.1036 43.9498L30.4882 53.5652C30.3632 53.6902 30.2045 53.7767 30.0362 53.82C29.993 53.8296 29.9473 53.8368 29.904 53.8416C29.8704 53.844 29.8391 53.8465 29.8079 53.8465H2.88463C1.2909 53.8465 0 52.5556 0 50.9618V2.88463C0 1.2909 1.2909 0 2.88463 0H37.5002C39.0939 0 40.3848 1.29098 40.3848 2.88471ZM2.88433 51.9238C2.35307 51.9238 1.92278 51.4935 1.92278 50.9622V2.88502C1.92278 2.35377 2.35307 1.92348 2.88433 1.92348H37.4999C38.0312 1.92348 38.4614 2.35377 38.4614 2.88502V42.308H29.8079C29.2766 42.308 28.8463 42.7383 28.8463 43.2696V51.9231L2.88433 51.9238ZM30.7688 44.2314H37.1005L30.7688 50.5631V44.2314Z" fill="white"/>
<path fill-rule="evenodd" clip-rule="evenodd" d="M43.4229 20.3459C43.4229 18.2209 45.144 16.4998 47.269 16.4998C49.394 16.4998 51.1152 18.2209 51.1152 20.3459V22.668C52.8123 23.4108 53.9998 25.1055 53.9998 27.0767V39.5765C53.9998 40.1078 53.5695 40.538 53.0383 40.538C52.507 40.538 52.0767 40.1078 52.0767 39.5765V27.0767C52.0767 26.2234 51.7066 25.4541 51.1152 24.9277V48.2306C51.1152 48.4037 51.0671 48.5767 50.9782 48.7258L48.0936 53.5335C47.9205 53.822 47.608 53.9998 47.2691 53.9998C46.9301 53.9998 46.6176 53.822 46.4446 53.5335L43.5599 48.7258C43.471 48.5767 43.4229 48.4037 43.4229 48.2306L43.4229 20.3459ZM49.1921 22.269V20.3459C49.1921 19.2834 48.3316 18.4228 47.269 18.4228C46.2065 18.4228 45.3459 19.2834 45.3459 20.3459V22.269H49.1921ZM49.1921 24.1921H45.3459V46.3079H49.1921V24.1921ZM45.5046 48.2304L47.269 51.1703L49.0335 48.2304H45.5046Z" fill="white"/>
</svg>
