<svg width="61" height="56" viewBox="0 0 61 56" fill="none" xmlns="http://www.w3.org/2000/svg">
<path d="M60.235 5.38982C60.9111 4.21829 61.1316 3.32407 60.926 2.57287C60.6312 1.79487 60.0265 1.17485 59.2581 0.864793L59.0526 0.748541L58.8501 0.629305C58.1978 0.119569 57.3579 -0.0950554 56.5388 0.0390843C55.7883 0.238806 55.1241 0.879728 54.448 2.04523L46.5434 15.7454V13.5663C46.5404 10.4572 45.3044 7.47927 43.1093 5.27968C40.9142 3.08275 37.9357 1.84865 34.8326 1.8427H5.802C2.6002 1.84866 0.00297366 4.44506 0 7.64952V17.8294C0 18.2974 0.378257 18.676 0.845892 18.676H9.91251V50.1902C9.87081 51.7016 10.4427 53.1681 11.503 54.2472C12.5603 55.3293 14.0108 55.9344 15.5238 55.9225H15.5447H15.8485L49.9991 56V55.997C53.5613 55.994 56.4473 53.1055 56.4533 49.5374V43.9244C56.4533 43.7008 56.3639 43.4832 56.2031 43.3252C56.0452 43.1672 55.8308 43.0778 55.6044 43.0778H46.5439V29.1212L60.235 5.38982ZM51.8089 10.0043L54.6622 11.6527L43.7497 30.5756L40.8963 28.9271L51.8089 10.0043ZM53.8998 6.3795L56.7531 8.02797L55.5081 10.1861L52.6548 8.53765L53.8998 6.3795ZM39.3174 31.6606L40.0501 30.3937L42.9034 32.0422L42.1707 33.3091L39.088 35.357L39.3174 31.6606ZM56.9703 1.67568C57.1877 1.61904 57.5808 1.84857 57.9918 2.09002L58.2063 2.21522L58.4207 2.33744C58.8377 2.57293 59.2309 2.7965 59.2904 3.01411C59.3261 3.1393 59.341 3.54173 58.7662 4.54033L57.6017 6.55838L54.7454 4.9099L55.9099 2.89185C56.4877 1.89622 56.8422 1.71147 56.9703 1.67568ZM9.91091 16.9799H1.69369V7.64931C1.69369 5.38081 3.53141 3.53866 5.80093 3.53866C8.06755 3.53866 9.90817 5.38089 9.90817 7.64931L9.91091 16.9799ZM54.7568 44.7709V49.5344C54.7538 52.1635 52.6242 54.2919 49.9972 54.2979L19.9389 54.2323C20.9873 53.1532 21.5532 51.6955 21.5115 50.1902V44.7708L54.7568 44.7709ZM44.8446 43.0747H20.6626C20.4363 43.0747 20.2218 43.1641 20.061 43.3221C19.9031 43.4831 19.8138 43.6977 19.8138 43.9243V50.1901C19.8555 51.2632 19.4474 52.3065 18.6938 53.0726C17.9373 53.8357 16.9008 54.253 15.8286 54.2262H15.5695C14.4973 54.2471 13.4667 53.8267 12.7161 53.0637C11.9656 52.3006 11.5635 51.2602 11.6022 50.1901V7.64968C11.6052 6.1056 10.9887 4.62707 9.89557 3.53903H34.8278C40.3588 3.54499 44.8414 8.03123 44.8475 13.5671V18.6793L39.0038 28.8111L37.7499 30.9872C37.6844 31.1005 37.6457 31.2257 37.6368 31.3569L37.2883 36.955C37.2674 37.2769 37.4313 37.581 37.7112 37.7419C37.9882 37.9029 38.3337 37.8939 38.6018 37.7151L43.272 34.6149V34.6119C43.3822 34.5404 43.4715 34.445 43.5371 34.3288L44.7909 32.1527L44.8475 32.0543L44.8446 43.0747ZM29.6812 14.7289C29.6723 16.9527 28.0431 18.8366 25.845 19.1615C23.9894 19.4119 22.6075 21.0067 22.6194 22.8817V28.3487C22.6194 28.8167 22.9976 29.1953 23.4652 29.1983H26.9559C27.4236 29.1983 27.8018 28.8167 27.8018 28.3487V24.0413C31.3372 23.0576 34.0089 20.1512 34.6969 16.5444C35.3879 12.9404 33.9761 9.25307 31.0543 7.03218C28.1325 4.8113 24.2069 4.43883 20.9187 6.06937C17.6335 7.70288 15.5545 11.0565 15.5516 14.7292C15.5516 15.1972 15.9328 15.5758 16.4004 15.5758H19.8882C20.1145 15.5758 20.329 15.4863 20.4898 15.3283C20.6477 15.1703 20.737 14.9527 20.737 14.7292C20.7221 13.5309 21.1867 12.3773 22.0267 11.5247C22.8666 10.6722 24.0133 10.1922 25.2106 10.1922C26.4079 10.1922 27.5546 10.6722 28.3946 11.5247C29.2345 12.3773 29.6991 13.5309 29.6842 14.7292L29.6812 14.7289ZM19.0957 13.8794H17.2878C17.6065 10.8954 19.5782 8.34382 22.3809 7.27668C25.1866 6.21253 28.3526 6.81763 30.5684 8.8387C32.7874 10.8627 33.6808 13.9599 32.8796 16.8544C32.0814 19.7489 29.7255 21.9458 26.7858 22.542C26.3896 22.6225 26.1037 22.9682 26.1037 23.3736V27.5022L24.3077 27.4992V22.8818C24.3017 21.8533 25.0612 20.977 26.0798 20.8398C28.3941 20.509 30.3241 18.8963 31.0597 16.6726C31.7954 14.4518 31.2146 12.0045 29.5586 10.3531C27.8996 8.70164 25.4513 8.13228 23.2353 8.87753C21.0194 9.62574 19.4174 11.5632 19.0957 13.8794ZM25.2074 30.6854C24.159 30.6854 23.2119 31.3173 22.8098 32.2891C22.4107 33.2579 22.6311 34.3728 23.3727 35.115C24.1144 35.8572 25.2283 36.0808 26.1992 35.6784C27.1672 35.276 27.7987 34.331 27.7987 33.2817C27.7987 31.8479 26.6371 30.6854 25.2074 30.6854ZM25.2074 34.179C24.8441 34.179 24.5164 33.9613 24.3765 33.6245C24.2365 33.2877 24.3139 32.9031 24.5701 32.6438C24.8262 32.3874 25.2134 32.3099 25.55 32.45C25.8836 32.5871 26.104 32.915 26.104 33.2787C26.104 33.7765 25.7019 34.179 25.2074 34.179ZM19.6616 20.72C19.6646 20.9465 19.5753 21.1611 19.4144 21.3221C19.2566 21.4801 19.0391 21.5725 18.8158 21.5725H15.1106C14.6549 21.5576 14.2885 21.182 14.2885 20.7229C14.2885 20.2639 14.6549 19.8882 15.1106 19.8763H18.8158C19.2834 19.8763 19.6616 20.2519 19.6616 20.72ZM19.6616 24.5355C19.6646 24.7621 19.5753 24.9767 19.4144 25.1377C19.2566 25.2956 19.0391 25.3881 18.8158 25.3881H15.1106C14.6549 25.3731 14.2885 24.9976 14.2885 24.5385C14.2885 24.0794 14.6549 23.7038 15.1106 23.6919H18.8158C19.2834 23.6919 19.6616 24.0675 19.6616 24.5355ZM19.6616 28.3511C19.6646 28.5776 19.5753 28.7922 19.4144 28.9532C19.2566 29.1112 19.0391 29.2036 18.8158 29.2036H15.1106C14.6549 29.1887 14.2885 28.8131 14.2885 28.354C14.2885 27.895 14.6549 27.5193 15.1106 27.5074H18.8158C19.2834 27.5074 19.6616 27.8831 19.6616 28.3511ZM19.6616 32.1666C19.6646 32.3932 19.5753 32.6078 19.4144 32.7688C19.2566 32.9268 19.0391 33.0192 18.8158 33.0192H15.1106C14.6549 33.0043 14.2885 32.6287 14.2885 32.1696C14.2885 31.7105 14.6549 31.3349 15.1106 31.323H18.8158C19.2834 31.323 19.6616 31.6986 19.6616 32.1666ZM19.6616 35.9822C19.6646 36.2087 19.5753 36.4234 19.4144 36.5843C19.2566 36.7423 19.0391 36.8347 18.8158 36.8347H15.1106C14.6549 36.8198 14.2885 36.4442 14.2885 35.9852C14.2885 35.5261 14.6549 35.1505 15.1106 35.1386H18.8158C19.2834 35.1386 19.6616 35.5142 19.6616 35.9822ZM19.6616 39.7977C19.6616 40.0213 19.5723 40.2389 19.4144 40.3969C19.2566 40.5549 19.0391 40.6443 18.8158 40.6443H15.1106C14.643 40.6443 14.2647 40.2658 14.2647 39.7977C14.2647 39.3297 14.6429 38.9482 15.1106 38.9482H18.8158C19.2834 38.9482 19.6616 39.3297 19.6616 39.7977ZM34.8158 20.72C34.8158 20.4934 34.9052 20.2788 35.063 20.1208C35.2209 19.9598 35.4383 19.8704 35.6617 19.8704H39.3669C39.8226 19.8853 40.1889 20.2609 40.1889 20.72C40.1889 21.179 39.8225 21.5547 39.3669 21.5666H35.6617C35.4383 21.5666 35.2209 21.4771 35.063 21.3192C34.9052 21.1612 34.8158 20.9435 34.8158 20.72ZM38.1785 24.5355C38.1814 24.7621 38.0921 24.9767 37.9342 25.1377C37.7734 25.2956 37.559 25.3881 37.3326 25.3881H33.6304C33.4011 25.394 33.1777 25.3076 33.0139 25.1466C32.85 24.9886 32.7547 24.768 32.7547 24.5385C32.7547 24.309 32.85 24.0884 33.0139 23.9304C33.1777 23.7694 33.4011 23.683 33.6304 23.6919H37.3326C37.8002 23.6919 38.1785 24.0675 38.1785 24.5355ZM36.3616 28.3511H36.3646C36.3646 28.5776 36.2753 28.7922 36.1174 28.9532C35.9595 29.1112 35.7421 29.2036 35.5187 29.2036H31.8136C31.5842 29.2096 31.3638 29.1231 31.197 28.9622C31.0332 28.8042 30.9409 28.5836 30.9409 28.354C30.9409 28.1245 31.0332 27.9039 31.197 27.7459C31.3638 27.585 31.5842 27.4985 31.8136 27.5075H35.5187C35.9864 27.5045 36.3646 27.8831 36.3676 28.3511L36.3616 28.3511ZM36.3616 32.1666H36.3646C36.3646 32.3932 36.2753 32.6078 36.1174 32.7688C35.9595 32.9268 35.7421 33.0192 35.5187 33.0192H31.8136C31.5842 33.0251 31.3638 32.9387 31.197 32.7777C31.0332 32.6197 30.9409 32.3991 30.9409 32.1696C30.9409 31.9401 31.0332 31.7195 31.197 31.5615C31.3638 31.4005 31.5842 31.3141 31.8136 31.323H35.5187C35.9864 31.32 36.3646 31.6986 36.3676 32.1666L36.3616 32.1666ZM36.3616 35.9822H36.3646C36.3646 36.2087 36.2753 36.4234 36.1174 36.5843C35.9595 36.7423 35.7421 36.8347 35.5187 36.8347H31.8136C31.5842 36.8407 31.3638 36.7542 31.197 36.5933C31.0332 36.4353 30.9409 36.2147 30.9409 35.9852C30.9409 35.7556 31.0332 35.535 31.197 35.3771C31.3638 35.2161 31.5842 35.1296 31.8136 35.1386H35.5187C35.9864 35.1356 36.3646 35.5142 36.3676 35.9822L36.3616 35.9822ZM36.3616 39.7977H36.3646C36.3646 40.2658 35.9864 40.6443 35.5187 40.6443H31.8135C31.3459 40.6443 30.9676 40.2658 30.9676 39.7977C30.9676 39.3297 31.3459 38.9482 31.8135 38.9482H35.5187C35.7421 38.9482 35.9595 39.0376 36.1174 39.1956C36.2782 39.3566 36.3676 39.5712 36.3676 39.7977L36.3616 39.7977ZM41.702 16.9044C41.702 17.131 41.6126 17.3456 41.4547 17.5065C41.2969 17.6645 41.0795 17.7569 40.8561 17.7569H37.1509C36.6833 17.7569 36.302 17.3754 36.302 16.9074C36.302 16.4393 36.6833 16.0608 37.1509 16.0608H40.8561C41.3207 16.0608 41.699 16.4364 41.702 16.9044ZM37.9461 12.2423H41.6483L41.6543 12.2393C42.1219 12.2393 42.5002 12.6208 42.5002 13.0888C42.5002 13.5569 42.1219 13.9354 41.6543 13.9354H37.9491C37.4815 13.9354 37.1032 13.5569 37.1032 13.0888C37.1032 12.6208 37.4815 12.2393 37.9491 12.2393L37.9461 12.2423ZM36.1174 9.27329H36.1204C36.1204 8.80529 36.4986 8.42372 36.9663 8.42372H40.6715C41.1391 8.42372 41.5174 8.80527 41.5174 9.27329C41.5174 9.74131 41.1391 10.1199 40.6715 10.1199H36.9693C36.5016 10.1199 36.1234 9.74131 36.1234 9.27329H36.1174Z" fill="white"/>
</svg>
