<svg width="22" height="22" viewBox="0 0 22 22" fill="none" xmlns="http://www.w3.org/2000/svg">
<path fill-rule="evenodd" clip-rule="evenodd" d="M10.8354 1.09721C5.45721 1.09721 1.09707 5.45708 1.09707 10.8355C1.09707 16.214 5.45694 20.5739 10.8354 20.5739C16.2139 20.5739 20.5737 16.214 20.5737 10.8355C20.5737 5.45708 16.2136 1.09721 10.8354 1.09721ZM10.8354 10.4548L7.20348 14.087C6.85763 14.4328 6.26715 14.1838 6.26715 13.6992V10.5958C6.26715 10.4442 6.32858 10.3073 6.4279 10.208L10.4476 6.18828C10.6617 5.97422 11.0091 5.97422 11.2235 6.18828L15.2432 10.2077C15.3503 10.3149 15.4039 10.4553 15.4039 10.5955V13.6989C15.4039 14.1884 14.8102 14.4296 14.4673 14.0867L10.8354 10.4548ZM7.36422 12.3745V10.8225L10.8354 7.35165L14.3066 10.8228V12.3748L11.2232 9.29141C11.0091 9.07708 10.6614 9.07708 10.4473 9.29141L7.36422 12.3745ZM3.17349 3.17363C7.40509 -1.05796 14.2654 -1.05796 18.497 3.17363C22.7286 7.40523 22.7286 14.2656 18.497 18.4972C14.2657 22.7285 7.40482 22.7285 3.17349 18.4972C-1.05783 14.2658 -1.05783 7.40523 3.17349 3.17363Z" fill="#F00045" fill-opacity="0.6"/>
<path d="M6.99414 10.2235V12.7672L10.8096 10.2235L15.2611 13.4031V10.8594L10.8096 6.40798L6.99414 10.2235Z" fill="#F00045" fill-opacity="0.3"/>
</svg>
