<svg width="73" height="64" viewBox="0 0 73 64" fill="none" xmlns="http://www.w3.org/2000/svg">
<g filter="url(#filter0_d_40_250)">
<mask id="path-1-inside-1_40_250" fill="white">
<path d="M22.8483 4.88959C22.6287 4.55219 22.7257 4.10422 23.0651 3.88588L23.1906 3.80649C31.2703 -1.26883 41.7149 -1.26883 49.7976 3.80649L49.9202 3.88588C50.2596 4.1042 50.3537 4.55219 50.137 4.88959C49.9972 5.10508 49.7634 5.22133 49.5238 5.22133C49.3869 5.22133 49.25 5.18447 49.1273 5.10508L49.019 5.03703C41.4095 0.256627 31.5781 0.256627 23.9716 5.03703L23.8632 5.10508C23.5238 5.3234 23.0732 5.227 22.8535 4.88958L22.8483 4.88959ZM66.1886 19.0496C66.3255 19.5259 66.3968 20.0589 66.3883 20.6629C66.3883 20.6828 66.3883 20.7026 66.3854 20.7253L66.3683 20.8841C66.1402 22.7809 64.8196 24.4056 62.8346 25.2448C61.9447 25.622 61.0121 25.8091 60.1251 25.8091C58.9729 25.8091 57.8948 25.4972 57.0762 24.8791C55.9525 24.037 55.4135 22.6902 55.5133 21.0656C54.2755 20.7083 53.0576 20.2774 51.874 19.7783C51.2066 21.8339 50.2454 23.7875 49.2986 25.7043C48.0807 28.1682 46.8229 30.7143 46.2839 33.3686C45.4853 37.2019 45.3142 41.4894 45.143 45.634C45.0147 48.8295 44.8807 52.1327 44.4585 55.1551C44.4471 55.2345 44.4243 55.3082 44.3901 55.3791C44.0421 56.0709 43.1865 56.0142 42.7302 55.983L42.6532 55.9773C38.6774 55.6654 34.3106 55.6654 30.3467 55.9773L30.1328 55.9887C30.0444 55.9943 29.9389 56 29.8276 56C29.4283 56 28.9149 55.9178 28.6212 55.4216C28.5727 55.3394 28.5413 55.2486 28.5271 55.1551C28.105 52.1893 27.9709 48.8662 27.8426 45.6478C27.6886 41.8512 27.5317 37.924 26.9071 34.4936C26.4964 31.4059 25.1388 28.6556 23.7014 25.7435C22.7488 23.8154 21.7819 21.8477 21.1117 19.7778C19.928 20.2768 18.7073 20.7107 17.4695 21.0679C17.5636 22.7152 17.0217 24.045 15.9094 24.8814C15.0909 25.4967 14.0127 25.8114 12.8605 25.8114C11.9735 25.8114 11.0409 25.6243 10.151 25.2472C8.16594 24.4079 6.84833 22.7833 6.62016 20.9034L6.60305 20.7276C6.6002 20.7077 6.6002 20.6879 6.6002 20.6652C6.59164 20.0613 6.66579 19.5254 6.79984 19.0518C3.91353 15.2439 3.21472 11.246 4.90893 8.02757C6.5175 4.96824 10.0798 3.22445 14.2036 3.47399C16.4283 3.6583 18.3676 4.52873 20.2472 5.37087C21.1826 5.7905 22.1524 6.22716 23.1278 6.55887C27.2804 8.25157 45.719 8.25156 49.8319 6.57305C50.8472 6.2243 51.8141 5.79051 52.7524 5.37089C54.6291 4.52876 56.5714 3.65831 58.7789 3.47402C62.9145 3.21884 66.4826 4.96543 68.0911 8.02476C69.7852 11.2429 69.0865 15.2436 66.2002 19.049L66.1886 19.0496ZM15.9887 20.8273C15.5324 18.5392 12.9426 17.2094 10.8235 17.4249C9.98221 17.5128 8.03135 17.9976 8.05129 20.6146L8.06269 20.7422C8.22811 22.106 9.19499 23.2657 10.7151 23.9093C12.2667 24.5671 14.0008 24.4906 15.0218 23.7222C15.8261 23.1183 16.1512 22.1457 15.9858 20.8273L15.9887 20.8273ZM31.7181 54.4235C32.0717 51.4208 31.7894 45.7248 30.9252 43.0225C30.6714 42.2285 30.7712 41.6388 31.2247 41.2617C31.5099 41.0235 31.8407 40.9782 32.0575 40.947L32.1487 40.9356C33.0272 40.791 33.5577 39.6257 33.609 38.605C33.6832 37.1986 33.7488 35.7242 33.7488 34.4767C33.7488 31.5024 32.5195 28.6103 30.3747 26.5431C29.2168 25.4288 28.3241 24.5158 27.7223 23.8325C26.0681 21.9555 25.1697 19.7808 24.2998 17.6797C23.1076 14.7961 21.981 12.0742 19.0205 10.3304C16.8301 9.04321 13.5416 8.45628 11.1314 10.0469C10.3841 10.5403 9.92779 11.2548 9.76519 12.1734C9.55414 13.3728 9.90779 14.833 10.6665 15.9842H10.6722C13.1307 15.7318 16.0912 17.0588 17.1408 19.6531C18.3558 19.2987 19.5537 18.8734 20.7087 18.3744C20.4064 17.141 20.2296 15.868 20.241 14.541C20.2438 14.1412 20.5718 13.8208 20.9711 13.8208H20.9768C21.3818 13.8237 21.7041 14.1526 21.7013 14.5524C21.667 18.329 23.2899 21.6209 25.0097 25.1055C26.4357 27.9948 27.9074 30.9805 28.3466 34.2695C28.9855 37.7683 29.1453 41.7465 29.2992 45.5942C29.419 48.6252 29.5474 51.7555 29.9153 54.5484C29.9609 54.5455 30.0037 54.5427 30.0379 54.5427C30.1178 54.537 30.1977 54.5313 30.2718 54.5313C30.7481 54.4945 31.233 54.4605 31.7207 54.4321L31.7181 54.4235ZM39.7839 54.3526C39.4531 51.1316 39.7468 45.4522 40.6652 42.5829C40.6937 42.5006 40.7108 42.4354 40.7194 42.3844L40.5967 42.3674C38.8683 42.0838 37.9956 40.2579 37.9129 38.6786C37.8387 37.2524 37.7703 35.7582 37.7703 34.4765C37.7703 31.111 39.1621 27.8418 41.5864 25.5028C42.7159 24.414 43.5829 23.5323 44.159 22.8772C45.6535 21.1817 46.5034 19.1204 47.3306 17.1271C48.5627 14.1499 49.8347 11.0707 53.2173 9.08029C55.8014 7.56049 59.7201 6.89706 62.658 8.83644C63.7333 9.54812 64.4263 10.6142 64.6545 11.9213C64.9055 13.3446 64.5746 14.975 63.7932 16.3587C64.4178 16.6252 64.9939 17.0307 65.4445 17.5949C67.6235 14.4419 68.1227 11.2437 66.785 8.70027C65.4474 6.15695 62.4184 4.70808 58.8732 4.92358C56.9338 5.0852 55.1883 5.86777 53.343 6.69568C52.3761 7.1295 51.375 7.57745 50.3368 7.93188C45.9617 9.71814 27.0155 9.71814 22.6033 7.91771C21.605 7.57746 20.6068 7.1295 19.6371 6.69566C17.7918 5.86775 16.0463 5.08513 14.0897 4.92073C10.5674 4.71658 7.5327 6.1541 6.19253 8.69742C4.85491 11.2407 5.35404 14.4391 7.53299 17.592C7.98362 17.0278 8.55971 16.6224 9.18434 16.3558C8.40288 14.975 8.07205 13.3419 8.323 11.9185C8.55117 10.6113 9.24421 9.54529 10.3195 8.83359C13.2571 6.89418 17.1788 7.55768 19.7602 9.07743C23.1428 11.0679 24.4148 14.1471 25.6469 17.1242C26.4712 19.1175 27.324 21.1788 28.8185 22.8744C29.3946 23.5294 30.2617 24.414 31.3911 25.4999C33.8182 27.8392 35.2072 31.1083 35.2072 34.4737C35.2072 35.7552 35.1388 37.2523 35.0646 38.6757C34.9847 40.255 34.1091 42.0838 32.3808 42.3645L32.2581 42.3815C32.2695 42.4297 32.2866 42.4949 32.3123 42.58C33.2307 45.4494 33.5216 51.1284 33.1936 54.3497C35.3641 54.2647 37.5972 54.2647 39.7791 54.3497L39.7839 54.3526ZM52.738 14.533C52.7523 15.8627 52.5755 17.1358 52.2731 18.3692C53.4311 18.8683 54.6318 19.2935 55.8468 19.648C56.9106 17.0423 59.8512 15.7295 62.3068 15.979H62.3125C63.0712 14.8307 63.4248 13.3704 63.2138 12.1683C63.0513 11.2496 62.5921 10.5351 61.8477 10.0417C59.4376 8.44827 56.1492 9.03802 53.9585 10.3253C50.998 12.069 49.8714 14.7909 48.6793 17.6745C47.8094 19.7755 46.9109 21.9503 45.2567 23.8273C44.6521 24.5135 43.7594 25.4264 42.6014 26.5408C40.4567 28.605 39.2302 31.497 39.2302 34.4715C39.2302 35.719 39.2987 37.1934 39.37 38.5997C39.4213 39.6204 39.9518 40.7858 40.8331 40.9304L40.9215 40.9417C41.1383 40.9701 41.4691 41.0183 41.7572 41.2565C42.2078 41.6307 42.3105 42.2233 42.0566 43.0172C41.1896 45.7194 40.9101 51.4154 41.2638 54.4182C41.7658 54.4466 42.262 54.4806 42.7555 54.5203L42.8268 54.526C42.8867 54.5316 42.9808 54.5373 43.0692 54.5373C43.44 51.7076 43.5598 48.7191 43.6881 45.5665C43.8592 41.3616 44.0361 37.0152 44.8546 33.068C45.4308 30.2327 46.7313 27.6014 47.992 25.0553C49.7061 21.5848 51.3261 18.3071 51.2833 14.5449C51.2776 14.1423 51.6027 13.8162 52.0049 13.8106C52.4327 13.8163 52.7407 14.1281 52.7436 14.5279L52.738 14.533ZM64.9277 20.6148C64.9477 17.9977 62.9968 17.5129 62.1554 17.425C62.0014 17.408 61.8474 17.4024 61.6934 17.4024C59.6741 17.4024 57.4152 18.7067 56.9846 20.8786C56.8249 22.1431 57.15 23.1185 57.9571 23.7224C58.981 24.4908 60.7122 24.5674 62.2638 23.9096C63.7839 23.2688 64.7508 22.1063 64.9162 20.7283L64.9276 20.6177L64.9277 20.6148Z"/>
</mask>
<path d="M22.8483 4.88959C22.6287 4.55219 22.7257 4.10422 23.0651 3.88588L23.1906 3.80649C31.2703 -1.26883 41.7149 -1.26883 49.7976 3.80649L49.9202 3.88588C50.2596 4.1042 50.3537 4.55219 50.137 4.88959C49.9972 5.10508 49.7634 5.22133 49.5238 5.22133C49.3869 5.22133 49.25 5.18447 49.1273 5.10508L49.019 5.03703C41.4095 0.256627 31.5781 0.256627 23.9716 5.03703L23.8632 5.10508C23.5238 5.3234 23.0732 5.227 22.8535 4.88958L22.8483 4.88959ZM66.1886 19.0496C66.3255 19.5259 66.3968 20.0589 66.3883 20.6629C66.3883 20.6828 66.3883 20.7026 66.3854 20.7253L66.3683 20.8841C66.1402 22.7809 64.8196 24.4056 62.8346 25.2448C61.9447 25.622 61.0121 25.8091 60.1251 25.8091C58.9729 25.8091 57.8948 25.4972 57.0762 24.8791C55.9525 24.037 55.4135 22.6902 55.5133 21.0656C54.2755 20.7083 53.0576 20.2774 51.874 19.7783C51.2066 21.8339 50.2454 23.7875 49.2986 25.7043C48.0807 28.1682 46.8229 30.7143 46.2839 33.3686C45.4853 37.2019 45.3142 41.4894 45.143 45.634C45.0147 48.8295 44.8807 52.1327 44.4585 55.1551C44.4471 55.2345 44.4243 55.3082 44.3901 55.3791C44.0421 56.0709 43.1865 56.0142 42.7302 55.983L42.6532 55.9773C38.6774 55.6654 34.3106 55.6654 30.3467 55.9773L30.1328 55.9887C30.0444 55.9943 29.9389 56 29.8276 56C29.4283 56 28.9149 55.9178 28.6212 55.4216C28.5727 55.3394 28.5413 55.2486 28.5271 55.1551C28.105 52.1893 27.9709 48.8662 27.8426 45.6478C27.6886 41.8512 27.5317 37.924 26.9071 34.4936C26.4964 31.4059 25.1388 28.6556 23.7014 25.7435C22.7488 23.8154 21.7819 21.8477 21.1117 19.7778C19.928 20.2768 18.7073 20.7107 17.4695 21.0679C17.5636 22.7152 17.0217 24.045 15.9094 24.8814C15.0909 25.4967 14.0127 25.8114 12.8605 25.8114C11.9735 25.8114 11.0409 25.6243 10.151 25.2472C8.16594 24.4079 6.84833 22.7833 6.62016 20.9034L6.60305 20.7276C6.6002 20.7077 6.6002 20.6879 6.6002 20.6652C6.59164 20.0613 6.66579 19.5254 6.79984 19.0518C3.91353 15.2439 3.21472 11.246 4.90893 8.02757C6.5175 4.96824 10.0798 3.22445 14.2036 3.47399C16.4283 3.6583 18.3676 4.52873 20.2472 5.37087C21.1826 5.7905 22.1524 6.22716 23.1278 6.55887C27.2804 8.25157 45.719 8.25156 49.8319 6.57305C50.8472 6.2243 51.8141 5.79051 52.7524 5.37089C54.6291 4.52876 56.5714 3.65831 58.7789 3.47402C62.9145 3.21884 66.4826 4.96543 68.0911 8.02476C69.7852 11.2429 69.0865 15.2436 66.2002 19.049L66.1886 19.0496ZM15.9887 20.8273C15.5324 18.5392 12.9426 17.2094 10.8235 17.4249C9.98221 17.5128 8.03135 17.9976 8.05129 20.6146L8.06269 20.7422C8.22811 22.106 9.19499 23.2657 10.7151 23.9093C12.2667 24.5671 14.0008 24.4906 15.0218 23.7222C15.8261 23.1183 16.1512 22.1457 15.9858 20.8273L15.9887 20.8273ZM31.7181 54.4235C32.0717 51.4208 31.7894 45.7248 30.9252 43.0225C30.6714 42.2285 30.7712 41.6388 31.2247 41.2617C31.5099 41.0235 31.8407 40.9782 32.0575 40.947L32.1487 40.9356C33.0272 40.791 33.5577 39.6257 33.609 38.605C33.6832 37.1986 33.7488 35.7242 33.7488 34.4767C33.7488 31.5024 32.5195 28.6103 30.3747 26.5431C29.2168 25.4288 28.3241 24.5158 27.7223 23.8325C26.0681 21.9555 25.1697 19.7808 24.2998 17.6797C23.1076 14.7961 21.981 12.0742 19.0205 10.3304C16.8301 9.04321 13.5416 8.45628 11.1314 10.0469C10.3841 10.5403 9.92779 11.2548 9.76519 12.1734C9.55414 13.3728 9.90779 14.833 10.6665 15.9842H10.6722C13.1307 15.7318 16.0912 17.0588 17.1408 19.6531C18.3558 19.2987 19.5537 18.8734 20.7087 18.3744C20.4064 17.141 20.2296 15.868 20.241 14.541C20.2438 14.1412 20.5718 13.8208 20.9711 13.8208H20.9768C21.3818 13.8237 21.7041 14.1526 21.7013 14.5524C21.667 18.329 23.2899 21.6209 25.0097 25.1055C26.4357 27.9948 27.9074 30.9805 28.3466 34.2695C28.9855 37.7683 29.1453 41.7465 29.2992 45.5942C29.419 48.6252 29.5474 51.7555 29.9153 54.5484C29.9609 54.5455 30.0037 54.5427 30.0379 54.5427C30.1178 54.537 30.1977 54.5313 30.2718 54.5313C30.7481 54.4945 31.233 54.4605 31.7207 54.4321L31.7181 54.4235ZM39.7839 54.3526C39.4531 51.1316 39.7468 45.4522 40.6652 42.5829C40.6937 42.5006 40.7108 42.4354 40.7194 42.3844L40.5967 42.3674C38.8683 42.0838 37.9956 40.2579 37.9129 38.6786C37.8387 37.2524 37.7703 35.7582 37.7703 34.4765C37.7703 31.111 39.1621 27.8418 41.5864 25.5028C42.7159 24.414 43.5829 23.5323 44.159 22.8772C45.6535 21.1817 46.5034 19.1204 47.3306 17.1271C48.5627 14.1499 49.8347 11.0707 53.2173 9.08029C55.8014 7.56049 59.7201 6.89706 62.658 8.83644C63.7333 9.54812 64.4263 10.6142 64.6545 11.9213C64.9055 13.3446 64.5746 14.975 63.7932 16.3587C64.4178 16.6252 64.9939 17.0307 65.4445 17.5949C67.6235 14.4419 68.1227 11.2437 66.785 8.70027C65.4474 6.15695 62.4184 4.70808 58.8732 4.92358C56.9338 5.0852 55.1883 5.86777 53.343 6.69568C52.3761 7.1295 51.375 7.57745 50.3368 7.93188C45.9617 9.71814 27.0155 9.71814 22.6033 7.91771C21.605 7.57746 20.6068 7.1295 19.6371 6.69566C17.7918 5.86775 16.0463 5.08513 14.0897 4.92073C10.5674 4.71658 7.5327 6.1541 6.19253 8.69742C4.85491 11.2407 5.35404 14.4391 7.53299 17.592C7.98362 17.0278 8.55971 16.6224 9.18434 16.3558C8.40288 14.975 8.07205 13.3419 8.323 11.9185C8.55117 10.6113 9.24421 9.54529 10.3195 8.83359C13.2571 6.89418 17.1788 7.55768 19.7602 9.07743C23.1428 11.0679 24.4148 14.1471 25.6469 17.1242C26.4712 19.1175 27.324 21.1788 28.8185 22.8744C29.3946 23.5294 30.2617 24.414 31.3911 25.4999C33.8182 27.8392 35.2072 31.1083 35.2072 34.4737C35.2072 35.7552 35.1388 37.2523 35.0646 38.6757C34.9847 40.255 34.1091 42.0838 32.3808 42.3645L32.2581 42.3815C32.2695 42.4297 32.2866 42.4949 32.3123 42.58C33.2307 45.4494 33.5216 51.1284 33.1936 54.3497C35.3641 54.2647 37.5972 54.2647 39.7791 54.3497L39.7839 54.3526ZM52.738 14.533C52.7523 15.8627 52.5755 17.1358 52.2731 18.3692C53.4311 18.8683 54.6318 19.2935 55.8468 19.648C56.9106 17.0423 59.8512 15.7295 62.3068 15.979H62.3125C63.0712 14.8307 63.4248 13.3704 63.2138 12.1683C63.0513 11.2496 62.5921 10.5351 61.8477 10.0417C59.4376 8.44827 56.1492 9.03802 53.9585 10.3253C50.998 12.069 49.8714 14.7909 48.6793 17.6745C47.8094 19.7755 46.9109 21.9503 45.2567 23.8273C44.6521 24.5135 43.7594 25.4264 42.6014 26.5408C40.4567 28.605 39.2302 31.497 39.2302 34.4715C39.2302 35.719 39.2987 37.1934 39.37 38.5997C39.4213 39.6204 39.9518 40.7858 40.8331 40.9304L40.9215 40.9417C41.1383 40.9701 41.4691 41.0183 41.7572 41.2565C42.2078 41.6307 42.3105 42.2233 42.0566 43.0172C41.1896 45.7194 40.9101 51.4154 41.2638 54.4182C41.7658 54.4466 42.262 54.4806 42.7555 54.5203L42.8268 54.526C42.8867 54.5316 42.9808 54.5373 43.0692 54.5373C43.44 51.7076 43.5598 48.7191 43.6881 45.5665C43.8592 41.3616 44.0361 37.0152 44.8546 33.068C45.4308 30.2327 46.7313 27.6014 47.992 25.0553C49.7061 21.5848 51.3261 18.3071 51.2833 14.5449C51.2776 14.1423 51.6027 13.8162 52.0049 13.8106C52.4327 13.8163 52.7407 14.1281 52.7436 14.5279L52.738 14.533ZM64.9277 20.6148C64.9477 17.9977 62.9968 17.5129 62.1554 17.425C62.0014 17.408 61.8474 17.4024 61.6934 17.4024C59.6741 17.4024 57.4152 18.7067 56.9846 20.8786C56.8249 22.1431 57.15 23.1185 57.9571 23.7224C58.981 24.4908 60.7122 24.5674 62.2638 23.9096C63.7839 23.2688 64.7508 22.1063 64.9162 20.7283L64.9276 20.6177L64.9277 20.6148Z" fill="white"/>
<path d="M22.8483 4.88959C22.6287 4.55219 22.7257 4.10422 23.0651 3.88588L23.1906 3.80649C31.2703 -1.26883 41.7149 -1.26883 49.7976 3.80649L49.9202 3.88588C50.2596 4.1042 50.3537 4.55219 50.137 4.88959C49.9972 5.10508 49.7634 5.22133 49.5238 5.22133C49.3869 5.22133 49.25 5.18447 49.1273 5.10508L49.019 5.03703C41.4095 0.256627 31.5781 0.256627 23.9716 5.03703L23.8632 5.10508C23.5238 5.3234 23.0732 5.227 22.8535 4.88958L22.8483 4.88959ZM66.1886 19.0496C66.3255 19.5259 66.3968 20.0589 66.3883 20.6629C66.3883 20.6828 66.3883 20.7026 66.3854 20.7253L66.3683 20.8841C66.1402 22.7809 64.8196 24.4056 62.8346 25.2448C61.9447 25.622 61.0121 25.8091 60.1251 25.8091C58.9729 25.8091 57.8948 25.4972 57.0762 24.8791C55.9525 24.037 55.4135 22.6902 55.5133 21.0656C54.2755 20.7083 53.0576 20.2774 51.874 19.7783C51.2066 21.8339 50.2454 23.7875 49.2986 25.7043C48.0807 28.1682 46.8229 30.7143 46.2839 33.3686C45.4853 37.2019 45.3142 41.4894 45.143 45.634C45.0147 48.8295 44.8807 52.1327 44.4585 55.1551C44.4471 55.2345 44.4243 55.3082 44.3901 55.3791C44.0421 56.0709 43.1865 56.0142 42.7302 55.983L42.6532 55.9773C38.6774 55.6654 34.3106 55.6654 30.3467 55.9773L30.1328 55.9887C30.0444 55.9943 29.9389 56 29.8276 56C29.4283 56 28.9149 55.9178 28.6212 55.4216C28.5727 55.3394 28.5413 55.2486 28.5271 55.1551C28.105 52.1893 27.9709 48.8662 27.8426 45.6478C27.6886 41.8512 27.5317 37.924 26.9071 34.4936C26.4964 31.4059 25.1388 28.6556 23.7014 25.7435C22.7488 23.8154 21.7819 21.8477 21.1117 19.7778C19.928 20.2768 18.7073 20.7107 17.4695 21.0679C17.5636 22.7152 17.0217 24.045 15.9094 24.8814C15.0909 25.4967 14.0127 25.8114 12.8605 25.8114C11.9735 25.8114 11.0409 25.6243 10.151 25.2472C8.16594 24.4079 6.84833 22.7833 6.62016 20.9034L6.60305 20.7276C6.6002 20.7077 6.6002 20.6879 6.6002 20.6652C6.59164 20.0613 6.66579 19.5254 6.79984 19.0518C3.91353 15.2439 3.21472 11.246 4.90893 8.02757C6.5175 4.96824 10.0798 3.22445 14.2036 3.47399C16.4283 3.6583 18.3676 4.52873 20.2472 5.37087C21.1826 5.7905 22.1524 6.22716 23.1278 6.55887C27.2804 8.25157 45.719 8.25156 49.8319 6.57305C50.8472 6.2243 51.8141 5.79051 52.7524 5.37089C54.6291 4.52876 56.5714 3.65831 58.7789 3.47402C62.9145 3.21884 66.4826 4.96543 68.0911 8.02476C69.7852 11.2429 69.0865 15.2436 66.2002 19.049L66.1886 19.0496ZM15.9887 20.8273C15.5324 18.5392 12.9426 17.2094 10.8235 17.4249C9.98221 17.5128 8.03135 17.9976 8.05129 20.6146L8.06269 20.7422C8.22811 22.106 9.19499 23.2657 10.7151 23.9093C12.2667 24.5671 14.0008 24.4906 15.0218 23.7222C15.8261 23.1183 16.1512 22.1457 15.9858 20.8273L15.9887 20.8273ZM31.7181 54.4235C32.0717 51.4208 31.7894 45.7248 30.9252 43.0225C30.6714 42.2285 30.7712 41.6388 31.2247 41.2617C31.5099 41.0235 31.8407 40.9782 32.0575 40.947L32.1487 40.9356C33.0272 40.791 33.5577 39.6257 33.609 38.605C33.6832 37.1986 33.7488 35.7242 33.7488 34.4767C33.7488 31.5024 32.5195 28.6103 30.3747 26.5431C29.2168 25.4288 28.3241 24.5158 27.7223 23.8325C26.0681 21.9555 25.1697 19.7808 24.2998 17.6797C23.1076 14.7961 21.981 12.0742 19.0205 10.3304C16.8301 9.04321 13.5416 8.45628 11.1314 10.0469C10.3841 10.5403 9.92779 11.2548 9.76519 12.1734C9.55414 13.3728 9.90779 14.833 10.6665 15.9842H10.6722C13.1307 15.7318 16.0912 17.0588 17.1408 19.6531C18.3558 19.2987 19.5537 18.8734 20.7087 18.3744C20.4064 17.141 20.2296 15.868 20.241 14.541C20.2438 14.1412 20.5718 13.8208 20.9711 13.8208H20.9768C21.3818 13.8237 21.7041 14.1526 21.7013 14.5524C21.667 18.329 23.2899 21.6209 25.0097 25.1055C26.4357 27.9948 27.9074 30.9805 28.3466 34.2695C28.9855 37.7683 29.1453 41.7465 29.2992 45.5942C29.419 48.6252 29.5474 51.7555 29.9153 54.5484C29.9609 54.5455 30.0037 54.5427 30.0379 54.5427C30.1178 54.537 30.1977 54.5313 30.2718 54.5313C30.7481 54.4945 31.233 54.4605 31.7207 54.4321L31.7181 54.4235ZM39.7839 54.3526C39.4531 51.1316 39.7468 45.4522 40.6652 42.5829C40.6937 42.5006 40.7108 42.4354 40.7194 42.3844L40.5967 42.3674C38.8683 42.0838 37.9956 40.2579 37.9129 38.6786C37.8387 37.2524 37.7703 35.7582 37.7703 34.4765C37.7703 31.111 39.1621 27.8418 41.5864 25.5028C42.7159 24.414 43.5829 23.5323 44.159 22.8772C45.6535 21.1817 46.5034 19.1204 47.3306 17.1271C48.5627 14.1499 49.8347 11.0707 53.2173 9.08029C55.8014 7.56049 59.7201 6.89706 62.658 8.83644C63.7333 9.54812 64.4263 10.6142 64.6545 11.9213C64.9055 13.3446 64.5746 14.975 63.7932 16.3587C64.4178 16.6252 64.9939 17.0307 65.4445 17.5949C67.6235 14.4419 68.1227 11.2437 66.785 8.70027C65.4474 6.15695 62.4184 4.70808 58.8732 4.92358C56.9338 5.0852 55.1883 5.86777 53.343 6.69568C52.3761 7.1295 51.375 7.57745 50.3368 7.93188C45.9617 9.71814 27.0155 9.71814 22.6033 7.91771C21.605 7.57746 20.6068 7.1295 19.6371 6.69566C17.7918 5.86775 16.0463 5.08513 14.0897 4.92073C10.5674 4.71658 7.5327 6.1541 6.19253 8.69742C4.85491 11.2407 5.35404 14.4391 7.53299 17.592C7.98362 17.0278 8.55971 16.6224 9.18434 16.3558C8.40288 14.975 8.07205 13.3419 8.323 11.9185C8.55117 10.6113 9.24421 9.54529 10.3195 8.83359C13.2571 6.89418 17.1788 7.55768 19.7602 9.07743C23.1428 11.0679 24.4148 14.1471 25.6469 17.1242C26.4712 19.1175 27.324 21.1788 28.8185 22.8744C29.3946 23.5294 30.2617 24.414 31.3911 25.4999C33.8182 27.8392 35.2072 31.1083 35.2072 34.4737C35.2072 35.7552 35.1388 37.2523 35.0646 38.6757C34.9847 40.255 34.1091 42.0838 32.3808 42.3645L32.2581 42.3815C32.2695 42.4297 32.2866 42.4949 32.3123 42.58C33.2307 45.4494 33.5216 51.1284 33.1936 54.3497C35.3641 54.2647 37.5972 54.2647 39.7791 54.3497L39.7839 54.3526ZM52.738 14.533C52.7523 15.8627 52.5755 17.1358 52.2731 18.3692C53.4311 18.8683 54.6318 19.2935 55.8468 19.648C56.9106 17.0423 59.8512 15.7295 62.3068 15.979H62.3125C63.0712 14.8307 63.4248 13.3704 63.2138 12.1683C63.0513 11.2496 62.5921 10.5351 61.8477 10.0417C59.4376 8.44827 56.1492 9.03802 53.9585 10.3253C50.998 12.069 49.8714 14.7909 48.6793 17.6745C47.8094 19.7755 46.9109 21.9503 45.2567 23.8273C44.6521 24.5135 43.7594 25.4264 42.6014 26.5408C40.4567 28.605 39.2302 31.497 39.2302 34.4715C39.2302 35.719 39.2987 37.1934 39.37 38.5997C39.4213 39.6204 39.9518 40.7858 40.8331 40.9304L40.9215 40.9417C41.1383 40.9701 41.4691 41.0183 41.7572 41.2565C42.2078 41.6307 42.3105 42.2233 42.0566 43.0172C41.1896 45.7194 40.9101 51.4154 41.2638 54.4182C41.7658 54.4466 42.262 54.4806 42.7555 54.5203L42.8268 54.526C42.8867 54.5316 42.9808 54.5373 43.0692 54.5373C43.44 51.7076 43.5598 48.7191 43.6881 45.5665C43.8592 41.3616 44.0361 37.0152 44.8546 33.068C45.4308 30.2327 46.7313 27.6014 47.992 25.0553C49.7061 21.5848 51.3261 18.3071 51.2833 14.5449C51.2776 14.1423 51.6027 13.8162 52.0049 13.8106C52.4327 13.8163 52.7407 14.1281 52.7436 14.5279L52.738 14.533ZM64.9277 20.6148C64.9477 17.9977 62.9968 17.5129 62.1554 17.425C62.0014 17.408 61.8474 17.4024 61.6934 17.4024C59.6741 17.4024 57.4152 18.7067 56.9846 20.8786C56.8249 22.1431 57.15 23.1185 57.9571 23.7224C58.981 24.4908 60.7122 24.5674 62.2638 23.9096C63.7839 23.2688 64.7508 22.1063 64.9162 20.7283L64.9276 20.6177L64.9277 20.6148Z" fill="url(#paint0_linear_40_250)"/>
<path d="M22.8483 4.88959C22.6287 4.55219 22.7257 4.10422 23.0651 3.88588L23.1906 3.80649C31.2703 -1.26883 41.7149 -1.26883 49.7976 3.80649L49.9202 3.88588C50.2596 4.1042 50.3537 4.55219 50.137 4.88959C49.9972 5.10508 49.7634 5.22133 49.5238 5.22133C49.3869 5.22133 49.25 5.18447 49.1273 5.10508L49.019 5.03703C41.4095 0.256627 31.5781 0.256627 23.9716 5.03703L23.8632 5.10508C23.5238 5.3234 23.0732 5.227 22.8535 4.88958L22.8483 4.88959ZM66.1886 19.0496C66.3255 19.5259 66.3968 20.0589 66.3883 20.6629C66.3883 20.6828 66.3883 20.7026 66.3854 20.7253L66.3683 20.8841C66.1402 22.7809 64.8196 24.4056 62.8346 25.2448C61.9447 25.622 61.0121 25.8091 60.1251 25.8091C58.9729 25.8091 57.8948 25.4972 57.0762 24.8791C55.9525 24.037 55.4135 22.6902 55.5133 21.0656C54.2755 20.7083 53.0576 20.2774 51.874 19.7783C51.2066 21.8339 50.2454 23.7875 49.2986 25.7043C48.0807 28.1682 46.8229 30.7143 46.2839 33.3686C45.4853 37.2019 45.3142 41.4894 45.143 45.634C45.0147 48.8295 44.8807 52.1327 44.4585 55.1551C44.4471 55.2345 44.4243 55.3082 44.3901 55.3791C44.0421 56.0709 43.1865 56.0142 42.7302 55.983L42.6532 55.9773C38.6774 55.6654 34.3106 55.6654 30.3467 55.9773L30.1328 55.9887C30.0444 55.9943 29.9389 56 29.8276 56C29.4283 56 28.9149 55.9178 28.6212 55.4216C28.5727 55.3394 28.5413 55.2486 28.5271 55.1551C28.105 52.1893 27.9709 48.8662 27.8426 45.6478C27.6886 41.8512 27.5317 37.924 26.9071 34.4936C26.4964 31.4059 25.1388 28.6556 23.7014 25.7435C22.7488 23.8154 21.7819 21.8477 21.1117 19.7778C19.928 20.2768 18.7073 20.7107 17.4695 21.0679C17.5636 22.7152 17.0217 24.045 15.9094 24.8814C15.0909 25.4967 14.0127 25.8114 12.8605 25.8114C11.9735 25.8114 11.0409 25.6243 10.151 25.2472C8.16594 24.4079 6.84833 22.7833 6.62016 20.9034L6.60305 20.7276C6.6002 20.7077 6.6002 20.6879 6.6002 20.6652C6.59164 20.0613 6.66579 19.5254 6.79984 19.0518C3.91353 15.2439 3.21472 11.246 4.90893 8.02757C6.5175 4.96824 10.0798 3.22445 14.2036 3.47399C16.4283 3.6583 18.3676 4.52873 20.2472 5.37087C21.1826 5.7905 22.1524 6.22716 23.1278 6.55887C27.2804 8.25157 45.719 8.25156 49.8319 6.57305C50.8472 6.2243 51.8141 5.79051 52.7524 5.37089C54.6291 4.52876 56.5714 3.65831 58.7789 3.47402C62.9145 3.21884 66.4826 4.96543 68.0911 8.02476C69.7852 11.2429 69.0865 15.2436 66.2002 19.049L66.1886 19.0496ZM15.9887 20.8273C15.5324 18.5392 12.9426 17.2094 10.8235 17.4249C9.98221 17.5128 8.03135 17.9976 8.05129 20.6146L8.06269 20.7422C8.22811 22.106 9.19499 23.2657 10.7151 23.9093C12.2667 24.5671 14.0008 24.4906 15.0218 23.7222C15.8261 23.1183 16.1512 22.1457 15.9858 20.8273L15.9887 20.8273ZM31.7181 54.4235C32.0717 51.4208 31.7894 45.7248 30.9252 43.0225C30.6714 42.2285 30.7712 41.6388 31.2247 41.2617C31.5099 41.0235 31.8407 40.9782 32.0575 40.947L32.1487 40.9356C33.0272 40.791 33.5577 39.6257 33.609 38.605C33.6832 37.1986 33.7488 35.7242 33.7488 34.4767C33.7488 31.5024 32.5195 28.6103 30.3747 26.5431C29.2168 25.4288 28.3241 24.5158 27.7223 23.8325C26.0681 21.9555 25.1697 19.7808 24.2998 17.6797C23.1076 14.7961 21.981 12.0742 19.0205 10.3304C16.8301 9.04321 13.5416 8.45628 11.1314 10.0469C10.3841 10.5403 9.92779 11.2548 9.76519 12.1734C9.55414 13.3728 9.90779 14.833 10.6665 15.9842H10.6722C13.1307 15.7318 16.0912 17.0588 17.1408 19.6531C18.3558 19.2987 19.5537 18.8734 20.7087 18.3744C20.4064 17.141 20.2296 15.868 20.241 14.541C20.2438 14.1412 20.5718 13.8208 20.9711 13.8208H20.9768C21.3818 13.8237 21.7041 14.1526 21.7013 14.5524C21.667 18.329 23.2899 21.6209 25.0097 25.1055C26.4357 27.9948 27.9074 30.9805 28.3466 34.2695C28.9855 37.7683 29.1453 41.7465 29.2992 45.5942C29.419 48.6252 29.5474 51.7555 29.9153 54.5484C29.9609 54.5455 30.0037 54.5427 30.0379 54.5427C30.1178 54.537 30.1977 54.5313 30.2718 54.5313C30.7481 54.4945 31.233 54.4605 31.7207 54.4321L31.7181 54.4235ZM39.7839 54.3526C39.4531 51.1316 39.7468 45.4522 40.6652 42.5829C40.6937 42.5006 40.7108 42.4354 40.7194 42.3844L40.5967 42.3674C38.8683 42.0838 37.9956 40.2579 37.9129 38.6786C37.8387 37.2524 37.7703 35.7582 37.7703 34.4765C37.7703 31.111 39.1621 27.8418 41.5864 25.5028C42.7159 24.414 43.5829 23.5323 44.159 22.8772C45.6535 21.1817 46.5034 19.1204 47.3306 17.1271C48.5627 14.1499 49.8347 11.0707 53.2173 9.08029C55.8014 7.56049 59.7201 6.89706 62.658 8.83644C63.7333 9.54812 64.4263 10.6142 64.6545 11.9213C64.9055 13.3446 64.5746 14.975 63.7932 16.3587C64.4178 16.6252 64.9939 17.0307 65.4445 17.5949C67.6235 14.4419 68.1227 11.2437 66.785 8.70027C65.4474 6.15695 62.4184 4.70808 58.8732 4.92358C56.9338 5.0852 55.1883 5.86777 53.343 6.69568C52.3761 7.1295 51.375 7.57745 50.3368 7.93188C45.9617 9.71814 27.0155 9.71814 22.6033 7.91771C21.605 7.57746 20.6068 7.1295 19.6371 6.69566C17.7918 5.86775 16.0463 5.08513 14.0897 4.92073C10.5674 4.71658 7.5327 6.1541 6.19253 8.69742C4.85491 11.2407 5.35404 14.4391 7.53299 17.592C7.98362 17.0278 8.55971 16.6224 9.18434 16.3558C8.40288 14.975 8.07205 13.3419 8.323 11.9185C8.55117 10.6113 9.24421 9.54529 10.3195 8.83359C13.2571 6.89418 17.1788 7.55768 19.7602 9.07743C23.1428 11.0679 24.4148 14.1471 25.6469 17.1242C26.4712 19.1175 27.324 21.1788 28.8185 22.8744C29.3946 23.5294 30.2617 24.414 31.3911 25.4999C33.8182 27.8392 35.2072 31.1083 35.2072 34.4737C35.2072 35.7552 35.1388 37.2523 35.0646 38.6757C34.9847 40.255 34.1091 42.0838 32.3808 42.3645L32.2581 42.3815C32.2695 42.4297 32.2866 42.4949 32.3123 42.58C33.2307 45.4494 33.5216 51.1284 33.1936 54.3497C35.3641 54.2647 37.5972 54.2647 39.7791 54.3497L39.7839 54.3526ZM52.738 14.533C52.7523 15.8627 52.5755 17.1358 52.2731 18.3692C53.4311 18.8683 54.6318 19.2935 55.8468 19.648C56.9106 17.0423 59.8512 15.7295 62.3068 15.979H62.3125C63.0712 14.8307 63.4248 13.3704 63.2138 12.1683C63.0513 11.2496 62.5921 10.5351 61.8477 10.0417C59.4376 8.44827 56.1492 9.03802 53.9585 10.3253C50.998 12.069 49.8714 14.7909 48.6793 17.6745C47.8094 19.7755 46.9109 21.9503 45.2567 23.8273C44.6521 24.5135 43.7594 25.4264 42.6014 26.5408C40.4567 28.605 39.2302 31.497 39.2302 34.4715C39.2302 35.719 39.2987 37.1934 39.37 38.5997C39.4213 39.6204 39.9518 40.7858 40.8331 40.9304L40.9215 40.9417C41.1383 40.9701 41.4691 41.0183 41.7572 41.2565C42.2078 41.6307 42.3105 42.2233 42.0566 43.0172C41.1896 45.7194 40.9101 51.4154 41.2638 54.4182C41.7658 54.4466 42.262 54.4806 42.7555 54.5203L42.8268 54.526C42.8867 54.5316 42.9808 54.5373 43.0692 54.5373C43.44 51.7076 43.5598 48.7191 43.6881 45.5665C43.8592 41.3616 44.0361 37.0152 44.8546 33.068C45.4308 30.2327 46.7313 27.6014 47.992 25.0553C49.7061 21.5848 51.3261 18.3071 51.2833 14.5449C51.2776 14.1423 51.6027 13.8162 52.0049 13.8106C52.4327 13.8163 52.7407 14.1281 52.7436 14.5279L52.738 14.533ZM64.9277 20.6148C64.9477 17.9977 62.9968 17.5129 62.1554 17.425C62.0014 17.408 61.8474 17.4024 61.6934 17.4024C59.6741 17.4024 57.4152 18.7067 56.9846 20.8786C56.8249 22.1431 57.15 23.1185 57.9571 23.7224C58.981 24.4908 60.7122 24.5674 62.2638 23.9096C63.7839 23.2688 64.7508 22.1063 64.9162 20.7283L64.9276 20.6177L64.9277 20.6148Z" fill="#55097B"/>
<path d="M22.8483 4.88959C22.6287 4.55219 22.7257 4.10422 23.0651 3.88588L23.1906 3.80649C31.2703 -1.26883 41.7149 -1.26883 49.7976 3.80649L49.9202 3.88588C50.2596 4.1042 50.3537 4.55219 50.137 4.88959C49.9972 5.10508 49.7634 5.22133 49.5238 5.22133C49.3869 5.22133 49.25 5.18447 49.1273 5.10508L49.019 5.03703C41.4095 0.256627 31.5781 0.256627 23.9716 5.03703L23.8632 5.10508C23.5238 5.3234 23.0732 5.227 22.8535 4.88958L22.8483 4.88959ZM66.1886 19.0496C66.3255 19.5259 66.3968 20.0589 66.3883 20.6629C66.3883 20.6828 66.3883 20.7026 66.3854 20.7253L66.3683 20.8841C66.1402 22.7809 64.8196 24.4056 62.8346 25.2448C61.9447 25.622 61.0121 25.8091 60.1251 25.8091C58.9729 25.8091 57.8948 25.4972 57.0762 24.8791C55.9525 24.037 55.4135 22.6902 55.5133 21.0656C54.2755 20.7083 53.0576 20.2774 51.874 19.7783C51.2066 21.8339 50.2454 23.7875 49.2986 25.7043C48.0807 28.1682 46.8229 30.7143 46.2839 33.3686C45.4853 37.2019 45.3142 41.4894 45.143 45.634C45.0147 48.8295 44.8807 52.1327 44.4585 55.1551C44.4471 55.2345 44.4243 55.3082 44.3901 55.3791C44.0421 56.0709 43.1865 56.0142 42.7302 55.983L42.6532 55.9773C38.6774 55.6654 34.3106 55.6654 30.3467 55.9773L30.1328 55.9887C30.0444 55.9943 29.9389 56 29.8276 56C29.4283 56 28.9149 55.9178 28.6212 55.4216C28.5727 55.3394 28.5413 55.2486 28.5271 55.1551C28.105 52.1893 27.9709 48.8662 27.8426 45.6478C27.6886 41.8512 27.5317 37.924 26.9071 34.4936C26.4964 31.4059 25.1388 28.6556 23.7014 25.7435C22.7488 23.8154 21.7819 21.8477 21.1117 19.7778C19.928 20.2768 18.7073 20.7107 17.4695 21.0679C17.5636 22.7152 17.0217 24.045 15.9094 24.8814C15.0909 25.4967 14.0127 25.8114 12.8605 25.8114C11.9735 25.8114 11.0409 25.6243 10.151 25.2472C8.16594 24.4079 6.84833 22.7833 6.62016 20.9034L6.60305 20.7276C6.6002 20.7077 6.6002 20.6879 6.6002 20.6652C6.59164 20.0613 6.66579 19.5254 6.79984 19.0518C3.91353 15.2439 3.21472 11.246 4.90893 8.02757C6.5175 4.96824 10.0798 3.22445 14.2036 3.47399C16.4283 3.6583 18.3676 4.52873 20.2472 5.37087C21.1826 5.7905 22.1524 6.22716 23.1278 6.55887C27.2804 8.25157 45.719 8.25156 49.8319 6.57305C50.8472 6.2243 51.8141 5.79051 52.7524 5.37089C54.6291 4.52876 56.5714 3.65831 58.7789 3.47402C62.9145 3.21884 66.4826 4.96543 68.0911 8.02476C69.7852 11.2429 69.0865 15.2436 66.2002 19.049L66.1886 19.0496ZM15.9887 20.8273C15.5324 18.5392 12.9426 17.2094 10.8235 17.4249C9.98221 17.5128 8.03135 17.9976 8.05129 20.6146L8.06269 20.7422C8.22811 22.106 9.19499 23.2657 10.7151 23.9093C12.2667 24.5671 14.0008 24.4906 15.0218 23.7222C15.8261 23.1183 16.1512 22.1457 15.9858 20.8273L15.9887 20.8273ZM31.7181 54.4235C32.0717 51.4208 31.7894 45.7248 30.9252 43.0225C30.6714 42.2285 30.7712 41.6388 31.2247 41.2617C31.5099 41.0235 31.8407 40.9782 32.0575 40.947L32.1487 40.9356C33.0272 40.791 33.5577 39.6257 33.609 38.605C33.6832 37.1986 33.7488 35.7242 33.7488 34.4767C33.7488 31.5024 32.5195 28.6103 30.3747 26.5431C29.2168 25.4288 28.3241 24.5158 27.7223 23.8325C26.0681 21.9555 25.1697 19.7808 24.2998 17.6797C23.1076 14.7961 21.981 12.0742 19.0205 10.3304C16.8301 9.04321 13.5416 8.45628 11.1314 10.0469C10.3841 10.5403 9.92779 11.2548 9.76519 12.1734C9.55414 13.3728 9.90779 14.833 10.6665 15.9842H10.6722C13.1307 15.7318 16.0912 17.0588 17.1408 19.6531C18.3558 19.2987 19.5537 18.8734 20.7087 18.3744C20.4064 17.141 20.2296 15.868 20.241 14.541C20.2438 14.1412 20.5718 13.8208 20.9711 13.8208H20.9768C21.3818 13.8237 21.7041 14.1526 21.7013 14.5524C21.667 18.329 23.2899 21.6209 25.0097 25.1055C26.4357 27.9948 27.9074 30.9805 28.3466 34.2695C28.9855 37.7683 29.1453 41.7465 29.2992 45.5942C29.419 48.6252 29.5474 51.7555 29.9153 54.5484C29.9609 54.5455 30.0037 54.5427 30.0379 54.5427C30.1178 54.537 30.1977 54.5313 30.2718 54.5313C30.7481 54.4945 31.233 54.4605 31.7207 54.4321L31.7181 54.4235ZM39.7839 54.3526C39.4531 51.1316 39.7468 45.4522 40.6652 42.5829C40.6937 42.5006 40.7108 42.4354 40.7194 42.3844L40.5967 42.3674C38.8683 42.0838 37.9956 40.2579 37.9129 38.6786C37.8387 37.2524 37.7703 35.7582 37.7703 34.4765C37.7703 31.111 39.1621 27.8418 41.5864 25.5028C42.7159 24.414 43.5829 23.5323 44.159 22.8772C45.6535 21.1817 46.5034 19.1204 47.3306 17.1271C48.5627 14.1499 49.8347 11.0707 53.2173 9.08029C55.8014 7.56049 59.7201 6.89706 62.658 8.83644C63.7333 9.54812 64.4263 10.6142 64.6545 11.9213C64.9055 13.3446 64.5746 14.975 63.7932 16.3587C64.4178 16.6252 64.9939 17.0307 65.4445 17.5949C67.6235 14.4419 68.1227 11.2437 66.785 8.70027C65.4474 6.15695 62.4184 4.70808 58.8732 4.92358C56.9338 5.0852 55.1883 5.86777 53.343 6.69568C52.3761 7.1295 51.375 7.57745 50.3368 7.93188C45.9617 9.71814 27.0155 9.71814 22.6033 7.91771C21.605 7.57746 20.6068 7.1295 19.6371 6.69566C17.7918 5.86775 16.0463 5.08513 14.0897 4.92073C10.5674 4.71658 7.5327 6.1541 6.19253 8.69742C4.85491 11.2407 5.35404 14.4391 7.53299 17.592C7.98362 17.0278 8.55971 16.6224 9.18434 16.3558C8.40288 14.975 8.07205 13.3419 8.323 11.9185C8.55117 10.6113 9.24421 9.54529 10.3195 8.83359C13.2571 6.89418 17.1788 7.55768 19.7602 9.07743C23.1428 11.0679 24.4148 14.1471 25.6469 17.1242C26.4712 19.1175 27.324 21.1788 28.8185 22.8744C29.3946 23.5294 30.2617 24.414 31.3911 25.4999C33.8182 27.8392 35.2072 31.1083 35.2072 34.4737C35.2072 35.7552 35.1388 37.2523 35.0646 38.6757C34.9847 40.255 34.1091 42.0838 32.3808 42.3645L32.2581 42.3815C32.2695 42.4297 32.2866 42.4949 32.3123 42.58C33.2307 45.4494 33.5216 51.1284 33.1936 54.3497C35.3641 54.2647 37.5972 54.2647 39.7791 54.3497L39.7839 54.3526ZM52.738 14.533C52.7523 15.8627 52.5755 17.1358 52.2731 18.3692C53.4311 18.8683 54.6318 19.2935 55.8468 19.648C56.9106 17.0423 59.8512 15.7295 62.3068 15.979H62.3125C63.0712 14.8307 63.4248 13.3704 63.2138 12.1683C63.0513 11.2496 62.5921 10.5351 61.8477 10.0417C59.4376 8.44827 56.1492 9.03802 53.9585 10.3253C50.998 12.069 49.8714 14.7909 48.6793 17.6745C47.8094 19.7755 46.9109 21.9503 45.2567 23.8273C44.6521 24.5135 43.7594 25.4264 42.6014 26.5408C40.4567 28.605 39.2302 31.497 39.2302 34.4715C39.2302 35.719 39.2987 37.1934 39.37 38.5997C39.4213 39.6204 39.9518 40.7858 40.8331 40.9304L40.9215 40.9417C41.1383 40.9701 41.4691 41.0183 41.7572 41.2565C42.2078 41.6307 42.3105 42.2233 42.0566 43.0172C41.1896 45.7194 40.9101 51.4154 41.2638 54.4182C41.7658 54.4466 42.262 54.4806 42.7555 54.5203L42.8268 54.526C42.8867 54.5316 42.9808 54.5373 43.0692 54.5373C43.44 51.7076 43.5598 48.7191 43.6881 45.5665C43.8592 41.3616 44.0361 37.0152 44.8546 33.068C45.4308 30.2327 46.7313 27.6014 47.992 25.0553C49.7061 21.5848 51.3261 18.3071 51.2833 14.5449C51.2776 14.1423 51.6027 13.8162 52.0049 13.8106C52.4327 13.8163 52.7407 14.1281 52.7436 14.5279L52.738 14.533ZM64.9277 20.6148C64.9477 17.9977 62.9968 17.5129 62.1554 17.425C62.0014 17.408 61.8474 17.4024 61.6934 17.4024C59.6741 17.4024 57.4152 18.7067 56.9846 20.8786C56.8249 22.1431 57.15 23.1185 57.9571 23.7224C58.981 24.4908 60.7122 24.5674 62.2638 23.9096C63.7839 23.2688 64.7508 22.1063 64.9162 20.7283L64.9276 20.6177L64.9277 20.6148Z" stroke="#55097B" stroke-width="2" mask="url(#path-1-inside-1_40_250)"/>
<path d="M22.8483 4.88959C22.6287 4.55219 22.7257 4.10422 23.0651 3.88588L23.1906 3.80649C31.2703 -1.26883 41.7149 -1.26883 49.7976 3.80649L49.9202 3.88588C50.2596 4.1042 50.3537 4.55219 50.137 4.88959C49.9972 5.10508 49.7634 5.22133 49.5238 5.22133C49.3869 5.22133 49.25 5.18447 49.1273 5.10508L49.019 5.03703C41.4095 0.256627 31.5781 0.256627 23.9716 5.03703L23.8632 5.10508C23.5238 5.3234 23.0732 5.227 22.8535 4.88958L22.8483 4.88959ZM66.1886 19.0496C66.3255 19.5259 66.3968 20.0589 66.3883 20.6629C66.3883 20.6828 66.3883 20.7026 66.3854 20.7253L66.3683 20.8841C66.1402 22.7809 64.8196 24.4056 62.8346 25.2448C61.9447 25.622 61.0121 25.8091 60.1251 25.8091C58.9729 25.8091 57.8948 25.4972 57.0762 24.8791C55.9525 24.037 55.4135 22.6902 55.5133 21.0656C54.2755 20.7083 53.0576 20.2774 51.874 19.7783C51.2066 21.8339 50.2454 23.7875 49.2986 25.7043C48.0807 28.1682 46.8229 30.7143 46.2839 33.3686C45.4853 37.2019 45.3142 41.4894 45.143 45.634C45.0147 48.8295 44.8807 52.1327 44.4585 55.1551C44.4471 55.2345 44.4243 55.3082 44.3901 55.3791C44.0421 56.0709 43.1865 56.0142 42.7302 55.983L42.6532 55.9773C38.6774 55.6654 34.3106 55.6654 30.3467 55.9773L30.1328 55.9887C30.0444 55.9943 29.9389 56 29.8276 56C29.4283 56 28.9149 55.9178 28.6212 55.4216C28.5727 55.3394 28.5413 55.2486 28.5271 55.1551C28.105 52.1893 27.9709 48.8662 27.8426 45.6478C27.6886 41.8512 27.5317 37.924 26.9071 34.4936C26.4964 31.4059 25.1388 28.6556 23.7014 25.7435C22.7488 23.8154 21.7819 21.8477 21.1117 19.7778C19.928 20.2768 18.7073 20.7107 17.4695 21.0679C17.5636 22.7152 17.0217 24.045 15.9094 24.8814C15.0909 25.4967 14.0127 25.8114 12.8605 25.8114C11.9735 25.8114 11.0409 25.6243 10.151 25.2472C8.16594 24.4079 6.84833 22.7833 6.62016 20.9034L6.60305 20.7276C6.6002 20.7077 6.6002 20.6879 6.6002 20.6652C6.59164 20.0613 6.66579 19.5254 6.79984 19.0518C3.91353 15.2439 3.21472 11.246 4.90893 8.02757C6.5175 4.96824 10.0798 3.22445 14.2036 3.47399C16.4283 3.6583 18.3676 4.52873 20.2472 5.37087C21.1826 5.7905 22.1524 6.22716 23.1278 6.55887C27.2804 8.25157 45.719 8.25156 49.8319 6.57305C50.8472 6.2243 51.8141 5.79051 52.7524 5.37089C54.6291 4.52876 56.5714 3.65831 58.7789 3.47402C62.9145 3.21884 66.4826 4.96543 68.0911 8.02476C69.7852 11.2429 69.0865 15.2436 66.2002 19.049L66.1886 19.0496ZM15.9887 20.8273C15.5324 18.5392 12.9426 17.2094 10.8235 17.4249C9.98221 17.5128 8.03135 17.9976 8.05129 20.6146L8.06269 20.7422C8.22811 22.106 9.19499 23.2657 10.7151 23.9093C12.2667 24.5671 14.0008 24.4906 15.0218 23.7222C15.8261 23.1183 16.1512 22.1457 15.9858 20.8273L15.9887 20.8273ZM31.7181 54.4235C32.0717 51.4208 31.7894 45.7248 30.9252 43.0225C30.6714 42.2285 30.7712 41.6388 31.2247 41.2617C31.5099 41.0235 31.8407 40.9782 32.0575 40.947L32.1487 40.9356C33.0272 40.791 33.5577 39.6257 33.609 38.605C33.6832 37.1986 33.7488 35.7242 33.7488 34.4767C33.7488 31.5024 32.5195 28.6103 30.3747 26.5431C29.2168 25.4288 28.3241 24.5158 27.7223 23.8325C26.0681 21.9555 25.1697 19.7808 24.2998 17.6797C23.1076 14.7961 21.981 12.0742 19.0205 10.3304C16.8301 9.04321 13.5416 8.45628 11.1314 10.0469C10.3841 10.5403 9.92779 11.2548 9.76519 12.1734C9.55414 13.3728 9.90779 14.833 10.6665 15.9842H10.6722C13.1307 15.7318 16.0912 17.0588 17.1408 19.6531C18.3558 19.2987 19.5537 18.8734 20.7087 18.3744C20.4064 17.141 20.2296 15.868 20.241 14.541C20.2438 14.1412 20.5718 13.8208 20.9711 13.8208H20.9768C21.3818 13.8237 21.7041 14.1526 21.7013 14.5524C21.667 18.329 23.2899 21.6209 25.0097 25.1055C26.4357 27.9948 27.9074 30.9805 28.3466 34.2695C28.9855 37.7683 29.1453 41.7465 29.2992 45.5942C29.419 48.6252 29.5474 51.7555 29.9153 54.5484C29.9609 54.5455 30.0037 54.5427 30.0379 54.5427C30.1178 54.537 30.1977 54.5313 30.2718 54.5313C30.7481 54.4945 31.233 54.4605 31.7207 54.4321L31.7181 54.4235ZM39.7839 54.3526C39.4531 51.1316 39.7468 45.4522 40.6652 42.5829C40.6937 42.5006 40.7108 42.4354 40.7194 42.3844L40.5967 42.3674C38.8683 42.0838 37.9956 40.2579 37.9129 38.6786C37.8387 37.2524 37.7703 35.7582 37.7703 34.4765C37.7703 31.111 39.1621 27.8418 41.5864 25.5028C42.7159 24.414 43.5829 23.5323 44.159 22.8772C45.6535 21.1817 46.5034 19.1204 47.3306 17.1271C48.5627 14.1499 49.8347 11.0707 53.2173 9.08029C55.8014 7.56049 59.7201 6.89706 62.658 8.83644C63.7333 9.54812 64.4263 10.6142 64.6545 11.9213C64.9055 13.3446 64.5746 14.975 63.7932 16.3587C64.4178 16.6252 64.9939 17.0307 65.4445 17.5949C67.6235 14.4419 68.1227 11.2437 66.785 8.70027C65.4474 6.15695 62.4184 4.70808 58.8732 4.92358C56.9338 5.0852 55.1883 5.86777 53.343 6.69568C52.3761 7.1295 51.375 7.57745 50.3368 7.93188C45.9617 9.71814 27.0155 9.71814 22.6033 7.91771C21.605 7.57746 20.6068 7.1295 19.6371 6.69566C17.7918 5.86775 16.0463 5.08513 14.0897 4.92073C10.5674 4.71658 7.5327 6.1541 6.19253 8.69742C4.85491 11.2407 5.35404 14.4391 7.53299 17.592C7.98362 17.0278 8.55971 16.6224 9.18434 16.3558C8.40288 14.975 8.07205 13.3419 8.323 11.9185C8.55117 10.6113 9.24421 9.54529 10.3195 8.83359C13.2571 6.89418 17.1788 7.55768 19.7602 9.07743C23.1428 11.0679 24.4148 14.1471 25.6469 17.1242C26.4712 19.1175 27.324 21.1788 28.8185 22.8744C29.3946 23.5294 30.2617 24.414 31.3911 25.4999C33.8182 27.8392 35.2072 31.1083 35.2072 34.4737C35.2072 35.7552 35.1388 37.2523 35.0646 38.6757C34.9847 40.255 34.1091 42.0838 32.3808 42.3645L32.2581 42.3815C32.2695 42.4297 32.2866 42.4949 32.3123 42.58C33.2307 45.4494 33.5216 51.1284 33.1936 54.3497C35.3641 54.2647 37.5972 54.2647 39.7791 54.3497L39.7839 54.3526ZM52.738 14.533C52.7523 15.8627 52.5755 17.1358 52.2731 18.3692C53.4311 18.8683 54.6318 19.2935 55.8468 19.648C56.9106 17.0423 59.8512 15.7295 62.3068 15.979H62.3125C63.0712 14.8307 63.4248 13.3704 63.2138 12.1683C63.0513 11.2496 62.5921 10.5351 61.8477 10.0417C59.4376 8.44827 56.1492 9.03802 53.9585 10.3253C50.998 12.069 49.8714 14.7909 48.6793 17.6745C47.8094 19.7755 46.9109 21.9503 45.2567 23.8273C44.6521 24.5135 43.7594 25.4264 42.6014 26.5408C40.4567 28.605 39.2302 31.497 39.2302 34.4715C39.2302 35.719 39.2987 37.1934 39.37 38.5997C39.4213 39.6204 39.9518 40.7858 40.8331 40.9304L40.9215 40.9417C41.1383 40.9701 41.4691 41.0183 41.7572 41.2565C42.2078 41.6307 42.3105 42.2233 42.0566 43.0172C41.1896 45.7194 40.9101 51.4154 41.2638 54.4182C41.7658 54.4466 42.262 54.4806 42.7555 54.5203L42.8268 54.526C42.8867 54.5316 42.9808 54.5373 43.0692 54.5373C43.44 51.7076 43.5598 48.7191 43.6881 45.5665C43.8592 41.3616 44.0361 37.0152 44.8546 33.068C45.4308 30.2327 46.7313 27.6014 47.992 25.0553C49.7061 21.5848 51.3261 18.3071 51.2833 14.5449C51.2776 14.1423 51.6027 13.8162 52.0049 13.8106C52.4327 13.8163 52.7407 14.1281 52.7436 14.5279L52.738 14.533ZM64.9277 20.6148C64.9477 17.9977 62.9968 17.5129 62.1554 17.425C62.0014 17.408 61.8474 17.4024 61.6934 17.4024C59.6741 17.4024 57.4152 18.7067 56.9846 20.8786C56.8249 22.1431 57.15 23.1185 57.9571 23.7224C58.981 24.4908 60.7122 24.5674 62.2638 23.9096C63.7839 23.2688 64.7508 22.1063 64.9162 20.7283L64.9276 20.6177L64.9277 20.6148Z" stroke="url(#paint1_linear_40_250)" stroke-width="2" mask="url(#path-1-inside-1_40_250)"/>
</g>
<defs>
<filter id="filter0_d_40_250" x="0" y="0" width="73" height="64" filterUnits="userSpaceOnUse" color-interpolation-filters="sRGB">
<feFlood flood-opacity="0" result="BackgroundImageFix"/>
<feColorMatrix in="SourceAlpha" type="matrix" values="0 0 0 0 0 0 0 0 0 0 0 0 0 0 0 0 0 0 127 0" result="hardAlpha"/>
<feOffset dy="4"/>
<feGaussianBlur stdDeviation="2"/>
<feComposite in2="hardAlpha" operator="out"/>
<feColorMatrix type="matrix" values="0 0 0 0 0 0 0 0 0 0 0 0 0 0 0 0 0 0 0.25 0"/>
<feBlend mode="normal" in2="BackgroundImageFix" result="effect1_dropShadow_40_250"/>
<feBlend mode="normal" in="SourceGraphic" in2="effect1_dropShadow_40_250" result="shape"/>
</filter>
<linearGradient id="paint0_linear_40_250" x1="36.5" y1="0" x2="36.5" y2="56" gradientUnits="userSpaceOnUse">
<stop stop-color="#55097B"/>
<stop offset="1" stop-color="#F00045"/>
</linearGradient>
<linearGradient id="paint1_linear_40_250" x1="36.5" y1="0" x2="36.5" y2="56" gradientUnits="userSpaceOnUse">
<stop stop-color="#55097B"/>
<stop offset="1" stop-color="#F00045"/>
</linearGradient>
</defs>
</svg>
