<svg width="183" height="172" viewBox="0 0 183 172" fill="none" xmlns="http://www.w3.org/2000/svg">
<path d="M99.6682 142.665H105.335C105.335 136.413 100.252 131.332 94.0018 131.332H62.8352C59.712 131.332 57.1687 128.793 57.1687 125.666C57.1687 122.541 59.712 119.999 62.8352 119.999H88.8329L119.999 108.666H145.002V103H119.004L87.8377 114.333H62.8352C56.585 114.333 51.5023 119.418 51.5023 125.666C51.5023 131.916 56.585 136.999 62.8352 136.999H94.0018C97.1249 136.999 99.6682 139.542 99.6682 142.665Z" fill="white" stroke="white" stroke-width="0.5"/>
<path d="M76.3096 171.001H83.153L131.321 154.001H145.002V148.335H130.351L82.1827 165.334H77.6932L7.9081 129.045C7.13113 128.155 6.16663 126.656 6.16663 125.667C6.16663 122.674 8.49944 120.215 11.4427 120.016L56.3248 134.039L58.0107 128.627L11.8331 114.334C5.58295 114.334 0.500153 119.419 0.500153 125.667C0.500153 129.552 3.78596 132.958 4.16106 133.333L4.85957 133.846L76.3096 171.001Z" fill="white" stroke="white" stroke-width="0.5"/>
<path d="M147.831 159.669H181.83V154.003H147.829V103.002H181.83V97.3359H147.829C144.706 97.3359 142.163 99.8792 142.163 103.004V154.003C142.165 157.128 144.708 159.669 147.831 159.669Z" fill="white" stroke="white" stroke-width="0.5"/>
<path d="M78.2633 96.8593L79.8344 97.9061L81.4056 96.8593C82.9335 95.8421 109.024 78.2573 123.751 56.5L119.285 53C107.093 71.1094 85.772 86.8594 79.8325 91.0531C71.3663 85.0766 31.6665 55.6496 31.6665 29.3324C31.6665 16.834 41.8359 6.66456 54.3343 6.66456C67.2671 6.66456 77.0002 17.9994 76.9983 23.664H82.6648C82.6648 17.9975 92.3998 6.66456 105.333 6.66456H105.335V1C94.0915 1 84.4177 7.36306 79.8325 14.7461C75.2511 7.36306 65.5773 1 54.3343 1C38.7128 1 26.002 13.7108 26.002 29.3343C26.002 61.6472 76.1314 95.4374 78.2633 96.8593Z" fill="white" stroke="white" stroke-width="0.5"/>
</svg>
