<svg width="1440" height="207" viewBox="0 0 1440 207" fill="none" xmlns="http://www.w3.org/2000/svg">
<path d="M605.1 5.88635C606.193 5.61589 609.139 5.21144 611.947 8.01535C613.808 9.87298 613.804 11.7484 613.274 13.4138C612.708 15.1968 611.549 16.5691 611.375 16.7663L611.369 16.7728L611.366 16.7758L589.283 39.7866C584.73 44.5305 588.092 52.4168 594.667 52.4168H683.982C684.068 52.4168 684.127 52.4204 684.168 52.4248C684.207 52.429 684.223 52.4333 684.223 52.4333C684.72 52.5709 685.694 52.9252 686.51 53.6611C687.253 54.3312 687.953 55.3845 687.953 57.2253C687.953 60.1899 686.844 61.2616 686.11 61.7246C685.313 62.2269 684.498 62.2827 684.411 62.2887C684.405 62.289 684.403 62.2893 684.403 62.2893L629.039 62.2893C627.532 62.2893 625.868 62.7446 624.563 63.9615C623.837 64.6385 622.911 65.6149 622.153 66.8036C621.404 67.9796 620.717 69.5229 620.717 71.2861C620.717 72.9142 621.375 74.4268 622.047 75.583C622.742 76.7777 623.598 77.8385 624.294 78.6165C625.653 80.1377 627.561 80.7942 629.366 80.7942H698.547C698.928 80.7942 699.103 80.8641 699.167 80.9019C700.23 81.5284 701.758 82.8174 701.758 85.0913C701.758 87.6524 700.071 88.5403 699.225 88.8557C699.221 88.8568 699.206 88.8606 699.177 88.8647C699.129 88.8713 699.056 88.8771 698.945 88.8771H610.396C609.355 88.8771 608.073 89.0882 606.933 89.8986C605.581 90.8594 603.077 93.1256 603.077 96.8513C603.077 100.37 605.138 102.913 606.435 104.183C607.722 105.443 609.389 105.848 610.81 105.848H686.979V105.852H690.033C690.631 105.852 690.964 106.023 691.12 106.176C692.076 107.112 693.066 108.508 693.066 110.149C693.066 111.576 692.107 112.617 691.187 113.271C691.109 113.326 690.9 113.423 690.447 113.423H601.897C601.383 113.423 600.699 113.472 599.983 113.738C598.404 114.325 594.384 116.417 594.384 121.909C594.384 126.677 597.691 129.206 599.289 130.147C600.318 130.753 601.408 130.905 602.295 130.905H671.476C672.188 130.905 672.728 131.16 673.044 131.515C673.623 132.163 674.256 132.96 674.733 133.779C675.231 134.637 675.426 135.294 675.426 135.714C675.426 136.258 675.205 136.919 674.726 137.67C674.256 138.408 673.632 139.081 673.074 139.602C672.831 139.828 672.412 140.011 671.803 140.011H616.419C616.248 140.011 614.249 140.024 612.226 141.3C610.021 142.69 608.189 145.325 608.189 149.775C608.189 153.058 609.54 155.346 611.185 156.829C612.758 158.247 614.51 158.859 615.366 159.096C615.928 159.252 616.451 159.283 616.861 159.283H706.175C708.609 159.283 709.854 162.203 708.169 163.959L686.086 186.97C686.057 186.999 686.012 187.047 685.958 187.107C685.658 187.446 683.961 189.42 683.089 192.162C682.173 195.044 682.162 198.903 685.575 202.31C690.008 206.737 694.936 206.155 696.872 205.676C697.718 205.466 698.394 205.054 698.896 204.68L795.165 132.734C795.643 132.377 796.223 132.184 796.819 132.184H1440.5V127.484H796.819C795.209 127.484 793.642 128.005 792.352 128.969L696.082 200.915C695.867 201.076 695.764 201.108 695.743 201.114C694.65 201.384 691.703 201.789 688.895 198.985C687.035 197.127 687.038 195.252 687.568 193.586C688.135 191.802 689.295 190.429 689.468 190.233L689.473 190.227L689.476 190.224L711.559 167.213C716.112 162.47 712.75 154.583 706.175 154.583H616.861C616.828 154.583 616.8 154.583 616.774 154.582L616.748 154.581C616.719 154.579 616.694 154.577 616.675 154.575C616.635 154.571 616.62 154.567 616.62 154.567C616.123 154.429 615.148 154.075 614.332 153.339C613.589 152.669 612.889 151.615 612.889 149.775C612.889 146.81 613.998 145.738 614.732 145.275C615.529 144.773 616.345 144.717 616.432 144.711C616.437 144.711 616.44 144.711 616.44 144.711L616.419 144.711H671.803C673.311 144.711 674.975 144.255 676.279 143.038C677.005 142.361 677.931 141.385 678.689 140.196C679.439 139.02 680.125 137.477 680.125 135.714C680.125 134.086 679.468 132.573 678.795 131.417C678.101 130.222 677.244 129.162 676.549 128.384C675.19 126.862 673.281 126.206 671.476 126.206H602.295C601.914 126.206 601.74 126.136 601.675 126.098C600.612 125.472 599.084 124.183 599.084 121.909C599.084 119.344 600.776 118.457 601.621 118.143C601.609 118.147 601.62 118.142 601.666 118.135C601.713 118.129 601.787 118.123 601.897 118.123H690.447C691.487 118.123 692.77 117.912 693.91 117.101C695.261 116.141 697.766 113.874 697.766 110.149C697.766 106.63 695.704 104.087 694.407 102.817C693.121 101.557 691.454 101.152 690.033 101.152H689.792V101.148H610.81C610.212 101.148 609.878 100.977 609.723 100.824C608.766 99.8881 607.777 98.4917 607.777 96.8513C607.777 95.4236 608.735 94.3832 609.655 93.7291C609.733 93.6737 609.943 93.5767 610.396 93.5767H698.945C699.459 93.5767 700.143 93.5282 700.859 93.2619C702.439 92.6746 706.458 90.5825 706.458 85.0913C706.458 80.3236 703.151 77.7946 701.553 76.853C700.525 76.2471 699.434 76.0945 698.547 76.0945H629.366C628.655 76.0945 628.115 75.8396 627.798 75.485C627.219 74.8372 626.586 74.0398 626.11 73.2206C625.611 72.3631 625.417 71.7063 625.417 71.2861C625.417 70.742 625.637 70.0811 626.116 69.3303C626.587 68.5921 627.21 67.9191 627.769 67.3982C628.012 67.1715 628.431 66.989 629.039 66.989H684.423C684.594 66.989 686.593 66.9757 688.616 65.7002C690.822 64.3097 692.653 61.6745 692.653 57.2253C692.653 53.9419 691.302 51.6542 689.657 50.1707C688.085 48.7529 686.332 48.141 685.477 47.9041C684.914 47.7483 684.391 47.7172 683.982 47.7172H594.667C592.233 47.7172 590.988 44.7972 592.674 43.0407L614.757 20.0299C614.785 20.0006 614.83 19.9533 614.884 19.8928C615.184 19.5544 616.881 17.5803 617.753 14.8378C618.669 11.9566 618.68 8.09675 615.268 4.68973C610.834 0.26266 605.906 0.8454 603.971 1.32433C603.124 1.53382 602.448 1.94581 601.947 2.32038L505.677 74.2664C505.2 74.6234 504.619 74.8163 504.023 74.8163H-2V79.5159H354.5H504.023C505.634 79.5159 507.201 78.995 508.491 78.031L604.76 6.08489C604.975 5.92441 605.079 5.89157 605.1 5.88635Z" fill="url(#paint0_linear_797_1275)" stroke="url(#paint1_linear_797_1275)"/>
<defs>
<linearGradient id="paint0_linear_797_1275" x1="-27.0015" y1="163.288" x2="-20.2024" y2="-21.7771" gradientUnits="userSpaceOnUse">
<stop offset="0.435245" stop-color="#55097B"/>
<stop offset="1" stop-color="#F00045"/>
</linearGradient>
<linearGradient id="paint1_linear_797_1275" x1="-27.0015" y1="163.288" x2="-20.2024" y2="-21.7771" gradientUnits="userSpaceOnUse">
<stop offset="0.435245" stop-color="#55097B"/>
<stop offset="1" stop-color="#F00045"/>
</linearGradient>
</defs>
</svg>
