<svg width="22" height="22" viewBox="0 0 22 22" fill="none" xmlns="http://www.w3.org/2000/svg">
<path fill-rule="evenodd" clip-rule="evenodd" d="M10.8365 20.5734C16.2147 20.5734 20.5748 16.2136 20.5748 10.8351C20.5748 5.45666 16.2149 1.0968 10.8365 1.0968C5.45802 1.0968 1.09816 5.45666 1.09816 10.8351C1.09816 16.2136 5.4583 20.5734 10.8365 20.5734ZM10.8365 11.2159L14.4684 7.58369C14.8142 7.23785 15.4047 7.48681 15.4047 7.97148V11.0749C15.4047 11.2264 15.3433 11.3634 15.244 11.4627L11.2243 15.4824C11.0102 15.6964 10.6627 15.6964 10.4484 15.4824L6.42872 11.4629C6.32155 11.3558 6.26797 11.2153 6.26797 11.0752V7.97175C6.26797 7.48221 6.8617 7.24109 7.20457 7.58396L10.8365 11.2159ZM14.3077 9.29614V10.8481L10.8365 14.319L7.36531 10.8478V9.29587L10.4487 12.3792C10.6627 12.5936 11.0105 12.5936 11.2245 12.3792L14.3077 9.29614ZM18.4984 18.497C14.2668 22.7286 7.40645 22.7286 3.17485 18.497C-1.05674 14.2654 -1.05674 7.40509 3.17485 3.17349C7.40618 -1.05783 14.2671 -1.05783 18.4984 3.17349C22.7297 7.40482 22.7297 14.2654 18.4984 18.497Z" fill="white"/>
<path d="M14.6777 11.4452V8.90154L10.8622 11.4452L6.41081 8.26562V10.8093L10.8622 15.2607L14.6777 11.4452Z" fill="white"/>
</svg>
