<svg width="23" height="22" viewBox="0 0 23 22" fill="none" xmlns="http://www.w3.org/2000/svg">
<path fill-rule="evenodd" clip-rule="evenodd" d="M11.7325 20.5734C17.1107 20.5734 21.4708 16.2136 21.4708 10.8351C21.4708 5.45666 17.1109 1.0968 11.7325 1.0968C6.35402 1.0968 1.99416 5.45666 1.99416 10.8351C1.99416 16.2136 6.35429 20.5734 11.7325 20.5734ZM11.7325 11.2159L15.3644 7.58369C15.7102 7.23785 16.3007 7.48681 16.3007 7.97148V11.0749C16.3007 11.2264 16.2393 11.3634 16.14 11.4627L12.1203 15.4824C11.9062 15.6964 11.5587 15.6964 11.3444 15.4824L7.32471 11.4629C7.21755 11.3558 7.16397 11.2153 7.16397 11.0752V7.97175C7.16397 7.48221 7.7577 7.24109 8.10056 7.58396L11.7325 11.2159ZM15.2036 9.29614V10.8481L11.7325 14.319L8.26131 10.8478V9.29587L11.3447 12.3792C11.5587 12.5936 11.9065 12.5936 12.1205 12.3792L15.2036 9.29614ZM19.3944 18.497C15.1628 22.7286 8.30244 22.7286 4.07085 18.497C-0.160746 14.2654 -0.160746 7.40509 4.07085 3.17349C8.30217 -1.05783 15.1631 -1.05783 19.3944 3.17349C23.6257 7.40482 23.6257 14.2654 19.3944 18.497Z" fill="white"/>
<path d="M15.5737 11.4452V8.90154L11.7582 11.4452L7.3068 8.26562V10.8093L11.7582 15.2607L15.5737 11.4452Z" fill="white"/>
</svg>
