<svg width="68" height="54" viewBox="0 0 68 54" fill="none" xmlns="http://www.w3.org/2000/svg">
<path d="M6.54103 50.2598C6.9666 50.4292 7.30573 50.4292 7.73126 50.4292C10.0287 50.4292 11.8174 48.1338 13.6892 45.8384C15.9036 43.1178 18.5401 39.7162 22.965 38.0984V52.7244C22.965 53.4884 23.5601 54 24.2417 54C24.9266 54 25.5217 53.4054 25.5217 52.6413V30.5309C25.5217 26.4483 23.3074 22.6215 19.7333 20.5821C19.1381 20.2433 18.287 20.4127 17.9445 21.0937C17.6054 21.6883 17.7749 22.5387 18.4565 22.8809C21.1795 24.4123 22.8818 27.3887 22.8818 30.5345V35.2981C22.7953 35.2981 22.7122 35.3844 22.5426 35.3844C17.1798 37.0852 13.9444 41.1678 11.5646 44.2269C9.60634 46.6917 8.41611 48.1401 7.22247 47.7979C5.1811 47.2033 3.47882 42.7819 2.8803 36.4867C2.45473 32.1483 2.54117 27.6443 2.71073 23.2188C2.79718 21.2622 2.79718 19.3056 2.79718 17.3524C2.79718 9.27361 9.35027 2.72638 17.4359 2.72638H61.8645C63.0548 2.72638 64.757 3.66318 65.3556 5.02178C65.7811 6.04158 65.3556 7.23418 64.93 8.16758C62.9717 12.1605 57.0137 16.9241 52.1629 18.4523C50.9727 18.8775 49.8655 18.8775 48.8448 18.7081C46.0354 18.1135 44.5027 15.4759 43.9075 14.2867C43.5684 13.6057 42.8004 13.3499 42.2053 13.6921C41.5237 14.0309 41.2677 14.7983 41.6101 15.4793C42.9733 18.4557 45.2707 20.4123 47.9072 21.0933C46.3745 22.2825 44.8417 23.5581 43.565 25.0065C41.8628 26.8767 41.0981 28.2387 40.4996 29.3449C39.9044 30.3647 39.562 31.0457 38.5413 31.9825C36.583 33.7697 34.7976 34.0221 32.2442 34.1085V30.6205V30.5341C32.2442 27.3019 33.9465 24.4119 36.6694 22.7941C37.2646 22.4553 37.5206 21.6049 37.1814 21.0069C36.8423 20.4123 35.9912 20.1565 35.3927 20.4953C31.9017 22.5349 29.6907 26.3617 29.6043 30.3617V30.448V52.5584C29.6043 53.3225 30.1994 53.834 30.881 53.834C31.6457 53.834 32.1577 53.2394 32.1577 52.5584L32.161 36.6534C35.0535 36.567 37.6069 36.3146 40.2468 33.8464C41.5235 32.6572 42.0356 31.634 42.7138 30.6142C43.3089 29.5944 43.9905 28.4018 45.4367 26.701C47.5646 24.3192 50.118 22.3626 53.097 20.8346C58.5429 19.1338 65.0129 13.862 67.1408 9.18499C68.0784 7.22839 68.248 5.4446 67.6528 3.9132C66.6321 1.4484 63.8227 0 61.7813 0H17.4352C7.90334 0 0.156266 7.74 0.156266 17.264C0.156266 19.2206 0.0698242 21.0908 0.0698242 23.0474C-0.0166175 27.4688 -0.0997404 32.1458 0.325829 36.567C0.837841 42.181 2.37052 48.9845 6.53983 50.2601L6.54103 50.2598Z" fill="black"/>
<path d="M6.54103 50.2598C6.9666 50.4292 7.30573 50.4292 7.73126 50.4292C10.0287 50.4292 11.8174 48.1338 13.6892 45.8384C15.9036 43.1178 18.5401 39.7162 22.965 38.0984V52.7244C22.965 53.4884 23.5601 54 24.2417 54C24.9266 54 25.5217 53.4054 25.5217 52.6413V30.5309C25.5217 26.4483 23.3074 22.6215 19.7333 20.5821C19.1381 20.2433 18.287 20.4127 17.9445 21.0937C17.6054 21.6883 17.7749 22.5387 18.4565 22.8809C21.1795 24.4123 22.8818 27.3887 22.8818 30.5345V35.2981C22.7953 35.2981 22.7122 35.3844 22.5426 35.3844C17.1798 37.0852 13.9444 41.1678 11.5646 44.2269C9.60634 46.6917 8.41611 48.1401 7.22247 47.7979C5.1811 47.2033 3.47882 42.7819 2.8803 36.4867C2.45473 32.1483 2.54117 27.6443 2.71073 23.2188C2.79718 21.2622 2.79718 19.3056 2.79718 17.3524C2.79718 9.27361 9.35027 2.72638 17.4359 2.72638H61.8645C63.0548 2.72638 64.757 3.66318 65.3556 5.02178C65.7811 6.04158 65.3556 7.23418 64.93 8.16758C62.9717 12.1605 57.0137 16.9241 52.1629 18.4523C50.9727 18.8775 49.8655 18.8775 48.8448 18.7081C46.0354 18.1135 44.5027 15.4759 43.9075 14.2867C43.5684 13.6057 42.8004 13.3499 42.2053 13.6921C41.5237 14.0309 41.2677 14.7983 41.6101 15.4793C42.9733 18.4557 45.2707 20.4123 47.9072 21.0933C46.3745 22.2825 44.8417 23.5581 43.565 25.0065C41.8628 26.8767 41.0981 28.2387 40.4996 29.3449C39.9044 30.3647 39.562 31.0457 38.5413 31.9825C36.583 33.7697 34.7976 34.0221 32.2442 34.1085V30.6205V30.5341C32.2442 27.3019 33.9465 24.4119 36.6694 22.7941C37.2646 22.4553 37.5206 21.6049 37.1814 21.0069C36.8423 20.4123 35.9912 20.1565 35.3927 20.4953C31.9017 22.5349 29.6907 26.3617 29.6043 30.3617V30.448V52.5584C29.6043 53.3225 30.1994 53.834 30.881 53.834C31.6457 53.834 32.1577 53.2394 32.1577 52.5584L32.161 36.6534C35.0535 36.567 37.6069 36.3146 40.2468 33.8464C41.5235 32.6572 42.0356 31.634 42.7138 30.6142C43.3089 29.5944 43.9905 28.4018 45.4367 26.701C47.5646 24.3192 50.118 22.3626 53.097 20.8346C58.5429 19.1338 65.0129 13.862 67.1408 9.18499C68.0784 7.22839 68.248 5.4446 67.6528 3.9132C66.6321 1.4484 63.8227 0 61.7813 0H17.4352C7.90334 0 0.156266 7.74 0.156266 17.264C0.156266 19.2206 0.0698242 21.0908 0.0698242 23.0474C-0.0166175 27.4688 -0.0997404 32.1458 0.325829 36.567C0.837841 42.181 2.37052 48.9845 6.53983 50.2601L6.54103 50.2598Z" fill="url(#paint0_linear_3_1486)"/>
<defs>
<linearGradient id="paint0_linear_3_1486" x1="51.3648" y1="39.6562" x2="-1.08519" y2="8.05166" gradientUnits="userSpaceOnUse">
<stop stop-color="#55097B"/>
<stop offset="1" stop-color="#F00045"/>
</linearGradient>
</defs>
</svg>
