<svg width="74" height="72" viewBox="0 0 74 72" fill="none" xmlns="http://www.w3.org/2000/svg">
<path fill-rule="evenodd" clip-rule="evenodd" d="M67.2113 70.9452C67.4356 71.2245 67.3901 71.6336 67.1106 71.8576C66.8311 72.0817 66.4216 72.0362 66.1973 71.757C66.1973 71.757 60.2921 64.4029 52.6226 60.442C44.7805 56.3932 34.5078 52.9742 27.8219 46.2926C18.2349 36.7147 17.5452 29.8599 16.9445 25.62C16.717 24.0128 16.561 22.8115 15.755 22.0452C11.2246 17.7399 0.165244 5.38894 0.165244 5.38894C-0.0752498 5.1227 -0.0492502 4.71034 0.217244 4.4733C0.483737 4.23303 0.896486 4.25576 1.13376 4.52525C1.13376 4.52525 12.1443 16.8211 16.652 21.1067C17.64 22.045 17.9552 23.4737 18.2347 25.438C18.8132 29.529 19.4956 36.1329 28.7452 45.3733C35.3393 51.9611 45.4922 55.2961 53.2239 59.2858C61.1278 63.3671 67.2146 70.9416 67.2146 70.9416L67.2113 70.9452ZM5.70253 1.07354C5.46853 0.804055 5.49778 0.391709 5.76753 0.157903C6.03727 -0.0758702 6.45001 -0.0466455 6.68404 0.22284C6.68404 0.22284 12.9207 7.42762 18.7221 11.941C21.1075 13.795 23.3955 15.2138 25.1212 15.3697C31.2474 15.9314 41.1952 15.8307 51.3779 24.5294C56.5096 28.9126 58.5408 34.8345 59.9224 40.455C61.2484 45.8448 61.9309 50.9488 64.4431 53.9586C69.5585 60.0854 73.8254 64.6344 73.8254 64.6344C74.0691 64.8942 74.0561 65.3065 73.7961 65.5501C73.5361 65.7936 73.1234 65.7806 72.8796 65.5209C72.8796 65.5209 68.5864 60.9493 63.4449 54.7902C61.339 52.2673 60.403 48.3581 59.4149 44.0013C57.998 37.7609 56.438 30.5592 50.5326 25.5139C40.6395 17.059 30.9551 17.2052 25.0006 16.66C23.1027 16.4847 20.5449 15.0041 17.9222 12.9619C12.0366 8.38386 5.702 1.06836 5.702 1.06836L5.70253 1.07354ZM57.819 55.6987C57.338 55.926 56.7141 56.0136 55.9828 55.9617C55.0306 55.8967 53.8769 55.598 52.6419 55.1597C48.0367 53.5168 42.2712 49.8835 42.2712 49.8835C42.0924 49.7699 41.9787 49.5783 41.9689 49.3673C41.9592 49.1563 42.0534 48.9517 42.2192 48.8251C48.3258 44.0815 56.3114 46.0198 56.3114 46.0198C56.4674 46.0588 56.6039 46.1529 56.6949 46.286C56.6949 46.286 59.0933 49.8479 59.3501 52.5394C59.4833 53.9356 59.0803 55.111 57.8194 55.7019L57.819 55.6987ZM57.2665 54.5233C57.8223 54.2635 58.0368 53.7733 58.0693 53.1985C58.0985 52.7148 58.0075 52.179 57.858 51.6303C57.3543 49.7959 56.1681 47.8575 55.7586 47.2243C54.5041 46.9743 48.6705 46.0457 43.7855 49.2894C45.5112 50.3283 49.6256 52.7051 53.0738 53.9356C54.1787 54.3284 55.2155 54.6076 56.067 54.6661C56.5415 54.6986 56.951 54.6693 57.263 54.5232L57.2665 54.5233ZM24.4322 20.9315C24.4322 20.9315 31.8453 20.7074 34.5034 21.8017C34.7894 21.9185 35.1144 22.188 35.4394 22.6166C35.8163 23.1134 36.2258 23.8569 36.6483 24.7726C39.323 30.5779 42.6867 43.7179 42.6867 43.7179C42.7582 44.0036 42.6315 44.3024 42.3747 44.4452L37.8768 46.9485C37.6753 47.0622 37.4283 47.0589 37.2301 46.9388C37.2301 46.9388 23.5381 38.8379 23.8043 21.5683C23.8108 21.2209 24.0838 20.9417 24.4316 20.9287L24.4322 20.9315ZM25.0984 22.2108C25.1699 36.7757 35.6347 44.3446 37.5815 45.6271L41.3028 43.5556C40.7633 41.4874 38.5663 33.2505 36.4733 27.7405C35.8688 26.1463 35.2741 24.7859 34.7281 23.8865C34.4518 23.4287 34.2341 23.0943 34.0033 23.0001C31.9461 22.1495 26.8697 22.1722 25.0953 22.2079L25.0984 22.2108ZM41.4811 24.5517C41.4811 24.5517 51.3384 29.607 55.2413 41.8281C55.2998 42.0164 55.2738 42.2209 55.1633 42.3833C55.0528 42.5489 54.8773 42.6528 54.6791 42.669L46.9409 43.3606C46.6159 43.3898 46.3202 43.1755 46.2487 42.8573C46.2487 42.8573 43.1547 29.0421 40.6522 25.4962C40.48 25.2527 40.4962 24.9215 40.6912 24.6975C40.8862 24.4734 41.2112 24.4085 41.4777 24.5449L41.4811 24.5517ZM42.8818 26.9707C44.8513 31.5325 46.8663 39.8151 47.3895 42.0227L53.7464 41.4545C51.0131 33.6296 45.7547 29.0157 42.8815 26.9735L42.8818 26.9707Z" fill="black"/>
<path fill-rule="evenodd" clip-rule="evenodd" d="M67.2113 70.9452C67.4356 71.2245 67.3901 71.6336 67.1106 71.8576C66.8311 72.0817 66.4216 72.0362 66.1973 71.757C66.1973 71.757 60.2921 64.4029 52.6226 60.442C44.7805 56.3932 34.5078 52.9742 27.8219 46.2926C18.2349 36.7147 17.5452 29.8599 16.9445 25.62C16.717 24.0128 16.561 22.8115 15.755 22.0452C11.2246 17.7399 0.165244 5.38894 0.165244 5.38894C-0.0752498 5.1227 -0.0492502 4.71034 0.217244 4.4733C0.483737 4.23303 0.896486 4.25576 1.13376 4.52525C1.13376 4.52525 12.1443 16.8211 16.652 21.1067C17.64 22.045 17.9552 23.4737 18.2347 25.438C18.8132 29.529 19.4956 36.1329 28.7452 45.3733C35.3393 51.9611 45.4922 55.2961 53.2239 59.2858C61.1278 63.3671 67.2146 70.9416 67.2146 70.9416L67.2113 70.9452ZM5.70253 1.07354C5.46853 0.804055 5.49778 0.391709 5.76753 0.157903C6.03727 -0.0758702 6.45001 -0.0466455 6.68404 0.22284C6.68404 0.22284 12.9207 7.42762 18.7221 11.941C21.1075 13.795 23.3955 15.2138 25.1212 15.3697C31.2474 15.9314 41.1952 15.8307 51.3779 24.5294C56.5096 28.9126 58.5408 34.8345 59.9224 40.455C61.2484 45.8448 61.9309 50.9488 64.4431 53.9586C69.5585 60.0854 73.8254 64.6344 73.8254 64.6344C74.0691 64.8942 74.0561 65.3065 73.7961 65.5501C73.5361 65.7936 73.1234 65.7806 72.8796 65.5209C72.8796 65.5209 68.5864 60.9493 63.4449 54.7902C61.339 52.2673 60.403 48.3581 59.4149 44.0013C57.998 37.7609 56.438 30.5592 50.5326 25.5139C40.6395 17.059 30.9551 17.2052 25.0006 16.66C23.1027 16.4847 20.5449 15.0041 17.9222 12.9619C12.0366 8.38386 5.702 1.06836 5.702 1.06836L5.70253 1.07354ZM57.819 55.6987C57.338 55.926 56.7141 56.0136 55.9828 55.9617C55.0306 55.8967 53.8769 55.598 52.6419 55.1597C48.0367 53.5168 42.2712 49.8835 42.2712 49.8835C42.0924 49.7699 41.9787 49.5783 41.9689 49.3673C41.9592 49.1563 42.0534 48.9517 42.2192 48.8251C48.3258 44.0815 56.3114 46.0198 56.3114 46.0198C56.4674 46.0588 56.6039 46.1529 56.6949 46.286C56.6949 46.286 59.0933 49.8479 59.3501 52.5394C59.4833 53.9356 59.0803 55.111 57.8194 55.7019L57.819 55.6987ZM57.2665 54.5233C57.8223 54.2635 58.0368 53.7733 58.0693 53.1985C58.0985 52.7148 58.0075 52.179 57.858 51.6303C57.3543 49.7959 56.1681 47.8575 55.7586 47.2243C54.5041 46.9743 48.6705 46.0457 43.7855 49.2894C45.5112 50.3283 49.6256 52.7051 53.0738 53.9356C54.1787 54.3284 55.2155 54.6076 56.067 54.6661C56.5415 54.6986 56.951 54.6693 57.263 54.5232L57.2665 54.5233ZM24.4322 20.9315C24.4322 20.9315 31.8453 20.7074 34.5034 21.8017C34.7894 21.9185 35.1144 22.188 35.4394 22.6166C35.8163 23.1134 36.2258 23.8569 36.6483 24.7726C39.323 30.5779 42.6867 43.7179 42.6867 43.7179C42.7582 44.0036 42.6315 44.3024 42.3747 44.4452L37.8768 46.9485C37.6753 47.0622 37.4283 47.0589 37.2301 46.9388C37.2301 46.9388 23.5381 38.8379 23.8043 21.5683C23.8108 21.2209 24.0838 20.9417 24.4316 20.9287L24.4322 20.9315ZM25.0984 22.2108C25.1699 36.7757 35.6347 44.3446 37.5815 45.6271L41.3028 43.5556C40.7633 41.4874 38.5663 33.2505 36.4733 27.7405C35.8688 26.1463 35.2741 24.7859 34.7281 23.8865C34.4518 23.4287 34.2341 23.0943 34.0033 23.0001C31.9461 22.1495 26.8697 22.1722 25.0953 22.2079L25.0984 22.2108ZM41.4811 24.5517C41.4811 24.5517 51.3384 29.607 55.2413 41.8281C55.2998 42.0164 55.2738 42.2209 55.1633 42.3833C55.0528 42.5489 54.8773 42.6528 54.6791 42.669L46.9409 43.3606C46.6159 43.3898 46.3202 43.1755 46.2487 42.8573C46.2487 42.8573 43.1547 29.0421 40.6522 25.4962C40.48 25.2527 40.4962 24.9215 40.6912 24.6975C40.8862 24.4734 41.2112 24.4085 41.4777 24.5449L41.4811 24.5517ZM42.8818 26.9707C44.8513 31.5325 46.8663 39.8151 47.3895 42.0227L53.7464 41.4545C51.0131 33.6296 45.7547 29.0157 42.8815 26.9735L42.8818 26.9707Z" fill="url(#paint0_linear_3_1484)"/>
<defs>
<linearGradient id="paint0_linear_3_1484" x1="55.897" y1="52.875" x2="-6.7523" y2="22.0641" gradientUnits="userSpaceOnUse">
<stop stop-color="#55097B"/>
<stop offset="1" stop-color="#F00045"/>
</linearGradient>
</defs>
</svg>
