<svg width="59" height="73" viewBox="0 0 59 73" fill="none" xmlns="http://www.w3.org/2000/svg">
<path d="M49.4251 18.2493C50.5494 18.408 51.7132 18.5667 52.7742 18.6699C54.041 18.781 54.801 18.408 55.4582 17.3289C56.5033 15.6229 57.7621 13.3218 58.6172 11.7348C59.3773 10.3303 58.9814 8.86235 57.6434 8.08473C56.3291 7.31505 54.8723 7.71973 54.033 9.08453C53.5976 9.79073 53.1146 10.6556 52.6554 11.4888C52.3545 12.0363 52.0537 12.5838 51.7607 13.0916C51.1273 13.0123 50.486 12.925 49.8447 12.8457C48.7205 12.6949 47.5487 12.5441 46.4403 12.4251C45.6089 12.3458 45.1339 12.4648 44.4055 12.9409C43.8829 13.2741 43.3446 13.663 42.7903 14.0518C42.347 14.3612 41.9036 14.6786 41.4681 14.9722C39.7263 14.7342 37.8895 14.4802 36.0685 14.1787C36.3218 12.6076 36.7019 10.9096 37.074 9.25116C37.4223 7.67212 37.7549 6.18036 37.9845 4.8235C38.1903 3.56978 37.9845 2.45097 37.3748 1.60193C36.7889 0.784641 35.8784 0.253004 34.7304 0.0705021C32.2998 -0.326242 30.3759 0.975079 29.8216 3.37935C27.1852 14.8611 24.3903 32.302 24.2874 42.6015C21.6113 42.9347 19.339 43.3235 17.3597 43.7758C16.5363 43.9663 16.1721 44.2916 15.7208 44.9105C15.4832 45.2438 15.0953 45.8627 14.7628 46.4102C14.5727 46.7276 14.4065 46.9974 14.3115 47.1323C14.2956 47.1561 14.2798 47.1799 14.2719 47.1958L13.9314 47.6877L13.7018 47.537C13.2426 47.2354 12.7755 46.9418 12.3163 46.6403C12.2609 45.3073 12.2371 43.9107 12.2213 42.5618C12.1975 41.1256 12.1738 39.6497 12.1104 38.2611C12.0471 36.7693 11.2554 36.2139 10.4082 35.833C9.48977 35.4283 8.12798 34.9046 6.24364 34.246C4.73934 33.7223 3.39338 34.3095 2.81541 35.7378C2.25328 37.1185 2.855 38.4912 4.31972 39.1498C4.78684 39.364 5.4044 39.5862 5.99029 39.8005C6.26739 39.9036 6.5445 39.9988 6.80578 40.102C6.82953 40.7844 6.84536 41.4588 6.8612 42.1412C6.87703 42.6491 6.88495 43.1648 6.90079 43.6727C6.75035 43.6727 6.58409 43.6965 6.40199 43.7362C5.87944 43.8472 5.27772 43.9663 4.66016 44.0853C3.7655 44.2599 2.83916 44.4344 2.11076 44.6169C0.566871 45.0137 -0.216951 46.2039 0.0522406 47.7195C0.313515 49.1716 1.58821 50.0285 3.14794 49.8222C3.7655 49.7349 4.44639 49.5921 5.10354 49.4493C5.55483 49.3541 5.9982 49.2588 6.43366 49.1795C6.75827 49.3937 7.1779 49.6635 7.5421 49.9016L7.57376 49.9254L8.24674 50.3618C8.91972 50.7982 9.56895 51.2188 10.2103 51.6393C10.527 51.8456 10.8516 52.0598 11.1683 52.2662C10.8516 52.8057 10.5349 53.3453 10.2182 53.8849C9.5927 54.9561 8.95139 56.067 8.2705 57.1302C7.5421 57.3127 6.75827 57.4952 5.97445 57.6777C4.64433 57.9872 3.27462 58.3046 2.11076 58.6379C0.566871 59.0743 -0.224868 60.328 0.107662 61.8277C0.440193 63.3671 1.68322 64.1447 3.27462 63.8035C5.54691 63.3194 8.42093 62.6132 10.527 62.0975C11.3345 61.8991 11.7462 61.6055 12.2134 60.9072C12.7597 60.09 13.2901 59.233 13.8206 58.3681C13.7889 58.4395 13.7572 58.5109 13.7256 58.5823C13.298 59.5662 12.8784 60.5343 12.5063 61.4389C12.0946 62.4387 11.9838 63.8511 13.7731 64.9064C14.3352 65.2397 14.8657 65.2873 15.5862 65.081C16.1404 64.9223 16.9242 64.597 17.4072 63.5496C17.9772 62.3117 18.5869 60.939 19.149 59.6297C19.2123 59.9313 19.2836 60.2328 19.3469 60.5343C19.5132 61.304 19.6715 62.034 19.8378 62.637C20.2653 64.1685 21.5084 64.9382 23.0048 64.597C24.5091 64.2558 25.3166 62.9862 25.0237 61.4389C24.7624 60.0582 24.3191 58.138 23.8361 56.305C23.6223 55.4877 23.3135 55.091 22.5218 54.5911C22.1814 54.3768 21.7063 54.1229 21.2234 53.869C20.9225 53.7103 20.6216 53.5437 20.3524 53.3929C19.9487 52.0995 19.529 50.7585 19.2203 49.4334L19.5686 48.8542C21.0254 48.6161 22.4664 48.5368 23.9786 48.4495C24.3111 48.4336 24.6437 48.4098 24.9762 48.3939C26.3142 54.3689 29.2674 60.6375 31.8802 66.1839C32.5611 67.6281 33.2182 69.0326 33.8278 70.3815C34.5721 72.0319 35.5934 72.6509 36.3139 72.881C36.6227 72.9524 36.9315 73 37.2561 73C37.9291 73 38.6416 72.7858 39.3621 72.3573C40.9535 71.4051 42.7587 70.3259 41.2781 66.8663C33.2815 48.1718 29.9246 40.3162 34.96 19.4395C35.5459 19.5189 36.1318 19.6062 36.7256 19.7014C37.0502 19.749 37.3828 19.8046 37.7074 19.8522C38.0241 21.939 38.3803 24.2878 38.6812 26.4461C38.8712 27.8109 39.6234 28.2949 40.5101 28.7392C40.6606 28.8106 40.8189 28.8662 40.9693 28.9059C40.8902 29.6438 40.7793 30.4373 40.6764 31.207C40.5418 32.2147 40.3993 33.2542 40.3201 34.1588C40.1855 35.7537 41.0881 36.928 42.6161 37.1581C44.1442 37.3803 45.3556 36.4757 45.6327 34.8888C45.7594 34.1429 45.8702 33.2542 45.981 32.3972C46.0127 32.175 46.0365 31.9449 46.0681 31.7148C46.5036 32.2385 46.939 32.7781 47.3745 33.3018C48.0712 34.1508 48.768 34.9999 49.4409 35.7933C50.011 36.4678 50.494 36.6503 51.1432 36.7535C52.0062 36.8884 52.7742 36.6503 53.2967 36.0869C54.7298 34.5476 54.2389 33.2224 53.5817 32.3734C52.4337 30.9055 51.1115 29.3105 49.8289 27.7712C49.338 27.184 48.863 26.6047 48.4038 26.0493C47.9841 25.5415 47.6674 25.3748 47.1132 25.1844C46.4165 24.9543 45.6723 24.7242 44.928 24.4941C44.5955 24.3909 44.2709 24.2878 43.9463 24.1925C43.8909 23.7482 43.8433 23.2959 43.7879 22.8515C45.5931 23.9228 47.3983 25.0257 48.9897 26.0096C49.3855 26.2477 49.6389 26.3429 50.0743 26.3984C50.3831 26.4381 50.7315 26.4937 51.0878 26.5413C51.7924 26.6444 52.5129 26.7555 53.0988 26.7952C54.6823 26.9142 55.854 26.0096 56.0836 24.5099C56.3053 23.0261 55.4265 21.8121 53.8905 21.4867C53.4709 21.3995 52.9325 21.336 52.4179 21.2725C52.0774 21.2328 51.7291 21.1932 51.4361 21.1455C49.9002 20.1934 48.1583 19.1222 46.3848 18.0668C46.4878 18.0033 46.5907 17.9478 46.6936 17.8922C47.5724 17.9954 48.5146 18.1224 49.4251 18.2493ZM46.3611 16.2656L46.1473 16.3846C45.6406 16.6544 45.0151 16.9956 44.5401 17.551C44.4609 17.6463 44.3501 17.8208 44.3421 18.0668L44.168 18.6064L44.7143 18.9317C46.8124 20.1696 48.9184 21.4629 50.7236 22.5818L50.8502 22.6611L51.0007 22.6849C51.357 22.7484 51.7924 22.8039 52.2199 22.8515C52.7029 22.9071 53.1938 22.9626 53.5422 23.042C54.0489 23.1531 54.6268 23.4546 54.5081 24.2798C54.3814 25.1289 53.7322 25.2638 53.2017 25.2241C52.6792 25.1844 51.9824 25.0812 51.3095 24.9781C50.9453 24.9226 50.5811 24.867 50.2644 24.8273C50.0585 24.8035 50.0189 24.7956 49.8051 24.6607C47.802 23.4308 45.4743 22.0025 43.21 20.6853L41.8561 19.8918L42.0303 21.455C42.1569 22.5976 42.2915 23.7482 42.4261 24.8908L42.4895 25.3986L42.9724 25.5573C43.4554 25.716 43.9621 25.8668 44.4609 26.0176C45.1893 26.2397 45.9256 26.4699 46.6065 26.7C46.947 26.8111 46.9945 26.8428 47.1766 27.0729C47.6358 27.6363 48.1187 28.2155 48.6096 28.8027C49.8843 30.3341 51.2065 31.9211 52.3387 33.3732C52.7346 33.881 52.8217 34.2936 52.1408 35.0237C51.9428 35.2379 51.6182 35.2379 51.3886 35.1982C51.0482 35.1506 50.9373 35.1189 50.6602 34.7856C49.9952 33.9921 49.3063 33.151 48.6096 32.3099C47.7862 31.3101 46.9549 30.2945 46.1473 29.3423L45.0468 28.0489L44.7618 29.7311C44.6351 30.5008 44.5242 31.3736 44.4213 32.2147C44.3105 33.0955 44.2075 33.9286 44.0888 34.6348C44.0017 35.1506 43.7167 35.7378 42.8695 35.6029C42.1649 35.4998 41.8482 35.0713 41.9115 34.3016C41.9828 33.4367 42.1174 32.4607 42.2599 31.4292C42.4024 30.4135 42.5449 29.3661 42.6241 28.4218L42.6716 27.8902L42.1886 27.6522C41.9748 27.549 41.7452 27.4855 41.5394 27.43C41.4285 27.3982 41.2781 27.3586 41.2306 27.3348C40.518 26.9777 40.3439 26.8349 40.2647 26.2397C39.9322 23.8672 39.5363 21.2646 39.1958 19.0428L39.1087 18.4556L38.5229 18.3763C38.0161 18.3049 37.4936 18.2255 36.979 18.1462C36.1318 18.0192 35.2846 17.8843 34.4612 17.7891L33.7724 17.7097L33.6062 18.3842C28.2065 40.2924 31.8485 48.8145 39.8292 67.4932C40.7635 69.6753 40.1143 70.0641 38.4912 71.0322C38.0716 71.2861 37.4303 71.5479 36.7969 71.3416C36.2031 71.1512 35.6726 70.5878 35.2767 69.6991C34.6671 68.3422 34.002 66.9298 33.3132 65.4777C30.6371 59.7964 27.6127 53.3532 26.3855 47.3624L26.243 46.68L25.5542 46.7276C24.9999 46.7673 24.4457 46.799 23.8915 46.8308C22.2764 46.926 20.6137 47.0212 18.9352 47.3227L18.5869 47.3862L17.5338 49.1239L17.5972 49.4334C17.9218 50.9331 18.3889 52.409 18.8323 53.8373L19.0144 54.4244L19.2757 54.5831C19.6161 54.7894 20.0437 55.0196 20.4712 55.2417C20.9146 55.4798 21.3579 55.7099 21.6667 55.9083C22.1418 56.2019 22.1893 56.2812 22.2922 56.6859C22.7672 58.4871 23.1948 60.3597 23.4481 61.7087C23.5827 62.4307 23.3056 62.8751 22.6247 63.0259C21.9438 63.1766 21.54 62.9148 21.3342 62.1927C21.1758 61.6372 21.0254 60.931 20.8671 60.1852C20.7008 59.3996 20.5266 58.5903 20.3366 57.9079L20.2574 57.6222L20.012 57.4556C19.822 57.3286 19.632 57.2255 19.3865 57.0985L18.6185 56.7018L18.286 57.4952C17.5734 59.2012 16.7184 61.1532 15.9345 62.8592C15.7445 63.2798 15.4912 63.4226 15.119 63.5257C14.7469 63.6289 14.6677 63.5892 14.5332 63.5099C13.7097 63.0259 13.686 62.6291 13.9314 62.0181C14.2956 61.1215 14.7153 60.1614 15.1349 59.1933C15.697 57.892 16.2829 56.551 16.7817 55.2814L16.8767 55.0354L16.8134 54.7815C16.7421 54.5038 16.6629 54.234 16.5758 53.9642L15.9345 51.7345L14.9924 53.2659C14.5015 54.0594 14.0185 54.8688 13.5356 55.6861C12.6646 57.1382 11.77 58.6379 10.8595 60.0106C10.614 60.3835 10.5349 60.4391 10.1152 60.5422C8.02506 61.058 5.15896 61.7642 2.91834 62.2403C2.18202 62.399 1.77031 62.153 1.6278 61.4786C1.47737 60.7962 1.77031 60.3597 2.51455 60.1534C3.64674 59.836 5.00061 59.5186 6.3149 59.2171C7.21748 59.0029 8.12007 58.7966 8.94347 58.5903L9.24433 58.5109L9.4106 58.2491C10.1707 57.0747 10.8753 55.8527 11.5641 54.6784C11.9996 53.9245 12.443 53.1707 12.8943 52.4249L13.298 51.7663L12.6488 51.3457C12.1104 50.9966 11.58 50.6474 11.0495 50.3062C10.4319 49.9016 9.80647 49.4889 9.15724 49.0684C9.14933 49.0684 9.14933 49.0605 9.14141 49.0605L8.38926 48.5685C7.92213 48.259 7.35208 47.8861 7.01163 47.6719L6.75827 47.5132L6.46533 47.5608C5.91903 47.6481 5.34106 47.7671 4.76309 47.894C4.10595 48.0369 3.48047 48.1638 2.91834 48.2432C2.64915 48.2828 1.75448 48.3305 1.58821 47.4338C1.46154 46.7355 1.73865 46.3467 2.47496 46.1563C3.14794 45.9817 4.05052 45.8072 4.92935 45.6405C5.56275 45.5215 6.1803 45.4025 6.71077 45.2835C6.94829 45.2279 7.06705 45.2597 7.455 45.3787L8.50802 45.6961L8.47635 44.5931C8.4526 43.76 8.42884 42.9347 8.41301 42.1016C8.38926 41.2446 8.37342 40.3876 8.34175 39.5307L8.32592 39.0228L7.85087 38.8245C7.455 38.6578 6.97996 38.4833 6.497 38.3087C5.93486 38.1024 5.34898 37.8881 4.93727 37.7057C4.54932 37.5311 3.93968 37.1185 4.24846 36.3408C4.50973 35.6981 4.98478 35.4998 5.68942 35.7457C7.53418 36.3885 8.85638 36.8963 9.73521 37.2851C10.3449 37.5549 10.4715 37.7295 10.5032 38.3325C10.5665 39.6973 10.5903 41.1653 10.6061 42.5856C10.6299 44.0853 10.6536 45.6405 10.7249 47.1164L10.7407 47.5211L11.0733 47.7433C11.6512 48.1241 12.2292 48.4971 12.8072 48.878L14.4223 49.9254L15.0953 48.8304C15.2378 48.6002 15.3803 48.3622 15.5228 48.1321L15.99 47.4814L15.9583 47.4576C15.9979 47.3941 16.0375 47.3227 16.085 47.2592C16.3858 46.7593 16.7659 46.1404 16.9717 45.8706C17.2647 45.466 17.328 45.4263 17.6922 45.339C19.7824 44.8629 22.2209 44.4582 25.1425 44.1091L25.8392 44.0218V43.3156C25.8154 33.2383 28.6499 15.4086 31.3339 3.75229C31.6981 2.15738 32.8382 1.39563 34.4454 1.65748C35.1659 1.7765 35.7201 2.08596 36.0526 2.54619C36.4089 3.04608 36.5277 3.74435 36.3852 4.57752C36.1635 5.90264 35.8389 7.37059 35.4905 8.92583C35.055 10.8857 34.6037 12.9091 34.3504 14.7421L34.2475 15.5038L35.0075 15.6308C37.2086 16.0037 39.4413 16.3211 41.5236 16.5989L41.8165 16.6385L42.0619 16.4798C42.5924 16.1307 43.1387 15.7498 43.6771 15.369C44.2076 14.996 44.738 14.6231 45.2368 14.2977C45.6723 14.0121 45.7831 13.9883 46.2502 14.0359C47.3428 14.147 48.4909 14.2977 49.6072 14.4485C50.4306 14.5596 51.254 14.6707 52.0616 14.758L52.5683 14.8135L52.8296 14.3771C53.2096 13.7423 53.6134 13.0123 54.0172 12.2823C54.4685 11.465 54.9356 10.616 55.3552 9.9415C55.7511 9.29877 56.2499 9.14007 56.8279 9.48127C57.4296 9.83041 57.5563 10.3462 57.2 11.0048C56.3528 12.5679 55.1098 14.8453 54.0885 16.5195C53.7401 17.0829 53.5659 17.1781 52.8929 17.1146C51.8716 17.0194 50.7236 16.8607 49.623 16.7099C48.6096 16.5671 47.5645 16.4243 46.5828 16.3211L46.3611 16.2656Z" fill="black"/>
<path d="M49.4251 18.2493C50.5494 18.408 51.7132 18.5667 52.7742 18.6699C54.041 18.781 54.801 18.408 55.4582 17.3289C56.5033 15.6229 57.7621 13.3218 58.6172 11.7348C59.3773 10.3303 58.9814 8.86235 57.6434 8.08473C56.3291 7.31505 54.8723 7.71973 54.033 9.08453C53.5976 9.79073 53.1146 10.6556 52.6554 11.4888C52.3545 12.0363 52.0537 12.5838 51.7607 13.0916C51.1273 13.0123 50.486 12.925 49.8447 12.8457C48.7205 12.6949 47.5487 12.5441 46.4403 12.4251C45.6089 12.3458 45.1339 12.4648 44.4055 12.9409C43.8829 13.2741 43.3446 13.663 42.7903 14.0518C42.347 14.3612 41.9036 14.6786 41.4681 14.9722C39.7263 14.7342 37.8895 14.4802 36.0685 14.1787C36.3218 12.6076 36.7019 10.9096 37.074 9.25116C37.4223 7.67212 37.7549 6.18036 37.9845 4.8235C38.1903 3.56978 37.9845 2.45097 37.3748 1.60193C36.7889 0.784641 35.8784 0.253004 34.7304 0.0705021C32.2998 -0.326242 30.3759 0.975079 29.8216 3.37935C27.1852 14.8611 24.3903 32.302 24.2874 42.6015C21.6113 42.9347 19.339 43.3235 17.3597 43.7758C16.5363 43.9663 16.1721 44.2916 15.7208 44.9105C15.4832 45.2438 15.0953 45.8627 14.7628 46.4102C14.5727 46.7276 14.4065 46.9974 14.3115 47.1323C14.2956 47.1561 14.2798 47.1799 14.2719 47.1958L13.9314 47.6877L13.7018 47.537C13.2426 47.2354 12.7755 46.9418 12.3163 46.6403C12.2609 45.3073 12.2371 43.9107 12.2213 42.5618C12.1975 41.1256 12.1738 39.6497 12.1104 38.2611C12.0471 36.7693 11.2554 36.2139 10.4082 35.833C9.48977 35.4283 8.12798 34.9046 6.24364 34.246C4.73934 33.7223 3.39338 34.3095 2.81541 35.7378C2.25328 37.1185 2.855 38.4912 4.31972 39.1498C4.78684 39.364 5.4044 39.5862 5.99029 39.8005C6.26739 39.9036 6.5445 39.9988 6.80578 40.102C6.82953 40.7844 6.84536 41.4588 6.8612 42.1412C6.87703 42.6491 6.88495 43.1648 6.90079 43.6727C6.75035 43.6727 6.58409 43.6965 6.40199 43.7362C5.87944 43.8472 5.27772 43.9663 4.66016 44.0853C3.7655 44.2599 2.83916 44.4344 2.11076 44.6169C0.566871 45.0137 -0.216951 46.2039 0.0522406 47.7195C0.313515 49.1716 1.58821 50.0285 3.14794 49.8222C3.7655 49.7349 4.44639 49.5921 5.10354 49.4493C5.55483 49.3541 5.9982 49.2588 6.43366 49.1795C6.75827 49.3937 7.1779 49.6635 7.5421 49.9016L7.57376 49.9254L8.24674 50.3618C8.91972 50.7982 9.56895 51.2188 10.2103 51.6393C10.527 51.8456 10.8516 52.0598 11.1683 52.2662C10.8516 52.8057 10.5349 53.3453 10.2182 53.8849C9.5927 54.9561 8.95139 56.067 8.2705 57.1302C7.5421 57.3127 6.75827 57.4952 5.97445 57.6777C4.64433 57.9872 3.27462 58.3046 2.11076 58.6379C0.566871 59.0743 -0.224868 60.328 0.107662 61.8277C0.440193 63.3671 1.68322 64.1447 3.27462 63.8035C5.54691 63.3194 8.42093 62.6132 10.527 62.0975C11.3345 61.8991 11.7462 61.6055 12.2134 60.9072C12.7597 60.09 13.2901 59.233 13.8206 58.3681C13.7889 58.4395 13.7572 58.5109 13.7256 58.5823C13.298 59.5662 12.8784 60.5343 12.5063 61.4389C12.0946 62.4387 11.9838 63.8511 13.7731 64.9064C14.3352 65.2397 14.8657 65.2873 15.5862 65.081C16.1404 64.9223 16.9242 64.597 17.4072 63.5496C17.9772 62.3117 18.5869 60.939 19.149 59.6297C19.2123 59.9313 19.2836 60.2328 19.3469 60.5343C19.5132 61.304 19.6715 62.034 19.8378 62.637C20.2653 64.1685 21.5084 64.9382 23.0048 64.597C24.5091 64.2558 25.3166 62.9862 25.0237 61.4389C24.7624 60.0582 24.3191 58.138 23.8361 56.305C23.6223 55.4877 23.3135 55.091 22.5218 54.5911C22.1814 54.3768 21.7063 54.1229 21.2234 53.869C20.9225 53.7103 20.6216 53.5437 20.3524 53.3929C19.9487 52.0995 19.529 50.7585 19.2203 49.4334L19.5686 48.8542C21.0254 48.6161 22.4664 48.5368 23.9786 48.4495C24.3111 48.4336 24.6437 48.4098 24.9762 48.3939C26.3142 54.3689 29.2674 60.6375 31.8802 66.1839C32.5611 67.6281 33.2182 69.0326 33.8278 70.3815C34.5721 72.0319 35.5934 72.6509 36.3139 72.881C36.6227 72.9524 36.9315 73 37.2561 73C37.9291 73 38.6416 72.7858 39.3621 72.3573C40.9535 71.4051 42.7587 70.3259 41.2781 66.8663C33.2815 48.1718 29.9246 40.3162 34.96 19.4395C35.5459 19.5189 36.1318 19.6062 36.7256 19.7014C37.0502 19.749 37.3828 19.8046 37.7074 19.8522C38.0241 21.939 38.3803 24.2878 38.6812 26.4461C38.8712 27.8109 39.6234 28.2949 40.5101 28.7392C40.6606 28.8106 40.8189 28.8662 40.9693 28.9059C40.8902 29.6438 40.7793 30.4373 40.6764 31.207C40.5418 32.2147 40.3993 33.2542 40.3201 34.1588C40.1855 35.7537 41.0881 36.928 42.6161 37.1581C44.1442 37.3803 45.3556 36.4757 45.6327 34.8888C45.7594 34.1429 45.8702 33.2542 45.981 32.3972C46.0127 32.175 46.0365 31.9449 46.0681 31.7148C46.5036 32.2385 46.939 32.7781 47.3745 33.3018C48.0712 34.1508 48.768 34.9999 49.4409 35.7933C50.011 36.4678 50.494 36.6503 51.1432 36.7535C52.0062 36.8884 52.7742 36.6503 53.2967 36.0869C54.7298 34.5476 54.2389 33.2224 53.5817 32.3734C52.4337 30.9055 51.1115 29.3105 49.8289 27.7712C49.338 27.184 48.863 26.6047 48.4038 26.0493C47.9841 25.5415 47.6674 25.3748 47.1132 25.1844C46.4165 24.9543 45.6723 24.7242 44.928 24.4941C44.5955 24.3909 44.2709 24.2878 43.9463 24.1925C43.8909 23.7482 43.8433 23.2959 43.7879 22.8515C45.5931 23.9228 47.3983 25.0257 48.9897 26.0096C49.3855 26.2477 49.6389 26.3429 50.0743 26.3984C50.3831 26.4381 50.7315 26.4937 51.0878 26.5413C51.7924 26.6444 52.5129 26.7555 53.0988 26.7952C54.6823 26.9142 55.854 26.0096 56.0836 24.5099C56.3053 23.0261 55.4265 21.8121 53.8905 21.4867C53.4709 21.3995 52.9325 21.336 52.4179 21.2725C52.0774 21.2328 51.7291 21.1932 51.4361 21.1455C49.9002 20.1934 48.1583 19.1222 46.3848 18.0668C46.4878 18.0033 46.5907 17.9478 46.6936 17.8922C47.5724 17.9954 48.5146 18.1224 49.4251 18.2493ZM46.3611 16.2656L46.1473 16.3846C45.6406 16.6544 45.0151 16.9956 44.5401 17.551C44.4609 17.6463 44.3501 17.8208 44.3421 18.0668L44.168 18.6064L44.7143 18.9317C46.8124 20.1696 48.9184 21.4629 50.7236 22.5818L50.8502 22.6611L51.0007 22.6849C51.357 22.7484 51.7924 22.8039 52.2199 22.8515C52.7029 22.9071 53.1938 22.9626 53.5422 23.042C54.0489 23.1531 54.6268 23.4546 54.5081 24.2798C54.3814 25.1289 53.7322 25.2638 53.2017 25.2241C52.6792 25.1844 51.9824 25.0812 51.3095 24.9781C50.9453 24.9226 50.5811 24.867 50.2644 24.8273C50.0585 24.8035 50.0189 24.7956 49.8051 24.6607C47.802 23.4308 45.4743 22.0025 43.21 20.6853L41.8561 19.8918L42.0303 21.455C42.1569 22.5976 42.2915 23.7482 42.4261 24.8908L42.4895 25.3986L42.9724 25.5573C43.4554 25.716 43.9621 25.8668 44.4609 26.0176C45.1893 26.2397 45.9256 26.4699 46.6065 26.7C46.947 26.8111 46.9945 26.8428 47.1766 27.0729C47.6358 27.6363 48.1187 28.2155 48.6096 28.8027C49.8843 30.3341 51.2065 31.9211 52.3387 33.3732C52.7346 33.881 52.8217 34.2936 52.1408 35.0237C51.9428 35.2379 51.6182 35.2379 51.3886 35.1982C51.0482 35.1506 50.9373 35.1189 50.6602 34.7856C49.9952 33.9921 49.3063 33.151 48.6096 32.3099C47.7862 31.3101 46.9549 30.2945 46.1473 29.3423L45.0468 28.0489L44.7618 29.7311C44.6351 30.5008 44.5242 31.3736 44.4213 32.2147C44.3105 33.0955 44.2075 33.9286 44.0888 34.6348C44.0017 35.1506 43.7167 35.7378 42.8695 35.6029C42.1649 35.4998 41.8482 35.0713 41.9115 34.3016C41.9828 33.4367 42.1174 32.4607 42.2599 31.4292C42.4024 30.4135 42.5449 29.3661 42.6241 28.4218L42.6716 27.8902L42.1886 27.6522C41.9748 27.549 41.7452 27.4855 41.5394 27.43C41.4285 27.3982 41.2781 27.3586 41.2306 27.3348C40.518 26.9777 40.3439 26.8349 40.2647 26.2397C39.9322 23.8672 39.5363 21.2646 39.1958 19.0428L39.1087 18.4556L38.5229 18.3763C38.0161 18.3049 37.4936 18.2255 36.979 18.1462C36.1318 18.0192 35.2846 17.8843 34.4612 17.7891L33.7724 17.7097L33.6062 18.3842C28.2065 40.2924 31.8485 48.8145 39.8292 67.4932C40.7635 69.6753 40.1143 70.0641 38.4912 71.0322C38.0716 71.2861 37.4303 71.5479 36.7969 71.3416C36.2031 71.1512 35.6726 70.5878 35.2767 69.6991C34.6671 68.3422 34.002 66.9298 33.3132 65.4777C30.6371 59.7964 27.6127 53.3532 26.3855 47.3624L26.243 46.68L25.5542 46.7276C24.9999 46.7673 24.4457 46.799 23.8915 46.8308C22.2764 46.926 20.6137 47.0212 18.9352 47.3227L18.5869 47.3862L17.5338 49.1239L17.5972 49.4334C17.9218 50.9331 18.3889 52.409 18.8323 53.8373L19.0144 54.4244L19.2757 54.5831C19.6161 54.7894 20.0437 55.0196 20.4712 55.2417C20.9146 55.4798 21.3579 55.7099 21.6667 55.9083C22.1418 56.2019 22.1893 56.2812 22.2922 56.6859C22.7672 58.4871 23.1948 60.3597 23.4481 61.7087C23.5827 62.4307 23.3056 62.8751 22.6247 63.0259C21.9438 63.1766 21.54 62.9148 21.3342 62.1927C21.1758 61.6372 21.0254 60.931 20.8671 60.1852C20.7008 59.3996 20.5266 58.5903 20.3366 57.9079L20.2574 57.6222L20.012 57.4556C19.822 57.3286 19.632 57.2255 19.3865 57.0985L18.6185 56.7018L18.286 57.4952C17.5734 59.2012 16.7184 61.1532 15.9345 62.8592C15.7445 63.2798 15.4912 63.4226 15.119 63.5257C14.7469 63.6289 14.6677 63.5892 14.5332 63.5099C13.7097 63.0259 13.686 62.6291 13.9314 62.0181C14.2956 61.1215 14.7153 60.1614 15.1349 59.1933C15.697 57.892 16.2829 56.551 16.7817 55.2814L16.8767 55.0354L16.8134 54.7815C16.7421 54.5038 16.6629 54.234 16.5758 53.9642L15.9345 51.7345L14.9924 53.2659C14.5015 54.0594 14.0185 54.8688 13.5356 55.6861C12.6646 57.1382 11.77 58.6379 10.8595 60.0106C10.614 60.3835 10.5349 60.4391 10.1152 60.5422C8.02506 61.058 5.15896 61.7642 2.91834 62.2403C2.18202 62.399 1.77031 62.153 1.6278 61.4786C1.47737 60.7962 1.77031 60.3597 2.51455 60.1534C3.64674 59.836 5.00061 59.5186 6.3149 59.2171C7.21748 59.0029 8.12007 58.7966 8.94347 58.5903L9.24433 58.5109L9.4106 58.2491C10.1707 57.0747 10.8753 55.8527 11.5641 54.6784C11.9996 53.9245 12.443 53.1707 12.8943 52.4249L13.298 51.7663L12.6488 51.3457C12.1104 50.9966 11.58 50.6474 11.0495 50.3062C10.4319 49.9016 9.80647 49.4889 9.15724 49.0684C9.14933 49.0684 9.14933 49.0605 9.14141 49.0605L8.38926 48.5685C7.92213 48.259 7.35208 47.8861 7.01163 47.6719L6.75827 47.5132L6.46533 47.5608C5.91903 47.6481 5.34106 47.7671 4.76309 47.894C4.10595 48.0369 3.48047 48.1638 2.91834 48.2432C2.64915 48.2828 1.75448 48.3305 1.58821 47.4338C1.46154 46.7355 1.73865 46.3467 2.47496 46.1563C3.14794 45.9817 4.05052 45.8072 4.92935 45.6405C5.56275 45.5215 6.1803 45.4025 6.71077 45.2835C6.94829 45.2279 7.06705 45.2597 7.455 45.3787L8.50802 45.6961L8.47635 44.5931C8.4526 43.76 8.42884 42.9347 8.41301 42.1016C8.38926 41.2446 8.37342 40.3876 8.34175 39.5307L8.32592 39.0228L7.85087 38.8245C7.455 38.6578 6.97996 38.4833 6.497 38.3087C5.93486 38.1024 5.34898 37.8881 4.93727 37.7057C4.54932 37.5311 3.93968 37.1185 4.24846 36.3408C4.50973 35.6981 4.98478 35.4998 5.68942 35.7457C7.53418 36.3885 8.85638 36.8963 9.73521 37.2851C10.3449 37.5549 10.4715 37.7295 10.5032 38.3325C10.5665 39.6973 10.5903 41.1653 10.6061 42.5856C10.6299 44.0853 10.6536 45.6405 10.7249 47.1164L10.7407 47.5211L11.0733 47.7433C11.6512 48.1241 12.2292 48.4971 12.8072 48.878L14.4223 49.9254L15.0953 48.8304C15.2378 48.6002 15.3803 48.3622 15.5228 48.1321L15.99 47.4814L15.9583 47.4576C15.9979 47.3941 16.0375 47.3227 16.085 47.2592C16.3858 46.7593 16.7659 46.1404 16.9717 45.8706C17.2647 45.466 17.328 45.4263 17.6922 45.339C19.7824 44.8629 22.2209 44.4582 25.1425 44.1091L25.8392 44.0218V43.3156C25.8154 33.2383 28.6499 15.4086 31.3339 3.75229C31.6981 2.15738 32.8382 1.39563 34.4454 1.65748C35.1659 1.7765 35.7201 2.08596 36.0526 2.54619C36.4089 3.04608 36.5277 3.74435 36.3852 4.57752C36.1635 5.90264 35.8389 7.37059 35.4905 8.92583C35.055 10.8857 34.6037 12.9091 34.3504 14.7421L34.2475 15.5038L35.0075 15.6308C37.2086 16.0037 39.4413 16.3211 41.5236 16.5989L41.8165 16.6385L42.0619 16.4798C42.5924 16.1307 43.1387 15.7498 43.6771 15.369C44.2076 14.996 44.738 14.6231 45.2368 14.2977C45.6723 14.0121 45.7831 13.9883 46.2502 14.0359C47.3428 14.147 48.4909 14.2977 49.6072 14.4485C50.4306 14.5596 51.254 14.6707 52.0616 14.758L52.5683 14.8135L52.8296 14.3771C53.2096 13.7423 53.6134 13.0123 54.0172 12.2823C54.4685 11.465 54.9356 10.616 55.3552 9.9415C55.7511 9.29877 56.2499 9.14007 56.8279 9.48127C57.4296 9.83041 57.5563 10.3462 57.2 11.0048C56.3528 12.5679 55.1098 14.8453 54.0885 16.5195C53.7401 17.0829 53.5659 17.1781 52.8929 17.1146C51.8716 17.0194 50.7236 16.8607 49.623 16.7099C48.6096 16.5671 47.5645 16.4243 46.5828 16.3211L46.3611 16.2656Z" fill="url(#paint0_linear_3_1467)"/>
<defs>
<linearGradient id="paint0_linear_3_1467" x1="44.5665" y1="53.6094" x2="-9.39414" y2="32.7406" gradientUnits="userSpaceOnUse">
<stop stop-color="#55097B"/>
<stop offset="1" stop-color="#F00045"/>
</linearGradient>
</defs>
</svg>
