<svg width="54" height="72" viewBox="0 0 54 72" fill="none" xmlns="http://www.w3.org/2000/svg">
<path d="M26.7582 71.928C25.8951 71.928 25.1039 71.5683 24.5284 70.9929C24.025 70.4175 23.953 69.6263 24.3127 68.9789C24.3846 68.8351 24.4565 68.6912 24.5284 68.5474C25.1039 67.6123 25.5354 66.5334 25.8232 65.3106C26.0389 64.3755 26.3986 63.2966 27.0459 62.2177C29.995 56.7512 31.2897 52.6513 33.4475 45.7462C33.7352 44.883 33.951 44.0199 34.2387 43.0848C34.3826 42.7252 34.7422 42.5094 35.1019 42.6533C35.4615 42.7971 35.6773 43.1568 35.5334 43.5164C35.2457 44.4515 34.958 45.3146 34.7422 46.1777C32.6563 52.939 31.2897 57.3266 28.2687 62.937C27.7652 63.872 27.4056 64.8071 27.1898 65.6702C26.9021 67.0369 26.3986 68.2597 25.7512 69.3386C25.6793 69.4824 25.6074 69.5544 25.5354 69.6982C25.4635 69.8421 25.4635 70.0579 25.5354 70.1298C25.8951 70.4894 26.3986 70.7052 26.974 70.6333C28.0529 70.4894 29.1318 69.6263 29.995 68.1158C30.6423 66.965 31.6493 65.958 32.8721 65.3106C36.4685 63.2247 37.6913 60.9949 38.9141 58.5494C40.1368 56.1757 41.5035 53.6583 45.2437 51.5723C48.3366 49.918 50.2787 48.0479 51.2857 46.8251C52.3646 45.6023 52.7243 44.0199 52.3646 42.6533C52.005 41.3586 50.7822 39.6323 47.2577 38.4814C45.963 38.1218 44.8841 37.5464 43.949 36.8271C43.6613 36.6113 43.5894 36.1797 43.8052 35.8201C44.021 35.5324 44.4525 35.4605 44.8122 35.6762C45.6753 36.2517 46.6104 36.7552 47.7612 37.1148C51.933 38.4095 53.2997 40.6393 53.8032 42.2217C54.3067 44.0918 53.8032 46.1058 52.4365 47.6882C51.2857 48.9829 49.2717 50.925 45.963 52.7232C42.5824 54.5933 41.4315 56.7512 40.2088 59.1248C38.9141 61.5703 37.5474 64.1598 33.5914 66.4615C32.6563 67.0369 31.7932 67.8281 31.2897 68.7632C30.2108 70.6333 28.7722 71.7841 27.1898 71.9999C27.0459 71.928 26.9021 71.928 26.7582 71.928Z" fill="black"/>
<path d="M26.7582 71.928C25.8951 71.928 25.1039 71.5683 24.5284 70.9929C24.025 70.4175 23.953 69.6263 24.3127 68.9789C24.3846 68.8351 24.4565 68.6912 24.5284 68.5474C25.1039 67.6123 25.5354 66.5334 25.8232 65.3106C26.0389 64.3755 26.3986 63.2966 27.0459 62.2177C29.995 56.7512 31.2897 52.6513 33.4475 45.7462C33.7352 44.883 33.951 44.0199 34.2387 43.0848C34.3826 42.7252 34.7422 42.5094 35.1019 42.6533C35.4615 42.7971 35.6773 43.1568 35.5334 43.5164C35.2457 44.4515 34.958 45.3146 34.7422 46.1777C32.6563 52.939 31.2897 57.3266 28.2687 62.937C27.7652 63.872 27.4056 64.8071 27.1898 65.6702C26.9021 67.0369 26.3986 68.2597 25.7512 69.3386C25.6793 69.4824 25.6074 69.5544 25.5354 69.6982C25.4635 69.8421 25.4635 70.0579 25.5354 70.1298C25.8951 70.4894 26.3986 70.7052 26.974 70.6333C28.0529 70.4894 29.1318 69.6263 29.995 68.1158C30.6423 66.965 31.6493 65.958 32.8721 65.3106C36.4685 63.2247 37.6913 60.9949 38.9141 58.5494C40.1368 56.1757 41.5035 53.6583 45.2437 51.5723C48.3366 49.918 50.2787 48.0479 51.2857 46.8251C52.3646 45.6023 52.7243 44.0199 52.3646 42.6533C52.005 41.3586 50.7822 39.6323 47.2577 38.4814C45.963 38.1218 44.8841 37.5464 43.949 36.8271C43.6613 36.6113 43.5894 36.1797 43.8052 35.8201C44.021 35.5324 44.4525 35.4605 44.8122 35.6762C45.6753 36.2517 46.6104 36.7552 47.7612 37.1148C51.933 38.4095 53.2997 40.6393 53.8032 42.2217C54.3067 44.0918 53.8032 46.1058 52.4365 47.6882C51.2857 48.9829 49.2717 50.925 45.963 52.7232C42.5824 54.5933 41.4315 56.7512 40.2088 59.1248C38.9141 61.5703 37.5474 64.1598 33.5914 66.4615C32.6563 67.0369 31.7932 67.8281 31.2897 68.7632C30.2108 70.6333 28.7722 71.7841 27.1898 71.9999C27.0459 71.928 26.9021 71.928 26.7582 71.928Z" fill="url(#paint0_linear_3_1468)"/>
<path d="M39.4162 46.0336C37.618 46.0336 35.9637 45.3143 34.7409 44.0915C33.5181 42.8688 32.7988 41.2144 32.7988 39.4162C32.7988 37.618 33.5181 35.9637 34.7409 34.7409C37.3303 32.1515 41.5021 32.1515 44.0915 34.7409C45.3143 35.9637 46.0336 37.618 46.0336 39.4162C46.0336 41.2144 45.3143 42.8688 44.0915 44.0915C42.8688 45.3143 41.1425 46.0336 39.4162 46.0336ZM39.4162 34.2374C38.0496 34.2374 36.7549 34.7409 35.7479 35.7479C34.7409 36.7549 34.2374 38.0496 34.2374 39.4162C34.2374 40.7828 34.8128 42.0775 35.7479 43.0845C36.7549 44.0915 38.0496 44.595 39.4162 44.595C40.7828 44.595 42.0775 44.0196 43.0845 43.0845C44.0915 42.0775 44.595 40.7828 44.595 39.4162C44.595 38.0496 44.0196 36.7549 43.0845 35.7479C42.0775 34.7409 40.7109 34.2374 39.4162 34.2374Z" fill="black"/>
<path d="M39.4162 46.0336C37.618 46.0336 35.9637 45.3143 34.7409 44.0915C33.5181 42.8688 32.7988 41.2144 32.7988 39.4162C32.7988 37.618 33.5181 35.9637 34.7409 34.7409C37.3303 32.1515 41.5021 32.1515 44.0915 34.7409C45.3143 35.9637 46.0336 37.618 46.0336 39.4162C46.0336 41.2144 45.3143 42.8688 44.0915 44.0915C42.8688 45.3143 41.1425 46.0336 39.4162 46.0336ZM39.4162 34.2374C38.0496 34.2374 36.7549 34.7409 35.7479 35.7479C34.7409 36.7549 34.2374 38.0496 34.2374 39.4162C34.2374 40.7828 34.8128 42.0775 35.7479 43.0845C36.7549 44.0915 38.0496 44.595 39.4162 44.595C40.7828 44.595 42.0775 44.0196 43.0845 43.0845C44.0915 42.0775 44.595 40.7828 44.595 39.4162C44.595 38.0496 44.0196 36.7549 43.0845 35.7479C42.0775 34.7409 40.7109 34.2374 39.4162 34.2374Z" fill="url(#paint1_linear_3_1468)"/>
<path d="M10.2857 20.5714C7.62437 20.5714 5.03496 19.5644 3.02098 17.5504C1.07892 15.6084 0 13.019 0 10.2857C0 7.55245 1.07892 4.96304 3.02098 3.02098C7.04895 -1.00699 13.5225 -1.00699 17.5504 3.02098C21.5784 7.04895 21.5784 13.5225 17.5504 17.5504C15.5365 19.5644 12.8751 20.5714 10.2857 20.5714ZM10.2857 1.43856C7.98401 1.43856 5.75425 2.3017 4.02797 4.02797C2.37363 5.68232 1.43856 7.91209 1.43856 10.2857C1.43856 12.6593 2.37363 14.8891 4.02797 16.5435C7.48052 19.996 13.0909 19.996 16.6154 16.5435C20.0679 13.0909 20.0679 7.48052 16.6154 3.95604C14.8172 2.3017 12.5155 1.43856 10.2857 1.43856Z" fill="black"/>
<path d="M10.2857 20.5714C7.62437 20.5714 5.03496 19.5644 3.02098 17.5504C1.07892 15.6084 0 13.019 0 10.2857C0 7.55245 1.07892 4.96304 3.02098 3.02098C7.04895 -1.00699 13.5225 -1.00699 17.5504 3.02098C21.5784 7.04895 21.5784 13.5225 17.5504 17.5504C15.5365 19.5644 12.8751 20.5714 10.2857 20.5714ZM10.2857 1.43856C7.98401 1.43856 5.75425 2.3017 4.02797 4.02797C2.37363 5.68232 1.43856 7.91209 1.43856 10.2857C1.43856 12.6593 2.37363 14.8891 4.02797 16.5435C7.48052 19.996 13.0909 19.996 16.6154 16.5435C20.0679 13.0909 20.0679 7.48052 16.6154 3.95604C14.8172 2.3017 12.5155 1.43856 10.2857 1.43856Z" fill="url(#paint2_linear_3_1468)"/>
<path d="M37.8334 41.646C37.6896 41.646 37.4738 41.574 37.3299 41.4302C36.7545 40.8547 36.4668 40.1355 36.4668 39.4162C36.4668 38.625 36.7545 37.9057 37.3299 37.4022C37.9054 36.8268 38.6246 36.5391 39.3439 36.5391C40.1351 36.5391 40.8544 36.8268 41.3579 37.4022C41.6456 37.6899 41.6456 38.1215 41.3579 38.4092C41.0702 38.6969 40.6386 38.6969 40.3509 38.4092C39.7755 37.8338 38.8404 37.8338 38.265 38.4092C37.9773 38.6969 37.8334 39.0565 37.8334 39.4881C37.8334 39.9197 37.9773 40.2793 38.265 40.567C38.5527 40.8547 38.5527 41.2863 38.265 41.574C38.1931 41.574 38.0492 41.646 37.8334 41.646Z" fill="black"/>
<path d="M37.8334 41.646C37.6896 41.646 37.4738 41.574 37.3299 41.4302C36.7545 40.8547 36.4668 40.1355 36.4668 39.4162C36.4668 38.625 36.7545 37.9057 37.3299 37.4022C37.9054 36.8268 38.6246 36.5391 39.3439 36.5391C40.1351 36.5391 40.8544 36.8268 41.3579 37.4022C41.6456 37.6899 41.6456 38.1215 41.3579 38.4092C41.0702 38.6969 40.6386 38.6969 40.3509 38.4092C39.7755 37.8338 38.8404 37.8338 38.265 38.4092C37.9773 38.6969 37.8334 39.0565 37.8334 39.4881C37.8334 39.9197 37.9773 40.2793 38.265 40.567C38.5527 40.8547 38.5527 41.2863 38.265 41.574C38.1931 41.574 38.0492 41.646 37.8334 41.646Z" fill="url(#paint3_linear_3_1468)"/>
<path d="M8.19765 13.0188C7.98187 13.0188 7.83801 12.9469 7.69416 12.803C6.25559 11.3644 6.25559 9.13467 7.69416 7.69611C9.13272 6.25755 11.3625 6.25755 12.801 7.69611C13.0888 7.98382 13.0888 8.41539 12.801 8.7031C12.5133 8.99081 12.0818 8.99081 11.7941 8.7031C10.9309 7.83996 9.56428 7.83996 8.70115 8.7031C7.83801 9.56624 7.83801 10.9329 8.70115 11.796C8.98886 12.0837 8.98886 12.5153 8.70115 12.803C8.55729 12.9469 8.41343 13.0188 8.19765 13.0188Z" fill="black"/>
<path d="M8.19765 13.0188C7.98187 13.0188 7.83801 12.9469 7.69416 12.803C6.25559 11.3644 6.25559 9.13467 7.69416 7.69611C9.13272 6.25755 11.3625 6.25755 12.801 7.69611C13.0888 7.98382 13.0888 8.41539 12.801 8.7031C12.5133 8.99081 12.0818 8.99081 11.7941 8.7031C10.9309 7.83996 9.56428 7.83996 8.70115 8.7031C7.83801 9.56624 7.83801 10.9329 8.70115 11.796C8.98886 12.0837 8.98886 12.5153 8.70115 12.803C8.55729 12.9469 8.41343 13.0188 8.19765 13.0188Z" fill="url(#paint4_linear_3_1468)"/>
<path d="M35.2444 35.9633C35.0286 35.9633 34.8847 35.8914 34.7409 35.7475L27.1884 28.1232C26.9007 27.8355 26.9007 27.4039 27.1884 27.1162C27.4762 26.8285 27.9077 26.8285 28.1954 27.1162L35.7479 34.6686C36.0356 34.9563 36.0356 35.3879 35.7479 35.6756C35.604 35.8914 35.3882 35.9633 35.2444 35.9633Z" fill="black"/>
<path d="M35.2444 35.9633C35.0286 35.9633 34.8847 35.8914 34.7409 35.7475L27.1884 28.1232C26.9007 27.8355 26.9007 27.4039 27.1884 27.1162C27.4762 26.8285 27.9077 26.8285 28.1954 27.1162L35.7479 34.6686C36.0356 34.9563 36.0356 35.3879 35.7479 35.6756C35.604 35.8914 35.3882 35.9633 35.2444 35.9633Z" fill="url(#paint5_linear_3_1468)"/>
<path d="M23.4494 30.3533C21.9389 30.3533 20.4285 29.7779 19.2057 28.627L13.3076 22.657C13.0199 22.3693 13.0199 21.9377 13.3076 21.65C13.5953 21.3623 14.0269 21.3623 14.3146 21.65L20.2846 27.62C22.0828 29.4182 24.9599 29.4182 26.6862 27.62L27.6213 26.685C29.4195 24.8868 29.4195 22.0097 27.6213 20.2834L21.6512 14.3134C21.3635 14.0256 21.3635 13.5941 21.6512 13.3064C21.9389 13.0186 22.3705 13.0186 22.6582 13.3064L28.6283 19.2764C30.93 21.5781 30.93 25.3903 28.6283 27.692L27.6932 28.627C26.5423 29.7779 25.0319 30.3533 23.4494 30.3533Z" fill="black"/>
<path d="M23.4494 30.3533C21.9389 30.3533 20.4285 29.7779 19.2057 28.627L13.3076 22.657C13.0199 22.3693 13.0199 21.9377 13.3076 21.65C13.5953 21.3623 14.0269 21.3623 14.3146 21.65L20.2846 27.62C22.0828 29.4182 24.9599 29.4182 26.6862 27.62L27.6213 26.685C29.4195 24.8868 29.4195 22.0097 27.6213 20.2834L21.6512 14.3134C21.3635 14.0256 21.3635 13.5941 21.6512 13.3064C21.9389 13.0186 22.3705 13.0186 22.6582 13.3064L28.6283 19.2764C30.93 21.5781 30.93 25.3903 28.6283 27.692L27.6932 28.627C26.5423 29.7779 25.0319 30.3533 23.4494 30.3533Z" fill="url(#paint6_linear_3_1468)"/>
<defs>
<linearGradient id="paint0_linear_3_1468" x1="46.6781" y1="62.3181" x2="19.4346" y2="51.6219" gradientUnits="userSpaceOnUse">
<stop stop-color="#55097B"/>
<stop offset="1" stop-color="#F00045"/>
</linearGradient>
<linearGradient id="paint1_linear_3_1468" x1="42.7959" y1="42.5181" x2="31.4736" y2="37.1003" gradientUnits="userSpaceOnUse">
<stop stop-color="#55097B"/>
<stop offset="1" stop-color="#F00045"/>
</linearGradient>
<linearGradient id="paint2_linear_3_1468" x1="15.5389" y1="15.1071" x2="-2.05986" y2="6.68597" gradientUnits="userSpaceOnUse">
<stop stop-color="#55097B"/>
<stop offset="1" stop-color="#F00045"/>
</linearGradient>
<linearGradient id="paint3_linear_3_1468" x1="40.3244" y1="40.2894" x2="35.9554" y2="38.1989" gradientUnits="userSpaceOnUse">
<stop stop-color="#55097B"/>
<stop offset="1" stop-color="#F00045"/>
</linearGradient>
<linearGradient id="paint4_linear_3_1468" x1="11.4508" y1="11.3184" x2="5.97423" y2="8.69779" gradientUnits="userSpaceOnUse">
<stop stop-color="#55097B"/>
<stop offset="1" stop-color="#F00045"/>
</linearGradient>
<linearGradient id="paint5_linear_3_1468" x1="33.7641" y1="33.556" x2="26.0496" y2="29.8938" gradientUnits="userSpaceOnUse">
<stop stop-color="#55097B"/>
<stop offset="1" stop-color="#F00045"/>
</linearGradient>
<linearGradient id="paint6_linear_3_1468" x1="26.1315" y1="25.7679" x2="11.3632" y2="18.7012" gradientUnits="userSpaceOnUse">
<stop stop-color="#55097B"/>
<stop offset="1" stop-color="#F00045"/>
</linearGradient>
</defs>
</svg>
