<svg width="62" height="61" viewBox="0 0 62 61" fill="none" xmlns="http://www.w3.org/2000/svg">
<path fill-rule="evenodd" clip-rule="evenodd" d="M32.3619 20.7363V16.0332C32.378 15.6636 32.2408 15.3074 31.9852 15.0396C31.7296 14.7745 31.3771 14.6245 31.0058 14.6245C30.6372 14.6245 30.282 14.7745 30.0264 15.0396C29.7708 15.3074 29.6363 15.6637 29.6524 16.0332V20.7363C29.6363 21.1032 29.7708 21.4621 30.0264 21.7299C30.282 21.9951 30.6372 22.145 31.0058 22.145C31.3771 22.145 31.7296 21.9951 31.9852 21.7299C32.2408 21.4621 32.378 21.1032 32.3619 20.7363ZM21.9357 25.4795C22.8424 27.2633 23.8433 29.0014 25.1724 31.1628C25.2505 31.2914 25.2935 31.4414 25.2935 31.5914V39.2273C25.2935 39.2514 25.2989 39.2755 25.2989 39.2996C25.315 39.7951 25.8505 40.2182 26.0577 39.6344L27.5967 35.5581H27.594C26.6604 32.7512 26.5689 29.7355 27.3357 26.8779C25.8801 25.7396 24.6613 24.3336 23.7465 22.7319C21.6532 19.0386 22.7591 15.3641 19.9447 12.71C19.7833 12.5573 19.6138 12.4127 19.4389 12.2761C17.5447 17.1051 19.7564 21.2161 21.9277 25.4801L21.9357 25.4795ZM25.2989 41.4981C25.3393 41.5088 25.3796 41.5168 25.42 41.5248C26.3886 41.707 27.3411 41.1311 27.6235 40.1884L29.2298 35.9165C29.3213 35.7237 29.332 35.5014 29.2621 35.3005C28.2827 32.5714 28.2208 29.6012 29.0899 26.8343C29.2083 26.4942 29.0872 26.1138 28.7939 25.9022C27.3195 24.8496 26.0899 23.4918 25.1912 21.9223C23.0495 18.146 24.5267 14.7581 21.0935 11.5144C20.8056 11.2465 20.5016 10.9975 20.1814 10.7698C20.4585 10.3038 20.7706 9.85923 21.115 9.44141C24.3545 10.6681 27.7904 11.3001 31.2588 11.3082C34.5279 11.2707 37.7646 10.6761 40.8316 9.54857C41.1464 9.93156 41.4343 10.336 41.6926 10.7565C41.3428 10.9975 41.0145 11.2626 40.7051 11.5519C37.1482 14.8784 38.7329 18.1432 36.5885 21.9942H36.5858C35.7222 23.5288 34.5302 24.8599 33.0935 25.8911C32.7841 26.0973 32.6495 26.4883 32.7733 26.8418C33.7607 29.5657 33.828 32.5385 32.967 35.3053C32.9078 35.4741 32.9078 35.6589 32.967 35.8303L34.3957 40.1048C34.4038 40.1343 34.4118 40.1637 34.4199 40.1905H34.4226C34.7643 41.219 35.8675 41.7894 36.9087 41.4761V46.2407C36.8495 49.0046 34.837 51.3374 32.1033 51.8168C31.9257 51.0562 31.837 50.2795 31.837 49.4975V23.6791C31.9661 23.6443 32.0899 23.6015 32.2136 23.5506C33.3517 23.0872 34.0701 21.9597 34.011 20.7357V16.0326C34.011 11.9697 27.9948 11.9697 27.9948 16.0326V20.7357C27.9356 21.9597 28.6567 23.0872 29.7948 23.5506C29.9213 23.6042 30.0504 23.647 30.1823 23.6845V49.4973C30.1823 50.3089 30.263 51.1177 30.4271 51.9104C27.4755 51.6801 25.2182 49.1893 25.2935 46.2406V41.4973L25.2989 41.4981ZM36.9112 39.4063V31.5914H36.9085C36.9085 31.4254 36.9596 31.2647 37.0511 31.1281C39.1982 27.4588 41.1058 23.656 42.7686 19.7452C43.5731 17.2865 43.4574 14.6189 42.4484 12.2354C42.2358 12.3961 42.0287 12.5648 41.8349 12.7469C39.0018 15.3984 39.9946 19.2605 38.0278 22.7901C37.1426 24.3703 35.9507 25.7576 34.5247 26.8718C35.418 29.7 35.4503 32.7265 34.6189 35.5732L35.9615 39.5826L35.983 39.6335C36.174 40.1638 36.8278 39.8697 36.9112 39.4063ZM39.5695 8.24482C37.1076 6.27629 34.0296 5.23714 30.8735 5.30405C27.8009 5.26388 24.8063 6.2682 22.3877 8.1537C25.2343 9.15267 28.2316 9.66422 31.2503 9.66422C34.0808 9.63476 36.8898 9.15535 39.5695 8.24208V8.24482ZM20.4611 26.2188L20.4262 26.1491V26.1518C18.228 27.3303 15.5051 26.875 13.8154 25.043C10.9391 25.8947 7.85579 24.6386 6.40541 22.0273L6.26819 22.0568H6.2655C5.58479 22.1693 4.89061 21.9443 4.40902 21.4515C3.92472 20.9587 3.71486 20.2623 3.84668 19.5874L4.34982 15.3932L4.35251 15.3959C2.47446 13.1836 1.09152 10.6018 0.295141 7.81617C-0.474372 5.46464 0.29245 2.88013 2.22698 1.32401C4.16151 -0.229367 6.86018 -0.435606 9.00727 0.809784C9.03955 0.825854 9.07184 0.841923 9.10144 0.857993L11.1274 2.09803H11.1247C12.3893 1.69094 13.7696 1.86503 14.8943 2.57476C16.0162 3.28179 16.7615 4.45224 16.9283 5.76455C18.1391 6.41002 19.3821 6.99123 20.6521 7.50813C23.3023 4.88879 27.1955 3.67281 30.8737 3.66479C34.6566 3.65676 38.6012 4.90483 41.3026 7.6179V7.61522C42.6694 7.07421 44.0013 6.45553 45.2981 5.76455C45.4192 4.46828 46.1268 3.29783 47.2219 2.58546C48.3142 1.87301 49.6757 1.69358 50.9161 2.09801L52.9717 0.841923H52.9744C55.1241 -0.363289 57.7959 -0.151701 59.725 1.38293C61.6542 2.91492 62.4532 5.46192 61.7457 7.81612C60.952 10.5935 59.5744 13.1727 57.7044 15.3794L58.3744 19.5361C58.4336 20.2645 58.151 20.9823 57.6075 21.4751C57.064 21.9679 56.3214 22.1795 55.5976 22.0536C55.5465 22.0429 55.4954 22.0322 55.4416 22.0215V22.0188C54.0506 24.6515 50.9914 25.9478 48.1205 25.1255C46.4254 26.8584 43.7886 27.2842 41.6281 26.1727L41.5824 26.2665C40.6783 28.0689 39.7178 29.8205 38.5636 31.8078V46.2439C38.5044 49.7202 36.0317 52.6904 32.612 53.395C34.1214 57.0268 37.6972 59.3837 41.6441 59.3515C44.3024 59.3783 46.8638 58.3579 48.7717 56.5126C50.6766 54.6672 51.769 52.1443 51.812 49.4985V40.6552C50.4856 40.3204 49.5762 39.1071 49.6326 37.7439V31.691H47.7331C47.2757 31.691 46.9071 31.3241 46.9071 30.8688C46.9071 30.4162 47.2757 30.0466 47.7331 30.0466H57.5456C58.003 30.0466 58.3742 30.4162 58.3742 30.8688C58.3742 31.3241 58.0029 31.691 57.5456 31.691H55.6487V37.7439C55.6487 39.0776 54.7554 40.248 53.4666 40.607V49.499C53.4209 52.5817 52.1509 55.5197 49.9366 57.6759C47.7223 59.8292 44.7411 61.0237 41.6443 60.9996C39.3062 61.013 37.0192 60.3087 35.0981 58.9802C33.177 57.6545 31.7134 55.769 30.9089 53.5809C28.961 53.5916 27.091 52.8175 25.7242 51.4382C24.3547 50.0563 23.6041 48.1841 23.6417 46.2451V31.82C22.3503 29.7149 21.3628 27.9928 20.4615 26.2224L20.4611 26.2188ZM19.7024 24.6761H19.7051C18.0423 25.6055 15.9463 25.1689 14.7975 23.6557C14.5876 23.3182 14.1679 23.1789 13.7993 23.3182C11.6952 24.1619 9.28716 23.42 8.03067 21.5398C10.7751 20.4819 12.984 18.3874 14.176 15.7119C14.6065 15.8726 14.9401 16.2234 15.0719 16.6627C15.0988 16.7618 15.1446 16.8528 15.2065 16.9332C15.7688 17.6831 16.4118 16.9653 17.028 16.7859L17.0818 16.7725C17.219 19.6329 18.4997 22.129 19.7105 24.6731L19.7024 24.6761ZM17.1087 15.0909C16.8073 15.1391 16.5141 15.2195 16.2289 15.3266C15.8657 14.7909 15.341 14.3838 14.7302 14.1642C14.7948 13.9232 14.819 13.6741 14.8002 13.425C14.6899 12.2172 13.6271 11.3226 12.4137 11.4137L8.4612 11.7404V11.7431C7.1213 10.1415 6.1258 8.28275 5.53922 6.27938C5.3455 5.62856 5.93743 5.43303 6.44594 5.71427C7.74817 6.56597 9.80915 7.69082 11.3912 7.59175V7.59442C11.9724 9.42638 13.611 10.728 15.5347 10.8887C16.3849 10.9155 17.2244 11.1003 18.0046 11.4377C17.5176 12.6028 17.2136 13.8348 17.106 15.0936L17.1087 15.0909ZM18.7445 9.962C17.7517 9.52544 16.6862 9.2844 15.6046 9.24688C14.184 9.11028 13.0513 8.00951 12.8818 6.60073C12.8791 6.53645 12.8683 6.47217 12.8495 6.41058C12.7177 5.97402 12.2576 5.72762 11.8217 5.85618C10.323 6.30077 8.54459 4.96697 7.24236 4.27599C5.42355 3.27969 3.35182 4.70183 3.95988 6.74538L3.95719 6.7427C4.64328 9.09156 5.84061 11.2582 7.46298 13.0929C7.63248 13.3178 7.90692 13.441 8.18944 13.4169L12.5508 13.0554C12.7311 13.042 12.9033 13.1143 13.019 13.2509C13.1347 13.3848 13.1777 13.5696 13.1347 13.741C12.2683 16.8666 9.84416 19.3252 6.72306 20.2465C6.20109 20.3429 5.37779 20.7956 5.48269 19.7939L5.49076 19.7457L6.03425 15.2194C6.06385 14.9837 5.98851 14.748 5.82977 14.5739C3.98671 12.4902 2.63875 10.0236 1.87998 7.35349C1.29075 5.6394 1.84232 3.73786 3.25756 2.59956C4.67281 1.45859 6.65576 1.31934 8.21628 2.25139L10.5974 3.70569C10.8234 3.84764 11.1032 3.86907 11.3508 3.76729C13.1454 3.012 15.3624 4.23867 15.2952 6.24203C15.2845 6.55271 15.4513 6.83928 15.7257 6.98924C17.0038 7.6829 18.2683 8.29352 19.514 8.81851V8.81584C19.2369 9.18544 18.9786 9.56846 18.7445 9.96483L18.7445 9.962ZM42.4374 8.92819C43.8177 8.35504 45.1657 7.70961 46.4787 6.99717C46.7612 6.85254 46.9361 6.55793 46.928 6.24187C46.9038 5.3393 47.3424 4.4876 48.0904 3.98139C48.841 3.4752 49.7989 3.38414 50.6329 3.74302C50.8885 3.87426 51.198 3.86355 51.4428 3.71356L53.8105 2.25926C55.3764 1.39152 57.3136 1.55758 58.7074 2.67707C60.1038 3.79391 60.6796 5.6419 60.163 7.35065C59.4124 10.0102 58.0724 12.4715 56.2455 14.5498C56.0599 14.7373 55.9738 14.9998 56.0168 15.2569L56.7406 19.7644C56.7917 20.142 56.2859 20.5197 55.928 20.45C52.4518 19.7402 49.6698 17.1504 48.7281 13.7463C48.6259 13.3714 49.1506 13.0285 49.4923 13.0607L53.8537 13.4223C54.1093 13.4437 54.3595 13.3446 54.5317 13.1544C56.181 11.3091 57.3945 9.12365 58.086 6.75073C58.686 4.7233 56.6466 3.29841 54.8331 4.26797C54.5344 4.42063 54.2331 4.5974 53.9371 4.76345C52.6322 5.50798 51.5506 6.12403 49.9712 5.658V5.66068C49.912 5.64193 49.8501 5.62854 49.7882 5.62586C49.3335 5.59372 48.938 5.93386 48.9058 6.38651C48.7901 7.83546 47.695 9.01921 46.2555 9.25761C45.1793 9.29243 44.1192 9.52812 43.1345 9.95394C42.9192 9.60041 42.6878 9.25761 42.4403 8.92549L42.4374 8.92819ZM43.8904 11.4163C44.4043 12.5867 44.7379 13.824 44.8778 15.0936C45.1334 15.1418 45.3837 15.2141 45.6231 15.3105C45.9917 14.7775 46.5164 14.3758 47.1271 14.1589C46.9953 13.4437 47.2052 12.7099 47.6948 12.1716C48.1845 11.6333 48.8975 11.3547 49.624 11.4163L53.5738 11.7431H53.5765C54.9164 10.1415 55.9119 8.28271 56.5011 6.28209C56.6975 5.6152 56.0814 5.44109 55.5837 5.72501C55.3281 5.86161 55.0402 6.02766 54.7604 6.18568C53.3451 6.99453 52.1424 7.68016 50.3881 7.4284C49.8742 9.27105 48.3057 10.6316 46.4007 10.8861L46.3415 10.8887H46.3442C45.4993 10.9155 44.6679 11.095 43.8904 11.419L43.8904 11.4163ZM44.945 16.8077C45.2491 16.9202 45.4697 17.1451 45.7226 17.2255C46.1558 17.3674 46.6213 17.1291 46.7639 16.6979C46.8903 16.2399 47.232 15.8703 47.6813 15.7069C48.8733 18.3825 51.0795 20.4769 53.8186 21.5348C52.6293 23.4445 50.2374 24.2318 48.1387 23.4043C47.7917 23.273 47.3989 23.3882 47.1782 23.6882C46.0293 25.1478 43.9926 25.5737 42.3487 24.6979C42.9971 23.34 43.6321 21.9205 44.3101 20.3297L44.3343 20.2654V20.2627C44.7029 19.1459 44.9101 17.9808 44.9451 16.805L44.945 16.8077ZM53.9936 31.6908H51.2869V37.7436C51.2466 38.0945 51.3649 38.4453 51.6071 38.7024C51.8492 38.9622 52.1936 39.1015 52.5488 39.0881C52.9228 39.1095 53.2887 38.9783 53.5605 38.7239C53.8349 38.4694 53.991 38.1159 53.9937 37.7436L53.9936 31.6908Z" fill="black"/>
<path fill-rule="evenodd" clip-rule="evenodd" d="M32.3619 20.7363V16.0332C32.378 15.6636 32.2408 15.3074 31.9852 15.0396C31.7296 14.7745 31.3771 14.6245 31.0058 14.6245C30.6372 14.6245 30.282 14.7745 30.0264 15.0396C29.7708 15.3074 29.6363 15.6637 29.6524 16.0332V20.7363C29.6363 21.1032 29.7708 21.4621 30.0264 21.7299C30.282 21.9951 30.6372 22.145 31.0058 22.145C31.3771 22.145 31.7296 21.9951 31.9852 21.7299C32.2408 21.4621 32.378 21.1032 32.3619 20.7363ZM21.9357 25.4795C22.8424 27.2633 23.8433 29.0014 25.1724 31.1628C25.2505 31.2914 25.2935 31.4414 25.2935 31.5914V39.2273C25.2935 39.2514 25.2989 39.2755 25.2989 39.2996C25.315 39.7951 25.8505 40.2182 26.0577 39.6344L27.5967 35.5581H27.594C26.6604 32.7512 26.5689 29.7355 27.3357 26.8779C25.8801 25.7396 24.6613 24.3336 23.7465 22.7319C21.6532 19.0386 22.7591 15.3641 19.9447 12.71C19.7833 12.5573 19.6138 12.4127 19.4389 12.2761C17.5447 17.1051 19.7564 21.2161 21.9277 25.4801L21.9357 25.4795ZM25.2989 41.4981C25.3393 41.5088 25.3796 41.5168 25.42 41.5248C26.3886 41.707 27.3411 41.1311 27.6235 40.1884L29.2298 35.9165C29.3213 35.7237 29.332 35.5014 29.2621 35.3005C28.2827 32.5714 28.2208 29.6012 29.0899 26.8343C29.2083 26.4942 29.0872 26.1138 28.7939 25.9022C27.3195 24.8496 26.0899 23.4918 25.1912 21.9223C23.0495 18.146 24.5267 14.7581 21.0935 11.5144C20.8056 11.2465 20.5016 10.9975 20.1814 10.7698C20.4585 10.3038 20.7706 9.85923 21.115 9.44141C24.3545 10.6681 27.7904 11.3001 31.2588 11.3082C34.5279 11.2707 37.7646 10.6761 40.8316 9.54857C41.1464 9.93156 41.4343 10.336 41.6926 10.7565C41.3428 10.9975 41.0145 11.2626 40.7051 11.5519C37.1482 14.8784 38.7329 18.1432 36.5885 21.9942H36.5858C35.7222 23.5288 34.5302 24.8599 33.0935 25.8911C32.7841 26.0973 32.6495 26.4883 32.7733 26.8418C33.7607 29.5657 33.828 32.5385 32.967 35.3053C32.9078 35.4741 32.9078 35.6589 32.967 35.8303L34.3957 40.1048C34.4038 40.1343 34.4118 40.1637 34.4199 40.1905H34.4226C34.7643 41.219 35.8675 41.7894 36.9087 41.4761V46.2407C36.8495 49.0046 34.837 51.3374 32.1033 51.8168C31.9257 51.0562 31.837 50.2795 31.837 49.4975V23.6791C31.9661 23.6443 32.0899 23.6015 32.2136 23.5506C33.3517 23.0872 34.0701 21.9597 34.011 20.7357V16.0326C34.011 11.9697 27.9948 11.9697 27.9948 16.0326V20.7357C27.9356 21.9597 28.6567 23.0872 29.7948 23.5506C29.9213 23.6042 30.0504 23.647 30.1823 23.6845V49.4973C30.1823 50.3089 30.263 51.1177 30.4271 51.9104C27.4755 51.6801 25.2182 49.1893 25.2935 46.2406V41.4973L25.2989 41.4981ZM36.9112 39.4063V31.5914H36.9085C36.9085 31.4254 36.9596 31.2647 37.0511 31.1281C39.1982 27.4588 41.1058 23.656 42.7686 19.7452C43.5731 17.2865 43.4574 14.6189 42.4484 12.2354C42.2358 12.3961 42.0287 12.5648 41.8349 12.7469C39.0018 15.3984 39.9946 19.2605 38.0278 22.7901C37.1426 24.3703 35.9507 25.7576 34.5247 26.8718C35.418 29.7 35.4503 32.7265 34.6189 35.5732L35.9615 39.5826L35.983 39.6335C36.174 40.1638 36.8278 39.8697 36.9112 39.4063ZM39.5695 8.24482C37.1076 6.27629 34.0296 5.23714 30.8735 5.30405C27.8009 5.26388 24.8063 6.2682 22.3877 8.1537C25.2343 9.15267 28.2316 9.66422 31.2503 9.66422C34.0808 9.63476 36.8898 9.15535 39.5695 8.24208V8.24482ZM20.4611 26.2188L20.4262 26.1491V26.1518C18.228 27.3303 15.5051 26.875 13.8154 25.043C10.9391 25.8947 7.85579 24.6386 6.40541 22.0273L6.26819 22.0568H6.2655C5.58479 22.1693 4.89061 21.9443 4.40902 21.4515C3.92472 20.9587 3.71486 20.2623 3.84668 19.5874L4.34982 15.3932L4.35251 15.3959C2.47446 13.1836 1.09152 10.6018 0.295141 7.81617C-0.474372 5.46464 0.29245 2.88013 2.22698 1.32401C4.16151 -0.229367 6.86018 -0.435606 9.00727 0.809784C9.03955 0.825854 9.07184 0.841923 9.10144 0.857993L11.1274 2.09803H11.1247C12.3893 1.69094 13.7696 1.86503 14.8943 2.57476C16.0162 3.28179 16.7615 4.45224 16.9283 5.76455C18.1391 6.41002 19.3821 6.99123 20.6521 7.50813C23.3023 4.88879 27.1955 3.67281 30.8737 3.66479C34.6566 3.65676 38.6012 4.90483 41.3026 7.6179V7.61522C42.6694 7.07421 44.0013 6.45553 45.2981 5.76455C45.4192 4.46828 46.1268 3.29783 47.2219 2.58546C48.3142 1.87301 49.6757 1.69358 50.9161 2.09801L52.9717 0.841923H52.9744C55.1241 -0.363289 57.7959 -0.151701 59.725 1.38293C61.6542 2.91492 62.4532 5.46192 61.7457 7.81612C60.952 10.5935 59.5744 13.1727 57.7044 15.3794L58.3744 19.5361C58.4336 20.2645 58.151 20.9823 57.6075 21.4751C57.064 21.9679 56.3214 22.1795 55.5976 22.0536C55.5465 22.0429 55.4954 22.0322 55.4416 22.0215V22.0188C54.0506 24.6515 50.9914 25.9478 48.1205 25.1255C46.4254 26.8584 43.7886 27.2842 41.6281 26.1727L41.5824 26.2665C40.6783 28.0689 39.7178 29.8205 38.5636 31.8078V46.2439C38.5044 49.7202 36.0317 52.6904 32.612 53.395C34.1214 57.0268 37.6972 59.3837 41.6441 59.3515C44.3024 59.3783 46.8638 58.3579 48.7717 56.5126C50.6766 54.6672 51.769 52.1443 51.812 49.4985V40.6552C50.4856 40.3204 49.5762 39.1071 49.6326 37.7439V31.691H47.7331C47.2757 31.691 46.9071 31.3241 46.9071 30.8688C46.9071 30.4162 47.2757 30.0466 47.7331 30.0466H57.5456C58.003 30.0466 58.3742 30.4162 58.3742 30.8688C58.3742 31.3241 58.0029 31.691 57.5456 31.691H55.6487V37.7439C55.6487 39.0776 54.7554 40.248 53.4666 40.607V49.499C53.4209 52.5817 52.1509 55.5197 49.9366 57.6759C47.7223 59.8292 44.7411 61.0237 41.6443 60.9996C39.3062 61.013 37.0192 60.3087 35.0981 58.9802C33.177 57.6545 31.7134 55.769 30.9089 53.5809C28.961 53.5916 27.091 52.8175 25.7242 51.4382C24.3547 50.0563 23.6041 48.1841 23.6417 46.2451V31.82C22.3503 29.7149 21.3628 27.9928 20.4615 26.2224L20.4611 26.2188ZM19.7024 24.6761H19.7051C18.0423 25.6055 15.9463 25.1689 14.7975 23.6557C14.5876 23.3182 14.1679 23.1789 13.7993 23.3182C11.6952 24.1619 9.28716 23.42 8.03067 21.5398C10.7751 20.4819 12.984 18.3874 14.176 15.7119C14.6065 15.8726 14.9401 16.2234 15.0719 16.6627C15.0988 16.7618 15.1446 16.8528 15.2065 16.9332C15.7688 17.6831 16.4118 16.9653 17.028 16.7859L17.0818 16.7725C17.219 19.6329 18.4997 22.129 19.7105 24.6731L19.7024 24.6761ZM17.1087 15.0909C16.8073 15.1391 16.5141 15.2195 16.2289 15.3266C15.8657 14.7909 15.341 14.3838 14.7302 14.1642C14.7948 13.9232 14.819 13.6741 14.8002 13.425C14.6899 12.2172 13.6271 11.3226 12.4137 11.4137L8.4612 11.7404V11.7431C7.1213 10.1415 6.1258 8.28275 5.53922 6.27938C5.3455 5.62856 5.93743 5.43303 6.44594 5.71427C7.74817 6.56597 9.80915 7.69082 11.3912 7.59175V7.59442C11.9724 9.42638 13.611 10.728 15.5347 10.8887C16.3849 10.9155 17.2244 11.1003 18.0046 11.4377C17.5176 12.6028 17.2136 13.8348 17.106 15.0936L17.1087 15.0909ZM18.7445 9.962C17.7517 9.52544 16.6862 9.2844 15.6046 9.24688C14.184 9.11028 13.0513 8.00951 12.8818 6.60073C12.8791 6.53645 12.8683 6.47217 12.8495 6.41058C12.7177 5.97402 12.2576 5.72762 11.8217 5.85618C10.323 6.30077 8.54459 4.96697 7.24236 4.27599C5.42355 3.27969 3.35182 4.70183 3.95988 6.74538L3.95719 6.7427C4.64328 9.09156 5.84061 11.2582 7.46298 13.0929C7.63248 13.3178 7.90692 13.441 8.18944 13.4169L12.5508 13.0554C12.7311 13.042 12.9033 13.1143 13.019 13.2509C13.1347 13.3848 13.1777 13.5696 13.1347 13.741C12.2683 16.8666 9.84416 19.3252 6.72306 20.2465C6.20109 20.3429 5.37779 20.7956 5.48269 19.7939L5.49076 19.7457L6.03425 15.2194C6.06385 14.9837 5.98851 14.748 5.82977 14.5739C3.98671 12.4902 2.63875 10.0236 1.87998 7.35349C1.29075 5.6394 1.84232 3.73786 3.25756 2.59956C4.67281 1.45859 6.65576 1.31934 8.21628 2.25139L10.5974 3.70569C10.8234 3.84764 11.1032 3.86907 11.3508 3.76729C13.1454 3.012 15.3624 4.23867 15.2952 6.24203C15.2845 6.55271 15.4513 6.83928 15.7257 6.98924C17.0038 7.6829 18.2683 8.29352 19.514 8.81851V8.81584C19.2369 9.18544 18.9786 9.56846 18.7445 9.96483L18.7445 9.962ZM42.4374 8.92819C43.8177 8.35504 45.1657 7.70961 46.4787 6.99717C46.7612 6.85254 46.9361 6.55793 46.928 6.24187C46.9038 5.3393 47.3424 4.4876 48.0904 3.98139C48.841 3.4752 49.7989 3.38414 50.6329 3.74302C50.8885 3.87426 51.198 3.86355 51.4428 3.71356L53.8105 2.25926C55.3764 1.39152 57.3136 1.55758 58.7074 2.67707C60.1038 3.79391 60.6796 5.6419 60.163 7.35065C59.4124 10.0102 58.0724 12.4715 56.2455 14.5498C56.0599 14.7373 55.9738 14.9998 56.0168 15.2569L56.7406 19.7644C56.7917 20.142 56.2859 20.5197 55.928 20.45C52.4518 19.7402 49.6698 17.1504 48.7281 13.7463C48.6259 13.3714 49.1506 13.0285 49.4923 13.0607L53.8537 13.4223C54.1093 13.4437 54.3595 13.3446 54.5317 13.1544C56.181 11.3091 57.3945 9.12365 58.086 6.75073C58.686 4.7233 56.6466 3.29841 54.8331 4.26797C54.5344 4.42063 54.2331 4.5974 53.9371 4.76345C52.6322 5.50798 51.5506 6.12403 49.9712 5.658V5.66068C49.912 5.64193 49.8501 5.62854 49.7882 5.62586C49.3335 5.59372 48.938 5.93386 48.9058 6.38651C48.7901 7.83546 47.695 9.01921 46.2555 9.25761C45.1793 9.29243 44.1192 9.52812 43.1345 9.95394C42.9192 9.60041 42.6878 9.25761 42.4403 8.92549L42.4374 8.92819ZM43.8904 11.4163C44.4043 12.5867 44.7379 13.824 44.8778 15.0936C45.1334 15.1418 45.3837 15.2141 45.6231 15.3105C45.9917 14.7775 46.5164 14.3758 47.1271 14.1589C46.9953 13.4437 47.2052 12.7099 47.6948 12.1716C48.1845 11.6333 48.8975 11.3547 49.624 11.4163L53.5738 11.7431H53.5765C54.9164 10.1415 55.9119 8.28271 56.5011 6.28209C56.6975 5.6152 56.0814 5.44109 55.5837 5.72501C55.3281 5.86161 55.0402 6.02766 54.7604 6.18568C53.3451 6.99453 52.1424 7.68016 50.3881 7.4284C49.8742 9.27105 48.3057 10.6316 46.4007 10.8861L46.3415 10.8887H46.3442C45.4993 10.9155 44.6679 11.095 43.8904 11.419L43.8904 11.4163ZM44.945 16.8077C45.2491 16.9202 45.4697 17.1451 45.7226 17.2255C46.1558 17.3674 46.6213 17.1291 46.7639 16.6979C46.8903 16.2399 47.232 15.8703 47.6813 15.7069C48.8733 18.3825 51.0795 20.4769 53.8186 21.5348C52.6293 23.4445 50.2374 24.2318 48.1387 23.4043C47.7917 23.273 47.3989 23.3882 47.1782 23.6882C46.0293 25.1478 43.9926 25.5737 42.3487 24.6979C42.9971 23.34 43.6321 21.9205 44.3101 20.3297L44.3343 20.2654V20.2627C44.7029 19.1459 44.9101 17.9808 44.9451 16.805L44.945 16.8077ZM53.9936 31.6908H51.2869V37.7436C51.2466 38.0945 51.3649 38.4453 51.6071 38.7024C51.8492 38.9622 52.1936 39.1015 52.5488 39.0881C52.9228 39.1095 53.2887 38.9783 53.5605 38.7239C53.8349 38.4694 53.991 38.1159 53.9937 37.7436L53.9936 31.6908Z" fill="url(#paint0_linear_3_1485)"/>
<defs>
<linearGradient id="paint0_linear_3_1485" x1="46.8326" y1="44.7969" x2="-5.88353" y2="19.1582" gradientUnits="userSpaceOnUse">
<stop stop-color="#55097B"/>
<stop offset="1" stop-color="#F00045"/>
</linearGradient>
</defs>
</svg>
