<svg width="66" height="62" viewBox="0 0 66 62" fill="none" xmlns="http://www.w3.org/2000/svg">
<path d="M44.6478 46.4972V47.7919C44.6478 50.2376 42.6656 52.2287 40.2307 52.2287H35.6817C35.2778 52.2287 34.9484 51.9007 34.9484 51.4921C34.9484 51.0835 35.2778 50.7555 35.6817 50.7555H40.2307C41.8578 50.7555 43.1812 49.4262 43.1812 47.7919V46.4972C43.1812 46.0886 43.5106 45.7606 43.9145 45.7606C44.3184 45.7606 44.6478 46.0886 44.6478 46.4972ZM32.0147 51.4892C32.0147 51.8978 31.6853 52.2258 31.2814 52.2258H4.41716C1.98227 52.2258 0 50.2347 0 47.7891V22.5493C0 20.1037 1.98227 18.1126 4.41716 18.1126H13.7701L14.4633 13.9636C14.618 13.0429 15.4058 12.3724 16.3368 12.3724H28.3048C29.2357 12.3724 30.0236 13.0428 30.1782 13.9636L30.8714 18.1126H40.2244C42.6593 18.1126 44.6415 20.1037 44.6415 22.5493V42.0776C44.6415 42.4862 44.3121 42.8142 43.9082 42.8142C43.5043 42.8142 43.1749 42.4862 43.1749 42.0776V27.95H39.2446C38.8407 27.95 38.5113 27.622 38.5113 27.2134C38.5113 26.8048 38.8407 26.4768 39.2446 26.4768H43.1749V22.5522C43.1749 20.9179 41.8514 19.5886 40.2244 19.5886L4.41717 19.5858C2.79005 19.5858 1.46668 20.9151 1.46668 22.5493V26.4739H5.55729C5.96119 26.4739 6.29062 26.8019 6.29062 27.2105C6.29062 27.6191 5.96119 27.9471 5.55729 27.9471H1.46668V47.7891C1.46668 49.4235 2.79013 50.7527 4.41717 50.7527H31.2814C31.6853 50.7527 32.0147 51.0806 32.0147 51.4892ZM15.2595 18.1132H29.3908L28.7377 14.2087C28.7033 13.9987 28.5229 13.8462 28.3109 13.8462H16.3429C16.1309 13.8462 15.9504 13.9987 15.9161 14.2087L15.2629 18.1132H15.2595ZM12.2574 25.2316C13.2886 25.2316 14.1251 26.0717 14.1251 27.1076V27.3176C14.1251 28.3534 13.2887 29.1936 12.2574 29.1936H8.57641C7.54519 29.1936 6.70868 28.3535 6.70868 27.3176V27.1076C6.70868 26.0718 7.54512 25.2316 8.57641 25.2316H12.2574ZM12.2574 26.7048H8.57641C8.35583 26.7048 8.17537 26.886 8.17537 27.1076V27.3176C8.17537 27.5392 8.35583 27.7205 8.57641 27.7205H12.2574C12.4779 27.7205 12.6584 27.5392 12.6584 27.3176V27.1076C12.6584 26.886 12.478 26.7048 12.2574 26.7048ZM36.2308 29.1936H32.5498C31.5186 29.1936 30.6821 28.3535 30.6821 27.3176V27.1076C30.6821 26.0718 31.5185 25.2316 32.5498 25.2316H36.2308C37.262 25.2316 38.0985 26.0717 38.0985 27.1076V27.3176C38.0985 28.3534 37.2621 29.1936 36.2308 29.1936ZM32.5498 27.7204H36.2308C36.4513 27.7204 36.6318 27.5392 36.6318 27.3176V27.1076C36.6318 26.886 36.4514 26.7048 36.2308 26.7048H32.5498C32.3292 26.7048 32.1488 26.886 32.1488 27.1076V27.3176C32.1488 27.5392 32.3292 27.7204 32.5498 27.7204ZM30.261 27.2112C30.261 26.8026 29.9316 26.4746 29.5277 26.4746H15.2761C14.8722 26.4746 14.5427 26.8026 14.5427 27.2112C14.5427 27.6197 14.8722 27.9477 15.2761 27.9477H29.5277C29.9316 27.9477 30.261 27.6197 30.261 27.2112ZM19.5734 43.9971V41.7183H17.3046C16.4939 41.7183 15.8322 41.0565 15.8322 40.2394V37.6728C15.8322 36.8557 16.4939 36.1939 17.3046 36.1939H19.5734V33.9151C19.5734 33.0979 20.2351 32.4362 21.0458 32.4362H23.601C24.4117 32.4362 25.0734 33.098 25.0734 33.9151V36.1939H27.3422C28.1529 36.1939 28.8146 36.8557 28.8146 37.6728V40.2394C28.8146 41.0537 28.1557 41.7183 27.3422 41.7183H25.0734V43.9971C25.0734 44.8143 24.4145 45.476 23.601 45.476H21.0458C20.2351 45.476 19.5734 44.8143 19.5734 43.9971ZM20.3067 40.2451C20.7106 40.2451 21.0401 40.5731 21.0401 40.9817V43.9971L23.601 44.0029L23.6067 40.9817C23.6067 40.5731 23.9362 40.2451 24.3401 40.2451H27.3422L27.3479 37.6728L27.3422 37.6671H24.3401C23.9362 37.6671 23.6067 37.3391 23.6067 36.9305V33.9151L21.0458 33.9093L21.0401 36.9305C21.0401 37.3391 20.7106 37.6671 20.3067 37.6671H17.3046L17.2989 40.2394L20.3067 40.2451ZM66 58.0063C66 60.2075 64.2154 62 62.0239 62C59.8325 62 58.0479 60.2075 58.0479 58.0063C58.0479 56.6339 58.7382 55.4225 59.7895 54.7032C57.6984 52.2892 55.2291 50.1687 52.5192 48.4652C52.3015 48.9285 52.0723 49.3888 51.8346 49.8463C50.3994 52.5913 48.9155 54.5593 47.1624 56.0353C45.0741 57.7933 42.6507 58.7457 40.2874 58.7457C40.1156 58.7457 39.9466 58.74 39.7775 58.7313C36.8729 58.5616 34.2403 56.7863 33.2291 54.3118C32.1549 51.6878 32.9484 48.353 35.1655 46.2035C37.0877 44.3391 39.9465 43.3435 43.0144 43.4816C45.4379 43.5881 48.0074 44.3563 50.8691 45.8324C51.1986 46.0021 51.528 46.1776 51.8517 46.3618C54.5444 39.885 55.292 32.6805 53.9485 25.7633C53.9371 25.7086 53.9485 25.6568 53.9485 25.6021C48.9327 25.5043 44.8794 21.3812 44.8794 16.3197V7.18171C44.8794 5.17334 45.9479 3.28585 47.6695 2.26156C47.6867 2.25005 47.7068 2.25005 47.724 2.24142C47.9159 0.975382 48.9958 0 50.3078 0C51.7544 0 52.9317 1.18258 52.9317 2.63556C52.9317 4.08855 51.7544 5.27113 50.3078 5.27113C49.2909 5.27113 48.4172 4.68129 47.9817 3.82676C46.9619 4.62375 46.346 5.86673 46.346 7.1788V16.3168C46.346 20.627 49.8379 24.1342 54.1289 24.1342C58.4198 24.1342 61.9118 20.6268 61.9118 16.3168V7.1788C61.9118 5.86385 61.293 4.62087 60.2732 3.82389C59.8378 4.67847 58.964 5.27113 57.9443 5.27113C56.4976 5.27113 55.3203 4.08855 55.3203 2.63556C55.3203 1.18258 56.4977 0 57.9443 0C59.2563 0 60.3362 0.975382 60.5281 2.23855C60.5482 2.24718 60.5711 2.24718 60.5883 2.25869C62.3099 3.28585 63.3784 5.17047 63.3784 7.17883V16.3169C63.3784 21.0097 59.895 24.8885 55.3916 25.5124C56.7953 32.7717 55.9875 40.3302 53.1258 47.1119C56.1594 48.9936 58.9151 51.376 61.2071 54.1008C61.4707 54.0461 61.7457 54.0145 62.0235 54.0145C64.2178 54.0145 65.9996 55.807 65.9996 58.0082L66 58.0063ZM59.0992 2.63009C59.0992 1.98846 58.5807 1.46769 57.9419 1.46769C57.3031 1.46769 56.7846 1.98848 56.7846 2.63009C56.7846 3.27172 57.3031 3.79249 57.9419 3.79249C58.5807 3.79249 59.0992 3.27171 59.0992 2.63009ZM49.1479 2.63009C49.1479 3.27172 49.6663 3.79249 50.3051 3.79249C50.9439 3.79249 51.4624 3.27171 51.4624 2.63009C51.4624 1.98846 50.9439 1.46769 50.3051 1.46769C49.6663 1.46769 49.1479 1.98848 49.1479 2.63009ZM51.2533 47.7082C50.9039 47.5125 50.5515 47.3197 50.1963 47.1385C47.5294 45.7603 45.1575 45.0438 42.9489 44.9488C42.7856 44.9431 42.6224 44.9373 42.4619 44.9373C39.9841 44.9373 37.7153 45.7717 36.1828 47.2592C34.3895 49 33.7307 51.6701 34.5843 53.7504C35.3864 55.7098 37.5062 57.1197 39.8609 57.2578C41.9778 57.3844 44.2981 56.5241 46.2203 54.9042C47.8216 53.5576 49.1937 51.7305 50.5343 49.1611C50.7835 48.6835 51.0242 48.2001 51.2505 47.7109L51.2533 47.7082ZM64.5333 58.0056C64.5333 56.6159 63.4074 55.4851 62.0239 55.4851C60.6403 55.4851 59.5145 56.6159 59.5145 58.0056C59.5145 59.3953 60.6403 60.5261 62.0239 60.5261C63.4074 60.5261 64.5333 59.3953 64.5333 58.0056Z" fill="black"/>
<path d="M44.6478 46.4972V47.7919C44.6478 50.2376 42.6656 52.2287 40.2307 52.2287H35.6817C35.2778 52.2287 34.9484 51.9007 34.9484 51.4921C34.9484 51.0835 35.2778 50.7555 35.6817 50.7555H40.2307C41.8578 50.7555 43.1812 49.4262 43.1812 47.7919V46.4972C43.1812 46.0886 43.5106 45.7606 43.9145 45.7606C44.3184 45.7606 44.6478 46.0886 44.6478 46.4972ZM32.0147 51.4892C32.0147 51.8978 31.6853 52.2258 31.2814 52.2258H4.41716C1.98227 52.2258 0 50.2347 0 47.7891V22.5493C0 20.1037 1.98227 18.1126 4.41716 18.1126H13.7701L14.4633 13.9636C14.618 13.0429 15.4058 12.3724 16.3368 12.3724H28.3048C29.2357 12.3724 30.0236 13.0428 30.1782 13.9636L30.8714 18.1126H40.2244C42.6593 18.1126 44.6415 20.1037 44.6415 22.5493V42.0776C44.6415 42.4862 44.3121 42.8142 43.9082 42.8142C43.5043 42.8142 43.1749 42.4862 43.1749 42.0776V27.95H39.2446C38.8407 27.95 38.5113 27.622 38.5113 27.2134C38.5113 26.8048 38.8407 26.4768 39.2446 26.4768H43.1749V22.5522C43.1749 20.9179 41.8514 19.5886 40.2244 19.5886L4.41717 19.5858C2.79005 19.5858 1.46668 20.9151 1.46668 22.5493V26.4739H5.55729C5.96119 26.4739 6.29062 26.8019 6.29062 27.2105C6.29062 27.6191 5.96119 27.9471 5.55729 27.9471H1.46668V47.7891C1.46668 49.4235 2.79013 50.7527 4.41717 50.7527H31.2814C31.6853 50.7527 32.0147 51.0806 32.0147 51.4892ZM15.2595 18.1132H29.3908L28.7377 14.2087C28.7033 13.9987 28.5229 13.8462 28.3109 13.8462H16.3429C16.1309 13.8462 15.9504 13.9987 15.9161 14.2087L15.2629 18.1132H15.2595ZM12.2574 25.2316C13.2886 25.2316 14.1251 26.0717 14.1251 27.1076V27.3176C14.1251 28.3534 13.2887 29.1936 12.2574 29.1936H8.57641C7.54519 29.1936 6.70868 28.3535 6.70868 27.3176V27.1076C6.70868 26.0718 7.54512 25.2316 8.57641 25.2316H12.2574ZM12.2574 26.7048H8.57641C8.35583 26.7048 8.17537 26.886 8.17537 27.1076V27.3176C8.17537 27.5392 8.35583 27.7205 8.57641 27.7205H12.2574C12.4779 27.7205 12.6584 27.5392 12.6584 27.3176V27.1076C12.6584 26.886 12.478 26.7048 12.2574 26.7048ZM36.2308 29.1936H32.5498C31.5186 29.1936 30.6821 28.3535 30.6821 27.3176V27.1076C30.6821 26.0718 31.5185 25.2316 32.5498 25.2316H36.2308C37.262 25.2316 38.0985 26.0717 38.0985 27.1076V27.3176C38.0985 28.3534 37.2621 29.1936 36.2308 29.1936ZM32.5498 27.7204H36.2308C36.4513 27.7204 36.6318 27.5392 36.6318 27.3176V27.1076C36.6318 26.886 36.4514 26.7048 36.2308 26.7048H32.5498C32.3292 26.7048 32.1488 26.886 32.1488 27.1076V27.3176C32.1488 27.5392 32.3292 27.7204 32.5498 27.7204ZM30.261 27.2112C30.261 26.8026 29.9316 26.4746 29.5277 26.4746H15.2761C14.8722 26.4746 14.5427 26.8026 14.5427 27.2112C14.5427 27.6197 14.8722 27.9477 15.2761 27.9477H29.5277C29.9316 27.9477 30.261 27.6197 30.261 27.2112ZM19.5734 43.9971V41.7183H17.3046C16.4939 41.7183 15.8322 41.0565 15.8322 40.2394V37.6728C15.8322 36.8557 16.4939 36.1939 17.3046 36.1939H19.5734V33.9151C19.5734 33.0979 20.2351 32.4362 21.0458 32.4362H23.601C24.4117 32.4362 25.0734 33.098 25.0734 33.9151V36.1939H27.3422C28.1529 36.1939 28.8146 36.8557 28.8146 37.6728V40.2394C28.8146 41.0537 28.1557 41.7183 27.3422 41.7183H25.0734V43.9971C25.0734 44.8143 24.4145 45.476 23.601 45.476H21.0458C20.2351 45.476 19.5734 44.8143 19.5734 43.9971ZM20.3067 40.2451C20.7106 40.2451 21.0401 40.5731 21.0401 40.9817V43.9971L23.601 44.0029L23.6067 40.9817C23.6067 40.5731 23.9362 40.2451 24.3401 40.2451H27.3422L27.3479 37.6728L27.3422 37.6671H24.3401C23.9362 37.6671 23.6067 37.3391 23.6067 36.9305V33.9151L21.0458 33.9093L21.0401 36.9305C21.0401 37.3391 20.7106 37.6671 20.3067 37.6671H17.3046L17.2989 40.2394L20.3067 40.2451ZM66 58.0063C66 60.2075 64.2154 62 62.0239 62C59.8325 62 58.0479 60.2075 58.0479 58.0063C58.0479 56.6339 58.7382 55.4225 59.7895 54.7032C57.6984 52.2892 55.2291 50.1687 52.5192 48.4652C52.3015 48.9285 52.0723 49.3888 51.8346 49.8463C50.3994 52.5913 48.9155 54.5593 47.1624 56.0353C45.0741 57.7933 42.6507 58.7457 40.2874 58.7457C40.1156 58.7457 39.9466 58.74 39.7775 58.7313C36.8729 58.5616 34.2403 56.7863 33.2291 54.3118C32.1549 51.6878 32.9484 48.353 35.1655 46.2035C37.0877 44.3391 39.9465 43.3435 43.0144 43.4816C45.4379 43.5881 48.0074 44.3563 50.8691 45.8324C51.1986 46.0021 51.528 46.1776 51.8517 46.3618C54.5444 39.885 55.292 32.6805 53.9485 25.7633C53.9371 25.7086 53.9485 25.6568 53.9485 25.6021C48.9327 25.5043 44.8794 21.3812 44.8794 16.3197V7.18171C44.8794 5.17334 45.9479 3.28585 47.6695 2.26156C47.6867 2.25005 47.7068 2.25005 47.724 2.24142C47.9159 0.975382 48.9958 0 50.3078 0C51.7544 0 52.9317 1.18258 52.9317 2.63556C52.9317 4.08855 51.7544 5.27113 50.3078 5.27113C49.2909 5.27113 48.4172 4.68129 47.9817 3.82676C46.9619 4.62375 46.346 5.86673 46.346 7.1788V16.3168C46.346 20.627 49.8379 24.1342 54.1289 24.1342C58.4198 24.1342 61.9118 20.6268 61.9118 16.3168V7.1788C61.9118 5.86385 61.293 4.62087 60.2732 3.82389C59.8378 4.67847 58.964 5.27113 57.9443 5.27113C56.4976 5.27113 55.3203 4.08855 55.3203 2.63556C55.3203 1.18258 56.4977 0 57.9443 0C59.2563 0 60.3362 0.975382 60.5281 2.23855C60.5482 2.24718 60.5711 2.24718 60.5883 2.25869C62.3099 3.28585 63.3784 5.17047 63.3784 7.17883V16.3169C63.3784 21.0097 59.895 24.8885 55.3916 25.5124C56.7953 32.7717 55.9875 40.3302 53.1258 47.1119C56.1594 48.9936 58.9151 51.376 61.2071 54.1008C61.4707 54.0461 61.7457 54.0145 62.0235 54.0145C64.2178 54.0145 65.9996 55.807 65.9996 58.0082L66 58.0063ZM59.0992 2.63009C59.0992 1.98846 58.5807 1.46769 57.9419 1.46769C57.3031 1.46769 56.7846 1.98848 56.7846 2.63009C56.7846 3.27172 57.3031 3.79249 57.9419 3.79249C58.5807 3.79249 59.0992 3.27171 59.0992 2.63009ZM49.1479 2.63009C49.1479 3.27172 49.6663 3.79249 50.3051 3.79249C50.9439 3.79249 51.4624 3.27171 51.4624 2.63009C51.4624 1.98846 50.9439 1.46769 50.3051 1.46769C49.6663 1.46769 49.1479 1.98848 49.1479 2.63009ZM51.2533 47.7082C50.9039 47.5125 50.5515 47.3197 50.1963 47.1385C47.5294 45.7603 45.1575 45.0438 42.9489 44.9488C42.7856 44.9431 42.6224 44.9373 42.4619 44.9373C39.9841 44.9373 37.7153 45.7717 36.1828 47.2592C34.3895 49 33.7307 51.6701 34.5843 53.7504C35.3864 55.7098 37.5062 57.1197 39.8609 57.2578C41.9778 57.3844 44.2981 56.5241 46.2203 54.9042C47.8216 53.5576 49.1937 51.7305 50.5343 49.1611C50.7835 48.6835 51.0242 48.2001 51.2505 47.7109L51.2533 47.7082ZM64.5333 58.0056C64.5333 56.6159 63.4074 55.4851 62.0239 55.4851C60.6403 55.4851 59.5145 56.6159 59.5145 58.0056C59.5145 59.3953 60.6403 60.5261 62.0239 60.5261C63.4074 60.5261 64.5333 59.3953 64.5333 58.0056Z" fill="url(#paint0_linear_3_1466)"/>
<defs>
<linearGradient id="paint0_linear_3_1466" x1="49.8541" y1="45.5312" x2="-5.24148" y2="17.4667" gradientUnits="userSpaceOnUse">
<stop stop-color="#55097B"/>
<stop offset="1" stop-color="#F00045"/>
</linearGradient>
</defs>
</svg>
