<svg width="42" height="49" viewBox="0 0 42 49" fill="none" xmlns="http://www.w3.org/2000/svg">
<path d="M41.8849 40.9134C41.8211 40.0379 41.7312 39.1641 41.6257 38.293C41.4265 36.6482 41.1529 35.0132 40.8116 33.3913C39.5856 27.5614 37.409 21.7342 33.8949 16.844C32.513 14.921 30.8947 13.1516 28.9828 11.7289C28.9845 11.7279 28.9861 11.7268 28.9872 11.7257C29.8186 11.1671 30.7043 10.7059 31.6378 10.3384C31.771 10.3744 31.9131 10.3978 32.0646 10.4065C33.7229 10.5034 34.32 8.31038 34.3461 7.08592C34.3755 5.70793 33.6884 3.86008 32.0646 3.76535C31.5934 3.73758 31.2088 3.89493 30.8975 4.16225C29.4789 4.5009 28.0871 4.95605 26.739 5.51901C26.5137 4.02178 26.0209 2.55886 24.9453 1.4324C23.8298 0.264026 22.166 -0.125796 20.5876 0.0342705C20.5799 0.0348149 20.5732 0.0364483 20.5654 0.0375371C19.7646 0.136082 18.9993 0.321193 18.2412 0.593416C17.6224 0.815549 17.0053 1.00556 16.4037 1.27452C16.3959 1.27778 16.3892 1.28323 16.3815 1.28704C12.7314 3.00803 10.7501 6.37542 9.92376 10.0608C9.80222 8.19495 10.0109 6.30573 10.4199 4.45407C10.5398 4.25699 10.6169 4.03267 10.6369 3.7757C10.6924 3.04124 9.90822 2.53109 9.31717 2.28446C8.3232 1.87068 7.21991 1.75472 6.14825 1.74437C4.87457 1.73239 2.18848 1.92077 1.72452 3.43215C1.67457 3.52525 1.6496 3.63958 1.66014 3.77515C1.6496 3.90854 1.67402 4.0207 1.7223 4.11271C1.78168 4.31306 1.87991 4.49055 2.00867 4.64626C2.63413 8.1318 2.78508 11.7017 2.38106 15.221C2.18238 16.9551 1.68678 18.6238 1.05688 20.2506C0.786054 20.9491 0.564063 21.664 0.393685 22.3903C0.38314 22.4235 0.376481 22.4572 0.370931 22.4915C0.176689 23.3436 0.0540388 24.2109 0.0107506 25.0864C-0.073606 26.785 0.354836 28.4189 0.723341 30.0609C1.03246 31.4351 1.70399 32.7598 2.52202 33.9151C2.52979 33.9265 2.53534 33.9379 2.54367 33.9494C2.58085 34.0027 2.62025 34.0539 2.65799 34.1067C2.6702 34.3223 2.67964 34.5379 2.68907 34.7535C2.70794 35.1842 2.71737 35.6154 2.72292 36.046C2.73513 36.964 2.71016 37.8814 2.65688 38.7977C2.55699 40.5154 2.31224 42.2195 1.92154 43.8969C1.89046 44.0281 1.85827 44.1588 1.82553 44.29C1.75893 44.5573 1.85772 44.9276 2.1402 45.0495C4.3207 45.9876 6.59833 46.1662 8.91259 45.6234C9.12459 45.5738 9.35491 45.3724 9.39098 45.154C9.61963 43.7957 9.84828 42.4373 10.0764 41.0794C11.3195 42.0366 12.5893 43.0541 13.9546 43.8016C15.1405 44.4512 16.392 44.9847 17.6596 45.4584C23.6778 47.7086 30.2692 48.424 36.6393 48.9924C37.3391 49.055 38.1005 48.7191 38.726 48.4392C39.3659 48.1534 39.9419 47.708 40.4125 47.1995C41.3954 46.1357 41.7967 44.7386 41.9637 43.3443C42.0592 42.5494 41.9426 41.7104 41.8849 40.9134ZM31.5512 15.974C31.5729 16.0306 31.6051 16.0889 31.6495 16.1471C31.892 16.4602 32.134 16.7738 32.3759 17.0874C32.4586 17.1946 32.5419 17.3024 32.6251 17.4097C32.6257 17.4331 32.6262 17.4571 32.6268 17.481C32.6323 17.6558 32.6329 17.8322 32.6073 18.0053C32.3138 20.0143 29.9856 20.8419 28.3312 19.7829C27.6692 19.3588 27.0898 18.7278 26.4976 18.2176C25.9959 17.7848 25.4931 17.352 24.9914 16.9191C25.623 15.2863 26.5686 13.7967 27.8867 12.5979C29.2497 13.5588 30.4651 14.7043 31.5512 15.974ZM32.9759 7.08646C32.987 7.59824 32.8071 9.01924 32.0646 9.06225C32.0518 9.0628 32.0396 9.06225 32.028 9.06225C31.9408 8.98658 31.8315 8.93812 31.7044 8.93213C31.2682 8.55048 31.1611 7.44471 31.1539 7.08646C31.1622 6.69882 31.246 5.79286 31.6139 5.35513C31.6733 5.32519 31.7322 5.28544 31.7882 5.23263L31.7893 5.23154C31.8115 5.21085 31.8287 5.18907 31.847 5.1673C31.9131 5.13517 31.9852 5.11503 32.0646 5.11067C32.806 5.06712 32.967 6.64492 32.9759 7.08646ZM17.0957 2.43854C17.0996 2.43691 17.1029 2.43418 17.1063 2.43255C17.5963 2.21477 18.1025 2.07158 18.6058 1.89137C19.2457 1.66107 19.9089 1.46235 20.5876 1.38014C20.5893 1.38014 20.591 1.37959 20.5926 1.37959C21.8552 1.25219 23.0584 1.47433 23.9769 2.38409C24.942 3.34068 25.2977 4.78074 25.4431 6.10048C24.2755 6.65908 23.1478 7.29717 22.0739 8.00603C21.1177 6.90299 19.2951 7.02875 18.1247 8.02291C16.9598 9.01217 16.3809 10.9368 17.4731 12.0496C16.9631 12.6932 16.5097 13.3868 16.2044 14.1403C15.3731 13.5675 14.4563 13.1325 13.4296 12.9915C12.541 12.869 11.6775 12.9899 10.8594 13.2812C11.1086 8.88694 12.8091 4.44754 17.0957 2.43854ZM3.21075 3.67171C3.43108 3.52906 3.68082 3.44794 3.93056 3.37117C4.64648 3.15176 5.40291 3.09786 6.14825 3.09024C6.89913 3.08316 7.64391 3.17136 8.36649 3.37117C8.62233 3.44195 8.85765 3.53995 9.0863 3.67171C9.11405 3.6875 9.16011 3.74031 9.19896 3.77624C9.16344 3.80945 9.1196 3.86063 9.0863 3.88241C8.86597 4.02505 8.61623 4.10617 8.36649 4.18294C7.65001 4.40235 6.89414 4.45625 6.14825 4.46387C5.39736 4.47095 4.65314 4.38275 3.93056 4.18294C3.67471 4.11216 3.4394 4.01416 3.21075 3.88241C3.20908 3.88186 3.20798 3.88077 3.20631 3.87968C3.17801 3.83667 3.14582 3.79911 3.10863 3.76753C3.14582 3.73214 3.18689 3.68695 3.21075 3.67171ZM1.75671 28.3683C1.50086 27.4999 1.39098 26.607 1.37211 25.7048C1.33715 24.0127 1.73729 22.3641 2.31335 20.7831C2.90662 19.1541 3.43385 17.5518 3.6736 15.8297C4.15088 12.4024 4.03545 8.92016 3.53097 5.50267C4.44447 5.75639 5.4856 5.80103 6.14825 5.80756C6.82476 5.8141 7.8992 5.76346 8.82768 5.48906C8.32542 8.50257 8.3676 11.6005 9.46812 14.4974C9.51085 14.7081 9.64738 14.8519 9.81776 14.9292C10.012 15.0397 10.2529 15.0555 10.4848 14.9265C11.324 14.4599 12.2558 14.1757 13.2286 14.3091C14.3042 14.4572 15.2543 15.0468 16.0657 15.7263C17.0308 17.0498 17.5325 18.5198 17.3765 20.1629C17.1912 22.1175 16.0119 23.9468 14.7976 25.4435C14.0078 26.4164 13.1182 27.2451 12.1914 28.0857C11.2757 28.9171 10.4543 29.8557 9.73063 30.8526C8.40867 32.6743 7.95081 34.864 7.00735 36.8573C6.41741 36.321 5.84467 35.7651 5.29691 35.1847C4.80021 34.6577 4.33513 34.1029 3.90836 33.5198C3.90558 33.516 3.90447 33.5116 3.9017 33.5084C3.76129 33.3178 3.62587 33.1262 3.4949 32.9296C3.01151 32.2077 2.60915 31.4346 2.31391 30.6206C2.04696 29.8846 1.97648 29.1131 1.75671 28.3683ZM3.28401 44.0673C3.89448 41.3789 4.12258 38.6272 4.0865 35.8762C5.51169 37.454 7.16385 38.8407 8.8521 40.1441C8.61235 41.5678 8.37315 42.991 8.1334 44.4152C6.49899 44.7299 4.84793 44.6379 3.28401 44.0673ZM39.6273 46.0241C39.2665 46.5386 38.7382 46.9159 38.1843 47.2061C37.8774 47.3672 37.5472 47.4717 37.2137 47.5665C36.7392 47.7015 36.2757 47.6166 35.7907 47.5714C34.0608 47.4113 32.3332 47.2235 30.61 46.9997C27.4305 46.5876 24.2594 46.0235 21.1687 45.1726C18.4121 44.4131 15.6561 43.4216 13.3241 41.7671C12.2341 40.9939 11.1436 40.2116 10.0786 39.3982C9.92376 39.2278 9.70565 39.0906 9.54582 38.961C9.05855 38.5663 8.58349 38.1438 8.08623 37.754C9.14179 35.6437 9.61852 33.3173 11.0304 31.3714C11.7602 30.3653 12.6592 29.4637 13.5988 28.647C14.6305 27.7509 15.5285 26.7306 16.3548 25.6482C17.6124 23.9996 18.5642 22.0979 18.7601 20.029C18.926 18.2781 18.3244 16.5549 17.3111 15.1323C17.6024 14.1027 18.2357 13.2071 18.941 12.4002C19.2113 12.0905 19.2224 11.5525 18.8023 11.3446C16.7178 10.309 20.4989 7.16595 21.1987 9.14338C21.3324 9.52122 21.8214 9.81196 22.2049 9.54518C23.5446 8.61363 24.9686 7.79969 26.456 7.11968C26.5076 7.10334 26.5559 7.08102 26.6003 7.05271C27.6947 6.55999 28.823 6.14131 29.9762 5.80157C29.8602 6.22461 29.8003 6.64819 29.7853 7.00208C29.7831 7.0293 29.782 7.05707 29.7825 7.08592C29.782 7.11423 29.7831 7.142 29.7853 7.16868C29.8125 7.90368 29.9973 8.75464 30.4146 9.4009C29.6782 9.73138 28.9689 10.1125 28.2957 10.5644C28.0338 10.7435 27.784 10.9313 27.5426 11.1257C27.4849 11.1595 27.4322 11.2025 27.3861 11.252C25.6008 12.7383 24.3848 14.6336 23.6206 16.7433C23.5174 16.869 23.458 17.0226 23.4702 17.1788C23.1233 18.2351 22.8841 19.3403 22.741 20.4716C22.6327 21.3308 24.0041 21.3204 24.1118 20.4716C24.2044 19.7415 24.3448 19.018 24.5363 18.3118C24.9792 18.6935 25.4221 19.0751 25.8649 19.4568C26.8256 20.2849 27.7197 21.2099 29.0033 21.5257C31.0268 22.0239 33.053 20.8097 33.7556 18.969C35.4183 21.5839 36.687 24.4728 37.6776 27.2658C38.7609 30.3212 39.5251 33.4839 40.0302 36.6792C40.2943 38.3507 40.4647 40.0368 40.5696 41.7257C40.6634 43.2545 40.5369 44.7283 39.6273 46.0241Z" fill="black"/>
<path d="M41.8849 40.9134C41.8211 40.0379 41.7312 39.1641 41.6257 38.293C41.4265 36.6482 41.1529 35.0132 40.8116 33.3913C39.5856 27.5614 37.409 21.7342 33.8949 16.844C32.513 14.921 30.8947 13.1516 28.9828 11.7289C28.9845 11.7279 28.9861 11.7268 28.9872 11.7257C29.8186 11.1671 30.7043 10.7059 31.6378 10.3384C31.771 10.3744 31.9131 10.3978 32.0646 10.4065C33.7229 10.5034 34.32 8.31038 34.3461 7.08592C34.3755 5.70793 33.6884 3.86008 32.0646 3.76535C31.5934 3.73758 31.2088 3.89493 30.8975 4.16225C29.4789 4.5009 28.0871 4.95605 26.739 5.51901C26.5137 4.02178 26.0209 2.55886 24.9453 1.4324C23.8298 0.264026 22.166 -0.125796 20.5876 0.0342705C20.5799 0.0348149 20.5732 0.0364483 20.5654 0.0375371C19.7646 0.136082 18.9993 0.321193 18.2412 0.593416C17.6224 0.815549 17.0053 1.00556 16.4037 1.27452C16.3959 1.27778 16.3892 1.28323 16.3815 1.28704C12.7314 3.00803 10.7501 6.37542 9.92376 10.0608C9.80222 8.19495 10.0109 6.30573 10.4199 4.45407C10.5398 4.25699 10.6169 4.03267 10.6369 3.7757C10.6924 3.04124 9.90822 2.53109 9.31717 2.28446C8.3232 1.87068 7.21991 1.75472 6.14825 1.74437C4.87457 1.73239 2.18848 1.92077 1.72452 3.43215C1.67457 3.52525 1.6496 3.63958 1.66014 3.77515C1.6496 3.90854 1.67402 4.0207 1.7223 4.11271C1.78168 4.31306 1.87991 4.49055 2.00867 4.64626C2.63413 8.1318 2.78508 11.7017 2.38106 15.221C2.18238 16.9551 1.68678 18.6238 1.05688 20.2506C0.786054 20.9491 0.564063 21.664 0.393685 22.3903C0.38314 22.4235 0.376481 22.4572 0.370931 22.4915C0.176689 23.3436 0.0540388 24.2109 0.0107506 25.0864C-0.073606 26.785 0.354836 28.4189 0.723341 30.0609C1.03246 31.4351 1.70399 32.7598 2.52202 33.9151C2.52979 33.9265 2.53534 33.9379 2.54367 33.9494C2.58085 34.0027 2.62025 34.0539 2.65799 34.1067C2.6702 34.3223 2.67964 34.5379 2.68907 34.7535C2.70794 35.1842 2.71737 35.6154 2.72292 36.046C2.73513 36.964 2.71016 37.8814 2.65688 38.7977C2.55699 40.5154 2.31224 42.2195 1.92154 43.8969C1.89046 44.0281 1.85827 44.1588 1.82553 44.29C1.75893 44.5573 1.85772 44.9276 2.1402 45.0495C4.3207 45.9876 6.59833 46.1662 8.91259 45.6234C9.12459 45.5738 9.35491 45.3724 9.39098 45.154C9.61963 43.7957 9.84828 42.4373 10.0764 41.0794C11.3195 42.0366 12.5893 43.0541 13.9546 43.8016C15.1405 44.4512 16.392 44.9847 17.6596 45.4584C23.6778 47.7086 30.2692 48.424 36.6393 48.9924C37.3391 49.055 38.1005 48.7191 38.726 48.4392C39.3659 48.1534 39.9419 47.708 40.4125 47.1995C41.3954 46.1357 41.7967 44.7386 41.9637 43.3443C42.0592 42.5494 41.9426 41.7104 41.8849 40.9134ZM31.5512 15.974C31.5729 16.0306 31.6051 16.0889 31.6495 16.1471C31.892 16.4602 32.134 16.7738 32.3759 17.0874C32.4586 17.1946 32.5419 17.3024 32.6251 17.4097C32.6257 17.4331 32.6262 17.4571 32.6268 17.481C32.6323 17.6558 32.6329 17.8322 32.6073 18.0053C32.3138 20.0143 29.9856 20.8419 28.3312 19.7829C27.6692 19.3588 27.0898 18.7278 26.4976 18.2176C25.9959 17.7848 25.4931 17.352 24.9914 16.9191C25.623 15.2863 26.5686 13.7967 27.8867 12.5979C29.2497 13.5588 30.4651 14.7043 31.5512 15.974ZM32.9759 7.08646C32.987 7.59824 32.8071 9.01924 32.0646 9.06225C32.0518 9.0628 32.0396 9.06225 32.028 9.06225C31.9408 8.98658 31.8315 8.93812 31.7044 8.93213C31.2682 8.55048 31.1611 7.44471 31.1539 7.08646C31.1622 6.69882 31.246 5.79286 31.6139 5.35513C31.6733 5.32519 31.7322 5.28544 31.7882 5.23263L31.7893 5.23154C31.8115 5.21085 31.8287 5.18907 31.847 5.1673C31.9131 5.13517 31.9852 5.11503 32.0646 5.11067C32.806 5.06712 32.967 6.64492 32.9759 7.08646ZM17.0957 2.43854C17.0996 2.43691 17.1029 2.43418 17.1063 2.43255C17.5963 2.21477 18.1025 2.07158 18.6058 1.89137C19.2457 1.66107 19.9089 1.46235 20.5876 1.38014C20.5893 1.38014 20.591 1.37959 20.5926 1.37959C21.8552 1.25219 23.0584 1.47433 23.9769 2.38409C24.942 3.34068 25.2977 4.78074 25.4431 6.10048C24.2755 6.65908 23.1478 7.29717 22.0739 8.00603C21.1177 6.90299 19.2951 7.02875 18.1247 8.02291C16.9598 9.01217 16.3809 10.9368 17.4731 12.0496C16.9631 12.6932 16.5097 13.3868 16.2044 14.1403C15.3731 13.5675 14.4563 13.1325 13.4296 12.9915C12.541 12.869 11.6775 12.9899 10.8594 13.2812C11.1086 8.88694 12.8091 4.44754 17.0957 2.43854ZM3.21075 3.67171C3.43108 3.52906 3.68082 3.44794 3.93056 3.37117C4.64648 3.15176 5.40291 3.09786 6.14825 3.09024C6.89913 3.08316 7.64391 3.17136 8.36649 3.37117C8.62233 3.44195 8.85765 3.53995 9.0863 3.67171C9.11405 3.6875 9.16011 3.74031 9.19896 3.77624C9.16344 3.80945 9.1196 3.86063 9.0863 3.88241C8.86597 4.02505 8.61623 4.10617 8.36649 4.18294C7.65001 4.40235 6.89414 4.45625 6.14825 4.46387C5.39736 4.47095 4.65314 4.38275 3.93056 4.18294C3.67471 4.11216 3.4394 4.01416 3.21075 3.88241C3.20908 3.88186 3.20798 3.88077 3.20631 3.87968C3.17801 3.83667 3.14582 3.79911 3.10863 3.76753C3.14582 3.73214 3.18689 3.68695 3.21075 3.67171ZM1.75671 28.3683C1.50086 27.4999 1.39098 26.607 1.37211 25.7048C1.33715 24.0127 1.73729 22.3641 2.31335 20.7831C2.90662 19.1541 3.43385 17.5518 3.6736 15.8297C4.15088 12.4024 4.03545 8.92016 3.53097 5.50267C4.44447 5.75639 5.4856 5.80103 6.14825 5.80756C6.82476 5.8141 7.8992 5.76346 8.82768 5.48906C8.32542 8.50257 8.3676 11.6005 9.46812 14.4974C9.51085 14.7081 9.64738 14.8519 9.81776 14.9292C10.012 15.0397 10.2529 15.0555 10.4848 14.9265C11.324 14.4599 12.2558 14.1757 13.2286 14.3091C14.3042 14.4572 15.2543 15.0468 16.0657 15.7263C17.0308 17.0498 17.5325 18.5198 17.3765 20.1629C17.1912 22.1175 16.0119 23.9468 14.7976 25.4435C14.0078 26.4164 13.1182 27.2451 12.1914 28.0857C11.2757 28.9171 10.4543 29.8557 9.73063 30.8526C8.40867 32.6743 7.95081 34.864 7.00735 36.8573C6.41741 36.321 5.84467 35.7651 5.29691 35.1847C4.80021 34.6577 4.33513 34.1029 3.90836 33.5198C3.90558 33.516 3.90447 33.5116 3.9017 33.5084C3.76129 33.3178 3.62587 33.1262 3.4949 32.9296C3.01151 32.2077 2.60915 31.4346 2.31391 30.6206C2.04696 29.8846 1.97648 29.1131 1.75671 28.3683ZM3.28401 44.0673C3.89448 41.3789 4.12258 38.6272 4.0865 35.8762C5.51169 37.454 7.16385 38.8407 8.8521 40.1441C8.61235 41.5678 8.37315 42.991 8.1334 44.4152C6.49899 44.7299 4.84793 44.6379 3.28401 44.0673ZM39.6273 46.0241C39.2665 46.5386 38.7382 46.9159 38.1843 47.2061C37.8774 47.3672 37.5472 47.4717 37.2137 47.5665C36.7392 47.7015 36.2757 47.6166 35.7907 47.5714C34.0608 47.4113 32.3332 47.2235 30.61 46.9997C27.4305 46.5876 24.2594 46.0235 21.1687 45.1726C18.4121 44.4131 15.6561 43.4216 13.3241 41.7671C12.2341 40.9939 11.1436 40.2116 10.0786 39.3982C9.92376 39.2278 9.70565 39.0906 9.54582 38.961C9.05855 38.5663 8.58349 38.1438 8.08623 37.754C9.14179 35.6437 9.61852 33.3173 11.0304 31.3714C11.7602 30.3653 12.6592 29.4637 13.5988 28.647C14.6305 27.7509 15.5285 26.7306 16.3548 25.6482C17.6124 23.9996 18.5642 22.0979 18.7601 20.029C18.926 18.2781 18.3244 16.5549 17.3111 15.1323C17.6024 14.1027 18.2357 13.2071 18.941 12.4002C19.2113 12.0905 19.2224 11.5525 18.8023 11.3446C16.7178 10.309 20.4989 7.16595 21.1987 9.14338C21.3324 9.52122 21.8214 9.81196 22.2049 9.54518C23.5446 8.61363 24.9686 7.79969 26.456 7.11968C26.5076 7.10334 26.5559 7.08102 26.6003 7.05271C27.6947 6.55999 28.823 6.14131 29.9762 5.80157C29.8602 6.22461 29.8003 6.64819 29.7853 7.00208C29.7831 7.0293 29.782 7.05707 29.7825 7.08592C29.782 7.11423 29.7831 7.142 29.7853 7.16868C29.8125 7.90368 29.9973 8.75464 30.4146 9.4009C29.6782 9.73138 28.9689 10.1125 28.2957 10.5644C28.0338 10.7435 27.784 10.9313 27.5426 11.1257C27.4849 11.1595 27.4322 11.2025 27.3861 11.252C25.6008 12.7383 24.3848 14.6336 23.6206 16.7433C23.5174 16.869 23.458 17.0226 23.4702 17.1788C23.1233 18.2351 22.8841 19.3403 22.741 20.4716C22.6327 21.3308 24.0041 21.3204 24.1118 20.4716C24.2044 19.7415 24.3448 19.018 24.5363 18.3118C24.9792 18.6935 25.4221 19.0751 25.8649 19.4568C26.8256 20.2849 27.7197 21.2099 29.0033 21.5257C31.0268 22.0239 33.053 20.8097 33.7556 18.969C35.4183 21.5839 36.687 24.4728 37.6776 27.2658C38.7609 30.3212 39.5251 33.4839 40.0302 36.6792C40.2943 38.3507 40.4647 40.0368 40.5696 41.7257C40.6634 43.2545 40.5369 44.7283 39.6273 46.0241Z" fill="url(#paint0_linear_2_2973)"/>
<defs>
<linearGradient id="paint0_linear_2_2973" x1="31.7253" y1="35.9844" x2="-6.07394" y2="20.481" gradientUnits="userSpaceOnUse">
<stop stop-color="#55097B"/>
<stop offset="1" stop-color="#F00045"/>
</linearGradient>
</defs>
</svg>
