<svg width="58" height="58" viewBox="0 0 58 58" fill="none" xmlns="http://www.w3.org/2000/svg">
<path d="M39.3154 0H5.46232C2.44764 0.00640696 0.00328058 2.44764 0 5.46232V45.8962C0 48.9141 2.44444 51.3586 5.46232 51.3586H39.3154C40.7667 51.3586 42.1538 50.7819 43.179 49.7599C44.2042 48.7348 44.7776 47.3444 44.7776 45.8963V5.46241C44.7744 2.44772 42.3333 0.00647914 39.3154 0ZM42.3173 45.9281C42.3173 47.5875 40.975 48.93 39.3154 48.93H5.46232C3.80604 48.9268 2.46691 47.5844 2.46691 45.9281V5.46216C2.47332 3.81228 3.80924 2.47314 5.46232 2.46995H39.3154C40.9717 2.46995 42.314 3.80908 42.3173 5.46216V45.9281Z" fill="black"/>
<path d="M39.3154 0H5.46232C2.44764 0.00640696 0.00328058 2.44764 0 5.46232V45.8962C0 48.9141 2.44444 51.3586 5.46232 51.3586H39.3154C40.7667 51.3586 42.1538 50.7819 43.179 49.7599C44.2042 48.7348 44.7776 47.3444 44.7776 45.8963V5.46241C44.7744 2.44772 42.3333 0.00647914 39.3154 0ZM42.3173 45.9281C42.3173 47.5875 40.975 48.93 39.3154 48.93H5.46232C3.80604 48.9268 2.46691 47.5844 2.46691 45.9281V5.46216C2.47332 3.81228 3.80924 2.47314 5.46232 2.46995H39.3154C40.9717 2.46995 42.314 3.80908 42.3173 5.46216V45.9281Z" fill="url(#paint0_linear_2_2736)"/>
<path d="M52.5322 6.62843H43.5106V9.08886H52.5322C54.1852 9.08886 55.5276 10.428 55.534 12.0811V52.524C55.534 53.3185 55.2169 54.081 54.653 54.6416C54.0892 55.2055 53.3267 55.5194 52.5322 55.5162H18.6849C17.8872 55.5194 17.1247 55.2055 16.5609 54.6416C15.997 54.081 15.6831 53.3185 15.6831 52.524V50.1276H13.2227V52.524C13.2259 55.5387 15.6671 57.9799 18.685 57.9863H52.5323C55.5502 57.9863 57.9978 55.5419 58.001 52.524V12.0811C57.9978 10.633 57.4212 9.24584 56.396 8.22066C55.3708 7.19868 53.9802 6.62523 52.5322 6.62843Z" fill="black"/>
<path d="M52.5322 6.62843H43.5106V9.08886H52.5322C54.1852 9.08886 55.5276 10.428 55.534 12.0811V52.524C55.534 53.3185 55.2169 54.081 54.653 54.6416C54.0892 55.2055 53.3267 55.5194 52.5322 55.5162H18.6849C17.8872 55.5194 17.1247 55.2055 16.5609 54.6416C15.997 54.081 15.6831 53.3185 15.6831 52.524V50.1276H13.2227V52.524C13.2259 55.5387 15.6671 57.9799 18.685 57.9863H52.5323C55.5502 57.9863 57.9978 55.5419 58.001 52.524V12.0811C57.9978 10.633 57.4212 9.24584 56.396 8.22066C55.3708 7.19868 53.9802 6.62523 52.5322 6.62843Z" fill="url(#paint1_linear_2_2736)"/>
<path d="M33.5194 35.8336H10.8982C10.219 35.8336 9.66797 36.3847 9.66797 37.0638C9.66797 37.743 10.219 38.294 10.8982 38.294H33.5194C34.1986 38.294 34.7496 37.743 34.7496 37.0638C34.7496 36.3847 34.1986 35.8336 33.5194 35.8336Z" fill="black"/>
<path d="M33.5194 35.8336H10.8982C10.219 35.8336 9.66797 36.3847 9.66797 37.0638C9.66797 37.743 10.219 38.294 10.8982 38.294H33.5194C34.1986 38.294 34.7496 37.743 34.7496 37.0638C34.7496 36.3847 34.1986 35.8336 33.5194 35.8336Z" fill="url(#paint2_linear_2_2736)"/>
<path d="M33.5194 42.1161H10.8982C10.219 42.1161 9.66797 42.6671 9.66797 43.3463C9.66797 44.0255 10.219 44.5765 10.8982 44.5765H33.5194C34.1986 44.5765 34.7496 44.0255 34.7496 43.3463C34.7496 42.6671 34.1986 42.1161 33.5194 42.1161Z" fill="black"/>
<path d="M33.5194 42.1161H10.8982C10.219 42.1161 9.66797 42.6671 9.66797 43.3463C9.66797 44.0255 10.219 44.5765 10.8982 44.5765H33.5194C34.1986 44.5765 34.7496 44.0255 34.7496 43.3463C34.7496 42.6671 34.1986 42.1161 33.5194 42.1161Z" fill="url(#paint3_linear_2_2736)"/>
<path d="M30.2212 15.2464H26.6459V11.6807C26.6459 11.0015 26.0949 10.4504 25.4157 10.4504H19.0115C18.3323 10.4504 17.7813 11.0015 17.7813 11.6807V15.2496L14.238 15.2464C13.5589 15.2464 13.0078 15.7974 13.0078 16.4766V22.884C13.0078 23.5632 13.5589 24.1142 14.238 24.1142H17.8134V27.6799C17.8134 28.3591 18.3644 28.9102 19.0436 28.9102H25.451C26.1301 28.9102 26.6812 28.3591 26.6812 27.6799V24.1142H30.2565C30.9357 24.1142 31.4867 23.5632 31.4867 22.884V16.4766C31.4867 16.1466 31.3522 15.8295 31.1151 15.5956C30.8748 15.3649 30.5544 15.24 30.2212 15.2464ZM29.0006 21.6538H25.4157C24.7365 21.6538 24.1855 22.2048 24.1855 22.884V26.4497H20.2417V22.884C20.2417 22.2048 19.6907 21.6538 19.0115 21.6538H15.4362V17.7068H19.0115C19.6907 17.7068 20.2417 17.159 20.2417 16.4766V12.9109H24.1855V16.4798V16.4766C24.1855 17.159 24.7365 17.7068 25.4157 17.7068H29.0006V21.6538Z" fill="black"/>
<path d="M30.2212 15.2464H26.6459V11.6807C26.6459 11.0015 26.0949 10.4504 25.4157 10.4504H19.0115C18.3323 10.4504 17.7813 11.0015 17.7813 11.6807V15.2496L14.238 15.2464C13.5589 15.2464 13.0078 15.7974 13.0078 16.4766V22.884C13.0078 23.5632 13.5589 24.1142 14.238 24.1142H17.8134V27.6799C17.8134 28.3591 18.3644 28.9102 19.0436 28.9102H25.451C26.1301 28.9102 26.6812 28.3591 26.6812 27.6799V24.1142H30.2565C30.9357 24.1142 31.4867 23.5632 31.4867 22.884V16.4766C31.4867 16.1466 31.3522 15.8295 31.1151 15.5956C30.8748 15.3649 30.5544 15.24 30.2212 15.2464ZM29.0006 21.6538H25.4157C24.7365 21.6538 24.1855 22.2048 24.1855 22.884V26.4497H20.2417V22.884C20.2417 22.2048 19.6907 21.6538 19.0115 21.6538H15.4362V17.7068H19.0115C19.6907 17.7068 20.2417 17.159 20.2417 16.4766V12.9109H24.1855V16.4798V16.4766C24.1855 17.159 24.7365 17.7068 25.4157 17.7068H29.0006V21.6538Z" fill="url(#paint4_linear_2_2736)"/>
<defs>
<linearGradient id="paint0_linear_2_2736" x1="33.8235" y1="37.7164" x2="-6.2756" y2="20.9874" gradientUnits="userSpaceOnUse">
<stop stop-color="#55097B"/>
<stop offset="1" stop-color="#F00045"/>
</linearGradient>
<linearGradient id="paint1_linear_2_2736" x1="47.0467" y1="44.3444" x2="6.9473" y2="27.6147" gradientUnits="userSpaceOnUse">
<stop stop-color="#55097B"/>
<stop offset="1" stop-color="#F00045"/>
</linearGradient>
<linearGradient id="paint2_linear_2_2736" x1="28.6138" y1="37.6405" x2="27.5502" y2="32.4525" gradientUnits="userSpaceOnUse">
<stop stop-color="#55097B"/>
<stop offset="1" stop-color="#F00045"/>
</linearGradient>
<linearGradient id="paint3_linear_2_2736" x1="28.6138" y1="43.923" x2="27.5502" y2="38.7349" gradientUnits="userSpaceOnUse">
<stop stop-color="#55097B"/>
<stop offset="1" stop-color="#F00045"/>
</linearGradient>
<linearGradient id="paint4_linear_2_2736" x1="26.9661" y1="24.0068" x2="11.1636" y2="16.4373" gradientUnits="userSpaceOnUse">
<stop stop-color="#55097B"/>
<stop offset="1" stop-color="#F00045"/>
</linearGradient>
</defs>
</svg>
