<svg width="57" height="57" viewBox="0 0 57 57" fill="none" xmlns="http://www.w3.org/2000/svg">
<path d="M55.3192 35.2005C55.8623 33.0219 56.1376 30.7719 56.1376 28.505C56.1376 19.5301 51.7461 11.0827 44.391 5.91206C43.983 5.62713 43.4227 5.72293 43.1352 6.13067C42.8502 6.53841 42.946 7.09846 43.3539 7.38583C50.23 12.2198 54.3362 20.1141 54.3362 28.5049C54.3362 30.5853 54.088 32.6511 53.5989 34.6504C53.535 34.648 53.4711 34.6455 53.4073 34.6455C51.4266 34.6455 49.8145 36.2568 49.8145 38.2366C49.8145 40.2163 51.4266 41.8276 53.4073 41.8276C55.3879 41.8276 57 40.2163 57 38.2366C57 36.9593 56.3291 35.8344 55.3191 35.1982L55.3192 35.2005ZM53.4073 40.0296C52.4195 40.0296 51.6158 39.2264 51.6158 38.2389C51.6158 37.2515 52.4194 36.4483 53.4073 36.4483C54.3953 36.4483 55.1988 37.2515 55.1988 38.2389C55.1988 39.2263 54.3953 40.0296 53.4073 40.0296ZM13.6978 49.6239C6.82166 44.79 2.71551 36.8956 2.71551 28.5048C2.71551 26.4416 2.9588 24.3955 3.44042 22.4084C3.50923 22.4133 3.57558 22.4158 3.64439 22.4158C5.65456 22.4158 7.28878 20.7823 7.28878 18.7731C7.28878 16.7639 5.65456 15.1304 3.64439 15.1304C1.63422 15.1304 0 16.7639 0 18.7731C0 20.0749 0.688113 21.2195 1.71776 21.8631C1.18205 24.0271 0.911758 26.2574 0.911758 28.5045C0.911758 37.4795 5.30321 45.9268 12.6584 51.0975C12.8156 51.208 12.9975 51.2621 13.1769 51.2621C13.4595 51.2621 13.7396 51.1294 13.9141 50.8789C14.1992 50.4712 14.1033 49.9111 13.6954 49.6237L13.6978 49.6239ZM3.64469 16.9311C4.65962 16.9311 5.48777 17.7564 5.48777 18.7733C5.48777 19.7877 4.66208 20.6155 3.64469 20.6155C2.62976 20.6155 1.80161 19.7902 1.80161 18.7733C1.80161 17.7588 2.62731 16.9311 3.64469 16.9311ZM6.14148 13.9025C6.29875 14.013 6.4806 14.067 6.65999 14.067C6.9426 14.067 7.22275 13.9344 7.39724 13.6839C12.2335 6.81102 20.1315 2.70681 28.5263 2.70681C30.593 2.70681 32.645 2.95244 34.633 3.43384C34.6281 3.50016 34.6281 3.56893 34.6281 3.63525C34.6281 5.63957 36.2598 7.2705 38.265 7.2705C40.2702 7.2705 41.902 5.6395 41.902 3.63525C41.902 1.631 40.2702 0 38.265 0C36.9651 0 35.8223 0.685272 35.181 1.71205C33.016 1.17658 30.7797 0.906423 28.5289 0.906423C19.5497 0.906423 11.0983 5.2958 5.92519 12.6475C5.64013 13.0552 5.73597 13.6153 6.14391 13.9026L6.14148 13.9025ZM38.2628 1.803C39.2753 1.803 40.0985 2.62586 40.0985 3.63786C40.0985 4.64986 39.2753 5.47271 38.2628 5.47271C37.2503 5.47271 36.4271 4.64986 36.4271 3.63786C36.4271 2.62586 37.2503 1.803 38.2628 1.803ZM50.909 43.1098C50.5011 42.8249 49.9408 42.9207 49.6533 43.3285C44.8171 50.2013 36.919 54.3055 28.5243 54.3055C26.4551 54.3055 24.3982 54.0599 22.4052 53.576C22.4101 53.5097 22.4101 53.4433 22.4101 53.377C22.4101 51.3801 20.7833 49.754 18.7854 49.754C16.7875 49.754 15.1607 51.3801 15.1607 53.377C15.1607 55.374 16.7875 57 18.7854 57C20.0781 57 21.2159 56.3196 21.8572 55.2978C24.0271 55.8357 26.2683 56.1084 28.5245 56.1084C37.5036 56.1084 45.955 51.719 51.1281 44.3648C51.4132 43.9571 51.317 43.3972 50.909 43.1098ZM18.7877 55.1974C17.7826 55.1974 16.9668 54.3794 16.9668 53.3748C16.9668 52.3703 17.7851 51.5523 18.7877 51.5523C19.7928 51.5523 20.6111 52.3703 20.6111 53.3748C20.6111 54.3794 19.7928 55.1974 18.7877 55.1974ZM48.1095 23.3786C47.5836 18.498 44.5143 14.5778 40.2898 13.3887C36.1982 12.2392 31.9517 13.8726 28.4992 17.8812C25.0464 13.8726 20.8002 12.2392 16.7085 13.3887C12.4817 14.5751 9.41218 18.4953 8.88877 23.3786C8.68726 25.2429 8.88385 27.1318 9.47118 29.0329H7.38973C6.89333 29.0329 6.48785 29.4357 6.48785 29.9344C6.48785 30.4305 6.89086 30.8358 7.38973 30.8358H10.1396C10.7933 32.3292 11.6853 33.83 12.8157 35.3283C16.0374 39.5998 21.1614 43.7876 28.0444 47.7793C28.1845 47.8604 28.3393 47.8997 28.4966 47.8997C28.6539 47.8997 28.8087 47.8579 28.9488 47.7793C35.8318 43.7878 40.9558 39.5998 44.1774 35.3283C45.3079 33.83 46.1999 32.3317 46.8536 30.8358H49.6035C50.0999 30.8358 50.5053 30.433 50.5053 29.9344C50.5053 29.4382 50.1023 29.0329 49.6035 29.0329H47.522C48.1093 27.1318 48.3035 25.2429 48.1044 23.3786H48.1095ZM42.7425 34.2399C39.7347 38.224 34.9448 42.1641 28.499 45.9514C22.0532 42.1639 17.2639 38.224 14.2555 34.2399C13.3954 33.1002 12.6852 31.963 12.1298 30.8331H18.3938L19.6938 34.0164C19.8388 34.3725 20.1951 34.5961 20.581 34.574C20.9668 34.5518 21.2936 34.2866 21.3968 33.9157L23.0261 28.0526L27.012 39.1277C27.1423 39.4888 27.4814 39.7246 27.8599 39.7246C27.8869 39.7246 27.9139 39.7221 27.9434 39.7197C28.3513 39.6828 28.6831 39.3733 28.7494 38.9681L30.8628 26.0945L33.5046 34.9104C33.62 35.2985 33.9887 35.5588 34.3892 35.5514C34.7947 35.5416 35.1436 35.2616 35.2419 34.8662L36.5247 29.6883L36.8221 30.3122C36.972 30.6266 37.289 30.8256 37.6355 30.8256H44.8677C44.3099 31.9555 43.6021 33.0903 42.742 34.2325L42.7425 34.2399ZM38.2061 29.0327L37.0708 26.6452C36.9062 26.3013 36.5449 26.0974 36.1665 26.1342C35.788 26.1735 35.4734 26.4437 35.3825 26.8146L34.2865 31.2433L31.4703 21.8483C31.3499 21.4455 30.969 21.1802 30.5488 21.2072C30.131 21.2343 29.7845 21.5462 29.7182 21.9589L27.5335 35.2568L23.7638 24.7834C23.6311 24.415 23.2698 24.1743 22.8816 24.189C22.4909 24.2038 22.1517 24.469 22.0461 24.8473L20.3652 30.8971L19.8319 29.5929C19.6943 29.2539 19.365 29.0328 18.9988 29.0328H11.371C10.7222 27.1833 10.4888 25.3582 10.6804 23.5701C11.1252 19.4264 13.6834 16.1106 17.1948 15.1227C17.8804 14.9311 18.5734 14.8353 19.2689 14.8353C22.2571 14.8353 25.2699 16.5891 27.7838 19.8584C27.9533 20.0795 28.2187 20.2097 28.4989 20.2097C28.779 20.2097 29.042 20.0795 29.214 19.8584C32.3128 15.8302 36.1712 14.1034 39.8005 15.1228C43.3122 16.1102 45.8703 19.4262 46.3149 23.5701C46.5065 25.3558 46.2755 27.1809 45.6243 29.0329H38.2028L38.2061 29.0327Z" fill="black"/>
<path d="M55.3192 35.2005C55.8623 33.0219 56.1376 30.7719 56.1376 28.505C56.1376 19.5301 51.7461 11.0827 44.391 5.91206C43.983 5.62713 43.4227 5.72293 43.1352 6.13067C42.8502 6.53841 42.946 7.09846 43.3539 7.38583C50.23 12.2198 54.3362 20.1141 54.3362 28.5049C54.3362 30.5853 54.088 32.6511 53.5989 34.6504C53.535 34.648 53.4711 34.6455 53.4073 34.6455C51.4266 34.6455 49.8145 36.2568 49.8145 38.2366C49.8145 40.2163 51.4266 41.8276 53.4073 41.8276C55.3879 41.8276 57 40.2163 57 38.2366C57 36.9593 56.3291 35.8344 55.3191 35.1982L55.3192 35.2005ZM53.4073 40.0296C52.4195 40.0296 51.6158 39.2264 51.6158 38.2389C51.6158 37.2515 52.4194 36.4483 53.4073 36.4483C54.3953 36.4483 55.1988 37.2515 55.1988 38.2389C55.1988 39.2263 54.3953 40.0296 53.4073 40.0296ZM13.6978 49.6239C6.82166 44.79 2.71551 36.8956 2.71551 28.5048C2.71551 26.4416 2.9588 24.3955 3.44042 22.4084C3.50923 22.4133 3.57558 22.4158 3.64439 22.4158C5.65456 22.4158 7.28878 20.7823 7.28878 18.7731C7.28878 16.7639 5.65456 15.1304 3.64439 15.1304C1.63422 15.1304 0 16.7639 0 18.7731C0 20.0749 0.688113 21.2195 1.71776 21.8631C1.18205 24.0271 0.911758 26.2574 0.911758 28.5045C0.911758 37.4795 5.30321 45.9268 12.6584 51.0975C12.8156 51.208 12.9975 51.2621 13.1769 51.2621C13.4595 51.2621 13.7396 51.1294 13.9141 50.8789C14.1992 50.4712 14.1033 49.9111 13.6954 49.6237L13.6978 49.6239ZM3.64469 16.9311C4.65962 16.9311 5.48777 17.7564 5.48777 18.7733C5.48777 19.7877 4.66208 20.6155 3.64469 20.6155C2.62976 20.6155 1.80161 19.7902 1.80161 18.7733C1.80161 17.7588 2.62731 16.9311 3.64469 16.9311ZM6.14148 13.9025C6.29875 14.013 6.4806 14.067 6.65999 14.067C6.9426 14.067 7.22275 13.9344 7.39724 13.6839C12.2335 6.81102 20.1315 2.70681 28.5263 2.70681C30.593 2.70681 32.645 2.95244 34.633 3.43384C34.6281 3.50016 34.6281 3.56893 34.6281 3.63525C34.6281 5.63957 36.2598 7.2705 38.265 7.2705C40.2702 7.2705 41.902 5.6395 41.902 3.63525C41.902 1.631 40.2702 0 38.265 0C36.9651 0 35.8223 0.685272 35.181 1.71205C33.016 1.17658 30.7797 0.906423 28.5289 0.906423C19.5497 0.906423 11.0983 5.2958 5.92519 12.6475C5.64013 13.0552 5.73597 13.6153 6.14391 13.9026L6.14148 13.9025ZM38.2628 1.803C39.2753 1.803 40.0985 2.62586 40.0985 3.63786C40.0985 4.64986 39.2753 5.47271 38.2628 5.47271C37.2503 5.47271 36.4271 4.64986 36.4271 3.63786C36.4271 2.62586 37.2503 1.803 38.2628 1.803ZM50.909 43.1098C50.5011 42.8249 49.9408 42.9207 49.6533 43.3285C44.8171 50.2013 36.919 54.3055 28.5243 54.3055C26.4551 54.3055 24.3982 54.0599 22.4052 53.576C22.4101 53.5097 22.4101 53.4433 22.4101 53.377C22.4101 51.3801 20.7833 49.754 18.7854 49.754C16.7875 49.754 15.1607 51.3801 15.1607 53.377C15.1607 55.374 16.7875 57 18.7854 57C20.0781 57 21.2159 56.3196 21.8572 55.2978C24.0271 55.8357 26.2683 56.1084 28.5245 56.1084C37.5036 56.1084 45.955 51.719 51.1281 44.3648C51.4132 43.9571 51.317 43.3972 50.909 43.1098ZM18.7877 55.1974C17.7826 55.1974 16.9668 54.3794 16.9668 53.3748C16.9668 52.3703 17.7851 51.5523 18.7877 51.5523C19.7928 51.5523 20.6111 52.3703 20.6111 53.3748C20.6111 54.3794 19.7928 55.1974 18.7877 55.1974ZM48.1095 23.3786C47.5836 18.498 44.5143 14.5778 40.2898 13.3887C36.1982 12.2392 31.9517 13.8726 28.4992 17.8812C25.0464 13.8726 20.8002 12.2392 16.7085 13.3887C12.4817 14.5751 9.41218 18.4953 8.88877 23.3786C8.68726 25.2429 8.88385 27.1318 9.47118 29.0329H7.38973C6.89333 29.0329 6.48785 29.4357 6.48785 29.9344C6.48785 30.4305 6.89086 30.8358 7.38973 30.8358H10.1396C10.7933 32.3292 11.6853 33.83 12.8157 35.3283C16.0374 39.5998 21.1614 43.7876 28.0444 47.7793C28.1845 47.8604 28.3393 47.8997 28.4966 47.8997C28.6539 47.8997 28.8087 47.8579 28.9488 47.7793C35.8318 43.7878 40.9558 39.5998 44.1774 35.3283C45.3079 33.83 46.1999 32.3317 46.8536 30.8358H49.6035C50.0999 30.8358 50.5053 30.433 50.5053 29.9344C50.5053 29.4382 50.1023 29.0329 49.6035 29.0329H47.522C48.1093 27.1318 48.3035 25.2429 48.1044 23.3786H48.1095ZM42.7425 34.2399C39.7347 38.224 34.9448 42.1641 28.499 45.9514C22.0532 42.1639 17.2639 38.224 14.2555 34.2399C13.3954 33.1002 12.6852 31.963 12.1298 30.8331H18.3938L19.6938 34.0164C19.8388 34.3725 20.1951 34.5961 20.581 34.574C20.9668 34.5518 21.2936 34.2866 21.3968 33.9157L23.0261 28.0526L27.012 39.1277C27.1423 39.4888 27.4814 39.7246 27.8599 39.7246C27.8869 39.7246 27.9139 39.7221 27.9434 39.7197C28.3513 39.6828 28.6831 39.3733 28.7494 38.9681L30.8628 26.0945L33.5046 34.9104C33.62 35.2985 33.9887 35.5588 34.3892 35.5514C34.7947 35.5416 35.1436 35.2616 35.2419 34.8662L36.5247 29.6883L36.8221 30.3122C36.972 30.6266 37.289 30.8256 37.6355 30.8256H44.8677C44.3099 31.9555 43.6021 33.0903 42.742 34.2325L42.7425 34.2399ZM38.2061 29.0327L37.0708 26.6452C36.9062 26.3013 36.5449 26.0974 36.1665 26.1342C35.788 26.1735 35.4734 26.4437 35.3825 26.8146L34.2865 31.2433L31.4703 21.8483C31.3499 21.4455 30.969 21.1802 30.5488 21.2072C30.131 21.2343 29.7845 21.5462 29.7182 21.9589L27.5335 35.2568L23.7638 24.7834C23.6311 24.415 23.2698 24.1743 22.8816 24.189C22.4909 24.2038 22.1517 24.469 22.0461 24.8473L20.3652 30.8971L19.8319 29.5929C19.6943 29.2539 19.365 29.0328 18.9988 29.0328H11.371C10.7222 27.1833 10.4888 25.3582 10.6804 23.5701C11.1252 19.4264 13.6834 16.1106 17.1948 15.1227C17.8804 14.9311 18.5734 14.8353 19.2689 14.8353C22.2571 14.8353 25.2699 16.5891 27.7838 19.8584C27.9533 20.0795 28.2187 20.2097 28.4989 20.2097C28.779 20.2097 29.042 20.0795 29.214 19.8584C32.3128 15.8302 36.1712 14.1034 39.8005 15.1228C43.3122 16.1102 45.8703 19.4262 46.3149 23.5701C46.5065 25.3558 46.2755 27.1809 45.6243 29.0329H38.2028L38.2061 29.0327Z" fill="url(#paint0_linear_2_2958)"/>
<defs>
<linearGradient id="paint0_linear_2_2958" x1="43.0558" y1="41.8594" x2="-5.70752" y2="18.5257" gradientUnits="userSpaceOnUse">
<stop stop-color="#55097B"/>
<stop offset="1" stop-color="#F00045"/>
</linearGradient>
</defs>
</svg>
