<svg width="54" height="52" viewBox="0 0 54 52" fill="none" xmlns="http://www.w3.org/2000/svg">
<path d="M0 30.2627V50.6518C0 50.8118 0.0635729 50.9653 0.176733 51.0784C0.289893 51.1916 0.443372 51.2552 0.603404 51.2552H12.3698C12.5298 51.2552 12.6833 51.1916 12.7965 51.0784C12.9096 50.9653 12.9732 50.8118 12.9732 50.6518V45.5168C17.1198 47.8252 21.7858 49.04 26.5317 49.0467H43.6201C47.6931 49.0467 50.0403 48.0692 52.9125 45.191C53.5483 44.5361 53.9307 43.6766 53.9914 42.7659C54.0522 41.8552 53.7875 40.9525 53.2444 40.2189L53.1358 40.0681C52.825 39.6463 52.4303 39.2935 51.9765 39.0318C51.5227 38.7701 51.0196 38.6052 50.4989 38.5475C49.953 38.4854 49.4002 38.5364 48.8749 38.6973C48.3496 38.8582 47.8631 39.1256 47.4457 39.4828C45.1648 41.4197 44.1752 41.8964 41.0496 41.8964H40.8806V40.3758C40.8759 39.2048 40.4069 38.0836 39.5767 37.2579C38.7464 36.4321 37.6226 35.9693 36.4517 35.9709H28.6617C28.0583 34.9633 25.9766 32.0186 22.332 32.0186H12.9732V30.2627C12.9732 30.1027 12.9096 29.9492 12.7965 29.8361C12.6833 29.7229 12.5298 29.6593 12.3698 29.6593H0.603404C0.443372 29.6593 0.289893 29.7229 0.176733 29.8361C0.0635729 29.9492 0 30.1027 0 30.2627ZM12.9732 33.2496H22.332C25.886 33.2496 27.7626 36.87 27.7626 36.87C27.8136 36.9684 27.8907 37.0508 27.9854 37.1083C28.0801 37.1658 28.1889 37.1961 28.2997 37.1959H36.4396C37.2895 37.191 38.1067 37.5228 38.7127 38.1186C39.3187 38.7145 39.6643 39.526 39.6738 40.3758V41.9084H28.3117V43.1152H41.0496C44.5131 43.1152 45.7561 42.5118 48.2241 40.3999C48.5176 40.1522 48.858 39.9663 49.225 39.8533C49.5921 39.7403 49.9781 39.7025 50.3601 39.7422C50.7176 39.7816 51.0631 39.8947 51.3747 40.0744C51.6863 40.254 51.9572 40.4964 52.1703 40.7861L52.279 40.9309C52.652 41.433 52.835 42.0511 52.7952 42.6754C52.7554 43.2996 52.4955 43.8895 52.0617 44.3402C49.4249 46.9891 47.3733 47.8399 43.6141 47.8399H26.5317C21.7633 47.8375 17.0822 46.5605 12.9732 44.141V33.2496ZM1.20681 30.8661H11.7664V50.0484H1.20681V30.8661Z" fill="black"/>
<path d="M0 30.2627V50.6518C0 50.8118 0.0635729 50.9653 0.176733 51.0784C0.289893 51.1916 0.443372 51.2552 0.603404 51.2552H12.3698C12.5298 51.2552 12.6833 51.1916 12.7965 51.0784C12.9096 50.9653 12.9732 50.8118 12.9732 50.6518V45.5168C17.1198 47.8252 21.7858 49.04 26.5317 49.0467H43.6201C47.6931 49.0467 50.0403 48.0692 52.9125 45.191C53.5483 44.5361 53.9307 43.6766 53.9914 42.7659C54.0522 41.8552 53.7875 40.9525 53.2444 40.2189L53.1358 40.0681C52.825 39.6463 52.4303 39.2935 51.9765 39.0318C51.5227 38.7701 51.0196 38.6052 50.4989 38.5475C49.953 38.4854 49.4002 38.5364 48.8749 38.6973C48.3496 38.8582 47.8631 39.1256 47.4457 39.4828C45.1648 41.4197 44.1752 41.8964 41.0496 41.8964H40.8806V40.3758C40.8759 39.2048 40.4069 38.0836 39.5767 37.2579C38.7464 36.4321 37.6226 35.9693 36.4517 35.9709H28.6617C28.0583 34.9633 25.9766 32.0186 22.332 32.0186H12.9732V30.2627C12.9732 30.1027 12.9096 29.9492 12.7965 29.8361C12.6833 29.7229 12.5298 29.6593 12.3698 29.6593H0.603404C0.443372 29.6593 0.289893 29.7229 0.176733 29.8361C0.0635729 29.9492 0 30.1027 0 30.2627ZM12.9732 33.2496H22.332C25.886 33.2496 27.7626 36.87 27.7626 36.87C27.8136 36.9684 27.8907 37.0508 27.9854 37.1083C28.0801 37.1658 28.1889 37.1961 28.2997 37.1959H36.4396C37.2895 37.191 38.1067 37.5228 38.7127 38.1186C39.3187 38.7145 39.6643 39.526 39.6738 40.3758V41.9084H28.3117V43.1152H41.0496C44.5131 43.1152 45.7561 42.5118 48.2241 40.3999C48.5176 40.1522 48.858 39.9663 49.225 39.8533C49.5921 39.7403 49.9781 39.7025 50.3601 39.7422C50.7176 39.7816 51.0631 39.8947 51.3747 40.0744C51.6863 40.254 51.9572 40.4964 52.1703 40.7861L52.279 40.9309C52.652 41.433 52.835 42.0511 52.7952 42.6754C52.7554 43.2996 52.4955 43.8895 52.0617 44.3402C49.4249 46.9891 47.3733 47.8399 43.6141 47.8399H26.5317C21.7633 47.8375 17.0822 46.5605 12.9732 44.141V33.2496ZM1.20681 30.8661H11.7664V50.0484H1.20681V30.8661Z" fill="url(#paint0_linear_2_2724)"/>
<path d="M5.13672 12.8485H13.2465C13.6766 14.7128 14.6216 16.4188 15.9739 17.7723L29.647 31.4695C29.7034 31.5255 29.7703 31.5697 29.8438 31.5997C29.9173 31.6298 29.996 31.645 30.0754 31.6445C30.2337 31.6439 30.3854 31.581 30.4978 31.4695L37.3404 24.6028V28.5973C37.3404 28.7574 37.404 28.9108 37.5171 29.024C37.6303 29.1372 37.7838 29.2007 37.9438 29.2007H43.4167C43.5767 29.2007 43.7302 29.1372 43.8434 29.024C43.9565 28.9108 44.0201 28.7574 44.0201 28.5973V23.7339H48.8473C49.0074 23.7339 49.1608 23.6703 49.274 23.5572C49.3872 23.444 49.4507 23.2905 49.4507 23.1305V17.6999C49.4507 17.5398 49.3872 17.3863 49.274 17.2732C49.1608 17.16 49.0074 17.0965 48.8473 17.0965H44.8106C46.5781 15.1203 47.5118 12.5366 47.4159 9.88702C47.3201 7.23748 46.2021 4.72795 44.2964 2.88469C42.3907 1.04144 39.8454 0.00762149 37.1941 4.1972e-05C34.5428 -0.00753754 31.9916 1.01171 30.0754 2.84404C28.5983 1.51933 26.7687 0.651441 24.8083 0.345532C22.8479 0.0396232 20.8408 0.308825 19.0303 1.12052C17.2198 1.93221 15.6836 3.25156 14.6077 4.91869C13.5319 6.58582 12.9626 8.52919 12.9689 10.5133C12.9698 10.8904 12.9919 11.2671 13.0353 11.6417H5.13672V12.8485ZM48.2681 18.2791V22.503H43.4408C43.2808 22.503 43.1273 22.5665 43.0142 22.6797C42.901 22.7928 42.8374 22.9463 42.8374 23.1064V27.9698H38.5472V23.1305C38.5472 22.9705 38.4836 22.817 38.3705 22.7038C38.2573 22.5907 38.1038 22.5271 37.9438 22.5271H33.1166V18.3033H37.9438C38.1038 18.3033 38.2573 18.2397 38.3705 18.1265C38.4836 18.0134 38.5472 17.8599 38.5472 17.6999V12.8062H42.8133V17.6697C42.8146 17.742 42.8289 17.8136 42.8555 17.8809V17.9412C42.8794 17.9861 42.9077 18.0286 42.94 18.0679C42.9525 18.0835 42.9667 18.0977 42.9822 18.1102C43.0295 18.1531 43.0823 18.1897 43.1391 18.2188C43.2074 18.2421 43.2784 18.2563 43.3503 18.261H48.2198L48.2681 18.2791ZM16.8307 4.10515C17.6715 3.26226 18.6703 2.59352 19.7699 2.13723C20.8695 1.68094 22.0483 1.44606 23.2388 1.44606C24.4294 1.44606 25.6082 1.68094 26.7078 2.13723C27.8074 2.59352 28.8062 3.26226 29.647 4.10515C29.7601 4.21754 29.913 4.28062 30.0724 4.28062C30.2318 4.28062 30.3847 4.21754 30.4978 4.10515C32.1154 2.40236 34.3315 1.39501 36.6781 1.29591C39.0246 1.19681 41.3178 2.01372 43.0732 3.57407C44.8286 5.13441 45.9087 7.316 46.0854 9.65798C46.2621 12 45.5215 14.3189 44.0201 16.125V12.2028C44.0201 12.0428 43.9565 11.8893 43.8434 11.7762C43.7302 11.663 43.5767 11.5994 43.4167 11.5994H37.9438C37.7838 11.5994 37.6303 11.663 37.5171 11.7762C37.404 11.8893 37.3404 12.0428 37.3404 12.2028V17.0663H32.5132C32.3531 17.0663 32.1997 17.1299 32.0865 17.243C31.9733 17.3562 31.9098 17.5097 31.9098 17.6697V23.1003C31.9098 23.2604 31.9733 23.4138 32.0865 23.527C32.1997 23.6402 32.3531 23.7037 32.5132 23.7037H36.5318L30.0754 30.1662L16.8005 16.8913C15.6729 15.7651 14.8649 14.3595 14.4593 12.8183H18.7857C18.8846 12.8185 18.9819 12.7943 19.0693 12.748C19.1566 12.7017 19.2312 12.6347 19.2865 12.5528L21.1511 9.77715L24.687 16.1069C24.7394 16.2001 24.8156 16.2777 24.9079 16.3318C25.0001 16.3858 25.1051 16.4144 25.212 16.4146H25.2784C25.3965 16.4017 25.5083 16.3541 25.5995 16.2779C25.6908 16.2017 25.7575 16.1002 25.7913 15.9862L28.0057 8.62465L29.5806 12.4502C29.6272 12.5603 29.7054 12.654 29.8053 12.7195C29.9052 12.785 30.0223 12.8194 30.1418 12.8183H32.9175C33.0535 13.0926 33.2784 13.3128 33.5554 13.4433C33.8324 13.5737 34.1454 13.6066 34.4435 13.5367C34.7417 13.4668 35.0074 13.2982 35.1976 13.0583C35.3878 12.8183 35.4913 12.5211 35.4913 12.2149C35.4913 11.9087 35.3878 11.6115 35.1976 11.3715C35.0074 11.1316 34.7417 10.963 34.4435 10.8931C34.1454 10.8232 33.8324 10.8561 33.5554 10.9866C33.2784 11.117 33.0535 11.3372 32.9175 11.6115H30.5762L28.5066 6.59721C28.4584 6.47908 28.3741 6.37924 28.2657 6.31202C28.1573 6.24481 28.0304 6.21368 27.9032 6.2231C27.7786 6.22901 27.6589 6.27338 27.5606 6.3501C27.4622 6.42682 27.3901 6.53212 27.3541 6.65152L25.0732 14.3027L21.7545 8.35916C21.7042 8.26942 21.6317 8.19404 21.5441 8.14018C21.4564 8.08632 21.3564 8.05576 21.2536 8.05142C21.1508 8.0472 21.0485 8.06939 20.9566 8.11586C20.8647 8.16233 20.7863 8.23155 20.7287 8.31692L18.4901 11.6417H14.2662C14.2157 11.2676 14.1895 10.8907 14.1878 10.5133C14.1833 9.32357 14.4146 8.14474 14.8682 7.04486C15.3219 5.94499 15.9888 4.94586 16.8307 4.10515Z" fill="black"/>
<path d="M5.13672 12.8485H13.2465C13.6766 14.7128 14.6216 16.4188 15.9739 17.7723L29.647 31.4695C29.7034 31.5255 29.7703 31.5697 29.8438 31.5997C29.9173 31.6298 29.996 31.645 30.0754 31.6445C30.2337 31.6439 30.3854 31.581 30.4978 31.4695L37.3404 24.6028V28.5973C37.3404 28.7574 37.404 28.9108 37.5171 29.024C37.6303 29.1372 37.7838 29.2007 37.9438 29.2007H43.4167C43.5767 29.2007 43.7302 29.1372 43.8434 29.024C43.9565 28.9108 44.0201 28.7574 44.0201 28.5973V23.7339H48.8473C49.0074 23.7339 49.1608 23.6703 49.274 23.5572C49.3872 23.444 49.4507 23.2905 49.4507 23.1305V17.6999C49.4507 17.5398 49.3872 17.3863 49.274 17.2732C49.1608 17.16 49.0074 17.0965 48.8473 17.0965H44.8106C46.5781 15.1203 47.5118 12.5366 47.4159 9.88702C47.3201 7.23748 46.2021 4.72795 44.2964 2.88469C42.3907 1.04144 39.8454 0.00762149 37.1941 4.1972e-05C34.5428 -0.00753754 31.9916 1.01171 30.0754 2.84404C28.5983 1.51933 26.7687 0.651441 24.8083 0.345532C22.8479 0.0396232 20.8408 0.308825 19.0303 1.12052C17.2198 1.93221 15.6836 3.25156 14.6077 4.91869C13.5319 6.58582 12.9626 8.52919 12.9689 10.5133C12.9698 10.8904 12.9919 11.2671 13.0353 11.6417H5.13672V12.8485ZM48.2681 18.2791V22.503H43.4408C43.2808 22.503 43.1273 22.5665 43.0142 22.6797C42.901 22.7928 42.8374 22.9463 42.8374 23.1064V27.9698H38.5472V23.1305C38.5472 22.9705 38.4836 22.817 38.3705 22.7038C38.2573 22.5907 38.1038 22.5271 37.9438 22.5271H33.1166V18.3033H37.9438C38.1038 18.3033 38.2573 18.2397 38.3705 18.1265C38.4836 18.0134 38.5472 17.8599 38.5472 17.6999V12.8062H42.8133V17.6697C42.8146 17.742 42.8289 17.8136 42.8555 17.8809V17.9412C42.8794 17.9861 42.9077 18.0286 42.94 18.0679C42.9525 18.0835 42.9667 18.0977 42.9822 18.1102C43.0295 18.1531 43.0823 18.1897 43.1391 18.2188C43.2074 18.2421 43.2784 18.2563 43.3503 18.261H48.2198L48.2681 18.2791ZM16.8307 4.10515C17.6715 3.26226 18.6703 2.59352 19.7699 2.13723C20.8695 1.68094 22.0483 1.44606 23.2388 1.44606C24.4294 1.44606 25.6082 1.68094 26.7078 2.13723C27.8074 2.59352 28.8062 3.26226 29.647 4.10515C29.7601 4.21754 29.913 4.28062 30.0724 4.28062C30.2318 4.28062 30.3847 4.21754 30.4978 4.10515C32.1154 2.40236 34.3315 1.39501 36.6781 1.29591C39.0246 1.19681 41.3178 2.01372 43.0732 3.57407C44.8286 5.13441 45.9087 7.316 46.0854 9.65798C46.2621 12 45.5215 14.3189 44.0201 16.125V12.2028C44.0201 12.0428 43.9565 11.8893 43.8434 11.7762C43.7302 11.663 43.5767 11.5994 43.4167 11.5994H37.9438C37.7838 11.5994 37.6303 11.663 37.5171 11.7762C37.404 11.8893 37.3404 12.0428 37.3404 12.2028V17.0663H32.5132C32.3531 17.0663 32.1997 17.1299 32.0865 17.243C31.9733 17.3562 31.9098 17.5097 31.9098 17.6697V23.1003C31.9098 23.2604 31.9733 23.4138 32.0865 23.527C32.1997 23.6402 32.3531 23.7037 32.5132 23.7037H36.5318L30.0754 30.1662L16.8005 16.8913C15.6729 15.7651 14.8649 14.3595 14.4593 12.8183H18.7857C18.8846 12.8185 18.9819 12.7943 19.0693 12.748C19.1566 12.7017 19.2312 12.6347 19.2865 12.5528L21.1511 9.77715L24.687 16.1069C24.7394 16.2001 24.8156 16.2777 24.9079 16.3318C25.0001 16.3858 25.1051 16.4144 25.212 16.4146H25.2784C25.3965 16.4017 25.5083 16.3541 25.5995 16.2779C25.6908 16.2017 25.7575 16.1002 25.7913 15.9862L28.0057 8.62465L29.5806 12.4502C29.6272 12.5603 29.7054 12.654 29.8053 12.7195C29.9052 12.785 30.0223 12.8194 30.1418 12.8183H32.9175C33.0535 13.0926 33.2784 13.3128 33.5554 13.4433C33.8324 13.5737 34.1454 13.6066 34.4435 13.5367C34.7417 13.4668 35.0074 13.2982 35.1976 13.0583C35.3878 12.8183 35.4913 12.5211 35.4913 12.2149C35.4913 11.9087 35.3878 11.6115 35.1976 11.3715C35.0074 11.1316 34.7417 10.963 34.4435 10.8931C34.1454 10.8232 33.8324 10.8561 33.5554 10.9866C33.2784 11.117 33.0535 11.3372 32.9175 11.6115H30.5762L28.5066 6.59721C28.4584 6.47908 28.3741 6.37924 28.2657 6.31202C28.1573 6.24481 28.0304 6.21368 27.9032 6.2231C27.7786 6.22901 27.6589 6.27338 27.5606 6.3501C27.4622 6.42682 27.3901 6.53212 27.3541 6.65152L25.0732 14.3027L21.7545 8.35916C21.7042 8.26942 21.6317 8.19404 21.5441 8.14018C21.4564 8.08632 21.3564 8.05576 21.2536 8.05142C21.1508 8.0472 21.0485 8.06939 20.9566 8.11586C20.8647 8.16233 20.7863 8.23155 20.7287 8.31692L18.4901 11.6417H14.2662C14.2157 11.2676 14.1895 10.8907 14.1878 10.5133C14.1833 9.32357 14.4146 8.14474 14.8682 7.04486C15.3219 5.94499 15.9888 4.94586 16.8307 4.10515Z" fill="url(#paint1_linear_2_2724)"/>
<defs>
<linearGradient id="paint0_linear_2_2724" x1="40.7897" y1="45.5188" x2="17.4412" y2="17.5823" gradientUnits="userSpaceOnUse">
<stop stop-color="#55097B"/>
<stop offset="1" stop-color="#F00045"/>
</linearGradient>
<linearGradient id="paint1_linear_2_2724" x1="38.61" y1="23.239" x2="6.45655" y2="1.69334" gradientUnits="userSpaceOnUse">
<stop stop-color="#55097B"/>
<stop offset="1" stop-color="#F00045"/>
</linearGradient>
</defs>
</svg>
