<svg width="56" height="56" viewBox="0 0 56 56" fill="none" xmlns="http://www.w3.org/2000/svg">
<path fill-rule="evenodd" clip-rule="evenodd" d="M21.5274 9.93371H34.4713C35.254 9.93602 35.8889 10.5687 35.8889 11.3537V20.1094H44.6443C45.427 20.1117 46.062 20.7443 46.0643 21.5271V34.4713C46.062 35.2541 45.4293 35.889 44.6443 35.889H35.8889V44.6446C35.8866 45.4297 35.2517 46.0624 34.4689 46.0647H21.5269C20.7441 46.0624 20.1092 45.4297 20.1092 44.6446V35.889H11.3538C10.5711 35.8867 9.93614 35.2541 9.93383 34.4713V21.5271C9.93614 20.7443 10.5711 20.1094 11.3538 20.1094H20.1092V11.3537C20.1115 10.5687 20.7464 9.93602 21.5292 9.93371H21.5274ZM27.9993 2.26643e-05C19.2942 2.26643e-05 11.0862 4.0478 5.78704 10.954C0.487963 17.8606 -1.29904 26.8378 0.95434 35.2476C3.2079 43.6551 9.24331 50.538 17.2858 53.8678C25.3277 57.1997 34.4601 56.6017 41.999 52.2491C49.5379 47.8965 54.6243 40.2838 55.7604 31.6547C56.8964 23.0232 53.9524 14.3551 47.7989 8.1992C42.5529 2.94153 35.4271 -0.00943518 27.9993 2.26643e-05ZM46.8707 9.12743C41.0036 3.26245 32.7423 0.456955 24.5178 1.54224C16.2909 2.62517 9.03808 7.47172 4.88916 14.6579C0.742254 21.8411 0.171904 30.5489 3.34675 38.2127C6.5216 45.8788 13.0815 51.6304 21.0933 53.7779C29.108 55.9253 37.6647 54.2212 44.2454 49.1713C50.8285 44.1215 54.6866 36.2963 54.6866 28C54.6958 20.9202 51.8837 14.1289 46.8707 9.12743ZM34.4695 11.2425L21.5274 11.2448C21.4697 11.2448 21.4235 11.291 21.4212 11.351V20.7675C21.4212 20.9407 21.3519 21.1069 21.2295 21.2316C21.1072 21.354 20.9386 21.4233 20.7654 21.4233H11.354C11.2962 21.4233 11.2477 21.4718 11.2477 21.5295V34.4719C11.2477 34.4997 11.2593 34.5274 11.2778 34.5458C11.2985 34.5666 11.3263 34.5782 11.354 34.5782H20.7654C21.1279 34.5782 21.4235 34.8714 21.4235 35.2339V44.6457C21.4235 44.7057 21.472 44.7519 21.5297 44.7519H34.4718C34.4995 44.7519 34.5272 44.7404 34.5457 44.7219C34.5665 44.7011 34.578 44.6734 34.578 44.6457V35.2339C34.578 34.8714 34.8713 34.5759 35.2338 34.5759H44.6452C44.673 34.5759 44.7007 34.5643 44.7214 34.5458C44.7399 34.5251 44.7515 34.4973 44.7515 34.4696V21.5272C44.7515 21.4694 44.7053 21.4233 44.6452 21.421H35.2338C35.0583 21.421 34.8921 21.3517 34.7697 21.2293C34.645 21.1069 34.5757 20.9384 34.5757 20.7652V11.3534C34.5757 11.3257 34.5642 11.298 34.5457 11.2772C34.5249 11.2588 34.4995 11.2472 34.4718 11.2472L34.4695 11.2425Z" fill="black"/>
<path fill-rule="evenodd" clip-rule="evenodd" d="M21.5274 9.93371H34.4713C35.254 9.93602 35.8889 10.5687 35.8889 11.3537V20.1094H44.6443C45.427 20.1117 46.062 20.7443 46.0643 21.5271V34.4713C46.062 35.2541 45.4293 35.889 44.6443 35.889H35.8889V44.6446C35.8866 45.4297 35.2517 46.0624 34.4689 46.0647H21.5269C20.7441 46.0624 20.1092 45.4297 20.1092 44.6446V35.889H11.3538C10.5711 35.8867 9.93614 35.2541 9.93383 34.4713V21.5271C9.93614 20.7443 10.5711 20.1094 11.3538 20.1094H20.1092V11.3537C20.1115 10.5687 20.7464 9.93602 21.5292 9.93371H21.5274ZM27.9993 2.26643e-05C19.2942 2.26643e-05 11.0862 4.0478 5.78704 10.954C0.487963 17.8606 -1.29904 26.8378 0.95434 35.2476C3.2079 43.6551 9.24331 50.538 17.2858 53.8678C25.3277 57.1997 34.4601 56.6017 41.999 52.2491C49.5379 47.8965 54.6243 40.2838 55.7604 31.6547C56.8964 23.0232 53.9524 14.3551 47.7989 8.1992C42.5529 2.94153 35.4271 -0.00943518 27.9993 2.26643e-05ZM46.8707 9.12743C41.0036 3.26245 32.7423 0.456955 24.5178 1.54224C16.2909 2.62517 9.03808 7.47172 4.88916 14.6579C0.742254 21.8411 0.171904 30.5489 3.34675 38.2127C6.5216 45.8788 13.0815 51.6304 21.0933 53.7779C29.108 55.9253 37.6647 54.2212 44.2454 49.1713C50.8285 44.1215 54.6866 36.2963 54.6866 28C54.6958 20.9202 51.8837 14.1289 46.8707 9.12743ZM34.4695 11.2425L21.5274 11.2448C21.4697 11.2448 21.4235 11.291 21.4212 11.351V20.7675C21.4212 20.9407 21.3519 21.1069 21.2295 21.2316C21.1072 21.354 20.9386 21.4233 20.7654 21.4233H11.354C11.2962 21.4233 11.2477 21.4718 11.2477 21.5295V34.4719C11.2477 34.4997 11.2593 34.5274 11.2778 34.5458C11.2985 34.5666 11.3263 34.5782 11.354 34.5782H20.7654C21.1279 34.5782 21.4235 34.8714 21.4235 35.2339V44.6457C21.4235 44.7057 21.472 44.7519 21.5297 44.7519H34.4718C34.4995 44.7519 34.5272 44.7404 34.5457 44.7219C34.5665 44.7011 34.578 44.6734 34.578 44.6457V35.2339C34.578 34.8714 34.8713 34.5759 35.2338 34.5759H44.6452C44.673 34.5759 44.7007 34.5643 44.7214 34.5458C44.7399 34.5251 44.7515 34.4973 44.7515 34.4696V21.5272C44.7515 21.4694 44.7053 21.4233 44.6452 21.421H35.2338C35.0583 21.421 34.8921 21.3517 34.7697 21.2293C34.645 21.1069 34.5757 20.9384 34.5757 20.7652V11.3534C34.5757 11.3257 34.5642 11.298 34.5457 11.2772C34.5249 11.2588 34.4995 11.2472 34.4718 11.2472L34.4695 11.2425Z" fill="url(#paint0_linear_2_2968)"/>
<defs>
<linearGradient id="paint0_linear_2_2968" x1="42.3004" y1="41.125" x2="-5.60739" y2="18.2007" gradientUnits="userSpaceOnUse">
<stop stop-color="#55097B"/>
<stop offset="1" stop-color="#F00045"/>
</linearGradient>
</defs>
</svg>
