<svg width="46" height="64" viewBox="0 0 46 64" fill="none" xmlns="http://www.w3.org/2000/svg">
<path fill-rule="evenodd" clip-rule="evenodd" d="M28.0304 23.711C27.5522 24.0602 27.3538 24.6751 27.5356 25.2414L29.8913 32.5352L23.7264 28.0282C23.2476 27.6776 22.6038 27.6782 22.125 28.0282L15.9602 32.5352L18.3159 25.2414C18.4991 24.6751 18.3 24.0602 17.8218 23.7095L11.6562 19.2017H19.2761C19.8682 19.2017 20.3887 18.8206 20.5712 18.255L22.9261 10.9605L25.2803 18.255C25.4636 18.8206 25.9848 19.2017 26.5754 19.2017H34.1961L28.0304 23.711ZM37.8823 17.9969C37.6997 17.4306 37.1785 17.0503 36.5879 17.0503H27.1403L24.2205 8.00739C23.8147 6.74972 22.0372 6.75049 21.631 8.00739L18.7126 17.0503H9.26427C7.95222 17.0503 7.40388 18.7528 8.46474 19.5281L16.108 25.1177L13.1881 34.1606C12.9019 35.0472 13.5755 35.9544 14.4817 35.9544C14.7623 35.9544 15.0429 35.8671 15.2828 35.6917L22.9261 30.1029L30.5694 35.6917C31.0476 36.0402 31.6903 36.0417 32.17 35.691C32.6482 35.341 32.8459 34.7261 32.6633 34.1606L29.7449 25.1161L37.3867 19.5281C37.8664 19.1789 38.064 18.5632 37.8823 17.9969ZM34.718 54.9769C33.8714 54.4858 32.7879 54.7754 32.2997 55.6283L29.4538 60.5877L25.6091 46.1451C29.2532 45.7298 32.6422 44.4537 35.5681 42.524L39.6466 57.8404L34.718 54.9769ZM2.13769 23.1477C2.13769 34.7246 11.497 44.144 23.0008 44.144C34.503 44.144 43.8624 34.7246 43.8624 23.1477C43.8624 11.5708 34.503 2.15214 23.0008 2.15214C11.497 2.15214 2.13769 11.5708 2.13769 23.1477ZM16.5463 60.5877L13.7018 55.629C13.2131 54.7769 12.1285 54.4853 11.2828 54.9754L6.35496 57.8404L10.4319 42.524C13.3593 44.4537 16.7469 45.7298 20.3909 46.1451L16.5463 60.5877ZM37.4199 41.1666C42.6487 36.92 46 30.4218 46 23.1477C46 10.3835 35.6828 0 23.0008 0C10.318 0 0 10.3835 0 23.1477C0 30.4218 3.35134 36.92 8.58015 41.1666L3.79713 59.1324C3.48593 60.2987 4.73886 61.2634 5.77489 60.6606L12.0326 57.0251L15.6464 63.3229C16.2444 64.3656 17.8086 64.1633 18.119 62.995L22.5663 46.2908H23.4338L27.8803 62.995C28.1914 64.1628 29.7554 64.3661 30.3537 63.3229L33.9675 57.0251L40.2251 60.6606C41.262 61.2637 42.5135 60.2969 42.2044 59.1324L37.4199 41.1666Z" fill="black"/>
<path fill-rule="evenodd" clip-rule="evenodd" d="M28.0304 23.711C27.5522 24.0602 27.3538 24.6751 27.5356 25.2414L29.8913 32.5352L23.7264 28.0282C23.2476 27.6776 22.6038 27.6782 22.125 28.0282L15.9602 32.5352L18.3159 25.2414C18.4991 24.6751 18.3 24.0602 17.8218 23.7095L11.6562 19.2017H19.2761C19.8682 19.2017 20.3887 18.8206 20.5712 18.255L22.9261 10.9605L25.2803 18.255C25.4636 18.8206 25.9848 19.2017 26.5754 19.2017H34.1961L28.0304 23.711ZM37.8823 17.9969C37.6997 17.4306 37.1785 17.0503 36.5879 17.0503H27.1403L24.2205 8.00739C23.8147 6.74972 22.0372 6.75049 21.631 8.00739L18.7126 17.0503H9.26427C7.95222 17.0503 7.40388 18.7528 8.46474 19.5281L16.108 25.1177L13.1881 34.1606C12.9019 35.0472 13.5755 35.9544 14.4817 35.9544C14.7623 35.9544 15.0429 35.8671 15.2828 35.6917L22.9261 30.1029L30.5694 35.6917C31.0476 36.0402 31.6903 36.0417 32.17 35.691C32.6482 35.341 32.8459 34.7261 32.6633 34.1606L29.7449 25.1161L37.3867 19.5281C37.8664 19.1789 38.064 18.5632 37.8823 17.9969ZM34.718 54.9769C33.8714 54.4858 32.7879 54.7754 32.2997 55.6283L29.4538 60.5877L25.6091 46.1451C29.2532 45.7298 32.6422 44.4537 35.5681 42.524L39.6466 57.8404L34.718 54.9769ZM2.13769 23.1477C2.13769 34.7246 11.497 44.144 23.0008 44.144C34.503 44.144 43.8624 34.7246 43.8624 23.1477C43.8624 11.5708 34.503 2.15214 23.0008 2.15214C11.497 2.15214 2.13769 11.5708 2.13769 23.1477ZM16.5463 60.5877L13.7018 55.629C13.2131 54.7769 12.1285 54.4853 11.2828 54.9754L6.35496 57.8404L10.4319 42.524C13.3593 44.4537 16.7469 45.7298 20.3909 46.1451L16.5463 60.5877ZM37.4199 41.1666C42.6487 36.92 46 30.4218 46 23.1477C46 10.3835 35.6828 0 23.0008 0C10.318 0 0 10.3835 0 23.1477C0 30.4218 3.35134 36.92 8.58015 41.1666L3.79713 59.1324C3.48593 60.2987 4.73886 61.2634 5.77489 60.6606L12.0326 57.0251L15.6464 63.3229C16.2444 64.3656 17.8086 64.1633 18.119 62.995L22.5663 46.2908H23.4338L27.8803 62.995C28.1914 64.1628 29.7554 64.3661 30.3537 63.3229L33.9675 57.0251L40.2251 60.6606C41.262 61.2637 42.5135 60.2969 42.2044 59.1324L37.4199 41.1666Z" fill="url(#paint0_linear_2_2731)"/>
<defs>
<linearGradient id="paint0_linear_2_2731" x1="34.7468" y1="47" x2="-8.50107" y2="32.1259" gradientUnits="userSpaceOnUse">
<stop stop-color="#55097B"/>
<stop offset="1" stop-color="#F00045"/>
</linearGradient>
</defs>
</svg>
