<svg width="62" height="62" viewBox="0 0 62 62" fill="none" xmlns="http://www.w3.org/2000/svg">
<path d="M58.7466 20.1421H56.3075C56.0903 19.194 55.8205 18.2577 55.4955 17.3364C54.5537 14.6628 53.1847 12.1726 51.4262 9.93416C47.9139 5.46434 42.9641 2.22665 37.4903 0.818274C35.3825 0.27538 33.1991 0 31 0C30.7254 0 30.4508 0.0039343 30.1762 0.0125891C29.7506 0.0259648 29.3257 0.0495685 28.9024 0.0841878C27.4161 0.202995 25.9448 0.448477 24.5097 0.819061C19.0351 2.22822 14.0853 5.46591 10.573 9.93495C8.81454 12.1726 7.44551 14.6636 6.50371 17.3364C6.17954 18.257 5.90967 19.1932 5.69251 20.1421H3.25343C1.45952 20.1421 0 21.6016 0 23.3956V58.7474C0 60.5413 1.45952 62.0008 3.25343 62.0008H20.9289H41.0711H58.7466C60.5405 62.0008 62 60.5413 62 58.7474V23.3956C62 21.6016 60.5405 20.1421 58.7466 20.1421ZM31.369 1.57675C31.4099 1.57754 31.4501 1.57833 31.491 1.57911C31.5736 1.58069 31.6554 1.58226 31.738 1.58462C31.7868 1.58619 31.8348 1.58777 31.8836 1.59013C31.9583 1.59249 32.0331 1.59563 32.107 1.59878C32.1582 1.60114 32.2093 1.6035 32.2605 1.60665C32.3328 1.61058 32.4044 1.61452 32.476 1.61845C32.528 1.6216 32.5799 1.62475 32.6326 1.62868C32.7034 1.6334 32.775 1.63812 32.8458 1.64363C32.8978 1.64756 32.9497 1.6515 33.0016 1.65543C33.0732 1.66094 33.1456 1.66723 33.2172 1.67431C33.2676 1.67904 33.3187 1.68376 33.3691 1.68848C33.443 1.69556 33.517 1.70343 33.5909 1.71129C33.6389 1.71602 33.6869 1.72152 33.7349 1.72703C33.8152 1.73568 33.8954 1.74591 33.9757 1.75536C34.0174 1.76008 34.0583 1.7648 34.1 1.7703C34.2117 1.78447 34.3227 1.79942 34.4336 1.81515C34.4438 1.81673 34.4533 1.81751 34.4635 1.81909C34.5847 1.8364 34.7058 1.85449 34.8262 1.87338C34.8648 1.87967 34.9025 1.88596 34.9411 1.89226C35.0237 1.90563 35.1055 1.91901 35.1881 1.93317C35.2354 1.94104 35.2818 1.9497 35.329 1.95835C35.4029 1.97173 35.4761 1.9851 35.5493 1.99848C35.5989 2.00792 35.6484 2.01736 35.698 2.02759C35.768 2.04096 35.8388 2.05513 35.9089 2.06929C35.96 2.07952 36.0111 2.09053 36.0615 2.10076C36.1307 2.11571 36.2 2.12987 36.2684 2.14561C36.3196 2.15662 36.3707 2.16843 36.4211 2.17944C36.4494 2.18574 36.4769 2.19282 36.5053 2.19911V2.5815C36.5053 3.24005 35.9694 3.77665 35.3101 3.77665H26.6875C26.029 3.77665 25.4924 3.24084 25.4924 2.5815V2.19911C25.5207 2.19282 25.5482 2.18574 25.5766 2.17944C25.6277 2.16764 25.6789 2.15662 25.7308 2.14482C25.7992 2.12987 25.8685 2.11492 25.9369 2.09997C25.9881 2.08896 26.0392 2.07873 26.0904 2.06772C26.1604 2.05355 26.2304 2.03939 26.3004 2.02602C26.3508 2.01657 26.4004 2.00635 26.4507 1.9969C26.5239 1.98274 26.5971 1.97015 26.6702 1.95678C26.7174 1.94812 26.7646 1.93947 26.8119 1.9316C26.8937 1.91744 26.9747 1.90406 27.0565 1.89068C27.0951 1.88439 27.1344 1.87731 27.173 1.8718C27.2934 1.85292 27.4145 1.83482 27.5349 1.81751C27.5467 1.81594 27.5577 1.81436 27.5695 1.81279C27.6789 1.79706 27.7891 1.78289 27.8992 1.76873C27.9409 1.76322 27.9826 1.7585 28.0243 1.75378C28.1046 1.74434 28.184 1.73411 28.2643 1.72546C28.3123 1.71995 28.3603 1.71523 28.4091 1.70972C28.483 1.70185 28.557 1.69398 28.6309 1.6869C28.6821 1.68218 28.7324 1.67746 28.7836 1.67274C28.8552 1.66645 28.9268 1.66015 28.9984 1.65386C29.0503 1.64992 29.103 1.64599 29.1549 1.64206C29.2258 1.63655 29.2966 1.63183 29.3682 1.62711C29.4201 1.62396 29.472 1.62003 29.5247 1.61688C29.5971 1.61294 29.6687 1.60901 29.7411 1.60508C29.7923 1.60272 29.8434 1.59957 29.8945 1.59721C29.9693 1.59406 30.044 1.59091 30.118 1.58855C30.1668 1.58698 30.2148 1.58462 30.2636 1.58305C30.3462 1.58068 30.428 1.57911 30.5106 1.57754C30.5515 1.57675 30.5916 1.57596 30.6326 1.57518C30.7553 1.5736 30.8788 1.57203 31.0016 1.57203C31.1243 1.57203 31.2463 1.57439 31.369 1.57675ZM23.9196 2.61769C23.9385 4.12756 25.1729 5.35025 26.6875 5.35025H35.3132C36.8278 5.35025 38.0615 4.12756 38.0812 2.61769C48.323 5.7114 55.3909 15.1695 55.3909 25.9645C55.3909 27.6081 55.2264 29.2494 54.903 30.8434C53.7386 36.5769 50.578 41.6462 45.9563 45.2332L41.9397 31.177C42.7202 29.5452 43.1168 27.7938 43.1168 25.9637C43.1168 19.2822 37.6815 13.8469 31 13.8469C24.3185 13.8469 18.8832 19.2822 18.8832 25.9637C18.8832 27.793 19.279 29.5452 20.0603 31.1762L16.0445 45.2317C11.422 41.6462 8.26142 36.5769 7.09695 30.8434C6.77358 29.2494 6.60914 27.6081 6.60914 25.9645C6.60914 15.1695 13.677 5.71218 23.9196 2.61769ZM41.0711 54.132H20.9289H17.1452C16.8887 54.132 16.6802 53.9235 16.6802 53.667V49.4112H22.1878H39.8122H45.3198V53.667C45.3198 53.9235 45.1113 54.132 44.8548 54.132H41.0711ZM45.0633 47.8376H40.4479L37.0088 31.7868H40.4778L45.0633 47.8376ZM16.9367 47.8376L17.2443 46.7596C17.2443 46.7589 17.2451 46.7581 17.2451 46.7565L21.5222 31.7868H24.9912L21.5521 47.8376H16.9367ZM26.6002 31.7868H35.399L38.8381 47.8376H23.1611L26.6002 31.7868ZM40.6525 30.2132H36.0355H25.9645H21.3475C20.7558 28.8764 20.4569 27.4499 20.4569 25.9645C20.4569 20.1508 25.1863 15.4213 31 15.4213C36.8137 15.4213 41.5431 20.1508 41.5431 25.9645C41.5431 27.4499 41.2434 28.8764 40.6525 30.2132ZM1.5736 58.7466V55.7056H10.8579V54.132H1.5736V23.3956C1.5736 22.4695 2.32736 21.7157 3.25343 21.7157H5.38251C5.15277 23.1131 5.03553 24.5317 5.03553 25.9645C5.03553 27.7127 5.2102 29.4602 5.55482 31.1566C6.21495 34.4068 7.47777 37.462 9.30865 40.2386C11.0026 42.8067 13.1113 45.0303 15.581 46.8548L15.1373 48.408C15.1357 48.4135 15.1349 48.4182 15.1341 48.4237C15.1286 48.4442 15.1239 48.4646 15.12 48.4859C15.1184 48.4961 15.1168 48.5056 15.1153 48.5158C15.1129 48.5339 15.1105 48.552 15.1097 48.5701C15.109 48.5819 15.1082 48.5937 15.1082 48.6047C15.1082 48.611 15.1074 48.6181 15.1074 48.6244V53.667C15.1074 54.7913 16.0217 55.7056 17.146 55.7056H20.1421V60.4264H3.25343C2.32736 60.4264 1.5736 59.6726 1.5736 58.7466ZM21.7157 60.4264V55.7056H40.2843V60.4264H21.7157ZM58.7466 60.4264H41.8579V55.7056H44.8548C45.9791 55.7056 46.8934 54.7913 46.8934 53.667V48.6244C46.8934 48.6181 46.8926 48.611 46.8926 48.6047C46.8926 48.5929 46.8918 48.5811 46.891 48.5701C46.8895 48.552 46.8879 48.5339 46.8855 48.5166C46.884 48.5063 46.8824 48.4961 46.8808 48.4867C46.8769 48.4662 46.8722 48.4458 46.8674 48.4253C46.8659 48.4198 46.8651 48.4143 46.8643 48.4096L46.4205 46.8572C48.8903 45.0326 50.9989 42.8091 52.6929 40.2402C54.5238 37.4636 55.7866 34.4076 56.4468 31.1581C56.7914 29.4618 56.966 27.7143 56.966 25.966C56.966 24.5333 56.8488 23.1147 56.6191 21.7173H58.7481C59.6742 21.7173 60.428 22.4711 60.428 23.3971V54.132H51.1421V55.7056H60.4264V58.7466C60.4264 59.6726 59.6726 60.4264 58.7466 60.4264Z" fill="white"/>
<path d="M31.7845 8.34033H30.2109V10.8581H31.7845V8.34033Z" fill="white"/>
<path d="M48.6232 25.1772H46.1055V26.7509H48.6232V25.1772Z" fill="white"/>
<path d="M15.8928 25.1772H13.375V26.7509H15.8928V25.1772Z" fill="white"/>
</svg>
