<svg width="65" height="65" viewBox="0 0 65 65" fill="none" xmlns="http://www.w3.org/2000/svg">
<path d="M38.5243 57.6331C38.6745 58.1912 38.3434 58.7677 37.7853 58.9149L15.2237 64.9619C15.1347 64.9864 15.0428 64.9987 14.9538 64.9987C14.7729 64.9987 14.5889 64.9496 14.4295 64.8576C14.1873 64.7196 14.0125 64.4896 13.942 64.2228L0.036203 12.3353C-0.114048 11.7772 0.217115 11.2007 0.775182 11.0535L12.4697 7.9196C13.0308 7.76934 13.6042 8.10052 13.7544 8.65861C13.9047 9.21671 13.5735 9.79319 13.0155 9.94344L2.33279 12.8075L15.693 62.6713L37.2428 56.8941C37.8009 56.7438 38.3773 57.075 38.5245 57.6362L38.5243 57.6331ZM55.9349 43.006V44.8122C55.9349 45.3917 56.4041 45.8608 56.9836 45.8608C57.5631 45.8608 58.0322 45.3917 58.0322 44.8122V43.006C58.0322 42.4264 57.5631 41.9573 56.9836 41.9573C56.404 41.9573 55.9349 42.4265 55.9349 43.006ZM50.5383 54.76C50.5383 55.3395 50.0691 55.8086 49.4896 55.8086H15.8889C15.3094 55.8086 14.8403 55.3395 14.8403 54.76V10.1282C14.8403 9.84918 14.9507 9.58546 15.1469 9.38921L24.2259 0.306649C24.4221 0.110396 24.6889 0 24.9679 0H56.9798C57.5594 0 58.0285 0.469169 58.0285 1.04869V18.7051C58.0285 19.2847 57.5593 19.7538 56.9798 19.7538C56.4003 19.7538 55.9312 19.2847 55.9312 18.7051V2.09119H26.0136V10.125C26.0136 10.7045 25.5444 11.1737 24.965 11.1737H16.9347V53.7141H49.4867C50.0662 53.7141 50.5353 54.1833 50.5353 54.7628L50.5383 54.76ZM18.4157 9.07945H23.9197V3.5752L18.4157 9.07945ZM32.0702 16.7241C32.0702 16.1446 31.6011 15.6754 31.0216 15.6754H21.6483C21.0687 15.6754 20.5996 16.1446 20.5996 16.7241C20.5996 17.3036 21.0688 17.7728 21.6483 17.7728H31.0216C31.6011 17.7728 32.0702 17.3036 32.0702 16.7241ZM45.4085 10.1252C45.4085 9.54561 44.9393 9.07647 44.3598 9.07647H29.1785C28.599 9.07647 28.1299 9.54564 28.1299 10.1252C28.1299 10.7047 28.599 11.1739 29.1785 11.1739H44.3598C44.9394 11.1739 45.4085 10.7047 45.4085 10.1252ZM21.6474 30.9648H24.5082C25.0878 30.9648 25.5569 30.4956 25.5569 29.9161C25.5569 29.3366 25.0877 28.8674 24.5082 28.8674H21.6474C21.0679 28.8674 20.5988 29.3366 20.5988 29.9161C20.5988 30.4957 21.0679 30.9648 21.6474 30.9648ZM49.3694 9.07639C48.7899 9.07639 48.3208 9.54556 48.3208 10.1251C48.3208 10.7046 48.7899 11.1738 49.3694 11.1738H51.2123C51.7918 11.1738 52.261 10.7046 52.261 10.1251C52.261 9.54556 51.7918 9.07639 51.2123 9.07639H49.3694ZM27.1328 23.3204C27.1328 22.7408 26.6636 22.2717 26.0841 22.2717H21.6442C21.0647 22.2717 20.5955 22.7409 20.5955 23.3204C20.5955 23.9 21.0647 24.3691 21.6442 24.3691H26.0841C26.6637 24.3691 27.1328 23.8999 27.1328 23.3204ZM29.1136 42.0688H21.6472C21.0676 42.0688 20.5985 42.5379 20.5985 43.1175C20.5985 43.697 21.0677 44.1662 21.6472 44.1662H29.1136C29.6931 44.1662 30.1622 43.697 30.1622 43.1175C30.1622 42.5379 29.6931 42.0688 29.1136 42.0688ZM20.5982 49.7134C20.5982 50.293 21.0674 50.7621 21.6469 50.7621H40.5686C41.1481 50.7621 41.6172 50.293 41.6172 49.7134C41.6172 49.1339 41.1481 48.6647 40.5686 48.6647H21.6469C21.0673 48.6647 20.5982 49.1339 20.5982 49.7134ZM25.3602 35.4671H21.6469C21.0673 35.4671 20.5982 35.9363 20.5982 36.5158C20.5982 37.0953 21.0674 37.5645 21.6469 37.5645H25.3602C25.9397 37.5645 26.4088 37.0953 26.4088 36.5158C26.4088 35.9362 25.9397 35.4671 25.3602 35.4671ZM64.4674 61.6668L58.945 64.8589C58.7855 64.9509 58.6046 65 58.4206 65C58.3287 65 58.2397 64.9877 58.1508 64.9632C57.881 64.8896 57.6541 64.7148 57.5161 64.4756L50.5587 52.4187C50.2888 51.9557 50.2183 51.4129 50.3563 50.8885C50.4237 50.6432 50.5341 50.4163 50.6782 50.2201L48.4491 46.3563C46.7013 46.9757 44.8738 47.2916 43.0279 47.2916C41.599 47.2916 40.164 47.1045 38.7474 46.7243C34.5098 45.5897 30.9682 42.8697 28.7759 39.0704C26.5835 35.2711 26.0009 30.8435 27.1355 26.6084C28.27 22.3706 30.9867 18.8288 34.7889 16.6364C42.6325 12.1073 52.6988 14.8058 57.2281 22.6466C61.2358 29.5922 59.5769 38.2824 53.6988 43.3269L55.9311 47.1937C56.1764 47.1661 56.4279 47.1845 56.6762 47.2489C57.1975 47.39 57.6329 47.7242 57.8997 48.1903L64.8602 60.2418C65.1484 60.7416 64.9767 61.3825 64.4769 61.6738L64.4674 61.6668ZM50.1629 43.2654C57.0037 39.3127 59.3557 30.527 55.4063 23.6888C52.7539 19.0983 47.9276 16.5286 42.9723 16.5286C40.5407 16.5286 38.0816 17.145 35.8309 18.4452C32.5162 20.3586 30.146 23.4496 29.1556 27.1446C28.1652 30.8428 28.6742 34.7034 30.5875 38.0186C32.5009 41.3338 35.5917 43.7069 39.2897 44.6973C42.9876 45.6878 46.8481 45.1818 50.1631 43.2684L50.1629 43.2654ZM52.4074 49.0241L54.0264 48.0889L52.0058 44.5901C51.7482 44.7587 51.4845 44.9243 51.2116 45.0807C50.9418 45.2371 50.6658 45.3843 50.3868 45.5253L52.4074 49.0241ZM62.5139 60.3793L56.1177 49.3036L52.4105 51.444L58.8037 62.5228L62.5139 60.3793ZM49.3139 41.7934C47.3698 42.9157 45.2081 43.4892 43.0219 43.4892C41.9241 43.4892 40.8202 43.3451 39.7317 43.0537C36.4723 42.1798 33.7494 40.0885 32.063 37.1662C30.3765 34.2438 29.9288 30.8431 30.8027 27.5836C31.6766 24.327 33.7647 21.604 36.6869 19.9175C42.7183 16.434 50.4576 18.5069 53.9382 24.5386C57.4215 30.5703 55.3487 38.31 49.3173 41.7907L49.3139 41.7934ZM52.1195 25.5869C50.1693 22.2107 46.6216 20.3218 42.9785 20.3218C41.194 20.3218 39.3848 20.7756 37.729 21.7324C32.7003 24.6363 30.9709 31.0913 33.8747 36.1201C35.2821 38.5579 37.5542 40.3027 40.2709 41.0325C42.9876 41.7623 45.827 41.3882 48.2651 39.9807C53.2937 37.0768 55.0232 30.6187 52.1194 25.5899L52.1195 25.5869Z" fill="white"/>
</svg>
