<svg width="57" height="65" viewBox="0 0 57 65" fill="none" xmlns="http://www.w3.org/2000/svg">
<path d="M55.305 16.5983C53.8764 15.4803 52.3199 15.6514 50.6687 15.9194C46.9083 16.5282 43.1334 17.2829 39.327 17.5075C38.6055 17.5415 37.884 17.5603 37.1625 17.5653C37.1625 15.1459 37.1625 12.7264 37.1625 10.3069C37.1625 9.18603 35.4352 9.18603 35.4352 10.3069C35.4352 12.7199 35.4352 15.1329 35.4352 17.5458C33.7287 17.4996 32.0265 17.3667 30.3308 17.1233C29.9719 17.072 29.6136 17.015 29.2561 16.955C27.7126 14.5847 25.8611 12.4454 23.7066 10.6153C22.8609 9.8967 21.6325 11.1202 22.4847 11.8446C24.1215 13.2356 25.5811 14.7956 26.8511 16.5145C26.5273 16.4531 26.2042 16.3917 25.8797 16.331C24.8502 16.1396 23.8207 15.9497 22.792 15.759C20.6432 15.3611 18.544 15.2073 16.386 15.4405C16.386 10.5835 16.386 5.72655 16.386 0.870286C16.386 0.395059 15.9933 0 15.5223 0C12.5559 0 9.58945 0 6.62301 0C6.15206 0 5.75936 0.395059 5.75936 0.868841C5.75936 7.42524 5.75936 13.9816 5.75936 20.538C3.83103 22.4035 2.28464 24.6829 1.26591 27.241C-0.167771 30.8413 0.00668346 34.6236 0.00668346 38.411C0.00668346 42.9358 0.00668346 47.4591 0.00668346 51.9839C0.00668346 53.3713 0.00668346 54.7594 0.00668346 56.1468C0.00668346 58.2615 1.06848 60.0114 3.10019 60.725C4.42475 61.1908 5.9733 60.8825 7.07028 60.0324C7.72574 59.5254 8.29505 58.8891 8.88589 58.3092C9.5593 57.6476 10.2334 56.986 10.9075 56.3245C12.1273 55.127 13.5926 54.2863 15.2308 53.819C16.3939 53.4868 17.6222 53.325 18.8384 53.1654C21.1214 59.5738 27.3895 63.0123 33.565 64.9558C34.6304 65.2917 35.0834 63.6132 34.0245 63.2795C28.5245 61.5491 22.7611 58.5605 20.5887 52.9134C23.7482 52.4114 26.8389 51.7939 29.8512 50.655C30.5053 50.4072 31.15 50.1335 31.7903 49.8533C32.8285 49.3896 33.8422 48.8797 34.83 48.3265C36.8789 51.0731 40.0751 52.1298 43.5025 51.9449C44.6102 51.8849 44.6167 50.1465 43.5025 50.2072C40.6897 50.3589 38.0527 49.6503 36.3261 47.441C37.9206 46.4487 39.4433 45.3394 40.8871 44.121C41.9561 43.2059 42.9734 42.2309 43.9354 41.2032C44.5111 43.7013 46.0949 45.8738 48.3786 47.1608C50.182 48.1763 54.7824 49.4474 54.7824 46.0392C54.7824 42.5393 54.7824 39.0401 54.7824 35.5402C54.7824 32.0251 54.7824 28.5093 54.7824 24.9942C55.3057 24.1383 55.8305 23.2839 56.3546 22.4281C57.5248 20.52 57.0618 17.9734 55.305 16.5983ZM7.48739 1.73768C9.87805 1.73768 12.268 1.73768 14.6587 1.73768C14.6587 6.40039 14.6587 11.0624 14.6587 15.7251C12.0268 16.305 9.59089 17.4584 7.48739 19.0546C7.48739 13.2825 7.48739 7.50974 7.48739 1.73768ZM53.0536 45.5531C53.0536 45.7648 53.0536 45.9771 53.0536 46.1887C53.0536 47.129 50.0219 46.0406 49.5854 45.8334C47.1301 44.6677 45.5701 42.1977 45.4322 39.5045C46.5816 38.12 47.6334 36.6553 48.5753 35.1184C49.2544 34.0098 49.935 32.9019 50.6142 31.7932C51.4276 30.4665 52.2409 29.139 53.0536 27.8123C53.0536 33.7259 53.0536 39.6395 53.0536 45.5531ZM54.7788 21.6893C54.2626 22.5307 53.7464 23.372 53.231 24.2142C53.19 24.2647 53.1549 24.3203 53.1261 24.3839C52.8419 24.8483 52.5576 25.312 52.2733 25.7763C50.7233 28.3049 49.1733 30.8341 47.6226 33.3619C45.4286 36.9406 42.8599 40.1574 39.6652 42.8917C37.0211 45.1213 34.0704 46.9456 30.9174 48.3525C26.1461 50.4441 21.0646 51.0934 15.9753 51.8885C14.098 52.1818 12.3197 52.9632 10.8106 54.1202C10.036 54.7132 9.35972 55.4166 8.66406 56.0984C7.93178 56.8177 7.19878 57.5371 6.46651 58.2557C5.74357 58.9649 4.87632 59.3513 3.85472 59.1325C2.59406 58.8624 1.76343 57.7595 1.73399 56.4884C1.72825 56.2486 1.73399 56.0081 1.73399 55.7676C1.73399 54.1802 1.73399 52.5927 1.73399 51.0045C1.73399 46.5058 1.73399 42.007 1.73399 37.5082C1.73399 36.4141 1.73399 35.3213 1.73399 34.2271C1.73399 31.9117 2.14751 29.6713 3.00471 27.5191C5.19867 22.0085 10.3928 18.12 16.1591 17.2006C19.3912 16.7283 22.5192 17.4671 25.6766 18.0536C27.1626 18.3294 28.6473 18.6227 30.1434 18.8372C33.191 19.2741 36.2536 19.3882 39.3263 19.2452C43.659 18.9888 47.9672 18.1056 52.2481 17.4129C53.4815 17.2136 54.6898 18.0167 55.1205 19.1651C55.4522 20.0469 55.2548 20.9129 54.7788 21.6893Z" fill="white"/>
</svg>
