<svg width="67" height="52" viewBox="0 0 67 52" fill="none" xmlns="http://www.w3.org/2000/svg">
<path d="M2.12144 20.1462C1.88742 19.9098 1.57133 19.7794 1.2431 19.7764C0.911818 19.7764 0.595735 19.9068 0.361721 20.1402C0.127699 20.3736 -0.00299023 20.6888 5.19484e-05 21.0192C5.19484e-05 21.3466 0.133783 21.6619 0.367805 21.8953L5.30664 26.8212C5.78684 27.3002 6.56186 27.3032 7.04815 26.8303L7.11197 26.7666V26.7697C7.79581 28.7643 8.84134 30.6194 10.1938 32.2382C8.93245 33.7236 9.02364 35.9273 10.4065 37.3035L10.5949 37.4914C11.221 38.1128 12.0507 38.4888 12.9321 38.5554C12.0811 40.2924 12.4276 42.3749 13.7953 43.742L13.8774 43.8239C14.7253 44.6727 15.8802 45.1485 17.0838 45.1455C17.2418 45.1455 17.3999 45.1364 17.5579 45.1212C17.491 46.2883 17.9257 47.4311 18.7554 48.2587L18.9833 48.486C20.5394 50.0381 23.0438 50.0987 24.6728 48.6224C24.8491 49.159 25.147 49.647 25.5421 50.0471L26.4265 50.9292C27.861 52.3569 30.18 52.3569 31.6145 50.9292L32.8637 49.6833C33.587 50.329 35.3285 51.69 37.2007 51.69V51.6931C37.5228 51.6931 37.845 51.6506 38.155 51.5657C39.5257 51.2232 40.6594 50.2623 41.2186 48.9679C42.8233 49.7469 44.9386 50.0985 46.6984 48.592C47.8503 47.6493 48.443 46.1851 48.2667 44.7058C48.3335 44.7089 48.4034 44.718 48.4703 44.718C48.5979 44.718 48.7256 44.7119 48.8532 44.6998C50.0355 44.5573 51.0992 43.9177 51.78 42.9416C52.5976 41.8928 52.8134 40.4954 52.3423 39.2495C53.558 39.3435 54.7555 38.8918 55.6065 38.0188C56.4969 37.17 56.9954 35.9909 56.9771 34.7602C56.9255 33.8053 56.6094 32.8868 56.0654 32.1017C57.4786 30.8134 58.4907 29.1462 58.9739 27.3001L60.3264 28.6005V28.5975C60.5574 28.8218 60.8674 28.9431 61.1866 28.9431H61.217C61.5482 28.937 61.8613 28.7976 62.0892 28.5581L66.6603 23.7292C67.1314 23.2321 67.1101 22.45 66.6116 21.9801C66.1132 21.5103 65.3291 21.5315 64.858 22.0286L61.1471 25.9512L58.9163 23.8111L58.9041 23.7989L45.0937 10.5368L53.965 2.1403C54.2051 1.91295 54.348 1.60376 54.3571 1.27334C54.3662 0.942925 54.2447 0.624634 54.0167 0.385186C53.7888 0.145715 53.4757 0.00929902 53.1444 0.000211861C52.8162 -0.00585116 52.4971 0.118431 52.257 0.34578L42.4466 9.63392C42.1153 9.93705 41.9846 10.4008 42.1031 10.8343C39.0122 10.6949 34.1374 10.5615 32.2133 10.9768C30.5904 10.316 28.864 9.93711 27.1104 9.85826C26.1621 9.83401 25.1987 9.82795 24.3507 9.82795V9.83098C24.5027 9.40357 24.4054 8.93065 24.1015 8.59727L17.0717 0.879551L17.0747 0.87652C16.6127 0.373319 15.8286 0.333913 15.3211 0.794672C14.8135 1.2524 14.777 2.03451 15.236 2.54071L21.4604 9.37331L6.19424 24.2084L2.12144 20.1462ZM12.1598 35.554C11.9197 35.3176 11.786 34.9932 11.786 34.6537C11.786 34.3172 11.9197 33.9929 12.1598 33.7565L14.8223 31.101C15.0624 30.8616 15.3845 30.7282 15.7249 30.7282C16.0623 30.7282 16.3875 30.8616 16.6276 31.101L16.813 31.2859C17.3115 31.7861 17.3115 32.5894 16.813 33.0865L14.1506 35.742C13.6522 36.2391 12.8468 36.2391 12.3484 35.742L12.1598 35.554ZM15.6306 42.0744L15.5486 41.9925C14.7463 41.1923 14.7463 39.8949 15.5486 39.0915L19.3659 35.2842V35.2873C20.1682 34.487 21.469 34.487 22.2714 35.2842L22.3535 35.3661C23.1558 36.1694 23.1558 37.4668 22.3535 38.2671L18.5392 42.0744C17.7338 42.8746 16.4331 42.8746 15.6306 42.0744ZM20.7366 46.7365L20.5087 46.5092C19.8643 45.8635 19.8643 44.8237 20.5087 44.1781L23.9704 40.7254C24.6147 40.0828 25.6602 40.0828 26.3045 40.7254L26.5355 40.9558C26.8455 41.262 27.0187 41.6833 27.0187 42.1199C27.0187 42.5564 26.8455 42.9747 26.5355 43.2839L23.0738 46.7365C22.4264 47.3792 21.3809 47.3792 20.7366 46.7365ZM31.3554 47.6914L29.8601 49.1828V49.1798C29.3951 49.6406 28.6444 49.6406 28.1794 49.1798L27.2949 48.2977C26.833 47.8339 26.833 47.0852 27.2949 46.6214L28.7903 45.1299V45.133C29.2553 44.6692 30.006 44.6692 30.4679 45.133L31.3523 46.0151H31.3554C31.8173 46.4758 31.8174 47.2276 31.3554 47.6914ZM44.5426 13.4404L56.8241 25.235C56.6904 27.1509 55.8303 28.9423 54.417 30.2458C53.4687 29.3364 51.7485 27.7934 49.3779 25.7231C43.6428 20.7184 39.4756 19.3998 37.5002 19.0572C35.8833 18.7784 34.6099 19.8697 32.8501 21.3792L32.8531 21.3823C30.6375 23.3981 28.1422 25.0865 25.4434 26.393C23.1883 27.46 21.465 27.6752 20.7235 26.9841H20.7204C20.2706 26.4627 20.0883 25.7595 20.225 25.0835C21.1125 23.4739 30.847 13.8584 32.6738 13.4037C34.3515 12.9914 40.6827 13.1979 44.5426 13.4404ZM27.0489 12.3309C27.8239 12.3582 28.5959 12.4673 29.3496 12.6522C25.0977 15.9351 18.4087 22.9647 17.9465 24.114C17.3995 25.7479 17.8128 27.5485 19.0194 28.7852C20.6089 30.2766 23.1284 30.2251 26.5051 28.6306C29.4076 27.2301 32.0912 25.4205 34.4739 23.2561C35.5741 22.3103 36.6074 21.413 37.0816 21.4949C38.4644 21.7344 42.2696 22.8044 47.7463 27.5848C52.1927 31.4649 53.1015 32.4138 53.2292 32.5562L53.3811 32.7168C53.9799 33.2776 54.3749 34.0263 54.4996 34.8357C54.4935 35.3905 54.2504 35.9179 53.834 36.2847C52.6517 37.4851 50.3601 36.1059 49.9589 35.8512L46.0626 32.0651C45.5702 31.5892 44.7861 31.5983 44.3089 32.0894C43.8287 32.5774 43.8409 33.3625 44.3302 33.8384L48.3116 37.7034C48.3268 37.7185 48.3451 37.7276 48.3603 37.7428L48.3572 37.7458C48.3846 37.767 50.8859 40.0375 49.81 41.4319L49.813 41.4349C49.5425 41.8593 49.1049 42.1503 48.6064 42.2383C47.9439 42.3019 47.0047 41.8563 45.9866 40.9712C44.4062 39.598 41.531 36.7365 41.5007 36.7092L41.5037 36.7061C41.2697 36.4727 40.9536 36.3393 40.6223 36.3393C40.2941 36.3363 39.975 36.4697 39.7409 36.7031C39.51 36.9335 39.3793 37.2518 39.3793 37.5822C39.3823 37.9095 39.513 38.2248 39.7501 38.4582C39.8716 38.5764 42.7133 41.4047 44.3576 42.8354V42.8324C44.6858 43.1203 45.0323 43.3871 45.394 43.6326C45.6918 44.1813 46.3149 45.6636 45.084 46.7155C43.7254 47.8765 41.6374 46.3729 41.2605 46.085L37.197 41.3773C36.7472 40.8681 35.9722 40.8165 35.4585 41.2591C34.9419 41.6987 34.8811 42.4717 35.3187 42.9931L39.1269 47.4036L39.1239 47.4006C39.0053 48.2736 38.358 48.983 37.4979 49.18C36.5132 49.4468 34.9206 48.2585 34.3036 47.6401C34.2459 47.5855 34.1851 47.534 34.1212 47.4885C34.331 46.3154 33.9541 45.112 33.1092 44.2663L32.2247 43.3842H32.2217C31.4984 42.6657 30.5076 42.2807 29.4864 42.3262C29.4894 42.2565 29.4955 42.1898 29.4955 42.1171L29.4986 42.1201C29.5016 41.0257 29.0639 39.977 28.2889 39.207L28.061 38.9766H28.0579C27.3316 38.2521 26.3559 37.8247 25.3287 37.7792C25.6569 36.2787 25.198 34.7085 24.1099 33.6202L24.0279 33.5384C22.8821 32.3955 21.2105 31.953 19.6483 32.3713C19.7061 31.3164 19.314 30.2858 18.5664 29.5371L18.381 29.3522H18.3779C17.6759 28.6489 16.7185 28.2548 15.7246 28.2548C14.7278 28.2548 13.7734 28.6489 13.0683 29.3522L11.9559 30.4617C8.98958 26.5512 9.31178 24.8052 9.31481 24.787H9.31177C9.30873 24.8143 9.29961 24.8416 9.28746 24.8658L9.12942 24.8082L21.9766 12.3252C22.6908 12.3131 24.9154 12.2763 27.0489 12.3309Z" fill="white"/>
</svg>
