<svg width="21" height="22" viewBox="0 0 21 22" fill="none" xmlns="http://www.w3.org/2000/svg">
<path d="M10.3402 21.3208H10.2948C4.61831 21.3208 0 16.7011 0 11.0229V10.9775C0 5.29935 4.61831 0.679688 10.2948 0.679688H10.3402C16.0167 0.679688 20.635 5.29935 20.635 10.9775V11.0229C20.635 16.7011 16.0167 21.3208 10.3402 21.3208ZM10.2948 1.37837C5.00317 1.37837 0.698474 5.68432 0.698474 10.9775V11.0229C0.698474 16.3161 5.00317 20.6221 10.2948 20.6221H10.3402C15.6318 20.6221 19.9365 16.3161 19.9365 11.0229V10.9775C19.9365 5.68432 15.6318 1.37837 10.3402 1.37837H10.2948Z" fill="white"/>
<path d="M4.39192 5.54297L8.98927 11.6913L4.36328 16.6904H5.40471L9.45516 12.3139L12.7275 16.6904H16.2709L11.4151 10.1962L15.7212 5.54297H14.6797L10.9499 9.57366L7.93598 5.54297H4.39261H4.39192ZM5.92297 6.31013H7.55042L14.7384 15.9233H13.111L5.92297 6.31013Z" fill="white"/>
</svg>
