<svg width="1373" height="207" viewBox="0 0 1373 207" fill="none" xmlns="http://www.w3.org/2000/svg">
<path d="M252.1 5.88635C253.193 5.61589 256.139 5.21144 258.947 8.01535C260.808 9.87298 260.804 11.7484 260.274 13.4138C259.708 15.1968 258.549 16.5691 258.375 16.7663L258.369 16.7728L258.366 16.7758L236.283 39.7866C231.73 44.5305 235.092 52.4168 241.667 52.4168H330.982C331.068 52.4168 331.127 52.4204 331.168 52.4248C331.207 52.429 331.223 52.4333 331.223 52.4333C331.72 52.5709 332.694 52.9252 333.51 53.6611C334.253 54.3312 334.953 55.3845 334.953 57.2253C334.953 60.1899 333.844 61.2616 333.11 61.7246C332.313 62.2269 331.498 62.2827 331.411 62.2887C331.405 62.289 331.403 62.2893 331.403 62.2893L276.039 62.2893C274.532 62.2893 272.868 62.7446 271.563 63.9615C270.837 64.6385 269.911 65.6149 269.153 66.8036C268.404 67.9796 267.717 69.5229 267.717 71.2861C267.717 72.9142 268.375 74.4268 269.047 75.583C269.742 76.7777 270.598 77.8385 271.294 78.6165C272.653 80.1377 274.561 80.7942 276.366 80.7942H345.547C345.928 80.7942 346.103 80.8641 346.167 80.9019C347.23 81.5284 348.758 82.8174 348.758 85.0913C348.758 87.6524 347.071 88.5403 346.225 88.8557C346.221 88.8568 346.206 88.8606 346.177 88.8647C346.129 88.8713 346.056 88.8771 345.945 88.8771H257.396C256.355 88.8771 255.073 89.0882 253.933 89.8986C252.581 90.8594 250.077 93.1256 250.077 96.8513C250.077 100.37 252.138 102.913 253.435 104.183C254.722 105.443 256.389 105.848 257.81 105.848H333.979V105.852H337.033C337.631 105.852 337.964 106.023 338.12 106.176C339.076 107.112 340.066 108.508 340.066 110.149C340.066 111.576 339.107 112.617 338.187 113.271C338.109 113.326 337.9 113.423 337.447 113.423H248.897C248.383 113.423 247.699 113.472 246.983 113.738C245.404 114.325 241.384 116.417 241.384 121.909C241.384 126.677 244.691 129.206 246.289 130.147C247.318 130.753 248.408 130.905 249.295 130.905H318.476C319.188 130.905 319.728 131.16 320.044 131.515C320.623 132.163 321.256 132.96 321.733 133.779C322.231 134.637 322.426 135.294 322.426 135.714C322.426 136.258 322.205 136.919 321.726 137.67C321.256 138.408 320.632 139.081 320.074 139.602C319.831 139.828 319.412 140.011 318.803 140.011H263.419C263.248 140.011 261.249 140.024 259.226 141.3C257.021 142.69 255.189 145.325 255.189 149.775C255.189 153.058 256.54 155.346 258.185 156.829C259.758 158.247 261.51 158.859 262.366 159.096C262.928 159.252 263.451 159.283 263.861 159.283H353.175C355.609 159.283 356.854 162.203 355.169 163.959L333.086 186.97C333.057 186.999 333.012 187.047 332.958 187.107C332.658 187.446 330.961 189.42 330.089 192.162C329.173 195.044 329.162 198.903 332.575 202.31C337.008 206.737 341.936 206.155 343.872 205.676C344.718 205.466 345.394 205.054 345.896 204.68L442.165 132.734C442.643 132.377 443.223 132.184 443.819 132.184H1391V127.484H443.819C442.209 127.484 440.642 128.005 439.352 128.969L343.082 200.915C342.867 201.076 342.764 201.108 342.743 201.114C341.65 201.384 338.703 201.789 335.895 198.985C334.035 197.127 334.038 195.252 334.568 193.586C335.135 191.802 336.295 190.429 336.468 190.233L336.473 190.227L336.476 190.224L358.559 167.213C363.112 162.47 359.75 154.583 353.175 154.583H263.861C263.828 154.583 263.8 154.583 263.774 154.582L263.748 154.581C263.719 154.579 263.694 154.577 263.675 154.575C263.635 154.571 263.62 154.567 263.62 154.567C263.123 154.429 262.148 154.075 261.332 153.339C260.589 152.669 259.889 151.615 259.889 149.775C259.889 146.81 260.998 145.738 261.732 145.275C262.529 144.773 263.345 144.717 263.432 144.711C263.437 144.711 263.44 144.711 263.44 144.711L263.419 144.711H318.803C320.311 144.711 321.975 144.255 323.279 143.038C324.005 142.361 324.931 141.385 325.689 140.196C326.439 139.02 327.125 137.477 327.125 135.714C327.125 134.086 326.468 132.573 325.795 131.417C325.101 130.222 324.244 129.162 323.549 128.384C322.19 126.862 320.281 126.206 318.476 126.206H249.295C248.914 126.206 248.74 126.136 248.675 126.098C247.612 125.472 246.084 124.183 246.084 121.909C246.084 119.344 247.776 118.457 248.621 118.143C248.609 118.147 248.62 118.142 248.666 118.135C248.713 118.129 248.787 118.123 248.897 118.123H337.447C338.487 118.123 339.77 117.912 340.91 117.101C342.261 116.141 344.766 113.874 344.766 110.149C344.766 106.63 342.704 104.087 341.407 102.817C340.121 101.557 338.454 101.152 337.033 101.152H336.792V101.148H257.81C257.212 101.148 256.878 100.977 256.723 100.824C255.766 99.8881 254.777 98.4917 254.777 96.8513C254.777 95.4236 255.735 94.3832 256.655 93.7291C256.733 93.6737 256.943 93.5767 257.396 93.5767H345.945C346.459 93.5767 347.143 93.5282 347.859 93.2619C349.439 92.6746 353.458 90.5825 353.458 85.0913C353.458 80.3236 350.151 77.7946 348.553 76.853C347.525 76.2471 346.434 76.0945 345.547 76.0945H276.366C275.655 76.0945 275.115 75.8396 274.798 75.485C274.219 74.8372 273.586 74.0398 273.11 73.2206C272.611 72.3631 272.417 71.7063 272.417 71.2861C272.417 70.742 272.637 70.0811 273.116 69.3303C273.587 68.5921 274.21 67.9191 274.769 67.3982C275.012 67.1715 275.431 66.989 276.039 66.989H331.423C331.594 66.989 333.593 66.9757 335.616 65.7002C337.822 64.3097 339.653 61.6745 339.653 57.2253C339.653 53.9419 338.302 51.6542 336.657 50.1707C335.085 48.7529 333.332 48.141 332.477 47.9041C331.914 47.7483 331.391 47.7172 330.982 47.7172H241.667C239.233 47.7172 237.988 44.7972 239.674 43.0407L261.757 20.0299C261.785 20.0006 261.83 19.9533 261.884 19.8928C262.184 19.5544 263.881 17.5803 264.753 14.8378C265.669 11.9566 265.68 8.09675 262.268 4.68973C257.834 0.26266 252.906 0.8454 250.971 1.32433C250.124 1.53382 249.448 1.94581 248.947 2.32038L152.677 74.2664C152.2 74.6234 151.619 74.8163 151.023 74.8163H1V79.5159H1.5H151.023C152.633 79.5159 154.201 78.995 155.491 78.031L251.76 6.08489C251.975 5.92441 252.079 5.89157 252.1 5.88635Z" fill="url(#paint0_linear_386_927)" stroke="url(#paint1_linear_386_927)"/>
<defs>
<linearGradient id="paint0_linear_386_927" x1="-380" y1="163.288" x2="-373.201" y2="-21.7772" gradientUnits="userSpaceOnUse">
<stop offset="0.435245" stop-color="#55097B"/>
<stop offset="1" stop-color="#F00045"/>
</linearGradient>
<linearGradient id="paint1_linear_386_927" x1="-380" y1="163.288" x2="-373.201" y2="-21.7772" gradientUnits="userSpaceOnUse">
<stop offset="0.435245" stop-color="#55097B"/>
<stop offset="1" stop-color="#F00045"/>
</linearGradient>
</defs>
</svg>
