<svg width="31" height="45" viewBox="0 0 31 45" fill="none" xmlns="http://www.w3.org/2000/svg">
<path d="M23.0778 35.7327H19.6919C19.5092 35.7327 19.334 35.6601 19.2048 35.5309C19.0756 35.4017 19.003 35.2265 19.003 35.0438C19.003 34.8611 19.0756 34.6859 19.2048 34.5567C19.334 34.4275 19.5092 34.3549 19.6919 34.3549H23.0778C24.8135 34.3549 26.4781 33.6654 27.7054 32.4381C28.9327 31.2107 29.6222 29.5461 29.6222 27.8104V7.92222C29.6222 6.18653 28.9327 4.52192 27.7054 3.2946C26.4781 2.06728 24.8135 1.37778 23.0778 1.37778H7.92222C6.18653 1.37778 4.52192 2.06728 3.2946 3.2946C2.06728 4.52192 1.37778 6.18653 1.37778 7.92222V27.8104C1.37778 29.5461 2.06728 31.2107 3.2946 32.4381C4.52192 33.6654 6.18653 34.3549 7.92222 34.3549H11.3667C11.5494 34.3549 11.7246 34.4275 11.8538 34.5567C11.983 34.6859 12.0556 34.8611 12.0556 35.0438C12.0556 35.2265 11.983 35.4017 11.8538 35.5309C11.7246 35.6601 11.5494 35.7327 11.3667 35.7327H7.92222C5.82112 35.7327 3.80607 34.898 2.32037 33.4123C0.83466 31.9266 0 29.9115 0 27.8104V7.92222C0 5.82112 0.83466 3.80607 2.32037 2.32037C3.80607 0.83466 5.82112 0 7.92222 0L23.0778 0C25.1789 0 27.1939 0.83466 28.6796 2.32037C30.1653 3.80607 31 5.82112 31 7.92222V27.8104C31 29.9115 30.1653 31.9266 28.6796 33.4123C27.1939 34.898 25.1789 35.7327 23.0778 35.7327Z" fill="black"/>
<path d="M23.0778 35.7327H19.6919C19.5092 35.7327 19.334 35.6601 19.2048 35.5309C19.0756 35.4017 19.003 35.2265 19.003 35.0438C19.003 34.8611 19.0756 34.6859 19.2048 34.5567C19.334 34.4275 19.5092 34.3549 19.6919 34.3549H23.0778C24.8135 34.3549 26.4781 33.6654 27.7054 32.4381C28.9327 31.2107 29.6222 29.5461 29.6222 27.8104V7.92222C29.6222 6.18653 28.9327 4.52192 27.7054 3.2946C26.4781 2.06728 24.8135 1.37778 23.0778 1.37778H7.92222C6.18653 1.37778 4.52192 2.06728 3.2946 3.2946C2.06728 4.52192 1.37778 6.18653 1.37778 7.92222V27.8104C1.37778 29.5461 2.06728 31.2107 3.2946 32.4381C4.52192 33.6654 6.18653 34.3549 7.92222 34.3549H11.3667C11.5494 34.3549 11.7246 34.4275 11.8538 34.5567C11.983 34.6859 12.0556 34.8611 12.0556 35.0438C12.0556 35.2265 11.983 35.4017 11.8538 35.5309C11.7246 35.6601 11.5494 35.7327 11.3667 35.7327H7.92222C5.82112 35.7327 3.80607 34.898 2.32037 33.4123C0.83466 31.9266 0 29.9115 0 27.8104V7.92222C0 5.82112 0.83466 3.80607 2.32037 2.32037C3.80607 0.83466 5.82112 0 7.92222 0L23.0778 0C25.1789 0 27.1939 0.83466 28.6796 2.32037C30.1653 3.80607 31 5.82112 31 7.92222V27.8104C31 29.9115 30.1653 31.9266 28.6796 33.4123C27.1939 34.898 25.1789 35.7327 23.0778 35.7327Z" fill="url(#paint0_linear_3_1542)"/>
<path d="M24.3771 23.8804H6.62444C6.44173 23.8804 6.26651 23.8078 6.13732 23.6786C6.00813 23.5494 5.93555 23.3742 5.93555 23.1915V6.65813C5.93555 6.47542 6.00813 6.3002 6.13732 6.17101C6.26651 6.04182 6.44173 5.96924 6.62444 5.96924H24.3771C24.5598 5.96924 24.735 6.04182 24.8642 6.17101C24.9934 6.3002 25.066 6.47542 25.066 6.65813V23.1915C25.066 23.3742 24.9934 23.5494 24.8642 23.6786C24.735 23.8078 24.5598 23.8804 24.3771 23.8804ZM7.30988 22.5026H23.6882V7.34702H7.31332L7.30988 22.5026Z" fill="black"/>
<path d="M24.3771 23.8804H6.62444C6.44173 23.8804 6.26651 23.8078 6.13732 23.6786C6.00813 23.5494 5.93555 23.3742 5.93555 23.1915V6.65813C5.93555 6.47542 6.00813 6.3002 6.13732 6.17101C6.26651 6.04182 6.44173 5.96924 6.62444 5.96924H24.3771C24.5598 5.96924 24.735 6.04182 24.8642 6.17101C24.9934 6.3002 25.066 6.47542 25.066 6.65813V23.1915C25.066 23.3742 24.9934 23.5494 24.8642 23.6786C24.735 23.8078 24.5598 23.8804 24.3771 23.8804ZM7.30988 22.5026H23.6882V7.34702H7.31332L7.30988 22.5026Z" fill="url(#paint1_linear_3_1542)"/>
<path d="M19.4003 44.0888H11.5951C11.4124 44.0888 11.2372 44.0162 11.108 43.887C10.9788 43.7578 10.9062 43.5826 10.9062 43.3999V29.7944C10.9062 29.6117 10.9788 29.4364 11.108 29.3072C11.2372 29.178 11.4124 29.1055 11.5951 29.1055H19.4003C19.583 29.1055 19.7582 29.178 19.8874 29.3072C20.0166 29.4364 20.0891 29.6117 20.0891 29.7944V43.3999C20.0891 43.5826 20.0166 43.7578 19.8874 43.887C19.7582 44.0162 19.583 44.0888 19.4003 44.0888ZM12.2806 42.711H18.7114V30.4832H12.284L12.2806 42.711Z" fill="black"/>
<path d="M19.4003 44.0888H11.5951C11.4124 44.0888 11.2372 44.0162 11.108 43.887C10.9788 43.7578 10.9062 43.5826 10.9062 43.3999V29.7944C10.9062 29.6117 10.9788 29.4364 11.108 29.3072C11.2372 29.178 11.4124 29.1055 11.5951 29.1055H19.4003C19.583 29.1055 19.7582 29.178 19.8874 29.3072C20.0166 29.4364 20.0891 29.6117 20.0891 29.7944V43.3999C20.0891 43.5826 20.0166 43.7578 19.8874 43.887C19.7582 44.0162 19.583 44.0888 19.4003 44.0888ZM12.2806 42.711H18.7114V30.4832H12.284L12.2806 42.711Z" fill="url(#paint2_linear_3_1542)"/>
<path d="M15.4997 41.016C15.1305 41.016 14.7695 40.9065 14.4625 40.7014C14.1555 40.4962 13.9162 40.2047 13.7749 39.8635C13.6336 39.5224 13.5967 39.147 13.6687 38.7849C13.7407 38.4228 13.9185 38.0901 14.1796 37.829C14.4407 37.5679 14.7733 37.3901 15.1355 37.3181C15.4976 37.2461 15.873 37.283 16.2141 37.4243C16.5553 37.5656 16.8468 37.8049 17.052 38.1119C17.2571 38.4189 17.3666 38.7799 17.3666 39.1491C17.3666 39.6442 17.1699 40.1191 16.8198 40.4692C16.4697 40.8193 15.9948 41.016 15.4997 41.016ZM15.4997 38.6634C15.403 38.6634 15.3084 38.6921 15.228 38.7459C15.1475 38.7996 15.0848 38.876 15.0478 38.9654C15.0108 39.0548 15.0011 39.1531 15.02 39.248C15.0389 39.3429 15.0854 39.43 15.1538 39.4984C15.2223 39.5668 15.3094 39.6134 15.4043 39.6323C15.4992 39.6511 15.5975 39.6415 15.6869 39.6044C15.7763 39.5674 15.8526 39.5047 15.9064 39.4243C15.9601 39.3439 15.9888 39.2493 15.9888 39.1526C15.9888 39.0228 15.9373 38.8984 15.8456 38.8067C15.7538 38.715 15.6294 38.6634 15.4997 38.6634Z" fill="black"/>
<path d="M15.4997 41.016C15.1305 41.016 14.7695 40.9065 14.4625 40.7014C14.1555 40.4962 13.9162 40.2047 13.7749 39.8635C13.6336 39.5224 13.5967 39.147 13.6687 38.7849C13.7407 38.4228 13.9185 38.0901 14.1796 37.829C14.4407 37.5679 14.7733 37.3901 15.1355 37.3181C15.4976 37.2461 15.873 37.283 16.2141 37.4243C16.5553 37.5656 16.8468 37.8049 17.052 38.1119C17.2571 38.4189 17.3666 38.7799 17.3666 39.1491C17.3666 39.6442 17.1699 40.1191 16.8198 40.4692C16.4697 40.8193 15.9948 41.016 15.4997 41.016ZM15.4997 38.6634C15.403 38.6634 15.3084 38.6921 15.228 38.7459C15.1475 38.7996 15.0848 38.876 15.0478 38.9654C15.0108 39.0548 15.0011 39.1531 15.02 39.248C15.0389 39.3429 15.0854 39.43 15.1538 39.4984C15.2223 39.5668 15.3094 39.6134 15.4043 39.6323C15.4992 39.6511 15.5975 39.6415 15.6869 39.6044C15.7763 39.5674 15.8526 39.5047 15.9064 39.4243C15.9601 39.3439 15.9888 39.2493 15.9888 39.1526C15.9888 39.0228 15.9373 38.8984 15.8456 38.8067C15.7538 38.715 15.6294 38.6634 15.4997 38.6634Z" fill="url(#paint3_linear_3_1542)"/>
<path d="M21.2599 30.4832H9.73479C9.55208 30.4832 9.37686 30.4107 9.24767 30.2815C9.11848 30.1523 9.0459 29.9771 9.0459 29.7944C9.0459 29.6117 9.11848 29.4364 9.24767 29.3072C9.37686 29.178 9.55208 29.1055 9.73479 29.1055H21.2599C21.4426 29.1055 21.6178 29.178 21.747 29.3072C21.8762 29.4364 21.9488 29.6117 21.9488 29.7944C21.9488 29.9771 21.8762 30.1523 21.747 30.2815C21.6178 30.4107 21.4426 30.4832 21.2599 30.4832Z" fill="black"/>
<path d="M21.2599 30.4832H9.73479C9.55208 30.4832 9.37686 30.4107 9.24767 30.2815C9.11848 30.1523 9.0459 29.9771 9.0459 29.7944C9.0459 29.6117 9.11848 29.4364 9.24767 29.3072C9.37686 29.178 9.55208 29.1055 9.73479 29.1055H21.2599C21.4426 29.1055 21.6178 29.178 21.747 29.3072C21.8762 29.4364 21.9488 29.6117 21.9488 29.7944C21.9488 29.9771 21.8762 30.1523 21.747 30.2815C21.6178 30.4107 21.4426 30.4832 21.2599 30.4832Z" fill="url(#paint4_linear_3_1542)"/>
<path d="M15.4998 21.0905C14.5126 21.0895 13.566 20.697 12.8679 19.9989C12.1699 19.3008 11.7773 18.3543 11.7764 17.367C11.7764 14.0328 14.804 9.61702 14.9315 9.44479C14.9932 9.34987 15.0773 9.27162 15.1764 9.21695C15.2755 9.16228 15.3866 9.13288 15.4998 9.13135C15.6088 9.13107 15.7163 9.15576 15.8143 9.20353C15.9122 9.25129 15.9979 9.32087 16.0647 9.40691C16.1956 9.57913 19.237 13.6677 19.237 17.367C19.2366 17.857 19.1395 18.3421 18.9514 18.7946C18.7632 19.247 18.4877 19.6579 18.1406 20.0038C17.7935 20.3496 17.3815 20.6236 16.9284 20.8101C16.4753 20.9965 15.9898 21.0918 15.4998 21.0905ZM15.517 11.074C14.6731 12.4518 13.1541 15.259 13.1541 17.3705C13.1541 17.9926 13.4013 18.5892 13.8412 19.0291C14.2811 19.469 14.8777 19.7161 15.4998 19.7161C16.1219 19.7161 16.7186 19.469 17.1584 19.0291C17.5983 18.5892 17.8455 17.9926 17.8455 17.3705C17.8455 15.0351 16.3609 12.4001 15.517 11.0706V11.074Z" fill="black"/>
<path d="M15.4998 21.0905C14.5126 21.0895 13.566 20.697 12.8679 19.9989C12.1699 19.3008 11.7773 18.3543 11.7764 17.367C11.7764 14.0328 14.804 9.61702 14.9315 9.44479C14.9932 9.34987 15.0773 9.27162 15.1764 9.21695C15.2755 9.16228 15.3866 9.13288 15.4998 9.13135C15.6088 9.13107 15.7163 9.15576 15.8143 9.20353C15.9122 9.25129 15.9979 9.32087 16.0647 9.40691C16.1956 9.57913 19.237 13.6677 19.237 17.367C19.2366 17.857 19.1395 18.3421 18.9514 18.7946C18.7632 19.247 18.4877 19.6579 18.1406 20.0038C17.7935 20.3496 17.3815 20.6236 16.9284 20.8101C16.4753 20.9965 15.9898 21.0918 15.4998 21.0905ZM15.517 11.074C14.6731 12.4518 13.1541 15.259 13.1541 17.3705C13.1541 17.9926 13.4013 18.5892 13.8412 19.0291C14.2811 19.469 14.8777 19.7161 15.4998 19.7161C16.1219 19.7161 16.7186 19.469 17.1584 19.0291C17.5983 18.5892 17.8455 17.9926 17.8455 17.3705C17.8455 15.0351 16.3609 12.4001 15.517 11.0706V11.074Z" fill="url(#paint5_linear_3_1542)"/>
<defs>
<linearGradient id="paint0_linear_3_1542" x1="23.4163" y1="26.2412" x2="-4.3853" y2="14.6998" gradientUnits="userSpaceOnUse">
<stop stop-color="#55097B"/>
<stop offset="1" stop-color="#F00045"/>
</linearGradient>
<linearGradient id="paint1_linear_3_1542" x1="20.386" y1="19.1227" x2="4.43829" y2="10.9721" gradientUnits="userSpaceOnUse">
<stop stop-color="#55097B"/>
<stop offset="1" stop-color="#F00045"/>
</linearGradient>
<linearGradient id="paint2_linear_3_1542" x1="17.8427" y1="40.1089" x2="8.95256" y2="37.5017" gradientUnits="userSpaceOnUse">
<stop stop-color="#55097B"/>
<stop offset="1" stop-color="#F00045"/>
</linearGradient>
<linearGradient id="paint3_linear_3_1542" x1="16.4532" y1="40.0242" x2="13.2589" y2="38.4958" gradientUnits="userSpaceOnUse">
<stop stop-color="#55097B"/>
<stop offset="1" stop-color="#F00045"/>
</linearGradient>
<linearGradient id="paint4_linear_3_1542" x1="18.7923" y1="30.1173" x2="18.1488" y2="27.2336" gradientUnits="userSpaceOnUse">
<stop stop-color="#55097B"/>
<stop offset="1" stop-color="#F00045"/>
</linearGradient>
<linearGradient id="paint5_linear_3_1542" x1="17.4119" y1="17.9138" x2="10.2097" y2="15.7639" gradientUnits="userSpaceOnUse">
<stop stop-color="#55097B"/>
<stop offset="1" stop-color="#F00045"/>
</linearGradient>
</defs>
</svg>
