<svg width="91" height="91" viewBox="0 0 91 91" fill="none" xmlns="http://www.w3.org/2000/svg">
<path d="M19.5312 57.8125H10.1562C9.29297 57.8125 8.59375 58.5118 8.59375 59.375V75C8.59375 75.4141 8.75781 75.8125 9.05078 76.1055C9.34375 76.3985 9.74219 76.5626 10.1563 76.5626H19.5313C19.9453 76.5626 20.3438 76.3985 20.6368 76.1055C20.9298 75.8126 21.0938 75.4141 21.0938 75V59.375C21.0938 58.961 20.9297 58.5625 20.6368 58.2695C20.3438 57.9765 19.9453 57.8125 19.5312 57.8125ZM17.9688 73.4375H11.7188V60.9375H17.9688V73.4375Z" fill="black"/>
<path d="M19.5312 57.8125H10.1562C9.29297 57.8125 8.59375 58.5118 8.59375 59.375V75C8.59375 75.4141 8.75781 75.8125 9.05078 76.1055C9.34375 76.3985 9.74219 76.5626 10.1563 76.5626H19.5313C19.9453 76.5626 20.3438 76.3985 20.6368 76.1055C20.9298 75.8126 21.0938 75.4141 21.0938 75V59.375C21.0938 58.961 20.9297 58.5625 20.6368 58.2695C20.3438 57.9765 19.9453 57.8125 19.5312 57.8125ZM17.9688 73.4375H11.7188V60.9375H17.9688V73.4375Z" fill="url(#paint0_linear_196_2014)"/>
<path d="M69.5312 59.3741V74.9991C69.5312 75.4131 69.6953 75.8116 69.9883 76.1046C70.2813 76.3976 70.6797 76.5616 71.0938 76.5616H80.4688C80.8828 76.5616 81.2813 76.3975 81.5743 76.1046C81.8673 75.8116 82.0313 75.4131 82.0313 74.9991V59.3741C82.0313 58.96 81.8672 58.5616 81.5743 58.2686C81.2813 57.9756 80.8829 57.8115 80.4688 57.8115H71.0938C70.2305 57.8115 69.5312 58.5108 69.5312 59.3741ZM72.6562 60.9366H78.9062V73.4366H72.6562V60.9366Z" fill="black"/>
<path d="M69.5312 59.3741V74.9991C69.5312 75.4131 69.6953 75.8116 69.9883 76.1046C70.2813 76.3976 70.6797 76.5616 71.0938 76.5616H80.4688C80.8828 76.5616 81.2813 76.3975 81.5743 76.1046C81.8673 75.8116 82.0313 75.4131 82.0313 74.9991V59.3741C82.0313 58.96 81.8672 58.5616 81.5743 58.2686C81.2813 57.9756 80.8829 57.8115 80.4688 57.8115H71.0938C70.2305 57.8115 69.5312 58.5108 69.5312 59.3741ZM72.6562 60.9366H78.9062V73.4366H72.6562V60.9366Z" fill="url(#paint1_linear_196_2014)"/>
<path d="M1.64521 83.8788L0.0827059 88.5663C-0.0774541 89.0429 0.000675321 89.5663 0.297546 89.9765C0.590516 90.3828 1.05927 90.625 1.56315 90.625H89.0631C89.5671 90.625 90.0358 90.3828 90.3288 89.9765C90.6256 89.5664 90.7037 89.0429 90.5436 88.5663L88.9811 83.8788C88.7701 83.2421 88.1725 82.8124 87.5006 82.8124V34.3744H89.0631C89.5826 34.3744 90.067 34.1166 90.3561 33.6869C90.6491 33.2572 90.7076 32.7143 90.5123 32.2299L87.3873 24.4174C87.153 23.8276 86.5788 23.437 85.9381 23.437H67.1881V9.37496H68.7506C69.4694 9.37496 70.0944 8.88668 70.2662 8.19136L71.8287 1.94136C71.9459 1.47652 71.8405 0.98042 71.5436 0.60156C71.2467 0.22265 70.7936 0 70.3131 0H20.3131C19.8326 0 19.3795 0.22266 19.0826 0.60156C18.7857 0.98047 18.6802 1.47656 18.7974 1.94136L20.3599 8.19136C20.5318 8.88667 21.1568 9.37496 21.8755 9.37496H23.438V23.437H4.68802C4.0474 23.437 3.47322 23.8276 3.23882 24.4174L0.113816 32.2299C-0.0814938 32.7143 -0.0229038 33.2572 0.270066 33.6869C0.559126 34.1166 1.04351 34.3744 1.56307 34.3744H3.12557V82.8124C2.45369 82.8124 1.85621 83.2421 1.64521 83.8788ZM3.73111 87.4999L4.25064 85.9374H86.3756L86.8952 87.4999H3.73111ZM24.2191 40.6249H66.4071C67.2704 40.6249 67.9696 41.3242 67.9696 42.1874C67.9696 43.0507 67.2704 43.7499 66.4071 43.7499H24.2191C23.3558 43.7499 22.6566 43.0507 22.6566 42.1874C22.6566 41.3242 23.3558 40.6249 24.2191 40.6249ZM26.5629 46.8749H64.0629V82.8129H60.9379V60.9379C61.352 60.9379 61.7504 60.7739 62.0434 60.4809C62.3364 60.1879 62.5004 59.7895 62.5004 59.3754V54.6879C62.5004 54.2738 62.3364 53.8754 62.0434 53.5824C61.7504 53.2894 61.352 53.1254 60.9379 53.1254H29.6879C28.8246 53.1254 28.1254 53.8246 28.1254 54.6879V59.3754C28.1254 59.7894 28.2895 60.1879 28.5824 60.4809C28.8754 60.7739 29.2738 60.9379 29.6879 60.9379V82.8129H26.5629L26.5629 46.8749ZM59.3749 57.8129H31.2499V56.2504H59.3749V57.8129ZM32.8129 60.9379H43.7509V82.8129H32.8129V60.9379ZM46.8749 60.9379H57.8129V82.8129H46.8749V60.9379ZM84.3749 82.8129H67.1869V46.7969C69.4408 46.4219 71.0931 44.4727 71.0931 42.1875C71.0931 39.9023 69.4408 37.9531 67.1869 37.5781V34.375H84.3749V82.8129ZM84.8788 26.5629L86.7538 31.2504H67.1878V26.5629H84.8788ZM22.3128 3.12493H68.3128L67.5316 6.24993H23.0936L22.3128 3.12493ZM64.0628 9.37493V37.4999H26.5628V9.37493H64.0628ZM5.74682 26.5629H23.4378V31.2504H3.87182L5.74682 26.5629ZM6.25073 34.3754H23.4387V37.5785C21.1848 37.9535 19.5325 39.9027 19.5325 42.1879C19.5325 44.4731 21.1848 46.4223 23.4387 46.7973V82.8133H6.25073V34.3754Z" fill="black"/>
<path d="M1.64521 83.8788L0.0827059 88.5663C-0.0774541 89.0429 0.000675321 89.5663 0.297546 89.9765C0.590516 90.3828 1.05927 90.625 1.56315 90.625H89.0631C89.5671 90.625 90.0358 90.3828 90.3288 89.9765C90.6256 89.5664 90.7037 89.0429 90.5436 88.5663L88.9811 83.8788C88.7701 83.2421 88.1725 82.8124 87.5006 82.8124V34.3744H89.0631C89.5826 34.3744 90.067 34.1166 90.3561 33.6869C90.6491 33.2572 90.7076 32.7143 90.5123 32.2299L87.3873 24.4174C87.153 23.8276 86.5788 23.437 85.9381 23.437H67.1881V9.37496H68.7506C69.4694 9.37496 70.0944 8.88668 70.2662 8.19136L71.8287 1.94136C71.9459 1.47652 71.8405 0.98042 71.5436 0.60156C71.2467 0.22265 70.7936 0 70.3131 0H20.3131C19.8326 0 19.3795 0.22266 19.0826 0.60156C18.7857 0.98047 18.6802 1.47656 18.7974 1.94136L20.3599 8.19136C20.5318 8.88667 21.1568 9.37496 21.8755 9.37496H23.438V23.437H4.68802C4.0474 23.437 3.47322 23.8276 3.23882 24.4174L0.113816 32.2299C-0.0814938 32.7143 -0.0229038 33.2572 0.270066 33.6869C0.559126 34.1166 1.04351 34.3744 1.56307 34.3744H3.12557V82.8124C2.45369 82.8124 1.85621 83.2421 1.64521 83.8788ZM3.73111 87.4999L4.25064 85.9374H86.3756L86.8952 87.4999H3.73111ZM24.2191 40.6249H66.4071C67.2704 40.6249 67.9696 41.3242 67.9696 42.1874C67.9696 43.0507 67.2704 43.7499 66.4071 43.7499H24.2191C23.3558 43.7499 22.6566 43.0507 22.6566 42.1874C22.6566 41.3242 23.3558 40.6249 24.2191 40.6249ZM26.5629 46.8749H64.0629V82.8129H60.9379V60.9379C61.352 60.9379 61.7504 60.7739 62.0434 60.4809C62.3364 60.1879 62.5004 59.7895 62.5004 59.3754V54.6879C62.5004 54.2738 62.3364 53.8754 62.0434 53.5824C61.7504 53.2894 61.352 53.1254 60.9379 53.1254H29.6879C28.8246 53.1254 28.1254 53.8246 28.1254 54.6879V59.3754C28.1254 59.7894 28.2895 60.1879 28.5824 60.4809C28.8754 60.7739 29.2738 60.9379 29.6879 60.9379V82.8129H26.5629L26.5629 46.8749ZM59.3749 57.8129H31.2499V56.2504H59.3749V57.8129ZM32.8129 60.9379H43.7509V82.8129H32.8129V60.9379ZM46.8749 60.9379H57.8129V82.8129H46.8749V60.9379ZM84.3749 82.8129H67.1869V46.7969C69.4408 46.4219 71.0931 44.4727 71.0931 42.1875C71.0931 39.9023 69.4408 37.9531 67.1869 37.5781V34.375H84.3749V82.8129ZM84.8788 26.5629L86.7538 31.2504H67.1878V26.5629H84.8788ZM22.3128 3.12493H68.3128L67.5316 6.24993H23.0936L22.3128 3.12493ZM64.0628 9.37493V37.4999H26.5628V9.37493H64.0628ZM5.74682 26.5629H23.4378V31.2504H3.87182L5.74682 26.5629ZM6.25073 34.3754H23.4387V37.5785C21.1848 37.9535 19.5325 39.9027 19.5325 42.1879C19.5325 44.4731 21.1848 46.4223 23.4387 46.7973V82.8133H6.25073V34.3754Z" fill="url(#paint2_linear_196_2014)"/>
<path d="M37.5 28.1241H40.625V31.2491C40.625 31.6632 40.789 32.0616 41.082 32.3546C41.375 32.6476 41.7734 32.8116 42.1875 32.8116H48.4375C48.8516 32.8116 49.25 32.6476 49.543 32.3546C49.836 32.0616 50 31.6632 50 31.2491V28.1241H53.125C53.5391 28.1241 53.9375 27.9601 54.2305 27.6671C54.5235 27.3741 54.6876 26.9757 54.6876 26.5616V20.3116C54.6876 19.8975 54.5235 19.4991 54.2305 19.2061C53.9376 18.9131 53.5391 18.7491 53.125 18.7491H50V15.6241C50 15.21 49.836 14.8116 49.543 14.5186C49.25 14.2256 48.8516 14.0615 48.4375 14.0615H42.1875C41.3242 14.0615 40.625 14.7607 40.625 15.624V18.749H37.5C36.6367 18.749 35.9375 19.4482 35.9375 20.3115V26.5615C35.9375 26.9756 36.1016 27.374 36.3945 27.667C36.6875 27.96 37.0859 28.1241 37.5 28.1241ZM39.0625 21.8741H42.1875C42.6015 21.8741 43 21.7101 43.293 21.4171C43.586 21.1241 43.75 20.7257 43.75 20.3116V17.1866H46.875V20.3116C46.875 20.7256 47.0391 21.1241 47.332 21.4171C47.625 21.7101 48.0234 21.8741 48.4375 21.8741H51.5625V24.9991H48.4375C47.5743 24.9991 46.875 25.6983 46.875 26.5616V29.6866H43.75V26.5616C43.75 26.1476 43.586 25.7491 43.293 25.4561C43 25.1631 42.6016 24.9991 42.1875 24.9991H39.0625L39.0625 21.8741Z" fill="black"/>
<path d="M37.5 28.1241H40.625V31.2491C40.625 31.6632 40.789 32.0616 41.082 32.3546C41.375 32.6476 41.7734 32.8116 42.1875 32.8116H48.4375C48.8516 32.8116 49.25 32.6476 49.543 32.3546C49.836 32.0616 50 31.6632 50 31.2491V28.1241H53.125C53.5391 28.1241 53.9375 27.9601 54.2305 27.6671C54.5235 27.3741 54.6876 26.9757 54.6876 26.5616V20.3116C54.6876 19.8975 54.5235 19.4991 54.2305 19.2061C53.9376 18.9131 53.5391 18.7491 53.125 18.7491H50V15.6241C50 15.21 49.836 14.8116 49.543 14.5186C49.25 14.2256 48.8516 14.0615 48.4375 14.0615H42.1875C41.3242 14.0615 40.625 14.7607 40.625 15.624V18.749H37.5C36.6367 18.749 35.9375 19.4482 35.9375 20.3115V26.5615C35.9375 26.9756 36.1016 27.374 36.3945 27.667C36.6875 27.96 37.0859 28.1241 37.5 28.1241ZM39.0625 21.8741H42.1875C42.6015 21.8741 43 21.7101 43.293 21.4171C43.586 21.1241 43.75 20.7257 43.75 20.3116V17.1866H46.875V20.3116C46.875 20.7256 47.0391 21.1241 47.332 21.4171C47.625 21.7101 48.0234 21.8741 48.4375 21.8741H51.5625V24.9991H48.4375C47.5743 24.9991 46.875 25.6983 46.875 26.5616V29.6866H43.75V26.5616C43.75 26.1476 43.586 25.7491 43.293 25.4561C43 25.1631 42.6016 24.9991 42.1875 24.9991H39.0625L39.0625 21.8741Z" fill="url(#paint3_linear_196_2014)"/>
<defs>
<linearGradient id="paint0_linear_196_2014" x1="18.0359" y1="71.5821" x2="6.10743" y2="67.7768" gradientUnits="userSpaceOnUse">
<stop stop-color="#55097B"/>
<stop offset="1" stop-color="#F00045"/>
</linearGradient>
<linearGradient id="paint1_linear_196_2014" x1="78.9734" y1="71.5811" x2="67.0449" y2="67.7759" gradientUnits="userSpaceOnUse">
<stop stop-color="#55097B"/>
<stop offset="1" stop-color="#F00045"/>
</linearGradient>
<linearGradient id="paint2_linear_196_2014" x1="68.4558" y1="66.5527" x2="-9.0742" y2="29.4535" gradientUnits="userSpaceOnUse">
<stop stop-color="#55097B"/>
<stop offset="1" stop-color="#F00045"/>
</linearGradient>
<linearGradient id="paint3_linear_196_2014" x1="50.1006" y1="27.8311" x2="34.06" y2="20.1556" gradientUnits="userSpaceOnUse">
<stop stop-color="#55097B"/>
<stop offset="1" stop-color="#F00045"/>
</linearGradient>
</defs>
</svg>
