<svg width="44" height="44" viewBox="0 0 44 44" fill="none" xmlns="http://www.w3.org/2000/svg">
<path d="M22 0C9.86846 0 0 9.86846 0 22C0 34.1315 9.86846 44 22 44C34.1315 44 44 34.1315 44 22C44 9.86846 34.1315 0 22 0ZM22 42.7539C10.5557 42.7539 1.24608 33.4443 1.24608 22C1.24608 10.5557 10.5557 1.24608 22 1.24608C33.4443 1.24608 42.7539 10.5557 42.7539 22C42.7539 33.4443 33.4443 42.7539 22 42.7539ZM8.81246 10.7501C8.55015 10.4878 8.11647 10.511 7.88383 10.803C5.33058 14.0141 3.98307 17.8874 3.98307 21.9998C3.98307 31.9338 12.0661 40.0168 22.0001 40.0168C26.1145 40.0168 29.9856 38.6672 33.1969 36.116C33.4888 35.8834 33.5121 35.4497 33.2498 35.1874C30.5146 32.4522 12.1552 14.0929 8.81287 10.7505L8.81246 10.7501ZM19.4315 23.1334H15.8734V20.8679H17.1638L19.4294 23.1334H19.4315ZM21.9975 38.7704C12.7512 38.7704 5.22655 31.2479 5.22655 21.9995C5.22655 18.4054 6.33291 15.0104 8.43137 12.1353L15.9154 19.6194C6.64376 19.6215 9.84208 19.6215 9.15054 19.6215C8.80573 19.6215 8.52652 19.9007 8.52652 20.2455V23.755C8.52652 24.0998 8.80575 24.379 9.15054 24.379C10.3288 24.379 4.87959 24.379 20.6772 24.3811L31.861 35.5649C28.9862 37.6655 25.5911 38.7698 21.9969 38.7698L21.9975 38.7704ZM14.6255 20.8676V23.1311H9.77704V20.8676H14.6255ZM21.9975 3.98247C17.883 3.98247 14.0119 5.3321 10.8006 7.88323C10.5087 8.11592 10.4854 8.54959 10.7477 8.81186C15.8839 13.948 30.4375 28.5017 35.1846 33.2488C35.447 33.5111 35.8806 33.4878 36.1133 33.1959C38.6665 29.9847 40.014 26.1115 40.014 21.999C40.014 12.0651 31.931 3.98206 21.997 3.98206L21.9975 3.98247ZM31.2247 21.8343C31.1951 21.9422 31.1951 22.0564 31.2247 22.1643L31.4913 23.131H26.8311L24.5655 20.8655H31.4912L31.2247 21.8322L31.2247 21.8343ZM35.5613 31.8636L28.0772 24.3795C28.771 24.3795 25.5684 24.3795 34.8421 24.3774C35.1869 24.3774 35.4661 24.0982 35.4661 23.7534V20.2439C35.4661 19.8991 35.1869 19.6199 34.8421 19.6199C32.8431 19.6199 24.1532 19.6178 23.3155 19.6178L12.1316 8.43397C15.0064 6.33339 18.4015 5.22914 21.9957 5.22914C31.2419 5.22914 38.7666 12.7517 38.7666 22C38.7666 25.5941 37.6603 28.9891 35.5618 31.8642L35.5613 31.8636ZM32.7838 23.1313L32.4728 21.9996L32.7838 20.8679H34.2201V23.1313L32.7838 23.1313ZM33.484 14.9107C33.1117 15.283 33.1117 15.888 33.484 16.2603L34.4634 17.2398C34.7067 17.483 34.7067 17.8786 34.4634 18.1219C34.2201 18.3652 33.8246 18.3652 33.5813 18.1219L32.6019 17.1425C31.743 16.2836 31.743 14.8874 32.6019 14.0286C32.9742 13.6563 32.9742 13.0513 32.6019 12.679L31.5188 11.5959C31.2755 11.3526 31.2755 10.9571 31.5188 10.7138C31.7621 10.4705 32.1576 10.4705 32.4009 10.7138L33.484 11.7969C34.3428 12.6557 34.3428 14.0519 33.484 14.9107ZM31.4363 17.2419C31.6796 17.4852 31.6796 17.8807 31.4363 18.124C31.193 18.3673 30.7975 18.3673 30.5542 18.124L29.5748 17.1446C29.158 16.7278 28.9296 16.1757 28.9296 15.5876C28.9296 14.9996 29.158 14.4474 29.5748 14.0307C29.9471 13.6584 29.9471 13.0534 29.5748 12.6811L28.4917 11.598C28.2484 11.3548 28.2484 10.9592 28.4917 10.7159C28.735 10.4726 29.1305 10.4726 29.3738 10.7159L30.4569 11.799C31.3157 12.6578 31.3157 14.054 30.4569 14.9128C30.2771 15.0926 30.1776 15.3338 30.1776 15.5876C30.1776 15.8436 30.2771 16.0826 30.4569 16.2625L31.4363 17.2419Z" fill="black"/>
<path d="M22 0C9.86846 0 0 9.86846 0 22C0 34.1315 9.86846 44 22 44C34.1315 44 44 34.1315 44 22C44 9.86846 34.1315 0 22 0ZM22 42.7539C10.5557 42.7539 1.24608 33.4443 1.24608 22C1.24608 10.5557 10.5557 1.24608 22 1.24608C33.4443 1.24608 42.7539 10.5557 42.7539 22C42.7539 33.4443 33.4443 42.7539 22 42.7539ZM8.81246 10.7501C8.55015 10.4878 8.11647 10.511 7.88383 10.803C5.33058 14.0141 3.98307 17.8874 3.98307 21.9998C3.98307 31.9338 12.0661 40.0168 22.0001 40.0168C26.1145 40.0168 29.9856 38.6672 33.1969 36.116C33.4888 35.8834 33.5121 35.4497 33.2498 35.1874C30.5146 32.4522 12.1552 14.0929 8.81287 10.7505L8.81246 10.7501ZM19.4315 23.1334H15.8734V20.8679H17.1638L19.4294 23.1334H19.4315ZM21.9975 38.7704C12.7512 38.7704 5.22655 31.2479 5.22655 21.9995C5.22655 18.4054 6.33291 15.0104 8.43137 12.1353L15.9154 19.6194C6.64376 19.6215 9.84208 19.6215 9.15054 19.6215C8.80573 19.6215 8.52652 19.9007 8.52652 20.2455V23.755C8.52652 24.0998 8.80575 24.379 9.15054 24.379C10.3288 24.379 4.87959 24.379 20.6772 24.3811L31.861 35.5649C28.9862 37.6655 25.5911 38.7698 21.9969 38.7698L21.9975 38.7704ZM14.6255 20.8676V23.1311H9.77704V20.8676H14.6255ZM21.9975 3.98247C17.883 3.98247 14.0119 5.3321 10.8006 7.88323C10.5087 8.11592 10.4854 8.54959 10.7477 8.81186C15.8839 13.948 30.4375 28.5017 35.1846 33.2488C35.447 33.5111 35.8806 33.4878 36.1133 33.1959C38.6665 29.9847 40.014 26.1115 40.014 21.999C40.014 12.0651 31.931 3.98206 21.997 3.98206L21.9975 3.98247ZM31.2247 21.8343C31.1951 21.9422 31.1951 22.0564 31.2247 22.1643L31.4913 23.131H26.8311L24.5655 20.8655H31.4912L31.2247 21.8322L31.2247 21.8343ZM35.5613 31.8636L28.0772 24.3795C28.771 24.3795 25.5684 24.3795 34.8421 24.3774C35.1869 24.3774 35.4661 24.0982 35.4661 23.7534V20.2439C35.4661 19.8991 35.1869 19.6199 34.8421 19.6199C32.8431 19.6199 24.1532 19.6178 23.3155 19.6178L12.1316 8.43397C15.0064 6.33339 18.4015 5.22914 21.9957 5.22914C31.2419 5.22914 38.7666 12.7517 38.7666 22C38.7666 25.5941 37.6603 28.9891 35.5618 31.8642L35.5613 31.8636ZM32.7838 23.1313L32.4728 21.9996L32.7838 20.8679H34.2201V23.1313L32.7838 23.1313ZM33.484 14.9107C33.1117 15.283 33.1117 15.888 33.484 16.2603L34.4634 17.2398C34.7067 17.483 34.7067 17.8786 34.4634 18.1219C34.2201 18.3652 33.8246 18.3652 33.5813 18.1219L32.6019 17.1425C31.743 16.2836 31.743 14.8874 32.6019 14.0286C32.9742 13.6563 32.9742 13.0513 32.6019 12.679L31.5188 11.5959C31.2755 11.3526 31.2755 10.9571 31.5188 10.7138C31.7621 10.4705 32.1576 10.4705 32.4009 10.7138L33.484 11.7969C34.3428 12.6557 34.3428 14.0519 33.484 14.9107ZM31.4363 17.2419C31.6796 17.4852 31.6796 17.8807 31.4363 18.124C31.193 18.3673 30.7975 18.3673 30.5542 18.124L29.5748 17.1446C29.158 16.7278 28.9296 16.1757 28.9296 15.5876C28.9296 14.9996 29.158 14.4474 29.5748 14.0307C29.9471 13.6584 29.9471 13.0534 29.5748 12.6811L28.4917 11.598C28.2484 11.3548 28.2484 10.9592 28.4917 10.7159C28.735 10.4726 29.1305 10.4726 29.3738 10.7159L30.4569 11.799C31.3157 12.6578 31.3157 14.054 30.4569 14.9128C30.2771 15.0926 30.1776 15.3338 30.1776 15.5876C30.1776 15.8436 30.2771 16.0826 30.4569 16.2625L31.4363 17.2419Z" fill="url(#paint0_linear_3_1553)"/>
<defs>
<linearGradient id="paint0_linear_3_1553" x1="33.2361" y1="32.3125" x2="-4.40581" y2="14.3006" gradientUnits="userSpaceOnUse">
<stop stop-color="#55097B"/>
<stop offset="1" stop-color="#F00045"/>
</linearGradient>
</defs>
</svg>
