<svg width="40" height="40" viewBox="0 0 40 40" fill="none" xmlns="http://www.w3.org/2000/svg">
<path d="M22.8282 35.8267C21.9784 35.9902 21.1029 36.0805 20.2232 36.102C11.4685 36.2999 4.15309 29.3046 3.88404 20.5109C3.79009 17.4735 4.55025 14.5007 6.04067 11.9108L7.30049 12.7626C7.51828 12.9089 7.76171 12.982 8.0094 12.982C8.1973 12.982 8.38521 12.939 8.56457 12.853C8.97454 12.6551 9.24786 12.2636 9.28629 11.8032L9.82011 5.69844C9.86282 5.2338 9.64929 4.78207 9.26494 4.51964C8.88059 4.25721 8.38521 4.22709 7.97096 4.4379L2.50465 7.21711C2.09468 7.42362 1.83417 7.82803 1.80428 8.28836C1.77439 8.74869 1.98791 9.17891 2.36799 9.43704L2.8164 9.7382C1.03985 12.7368 0.0533514 16.1829 0.00210472 19.7021C-0.155906 30.7157 8.603 39.8191 19.5228 39.9998C19.6339 39.9998 19.7449 39.9998 19.8559 39.9998C21.1157 39.9998 22.367 39.8836 23.5841 39.647C24.1009 39.5481 24.5621 39.2297 24.8439 38.778C25.1301 38.3176 25.2155 37.7541 25.0788 37.2292C24.8183 36.2483 23.8318 35.6288 22.8282 35.8181V35.8267ZM19.5484 38.7134C9.329 38.5457 1.13807 30.0273 1.28754 19.7236C1.33452 16.4539 2.24415 13.2488 3.88404 10.4567L4.97303 11.1923C3.33314 14.0017 2.50465 17.2412 2.60287 20.5496C2.889 29.9155 10.5931 37.3927 19.8645 37.3927C19.9926 37.3927 20.1207 37.3927 20.2531 37.3884C21.2011 37.3669 22.1492 37.2679 23.0674 37.0915C23.4176 37.0227 23.7549 37.2292 23.8403 37.5648C23.8873 37.7455 23.8574 37.9391 23.7592 38.0939C23.6653 38.2445 23.5158 38.3478 23.345 38.3822C22.1065 38.6188 20.8296 38.7307 19.5442 38.7091L19.5484 38.7134ZM8.54322 5.59089L8.0094 11.6914L3.08118 8.3701L8.54322 5.59089Z" fill="black"/>
<path d="M22.8282 35.8267C21.9784 35.9902 21.1029 36.0805 20.2232 36.102C11.4685 36.2999 4.15309 29.3046 3.88404 20.5109C3.79009 17.4735 4.55025 14.5007 6.04067 11.9108L7.30049 12.7626C7.51828 12.9089 7.76171 12.982 8.0094 12.982C8.1973 12.982 8.38521 12.939 8.56457 12.853C8.97454 12.6551 9.24786 12.2636 9.28629 11.8032L9.82011 5.69844C9.86282 5.2338 9.64929 4.78207 9.26494 4.51964C8.88059 4.25721 8.38521 4.22709 7.97096 4.4379L2.50465 7.21711C2.09468 7.42362 1.83417 7.82803 1.80428 8.28836C1.77439 8.74869 1.98791 9.17891 2.36799 9.43704L2.8164 9.7382C1.03985 12.7368 0.0533514 16.1829 0.00210472 19.7021C-0.155906 30.7157 8.603 39.8191 19.5228 39.9998C19.6339 39.9998 19.7449 39.9998 19.8559 39.9998C21.1157 39.9998 22.367 39.8836 23.5841 39.647C24.1009 39.5481 24.5621 39.2297 24.8439 38.778C25.1301 38.3176 25.2155 37.7541 25.0788 37.2292C24.8183 36.2483 23.8318 35.6288 22.8282 35.8181V35.8267ZM19.5484 38.7134C9.329 38.5457 1.13807 30.0273 1.28754 19.7236C1.33452 16.4539 2.24415 13.2488 3.88404 10.4567L4.97303 11.1923C3.33314 14.0017 2.50465 17.2412 2.60287 20.5496C2.889 29.9155 10.5931 37.3927 19.8645 37.3927C19.9926 37.3927 20.1207 37.3927 20.2531 37.3884C21.2011 37.3669 22.1492 37.2679 23.0674 37.0915C23.4176 37.0227 23.7549 37.2292 23.8403 37.5648C23.8873 37.7455 23.8574 37.9391 23.7592 38.0939C23.6653 38.2445 23.5158 38.3478 23.345 38.3822C22.1065 38.6188 20.8296 38.7307 19.5442 38.7091L19.5484 38.7134ZM8.54322 5.59089L8.0094 11.6914L3.08118 8.3701L8.54322 5.59089Z" fill="url(#paint0_linear_3_1522)"/>
<path d="M20.192 0.00252081C18.8211 -0.0189901 17.4545 0.0971691 16.1307 0.350998C15.6139 0.449949 15.1527 0.768311 14.8709 1.22004C14.5847 1.68037 14.4993 2.24396 14.636 2.76883C14.8965 3.74973 15.883 4.36924 16.8866 4.17995C17.7364 4.01646 18.6161 3.92612 19.4916 3.90461C28.2249 3.71961 35.5617 10.7021 35.8307 19.4957C35.9247 22.5331 35.1645 25.5059 33.6741 28.0915L32.4143 27.2397C32.0342 26.9816 31.5602 26.9514 31.1502 27.1493C30.7402 27.3472 30.4669 27.7387 30.4285 28.1991L29.8947 34.3039C29.852 34.7685 30.0655 35.2202 30.4498 35.4827C30.6634 35.629 30.9153 35.7064 31.1673 35.7064C31.3637 35.7064 31.5602 35.6591 31.7438 35.5687L37.2101 32.7895C37.6201 32.583 37.8806 32.1786 37.9105 31.7183C37.9404 31.2579 37.7269 30.8277 37.3468 30.5696L36.8984 30.2684C38.6749 27.2698 39.6614 23.8237 39.7127 20.3046C39.8707 9.29095 31.1161 0.187515 20.192 0.006823V0.00252081ZM31.1758 34.42L31.7097 28.3195L36.6379 31.6408L31.1758 34.42ZM34.746 28.8143C36.3859 26.005 37.2144 22.7654 37.1162 19.457C36.8258 9.95779 28.9039 2.40744 19.4702 2.61395C18.5222 2.63546 17.5741 2.73441 16.6559 2.9108C16.3058 2.97533 15.9684 2.77313 15.883 2.43756C15.836 2.25687 15.8659 2.06327 15.9641 1.90839C16.0581 1.75781 16.2075 1.65456 16.3784 1.62014C17.6168 1.38352 18.898 1.27167 20.1792 1.29318C30.3986 1.46096 38.5895 9.9793 38.4401 20.283C38.3931 23.5527 37.4834 26.7578 35.8436 29.55L34.7546 28.8143H34.746Z" fill="black"/>
<path d="M20.192 0.00252081C18.8211 -0.0189901 17.4545 0.0971691 16.1307 0.350998C15.6139 0.449949 15.1527 0.768311 14.8709 1.22004C14.5847 1.68037 14.4993 2.24396 14.636 2.76883C14.8965 3.74973 15.883 4.36924 16.8866 4.17995C17.7364 4.01646 18.6161 3.92612 19.4916 3.90461C28.2249 3.71961 35.5617 10.7021 35.8307 19.4957C35.9247 22.5331 35.1645 25.5059 33.6741 28.0915L32.4143 27.2397C32.0342 26.9816 31.5602 26.9514 31.1502 27.1493C30.7402 27.3472 30.4669 27.7387 30.4285 28.1991L29.8947 34.3039C29.852 34.7685 30.0655 35.2202 30.4498 35.4827C30.6634 35.629 30.9153 35.7064 31.1673 35.7064C31.3637 35.7064 31.5602 35.6591 31.7438 35.5687L37.2101 32.7895C37.6201 32.583 37.8806 32.1786 37.9105 31.7183C37.9404 31.2579 37.7269 30.8277 37.3468 30.5696L36.8984 30.2684C38.6749 27.2698 39.6614 23.8237 39.7127 20.3046C39.8707 9.29095 31.1161 0.187515 20.192 0.006823V0.00252081ZM31.1758 34.42L31.7097 28.3195L36.6379 31.6408L31.1758 34.42ZM34.746 28.8143C36.3859 26.005 37.2144 22.7654 37.1162 19.457C36.8258 9.95779 28.9039 2.40744 19.4702 2.61395C18.5222 2.63546 17.5741 2.73441 16.6559 2.9108C16.3058 2.97533 15.9684 2.77313 15.883 2.43756C15.836 2.25687 15.8659 2.06327 15.9641 1.90839C16.0581 1.75781 16.2075 1.65456 16.3784 1.62014C17.6168 1.38352 18.898 1.27167 20.1792 1.29318C30.3986 1.46096 38.5895 9.9793 38.4401 20.283C38.3931 23.5527 37.4834 26.7578 35.8436 29.55L34.7546 28.8143H34.746Z" fill="url(#paint1_linear_3_1522)"/>
<path d="M26.3062 8.95973H26.1396V8.18533C26.1396 7.82825 25.8535 7.54 25.499 7.54H22.0015V7.5271C22.0015 6.41713 21.1046 5.51367 20.0028 5.51367H19.721C18.6192 5.51367 17.7224 6.41713 17.7224 7.5271V7.54H14.2248C13.8703 7.54 13.5842 7.82825 13.5842 8.18533V8.95973H13.4176C11.9528 8.95973 10.7656 10.16 10.7656 11.6314V30.2943C10.7656 31.7699 11.9571 32.9659 13.4176 32.9659H26.3062C27.771 32.9659 28.9582 31.7656 28.9582 30.2943V11.6357C28.9582 10.16 27.7667 8.96403 26.3062 8.96403V8.95973ZM27.677 30.2943C27.677 31.0558 27.0621 31.6753 26.3062 31.6753H13.4176C12.6618 31.6753 12.0468 31.0558 12.0468 30.2943V11.6357C12.0468 10.8742 12.6618 10.2547 13.4176 10.2547H13.5842V11.0291C13.5842 11.3862 13.8703 11.6744 14.2248 11.6744H25.499C25.8535 11.6744 26.1396 11.3862 26.1396 11.0291V10.2547H26.3062C27.0621 10.2547 27.677 10.8742 27.677 11.6357V30.2986V30.2943ZM19.721 6.80433H20.0028C20.4 6.80433 20.7203 7.12699 20.7203 7.5271V8.53381H18.9993V7.5271C18.9993 7.12699 19.3195 6.80433 19.7167 6.80433H19.721ZM17.7224 9.18344C17.7224 9.54052 18.0085 9.82877 18.3629 9.82877H21.3651C21.7196 9.82877 22.0057 9.54052 22.0057 9.18344V8.83066H24.8627V10.3794H14.8696V8.83066H17.7266V9.18344H17.7224Z" fill="black"/>
<path d="M26.3062 8.95973H26.1396V8.18533C26.1396 7.82825 25.8535 7.54 25.499 7.54H22.0015V7.5271C22.0015 6.41713 21.1046 5.51367 20.0028 5.51367H19.721C18.6192 5.51367 17.7224 6.41713 17.7224 7.5271V7.54H14.2248C13.8703 7.54 13.5842 7.82825 13.5842 8.18533V8.95973H13.4176C11.9528 8.95973 10.7656 10.16 10.7656 11.6314V30.2943C10.7656 31.7699 11.9571 32.9659 13.4176 32.9659H26.3062C27.771 32.9659 28.9582 31.7656 28.9582 30.2943V11.6357C28.9582 10.16 27.7667 8.96403 26.3062 8.96403V8.95973ZM27.677 30.2943C27.677 31.0558 27.0621 31.6753 26.3062 31.6753H13.4176C12.6618 31.6753 12.0468 31.0558 12.0468 30.2943V11.6357C12.0468 10.8742 12.6618 10.2547 13.4176 10.2547H13.5842V11.0291C13.5842 11.3862 13.8703 11.6744 14.2248 11.6744H25.499C25.8535 11.6744 26.1396 11.3862 26.1396 11.0291V10.2547H26.3062C27.0621 10.2547 27.677 10.8742 27.677 11.6357V30.2986V30.2943ZM19.721 6.80433H20.0028C20.4 6.80433 20.7203 7.12699 20.7203 7.5271V8.53381H18.9993V7.5271C18.9993 7.12699 19.3195 6.80433 19.7167 6.80433H19.721ZM17.7224 9.18344C17.7224 9.54052 18.0085 9.82877 18.3629 9.82877H21.3651C21.7196 9.82877 22.0057 9.54052 22.0057 9.18344V8.83066H24.8627V10.3794H14.8696V8.83066H17.7266V9.18344H17.7224Z" fill="url(#paint2_linear_3_1522)"/>
<path d="M24.915 12.4746H14.8108C13.9653 12.4746 13.2734 13.1673 13.2734 14.0234V29.5285C13.2734 30.3803 13.961 31.0773 14.8108 31.0773H24.915C25.7605 31.0773 26.4524 30.3846 26.4524 29.5285V14.0234C26.4524 13.1716 25.7648 12.4746 24.915 12.4746ZM25.1712 29.5285C25.1712 29.6705 25.0559 29.7866 24.915 29.7866H14.8108C14.6699 29.7866 14.5546 29.6705 14.5546 29.5285V14.0234C14.5546 13.8814 14.6699 13.7653 14.8108 13.7653H24.915C25.0559 13.7653 25.1712 13.8814 25.1712 14.0234V29.5285Z" fill="black"/>
<path d="M24.915 12.4746H14.8108C13.9653 12.4746 13.2734 13.1673 13.2734 14.0234V29.5285C13.2734 30.3803 13.961 31.0773 14.8108 31.0773H24.915C25.7605 31.0773 26.4524 30.3846 26.4524 29.5285V14.0234C26.4524 13.1716 25.7648 12.4746 24.915 12.4746ZM25.1712 29.5285C25.1712 29.6705 25.0559 29.7866 24.915 29.7866H14.8108C14.6699 29.7866 14.5546 29.6705 14.5546 29.5285V14.0234C14.5546 13.8814 14.6699 13.7653 14.8108 13.7653H24.915C25.0559 13.7653 25.1712 13.8814 25.1712 14.0234V29.5285Z" fill="url(#paint3_linear_3_1522)"/>
<path d="M23.2695 26.3403H20.2929C19.9385 26.3403 19.6523 26.6286 19.6523 26.9857C19.6523 27.3427 19.9385 27.631 20.2929 27.631H23.2695C23.624 27.631 23.9101 27.3427 23.9101 26.9857C23.9101 26.6286 23.624 26.3403 23.2695 26.3403Z" fill="black"/>
<path d="M23.2695 26.3403H20.2929C19.9385 26.3403 19.6523 26.6286 19.6523 26.9857C19.6523 27.3427 19.9385 27.631 20.2929 27.631H23.2695C23.624 27.631 23.9101 27.3427 23.9101 26.9857C23.9101 26.6286 23.624 26.3403 23.2695 26.3403Z" fill="url(#paint4_linear_3_1522)"/>
<path d="M18.9748 24.7401C18.6886 24.5336 18.2872 24.5982 18.0822 24.8907L17.2964 25.9921L16.9078 25.6006C16.6558 25.3467 16.2501 25.3467 16.0024 25.6006C15.7505 25.8544 15.7505 26.2631 16.0024 26.5126L16.9249 27.4419C17.0445 27.5624 17.2067 27.6312 17.3776 27.6312C17.3946 27.6312 17.4117 27.6312 17.4288 27.6312C17.6167 27.614 17.7875 27.5193 17.8986 27.3645L19.1242 25.6436C19.3292 25.3553 19.2652 24.9509 18.9748 24.7444V24.7401Z" fill="black"/>
<path d="M18.9748 24.7401C18.6886 24.5336 18.2872 24.5982 18.0822 24.8907L17.2964 25.9921L16.9078 25.6006C16.6558 25.3467 16.2501 25.3467 16.0024 25.6006C15.7505 25.8544 15.7505 26.2631 16.0024 26.5126L16.9249 27.4419C17.0445 27.5624 17.2067 27.6312 17.3776 27.6312C17.3946 27.6312 17.4117 27.6312 17.4288 27.6312C17.6167 27.614 17.7875 27.5193 17.8986 27.3645L19.1242 25.6436C19.3292 25.3553 19.2652 24.9509 18.9748 24.7444V24.7401Z" fill="url(#paint5_linear_3_1522)"/>
<path d="M23.2695 21.9912H20.2929C19.9385 21.9912 19.6523 22.2795 19.6523 22.6365C19.6523 22.9936 19.9385 23.2819 20.2929 23.2819H23.2695C23.624 23.2819 23.9101 22.9936 23.9101 22.6365C23.9101 22.2795 23.624 21.9912 23.2695 21.9912Z" fill="black"/>
<path d="M23.2695 21.9912H20.2929C19.9385 21.9912 19.6523 22.2795 19.6523 22.6365C19.6523 22.9936 19.9385 23.2819 20.2929 23.2819H23.2695C23.624 23.2819 23.9101 22.9936 23.9101 22.6365C23.9101 22.2795 23.624 21.9912 23.2695 21.9912Z" fill="url(#paint6_linear_3_1522)"/>
<path d="M18.9748 20.3905C18.6886 20.184 18.2872 20.2485 18.0822 20.5411L17.2964 21.6425L16.9078 21.251C16.6558 20.9971 16.2501 20.9971 16.0024 21.251C15.7505 21.5048 15.7505 21.9135 16.0024 22.163L16.9249 23.0923C17.0445 23.2128 17.2067 23.2816 17.3776 23.2816C17.3946 23.2816 17.4117 23.2816 17.4288 23.2816C17.6167 23.2644 17.7875 23.1697 17.8986 23.0149L19.1242 21.294C19.3292 21.0057 19.2652 20.6013 18.9748 20.3948V20.3905Z" fill="black"/>
<path d="M18.9748 20.3905C18.6886 20.184 18.2872 20.2485 18.0822 20.5411L17.2964 21.6425L16.9078 21.251C16.6558 20.9971 16.2501 20.9971 16.0024 21.251C15.7505 21.5048 15.7505 21.9135 16.0024 22.163L16.9249 23.0923C17.0445 23.2128 17.2067 23.2816 17.3776 23.2816C17.3946 23.2816 17.4117 23.2816 17.4288 23.2816C17.6167 23.2644 17.7875 23.1697 17.8986 23.0149L19.1242 21.294C19.3292 21.0057 19.2652 20.6013 18.9748 20.3948V20.3905Z" fill="url(#paint7_linear_3_1522)"/>
<path d="M23.2695 17.6416H20.2929C19.9385 17.6416 19.6523 17.9298 19.6523 18.2869C19.6523 18.644 19.9385 18.9323 20.2929 18.9323H23.2695C23.624 18.9323 23.9101 18.644 23.9101 18.2869C23.9101 17.9298 23.624 17.6416 23.2695 17.6416Z" fill="black"/>
<path d="M23.2695 17.6416H20.2929C19.9385 17.6416 19.6523 17.9298 19.6523 18.2869C19.6523 18.644 19.9385 18.9323 20.2929 18.9323H23.2695C23.624 18.9323 23.9101 18.644 23.9101 18.2869C23.9101 17.9298 23.624 17.6416 23.2695 17.6416Z" fill="url(#paint8_linear_3_1522)"/>
<path d="M18.9748 16.0414C18.6886 15.8349 18.2872 15.8994 18.0822 16.192L17.2964 17.2933L16.9078 16.9018C16.6558 16.648 16.2501 16.648 16.0024 16.9018C15.7505 17.1557 15.7505 17.5644 16.0024 17.8139L16.9249 18.7432C17.0445 18.8636 17.2067 18.9325 17.3776 18.9325C17.3946 18.9325 17.4117 18.9325 17.4288 18.9325C17.6167 18.9153 17.7875 18.8206 17.8986 18.6657L19.1242 16.9449C19.3292 16.6566 19.2652 16.2522 18.9748 16.0457V16.0414Z" fill="black"/>
<path d="M18.9748 16.0414C18.6886 15.8349 18.2872 15.8994 18.0822 16.192L17.2964 17.2933L16.9078 16.9018C16.6558 16.648 16.2501 16.648 16.0024 16.9018C15.7505 17.1557 15.7505 17.5644 16.0024 17.8139L16.9249 18.7432C17.0445 18.8636 17.2067 18.9325 17.3776 18.9325C17.3946 18.9325 17.4117 18.9325 17.4288 18.9325C17.6167 18.9153 17.7875 18.8206 17.8986 18.6657L19.1242 16.9449C19.3292 16.6566 19.2652 16.2522 18.9748 16.0457V16.0414Z" fill="url(#paint9_linear_3_1522)"/>
<defs>
<linearGradient id="paint0_linear_3_1522" x1="18.9918" y1="30.5167" x2="-4.74675" y2="22.5171" gradientUnits="userSpaceOnUse">
<stop stop-color="#55097B"/>
<stop offset="1" stop-color="#F00045"/>
</linearGradient>
<linearGradient id="paint1_linear_3_1522" x1="33.564" y1="26.2219" x2="9.82478" y2="18.2232" gradientUnits="userSpaceOnUse">
<stop stop-color="#55097B"/>
<stop offset="1" stop-color="#F00045"/>
</linearGradient>
<linearGradient id="paint2_linear_3_1522" x1="24.5077" y1="25.6739" x2="7.12799" y2="20.1627" gradientUnits="userSpaceOnUse">
<stop stop-color="#55097B"/>
<stop offset="1" stop-color="#F00045"/>
</linearGradient>
<linearGradient id="paint3_linear_3_1522" x1="23.2283" y1="26.1359" x2="10.8005" y2="21.9229" gradientUnits="userSpaceOnUse">
<stop stop-color="#55097B"/>
<stop offset="1" stop-color="#F00045"/>
</linearGradient>
<linearGradient id="paint4_linear_3_1522" x1="22.8685" y1="27.2882" x2="21.5865" y2="25.2645" gradientUnits="userSpaceOnUse">
<stop stop-color="#55097B"/>
<stop offset="1" stop-color="#F00045"/>
</linearGradient>
<linearGradient id="paint5_linear_3_1522" x1="18.4046" y1="26.8313" x2="15.6241" y2="25.3157" gradientUnits="userSpaceOnUse">
<stop stop-color="#55097B"/>
<stop offset="1" stop-color="#F00045"/>
</linearGradient>
<linearGradient id="paint6_linear_3_1522" x1="22.8685" y1="22.939" x2="21.5865" y2="20.9153" gradientUnits="userSpaceOnUse">
<stop stop-color="#55097B"/>
<stop offset="1" stop-color="#F00045"/>
</linearGradient>
<linearGradient id="paint7_linear_3_1522" x1="18.4046" y1="22.4816" x2="15.6241" y2="20.9661" gradientUnits="userSpaceOnUse">
<stop stop-color="#55097B"/>
<stop offset="1" stop-color="#F00045"/>
</linearGradient>
<linearGradient id="paint8_linear_3_1522" x1="22.8685" y1="18.5894" x2="21.5865" y2="16.5657" gradientUnits="userSpaceOnUse">
<stop stop-color="#55097B"/>
<stop offset="1" stop-color="#F00045"/>
</linearGradient>
<linearGradient id="paint9_linear_3_1522" x1="18.4046" y1="18.1325" x2="15.6241" y2="16.617" gradientUnits="userSpaceOnUse">
<stop stop-color="#55097B"/>
<stop offset="1" stop-color="#F00045"/>
</linearGradient>
</defs>
</svg>
