<svg width="72" height="94" viewBox="0 0 72 94" fill="none" xmlns="http://www.w3.org/2000/svg">
<path d="M26.0682 49.6982C13.5706 49.6982 4.8611 31.8129 4.8611 15.7614C4.8611 14.9981 4.85731 14.2953 4.85352 13.6479C4.82926 9.3307 4.81637 7.16336 6.19834 5.52971C7.39459 4.11514 9.07903 3.16073 11.2054 2.69148C12.0211 2.51333 12.8323 3.02806 13.0119 3.84603C13.1923 4.66399 12.6753 5.47286 11.8574 5.65252C10.395 5.9747 9.27006 6.59177 8.51275 7.48706C7.85398 8.2656 7.86535 10.1714 7.8843 13.6297C7.88809 14.2824 7.89188 14.9912 7.89188 15.7607C7.89188 31.935 16.5544 46.6651 26.0667 46.6651C35.579 46.6651 44.2416 31.935 44.2416 15.7607C44.2416 14.5106 44.2863 13.3978 44.3257 12.4161C44.4394 9.59223 44.4591 8.19965 43.6654 7.40292C42.498 6.22941 40.6013 6.04672 39.2163 6.09675C38.3801 6.1339 37.6759 5.47513 37.6448 4.63822C37.613 3.8013 38.2664 3.09781 39.1033 3.06673C41.9636 2.95832 44.2802 3.72019 45.8153 5.26363C47.5771 7.03449 47.4839 9.34283 47.355 12.5381C47.3171 13.491 47.2731 14.572 47.2731 15.7607C47.2746 31.8129 38.5659 49.6982 26.0682 49.6982Z" fill="black"/>
<path d="M26.0682 49.6982C13.5706 49.6982 4.8611 31.8129 4.8611 15.7614C4.8611 14.9981 4.85731 14.2953 4.85352 13.6479C4.82926 9.3307 4.81637 7.16336 6.19834 5.52971C7.39459 4.11514 9.07903 3.16073 11.2054 2.69148C12.0211 2.51333 12.8323 3.02806 13.0119 3.84603C13.1923 4.66399 12.6753 5.47286 11.8574 5.65252C10.395 5.9747 9.27006 6.59177 8.51275 7.48706C7.85398 8.2656 7.86535 10.1714 7.8843 13.6297C7.88809 14.2824 7.89188 14.9912 7.89188 15.7607C7.89188 31.935 16.5544 46.6651 26.0667 46.6651C35.579 46.6651 44.2416 31.935 44.2416 15.7607C44.2416 14.5106 44.2863 13.3978 44.3257 12.4161C44.4394 9.59223 44.4591 8.19965 43.6654 7.40292C42.498 6.22941 40.6013 6.04672 39.2163 6.09675C38.3801 6.1339 37.6759 5.47513 37.6448 4.63822C37.613 3.8013 38.2664 3.09781 39.1033 3.06673C41.9636 2.95832 44.2802 3.72019 45.8153 5.26363C47.5771 7.03449 47.4839 9.34283 47.355 12.5381C47.3171 13.491 47.2731 14.572 47.2731 15.7607C47.2746 31.8129 38.5659 49.6982 26.0682 49.6982Z" fill="url(#paint0_linear_196_2003)"/>
<path d="M12.7722 8.34337C15.589 8.34337 17.8725 6.47564 17.8725 4.17169C17.8725 1.86773 15.589 0 12.7722 0C9.95537 0 7.67188 1.86773 7.67188 4.17169C7.67188 6.47564 9.95537 8.34337 12.7722 8.34337Z" fill="black"/>
<path d="M12.7722 8.34337C15.589 8.34337 17.8725 6.47564 17.8725 4.17169C17.8725 1.86773 15.589 0 12.7722 0C9.95537 0 7.67188 1.86773 7.67188 4.17169C7.67188 6.47564 9.95537 8.34337 12.7722 8.34337Z" fill="url(#paint1_linear_196_2003)"/>
<path d="M39.3425 8.34337C42.1593 8.34337 44.4428 6.47564 44.4428 4.17169C44.4428 1.86773 42.1593 0 39.3425 0C36.5257 0 34.2422 1.86773 34.2422 4.17169C34.2422 6.47564 36.5257 8.34337 39.3425 8.34337Z" fill="black"/>
<path d="M39.3425 8.34337C42.1593 8.34337 44.4428 6.47564 44.4428 4.17169C44.4428 1.86773 42.1593 0 39.3425 0C36.5257 0 34.2422 1.86773 34.2422 4.17169C34.2422 6.47564 36.5257 8.34337 39.3425 8.34337Z" fill="url(#paint2_linear_196_2003)"/>
<path d="M20.9449 94.0001C11.4591 94.0001 3.72822 91.0717 0.995363 86.358C-0.345671 84.0451 -0.331267 81.5563 1.0363 79.3503C2.50317 76.9844 5.55594 75.5167 9.09085 73.8179C12.9328 71.9705 17.2872 69.8774 20.5795 66.2136C24.0249 62.3793 24.6238 57.4662 24.6299 57.4169C24.7792 56.0585 24.7057 49.4041 24.6291 48.7013C24.5381 47.869 25.1393 47.1208 25.9717 47.0298C26.8063 46.9434 27.5522 47.5407 27.6432 48.3723C27.7539 49.3912 27.8077 56.254 27.6432 57.752C27.6167 57.9908 26.9511 63.6597 22.8355 68.24C19.1422 72.3495 14.2973 74.6783 10.4053 76.55C7.29876 78.0434 4.61593 79.3329 3.61451 80.9476C2.84279 82.1923 2.84507 83.5008 3.61906 84.8365C5.53168 88.1356 12.1019 91.2961 22.4792 90.9405C27.5371 90.7639 35.6424 85.8273 42.7941 81.4722C47.1811 78.8007 51.324 76.2771 54.7694 74.7852C55.5381 74.4524 56.4311 74.8057 56.7631 75.5743C57.0959 76.343 56.7427 77.2353 55.974 77.5681C52.7211 78.9758 48.6654 81.4464 44.3709 84.0617C36.5369 88.8331 28.4354 93.7666 22.5846 93.9705C22.0319 93.9903 21.4854 94.0001 20.9449 94.0001Z" fill="black"/>
<path d="M20.9449 94.0001C11.4591 94.0001 3.72822 91.0717 0.995363 86.358C-0.345671 84.0451 -0.331267 81.5563 1.0363 79.3503C2.50317 76.9844 5.55594 75.5167 9.09085 73.8179C12.9328 71.9705 17.2872 69.8774 20.5795 66.2136C24.0249 62.3793 24.6238 57.4662 24.6299 57.4169C24.7792 56.0585 24.7057 49.4041 24.6291 48.7013C24.5381 47.869 25.1393 47.1208 25.9717 47.0298C26.8063 46.9434 27.5522 47.5407 27.6432 48.3723C27.7539 49.3912 27.8077 56.254 27.6432 57.752C27.6167 57.9908 26.9511 63.6597 22.8355 68.24C19.1422 72.3495 14.2973 74.6783 10.4053 76.55C7.29876 78.0434 4.61593 79.3329 3.61451 80.9476C2.84279 82.1923 2.84507 83.5008 3.61906 84.8365C5.53168 88.1356 12.1019 91.2961 22.4792 90.9405C27.5371 90.7639 35.6424 85.8273 42.7941 81.4722C47.1811 78.8007 51.324 76.2771 54.7694 74.7852C55.5381 74.4524 56.4311 74.8057 56.7631 75.5743C57.0959 76.343 56.7427 77.2353 55.974 77.5681C52.7211 78.9758 48.6654 81.4464 44.3709 84.0617C36.5369 88.8331 28.4354 93.7666 22.5846 93.9705C22.0319 93.9903 21.4854 94.0001 20.9449 94.0001Z" fill="url(#paint3_linear_196_2003)"/>
<path d="M62.5299 84.7418C57.7146 84.7418 53.7969 80.8407 53.7969 76.0467C53.7969 71.2519 57.7139 67.3516 62.5299 67.3516C67.346 67.3516 71.2629 71.2526 71.2629 76.0467C71.2629 80.8415 67.346 84.7418 62.5299 84.7418ZM62.5299 70.3839C59.3869 70.3839 56.8292 72.9242 56.8292 76.0467C56.8292 79.1692 59.3862 81.7095 62.5299 81.7095C65.6736 81.7095 68.2306 79.1692 68.2306 76.0467C68.2306 72.9242 65.6736 70.3839 62.5299 70.3839Z" fill="black"/>
<path d="M62.5299 84.7418C57.7146 84.7418 53.7969 80.8407 53.7969 76.0467C53.7969 71.2519 57.7139 67.3516 62.5299 67.3516C67.346 67.3516 71.2629 71.2526 71.2629 76.0467C71.2629 80.8415 67.346 84.7418 62.5299 84.7418ZM62.5299 70.3839C59.3869 70.3839 56.8292 72.9242 56.8292 76.0467C56.8292 79.1692 59.3862 81.7095 62.5299 81.7095C65.6736 81.7095 68.2306 79.1692 68.2306 76.0467C68.2306 72.9242 65.6736 70.3839 62.5299 70.3839Z" fill="url(#paint4_linear_196_2003)"/>
<path d="M62.529 78.5079C63.8956 78.5079 65.0034 77.4059 65.0034 76.0464C65.0034 74.687 63.8956 73.585 62.529 73.585C61.1625 73.585 60.0547 74.687 60.0547 76.0464C60.0547 77.4059 61.1625 78.5079 62.529 78.5079Z" fill="black"/>
<path d="M62.529 78.5079C63.8956 78.5079 65.0034 77.4059 65.0034 76.0464C65.0034 74.687 63.8956 73.585 62.529 73.585C61.1625 73.585 60.0547 74.687 60.0547 76.0464C60.0547 77.4059 61.1625 78.5079 62.529 78.5079Z" fill="url(#paint5_linear_196_2003)"/>
<defs>
<linearGradient id="paint0_linear_196_2003" x1="37.0027" y1="37.2027" x2="-0.686747" y2="20.8828" gradientUnits="userSpaceOnUse">
<stop stop-color="#55097B"/>
<stop offset="1" stop-color="#F00045"/>
</linearGradient>
<linearGradient id="paint1_linear_196_2003" x1="15.3771" y1="6.12716" x2="7.38699" y2="1.45274" gradientUnits="userSpaceOnUse">
<stop stop-color="#55097B"/>
<stop offset="1" stop-color="#F00045"/>
</linearGradient>
<linearGradient id="paint2_linear_196_2003" x1="41.9474" y1="6.12716" x2="33.9573" y2="1.45274" gradientUnits="userSpaceOnUse">
<stop stop-color="#55097B"/>
<stop offset="1" stop-color="#F00045"/>
</linearGradient>
<linearGradient id="paint3_linear_196_2003" x1="42.9715" y1="81.5214" x2="-1.8056" y2="55.5755" gradientUnits="userSpaceOnUse">
<stop stop-color="#55097B"/>
<stop offset="1" stop-color="#F00045"/>
</linearGradient>
<linearGradient id="paint4_linear_196_2003" x1="66.9901" y1="80.1225" x2="52.0722" y2="72.9531" gradientUnits="userSpaceOnUse">
<stop stop-color="#55097B"/>
<stop offset="1" stop-color="#F00045"/>
</linearGradient>
<linearGradient id="paint5_linear_196_2003" x1="63.7928" y1="77.2002" x2="59.5674" y2="75.1678" gradientUnits="userSpaceOnUse">
<stop stop-color="#55097B"/>
<stop offset="1" stop-color="#F00045"/>
</linearGradient>
</defs>
</svg>
