<svg width="26" height="49" viewBox="0 0 26 49" fill="none" xmlns="http://www.w3.org/2000/svg">
<path d="M25.9334 45.3645L20.9536 23.9033C20.8861 23.614 20.7698 23.3381 20.6096 23.0875L14.4973 13.5096C14.3878 13.3374 14.3297 13.1379 14.3297 12.9341V5.11021C14.3286 4.25626 14.0293 3.4292 13.483 2.77035C12.9367 2.1115 12.1773 1.66176 11.3346 1.498L3.7948 0.0399445C3.47107 -0.0186031 3.13887 -0.0127384 2.81743 0.0571998C2.49598 0.127138 2.19167 0.259762 1.9221 0.4474C1.65253 0.635038 1.42303 0.873966 1.2469 1.15037C1.07077 1.42677 0.951491 1.73515 0.895964 2.05768C0.840437 2.38022 0.849765 2.7105 0.923408 3.02943C0.997051 3.34835 1.13355 3.64959 1.325 3.91573C1.51646 4.18186 1.75907 4.4076 2.03881 4.5799C2.31855 4.75219 2.62986 4.86762 2.95475 4.91951L9.35331 6.20482V13.8748H11.1144V6.20482C11.1138 5.78479 10.9667 5.37799 10.698 5.05388C10.4294 4.72978 10.0559 4.50848 9.64139 4.42779L3.29004 3.20063C3.09952 3.17256 2.92532 3.07782 2.79875 2.93345C2.67218 2.78908 2.60154 2.60455 2.59953 2.41302C2.61226 2.31294 2.645 2.21641 2.69583 2.1291C2.74665 2.0418 2.81453 1.9655 2.89547 1.90469C2.97641 1.84389 3.06877 1.7998 3.16711 1.77505C3.26544 1.75029 3.36777 1.74535 3.46805 1.76053L10.9992 3.21688C11.4408 3.30282 11.8388 3.53859 12.125 3.88391C12.4112 4.22924 12.568 4.66268 12.5685 5.11021V12.9341C12.5682 13.4704 12.7216 13.9958 13.0105 14.4486L19.1237 24.0281C19.177 24.1117 19.2156 24.2037 19.2381 24.3001L24.2153 45.7501C24.2832 46.0729 24.2208 46.4092 24.0415 46.6866C23.8622 46.964 23.5804 47.1601 23.2569 47.2326C22.9335 47.3051 22.5943 47.2482 22.3127 47.0742C22.031 46.9002 21.8295 46.623 21.7516 46.3025L18.0892 30.2272C18.0199 29.9418 17.8588 29.6866 17.6304 29.5006C17.4019 29.3145 17.1187 29.2077 16.8236 29.1964C16.5286 29.1851 16.2379 29.2699 15.9957 29.4379C15.7535 29.6059 15.5731 29.8479 15.4819 30.1272L10.5873 45.8545C10.4839 46.1669 10.2612 46.4264 9.9671 46.577C9.67304 46.7276 9.33124 46.7572 9.01542 46.6595C8.6996 46.5617 8.43506 46.3445 8.27886 46.0545C8.12267 45.7646 8.08732 45.4252 8.18045 45.1096L12.5845 30.9422C12.9785 30.6023 13.2545 30.1475 13.3734 29.6424C13.4922 29.1374 13.4477 28.608 13.2462 28.1295L13.3107 28.0988L10.203 21.6756C10.0532 21.3784 9.82464 21.1275 9.54197 20.95C9.2593 20.7724 8.93326 20.675 8.59901 20.6683C8.26476 20.6615 7.93499 20.7456 7.64529 20.9115C7.35558 21.0775 7.11693 21.3189 6.95509 21.6098L6.09002 23.2277C5.87471 23.6325 5.82126 24.1033 5.9404 24.5457C6.05953 24.988 6.34244 25.3692 6.73237 25.6128L11.3381 28.4742C11.4975 28.5774 11.6098 28.7388 11.6509 28.9235C11.6919 29.1083 11.6584 29.3017 11.5576 29.4621C11.4567 29.6226 11.2966 29.7372 11.1116 29.7815C10.9266 29.8257 10.7315 29.796 10.5683 29.6987L5.6488 26.6449C5.03214 26.2594 4.58469 25.6565 4.39606 24.9568C4.20742 24.2572 4.29151 23.5125 4.63151 22.8719L8.41278 15.3812C9.01857 14.583 9.34769 13.6109 9.35073 12.6108C9.34945 11.3733 8.85456 10.1869 7.97464 9.31181C7.09473 8.43677 5.90168 7.94461 4.6573 7.94334C-2.25045 8.31457 -1.1141 18.3322 5.69324 17.1543L3.07678 22.0493C2.52837 23.0816 2.39253 24.2819 2.69648 25.4096C3.00043 26.5373 3.72171 27.5092 4.71578 28.1303L9.63622 31.185C9.92105 31.354 10.2375 31.4636 10.5663 31.5069L6.49754 44.5948C6.26098 45.3558 6.33802 46.1792 6.71173 46.8837C7.08543 47.5883 7.72519 48.1164 8.49036 48.352C9.25552 48.5876 10.0834 48.5113 10.7921 48.14C11.5007 47.7687 12.0321 47.1327 12.2693 46.3718L16.7108 32.1026L20.0318 46.6823C20.2145 47.4533 20.6958 48.1215 21.371 48.5418C22.0462 48.9621 22.8609 49.1005 23.6382 48.9269C24.4154 48.7534 25.0924 48.2819 25.5221 47.6149C25.9519 46.9479 26.0996 46.1392 25.9334 45.3645ZM7.64466 24.0504L8.50973 22.4324L8.61551 22.4341L10.1754 25.6573L7.64466 24.0504ZM1.72585 12.6108C1.73432 11.8431 2.04695 11.1096 2.59588 10.5697C3.14481 10.0298 3.88572 9.72697 4.65779 9.72698C5.42986 9.72699 6.17076 10.0298 6.71967 10.5698C7.26858 11.1097 7.58118 11.8432 7.58963 12.6109C7.58116 13.3787 7.26853 14.1121 6.7196 14.6521C6.17068 15.192 5.42976 15.4948 4.65769 15.4948C3.88563 15.4948 3.14472 15.1919 2.59581 14.652C2.0469 14.1121 1.7343 13.3786 1.72585 12.6108Z" fill="black"/>
<path d="M25.9334 45.3645L20.9536 23.9033C20.8861 23.614 20.7698 23.3381 20.6096 23.0875L14.4973 13.5096C14.3878 13.3374 14.3297 13.1379 14.3297 12.9341V5.11021C14.3286 4.25626 14.0293 3.4292 13.483 2.77035C12.9367 2.1115 12.1773 1.66176 11.3346 1.498L3.7948 0.0399445C3.47107 -0.0186031 3.13887 -0.0127384 2.81743 0.0571998C2.49598 0.127138 2.19167 0.259762 1.9221 0.4474C1.65253 0.635038 1.42303 0.873966 1.2469 1.15037C1.07077 1.42677 0.951491 1.73515 0.895964 2.05768C0.840437 2.38022 0.849765 2.7105 0.923408 3.02943C0.997051 3.34835 1.13355 3.64959 1.325 3.91573C1.51646 4.18186 1.75907 4.4076 2.03881 4.5799C2.31855 4.75219 2.62986 4.86762 2.95475 4.91951L9.35331 6.20482V13.8748H11.1144V6.20482C11.1138 5.78479 10.9667 5.37799 10.698 5.05388C10.4294 4.72978 10.0559 4.50848 9.64139 4.42779L3.29004 3.20063C3.09952 3.17256 2.92532 3.07782 2.79875 2.93345C2.67218 2.78908 2.60154 2.60455 2.59953 2.41302C2.61226 2.31294 2.645 2.21641 2.69583 2.1291C2.74665 2.0418 2.81453 1.9655 2.89547 1.90469C2.97641 1.84389 3.06877 1.7998 3.16711 1.77505C3.26544 1.75029 3.36777 1.74535 3.46805 1.76053L10.9992 3.21688C11.4408 3.30282 11.8388 3.53859 12.125 3.88391C12.4112 4.22924 12.568 4.66268 12.5685 5.11021V12.9341C12.5682 13.4704 12.7216 13.9958 13.0105 14.4486L19.1237 24.0281C19.177 24.1117 19.2156 24.2037 19.2381 24.3001L24.2153 45.7501C24.2832 46.0729 24.2208 46.4092 24.0415 46.6866C23.8622 46.964 23.5804 47.1601 23.2569 47.2326C22.9335 47.3051 22.5943 47.2482 22.3127 47.0742C22.031 46.9002 21.8295 46.623 21.7516 46.3025L18.0892 30.2272C18.0199 29.9418 17.8588 29.6866 17.6304 29.5006C17.4019 29.3145 17.1187 29.2077 16.8236 29.1964C16.5286 29.1851 16.2379 29.2699 15.9957 29.4379C15.7535 29.6059 15.5731 29.8479 15.4819 30.1272L10.5873 45.8545C10.4839 46.1669 10.2612 46.4264 9.9671 46.577C9.67304 46.7276 9.33124 46.7572 9.01542 46.6595C8.6996 46.5617 8.43506 46.3445 8.27886 46.0545C8.12267 45.7646 8.08732 45.4252 8.18045 45.1096L12.5845 30.9422C12.9785 30.6023 13.2545 30.1475 13.3734 29.6424C13.4922 29.1374 13.4477 28.608 13.2462 28.1295L13.3107 28.0988L10.203 21.6756C10.0532 21.3784 9.82464 21.1275 9.54197 20.95C9.2593 20.7724 8.93326 20.675 8.59901 20.6683C8.26476 20.6615 7.93499 20.7456 7.64529 20.9115C7.35558 21.0775 7.11693 21.3189 6.95509 21.6098L6.09002 23.2277C5.87471 23.6325 5.82126 24.1033 5.9404 24.5457C6.05953 24.988 6.34244 25.3692 6.73237 25.6128L11.3381 28.4742C11.4975 28.5774 11.6098 28.7388 11.6509 28.9235C11.6919 29.1083 11.6584 29.3017 11.5576 29.4621C11.4567 29.6226 11.2966 29.7372 11.1116 29.7815C10.9266 29.8257 10.7315 29.796 10.5683 29.6987L5.6488 26.6449C5.03214 26.2594 4.58469 25.6565 4.39606 24.9568C4.20742 24.2572 4.29151 23.5125 4.63151 22.8719L8.41278 15.3812C9.01857 14.583 9.34769 13.6109 9.35073 12.6108C9.34945 11.3733 8.85456 10.1869 7.97464 9.31181C7.09473 8.43677 5.90168 7.94461 4.6573 7.94334C-2.25045 8.31457 -1.1141 18.3322 5.69324 17.1543L3.07678 22.0493C2.52837 23.0816 2.39253 24.2819 2.69648 25.4096C3.00043 26.5373 3.72171 27.5092 4.71578 28.1303L9.63622 31.185C9.92105 31.354 10.2375 31.4636 10.5663 31.5069L6.49754 44.5948C6.26098 45.3558 6.33802 46.1792 6.71173 46.8837C7.08543 47.5883 7.72519 48.1164 8.49036 48.352C9.25552 48.5876 10.0834 48.5113 10.7921 48.14C11.5007 47.7687 12.0321 47.1327 12.2693 46.3718L16.7108 32.1026L20.0318 46.6823C20.2145 47.4533 20.6958 48.1215 21.371 48.5418C22.0462 48.9621 22.8609 49.1005 23.6382 48.9269C24.4154 48.7534 25.0924 48.2819 25.5221 47.6149C25.9519 46.9479 26.0996 46.1392 25.9334 45.3645ZM7.64466 24.0504L8.50973 22.4324L8.61551 22.4341L10.1754 25.6573L7.64466 24.0504ZM1.72585 12.6108C1.73432 11.8431 2.04695 11.1096 2.59588 10.5697C3.14481 10.0298 3.88572 9.72697 4.65779 9.72698C5.42986 9.72699 6.17076 10.0298 6.71967 10.5698C7.26858 11.1097 7.58118 11.8432 7.58963 12.6109C7.58116 13.3787 7.26853 14.1121 6.7196 14.6521C6.17068 15.192 5.42976 15.4948 4.65769 15.4948C3.88563 15.4948 3.14472 15.1919 2.59581 14.652C2.0469 14.1121 1.7343 13.3786 1.72585 12.6108Z" fill="url(#paint0_linear_257_932)"/>
<defs>
<linearGradient id="paint0_linear_257_932" x1="19.6395" y1="35.9844" x2="-6.04088" y2="29.4641" gradientUnits="userSpaceOnUse">
<stop stop-color="#55097B"/>
<stop offset="1" stop-color="#F00045"/>
</linearGradient>
</defs>
</svg>
