<svg width="40" height="42" viewBox="0 0 40 42" fill="none" xmlns="http://www.w3.org/2000/svg">
<path d="M36.088 9.10155L30.3505 14.5704C30.2236 14.6913 30.1523 14.8554 30.1523 15.0264C30.1523 15.1974 30.2236 15.3615 30.3505 15.4824C30.4774 15.6033 30.6495 15.6713 30.8289 15.6713C31.0083 15.6713 31.1804 15.6033 31.3073 15.4824L37.0441 10.0129C37.1087 9.95346 37.1602 9.88234 37.1957 9.80371C37.2311 9.72507 37.2497 9.6405 37.2505 9.55492C37.2513 9.46934 37.2342 9.38446 37.2002 9.30525C37.1662 9.22604 37.116 9.15408 37.0525 9.09356C36.989 9.03305 36.9135 8.98519 36.8304 8.95278C36.7473 8.92037 36.6583 8.90407 36.5685 8.90481C36.4787 8.90555 36.39 8.92333 36.3075 8.95711C36.225 8.99089 36.1504 9.03999 36.088 9.10155Z" fill="black"/>
<path d="M36.088 9.10155L30.3505 14.5704C30.2236 14.6913 30.1523 14.8554 30.1523 15.0264C30.1523 15.1974 30.2236 15.3615 30.3505 15.4824C30.4774 15.6033 30.6495 15.6713 30.8289 15.6713C31.0083 15.6713 31.1804 15.6033 31.3073 15.4824L37.0441 10.0129C37.1087 9.95346 37.1602 9.88234 37.1957 9.80371C37.2311 9.72507 37.2497 9.6405 37.2505 9.55492C37.2513 9.46934 37.2342 9.38446 37.2002 9.30525C37.1662 9.22604 37.116 9.15408 37.0525 9.09356C36.989 9.03305 36.9135 8.98519 36.8304 8.95278C36.7473 8.92037 36.6583 8.90407 36.5685 8.90481C36.4787 8.90555 36.39 8.92333 36.3075 8.95711C36.225 8.99089 36.1504 9.03999 36.088 9.10155Z" fill="url(#paint0_linear_257_924)"/>
<path d="M39.9678 9.8568C40.0419 9.38035 39.9876 8.89378 39.8102 8.4428C39.6328 7.99181 39.338 7.59123 38.9535 7.27868C38.6259 6.91182 38.2057 6.63055 37.7325 6.4614C37.2593 6.29225 36.7486 6.24079 36.2488 6.31189C34.7145 6.58001 33.5731 8.08886 33.003 9.02343C32.9726 9.00538 32.9395 8.99442 32.9084 8.97702C33.3779 8.01109 33.4648 6.91586 33.1532 5.89359C33.6982 5.11628 34.9376 3.07377 34.1316 1.53656C33.5954 0.515624 32.3268 0 30.3659 0C27.9735 0 26.4366 0.500156 25.7969 1.48758C25.5457 1.88047 25.4403 2.34235 25.4973 2.7992C24.8684 3.01438 24.2874 3.34014 23.7845 3.75955C23.1146 3.38885 22.3498 3.20296 21.5754 3.22265C20.6539 3.17183 19.7447 3.44357 19.0186 3.98682C18.2925 4.53006 17.7996 5.30738 17.6325 6.17267C15.8474 5.6145 14.184 6.00187 13.2434 7.24968C12.2785 8.52585 12.242 10.7063 14.3354 12.7018C15.6691 14.1314 16.6281 15.8422 17.1335 17.6936C16.2628 17.672 15.3955 17.8056 14.5762 18.0875C14.5536 18.096 14.5311 18.1051 14.5085 18.1145L13.4686 18.6102C13.4057 18.6398 13.3408 18.6624 13.2772 18.6875C13.2628 17.4547 13.5314 16.2338 14.0643 15.1104C14.1153 15.0123 14.1392 14.9035 14.1339 14.7941C14.1285 14.6848 14.094 14.5786 14.0337 14.4855C13.9733 14.3923 13.8891 14.3154 13.7889 14.2619C13.6888 14.2084 13.576 14.1801 13.4611 14.1797H10.7564C10.577 14.1797 10.405 14.2476 10.2782 14.3684C10.1514 14.4893 10.0802 14.6533 10.0802 14.8242C10.0941 16.0423 10.2098 17.2575 10.4264 18.4581L9.70624 18.1145C9.6855 18.1046 9.66296 18.0956 9.63862 18.0875C9.52434 18.0469 6.81011 17.1 4.74097 18.2924C3.56913 18.9672 2.86454 20.1616 2.64478 21.8335C2.52394 22.715 2.50241 23.6063 2.58054 24.4922H2.02742C1.74921 24.4923 1.47401 24.547 1.21893 24.6528C0.963842 24.7587 0.734323 24.9134 0.544636 25.1074C0.35495 25.3014 0.209152 25.5305 0.116305 25.7804C0.0234584 26.0304 -0.0144527 26.2959 0.00492894 26.5605C0.244977 29.7709 1.37557 37.5993 6.66338 40.9386C6.99418 41.1445 7.38134 41.2528 7.77639 41.2499H30.0677C30.4632 41.2529 30.8508 41.1446 31.1821 40.9386C36.4692 37.6 37.5998 29.7709 37.8412 26.5605C37.8599 26.296 37.8216 26.0307 37.7286 25.781C37.6355 25.5312 37.4897 25.3023 37.3002 25.1083C37.2793 25.0877 37.2542 25.0722 37.2326 25.0522C37.5832 24.8677 37.8786 24.6011 38.0911 24.2776C38.3036 23.9541 38.4261 23.5843 38.4471 23.2031C38.4044 22.8725 38.2795 22.5564 38.0827 22.2812C37.8859 22.006 37.623 21.7795 37.3158 21.6208C37.4591 21.312 37.5258 20.9758 37.5107 20.6385C37.4956 20.3011 37.399 19.9716 37.2286 19.6756C36.9134 19.2267 36.4292 18.9105 35.8762 18.7926C35.9089 18.4294 35.8628 18.0637 35.7409 17.7181C36.2318 17.4674 36.6573 17.1147 36.9859 16.6861C37.3144 16.2574 37.5376 15.7638 37.639 15.2419C37.7694 14.4456 37.5874 13.6315 37.1278 12.9551C38.1083 12.4117 39.6912 11.3231 39.9678 9.8568ZM26.494 3.84269C26.59 3.81714 26.6788 3.77171 26.7542 3.70964C26.8295 3.64756 26.8896 3.57039 26.93 3.48362C26.9705 3.39686 26.9903 3.30265 26.9881 3.20773C26.9859 3.11281 26.9617 3.01953 26.9173 2.93455C26.8613 2.81214 26.8352 2.67922 26.841 2.54581C26.8467 2.41239 26.8842 2.28196 26.9505 2.16433C27.1202 1.90136 27.7923 1.28906 30.3659 1.28906C31.3335 1.28906 32.5622 1.43215 32.9205 2.11342C33.4182 3.06023 32.2883 4.85911 31.8528 5.4147C31.7795 5.50997 31.7344 5.62237 31.7225 5.74002C31.7106 5.85767 31.7323 5.97619 31.7852 6.08308C31.939 6.48185 32.0034 6.90692 31.9743 7.33088C31.9452 7.75484 31.8232 8.16827 31.6162 8.54454C31.2803 8.49381 30.9383 8.49186 30.6019 8.53874C30.5606 8.54518 30.5214 8.55743 30.4808 8.56516C30.4075 8.14948 30.247 7.75215 30.0089 7.3969C29.7709 7.04165 29.4601 6.73577 29.0953 6.49751C28.5663 6.18298 27.9678 5.99012 27.347 5.93419C26.7263 5.87825 26.1004 5.96078 25.519 6.17525C25.3897 5.61937 25.1418 5.09479 24.7907 4.63417C25.2957 4.26207 25.8754 3.99268 26.494 3.84269ZM15.2916 11.7904C13.76 10.3305 13.7106 8.83651 14.3402 8.00313C15.0252 7.09628 16.4195 6.9648 17.8922 7.66669C17.9953 7.7158 18.1099 7.73898 18.2251 7.734C18.3402 7.72903 18.4521 7.69608 18.5502 7.63828C18.6482 7.58049 18.7291 7.49976 18.7852 7.40377C18.8413 7.30778 18.8707 7.19971 18.8707 7.08983C18.8707 6.98478 18.9011 4.51171 21.5754 4.51171C21.9344 4.4981 22.2925 4.55547 22.6271 4.68021C22.9618 4.80496 23.2657 4.99438 23.5197 5.23655C23.7738 5.47872 23.9725 5.7684 24.1034 6.08735C24.2343 6.4063 24.2945 6.74762 24.2802 7.08983C24.2802 7.19974 24.3097 7.30783 24.3658 7.40381C24.422 7.4998 24.503 7.5805 24.6011 7.63824C24.6993 7.69598 24.8112 7.72884 24.9264 7.73371C25.0416 7.73858 25.1562 7.71528 25.2593 7.66604C26.4406 7.10144 27.5617 7.06405 28.336 7.56421C28.5951 7.73919 28.8062 7.97115 28.9514 8.24042C29.0965 8.5097 29.1714 8.80835 29.1697 9.11108C28.6002 9.50693 28.1416 10.0302 27.8342 10.6348C27.2913 11.9192 27.1855 13.3337 27.532 14.6785C27.1367 14.632 26.7358 14.6539 26.3486 14.743L25.5825 14.9241C24.3954 15.2102 23.3371 15.8543 22.5654 16.7604L20.5104 19.1748C20.023 18.5879 19.3617 18.1542 18.6123 17.9302C17.7989 15.1877 16.6845 13.1181 15.2916 11.7904ZM17.7211 24.4922L19.4792 22.4342L20.3143 23.2302C20.3767 23.2917 20.4513 23.3408 20.5338 23.3746C20.6163 23.4084 20.705 23.4262 20.7948 23.4269C20.8846 23.4277 20.9736 23.4113 21.0567 23.3789C21.1398 23.3465 21.2153 23.2987 21.2788 23.2382C21.3423 23.1776 21.3925 23.1057 21.4265 23.0265C21.4605 22.9473 21.4776 22.8624 21.4769 22.7768C21.4761 22.6912 21.4574 22.6066 21.422 22.528C21.3866 22.4494 21.335 22.3783 21.2705 22.3188L20.336 21.4281L21.194 20.4219L21.7485 20.9511C21.8113 21.011 21.8858 21.0585 21.9679 21.0909C22.0499 21.1233 22.1379 21.1401 22.2267 21.1401C22.3155 21.1401 22.4035 21.1235 22.4855 21.0911C22.5676 21.0587 22.6422 21.0113 22.705 20.9514C22.7678 20.8916 22.8177 20.8205 22.8517 20.7423C22.8857 20.6641 22.9032 20.5803 22.9033 20.4956C22.9033 20.411 22.8858 20.3272 22.8519 20.2489C22.8179 20.1707 22.7681 20.0996 22.7053 20.0397L22.0508 19.4158L23.3355 17.907L24.6162 19.1284C24.7438 19.2458 24.9146 19.3107 25.0919 19.3093C25.2692 19.3078 25.4388 19.24 25.5641 19.1205C25.6895 19.001 25.7606 18.8394 25.7622 18.6704C25.7637 18.5014 25.6956 18.3386 25.5724 18.217L24.268 16.9731C24.7489 16.5982 25.3092 16.3268 25.9105 16.1777L26.6746 15.9966C27.0042 15.919 27.3492 15.9238 27.6764 16.0104C28.0035 16.097 28.3017 16.2625 28.5422 16.491L29.2928 17.2064C29.5319 17.4361 29.7051 17.7205 29.7958 18.0323C29.8865 18.3441 29.8916 18.673 29.8107 18.9872L29.6221 19.7136C29.3942 20.5761 28.8791 21.345 28.1541 21.905L24.811 24.4922H17.7211ZM12.4631 15.4687C12.0627 16.5721 11.8845 17.7376 11.9377 18.9041H11.8809C11.6506 17.7703 11.5055 16.6222 11.4468 15.4687H12.4631ZM3.98904 21.994C4.00519 21.4845 4.1444 20.9854 4.39584 20.5356C4.64728 20.0858 5.00419 19.6973 5.4388 19.4004C6.85068 18.5825 8.87858 19.2018 9.13891 19.2876L10.1444 19.7665C10.7555 20.0542 11.4279 20.204 12.1094 20.204C12.791 20.204 13.4634 20.0542 14.0744 19.7665L15.084 19.2843C15.437 19.1645 18.3297 18.2589 19.628 20.2138L15.9793 24.4922H3.94239C3.85912 23.6604 3.87478 22.8224 3.98904 21.994ZM30.4335 39.8636C30.3232 39.929 30.1955 39.9628 30.0657 39.9609H7.77639C7.64651 39.9628 7.51881 39.929 7.40854 39.8636C2.62179 36.8407 1.57842 29.4866 1.35258 26.4683C1.34547 26.3806 1.35762 26.2924 1.38824 26.2094C1.41886 26.1264 1.46728 26.0504 1.53042 25.9862C1.59382 25.921 1.67074 25.8692 1.7563 25.8339C1.84186 25.7986 1.93419 25.7807 2.02742 25.7812H35.8167C35.9099 25.7807 36.0022 25.7986 36.0878 25.8339C36.1733 25.8692 36.2503 25.921 36.3137 25.9862C36.3769 26.0503 36.4254 26.1263 36.4562 26.2093C36.4869 26.2923 36.4992 26.3805 36.4922 26.4683C36.2657 29.4892 35.2216 36.8414 30.4335 39.8636ZM36.0797 20.3575C36.2325 20.5966 36.1473 21.0471 35.8464 21.6259C35.8047 21.7055 35.7808 21.7924 35.776 21.8813C35.7713 21.9701 35.7859 22.0589 35.8189 22.1421C35.852 22.2252 35.9027 22.301 35.9679 22.3646C36.0332 22.4282 36.1115 22.4782 36.198 22.5115C36.5584 22.652 37.0859 22.9994 37.096 23.2592C37.096 23.3101 37.0588 23.7716 35.605 24.4922H26.9559L29.0047 22.9053C29.9573 22.1691 30.6343 21.1589 30.9346 20.0256L31.1239 19.2979C31.2174 18.9288 31.2403 18.5467 31.1915 18.17C31.799 18.2877 32.417 18.3492 33.0368 18.3536C33.5191 18.3543 33.9998 18.3024 34.4697 18.199C34.553 18.522 34.5434 18.8604 34.442 19.1786C34.4169 19.2735 34.4149 19.3726 34.436 19.4683C34.457 19.564 34.5007 19.654 34.5636 19.7312C34.6266 19.8085 34.7072 19.8711 34.7993 19.9143C34.8913 19.9574 34.9925 19.9801 35.0952 19.9804C35.2776 19.9756 35.4592 20.0066 35.6285 20.0715C35.7979 20.1364 35.9515 20.2337 36.0797 20.3575ZM38.6398 9.62542C38.42 10.7894 36.5219 11.851 35.8086 12.161C35.7092 12.2042 35.6223 12.2697 35.5553 12.3518C35.4883 12.434 35.4432 12.5304 35.4238 12.6329C35.4044 12.7353 35.4113 12.8407 35.4439 12.94C35.4765 13.0393 35.5339 13.1296 35.6111 13.2032C35.8714 13.4343 36.0698 13.7214 36.1898 14.0405C36.3098 14.3596 36.3479 14.7015 36.3008 15.0375C36.2164 15.4116 36.0385 15.7606 35.7822 16.0551C35.5259 16.3495 35.1988 16.5807 34.8288 16.7288C33.3019 17.4584 30.9285 16.8016 30.6012 16.7056C30.4958 16.5594 30.3773 16.4222 30.2469 16.2957L29.4963 15.5802C29.3638 15.4563 29.2204 15.3435 29.0676 15.2431C28.9675 14.9351 28.2778 12.6702 29.0419 11.2129C29.1976 10.8606 29.4401 10.5493 29.7488 10.3054C30.0576 10.0615 30.4235 9.8921 30.8156 9.81169C31.1682 9.76661 31.5269 9.80273 31.8619 9.917C32.1968 10.0313 32.4982 10.2204 32.7407 10.4685C32.8179 10.5419 32.9126 10.5965 33.0167 10.6275C33.1208 10.6585 33.2313 10.6651 33.3386 10.6466C33.446 10.6281 33.5471 10.5851 33.6332 10.5213C33.7194 10.4575 33.788 10.3748 33.8334 10.2803C34.1593 9.60092 35.273 7.79237 36.4942 7.58225C36.7785 7.55514 37.0655 7.59659 37.3286 7.7028C37.5917 7.809 37.8226 7.97655 38.0001 8.19005C38.2246 8.35886 38.4009 8.57884 38.5127 8.8297C38.6245 9.08055 38.6682 9.35421 38.6398 9.62542Z" fill="black"/>
<path d="M39.9678 9.8568C40.0419 9.38035 39.9876 8.89378 39.8102 8.4428C39.6328 7.99181 39.338 7.59123 38.9535 7.27868C38.6259 6.91182 38.2057 6.63055 37.7325 6.4614C37.2593 6.29225 36.7486 6.24079 36.2488 6.31189C34.7145 6.58001 33.5731 8.08886 33.003 9.02343C32.9726 9.00538 32.9395 8.99442 32.9084 8.97702C33.3779 8.01109 33.4648 6.91586 33.1532 5.89359C33.6982 5.11628 34.9376 3.07377 34.1316 1.53656C33.5954 0.515624 32.3268 0 30.3659 0C27.9735 0 26.4366 0.500156 25.7969 1.48758C25.5457 1.88047 25.4403 2.34235 25.4973 2.7992C24.8684 3.01438 24.2874 3.34014 23.7845 3.75955C23.1146 3.38885 22.3498 3.20296 21.5754 3.22265C20.6539 3.17183 19.7447 3.44357 19.0186 3.98682C18.2925 4.53006 17.7996 5.30738 17.6325 6.17267C15.8474 5.6145 14.184 6.00187 13.2434 7.24968C12.2785 8.52585 12.242 10.7063 14.3354 12.7018C15.6691 14.1314 16.6281 15.8422 17.1335 17.6936C16.2628 17.672 15.3955 17.8056 14.5762 18.0875C14.5536 18.096 14.5311 18.1051 14.5085 18.1145L13.4686 18.6102C13.4057 18.6398 13.3408 18.6624 13.2772 18.6875C13.2628 17.4547 13.5314 16.2338 14.0643 15.1104C14.1153 15.0123 14.1392 14.9035 14.1339 14.7941C14.1285 14.6848 14.094 14.5786 14.0337 14.4855C13.9733 14.3923 13.8891 14.3154 13.7889 14.2619C13.6888 14.2084 13.576 14.1801 13.4611 14.1797H10.7564C10.577 14.1797 10.405 14.2476 10.2782 14.3684C10.1514 14.4893 10.0802 14.6533 10.0802 14.8242C10.0941 16.0423 10.2098 17.2575 10.4264 18.4581L9.70624 18.1145C9.6855 18.1046 9.66296 18.0956 9.63862 18.0875C9.52434 18.0469 6.81011 17.1 4.74097 18.2924C3.56913 18.9672 2.86454 20.1616 2.64478 21.8335C2.52394 22.715 2.50241 23.6063 2.58054 24.4922H2.02742C1.74921 24.4923 1.47401 24.547 1.21893 24.6528C0.963842 24.7587 0.734323 24.9134 0.544636 25.1074C0.35495 25.3014 0.209152 25.5305 0.116305 25.7804C0.0234584 26.0304 -0.0144527 26.2959 0.00492894 26.5605C0.244977 29.7709 1.37557 37.5993 6.66338 40.9386C6.99418 41.1445 7.38134 41.2528 7.77639 41.2499H30.0677C30.4632 41.2529 30.8508 41.1446 31.1821 40.9386C36.4692 37.6 37.5998 29.7709 37.8412 26.5605C37.8599 26.296 37.8216 26.0307 37.7286 25.781C37.6355 25.5312 37.4897 25.3023 37.3002 25.1083C37.2793 25.0877 37.2542 25.0722 37.2326 25.0522C37.5832 24.8677 37.8786 24.6011 38.0911 24.2776C38.3036 23.9541 38.4261 23.5843 38.4471 23.2031C38.4044 22.8725 38.2795 22.5564 38.0827 22.2812C37.8859 22.006 37.623 21.7795 37.3158 21.6208C37.4591 21.312 37.5258 20.9758 37.5107 20.6385C37.4956 20.3011 37.399 19.9716 37.2286 19.6756C36.9134 19.2267 36.4292 18.9105 35.8762 18.7926C35.9089 18.4294 35.8628 18.0637 35.7409 17.7181C36.2318 17.4674 36.6573 17.1147 36.9859 16.6861C37.3144 16.2574 37.5376 15.7638 37.639 15.2419C37.7694 14.4456 37.5874 13.6315 37.1278 12.9551C38.1083 12.4117 39.6912 11.3231 39.9678 9.8568ZM26.494 3.84269C26.59 3.81714 26.6788 3.77171 26.7542 3.70964C26.8295 3.64756 26.8896 3.57039 26.93 3.48362C26.9705 3.39686 26.9903 3.30265 26.9881 3.20773C26.9859 3.11281 26.9617 3.01953 26.9173 2.93455C26.8613 2.81214 26.8352 2.67922 26.841 2.54581C26.8467 2.41239 26.8842 2.28196 26.9505 2.16433C27.1202 1.90136 27.7923 1.28906 30.3659 1.28906C31.3335 1.28906 32.5622 1.43215 32.9205 2.11342C33.4182 3.06023 32.2883 4.85911 31.8528 5.4147C31.7795 5.50997 31.7344 5.62237 31.7225 5.74002C31.7106 5.85767 31.7323 5.97619 31.7852 6.08308C31.939 6.48185 32.0034 6.90692 31.9743 7.33088C31.9452 7.75484 31.8232 8.16827 31.6162 8.54454C31.2803 8.49381 30.9383 8.49186 30.6019 8.53874C30.5606 8.54518 30.5214 8.55743 30.4808 8.56516C30.4075 8.14948 30.247 7.75215 30.0089 7.3969C29.7709 7.04165 29.4601 6.73577 29.0953 6.49751C28.5663 6.18298 27.9678 5.99012 27.347 5.93419C26.7263 5.87825 26.1004 5.96078 25.519 6.17525C25.3897 5.61937 25.1418 5.09479 24.7907 4.63417C25.2957 4.26207 25.8754 3.99268 26.494 3.84269ZM15.2916 11.7904C13.76 10.3305 13.7106 8.83651 14.3402 8.00313C15.0252 7.09628 16.4195 6.9648 17.8922 7.66669C17.9953 7.7158 18.1099 7.73898 18.2251 7.734C18.3402 7.72903 18.4521 7.69608 18.5502 7.63828C18.6482 7.58049 18.7291 7.49976 18.7852 7.40377C18.8413 7.30778 18.8707 7.19971 18.8707 7.08983C18.8707 6.98478 18.9011 4.51171 21.5754 4.51171C21.9344 4.4981 22.2925 4.55547 22.6271 4.68021C22.9618 4.80496 23.2657 4.99438 23.5197 5.23655C23.7738 5.47872 23.9725 5.7684 24.1034 6.08735C24.2343 6.4063 24.2945 6.74762 24.2802 7.08983C24.2802 7.19974 24.3097 7.30783 24.3658 7.40381C24.422 7.4998 24.503 7.5805 24.6011 7.63824C24.6993 7.69598 24.8112 7.72884 24.9264 7.73371C25.0416 7.73858 25.1562 7.71528 25.2593 7.66604C26.4406 7.10144 27.5617 7.06405 28.336 7.56421C28.5951 7.73919 28.8062 7.97115 28.9514 8.24042C29.0965 8.5097 29.1714 8.80835 29.1697 9.11108C28.6002 9.50693 28.1416 10.0302 27.8342 10.6348C27.2913 11.9192 27.1855 13.3337 27.532 14.6785C27.1367 14.632 26.7358 14.6539 26.3486 14.743L25.5825 14.9241C24.3954 15.2102 23.3371 15.8543 22.5654 16.7604L20.5104 19.1748C20.023 18.5879 19.3617 18.1542 18.6123 17.9302C17.7989 15.1877 16.6845 13.1181 15.2916 11.7904ZM17.7211 24.4922L19.4792 22.4342L20.3143 23.2302C20.3767 23.2917 20.4513 23.3408 20.5338 23.3746C20.6163 23.4084 20.705 23.4262 20.7948 23.4269C20.8846 23.4277 20.9736 23.4113 21.0567 23.3789C21.1398 23.3465 21.2153 23.2987 21.2788 23.2382C21.3423 23.1776 21.3925 23.1057 21.4265 23.0265C21.4605 22.9473 21.4776 22.8624 21.4769 22.7768C21.4761 22.6912 21.4574 22.6066 21.422 22.528C21.3866 22.4494 21.335 22.3783 21.2705 22.3188L20.336 21.4281L21.194 20.4219L21.7485 20.9511C21.8113 21.011 21.8858 21.0585 21.9679 21.0909C22.0499 21.1233 22.1379 21.1401 22.2267 21.1401C22.3155 21.1401 22.4035 21.1235 22.4855 21.0911C22.5676 21.0587 22.6422 21.0113 22.705 20.9514C22.7678 20.8916 22.8177 20.8205 22.8517 20.7423C22.8857 20.6641 22.9032 20.5803 22.9033 20.4956C22.9033 20.411 22.8858 20.3272 22.8519 20.2489C22.8179 20.1707 22.7681 20.0996 22.7053 20.0397L22.0508 19.4158L23.3355 17.907L24.6162 19.1284C24.7438 19.2458 24.9146 19.3107 25.0919 19.3093C25.2692 19.3078 25.4388 19.24 25.5641 19.1205C25.6895 19.001 25.7606 18.8394 25.7622 18.6704C25.7637 18.5014 25.6956 18.3386 25.5724 18.217L24.268 16.9731C24.7489 16.5982 25.3092 16.3268 25.9105 16.1777L26.6746 15.9966C27.0042 15.919 27.3492 15.9238 27.6764 16.0104C28.0035 16.097 28.3017 16.2625 28.5422 16.491L29.2928 17.2064C29.5319 17.4361 29.7051 17.7205 29.7958 18.0323C29.8865 18.3441 29.8916 18.673 29.8107 18.9872L29.6221 19.7136C29.3942 20.5761 28.8791 21.345 28.1541 21.905L24.811 24.4922H17.7211ZM12.4631 15.4687C12.0627 16.5721 11.8845 17.7376 11.9377 18.9041H11.8809C11.6506 17.7703 11.5055 16.6222 11.4468 15.4687H12.4631ZM3.98904 21.994C4.00519 21.4845 4.1444 20.9854 4.39584 20.5356C4.64728 20.0858 5.00419 19.6973 5.4388 19.4004C6.85068 18.5825 8.87858 19.2018 9.13891 19.2876L10.1444 19.7665C10.7555 20.0542 11.4279 20.204 12.1094 20.204C12.791 20.204 13.4634 20.0542 14.0744 19.7665L15.084 19.2843C15.437 19.1645 18.3297 18.2589 19.628 20.2138L15.9793 24.4922H3.94239C3.85912 23.6604 3.87478 22.8224 3.98904 21.994ZM30.4335 39.8636C30.3232 39.929 30.1955 39.9628 30.0657 39.9609H7.77639C7.64651 39.9628 7.51881 39.929 7.40854 39.8636C2.62179 36.8407 1.57842 29.4866 1.35258 26.4683C1.34547 26.3806 1.35762 26.2924 1.38824 26.2094C1.41886 26.1264 1.46728 26.0504 1.53042 25.9862C1.59382 25.921 1.67074 25.8692 1.7563 25.8339C1.84186 25.7986 1.93419 25.7807 2.02742 25.7812H35.8167C35.9099 25.7807 36.0022 25.7986 36.0878 25.8339C36.1733 25.8692 36.2503 25.921 36.3137 25.9862C36.3769 26.0503 36.4254 26.1263 36.4562 26.2093C36.4869 26.2923 36.4992 26.3805 36.4922 26.4683C36.2657 29.4892 35.2216 36.8414 30.4335 39.8636ZM36.0797 20.3575C36.2325 20.5966 36.1473 21.0471 35.8464 21.6259C35.8047 21.7055 35.7808 21.7924 35.776 21.8813C35.7713 21.9701 35.7859 22.0589 35.8189 22.1421C35.852 22.2252 35.9027 22.301 35.9679 22.3646C36.0332 22.4282 36.1115 22.4782 36.198 22.5115C36.5584 22.652 37.0859 22.9994 37.096 23.2592C37.096 23.3101 37.0588 23.7716 35.605 24.4922H26.9559L29.0047 22.9053C29.9573 22.1691 30.6343 21.1589 30.9346 20.0256L31.1239 19.2979C31.2174 18.9288 31.2403 18.5467 31.1915 18.17C31.799 18.2877 32.417 18.3492 33.0368 18.3536C33.5191 18.3543 33.9998 18.3024 34.4697 18.199C34.553 18.522 34.5434 18.8604 34.442 19.1786C34.4169 19.2735 34.4149 19.3726 34.436 19.4683C34.457 19.564 34.5007 19.654 34.5636 19.7312C34.6266 19.8085 34.7072 19.8711 34.7993 19.9143C34.8913 19.9574 34.9925 19.9801 35.0952 19.9804C35.2776 19.9756 35.4592 20.0066 35.6285 20.0715C35.7979 20.1364 35.9515 20.2337 36.0797 20.3575ZM38.6398 9.62542C38.42 10.7894 36.5219 11.851 35.8086 12.161C35.7092 12.2042 35.6223 12.2697 35.5553 12.3518C35.4883 12.434 35.4432 12.5304 35.4238 12.6329C35.4044 12.7353 35.4113 12.8407 35.4439 12.94C35.4765 13.0393 35.5339 13.1296 35.6111 13.2032C35.8714 13.4343 36.0698 13.7214 36.1898 14.0405C36.3098 14.3596 36.3479 14.7015 36.3008 15.0375C36.2164 15.4116 36.0385 15.7606 35.7822 16.0551C35.5259 16.3495 35.1988 16.5807 34.8288 16.7288C33.3019 17.4584 30.9285 16.8016 30.6012 16.7056C30.4958 16.5594 30.3773 16.4222 30.2469 16.2957L29.4963 15.5802C29.3638 15.4563 29.2204 15.3435 29.0676 15.2431C28.9675 14.9351 28.2778 12.6702 29.0419 11.2129C29.1976 10.8606 29.4401 10.5493 29.7488 10.3054C30.0576 10.0615 30.4235 9.8921 30.8156 9.81169C31.1682 9.76661 31.5269 9.80273 31.8619 9.917C32.1968 10.0313 32.4982 10.2204 32.7407 10.4685C32.8179 10.5419 32.9126 10.5965 33.0167 10.6275C33.1208 10.6585 33.2313 10.6651 33.3386 10.6466C33.446 10.6281 33.5471 10.5851 33.6332 10.5213C33.7194 10.4575 33.788 10.3748 33.8334 10.2803C34.1593 9.60092 35.273 7.79237 36.4942 7.58225C36.7785 7.55514 37.0655 7.59659 37.3286 7.7028C37.5917 7.809 37.8226 7.97655 38.0001 8.19005C38.2246 8.35886 38.4009 8.57884 38.5127 8.8297C38.6245 9.08055 38.6682 9.35421 38.6398 9.62542Z" fill="url(#paint1_linear_257_924)"/>
<path d="M18.1293 9.37964C18.0492 9.22665 17.9085 9.11028 17.7383 9.05613C17.5682 9.00198 17.3824 9.01448 17.2219 9.09089C17.0614 9.1673 16.9393 9.30136 16.8825 9.46357C16.8257 9.62578 16.8388 9.80286 16.9189 9.95585L18.2713 12.534C18.311 12.6097 18.366 12.6773 18.4331 12.7328C18.5001 12.7883 18.578 12.8307 18.6623 12.8575C18.7466 12.8843 18.8355 12.895 18.9242 12.8891C19.0128 12.8831 19.0993 12.8606 19.1788 12.8227C19.2582 12.7849 19.3291 12.7325 19.3874 12.6686C19.4456 12.6046 19.49 12.5304 19.5182 12.45C19.5463 12.3697 19.5576 12.2849 19.5513 12.2004C19.545 12.116 19.5214 12.0335 19.4817 11.9578L18.1293 9.37964Z" fill="black"/>
<path d="M18.1293 9.37964C18.0492 9.22665 17.9085 9.11028 17.7383 9.05613C17.5682 9.00198 17.3824 9.01448 17.2219 9.09089C17.0614 9.1673 16.9393 9.30136 16.8825 9.46357C16.8257 9.62578 16.8388 9.80286 16.9189 9.95585L18.2713 12.534C18.311 12.6097 18.366 12.6773 18.4331 12.7328C18.5001 12.7883 18.578 12.8307 18.6623 12.8575C18.7466 12.8843 18.8355 12.895 18.9242 12.8891C19.0128 12.8831 19.0993 12.8606 19.1788 12.8227C19.2582 12.7849 19.3291 12.7325 19.3874 12.6686C19.4456 12.6046 19.49 12.5304 19.5182 12.45C19.5463 12.3697 19.5576 12.2849 19.5513 12.2004C19.545 12.116 19.5214 12.0335 19.4817 11.9578L18.1293 9.37964Z" fill="url(#paint2_linear_257_924)"/>
<path d="M23.3001 11.5371C23.3796 11.575 23.4661 11.5975 23.5547 11.6035C23.6433 11.6095 23.7323 11.5988 23.8166 11.572C23.9009 11.5451 23.9788 11.5028 24.0459 11.4472C24.1129 11.3917 24.1679 11.3241 24.2075 11.2483L24.8837 9.95927C24.9639 9.80628 24.977 9.6292 24.9202 9.46699C24.8634 9.30478 24.7413 9.17072 24.5808 9.09431C24.4203 9.0179 24.2345 9.0054 24.0643 9.05955C23.8942 9.1137 23.7535 9.23007 23.6734 9.38306L22.9972 10.6721C22.9574 10.7479 22.9337 10.8303 22.9275 10.9148C22.9212 10.9993 22.9324 11.0841 22.9606 11.1644C22.9887 11.2448 23.0332 11.319 23.0914 11.383C23.1497 11.4469 23.2206 11.4993 23.3001 11.5371Z" fill="black"/>
<path d="M23.3001 11.5371C23.3796 11.575 23.4661 11.5975 23.5547 11.6035C23.6433 11.6095 23.7323 11.5988 23.8166 11.572C23.9009 11.5451 23.9788 11.5028 24.0459 11.4472C24.1129 11.3917 24.1679 11.3241 24.2075 11.2483L24.8837 9.95927C24.9639 9.80628 24.977 9.6292 24.9202 9.46699C24.8634 9.30478 24.7413 9.17072 24.5808 9.09431C24.4203 9.0179 24.2345 9.0054 24.0643 9.05955C23.8942 9.1137 23.7535 9.23007 23.6734 9.38306L22.9972 10.6721C22.9574 10.7479 22.9337 10.8303 22.9275 10.9148C22.9212 10.9993 22.9324 11.0841 22.9606 11.1644C22.9887 11.2448 23.0332 11.319 23.0914 11.383C23.1497 11.4469 23.2206 11.4993 23.3001 11.5371Z" fill="url(#paint3_linear_257_924)"/>
<path d="M28.8483 5.78078C28.902 5.79346 28.9572 5.79995 29.0126 5.80012C29.1633 5.79993 29.3096 5.75176 29.4283 5.66325C29.5471 5.57473 29.6313 5.45095 29.6678 5.31156L30.344 2.73344C30.3678 2.6506 30.3741 2.56406 30.3623 2.4789C30.3505 2.39373 30.321 2.31167 30.2755 2.23753C30.23 2.16339 30.1694 2.09866 30.0973 2.04716C30.0252 1.99566 29.943 1.95842 29.8556 1.93763C29.7681 1.91683 29.6772 1.91291 29.5882 1.92608C29.4991 1.93926 29.4137 1.96927 29.337 2.01435C29.2603 2.05943 29.1938 2.11866 29.1415 2.18858C29.0891 2.2585 29.052 2.33769 29.0322 2.42149L28.356 4.99961C28.3127 5.16542 28.3402 5.34085 28.4325 5.48734C28.5248 5.63382 28.6743 5.73937 28.8483 5.78078Z" fill="black"/>
<path d="M28.8483 5.78078C28.902 5.79346 28.9572 5.79995 29.0126 5.80012C29.1633 5.79993 29.3096 5.75176 29.4283 5.66325C29.5471 5.57473 29.6313 5.45095 29.6678 5.31156L30.344 2.73344C30.3678 2.6506 30.3741 2.56406 30.3623 2.4789C30.3505 2.39373 30.321 2.31167 30.2755 2.23753C30.23 2.16339 30.1694 2.09866 30.0973 2.04716C30.0252 1.99566 29.943 1.95842 29.8556 1.93763C29.7681 1.91683 29.6772 1.91291 29.5882 1.92608C29.4991 1.93926 29.4137 1.96927 29.337 2.01435C29.2603 2.05943 29.1938 2.11866 29.1415 2.18858C29.0891 2.2585 29.052 2.33769 29.0322 2.42149L28.356 4.99961C28.3127 5.16542 28.3402 5.34085 28.4325 5.48734C28.5248 5.63382 28.6743 5.73937 28.8483 5.78078Z" fill="url(#paint4_linear_257_924)"/>
<path d="M33.4453 20.6895L32.093 21.3341C31.9325 21.4105 31.8104 21.5445 31.7536 21.7067C31.6967 21.8689 31.7099 22.046 31.79 22.199C31.8702 22.352 32.0108 22.4684 32.181 22.5225C32.3512 22.5767 32.537 22.5642 32.6975 22.4878L34.0499 21.8432C34.1293 21.8054 34.2002 21.753 34.2584 21.6891C34.3167 21.6251 34.3611 21.5509 34.3893 21.4706C34.4174 21.3902 34.4287 21.3054 34.4224 21.221C34.4161 21.1365 34.3925 21.054 34.3528 20.9783C34.3131 20.9025 34.2581 20.835 34.1911 20.7795C34.124 20.7239 34.0461 20.6816 33.9618 20.6548C33.7916 20.6006 33.6059 20.6131 33.4453 20.6895Z" fill="black"/>
<path d="M33.4453 20.6895L32.093 21.3341C31.9325 21.4105 31.8104 21.5445 31.7536 21.7067C31.6967 21.8689 31.7099 22.046 31.79 22.199C31.8702 22.352 32.0108 22.4684 32.181 22.5225C32.3512 22.5767 32.537 22.5642 32.6975 22.4878L34.0499 21.8432C34.1293 21.8054 34.2002 21.753 34.2584 21.6891C34.3167 21.6251 34.3611 21.5509 34.3893 21.4706C34.4174 21.3902 34.4287 21.3054 34.4224 21.221C34.4161 21.1365 34.3925 21.054 34.3528 20.9783C34.3131 20.9025 34.2581 20.835 34.1911 20.7795C34.124 20.7239 34.0461 20.6816 33.9618 20.6548C33.7916 20.6006 33.6059 20.6131 33.4453 20.6895Z" fill="url(#paint5_linear_257_924)"/>
<defs>
<linearGradient id="paint0_linear_257_924" x1="35.5141" y1="13.8739" x2="29.5531" y2="10.8817" gradientUnits="userSpaceOnUse">
<stop stop-color="#55097B"/>
<stop offset="1" stop-color="#F00045"/>
</linearGradient>
<linearGradient id="paint1_linear_257_924" x1="30.2146" y1="30.293" x2="-4.3901" y2="14.2361" gradientUnits="userSpaceOnUse">
<stop stop-color="#55097B"/>
<stop offset="1" stop-color="#F00045"/>
</linearGradient>
<linearGradient id="paint2_linear_257_924" x1="18.8912" y1="11.8633" x2="16.3334" y2="11.0072" gradientUnits="userSpaceOnUse">
<stop stop-color="#55097B"/>
<stop offset="1" stop-color="#F00045"/>
</linearGradient>
<linearGradient id="paint3_linear_257_924" x1="24.4586" y1="10.9201" x2="22.59" y2="10.2165" gradientUnits="userSpaceOnUse">
<stop stop-color="#55097B"/>
<stop offset="1" stop-color="#F00045"/>
</linearGradient>
<linearGradient id="paint4_linear_257_924" x1="29.8709" y1="4.76905" x2="27.8606" y2="4.26543" gradientUnits="userSpaceOnUse">
<stop stop-color="#55097B"/>
<stop offset="1" stop-color="#F00045"/>
</linearGradient>
<linearGradient id="paint5_linear_257_924" x1="33.7623" y1="22.042" x2="31.7979" y2="20.7272" gradientUnits="userSpaceOnUse">
<stop stop-color="#55097B"/>
<stop offset="1" stop-color="#F00045"/>
</linearGradient>
</defs>
</svg>
