<svg width="21" height="21" viewBox="0 0 21 21" fill="none" xmlns="http://www.w3.org/2000/svg">
<path d="M10.3402 20.6411H10.2948C4.61832 20.6411 0 16.0214 0 10.3433V10.2978C0 4.61968 4.61832 0 10.2948 0H10.3402C16.0167 0 20.635 4.61968 20.635 10.2978V10.3433C20.635 16.0214 16.0167 20.6411 10.3402 20.6411ZM10.2948 0.698679C5.00318 0.698679 0.698474 5.00465 0.698474 10.2978V10.3433C0.698474 15.6364 5.00318 19.9424 10.2948 19.9424H10.3402C15.6318 19.9424 19.9365 15.6364 19.9365 10.3433V10.2978C19.9365 5.00465 15.6318 0.698679 10.3402 0.698679H10.2948Z" fill="white"/>
<path d="M9 12L11.595 10.5L9 9V12ZM14.78 8.085C14.845 8.32 14.89 8.635 14.92 9.035C14.955 9.435 14.97 9.78 14.97 10.08L15 10.5C15 11.595 14.92 12.4 14.78 12.915C14.655 13.365 14.365 13.655 13.915 13.78C13.68 13.845 13.25 13.89 12.59 13.92C11.94 13.955 11.345 13.97 10.795 13.97L10 14C7.905 14 6.6 13.92 6.085 13.78C5.635 13.655 5.345 13.365 5.22 12.915C5.155 12.68 5.11 12.365 5.08 11.965C5.045 11.565 5.03 11.22 5.03 10.92L5 10.5C5 9.405 5.08 8.6 5.22 8.085C5.345 7.635 5.635 7.345 6.085 7.22C6.32 7.155 6.75 7.11 7.41 7.08C8.06 7.045 8.655 7.03 9.205 7.03L10 7C12.095 7 13.4 7.08 13.915 7.22C14.365 7.345 14.655 7.635 14.78 8.085Z" fill="white"/>
</svg>
